<svg width="200" height="200" viewBox="0 0 200 200" fill="none" xmlns="http://www.w3.org/2000/svg">
<path fill-rule="evenodd" clip-rule="evenodd" d="M57 50C57 41.7157 63.7157 35 72 35H128C136.284 35 143 41.7157 143 50H146C151.523 50 156 54.4772 156 60V70C156 75.5228 151.523 80 146 80H143V85C143 93.2843 136.284 100 128 100H72C63.7157 100 57 93.2843 57 85V80H54C48.4772 80 44 75.5228 44 70V60C44 54.4772 48.4772 50 54 50L57 50ZM57 111H143V167H57V111ZM40 182C40 174.268 46.268 168 54 168H146C153.732 168 160 174.268 160 182C160 189.732 153.732 196 146 196H54C46.268 196 40 189.732 40 182Z" fill="#FADFA2"/>
<path d="M57 111H89V167C89 167 71 167 71 182C71 197 89 197 89 197H54C45.7157 197 39 190.284 39 182C39 173.716 45.7157 167 54 167H57V111Z" fill="#F6C046"/>
<circle cx="100" cy="11" r="8" fill="#F6C046"/>
<path d="M57 49C57 41.268 63.268 35 71 35H85L83.0388 35.3922C78.3646 36.3271 75 40.4312 75 45.198V89.802C75 94.5688 78.3646 98.6729 83.0388 99.6078L85 100H76C65.5066 100 57 91.4934 57 81C49.268 81 43 74.732 43 67V63C43 55.268 49.268 49 57 49Z" fill="#F6C046"/>
<path d="M31 146C31 147.105 31.8954 148 33 148C34.1046 148 35 147.105 35 146H31ZM11 146C11 147.105 11.8954 148 13 148C14.1046 148 15 147.105 15 146H11ZM165 146C165 147.105 165.895 148 167 148C168.105 148 169 147.105 169 146H165ZM185 146C185 147.105 185.895 148 187 148C188.105 148 189 147.105 189 146H185ZM78.8906 84.3359C77.9715 84.9486 77.7232 86.1903 78.3359 87.1094C78.9486 88.0285 80.1903 88.2768 81.1094 87.6641L78.8906 84.3359ZM118.891 87.6641C119.81 88.2768 121.051 88.0285 121.664 87.1094C122.277 86.1903 122.028 84.9486 121.109 84.3359L118.891 87.6641ZM57 113H143V109H57V113ZM141 111V167H145V111H141ZM143 165H57V169H143V165ZM59 167V111H55V167H59ZM143 169H146V165H143V169ZM146 195H54V199H146V195ZM54 169H57V165H54V169ZM57 109H46V113H57V109ZM31 144V146H35V144H31ZM11 144V146H15V144H11ZM143 113H154V109H143V113ZM165 144V146H169V144H165ZM185 144V146H189V144H185ZM124 98H76V102H124V98ZM155 63V67H159V63H155ZM141 49V81H145V49H141ZM45 67V63H41V67H45ZM59 81V49H55V81H59ZM71 37H100V33H71V37ZM100 37H129V33H100V37ZM102 35V19H98V35H102ZM80 86C81.1094 87.6641 81.1086 87.6647 81.1077 87.6652C81.1075 87.6654 81.1067 87.6659 81.1062 87.6663C81.1052 87.6669 81.1043 87.6675 81.1035 87.668C81.1019 87.6691 81.1006 87.6699 81.0997 87.6705C81.0979 87.6717 81.0976 87.6719 81.0987 87.6712C81.1009 87.6697 81.109 87.6646 81.1229 87.656C81.1507 87.6388 81.2021 87.6077 81.2774 87.5646C81.4281 87.4785 81.6749 87.3445 82.0217 87.178C82.7151 86.8452 83.81 86.3818 85.3382 85.9116C88.3921 84.9719 93.1935 84 100 84V80C92.8065 80 87.6079 81.0281 84.1618 82.0884C82.44 82.6182 81.1599 83.1548 80.2908 83.572C79.8564 83.7805 79.525 83.959 79.2929 84.0916C79.1768 84.158 79.0856 84.2128 79.0187 84.2542C78.9853 84.2749 78.9579 84.2922 78.9366 84.3059C78.9259 84.3127 78.9167 84.3187 78.9091 84.3237C78.9053 84.3262 78.9018 84.3285 78.8987 84.3305C78.8972 84.3315 78.8957 84.3325 78.8944 84.3334C78.8937 84.3338 78.8928 84.3345 78.8924 84.3347C78.8915 84.3353 78.8906 84.3359 80 86ZM100 84C106.807 84 111.608 84.9719 114.662 85.9116C116.19 86.3818 117.285 86.8452 117.978 87.178C118.325 87.3445 118.572 87.4785 118.723 87.5646C118.798 87.6077 118.849 87.6388 118.877 87.656C118.891 87.6646 118.899 87.6697 118.901 87.6712C118.902 87.6719 118.902 87.6717 118.9 87.6705C118.899 87.6699 118.898 87.6691 118.897 87.668C118.896 87.6675 118.895 87.6669 118.894 87.6663C118.893 87.6659 118.893 87.6654 118.892 87.6652C118.891 87.6647 118.891 87.6641 120 86C121.109 84.3359 121.109 84.3353 121.108 84.3347C121.107 84.3345 121.106 84.3338 121.106 84.3334C121.104 84.3325 121.103 84.3315 121.101 84.3305C121.098 84.3285 121.095 84.3262 121.091 84.3237C121.083 84.3187 121.074 84.3127 121.063 84.3059C121.042 84.2922 121.015 84.2749 120.981 84.2542C120.914 84.2128 120.823 84.158 120.707 84.0916C120.475 83.959 120.144 83.7805 119.709 83.572C118.84 83.1548 117.56 82.6182 115.838 82.0884C112.392 81.0281 107.193 80 100 80V84ZM100 1C94.4771 1 90 5.47715 90 11H94C94 7.68629 96.6863 5 100 5V1ZM100 21C105.523 21 110 16.5228 110 11H106C106 14.3137 103.314 17 100 17V21ZM155 67C155 73.6274 149.627 79 143 79V83C151.837 83 159 75.8366 159 67H155ZM143 51C149.627 51 155 56.3726 155 63H159C159 54.1634 151.837 47 143 47V51ZM145 49C145 40.1634 137.837 33 129 33V37C135.627 37 141 42.3726 141 49H145ZM59 49C59 42.3726 64.3726 37 71 37V33C62.1634 33 55 40.1634 55 49H59ZM76 98C66.6112 98 59 90.3888 59 81H55C55 92.598 64.402 102 76 102V98ZM124 102C135.598 102 145 92.598 145 81H141C141 90.3888 133.389 98 124 98V102ZM90 11C90 16.5228 94.4771 21 100 21V17C96.6863 17 94 14.3137 94 11H90ZM154 113C165.598 113 175 122.402 175 134H179C179 120.193 167.807 109 154 109V113ZM110 11C110 5.47715 105.523 1 100 1V5C103.314 5 106 7.68629 106 11H110ZM23 132C16.3726 132 11 137.373 11 144H15C15 139.582 18.5817 136 23 136V132ZM23 136C27.4183 136 31 139.582 31 144H35C35 137.373 29.6274 132 23 132V136ZM46 109C32.1929 109 21 120.193 21 134H25C25 122.402 34.402 113 46 113V109ZM177 136C181.418 136 185 139.582 185 144H189C189 137.373 183.627 132 177 132V136ZM45 63C45 56.3726 50.3726 51 57 51V47C48.1634 47 41 54.1634 41 63H45ZM41 182C41 174.82 46.8203 169 54 169V165C44.6112 165 37 172.611 37 182H41ZM57 79C50.3726 79 45 73.6274 45 67H41C41 75.8366 48.1634 83 57 83V79ZM54 195C46.8203 195 41 189.18 41 182H37C37 191.389 44.6112 199 54 199V195ZM177 132C170.373 132 165 137.373 165 144H169C169 139.582 172.582 136 177 136V132ZM159 182C159 189.18 153.18 195 146 195V199C155.389 199 163 191.389 163 182H159ZM146 169C153.18 169 159 174.82 159 182H163C163 172.611 155.389 165 146 165V169Z" fill="#4A4A4A"/>
<path fill-rule="evenodd" clip-rule="evenodd" d="M66 182C66 185.314 63.3137 188 60 188C56.6863 188 54 185.314 54 182C54 178.686 56.6863 176 60 176C63.3137 176 66 178.686 66 182ZM106 182C106 185.314 103.314 188 100 188C96.6863 188 94 185.314 94 182C94 178.686 96.6863 176 100 176C103.314 176 106 178.686 106 182ZM140 188C143.314 188 146 185.314 146 182C146 178.686 143.314 176 140 176C136.686 176 134 178.686 134 182C134 185.314 136.686 188 140 188Z" fill="white"/>
<path d="M60 190C64.4183 190 68 186.418 68 182H64C64 184.209 62.2091 186 60 186V190ZM52 182C52 186.418 55.5817 190 60 190V186C57.7909 186 56 184.209 56 182H52ZM60 174C55.5817 174 52 177.582 52 182H56C56 179.791 57.7909 178 60 178V174ZM68 182C68 177.582 64.4183 174 60 174V178C62.2091 178 64 179.791 64 182H68ZM100 190C104.418 190 108 186.418 108 182H104C104 184.209 102.209 186 100 186V190ZM92 182C92 186.418 95.5817 190 100 190V186C97.7909 186 96 184.209 96 182H92ZM100 174C95.5817 174 92 177.582 92 182H96C96 179.791 97.7909 178 100 178V174ZM108 182C108 177.582 104.418 174 100 174V178C102.209 178 104 179.791 104 182H108ZM144 182C144 184.209 142.209 186 140 186V190C144.418 190 148 186.418 148 182H144ZM140 178C142.209 178 144 179.791 144 182H148C148 177.582 144.418 174 140 174V178ZM136 182C136 179.791 137.791 178 140 178V174C135.582 174 132 177.582 132 182H136ZM140 186C137.791 186 136 184.209 136 182H132C132 186.418 135.582 190 140 190V186Z" fill="#4A4A4A"/>
<path fill-rule="evenodd" clip-rule="evenodd" d="M81 69C86.5228 69 91 64.5228 91 59C91 53.4772 86.5228 49 81 49C75.4772 49 71 53.4772 71 59C71 64.5228 75.4772 69 81 69ZM119 69C124.523 69 129 64.5228 129 59C129 53.4772 124.523 49 119 49C113.477 49 109 53.4772 109 59C109 64.5228 113.477 69 119 69Z" fill="white"/>
<path d="M89 59C89 63.4183 85.4183 67 81 67V71C87.6274 71 93 65.6274 93 59H89ZM81 51C85.4183 51 89 54.5817 89 59H93C93 52.3726 87.6274 47 81 47V51ZM73 59C73 54.5817 76.5817 51 81 51V47C74.3726 47 69 52.3726 69 59H73ZM81 67C76.5817 67 73 63.4183 73 59H69C69 65.6274 74.3726 71 81 71V67ZM127 59C127 63.4183 123.418 67 119 67V71C125.627 71 131 65.6274 131 59H127ZM119 51C123.418 51 127 54.5817 127 59H131C131 52.3726 125.627 47 119 47V51ZM111 59C111 54.5817 114.582 51 119 51V47C112.373 47 107 52.3726 107 59H111ZM119 67C114.582 67 111 63.4183 111 59H107C107 65.6274 112.373 71 119 71V67Z" fill="#4A4A4A"/>
<path d="M152 141C152 152.046 143.046 161 132 161C120.954 161 112 152.046 112 141C112 129.954 120.954 121 132 121C143.046 121 152 129.954 152 141Z" fill="white"/>
<path d="M196 143C197.105 143 198 142.105 198 141C198 139.895 197.105 139 196 139V143ZM150 141C150 150.941 141.941 159 132 159V163C144.15 163 154 153.15 154 141H150ZM132 159C122.059 159 114 150.941 114 141H110C110 153.15 119.85 163 132 163V159ZM114 141C114 131.059 122.059 123 132 123V119C119.85 119 110 128.85 110 141H114ZM132 123C141.941 123 150 131.059 150 141H154C154 128.85 144.15 119 132 119V123ZM152 143H196V139H152V143Z" fill="#4A4A4A"/>
</svg>
