<svg width="1764" height="832" viewBox="0 0 1764 832" fill="none" xmlns="http://www.w3.org/2000/svg">
<rect x="139.24" y="79.45" width="43.6397" height="43.6397" transform="rotate(-25.7924 139.24 79.45)" fill="#F0F3F9"/>
<path fill-rule="evenodd" clip-rule="evenodd" d="M173.6 44H163.4C162.63 44 162 43.3699 162 42.5998V32.4002C162 31.6301 162.63 31 163.4 31H173.6C174.37 31 175 31.6301 175 32.4002V42.5998C175 43.3699 174.37 44 173.6 44Z" fill="#FBB52B"/>
<path fill-rule="evenodd" clip-rule="evenodd" d="M583.781 178.409L574.905 169.532C574.235 168.862 574.235 167.765 574.905 167.095L583.781 158.219C584.452 157.548 585.548 157.548 586.219 158.219L595.095 167.095C595.765 167.765 595.765 168.862 595.095 169.532L586.219 178.409C585.548 179.079 584.452 179.079 583.781 178.409Z" fill="#F18240"/>
<path fill-rule="evenodd" clip-rule="evenodd" d="M348.353 442.445L358.205 439.805C358.949 439.606 359.72 440.052 359.92 440.795L362.559 450.648C362.759 451.391 362.313 452.163 361.569 452.362L351.717 455.002C350.973 455.202 350.202 454.756 350.002 454.012L347.363 444.16C347.163 443.416 347.609 442.645 348.353 442.445Z" fill="#6662FF"/>
<path fill-rule="evenodd" clip-rule="evenodd" d="M1196.25 597.771L1205.34 595.334C1206.03 595.15 1206.74 595.562 1206.93 596.248L1209.36 605.343C1209.55 606.029 1209.13 606.742 1208.45 606.926L1199.35 609.362C1198.67 609.546 1197.96 609.135 1197.77 608.448L1195.33 599.354C1195.15 598.668 1195.56 597.955 1196.25 597.771Z" fill="#FBB52B"/>
<circle cx="1657.5" cy="668.5" r="28.5" fill="#F0F3F9"/>
<circle cx="463" cy="815" r="3" transform="rotate(-90 463 815)" fill="#5551FF"/>
<circle cx="463" cy="815" r="3" transform="rotate(-90 463 815)" fill="#5551FF"/>
<circle cx="463" cy="815" r="3" transform="rotate(-90 463 815)" fill="#5551FF"/>
<circle cx="463" cy="815" r="3" transform="rotate(-90 463 815)" fill="#5551FF"/>
<circle cx="485" cy="815" r="3" transform="rotate(-90 485 815)" fill="#5551FF"/>
<circle cx="485" cy="815" r="3" transform="rotate(-90 485 815)" fill="#5551FF"/>
<circle cx="485" cy="815" r="3" transform="rotate(-90 485 815)" fill="#5551FF"/>
<circle cx="485" cy="815" r="3" transform="rotate(-90 485 815)" fill="#5551FF"/>
<circle cx="507" cy="815" r="3" transform="rotate(-90 507 815)" fill="#5551FF"/>
<circle cx="507" cy="815" r="3" transform="rotate(-90 507 815)" fill="#5551FF"/>
<circle cx="507" cy="815" r="3" transform="rotate(-90 507 815)" fill="#5551FF"/>
<circle cx="507" cy="815" r="3" transform="rotate(-90 507 815)" fill="#5551FF"/>
<circle cx="463" cy="793" r="3" transform="rotate(-90 463 793)" fill="#5551FF"/>
<circle cx="463" cy="793" r="3" transform="rotate(-90 463 793)" fill="#5551FF"/>
<circle cx="463" cy="793" r="3" transform="rotate(-90 463 793)" fill="#5551FF"/>
<circle cx="463" cy="793" r="3" transform="rotate(-90 463 793)" fill="#5551FF"/>
<circle cx="485" cy="793" r="3" transform="rotate(-90 485 793)" fill="#5551FF"/>
<circle cx="485" cy="793" r="3" transform="rotate(-90 485 793)" fill="#5551FF"/>
<circle cx="485" cy="793" r="3" transform="rotate(-90 485 793)" fill="#5551FF"/>
<circle cx="485" cy="793" r="3" transform="rotate(-90 485 793)" fill="#5551FF"/>
<circle cx="507" cy="793" r="3" transform="rotate(-90 507 793)" fill="#5551FF"/>
<circle cx="507" cy="793" r="3" transform="rotate(-90 507 793)" fill="#5551FF"/>
<circle cx="507" cy="793" r="3" transform="rotate(-90 507 793)" fill="#5551FF"/>
<circle cx="507" cy="793" r="3" transform="rotate(-90 507 793)" fill="#5551FF"/>
<circle cx="463" cy="771" r="3" transform="rotate(-90 463 771)" fill="#5551FF"/>
<circle cx="463" cy="771" r="3" transform="rotate(-90 463 771)" fill="#5551FF"/>
<circle cx="463" cy="771" r="3" transform="rotate(-90 463 771)" fill="#5551FF"/>
<circle cx="463" cy="771" r="3" transform="rotate(-90 463 771)" fill="#5551FF"/>
<circle cx="485" cy="771" r="3" transform="rotate(-90 485 771)" fill="#5551FF"/>
<circle cx="485" cy="771" r="3" transform="rotate(-90 485 771)" fill="#5551FF"/>
<circle cx="485" cy="771" r="3" transform="rotate(-90 485 771)" fill="#5551FF"/>
<circle cx="485" cy="771" r="3" transform="rotate(-90 485 771)" fill="#5551FF"/>
<circle cx="507" cy="771" r="3" transform="rotate(-90 507 771)" fill="#5551FF"/>
<circle cx="507" cy="771" r="3" transform="rotate(-90 507 771)" fill="#5551FF"/>
<circle cx="507" cy="771" r="3" transform="rotate(-90 507 771)" fill="#5551FF"/>
<circle cx="507" cy="771" r="3" transform="rotate(-90 507 771)" fill="#5551FF"/>
<circle cx="463" cy="749" r="3" transform="rotate(-90 463 749)" fill="#5551FF"/>
<circle cx="463" cy="749" r="3" transform="rotate(-90 463 749)" fill="#5551FF"/>
<circle cx="463" cy="749" r="3" transform="rotate(-90 463 749)" fill="#5551FF"/>
<circle cx="463" cy="749" r="3" transform="rotate(-90 463 749)" fill="#5551FF"/>
<circle cx="485" cy="749" r="3" transform="rotate(-90 485 749)" fill="#5551FF"/>
<circle cx="485" cy="749" r="3" transform="rotate(-90 485 749)" fill="#5551FF"/>
<circle cx="485" cy="749" r="3" transform="rotate(-90 485 749)" fill="#5551FF"/>
<circle cx="485" cy="749" r="3" transform="rotate(-90 485 749)" fill="#5551FF"/>
<circle cx="507" cy="749" r="3" transform="rotate(-90 507 749)" fill="#5551FF"/>
<circle cx="507" cy="749" r="3" transform="rotate(-90 507 749)" fill="#5551FF"/>
<circle cx="507" cy="749" r="3" transform="rotate(-90 507 749)" fill="#5551FF"/>
<circle cx="507" cy="749" r="3" transform="rotate(-90 507 749)" fill="#5551FF"/>
<circle cx="463" cy="727" r="3" transform="rotate(-90 463 727)" fill="#5551FF"/>
<circle cx="463" cy="727" r="3" transform="rotate(-90 463 727)" fill="#5551FF"/>
<circle cx="463" cy="727" r="3" transform="rotate(-90 463 727)" fill="#5551FF"/>
<circle cx="463" cy="727" r="3" transform="rotate(-90 463 727)" fill="#5551FF"/>
<circle cx="485" cy="727" r="3" transform="rotate(-90 485 727)" fill="#5551FF"/>
<circle cx="485" cy="727" r="3" transform="rotate(-90 485 727)" fill="#5551FF"/>
<circle cx="485" cy="727" r="3" transform="rotate(-90 485 727)" fill="#5551FF"/>
<circle cx="485" cy="727" r="3" transform="rotate(-90 485 727)" fill="#5551FF"/>
<circle cx="507" cy="727" r="3" transform="rotate(-90 507 727)" fill="#5551FF"/>
<circle cx="507" cy="727" r="3" transform="rotate(-90 507 727)" fill="#5551FF"/>
<circle cx="507" cy="727" r="3" transform="rotate(-90 507 727)" fill="#5551FF"/>
<circle cx="507" cy="727" r="3" transform="rotate(-90 507 727)" fill="#5551FF"/>
<circle cx="485" cy="705" r="3" transform="rotate(-90 485 705)" fill="#FFBF3C"/>
<circle cx="485" cy="705" r="3" transform="rotate(-90 485 705)" fill="#FFBF3C"/>
<circle cx="485" cy="705" r="3" transform="rotate(-90 485 705)" fill="#FFBF3C"/>
<circle cx="485" cy="705" r="3" transform="rotate(-90 485 705)" fill="#FFBF3C"/>
<circle cx="507" cy="705" r="3" transform="rotate(-90 507 705)" fill="#FFBF3C"/>
<circle cx="507" cy="705" r="3" transform="rotate(-90 507 705)" fill="#FFBF3C"/>
<circle cx="507" cy="705" r="3" transform="rotate(-90 507 705)" fill="#FFBF3C"/>
<circle cx="507" cy="705" r="3" transform="rotate(-90 507 705)" fill="#FFBF3C"/>
<circle cx="1370" cy="352" r="3" transform="rotate(-90 1370 352)" fill="#6662FF"/>
<circle cx="1370" cy="352" r="3" transform="rotate(-90 1370 352)" fill="#6662FF"/>
<circle cx="1370" cy="352" r="3" transform="rotate(-90 1370 352)" fill="#6662FF"/>
<circle cx="1370" cy="352" r="3" transform="rotate(-90 1370 352)" fill="#6662FF"/>
<circle cx="1392" cy="352" r="3" transform="rotate(-90 1392 352)" fill="#6662FF"/>
<circle cx="1392" cy="352" r="3" transform="rotate(-90 1392 352)" fill="#6662FF"/>
<circle cx="1392" cy="352" r="3" transform="rotate(-90 1392 352)" fill="#6662FF"/>
<circle cx="1392" cy="352" r="3" transform="rotate(-90 1392 352)" fill="#6662FF"/>
<circle cx="1414" cy="352" r="3" transform="rotate(-90 1414 352)" fill="#6662FF"/>
<circle cx="1414" cy="352" r="3" transform="rotate(-90 1414 352)" fill="#6662FF"/>
<circle cx="1414" cy="352" r="3" transform="rotate(-90 1414 352)" fill="#6662FF"/>
<circle cx="1414" cy="352" r="3" transform="rotate(-90 1414 352)" fill="#6662FF"/>
<circle cx="1370" cy="330" r="3" transform="rotate(-90 1370 330)" fill="#6662FF"/>
<circle cx="1370" cy="330" r="3" transform="rotate(-90 1370 330)" fill="#6662FF"/>
<circle cx="1370" cy="330" r="3" transform="rotate(-90 1370 330)" fill="#6662FF"/>
<circle cx="1370" cy="330" r="3" transform="rotate(-90 1370 330)" fill="#6662FF"/>
<circle cx="1392" cy="330" r="3" transform="rotate(-90 1392 330)" fill="#6662FF"/>
<circle cx="1392" cy="330" r="3" transform="rotate(-90 1392 330)" fill="#6662FF"/>
<circle cx="1392" cy="330" r="3" transform="rotate(-90 1392 330)" fill="#6662FF"/>
<circle cx="1392" cy="330" r="3" transform="rotate(-90 1392 330)" fill="#6662FF"/>
<circle cx="1414" cy="330" r="3" transform="rotate(-90 1414 330)" fill="#6662FF"/>
<circle cx="1414" cy="330" r="3" transform="rotate(-90 1414 330)" fill="#6662FF"/>
<circle cx="1414" cy="330" r="3" transform="rotate(-90 1414 330)" fill="#6662FF"/>
<circle cx="1414" cy="330" r="3" transform="rotate(-90 1414 330)" fill="#6662FF"/>
<circle cx="1392" cy="308" r="3" transform="rotate(-90 1392 308)" fill="#FFBF3C"/>
<circle cx="1392" cy="308" r="3" transform="rotate(-90 1392 308)" fill="#FFBF3C"/>
<circle cx="1392" cy="308" r="3" transform="rotate(-90 1392 308)" fill="#FFBF3C"/>
<circle cx="1392" cy="308" r="3" transform="rotate(-90 1392 308)" fill="#FFBF3C"/>
<circle cx="1414" cy="308" r="3" transform="rotate(-90 1414 308)" fill="#FFBF3C"/>
<circle cx="1414" cy="308" r="3" transform="rotate(-90 1414 308)" fill="#FFBF3C"/>
<circle cx="1414" cy="308" r="3" transform="rotate(-90 1414 308)" fill="#FFBF3C"/>
<circle cx="1414" cy="308" r="3" transform="rotate(-90 1414 308)" fill="#FFBF3C"/>
<path d="M1699.94 639.941L1663.94 660.726L1663.94 619.157L1699.94 639.941Z" fill="#5551FF"/>
<path d="M1211.36 82.443L1217.19 104.192L1195.44 98.3647L1211.36 82.443Z" fill="#F18240"/>
<path d="M428 778L470.588 789.412L439.412 820.588L428 778Z" fill="#FFBF3C"/>
<circle cx="136" cy="81" r="15" fill="#3DB180"/>
<circle cx="1380" cy="807" r="14" fill="#3DB180"/>
<circle cx="1756" cy="8" r="8" fill="#FFC54F"/>
<circle cx="1719" cy="692" r="7" fill="#F18240"/>
<path fill-rule="evenodd" clip-rule="evenodd" d="M13.2497 606.099L1.5992 594.449C0.719571 593.569 0.719572 592.13 1.59927 591.25L13.2497 579.599C14.1294 578.72 15.5688 578.72 16.4484 579.599L28.099 591.25C28.9786 592.129 28.9787 593.569 28.099 594.449L16.4485 606.099C15.5688 606.979 14.1294 606.979 13.2497 606.099Z" fill="#F18240"/>
</svg>
