<?xml version="1.0" standalone="no"?>
<!DOCTYPE svg PUBLIC "-//W3C//DTD SVG 1.1//EN" "http://www.w3.org/Graphics/SVG/1.1/DTD/svg11.dtd" >
<svg xmlns="http://www.w3.org/2000/svg">
<metadata>Generated by IcoMoon</metadata>
<defs>
<font id="iCoins" horiz-adv-x="1024">
<font-face units-per-em="1024" ascent="960" descent="-64" />
<missing-glyph horiz-adv-x="1024" />
<glyph unicode="&#x20;" horiz-adv-x="512" d="" />
<glyph unicode="&#xe900;" glyph-name="Add-Package" d="M1024 682.667c0 153.167-124.164 277.333-277.333 277.333-78.652 0-149.653-32.739-200.124-85.333h-295.799c-31.743 0-60.862-17.619-75.591-45.738l-127.615-243.629c-3.2-6.109-4.871-12.902-4.871-19.798v-501.502c0-23.565 19.103-42.667 42.667-42.667h853.333c23.565 0 42.667 19.102 42.667 42.667v470.798c27.025 42.8 42.667 93.508 42.667 147.869zM746.667 405.333c74.517 0 142.17 29.389 192 77.21v-418.543h-853.333v469.333h298.667v-170.667l85.333 42.667 85.333-42.667 85.333 42.667v21.257c32.836-13.696 68.868-21.257 106.667-21.257zM426.667 832h86.263c-27.597-43.106-43.597-94.351-43.597-149.333 0-37.798 7.561-73.831 21.257-106.667h-63.923v256zM426.667 533.333h86.263c21.687-33.873 50.53-62.716 84.403-84.403v-17.229l-42.667-21.333-85.333 42.667-42.667-21.333v101.632zM90.832 576l122.116 233.131c7.365 14.059 21.924 22.869 37.795 22.869h133.256v-256h-293.168zM725.333 810.667c0 11.782 9.553 21.333 21.333 21.333s21.333-9.551 21.333-21.333v-106.667h106.667c11.78 0 21.333-9.551 21.333-21.333s-9.553-21.333-21.333-21.333h-106.667v-106.667c0-11.782-9.553-21.333-21.333-21.333s-21.333 9.551-21.333 21.333v106.667h-106.667c-11.78 0-21.333 9.551-21.333 21.333s9.553 21.333 21.333 21.333h106.667v106.667z" />
<glyph unicode="&#xe901;" glyph-name="Add-Worker" d="M787.315 408.29c-4.429-42.5-11.75-84.902-17.459-117.905-2.522-14.554-4.693-27.127-6.199-37.265-23.155-155.951-39.531-167.501-100.459-210.462-10.001-7.057-21.325-15.040-33.899-24.478-89.626-57.135-180.506-57.143-270.122-0.017-12.573 9.442-23.892 17.425-33.897 24.482-60.929 42.97-77.305 54.519-100.465 210.475-1.5 10.112-3.668 22.643-6.178 37.154l-0.024 0.141c-6.723 38.861-15.681 90.756-19.511 140.489 94.88 37.995 194.098 57.259 295.138 57.259 18.987 0 37.914-0.683 56.759-2.039-12.791 12.736-24.35 26.718-34.479 41.741-7.415 0.201-14.844 0.299-22.281 0.299-108.73 0-215.438-21.406-317.225-63.625-28.642 1.165-51.228 18.112-51.228 32.226 0 5.965 4.149 14.31 15.095 23.475l0.132 0.111c29.098 24.252 105.876 54.178 279.41 60.96l0.155 0.006c21.002 0.818 43.393 1.305 67.312 1.396-4.975 12.87-9.020 26.205-12.045 39.92-12.749-0.119-25.195-0.349-37.359-0.688v297.243h111.497v-40.996c18.027 18.135 38.549 33.79 61.005 46.41-8.247 1.959-16.567 3.413-24.93 4.349v10.236c0 11.046-8.077 20-18.039 20h-147.574c-9.963 0-18.039-8.954-18.039-20v-10.236c-58.393-6.536-114.506-38.3-159.635-90.79-42.828-49.812-71.074-113.611-79.022-177.503-28.99-1.664-52.116-28.338-52.116-60.888v-54.514c-17.039-17.167-21.928-34.412-21.928-48.492 0-35.255 31.744-64.678 73.578-71.014 4.059-51.234 13.093-103.561 19.891-142.869l0.053-0.303c2.448-14.157 4.565-26.398 5.983-35.951 12.76-85.943 24.468-131.9 41.752-163.917 18.267-33.839 42.042-50.607 74.944-73.813 9.943-7.010 21.211-14.959 33.561-24.247l1.108-0.768c50.454-32.299 102.123-48.678 153.583-48.691h0.055c51.486 0 103.194 16.388 153.677 48.708l1.105 0.768c12.352 9.284 23.616 17.229 33.557 24.239 32.887 23.198 56.683 39.974 74.944 73.809 17.284 32.013 28.988 77.973 41.749 163.913 1.421 9.562 3.537 21.798 5.986 35.964l0.047 0.265c6.383 36.919 14.746 85.316 19.102 133.517-12.041-3.507-24.414-6.221-37.069-8.081zM147.717 599.77c0 11.564 8.482 20.97 18.908 20.97h13.392c9.483 0 17.344 8.138 17.997 18.626 6.857 110.33 91.247 234.467 204.396 249.353v-40.154c-41.15-6.302-80.59-31-112.592-70.914-6.618-8.256-5.949-20.896 1.495-28.236 3.438-3.388 7.715-5.052 11.98-5.052 4.973 0 9.925 2.266 13.488 6.712 24.886 31.038 54.752 50.77 85.629 56.976v-187.475c-92.362-4.492-165.671-16.028-218.612-34.466-13.92-4.848-25.841-10-36.081-15.334v28.994zM1024 682.667c0-153.169-124.164-277.333-277.333-277.333s-277.333 124.164-277.333 277.333c0 153.167 124.164 277.333 277.333 277.333s277.333-124.166 277.333-277.333zM725.333 810.667c0 11.782 9.553 21.333 21.333 21.333s21.333-9.551 21.333-21.333v-106.667h106.667c11.78 0 21.333-9.551 21.333-21.333s-9.553-21.333-21.333-21.333h-106.667v-106.667c0-11.782-9.553-21.333-21.333-21.333s-21.333 9.551-21.333 21.333v106.667h-106.667c-11.78 0-21.333 9.551-21.333 21.333s9.553 21.333 21.333 21.333h106.667v106.667z" />
<glyph unicode="&#xe902;" glyph-name="Airplane" d="M468.612 783.13c11.11 17.283 22.605 30.477 32.073 39.084 4.681 4.256 8.542 7.094 11.315 8.75 2.773-1.656 6.635-4.494 11.315-8.75 9.468-8.607 20.962-21.801 32.073-39.084 22.199-34.529 41.946-83.917 41.946-143.13v-63.69c-0.004-0.194-0.004-0.388 0-0.582v-234.394c0-12.868-4.582-37.060-12.937-68.13-8.149-30.319-19.294-65.079-31.134-97.975-11.866-32.956-24.26-63.569-34.842-85.692-2.287-4.783-4.437-9.054-6.421-12.783-1.984 3.729-4.134 8-6.421 12.783-10.581 22.123-22.976 52.736-34.842 85.692-11.84 32.896-22.985 67.657-31.134 97.975-8.354 31.070-12.937 55.262-12.937 68.13v234.394c0.004 0.194 0.004 0.388 0 0.582v63.69c0 59.213 19.746 108.602 41.946 143.13zM640 587.222v52.778c0 68.787-22.921 126.065-48.721 166.203-12.89 20.050-26.731 36.19-39.262 47.583-6.238 5.672-12.493 10.478-18.462 14.001-5.218 3.082-12.992 6.88-21.555 6.88s-16.337-3.798-21.555-6.88c-5.969-3.523-12.224-8.329-18.462-14.001-12.531-11.393-26.372-27.533-39.262-47.583-25.803-40.138-48.721-97.416-48.721-166.203v-52.778l-128-88.001v12.779c0 35.346-28.654 64-64 64s-64-28.654-64-64v-100.779l-76.086-52.309c-5.789-3.981-9.248-10.556-9.248-17.579v-85.333c0-6.571 3.027-12.77 8.204-16.815s11.93-5.474 18.303-3.883l317.408 79.351c2.541-15.62 6.767-33.741 11.816-52.527 6.903-25.677 15.782-54.131 25.372-81.975l-115.603-77.069c-5.935-3.955-9.5-10.615-9.5-17.749v-42.667c0-6.694 3.142-13.001 8.486-17.033s12.271-5.321 18.708-3.482l144.932 41.412c4.386-8.734 8.695-16.461 12.766-22.549 2.56-3.827 5.542-7.795 8.913-11.046 2.402-2.321 9.297-8.636 19.529-8.636s17.126 6.315 19.529 8.636c3.371 3.251 6.353 7.219 8.913 11.046 4.070 6.089 8.38 13.815 12.766 22.549l144.93-41.412c6.438-1.839 13.363-0.55 18.709 3.482s8.486 10.338 8.486 17.033v42.667c0 7.134-3.567 13.794-9.498 17.749l-115.605 77.069c9.591 27.844 18.47 56.299 25.37 81.975 5.052 18.786 9.276 36.907 11.819 52.527l317.406-79.351c6.374-1.591 13.124-0.162 18.304 3.883s8.205 10.244 8.205 16.815v85.333c0 7.023-3.46 13.598-9.246 17.579l-76.087 52.309v100.779c0 35.346-28.655 64-64 64s-64-28.654-64-64v-12.779l-128 88.001zM640 535.444l298.667-205.332v-46.788l-298.667 74.667v177.454zM810.667 469.888v42.112c0 11.78 9.553 21.333 21.333 21.333s21.333-9.553 21.333-21.333v-71.445l-42.667 29.333zM585.301 138.825l97.365-64.909v-2.965l-111.654 31.902c4.719 11.285 9.523 23.398 14.289 35.972zM452.988 102.852l-111.654-31.902v2.965l97.365 64.909c4.766-12.574 9.57-24.687 14.289-35.972zM384 357.99l-298.667-74.667v46.788l298.667 205.332v-177.454zM170.667 440.555v71.445c0 11.78 9.551 21.333 21.333 21.333s21.333-9.553 21.333-21.333v-42.112l-42.667-29.333z" />
<glyph unicode="&#xe903;" glyph-name="Approve" d="M938.667 448c0 235.642-191.027 426.667-426.667 426.667-235.642 0-426.667-191.025-426.667-426.667 0-235.639 191.025-426.667 426.667-426.667 235.639 0 426.667 191.027 426.667 426.667zM896 448c0-212.079-171.921-384-384-384-212.077 0-384 171.921-384 384 0 212.077 171.923 384 384 384 212.079 0 384-171.923 384-384zM289.080 456.977c16.616 16.619 43.556 16.619 60.172 0l128.542-128.542c16.614-16.614 16.614-43.554 0-60.169-16.619-16.619-43.558-16.619-60.172 0l-128.542 128.542c-16.616 16.614-16.616 43.554 0 60.169zM417.622 268.267c-16.616 16.614-16.594 43.554 0.022 60.173l277.802 277.801c16.619 16.616 43.558 16.616 60.173 0s16.614-43.555 0-60.172l-277.824-277.803c-16.619-16.619-43.558-16.619-60.172 0z" />
<glyph unicode="&#xe904;" glyph-name="Arrow-Down" d="M533.333 789.333c11.78 0 21.333-9.551 21.333-21.333v-588.497l99.345 99.345c8.333 8.333 21.841 8.333 30.17 0 8.333-8.329 8.333-21.837 0-30.17l-135.761-135.765c-8.333-8.329-21.841-8.329-30.17 0l-135.767 135.765c-8.331 8.333-8.331 21.841 0 30.17 8.331 8.333 21.839 8.333 30.17 0l99.346-99.345v588.497c0 11.782 9.553 21.333 21.333 21.333z" />
<glyph unicode="&#xe905;" glyph-name="Arrow-Left" d="M896 426.667c0 11.78-9.553 21.333-21.333 21.333h-661.333l159.135 159.134c6.887 6.887 8.594 17.408 4.239 26.12-6.907 13.814-25.318 16.801-36.239 5.88l-182.298-182.298c-16.663-16.661-16.663-43.678 0-60.339l182.298-182.298c10.921-10.923 29.332-7.936 36.239 5.879 4.355 8.713 2.648 19.234-4.239 26.121l-159.135 159.134h661.333c11.78 0 21.333 9.553 21.333 21.333z" />
<glyph unicode="&#xe906;" glyph-name="Arrow-Right" d="M128 426.667c0 11.78 9.551 21.333 21.333 21.333h661.333l-159.134 159.134c-6.886 6.887-8.593 17.408-4.241 26.12 6.908 13.814 25.318 16.801 36.241 5.88l182.298-182.298c16.661-16.661 16.661-43.678 0-60.339l-182.298-182.298c-10.923-10.923-29.333-7.936-36.241 5.879-4.352 8.713-2.645 19.234 4.241 26.121l159.134 159.134h-661.333c-11.782 0-21.333 9.553-21.333 21.333z" />
<glyph unicode="&#xe907;" glyph-name="Arrow-Up" d="M518.251 783.085c8.329 8.332 21.837 8.332 30.17 0l135.761-135.764c8.333-8.331 8.333-21.839 0-30.17-8.329-8.332-21.837-8.332-30.17 0l-99.345 99.346v-588.497c0-11.78-9.553-21.333-21.333-21.333s-21.333 9.553-21.333 21.333v588.497l-99.346-99.346c-8.332-8.332-21.839-8.332-30.17 0s-8.331 21.839 0 30.17l135.767 135.764z" />
<glyph unicode="&#xe908;" glyph-name="Attachment" d="M261.732 176.294c58.318-58.317 152.871-58.317 211.189 0l316.783 316.787 30.17-30.17-316.783-316.787c-74.982-74.978-196.548-74.978-271.529 0-74.981 74.982-74.981 196.548 0 271.531l362.183 362.182c58.317 58.318 152.87 58.318 211.187 0 58.321-58.319 58.321-152.871 0-211.189l-271.671-271.671c-41.655-41.655-109.193-41.655-150.849 0s-41.656 109.193 0 150.848l196.647 196.646 30.17-30.17-196.647-196.646c-24.993-24.994-24.993-65.515 0-90.509 24.995-24.994 65.516-24.994 90.51 0l271.671 271.672c41.655 41.656 41.655 109.193 0 150.849s-109.193 41.656-150.848 0l-362.182-362.182c-58.319-58.317-58.319-152.87 0-211.191z" />
<glyph unicode="&#xe909;" glyph-name="Basket" d="M341.333 640c0 48.917 14.46 73.702 31.764 87.16 18.388 14.302 44.56 19.506 74.903 19.506h128c30.345 0 56.516-5.204 74.901-19.506 17.306-13.458 31.765-38.243 31.765-87.16 0-11.782 9.553-21.333 21.333-21.333s21.333 9.551 21.333 21.333c0 57.749-17.54 96.965-48.235 120.84-29.615 23.031-67.443 28.494-101.099 28.494h-128c-33.657 0-71.486-5.463-101.097-28.494-30.696-23.875-48.236-63.090-48.236-120.84 0-11.782 9.551-21.333 21.333-21.333s21.333 9.551 21.333 21.333zM405.333 448c0 11.78-9.551 21.333-21.333 21.333s-21.333-9.553-21.333-21.333v-213.333c0-11.78 9.551-21.333 21.333-21.333s21.333 9.553 21.333 21.333v213.333zM533.333 448c0 11.78-9.553 21.333-21.333 21.333s-21.333-9.553-21.333-21.333v-213.333c0-11.78 9.553-21.333 21.333-21.333s21.333 9.553 21.333 21.333v213.333zM661.333 448c0 11.78-9.553 21.333-21.333 21.333s-21.333-9.553-21.333-21.333v-213.333c0-11.78 9.553-21.333 21.333-21.333s21.333 9.553 21.333 21.333v213.333zM85.333 554.667c0-11.782 9.551-21.333 21.333-21.333h25.178l56.303-281.519c13.416-67.076 37.98-105.894 72.503-126.204 32.254-18.974 69.36-18.957 99.725-18.944h303.249c30.366-0.013 67.469-0.030 99.725 18.944 34.522 20.309 59.089 59.127 72.503 126.204l56.303 281.519h25.178c11.78 0 21.333 9.551 21.333 21.333s-9.553 21.333-21.333 21.333h-810.667c-11.782 0-21.333-9.551-21.333-21.333zM175.356 533.333h673.289l-54.63-273.148c-12.186-60.924-32.418-86.106-52.297-97.796-21.329-12.548-47.159-13.056-80.384-13.056h-298.667c-33.225 0-59.055 0.508-80.384 13.056-19.878 11.691-40.113 36.873-52.297 97.796l-54.63 273.148z" />
<glyph unicode="&#xe90a;" glyph-name="Bed" d="M85.333 444.356c-24.858-8.785-42.667-32.491-42.667-60.356v-85.333c0-16.393 6.162-31.343 16.297-42.667-10.134-11.324-16.297-26.274-16.297-42.667v-128c0-11.78 9.551-21.333 21.333-21.333h85.333c11.782 0 21.333 9.553 21.333 21.333v64h682.667v-64c0-11.78 9.553-21.333 21.333-21.333h85.333c11.78 0 21.333 9.553 21.333 21.333v128c0 16.393-6.161 31.343-16.299 42.667 10.138 11.324 16.299 26.274 16.299 42.667v85.333c0 27.866-17.809 51.571-42.667 60.356v238.31c0 35.346-28.655 64-64 64h-725.333c-35.346 0-64-28.654-64-64v-238.31zM128 682.667c0 11.782 9.551 21.333 21.333 21.333h725.333c11.78 0 21.333-9.551 21.333-21.333v-234.667h-46.31c2.359 6.673 3.644 13.854 3.644 21.333v42.667c0 35.346-28.655 64-64 64h-170.667c-35.345 0-64-28.654-64-64v-42.667c0-7.479 1.284-14.66 3.644-21.333h-92.621c2.359 6.673 3.644 13.854 3.644 21.333v42.667c0 35.346-28.655 64-64 64h-170.667c-35.346 0-64-28.654-64-64v-42.667c0-7.479 1.283-14.66 3.642-21.333h-46.308v234.667zM597.333 512c0 11.78 9.553 21.333 21.333 21.333h170.667c11.78 0 21.333-9.553 21.333-21.333v-42.667c0-11.78-9.553-21.333-21.333-21.333h-170.667c-11.78 0-21.333 9.553-21.333 21.333v42.667zM405.333 448h-170.667c-11.782 0-21.333 9.553-21.333 21.333v42.667c0 11.78 9.551 21.333 21.333 21.333h170.667c11.782 0 21.333-9.553 21.333-21.333v-42.667c0-11.78-9.551-21.333-21.333-21.333zM85.333 384c0 11.78 9.551 21.333 21.333 21.333h810.667c11.78 0 21.333-9.553 21.333-21.333v-85.333c0-11.78-9.553-21.333-21.333-21.333h-810.667c-11.782 0-21.333 9.553-21.333 21.333v85.333zM85.333 213.333c0 11.78 9.551 21.333 21.333 21.333h810.667c11.78 0 21.333-9.553 21.333-21.333v-106.667h-42.667v64c0 11.78-9.553 21.333-21.333 21.333h-725.333c-11.782 0-21.333-9.553-21.333-21.333v-64h-42.667v106.667z" />
<glyph unicode="&#xe90b;" glyph-name="Bell" d="M554.667 755.74v33.593c0 14.994-3.831 25.417-8.777 31.352-3.806 4.566-12.151 11.314-33.89 11.314s-30.097-6.75-33.907-11.315c-4.945-5.925-8.759-16.307-8.759-31.188v-33.553l-32.606-7.911c-107.855-26.169-180.727-132.543-180.727-257.367v-273.673l-67.66-67.661h647.321l-67.661 67.661v273.673c0 124.838-72.879 231.17-180.676 257.191l-32.657 7.882zM896 149.333v-42.667h-768v42.667l85.333 85.333v256c0 140.047 82.321 267.043 213.333 298.831 0 42.503 21.333 85.169 85.333 85.169s85.333-42.667 85.333-85.333c131.012-31.624 213.333-158.62 213.333-298.667v-256l85.333-85.333zM554.667 106.667c0-23.565-19.102-42.667-42.667-42.667s-42.667 19.102-42.667 42.667h85.333zM426.667 149.333v-42.667c0-47.13 38.204-85.333 85.333-85.333s85.333 38.204 85.333 85.333v42.667h-170.667z" />
<glyph unicode="&#xe90c;" glyph-name="Blank" d="M847.334 718.268c3.686-3.187 5.999-7.809 5.965-13.626v-665.893c0-9.621-8.102-17.417-18.095-17.417h-646.444c-9.991 0-18.093 7.795-18.093 17.417v818.502c0 9.618 8.102 17.415 18.093 17.415 0 0 489.218-0.021 489.619-0.035 4.531-0.184 8.841-1.978 12.053-5.082l156.903-151.282zM797.342 704.643l-114.675 106.024v-105.352l114.675-0.672zM213.333 832v-768h597.333v597.333h-128c-23.565 0-42.667 19.103-42.667 42.667v128h-426.667z" />
<glyph unicode="&#xe90d;" glyph-name="Blocks" d="M597.333 746.667c0 23.564-19.102 42.667-42.667 42.667h-128c-23.564 0-42.667-19.103-42.667-42.667v-256c0-23.565 19.103-42.667 42.667-42.667h128c23.565 0 42.667 19.102 42.667 42.667v256zM426.667 746.667h128v-256h-128v256zM128 746.667v-256c0-23.565 19.103-42.667 42.667-42.667h128c23.564 0 42.667 19.102 42.667 42.667v256c0 23.564-19.103 42.667-42.667 42.667h-128c-23.564 0-42.667-19.103-42.667-42.667zM170.667 746.667h128v-256h-128v256zM682.667 789.333c-23.565 0-42.667-19.103-42.667-42.667v-256c0-23.565 19.102-42.667 42.667-42.667h128c23.565 0 42.667 19.102 42.667 42.667v256c0 23.564-19.102 42.667-42.667 42.667h-128zM682.667 490.667v256h128v-256h-128zM597.333 362.667c0 23.565-19.102 42.667-42.667 42.667h-128c-23.564 0-42.667-19.102-42.667-42.667v-256c0-23.565 19.103-42.667 42.667-42.667h128c23.565 0 42.667 19.102 42.667 42.667v256zM426.667 362.667h128v-256h-128v256zM128 362.667v-256c0-23.565 19.103-42.667 42.667-42.667h128c23.564 0 42.667 19.102 42.667 42.667v256c0 23.565-19.103 42.667-42.667 42.667h-128c-23.564 0-42.667-19.102-42.667-42.667zM170.667 362.667h128v-256h-128v256zM682.667 405.333c-23.565 0-42.667-19.102-42.667-42.667v-256c0-23.565 19.102-42.667 42.667-42.667h128c23.565 0 42.667 19.102 42.667 42.667v256c0 23.565-19.102 42.667-42.667 42.667h-128zM682.667 106.667v256h128v-256h-128z" />
<glyph unicode="&#xe90e;" glyph-name="Calendar-Day" d="M609.050 188.8v-39.467h-170.667v39.467h62.507v179.84c0 7.113 0.213 14.434 0.64 21.973l-44.373-37.12c-2.56-1.993-5.12-3.273-7.68-3.84-2.419-0.427-4.766-0.427-7.040 0-2.133 0.427-4.053 1.139-5.76 2.133-1.707 1.139-2.987 2.347-3.84 3.627l-16.64 22.827 94.080 80h43.307v-269.44h55.467zM341.333 874.667v-85.333h341.333v85.333h42.667v-85.333h128c23.565 0 42.667-19.103 42.667-42.667v-682.667c0-23.565-19.102-42.667-42.667-42.667h-682.667c-23.564 0-42.667 19.102-42.667 42.667v682.667c0 23.564 19.103 42.667 42.667 42.667h128v85.333h42.667zM853.333 576v170.667h-128v-85.333h-42.667v85.333h-341.333v-85.333h-42.667v85.333h-128v-170.667h682.667zM170.667 533.333v-469.333h682.667v469.333h-682.667z" />
<glyph unicode="&#xe90f;" glyph-name="Calendar-Month" d="M287.54 371.84c2.133 14.793 6.258 27.733 12.373 38.827 6.115 11.234 13.725 20.553 22.827 27.947 9.245 7.539 19.769 13.154 31.573 16.853 11.947 3.84 24.747 5.76 38.4 5.76 14.222 0 27.022-2.061 38.399-6.187 11.52-3.981 21.333-9.6 29.44-16.853 8.107-7.113 14.293-15.501 18.56-25.173 4.412-9.673 6.613-20.126 6.613-31.36 0-9.813-1.135-18.487-3.413-26.027-2.133-7.394-5.261-13.867-9.387-19.413-4.122-5.547-9.242-10.24-15.36-14.080-6.114-3.84-13.013-7.040-20.693-9.6 18.492-5.833 32.286-14.72 41.387-26.667 9.105-11.947 13.653-26.953 13.653-45.013 0-15.36-2.842-28.941-8.533-40.747-5.687-11.806-13.367-21.76-23.040-29.867-9.668-7.966-20.907-14.007-33.706-18.133-12.658-4.126-26.098-6.187-40.32-6.187-15.502 0-29.013 1.779-40.533 5.333s-21.547 8.819-30.080 15.787c-8.533 6.967-15.787 15.501-21.76 25.6s-11.093 21.76-15.36 34.987l23.253 9.6c6.115 2.56 11.805 3.2 17.067 1.92 5.405-1.139 9.315-3.981 11.733-8.533 2.56-4.979 5.333-9.886 8.32-14.72 3.129-4.834 6.827-9.173 11.093-13.013 4.267-3.699 9.245-6.754 14.933-9.173 5.831-2.274 12.729-3.413 20.693-3.413 8.96 0 16.782 1.421 23.467 4.267 6.685 2.987 12.231 6.827 16.64 11.52 4.552 4.693 7.892 9.886 10.026 15.573 2.278 5.833 3.413 11.661 3.413 17.493 0 7.394-0.781 14.080-2.347 20.053-1.562 6.114-4.834 11.307-9.813 15.573-4.977 4.267-12.159 7.607-21.546 10.027-9.245 2.419-21.689 3.627-37.333 3.627v37.547c12.942 0.141 23.68 1.353 32.213 3.627s15.289 5.406 20.267 9.387c5.12 4.126 8.678 9.033 10.666 14.72 1.993 5.687 2.987 11.947 2.987 18.773 0 14.507-4.053 25.527-12.159 33.067s-18.915 11.307-32.427 11.307c-6.258 0-12.018-0.926-17.28-2.773-5.262-1.707-10.027-4.194-14.293-7.467-4.125-3.127-7.609-6.827-10.453-11.093s-4.978-8.96-6.4-14.080c-2.418-6.541-5.618-10.88-9.6-13.013-3.84-2.133-9.315-2.633-16.427-1.493l-27.733 4.907zM732.8 188.8v-39.467h-170.667v39.467h62.507v179.84c0 7.113 0.213 14.434 0.64 21.973l-44.373-37.12c-2.56-1.993-5.12-3.273-7.68-3.84-2.419-0.427-4.766-0.427-7.040 0-2.133 0.427-4.053 1.139-5.76 2.133-1.707 1.139-2.987 2.347-3.84 3.627l-16.64 22.827 94.080 80h43.307v-269.44h55.467zM341.333 874.667v-85.333h341.333v85.333h42.667v-85.333h128c23.565 0 42.667-19.103 42.667-42.667v-682.667c0-23.565-19.102-42.667-42.667-42.667h-682.667c-23.564 0-42.667 19.102-42.667 42.667v682.667c0 23.564 19.103 42.667 42.667 42.667h128v85.333h42.667zM853.333 576v170.667h-128v-85.333h-42.667v85.333h-341.333v-85.333h-42.667v85.333h-128v-170.667h682.667zM170.667 533.333v-469.333h682.667v469.333h-682.667z" />
<glyph unicode="&#xe910;" glyph-name="Calendar-Week" d="M621.21 457.813v-22.827c0-6.827-0.713-12.373-2.133-16.64-1.421-4.126-2.846-7.607-4.267-10.453l-116.907-240.64c-2.419-4.979-5.833-9.246-10.24-12.8-4.407-3.413-10.313-5.12-17.707-5.12h-38.187l119.253 235.733c2.701 4.834 5.333 9.246 7.893 13.227 2.701 4.126 5.687 8.034 8.96 11.733h-147.626c-3.271 0-6.115 1.207-8.533 3.627s-3.627 5.261-3.627 8.533v35.627h213.12zM341.333 874.667v-85.333h341.333v85.333h42.667v-85.333h128c23.565 0 42.667-19.103 42.667-42.667v-682.667c0-23.565-19.102-42.667-42.667-42.667h-682.667c-23.564 0-42.667 19.102-42.667 42.667v682.667c0 23.564 19.103 42.667 42.667 42.667h128v85.333h42.667zM853.333 576v170.667h-128v-85.333h-42.667v85.333h-341.333v-85.333h-42.667v85.333h-128v-170.667h682.667zM170.667 533.333v-469.333h682.667v469.333h-682.667z" />
<glyph unicode="&#xe911;" glyph-name="Calendar-Workdays" d="M474.863 345.813c6.827 1.421 13.367 2.419 19.627 2.987 6.259 0.713 12.301 1.067 18.133 1.067 16.213 0 30.507-2.419 42.88-7.253s22.754-11.52 31.147-20.053c8.393-8.533 14.72-18.56 18.987-30.080 4.267-11.379 6.4-23.68 6.4-36.907 0-16.354-2.914-31.287-8.747-44.8-5.687-13.513-13.653-25.101-23.893-34.773-10.24-9.527-22.4-16.926-36.48-22.187-13.939-5.261-29.154-7.893-45.653-7.893-9.673 0-18.846 0.994-27.52 2.987s-16.853 4.621-24.533 7.893c-7.539 3.413-14.579 7.253-21.12 11.52-6.4 4.407-12.16 9.033-17.28 13.867l16.213 22.4c3.413 4.834 7.893 7.253 13.44 7.253 3.554 0 7.181-1.139 10.88-3.413s7.893-4.766 12.587-7.467c4.834-2.701 10.453-5.193 16.853-7.467 6.541-2.274 14.366-3.413 23.467-3.413 9.673 0 18.206 1.566 25.6 4.693s13.513 7.467 18.347 13.013c4.979 5.687 8.674 12.373 11.093 20.053 2.56 7.821 3.84 16.286 3.84 25.387 0 16.781-4.907 29.867-14.72 39.253-9.673 9.527-24.034 14.293-43.093 14.293-14.647 0-29.653-2.701-45.013-8.107l-32.853 9.387 25.6 149.76h152.32v-22.4c0-7.539-2.347-13.653-7.040-18.347s-12.659-7.040-23.893-7.040h-84.693l-10.88-64.213zM341.333 874.667v-85.333h341.333v85.333h42.667v-85.333h128c23.565 0 42.667-19.103 42.667-42.667v-682.667c0-23.565-19.102-42.667-42.667-42.667h-682.667c-23.564 0-42.667 19.102-42.667 42.667v682.667c0 23.564 19.103 42.667 42.667 42.667h128v85.333h42.667zM853.333 576v170.667h-128v-85.333h-42.667v85.333h-341.333v-85.333h-42.667v85.333h-128v-170.667h682.667zM170.667 533.333v-469.333h682.667v469.333h-682.667z" />
<glyph unicode="&#xe912;" glyph-name="Calendar" d="M341.333 789.333v-42.667h341.333v42.667h42.667v-42.667h85.333c23.565 0 42.667-19.102 42.667-42.667v-554.667c0-23.565-19.102-42.667-42.667-42.667h-597.333c-23.564 0-42.667 19.102-42.667 42.667v554.667c0 23.564 19.103 42.667 42.667 42.667h85.333v42.667h42.667zM810.667 618.667v85.333h-85.333v-42.667h-42.667v42.667h-341.333v-42.667h-42.667v42.667h-85.333v-85.333h597.333zM213.333 576v-426.667h597.333v426.667h-597.333zM554.667 448c-23.565 0-42.667-19.102-42.667-42.667v-128c0-23.565 19.102-42.667 42.667-42.667h128c23.565 0 42.667 19.102 42.667 42.667v128c0 23.565-19.102 42.667-42.667 42.667h-128zM554.667 277.333v128h128v-128h-128z" />
<glyph unicode="&#xe913;" glyph-name="Car" d="M726.724 789.333h-429.448c-35.781 0-67.762-22.322-80.1-55.909l-75.337-205.083c-32.943-11.823-56.506-43.328-56.506-80.341v-170.667c0-23.565 19.103-42.667 42.667-42.667v-85.333c0-23.565 19.103-42.667 42.667-42.667h128c23.564 0 42.667 19.102 42.667 42.667v85.333h341.333v-85.333c0-23.565 19.102-42.667 42.667-42.667h128c23.565 0 42.667 19.102 42.667 42.667v85.333c23.565 0 42.667 19.102 42.667 42.667v170.667c0 37.013-23.565 68.518-56.508 80.341l-75.337 205.083c-12.335 33.587-44.318 55.909-80.098 55.909zM170.667 234.667h128v-85.333h-128v85.333zM725.333 149.333v85.333h128v-85.333h-128zM766.775 718.712l68.096-185.379h-645.744l68.099 185.379c6.169 16.793 22.159 27.954 40.050 27.954h429.448c17.89 0 33.882-11.161 40.051-27.954zM128 448c0 23.565 19.103 42.667 42.667 42.667h682.667c23.565 0 42.667-19.102 42.667-42.667v-170.667h-768v170.667zM213.333 405.333v-42.667h170.667v42.667h-170.667zM810.667 405.333v-42.667h-170.667v42.667h170.667z" />
<glyph unicode="&#xe914;" glyph-name="Cards" d="M170.667 746.667v-640h170.667v640h-170.667zM512 746.667v-640h341.333v640h-341.333zM128 746.667c0 23.564 19.103 42.667 42.667 42.667h170.667c23.564 0 42.667-19.103 42.667-42.667v-640c0-23.565-19.103-42.667-42.667-42.667h-170.667c-23.564 0-42.667 19.102-42.667 42.667v640zM469.333 746.667c0 23.564 19.102 42.667 42.667 42.667h341.333c23.565 0 42.667-19.103 42.667-42.667v-640c0-23.565-19.102-42.667-42.667-42.667h-341.333c-23.565 0-42.667 19.102-42.667 42.667v640z" />
<glyph unicode="&#xe915;" glyph-name="Caret-Down" d="M357.283 503.569c-23.297 27.644-3.813 69.92 32.337 70.164l243.813 1.646c36.309 0.245 56.311-42.089 33.067-69.98l-121.907-146.291c-16.998-20.395-48.294-20.48-65.404-0.179l-121.906 144.64z" />
<glyph unicode="&#xe916;" glyph-name="Caret-Up" d="M357.283 392.431c-23.297-27.644-3.813-69.922 32.337-70.165l243.813-1.643c36.309-0.247 56.311 42.086 33.067 69.978l-121.907 146.289c-16.998 20.396-48.294 20.483-65.404 0.182l-121.906-144.641z" />
<glyph unicode="&#xe917;" glyph-name="Check" d="M755.529 606.146c16.649-16.676 16.627-43.691-0.051-60.34l-299.149-298.668c-16.657-16.631-43.636-16.627-60.293 0.004l-127.518 127.339c-16.674 16.649-16.693 43.665-0.043 60.339s43.666 16.691 60.34 0.043l97.372-97.237 269.002 268.569c16.674 16.649 43.691 16.627 60.339-0.049z" />
<glyph unicode="&#xe918;" glyph-name="Checklist-cogs" d="M362.667 917.333c-27.866 0-51.572-17.809-60.358-42.667h-88.975c-47.128 0-85.333-38.205-85.333-85.333v-682.667c0-47.13 38.205-85.333 85.333-85.333h302.946l17.327-17.327c6.985-6.989 16.222-10.854 26.078-10.854 7.735 0 15.1 2.368 21.338 6.861l35.063 24.956c12.604-6.613 25.83-11.977 39.433-16.222l6.985-41.924c2.995-17.843 18.342-30.822 36.437-30.822h52.659c18.091 0 33.442 12.979 36.437 30.822l7.113 41.924c14.097 4.369 27.699 9.984 40.678 16.849l34.564-24.708c6.238-4.493 13.726-6.865 21.461-6.865 9.856 0 19.093 3.87 26.078 10.859l37.188 37.184c12.727 12.727 14.473 32.819 3.989 47.543l-24.704 34.688c6.861 13.103 12.604 26.705 16.845 40.678l41.924 6.989c17.847 2.995 30.827 18.342 30.827 36.437v52.531c0.247 18.095-12.732 33.442-30.575 36.437l-41.929 7.113c-4.365 14.101-9.98 27.703-16.845 40.678l24.708 34.564c10.483 14.724 8.858 34.816-3.994 47.543l-37.184 37.184c-6.059 6.059-13.807 9.771-22.182 10.654v314.227c0 47.128-38.204 85.333-85.333 85.333h-88.977c-8.785 24.858-32.491 42.667-60.356 42.667h-298.667zM853.333 789.333v-333.303l-17.259-12.292c-13.474 7.113-27.575 12.979-42.176 17.348l-6.989 41.425c-2.995 17.843-18.342 30.822-36.433 30.822h-52.535c-18.091 0-33.442-12.979-36.437-30.822l-7.236-42.423c-13.973-4.369-27.575-10.108-40.555-17.097l-34.313 24.708c-6.242 4.493-13.726 6.861-21.466 6.861-9.856 0-19.213-3.866-26.078-10.854l-15.757-15.706h-25.434c-11.78 0-21.333-9.553-21.333-21.333 0-9.527 6.246-17.596 14.865-20.335-1.519-9.318 0.529-19.166 6.357-27.354l24.956-35.063c-6.865-13.103-12.352-26.705-16.597-40.806l-41.425-6.985c-17.843-2.995-30.822-18.347-30.822-36.437v-52.535c0-18.091 12.979-33.442 30.822-36.437l42.423-7.236c4.369-13.973 10.108-27.575 17.097-40.555l-24.585-34.189c-5.282-7.424-7.492-16.213-6.733-24.734h-272.358c-23.564 0-42.667 19.102-42.667 42.667v682.667c0 23.564 19.103 42.667 42.667 42.667h88.975c8.786-24.858 32.492-42.667 60.358-42.667h298.667c27.866 0 51.571 17.809 60.356 42.667h88.977c23.565 0 42.667-19.103 42.667-42.667zM362.667 874.667h298.667c11.78 0 21.333-9.551 21.333-21.333s-9.553-21.333-21.333-21.333h-298.667c-11.782 0-21.333 9.551-21.333 21.333s9.551 21.333 21.333 21.333zM490.667 661.333c-11.78 0-21.333-9.551-21.333-21.333s9.553-21.333 21.333-21.333h256c11.78 0 21.333 9.551 21.333 21.333s-9.553 21.333-21.333 21.333h-256zM420.418 697.751c-8.331 8.332-21.839 8.332-30.17 0l-70.249-70.253-27.582 27.586-2.954 2.469c-8.314 5.76-19.81 4.937-27.215-2.469-8.332-8.331-8.332-21.839 0-30.17l42.667-42.667 2.954-2.469c8.314-5.76 19.81-4.937 27.215 2.469l85.333 85.333 2.469 2.954c5.76 8.314 4.936 19.81-2.469 27.215zM384 234.667c0 23.565-19.103 42.667-42.667 42.667h-42.667c-23.564 0-42.667-19.102-42.667-42.667v-42.667c0-23.565 19.103-42.667 42.667-42.667h42.667c23.564 0 42.667 19.102 42.667 42.667v42.667zM341.333 234.667v-42.667h-42.667v42.667h42.667zM341.333 490.667c23.564 0 42.667-19.102 42.667-42.667v-42.667c0-23.565-19.103-42.667-42.667-42.667h-42.667c-23.564 0-42.667 19.102-42.667 42.667v42.667c0 23.565 19.103 42.667 42.667 42.667h42.667zM341.333 405.333v42.667h-42.667v-42.667h42.667zM702.72 490.667h42.923l10.598-62.852 25.429-7.607 11.627-3.913c7.714-2.884 15.347-6.323 22.865-10.287l23.249-12.275 52.023 37.116 30.336-30.336-37.163-51.989 12.326-23.309 5.261-10.756c3.29-7.292 6.14-14.835 8.546-22.601l7.761-25.054 62.831-10.633v-42.923l-63.219-10.539-7.693-25.34-3.763-11.021c-2.79-7.377-6.148-14.805-10.052-22.255l-12.156-23.211 37.065-52.019-30.336-30.336-51.994 37.107-23.305-12.326-10.756-5.261c-7.296-3.29-14.835-6.14-22.601-8.542l-25.054-7.761-10.718-63.078h-43.008l-10.458 62.993-25.067 7.821-11.251 3.861c-7.343 2.765-14.374 5.901-21.056 9.408l-23.211 12.181-52.403-37.257-30.293 30.293 37.214 51.703-12.642 23.479-5.367 10.765c-3.341 7.27-6.208 14.724-8.572 22.289l-7.795 24.939-63.509 10.825v42.923l62.805 10.556 7.633 25.37 3.844 11.482c2.782 7.522 6.007 14.788 9.69 21.82l12.156 23.198-37.333 52.471 30.464 30.336 51.853-37.35 23.497 12.651 10.765 5.367c7.27 3.341 14.724 6.208 22.289 8.572l24.939 7.791 10.786 63.514zM725.333 106.667c-70.694 0-128 57.306-128 128s57.306 128 128 128c70.694 0 128-57.306 128-128s-57.306-128-128-128zM725.333 149.333c47.13 0 85.333 38.204 85.333 85.333s-38.204 85.333-85.333 85.333c-47.13 0-85.333-38.204-85.333-85.333s38.204-85.333 85.333-85.333z" />
<glyph unicode="&#xe919;" glyph-name="Checklist-fail" d="M661.333 917.333h-298.667c-27.866 0-51.572-17.809-60.358-42.667h-88.975c-47.128 0-85.333-38.205-85.333-85.333v-682.667c0-47.13 38.205-85.333 85.333-85.333h597.333c47.13 0 85.333 38.204 85.333 85.333v682.667c0 47.128-38.204 85.333-85.333 85.333h-88.977c-8.785 24.858-32.491 42.667-60.356 42.667zM302.308 832c8.786-24.858 32.492-42.667 60.358-42.667h298.667c27.866 0 51.571 17.809 60.356 42.667h88.977c23.565 0 42.667-19.103 42.667-42.667v-682.667c0-23.565-19.102-42.667-42.667-42.667h-597.333c-23.564 0-42.667 19.102-42.667 42.667v682.667c0 23.564 19.103 42.667 42.667 42.667h88.975zM362.667 874.667h298.667c11.78 0 21.333-9.551 21.333-21.333s-9.553-21.333-21.333-21.333h-298.667c-11.782 0-21.333 9.551-21.333 21.333s9.551 21.333 21.333 21.333zM463.087 655.085c-8.333 8.332-21.841 8.332-30.174 0l-70.246-70.253-27.582 27.586-2.954 2.469c-8.314 5.76-19.81 4.937-27.215-2.469-8.332-8.331-8.332-21.839 0-30.17l42.667-42.667 2.954-2.469c8.314-5.76 19.81-4.936 27.215 2.469l85.335 85.333 2.466 2.954c5.76 8.314 4.937 19.81-2.466 27.215zM432.913 484.42c8.333 8.329 21.841 8.329 30.174 0 7.403-7.407 8.226-18.901 2.466-27.217l-2.466-2.957-85.335-85.333c-7.405-7.403-18.901-8.226-27.215-2.466l-2.954 2.466-42.667 42.667c-8.332 8.333-8.332 21.841 0 30.174 7.405 7.403 18.901 8.226 27.215 2.466l2.954-2.466 27.582-27.588 70.246 70.255zM420.418 313.754c-8.331 8.329-21.839 8.329-30.17 0l-27.582-27.584-27.582 27.584c-8.331 8.329-21.839 8.329-30.17 0-7.406-7.407-8.228-18.901-2.469-27.217l2.469-2.957 27.581-27.58-27.581-27.58-2.469-2.957c-5.76-8.316-4.937-19.81 2.469-27.217 8.331-8.329 21.839-8.329 30.17 0l27.582 27.584 27.582-27.584c8.331-8.329 21.839-8.329 30.17 0 7.405 7.407 8.228 18.901 2.469 27.217l-2.469 2.957-27.581 27.58 27.581 27.58 2.469 2.957c5.76 8.316 4.936 19.81-2.469 27.217zM725.333 597.333c0 11.782-9.553 21.333-21.333 21.333h-170.667l-3.836-0.344c-9.95-1.806-17.498-10.516-17.498-20.989 0-11.782 9.553-21.333 21.333-21.333h170.667l3.836 0.344c9.95 1.806 17.498 10.516 17.498 20.989zM704 448c11.78 0 21.333-9.553 21.333-21.333 0-10.475-7.548-19.183-17.498-20.988l-3.836-0.346h-170.667c-11.78 0-21.333 9.553-21.333 21.333 0 10.475 7.548 19.183 17.498 20.988l3.836 0.346h170.667zM725.333 256c0 11.78-9.553 21.333-21.333 21.333h-170.667l-3.836-0.346c-9.95-1.805-17.498-10.513-17.498-20.988 0-11.78 9.553-21.333 21.333-21.333h170.667l3.836 0.346c9.95 1.805 17.498 10.513 17.498 20.988z" />
<glyph unicode="&#xe91a;" glyph-name="Checklist-start" d="M362.667 917.333h298.667c27.866 0 51.571-17.809 60.356-42.667h88.977c47.13 0 85.333-38.205 85.333-85.333v-682.667c0-47.13-38.204-85.333-85.333-85.333h-597.333c-47.128 0-85.333 38.204-85.333 85.333v682.667c0 47.128 38.205 85.333 85.333 85.333h88.975c8.786 24.858 32.492 42.667 60.358 42.667zM362.667 789.333c-27.866 0-51.572 17.809-60.358 42.667h-88.975c-23.564 0-42.667-19.103-42.667-42.667v-682.667c0-23.565 19.103-42.667 42.667-42.667h597.333c23.565 0 42.667 19.102 42.667 42.667v682.667c0 23.564-19.102 42.667-42.667 42.667h-88.977c-8.785-24.858-32.491-42.667-60.356-42.667h-298.667zM341.333 853.333c0-11.782 9.551-21.333 21.333-21.333h298.667c11.78 0 21.333 9.551 21.333 21.333s-9.553 21.333-21.333 21.333h-298.667c-11.782 0-21.333-9.551-21.333-21.333zM469.333 640c0 11.782 9.553 21.333 21.333 21.333h256c11.78 0 21.333-9.551 21.333-21.333s-9.553-21.333-21.333-21.333h-256c-11.78 0-21.333 9.551-21.333 21.333zM490.667 448c-11.78 0-21.333-9.553-21.333-21.333s9.553-21.333 21.333-21.333h256c11.78 0 21.333 9.553 21.333 21.333s-9.553 21.333-21.333 21.333h-256zM469.333 213.333c0 11.78 9.553 21.333 21.333 21.333h256c11.78 0 21.333-9.553 21.333-21.333s-9.553-21.333-21.333-21.333h-256c-11.78 0-21.333 9.553-21.333 21.333zM420.418 697.751c-8.331 8.332-21.839 8.332-30.17 0l-70.249-70.253-27.582 27.586-2.954 2.469c-8.314 5.76-19.81 4.937-27.215-2.469-8.332-8.331-8.332-21.839 0-30.17l42.667-42.667 2.954-2.469c8.314-5.76 19.81-4.937 27.215 2.469l85.333 85.333 2.469 2.954c5.76 8.314 4.936 19.81-2.469 27.215zM384 234.667c0 23.565-19.103 42.667-42.667 42.667h-42.667c-23.564 0-42.667-19.102-42.667-42.667v-42.667c0-23.565 19.103-42.667 42.667-42.667h42.667c23.564 0 42.667 19.102 42.667 42.667v42.667zM341.333 234.667v-42.667h-42.667v42.667h42.667zM341.333 490.667c23.564 0 42.667-19.102 42.667-42.667v-42.667c0-23.565-19.103-42.667-42.667-42.667h-42.667c-23.564 0-42.667 19.102-42.667 42.667v42.667c0 23.565 19.103 42.667 42.667 42.667h42.667zM341.333 405.333v42.667h-42.667v-42.667h42.667z" />
<glyph unicode="&#xe91b;" glyph-name="Checklist-Time-alt" d="M362.667 917.333h298.667c27.866 0 51.571-17.809 60.356-42.667h131.644c47.13 0 85.333-38.205 85.333-85.333v-345.643c52.787-53.871 85.333-127.646 85.333-209.024 0-164.949-133.717-298.667-298.667-298.667-81.378 0-155.153 32.546-209.024 85.333h-345.643c-47.128 0-85.333 38.204-85.333 85.333v682.667c0 47.128 38.205 85.333 85.333 85.333h131.642c8.786 24.858 32.492 42.667 60.358 42.667zM480.201 64c-33.745 48.375-53.534 107.213-53.534 170.667h-21.333c-11.782 0-21.333 9.553-21.333 21.333 0 10.475 7.547 19.183 17.498 20.988l3.835 0.346h24.358c4.309 30.127 13.116 58.807 25.715 85.333h-50.074c-11.782 0-21.333 9.553-21.333 21.333 0 10.475 7.547 19.183 17.498 20.988l3.835 0.346h74.867c24.030 34.449 55.134 63.595 91.209 85.333h-166.076c-11.782 0-21.333 9.553-21.333 21.333 0 10.475 7.547 19.183 17.498 20.988l3.835 0.346h341.333c2.662 0 5.214-0.486 7.565-1.378 52.39-5.030 100.826-23.595 141.769-52.156v309.534c0 23.564-19.102 42.667-42.667 42.667h-131.644c-8.785-24.858-32.491-42.667-60.356-42.667h-298.667c-27.866 0-51.572 17.809-60.358 42.667h-131.642c-23.564 0-42.667-19.103-42.667-42.667v-682.667c0-23.565 19.103-42.667 42.667-42.667h309.534zM362.667 874.667c-11.782 0-21.333-9.551-21.333-21.333s9.551-21.333 21.333-21.333h298.667c11.78 0 21.333 9.551 21.333 21.333s-9.553 21.333-21.333 21.333h-298.667zM341.333 661.333c0 23.564-19.103 42.667-42.667 42.667h-42.667c-23.564 0-42.667-19.103-42.667-42.667v-42.667c0-23.564 19.103-42.667 42.667-42.667h42.667c23.564 0 42.667 19.103 42.667 42.667v42.667zM256 661.333h42.667v-42.667h-42.667v42.667zM341.333 277.333c0 23.565-19.103 42.667-42.667 42.667h-42.667c-23.564 0-42.667-19.102-42.667-42.667v-42.667c0-23.565 19.103-42.667 42.667-42.667h42.667c23.564 0 42.667 19.102 42.667 42.667v42.667zM256 277.333h42.667v-42.667h-42.667v42.667zM810.667 640c0 11.782-9.553 21.333-21.333 21.333l-387.835-0.344c-9.952-1.806-17.498-10.516-17.498-20.989 0-11.782 9.551-21.333 21.333-21.333l387.836 0.344c9.95 1.806 17.498 10.516 17.498 20.989zM725.333 490.667c-141.385 0-256-114.615-256-256s114.615-256 256-256c141.385 0 256 114.615 256 256s-114.615 256-256 256zM704 405.333c10.475 0 19.183-7.548 20.988-17.498l0.346-3.836v-149.333h149.333c10.475 0 19.183-7.548 20.988-17.498l0.346-3.836c0-10.475-7.548-19.183-17.498-20.988l-3.836-0.346h-170.667c-10.475 0-19.183 7.548-20.988 17.498l-0.346 3.836v170.667c0 11.78 9.553 21.333 21.333 21.333z" />
<glyph unicode="&#xe91c;" glyph-name="Checklist-Time" d="M362.667 917.333h298.667c27.866 0 51.571-17.809 60.356-42.667h131.644c47.13 0 85.333-38.205 85.333-85.333v-345.643c52.787-53.871 85.333-127.646 85.333-209.024 0-164.949-133.717-298.667-298.667-298.667-81.378 0-155.153 32.546-209.024 85.333h-345.643c-47.128 0-85.333 38.204-85.333 85.333v682.667c0 47.128 38.205 85.333 85.333 85.333h131.642c8.786 24.858 32.492 42.667 60.358 42.667zM480.201 64c-26.039 37.333-43.772 80.892-50.509 128h-24.358c-11.782 0-21.333 9.553-21.333 21.333s9.551 21.333 21.333 21.333h21.333c0 63.454 19.789 122.291 53.534 170.667h-74.867c-11.782 0-21.333 9.553-21.333 21.333s9.551 21.333 21.333 21.333h110.976c53.871 52.787 127.646 85.333 209.024 85.333 63.454 0 122.291-19.789 170.667-53.534v309.534c0 23.564-19.102 42.667-42.667 42.667h-131.644c-8.785-24.858-32.491-42.667-60.356-42.667h-298.667c-27.866 0-51.572 17.809-60.358 42.667h-131.642c-23.564 0-42.667-19.103-42.667-42.667v-682.667c0-23.565 19.103-42.667 42.667-42.667h309.534zM362.667 874.667c-11.782 0-21.333-9.551-21.333-21.333s9.551-21.333 21.333-21.333h298.667c11.78 0 21.333 9.551 21.333 21.333s-9.553 21.333-21.333 21.333h-298.667zM341.333 661.333c0 23.564-19.103 42.667-42.667 42.667h-42.667c-23.564 0-42.667-19.103-42.667-42.667v-42.667c0-23.564 19.103-42.667 42.667-42.667h42.667c23.564 0 42.667 19.103 42.667 42.667v42.667zM256 661.333h42.667v-42.667h-42.667v42.667zM810.667 640c0 11.782-9.553 21.333-21.333 21.333l-387.835-0.344c-9.952-1.806-17.498-10.516-17.498-20.989 0-11.782 9.551-21.333 21.333-21.333l387.836 0.344c9.95 1.806 17.498 10.516 17.498 20.989zM298.667 490.667c23.564 0 42.667-19.102 42.667-42.667v-42.667c0-23.565-19.103-42.667-42.667-42.667h-42.667c-23.564 0-42.667 19.102-42.667 42.667v42.667c0 23.565 19.103 42.667 42.667 42.667h42.667zM298.667 448h-42.667v-42.667h42.667v42.667zM341.333 234.667c0 23.565-19.103 42.667-42.667 42.667h-42.667c-23.564 0-42.667-19.102-42.667-42.667v-42.667c0-23.565 19.103-42.667 42.667-42.667h42.667c23.564 0 42.667 19.102 42.667 42.667v42.667zM256 234.667h42.667v-42.667h-42.667v42.667zM725.333 490.667c-141.385 0-256-114.615-256-256s114.615-256 256-256c141.385 0 256 114.615 256 256s-114.615 256-256 256zM704 405.333c10.475 0 19.183-7.548 20.988-17.498l0.346-3.836v-149.333h149.333c10.475 0 19.183-7.548 20.988-17.498l0.346-3.836c0-10.475-7.548-19.183-17.498-20.988l-3.836-0.346h-170.667c-10.475 0-19.183 7.548-20.988 17.498l-0.346 3.836v170.667c0 11.78 9.553 21.333 21.333 21.333z" />
<glyph unicode="&#xe91d;" glyph-name="Checklist" d="M132.741 874.667h758.519c26.18 0 47.407-21.225 47.407-47.407v-758.519c0-26.18-21.227-47.407-47.407-47.407h-758.519c-26.182 0-47.407 21.227-47.407 47.407v758.519c0 26.182 21.225 47.407 47.407 47.407zM128 832v-768h768v768h-768zM810.667 704h-384v-42.667h384v42.667zM213.333 746.667h128v-128h-128v128zM298.667 704h-42.667v-42.667h42.667v42.667zM426.667 490.667h384v-42.667h-384v42.667zM341.333 533.333h-128v-128h128v128zM256 490.667h42.667v-42.667h-42.667v42.667zM810.667 277.333h-384v-42.667h384v42.667zM213.333 320h128v-128h-128v128zM298.667 277.333h-42.667v-42.667h42.667v42.667z" />
<glyph unicode="&#xe91e;" glyph-name="Chevron-Down" d="M311.163 563.503c16.663 16.662 43.677 16.662 60.34 0l140.497-140.497 140.497 140.497c16.661 16.662 43.678 16.662 60.339 0s16.661-43.678 0-60.34l-170.667-170.667c-16.661-16.661-43.678-16.661-60.339 0l-170.667 170.667c-16.662 16.661-16.662 43.677 0 60.34z" />
<glyph unicode="&#xe91f;" glyph-name="Chevron-Left" d="M627.503 648.837c16.661-16.663 16.661-43.677 0-60.34l-140.497-140.497 140.497-140.497c16.661-16.661 16.661-43.678 0-60.339s-43.678-16.661-60.339 0l-170.667 170.667c-8.001 8-12.497 18.854-12.497 30.17s4.495 22.17 12.497 30.17l170.667 170.667c16.661 16.662 43.678 16.662 60.339 0z" />
<glyph unicode="&#xe920;" glyph-name="Chevron-Right" d="M396.497 247.164c-16.662 16.661-16.662 43.678 0 60.339l140.497 140.497-140.497 140.497c-16.662 16.663-16.662 43.677 0 60.34s43.678 16.662 60.34 0l170.667-170.667c16.661-16.661 16.661-43.678 0-60.339l-170.667-170.667c-16.661-16.661-43.677-16.661-60.34 0z" />
<glyph unicode="&#xe921;" glyph-name="Chevron-Up" d="M311.163 332.497c16.663-16.661 43.677-16.661 60.34 0l140.497 140.497 140.497-140.497c16.661-16.661 43.678-16.661 60.339 0s16.661 43.678 0 60.339l-170.667 170.667c-16.661 16.662-43.678 16.662-60.339 0l-170.667-170.667c-16.662-16.661-16.662-43.678 0-60.339z" />
<glyph unicode="&#xe922;" glyph-name="Clock-In" d="M384 960h256v-42.667h-85.333v-42.667h-85.333v42.667h-85.333v42.667zM938.667 448c0-235.639-191.027-426.667-426.667-426.667-226.451 0-411.698 176.414-425.804 399.309-0.562 1.907-0.863 3.93-0.863 6.025 0 1.323 0.12 2.615 0.351 3.874-0.233 5.79-0.351 11.61-0.351 17.459h474.509l-84.262 84.262c-8.329 8.33-8.329 21.838 0 30.169 8.333 8.331 21.841 8.331 30.174 0l120.653-120.656c0.009-0.009 0.017-0.017 0.026-0.021 8.329-8.333 8.329-21.841 0-30.174-0.013-0.009-0.026-0.021-0.034-0.034l-120.644-120.644c-8.333-8.329-21.841-8.329-30.174 0-8.329 8.333-8.329 21.841 0 30.17l84.262 84.262h-429.498c21.224-192 184.001-341.333 381.656-341.333 212.079 0 384 171.921 384 384 0 212.077-171.921 384-384 384-150.772 0-281.249-86.893-344.084-213.333h-47.080c65.839 150.691 216.204 256 391.164 256 235.639 0 426.667-191.025 426.667-426.667z" />
<glyph unicode="&#xe923;" glyph-name="Clock-Out" d="M384 938.667c0 11.782 9.551 21.333 21.333 21.333h213.333c11.78 0 21.333-9.551 21.333-21.333s-9.553-21.333-21.333-21.333h-64v-85.333h-85.333v85.333h-64c-11.782 0-21.333 9.551-21.333 21.333zM384 426.667c0 11.78 9.551 21.333 21.333 21.333h453.175l-84.262 84.262c-8.329 8.33-8.329 21.838 0 30.169 8.333 8.331 21.841 8.331 30.174 0l135.761-135.764-135.761-135.765c-8.333-8.329-21.841-8.329-30.174 0-8.329 8.333-8.329 21.841 0 30.17l84.262 84.262h-453.175c-11.782 0-21.333 9.553-21.333 21.333zM85.333 448c0 235.642 191.025 426.667 426.667 426.667 133.312 0 252.361-61.167 330.564-156.887 7.458-9.124 6.101-22.563-3.021-30.018s-22.562-6.101-30.020 3.023c-70.451 86.228-177.557 141.216-297.523 141.216-212.077 0-384-171.923-384-384 0-212.079 171.923-384 384-384 119.94 0 227.021 54.963 297.476 141.154 7.454 9.122 20.894 10.475 30.016 3.017s10.475-20.898 3.017-30.020c-78.208-95.68-197.227-156.817-330.509-156.817-235.642 0-426.667 191.027-426.667 426.667z" />
<glyph unicode="&#xe924;" glyph-name="Close" d="M789.333 682.667l-38.827 42.667-238.507-234.667-238.507 234.667-38.827-42.667 234.667-234.667-234.667-238.507 38.827-38.827 238.507 234.667 238.507-234.667 38.827 42.667-234.667 234.667 234.667 234.667z" />
<glyph unicode="&#xe925;" glyph-name="Cogs" d="M894.989 537.576c25.489-4.277 44.028-26.203 43.674-52.051v-75.051c0-25.847-18.539-47.774-44.032-52.049l-59.895-9.984c-6.059-19.964-14.259-39.394-24.064-58.112l35.294-49.557c14.976-21.035 12.48-49.737-5.705-67.917l-53.12-53.124c-9.98-9.98-23.172-15.505-37.257-15.505-11.051 0-21.747 3.383-30.66 9.805l-49.378 35.294c-18.539-9.805-37.969-17.826-58.112-24.064l-10.159-59.895c-4.279-25.493-26.206-44.032-52.053-44.032h-75.226c-25.847 0-47.773 18.539-52.052 44.032l-9.983 59.895c-19.43 6.059-38.326 13.726-56.33 23.172l-50.091-35.652c-8.913-6.417-19.43-9.805-30.482-9.805-14.083 0-27.273 5.525-37.256 15.509l-53.121 53.12c-18.361 18.185-20.678 46.882-5.705 67.917l35.117 48.845c-9.982 18.539-18.182 37.969-24.422 57.937l-60.608 10.338c-25.491 4.279-44.030 26.202-44.030 52.053v75.046c0 25.847 18.539 47.774 44.030 52.052l59.182 9.982c6.061 20.144 13.904 39.574 23.709 58.291l-35.652 50.092c-14.973 21.035-12.478 49.734 5.705 67.917l53.3 53.122c9.804 9.982 23.174 15.508 37.256 15.508 11.052 0 21.748-3.387 30.661-9.804l49.021-35.296c18.539 9.983 37.969 18.183 57.934 24.422l10.339 60.609c4.278 25.491 26.205 44.030 52.052 44.030h75.046c25.847 0 47.774-18.539 52.053-44.030l9.98-59.183c20.855-6.239 41.003-14.618 60.254-24.778l49.557 35.296c8.909 6.417 19.426 9.804 30.481 9.804 14.080 0 27.273-5.526 37.257-15.509l53.12-53.121c18.359-18.183 20.676-46.883 5.705-67.918l-35.294-49.378c9.805-18.539 17.826-37.969 24.064-58.113l59.895-10.161zM887.927 495.497l-85.833 14.562-7.757 25.055c-5.491 17.716-12.51 34.686-21.026 50.79l-12.326 23.308 50.577 70.761c2.91 4.085 2.462 9.461-1.114 13.004l-53.12 53.122c-2.031 2.028-4.39 3.012-7.087 3.012-2.112 0-3.908-0.578-5.73-1.891l-70.972-50.548-23.253 12.272c-17.139 9.047-34.722 16.297-52.565 21.635l-25.429 7.607-4.412 26.173-9.988 59.217c-0.828 4.933-4.958 8.426-9.975 8.426h-75.046c-5.018 0-9.148-3.493-9.993-8.538l-14.733-86.365-24.94-7.793c-17.329-5.415-34.25-12.55-50.432-21.264l-23.5-12.654-70.681 50.891c-1.581 1.138-3.539 1.763-5.73 1.763-2.72 0-5.095-0.987-7.137-3.062l-53.249-53.071c-3.502-3.502-3.968-8.996-1.113-13.007l50.839-71.429-12.152-23.2c-8.437-16.107-15.295-33.001-20.647-50.787l-7.634-25.374-85.344-14.396c-4.932-0.828-8.425-4.954-8.425-9.971v-75.046c0-5.018 3.493-9.148 8.538-9.997l86.364-14.733 7.793-24.939c5.415-17.327 12.55-34.249 21.264-50.432l12.644-23.479-50.569-70.336c-2.908-4.083-2.461-9.459 1.115-13.005l53.121-53.12c2.028-2.027 4.387-3.012 7.086-3.012 2.111 0 3.905 0.58 5.741 1.899l71.447 50.854 23.211-12.181c15.322-8.043 31.774-14.784 49.21-20.224l25.065-7.817 4.318-25.899 9.971-59.849c0.828-4.932 4.958-8.427 9.975-8.427h75.226c5.018 0 9.148 3.494 9.988 8.499l14.545 85.756 25.054 7.761c17.719 5.487 34.688 12.51 50.79 21.026l23.309 12.326 70.946-50.714c1.583-1.139 3.541-1.762 5.73-1.762 2.701 0 5.060 0.981 7.087 3.012l53.12 53.12c3.503 3.503 3.968 8.994 1.122 12.996l-50.496 70.895 12.16 23.211c8.879 16.951 15.927 33.894 21.035 50.709l7.689 25.34 85.969 14.327c4.932 0.828 8.427 4.958 8.427 9.971l0.004 75.639c0.064 4.659-3.226 8.572-8.073 9.382zM512 277.333c-94.257 0-170.667 76.412-170.667 170.667 0 94.257 76.41 170.667 170.667 170.667 94.255 0 170.667-76.41 170.667-170.667 0-94.255-76.412-170.667-170.667-170.667zM512 320c70.694 0 128 57.306 128 128s-57.306 128-128 128c-70.694 0-128-57.306-128-128s57.306-128 128-128z" />
<glyph unicode="&#xe926;" glyph-name="Coins" d="M919.701 588.289c1.114 4.837 1.715 9.79 1.715 14.862v116.364c0 100.774-226.377 155.151-439.377 155.151-212.996 0-439.373-54.377-439.373-155.151 0-4.347 0.449-8.601 1.272-12.774-0.779-2.074-1.272-4.285-1.272-6.621v-96.969c0-32.238 23.195-59.718 61.681-82.2-1.151-4.885-1.766-9.818-1.766-14.767 0-4.348 0.449-8.602 1.272-12.774-0.781-2.078-1.272-4.288-1.272-6.622v-96.969c0-8.905 1.802-17.438 5.17-25.613-36.853-26.517-45.113-53.065-45.113-71.36 0-4.348 0.449-8.597 1.272-12.77-0.781-2.078-1.272-4.284-1.272-6.622v-96.969c0-100.774 226.378-155.153 439.377-155.153 212.996 0 439.377 54.379 439.377 155.153v116.361c0 8.61-1.775 17.114-5.21 25.417 28.489 20.339 45.15 44.237 45.15 71.556v116.365c0 21.355-11.025 52.381-61.632 82.105zM191.796 797.111c77.229 24.997 180.31 38.766 290.244 38.766 109.939 0 213.013-13.769 290.249-38.766 68.369-22.131 109.184-51.139 109.184-77.596s-40.815-55.465-109.184-77.596c-77.235-24.997-180.309-38.766-290.249-38.766-109.934 0-213.017 13.769-290.244 38.766-68.371 22.131-109.186 51.139-109.186 77.596s40.817 55.465 109.186 77.596zM881.476 603.151c0-22.412-29.376-46.639-79.885-66.98v74.714c32.188 11.568 59.503 25.236 79.885 40.931v-48.664zM761.647 598.261v-75.987c-24.457-7.373-51.264-13.67-79.889-18.825v77.195c28.147 4.823 55.002 10.703 79.889 17.616zM641.818 497.139c-25.621-3.486-52.352-6.127-79.885-7.863v77.613c27.059 1.711 53.85 4.291 79.885 7.718v-77.467zM521.988 564.996v-77.589c-13.193-0.405-26.517-0.619-39.945-0.619-13.431 0-26.756 0.213-39.945 0.619v77.591c13.329-0.42 26.662-0.632 39.945-0.632 13.282-0.002 26.615 0.21 39.945 0.63zM402.156 489.276c-27.535 1.737-54.267 4.378-79.888 7.863v77.465c26.033-3.425 52.824-6.005 79.888-7.716v-77.613zM282.325 580.643v-77.193c-28.625 5.154-55.434 11.452-79.886 18.825v75.987c24.886-6.913 51.742-12.795 79.886-17.618zM82.609 651.816c20.383-15.695 47.694-29.362 79.886-40.931v-74.714c-50.512 20.342-79.886 44.568-79.886 66.98v48.664zM142.525 438.485c20.383-15.693 47.694-29.363 79.886-40.93v-74.714c-50.512 20.339-79.886 44.565-79.886 66.978v48.666zM102.582 176.486v48.661c20.383-15.693 47.694-29.359 79.886-40.93v-74.714c-50.512 20.343-79.886 44.57-79.886 66.982zM302.298 76.783c-28.626 5.154-55.435 11.452-79.886 18.825v75.985c24.885-6.908 51.742-12.791 79.886-17.617v-77.193zM342.241 70.473v77.466c26.033-3.422 52.823-6.003 79.887-7.718v-77.611c-27.535 1.737-54.267 4.382-79.887 7.863zM541.956 60.74c-13.193-0.405-26.513-0.619-39.945-0.619-13.427 0-26.752 0.213-39.94 0.619v77.589c13.329-0.422 26.658-0.631 39.94-0.631 13.286 0 26.615 0.209 39.945 0.631v-77.589zM581.901 62.609v77.611c27.063 1.711 53.854 4.292 79.885 7.718v-77.466c-25.621-3.486-52.348-6.127-79.885-7.863zM781.619 95.607c-24.457-7.373-51.26-13.67-79.889-18.825v77.197c28.147 4.821 55.002 10.705 79.889 17.613v-75.985zM821.564 109.504v74.714c32.192 11.571 59.503 25.237 79.885 40.93v-48.661c0-22.413-29.376-46.639-79.885-66.982zM792.26 215.253c-77.235-24.998-180.309-38.767-290.244-38.767s-213.019 13.769-290.246 38.767c-68.37 22.131-109.186 51.14-109.186 77.594 0 15.181 13.536 29.065 27.935 39.539 66.889-63.829 243.318-97.719 411.442-97.719 134.447 0 274.197 21.675 359.010 62.997 0.294-1.609 0.478-3.213 0.478-4.817 0-26.458-40.819-55.462-109.188-77.594zM262.355 384.93c24.885-6.912 51.742-12.796 79.886-17.617v-77.197c-28.626 5.154-55.435 11.452-79.886 18.825v75.989zM382.185 283.806v77.47c26.033-3.426 52.823-6.007 79.886-7.718v-77.615c-27.537 1.737-54.267 4.378-79.886 7.863zM502.012 351.667c13.329-0.422 26.662-0.631 39.945-0.631s26.615 0.209 39.945 0.631v-77.594c-13.193-0.405-26.513-0.619-39.945-0.619-13.427 0-26.752 0.213-39.945 0.619v77.594zM621.845 275.942v77.615c27.063 1.711 53.854 4.292 79.885 7.718v-77.47c-25.621-3.486-52.352-6.127-79.885-7.863zM741.675 367.313c28.147 4.821 55.002 10.705 79.885 17.617v-75.989c-24.452-7.373-51.26-13.67-79.885-18.825v77.197zM941.389 389.82c0-22.413-29.372-46.639-79.885-66.982v74.718c32.196 11.567 59.507 25.233 79.885 40.93v-48.666zM541.961 389.82c-109.939 0-213.021 13.769-290.248 38.767-64.849 20.992-104.839 48.166-108.794 73.485 85.762-35.511 214.713-54.071 339.125-54.071 175.083 0 359.172 36.749 419.174 105.8 26.001-15.683 40.171-32.362 40.171-47.615 0-26.458-40.815-55.467-109.184-77.598-77.231-24.998-180.309-38.767-290.244-38.767z" />
<glyph unicode="&#xe927;" glyph-name="Comments" d="M768 149.333c0 23.565 19.102 42.667 42.667 42.667h42.667c23.565 0 42.667 19.102 42.667 42.667v469.333c0 23.564-19.102 42.667-42.667 42.667h-682.667c-23.564 0-42.667-19.103-42.667-42.667v-469.333c0-23.565 19.103-42.667 42.667-42.667h469.333c9.233 0 18.214-2.995 25.6-8.533l102.4-76.8v42.667zM810.667 21.333l-170.667 128h-469.333c-47.128 0-85.333 38.204-85.333 85.333v469.333c0 47.128 38.205 85.333 85.333 85.333h682.667c47.13 0 85.333-38.205 85.333-85.333v-469.333c0-47.13-38.204-85.333-85.333-85.333h-42.667v-128zM234.667 490.667c-11.782 0-21.333-9.553-21.333-21.333s9.551-21.333 21.333-21.333h554.667c11.78 0 21.333 9.553 21.333 21.333s-9.553 21.333-21.333 21.333h-554.667zM234.667 618.667c-11.782 0-21.333-9.551-21.333-21.333s9.551-21.333 21.333-21.333h554.667c11.78 0 21.333 9.551 21.333 21.333s-9.553 21.333-21.333 21.333h-554.667zM228.571 362.667c-8.416 0-15.238-9.553-15.238-21.333s6.822-21.333 15.238-21.333h396.192c8.414 0 15.236 9.553 15.236 21.333s-6.822 21.333-15.236 21.333h-396.192z" />
<glyph unicode="&#xe928;" glyph-name="Company" d="M810.667 576v256c0 29.48-14.366 42.667-42.667 42.667h-384c-28.301 0-42.667-13.187-42.667-42.667v-85.333h-170.667c-28.301 0-42.667-13.187-42.667-42.667v-640c0-29.478 14.366-42.667 42.667-42.667h384v170.667h42.667v-170.667h256c28.301 0 42.667 13.188 42.667 42.667v469.333c0 29.48-14.366 42.667-42.667 42.667h-42.667zM170.667 64v640h170.667v-640h-170.667zM768 64h-128v128c0 23.565-19.102 42.667-42.667 42.667h-42.667c-23.565 0-42.667-19.102-42.667-42.667v-128h-128v768h384v-768zM277.333 576c11.782 0 21.333-9.551 21.333-21.333s-9.551-21.333-21.333-21.333h-42.667c-11.782 0-21.333 9.551-21.333 21.333s9.551 21.333 21.333 21.333h42.667zM298.667 384c0 11.78-9.551 21.333-21.333 21.333h-42.667c-11.782 0-21.333-9.553-21.333-21.333s9.551-21.333 21.333-21.333h42.667c11.782 0 21.333 9.553 21.333 21.333zM277.333 234.667c11.782 0 21.333-9.553 21.333-21.333s-9.551-21.333-21.333-21.333h-42.667c-11.782 0-21.333 9.553-21.333 21.333s9.551 21.333 21.333 21.333h42.667zM682.667 725.333c0 11.782-9.553 21.333-21.333 21.333h-170.667c-11.78 0-21.333-9.551-21.333-21.333s9.553-21.333 21.333-21.333h170.667c11.78 0 21.333 9.551 21.333 21.333zM661.333 661.333c11.78 0 21.333-9.551 21.333-21.333s-9.553-21.333-21.333-21.333h-170.667c-11.78 0-21.333 9.551-21.333 21.333s9.553 21.333 21.333 21.333h170.667zM682.667 554.667c0 11.782-9.553 21.333-21.333 21.333h-170.667c-11.78 0-21.333-9.551-21.333-21.333s9.553-21.333 21.333-21.333h170.667c11.78 0 21.333 9.551 21.333 21.333zM661.333 490.667c11.78 0 21.333-9.553 21.333-21.333s-9.553-21.333-21.333-21.333h-170.667c-11.78 0-21.333 9.553-21.333 21.333s9.553 21.333 21.333 21.333h170.667zM682.667 384c0 11.78-9.553 21.333-21.333 21.333h-170.667c-11.78 0-21.333-9.553-21.333-21.333s9.553-21.333 21.333-21.333h170.667c11.78 0 21.333 9.553 21.333 21.333zM661.333 320c11.78 0 21.333-9.553 21.333-21.333s-9.553-21.333-21.333-21.333h-170.667c-11.78 0-21.333 9.553-21.333 21.333s9.553 21.333 21.333 21.333h170.667zM853.333 64h-42.667v469.333h42.667v-469.333z" />
<glyph unicode="&#xe929;" glyph-name="Compare" d="M832 565.695c0 11.782-9.553 21.333-21.333 21.333h-192l74.667 73.802c6.886 6.887 8.593 17.406 4.237 26.117-6.908 13.814-25.318 16.804-36.237 5.883l-97.83-96.966c-16.661-16.662-16.661-43.676 0-60.338l97.83-97.83c10.918-10.923 29.329-7.932 36.237 5.884 4.356 8.708 2.65 19.23-4.237 26.116l-74.667 74.666h192c11.78 0 21.333 9.551 21.333 21.333zM167.006 202.163c-11.782 0-21.333 9.553-21.333 21.333 0 11.785 9.551 21.333 21.333 21.333h192l-74.667 74.667c-6.887 6.886-8.594 17.408-4.238 26.116 6.907 13.815 25.317 16.806 36.238 5.884l97.83-97.83c16.661-16.661 16.661-43.674 0-60.339l-97.83-96.964c-10.921-10.923-29.331-7.932-36.238 5.884-4.356 8.708-2.649 19.23 4.238 26.116l74.667 73.801h-192zM882.675 809.056l49.993-48.121c3.686-3.187 5.999-7.809 5.965-13.626v-452.559c0-9.621-8.102-17.417-18.095-17.417h-365.871v-256c0-23.565-19.102-42.667-42.667-42.667h-426.667c-23.564 0-42.667 19.102-42.667 42.667v512c0 23.564 19.103 42.667 42.667 42.667h341.333v323.919c0 9.618 8.102 17.415 18.095 17.415 0 0 318.549-0.021 318.95-0.035 4.531-0.184 8.841-1.978 12.053-5.082l106.91-103.161zM469.333 320h426.667v384h-128c-23.565 0-42.667 19.103-42.667 42.667v128h-256v-554.667zM426.667 533.333h-341.333v-512h426.667v256h-67.238c-9.993 0-18.095 7.795-18.095 17.417v238.583zM768 747.982l114.675-0.672-114.675 106.024v-105.352z" />
<glyph unicode="&#xe92a;" glyph-name="Complete" d="M341.333 832c0 23.564 19.103 42.667 42.667 42.667h256c23.565 0 42.667-19.103 42.667-42.667h123.26c26.18 0 47.407-21.225 47.407-47.407v-715.852c0-26.18-21.227-47.407-47.407-47.407h-587.852c-26.182 0-47.407 21.227-47.407 47.407v715.852c0 26.182 21.225 47.407 47.407 47.407h123.259zM384 746.667c-23.564 0-42.667 19.103-42.667 42.667h-128v-725.333h597.333v725.333h-128c0-23.564-19.102-42.667-42.667-42.667h-256zM640 832h-256v-42.667h256v42.667zM676.42 527.087c8.329-8.333 8.329-21.841 0-30.174l-213.333-213.333c-8.333-8.329-21.841-8.329-30.174 0l-85.331 85.333c-8.332 8.333-8.332 21.841 0 30.174 8.331 8.329 21.839 8.329 30.17 0l70.249-70.251 198.246 198.251c8.333 8.329 21.841 8.329 30.174 0z" />
<glyph unicode="&#xe92b;" glyph-name="Contract" d="M669.342 766.389l-106.91 103.161c-3.213 3.104-7.522 4.897-12.053 5.082-0.401 0.014-489.619 0.035-489.619 0.035-9.991 0-18.093-7.796-18.093-17.415v-818.502c0-9.621 8.102-17.417 18.093-17.417h646.444c9.993 0 18.095 7.795 18.095 17.417v665.893c0.034 5.817-2.278 10.438-5.965 13.626l-49.993 48.121zM554.667 705.315v105.352l114.675-106.024-114.675 0.672zM85.333 64v768h426.667v-128c0-23.564 19.102-42.667 42.667-42.667h128v-597.333h-597.333zM192 746.667h213.333c11.782 0 21.333-9.551 21.333-21.333s-9.551-21.333-21.333-21.333h-213.333c-11.782 0-21.333 9.551-21.333 21.333s9.551 21.333 21.333 21.333zM170.667 554.667c0-11.782 9.551-21.333 21.333-21.333h384c11.78 0 21.333 9.551 21.333 21.333s-9.553 21.333-21.333 21.333h-384c-11.782 0-21.333-9.551-21.333-21.333zM192 405.333h384c11.78 0 21.333-9.553 21.333-21.333s-9.553-21.333-21.333-21.333h-384c-11.782 0-21.333 9.553-21.333 21.333s9.551 21.333 21.333 21.333zM170.667 640c0-11.782 9.551-21.333 21.333-21.333h213.333c11.782 0 21.333 9.551 21.333 21.333s-9.551 21.333-21.333 21.333h-213.333c-11.782 0-21.333-9.551-21.333-21.333zM448 192h128c11.78 0 21.333-9.553 21.333-21.333s-9.553-21.333-21.333-21.333h-128c-11.78 0-21.333 9.553-21.333 21.333s9.553 21.333 21.333 21.333zM170.667 469.333c0-11.78 9.551-21.333 21.333-21.333h384c11.78 0 21.333 9.553 21.333 21.333s-9.553 21.333-21.333 21.333h-384c-11.782 0-21.333-9.553-21.333-21.333zM192 320h384c11.78 0 21.333-9.553 21.333-21.333s-9.553-21.333-21.333-21.333h-384c-11.782 0-21.333 9.553-21.333 21.333s9.551 21.333 21.333 21.333zM832 874.667h128c11.78 0 21.333-9.551 21.333-21.333v-640c0-2.812-0.542-5.495-1.532-7.953l-63.825-170.206c-3.123-8.324-11.085-13.841-19.977-13.841s-16.853 5.517-19.977 13.841l-63.825 170.206c-0.99 2.458-1.532 5.141-1.532 7.953v640c0 11.782 9.553 21.333 21.333 21.333zM938.667 234.667v384h-85.333v-384h85.333zM862.784 192l33.216-88.576 33.216 88.576h-66.432zM853.333 661.333h85.333v42.667h-85.333v-42.667zM938.667 746.667v85.333h-85.333v-85.333h85.333z" />
<glyph unicode="&#xe92c;" glyph-name="Corner-arrow" d="M682.667 277.333v-341.333h-341.333l341.333 341.333z" />
<glyph unicode="&#xe92d;" glyph-name="Crane" d="M426.667 874.667v-42.976c1.677-0.203 3.341-0.505 4.983-0.906l524.8-128c49.024-11.957 40.35-84.118-10.112-84.118h-93.005v-42.667h42.667c23.565 0 42.667-19.103 42.667-42.667v-85.333c0-23.565-19.102-42.667-42.667-42.667h-42.667v-23.104c60.54-10.155 106.667-62.805 106.667-126.229 0-70.694-57.306-128-128-128s-128 57.306-128 128c0 11.78 9.553 21.333 21.333 21.333s21.333-9.553 21.333-21.333c0-47.13 38.204-85.333 85.333-85.333s85.333 38.204 85.333 85.333c0 47.13-38.204 85.333-85.333 85.333-11.78 0-21.333 9.553-21.333 21.333v42.667h-42.667c-23.565 0-42.667 19.102-42.667 42.667v85.333c0 23.564 19.102 42.667 42.667 42.667h42.667v42.667h-384v-469.333h85.333c23.565 0 42.667-19.102 42.667-42.667v-85.333c0-23.565-19.102-42.667-42.667-42.667h-341.333c-23.564 0-42.667 19.102-42.667 42.667v85.333c0 23.565 19.103 42.667 42.667 42.667h85.333v469.333h-138.152c-39.906 0-57.972 49.897-27.315 75.444l153.6 128c3.578 2.982 7.59 5.333 11.866 6.994v45.562c0 23.564 19.103 42.667 42.667 42.667h85.333c23.564 0 42.667-19.103 42.667-42.667zM298.667 874.667h85.333v-42.667h-85.333v42.667zM896 448h-128v85.333h128v-85.333zM298.667 789.333h85.333v-128h-85.333v128zM426.667 788.083v-126.749h519.671l-519.671 126.749zM298.667 618.667h85.333v-469.333h-85.333v469.333zM256 776.46v-115.127h-138.152l138.152 115.127zM170.667 106.667v-85.333h341.333v85.333h-341.333z" />
<glyph unicode="&#xe92e;" glyph-name="Credit-card" d="M704 243.541c-13.065-5.709-27.494-8.875-42.667-8.875-58.91 0-106.667 47.757-106.667 106.667s47.757 106.667 106.667 106.667c15.172 0 29.602-3.166 42.667-8.875 13.065 5.709 27.494 8.875 42.667 8.875 58.91 0 106.667-47.757 106.667-106.667s-47.757-106.667-106.667-106.667c-15.172 0-29.602 3.166-42.667 8.875zM746.675 277.333c35.341 0.004 63.991 28.655 63.991 64s-28.651 63.996-63.991 64c13.389-17.826 21.325-39.987 21.325-64s-7.936-46.174-21.325-64zM661.325 277.333c-35.341 0.004-63.991 28.655-63.991 64s28.651 63.996 63.991 64c-13.389-17.826-21.325-39.987-21.325-64s7.936-46.174 21.325-64zM704 293.628c-13.094 11.721-21.333 28.749-21.333 47.706s8.239 35.985 21.333 47.706c13.094-11.721 21.333-28.749 21.333-47.706s-8.239-35.985-21.333-47.706zM170.667 405.333v-42.667h213.333v42.667h-213.333zM170.667 618.667h42.667v-85.333h-42.667v85.333zM298.667 618.667h-42.667v-85.333h42.667v85.333zM341.333 618.667h42.667v-85.333h-42.667v85.333zM469.333 618.667h-42.667v-85.333h42.667v85.333zM554.667 618.667h42.667v-85.333h-42.667v85.333zM682.667 618.667h-42.667v-85.333h42.667v85.333zM725.333 618.667h42.667v-85.333h-42.667v85.333zM853.333 618.667h-42.667v-85.333h42.667v85.333zM170.667 277.333v42.667h213.333v-42.667h-213.333zM128 789.333h768c47.13 0 85.333-38.205 85.333-85.333v-512c0-47.13-38.204-85.333-85.333-85.333h-768c-47.128 0-85.333 38.204-85.333 85.333v512c0 47.128 38.205 85.333 85.333 85.333zM896 746.667h-768c-23.564 0-42.667-19.103-42.667-42.667v-512c0-23.565 19.103-42.667 42.667-42.667h768c23.565 0 42.667 19.102 42.667 42.667v512c0 23.564-19.102 42.667-42.667 42.667z" />
<glyph unicode="&#xe92f;" glyph-name="Dashboard" d="M170.667 746.667v-341.333c0-23.565 19.103-42.667 42.667-42.667h298.667c23.565 0 42.667 19.102 42.667 42.667v341.333c0 23.564-19.102 42.667-42.667 42.667h-298.667c-23.564 0-42.667-19.103-42.667-42.667zM213.333 746.667h298.667v-341.333h-298.667v341.333zM597.333 746.667v-170.667c0-23.564 19.102-42.667 42.667-42.667h170.667c23.565 0 42.667 19.103 42.667 42.667v170.667c0 23.564-19.102 42.667-42.667 42.667h-170.667c-23.565 0-42.667-19.103-42.667-42.667zM640 746.667h170.667v-170.667h-170.667v170.667zM213.333 320h298.667c23.565 0 42.667-19.102 42.667-42.667v-128c0-23.565-19.102-42.667-42.667-42.667h-298.667c-23.564 0-42.667 19.102-42.667 42.667v128c0 23.565 19.103 42.667 42.667 42.667zM512 277.333h-298.667v-128h298.667v128zM597.333 448v-298.667c0-23.565 19.102-42.667 42.667-42.667h170.667c23.565 0 42.667 19.102 42.667 42.667v298.667c0 23.565-19.102 42.667-42.667 42.667h-170.667c-23.565 0-42.667-19.102-42.667-42.667zM640 448h170.667v-298.667h-170.667v298.667z" />
<glyph unicode="&#xe930;" glyph-name="Delete" d="M640 874.667v-42.667h-256v42.667h256zM384 917.333c-23.564 0-42.667-19.103-42.667-42.667v-85.333h341.333v85.333c0 23.564-19.102 42.667-42.667 42.667h-256zM768 661.333v-554.667c0-47.13-38.204-85.333-85.333-85.333h-341.333c-47.128 0-85.333 38.204-85.333 85.333v554.667h512zM213.333 704v-597.333c0-70.694 57.308-128 128-128h341.333c70.694 0 128 57.306 128 128v597.333h-597.333zM341.333 512c0 11.78 9.551 21.333 21.333 21.333s21.333-9.553 21.333-21.333v-341.333c0-11.78-9.551-21.333-21.333-21.333s-21.333 9.553-21.333 21.333v341.333zM490.667 512c0 11.78 9.553 21.333 21.333 21.333s21.333-9.553 21.333-21.333v-341.333c0-11.78-9.553-21.333-21.333-21.333s-21.333 9.553-21.333 21.333v341.333zM661.333 533.333c-11.78 0-21.333-9.553-21.333-21.333v-341.333c0-11.78 9.553-21.333 21.333-21.333s21.333 9.553 21.333 21.333v341.333c0 11.78-9.553 21.333-21.333 21.333zM768 789.333c47.13 0 85.333-38.205 85.333-85.333h-682.667c0 47.128 38.205 85.333 85.333 85.333h512zM256 832c-70.692 0-128-57.308-128-128v-42.667h768v42.667c0 70.692-57.306 128-128 128h-512z" />
<glyph unicode="&#xe931;" glyph-name="Delivery" d="M597.333 192h-256c-0.716 0-1.423-0.034-2.121-0.102-9.867 48.687-52.988 85.436-104.546 85.436-51.56 0-94.679-36.749-104.546-85.436-0.698 0.068-1.405 0.102-2.121 0.102h-64c-11.782 0-21.333 9.553-21.333 21.333v426.667c0 11.782 9.551 21.333 21.333 21.333h512c11.78 0 21.333-9.551 21.333-21.333v-21.333h-320c-11.782 0-21.333-9.551-21.333-21.333s9.551-21.333 21.333-21.333h320v-384zM128 149.333c0.716 0 1.423 0.034 2.121 0.102 9.867-48.687 52.986-85.436 104.546-85.436s94.679 36.749 104.546 85.436c0.698-0.068 1.405-0.102 2.121-0.102h343.475c9.907-48.636 53.001-85.333 104.525-85.333 51.558 0 94.677 36.749 104.546 85.436 0.695-0.068 1.404-0.102 2.121-0.102h106.667c11.78 0 21.333 9.553 21.333 21.333v170.667c0 4.211-1.246 8.329-3.584 11.831l-170.667 256.002c-3.955 5.935-10.615 9.5-17.749 9.5h-192v21.333c0 35.346-28.655 64-64 64h-512c-35.346 0-64-28.654-64-64v-426.667c0-35.345 28.654-64 64-64h64zM789.333 277.333c-51.524 0-94.618-36.698-104.525-85.333h-44.809v384h180.582l28.446-42.667h-145.028c-11.78 0-21.333-9.553-21.333-21.333v-170.667c0-11.78 9.553-21.333 21.333-21.333h277.333v-42.667h-64c-11.78 0-21.333-9.553-21.333-21.333s9.553-21.333 21.333-21.333h64v-42.667h-85.333c-0.717 0-1.425-0.034-2.121-0.102-9.869 48.687-52.988 85.436-104.546 85.436zM877.359 490.833l85.444-128.166h-237.47v128h149.333c0.913 0 1.809 0.055 2.692 0.166zM213.333 597.333c0-11.782-9.551-21.333-21.333-21.333h-42.667c-11.782 0-21.333 9.551-21.333 21.333s9.551 21.333 21.333 21.333h42.667c11.782 0 21.333-9.551 21.333-21.333zM163.556 170.667c0 39.219 31.894 71.113 71.11 71.113s71.11-31.898 71.11-71.113c0-39.215-31.894-71.113-71.11-71.113-39.219 0-71.11 31.898-71.11 71.113zM718.221 170.667c0 39.219 31.898 71.113 71.113 71.113 39.219 0 71.113-31.898 71.113-71.113s-31.893-71.113-71.113-71.113c-39.219 0-71.113 31.898-71.113 71.113zM213.333 170.667c0 11.78 9.551 21.333 21.333 21.333s21.333-9.553 21.333-21.333c0-11.78-9.551-21.333-21.333-21.333s-21.333 9.553-21.333 21.333zM789.333 192c-11.78 0-21.333-9.553-21.333-21.333s9.553-21.333 21.333-21.333c11.78 0 21.333 9.553 21.333 21.333s-9.553 21.333-21.333 21.333z" />
<glyph unicode="&#xe932;" glyph-name="Divide" d="M426.667 661.333c0 47.128 38.204 85.333 85.333 85.333s85.333-38.205 85.333-85.333c0-47.128-38.204-85.333-85.333-85.333s-85.333 38.205-85.333 85.333zM426.667 234.667c0 47.13 38.204 85.333 85.333 85.333s85.333-38.204 85.333-85.333c0-47.13-38.204-85.333-85.333-85.333s-85.333 38.204-85.333 85.333zM810.667 448c0 23.565-19.102 42.667-42.667 42.667h-512c-23.564 0-42.667-19.102-42.667-42.667s19.103-42.667 42.667-42.667h512c23.565 0 42.667 19.102 42.667 42.667z" />
<glyph unicode="&#xe933;" glyph-name="Double-arrows-down" d="M341.333 744.747l192-190.080 192 192 64-64-256-256-256 256 64 62.080zM341.333 467.413l192-190.080 192 192 64-64-256-256-256 256 64 62.080z" />
<glyph unicode="&#xe934;" glyph-name="Download" d="M170.667 85.333c0 11.785 9.551 21.333 21.333 21.333h682.667c11.78 0 21.333-9.549 21.333-21.333 0-11.78-9.553-21.333-21.333-21.333h-682.667c-11.782 0-21.333 9.553-21.333 21.333zM533.333 832c11.78 0 21.333-9.551 21.333-21.333v-588.497l99.345 99.345c8.333 8.333 21.841 8.333 30.17 0 8.333-8.329 8.333-21.837 0-30.17l-135.761-135.765c-8.333-8.329-21.841-8.329-30.174 0l-135.762 135.765c-8.332 8.333-8.332 21.841 0 30.17 8.331 8.333 21.839 8.333 30.17 0l99.346-99.345v588.497c0 11.782 9.553 21.333 21.333 21.333z" />
<glyph unicode="&#xe935;" glyph-name="Drag-indicator" d="M256 618.667c0 23.564 19.103 42.667 42.667 42.667h426.667c23.565 0 42.667-19.103 42.667-42.667s-19.102-42.667-42.667-42.667h-426.667c-23.564 0-42.667 19.103-42.667 42.667zM256 448c0 23.565 19.103 42.667 42.667 42.667h426.667c23.565 0 42.667-19.102 42.667-42.667s-19.102-42.667-42.667-42.667h-426.667c-23.564 0-42.667 19.102-42.667 42.667zM298.667 320c-23.564 0-42.667-19.102-42.667-42.667s19.103-42.667 42.667-42.667h426.667c23.565 0 42.667 19.102 42.667 42.667s-19.102 42.667-42.667 42.667h-426.667z" />
<glyph unicode="&#xe936;" glyph-name="Drawings" d="M915.938 625.878l-181.035-179.418 198.080-198.080c7.578-7.578 7.578-19.849 0-27.426l-193.937-193.937c-3.789-3.789-8.751-5.683-13.713-5.683s-9.924 1.894-13.713 5.683l-199.070 199.074-122.65-121.557c-2.329-2.308-5.189-3.977-8.333-4.885l-271.512-77.577c-1.742-0.491-3.542-0.738-5.322-0.738-5.076 0-10.020 1.988-13.713 5.683-4.982 4.979-6.876 12.271-4.943 19.034l77.576 271.514c0.909 3.145 2.576 6.007 4.887 8.333l121.553 122.65-199.073 199.075c-7.576 7.575-7.576 19.847 0 27.424l193.938 193.94c7.575 7.576 19.847 7.576 27.423 0l198.077-198.080 179.362 180.978c29.431 29.431 80.435 29.374 109.751 0.056l116.365-116.364c14.656-14.66 22.724-34.129 22.724-54.849s-8.064-40.189-22.724-54.849zM717.303 824.513c14.66 14.66 40.192 14.66 54.852 0l116.361-116.364c7.33-7.329 11.362-17.064 11.362-27.424s-4.032-20.094-11.307-27.367l-85.513-84.751-170.449 170.449 84.693 85.456zM287.309 506.18l63.863 63.864c7.576 7.576 7.576 19.849 0 27.424-7.576 7.576-19.849 7.576-27.424 0l-63.863-63.863-50.15 50.153 63.863 63.863c7.576 7.577 7.576 19.849 0 27.424s-19.849 7.577-27.423 0l-63.863-63.863-50.151 50.151 166.513 166.514 184.487-184.491-165.764-167.263-30.089 30.089zM676.702 640.12l-71.39 71.389-376.484-379.874h31.058c7.349 0 14.053-4.147 17.349-10.718l26.749-53.517 372.719 372.72zM132.974 68.966l25.262 88.431 63.167-63.168-88.428-25.263zM264.064 106.415l92.79 26.509-0.002 50.965-66.856 33.429c-3.751 1.873-6.8 4.924-8.675 8.674l-33.427 66.854h-50.965l-26.507-92.787 93.641-93.645zM395.643 164.821v31.057c0 7.347-4.148 14.050-10.72 17.348l-53.516 26.748 372.717 372.721 71.39-71.389-379.871-376.485zM675.187 118.302l50.15-50.15 166.515 166.511-184.491 184.491-167.262-165.764 30.089-30.089 63.863 63.863c7.573 7.578 19.844 7.578 27.422 0 7.578-7.573 7.578-19.849 0-27.426l-63.863-63.863 50.15-50.15 63.863 63.863c7.573 7.578 19.849 7.578 27.426 0 7.573-7.573 7.573-19.844 0-27.422l-63.863-63.863z" />
<glyph unicode="&#xe937;" glyph-name="Edit" d="M810.965 845.219l98.052-98.227c39.531-39.709 39.531-104.148 0-143.683l-496.529-497.231c-4.354-4.356-9.579-7.488-15.5-9.058l-266.464-75.063c-7.663-1.741-25.775-0.175-34.832 9.058-8.882 9.229-12.539 22.464-9.056 34.833l74.889 266.641c1.568 5.922 4.702 11.145 9.056 15.501l496.874 497.23c55.211 55.383 124.352 19.158 143.509 0zM874.667 640c11.844 11.843 11.844 52.157 0 64l-106.667 106.667c-11.494 11.495-52.506 11.495-64 0l-70.246-70.247 170.667-170.667 70.246 70.247zM774.251 539.583l-170.667 170.667-390.251-390.249-29.897-101.909 98.883-98.88 101.681 30.123 390.251 390.249zM142.253 77.713l27.497 93.726 66.021-66.022-93.518-27.703z" />
<glyph unicode="&#xe938;" glyph-name="Email" d="M853.175 789.333h-682.509c-62.259 0-85.333-24.308-85.333-85.333v-29.945c0-0.003 0-0.005 0-0.008v-482.227c0-61.026 23.075-85.154 85.333-85.154h682.509c62.259 0 85.491 24.132 85.491 85.154v512.179c0 61.026-23.232 85.333-85.491 85.333zM896 682.667l-384-234.667-384 234.667v23.302c0 25.926 15.106 40.698 41.13 40.698h685.496c26.022 0 41.374-14.772 41.374-40.698v-23.302zM128 632.451l364.233-221.699c5.935-3.614 12.851-5.419 19.767-5.419s13.833 1.805 19.767 5.419l364.233 221.698v-443.569c0-25.929-15.351-39.548-41.374-39.548h-685.496c-26.024 0-41.13 13.619-41.13 39.548v443.57z" />
<glyph unicode="&#xe939;" glyph-name="Employee-list" d="M320 917.333h298.667c27.866 0 51.571-17.809 60.356-42.667h88.977c47.13 0 85.333-38.205 85.333-85.333v-268.373c24.316-12.523 45.884-33.045 64.606-61.124 23.966-35.955 38.865-77.564 44.749-124.587 16.29-4.924 32.26-10.517 47.902-16.777 8.098-3.238 13.41-11.081 13.41-19.806v-25.719c0.004-29.043-19.345-53.572-45.858-61.393l-1.391-9.374c-13.103-85.146-26.287-140.954-40.337-169.054-23.829-47.663-114.517-97.126-168.414-97.126-49.455 0-129.886 41.647-161.216 85.333h-436.117c-47.128 0-85.333 38.204-85.333 85.333v682.667c0 47.128 38.205 85.333 85.333 85.333h88.975c8.786 24.858 32.492 42.667 60.358 42.667zM587.746 64c-9.732 31.475-19.136 77.338-28.497 138.18l-1.391 9.382c-13.146 3.9-24.858 11.964-33.169 23.104h-247.356c-11.782 0-21.333 9.553-21.333 21.333 0 10.475 7.547 19.183 17.498 20.988l3.835 0.346h234.667v21.333c0 8.725 5.312 16.567 13.41 19.806 9.899 3.964 19.93 7.654 30.093 11.085 1.233 11.345 2.978 22.383 5.244 33.109h-283.413c-11.782 0-21.333 9.553-21.333 21.333 0 10.475 7.547 19.183 17.498 20.988l3.835 0.346h295.761c7.27 19.405 16.542 37.581 27.823 54.502 7.714 11.571 15.91 21.858 24.585 30.831h-348.169c-11.782 0-21.333 9.553-21.333 21.333 0 10.475 7.547 19.183 17.498 20.988l3.835 0.346h405.333v21.333c0 10.473 7.548 19.183 17.498 20.989l3.836 0.344h106.667v213.333c0 23.564-19.102 42.667-42.667 42.667h-88.977c-8.785-24.858-32.491-42.667-60.356-42.667h-298.667c-27.866 0-51.572 17.809-60.358 42.667h-88.975c-23.564 0-42.667-19.103-42.667-42.667v-682.667c0-23.565 19.103-42.667 42.667-42.667h417.079zM725.333 361.481c14.033 0.789 28.254 1.186 42.667 1.186s28.634-0.397 42.667-1.186v171.853h-85.333v-171.853zM600.717 213.397l0.567-3.844c12.497-81.254 24.913-134.246 36.463-157.346 16.171-32.337 91.708-73.54 130.253-73.54s114.082 41.203 130.253 73.54c11.729 23.462 24.354 77.76 37.047 161.186-52.096 14.174-107.849 21.274-167.3 21.274-59.447 0-115.191-7.1-167.283-21.269zM853.333 357.794c21.956-2.581 43.422-6.182 64.388-10.812-6.208 33.549-17.98 63.223-35.285 89.186-9.203 13.807-18.897 24.986-29.103 33.643v-112.017zM682.667 481.737c-16.64-9.182-32.026-24.235-46.251-45.568-18.031-27.046-30.054-58.125-36.032-93.419 26.607 6.711 54.033 11.725 82.283 15.044v123.942zM320 874.667c-11.782 0-21.333-9.551-21.333-21.333s9.551-21.333 21.333-21.333h298.667c11.78 0 21.333 9.551 21.333 21.333s-9.553 21.333-21.333 21.333h-298.667zM788.523 319.714l-20.523 0.286c-82.692 0-158.225-13.734-226.743-41.139l13.41 5.129v-11.046l0.205-2.961 0.619-2.906c3.243-11.328 15.053-17.882 26.377-14.643 58.031 16.61 120.094 24.9 186.133 24.9s128.098-8.29 186.129-24.896c1.907-0.546 3.887-0.823 5.871-0.823 11.785 0 21.333 9.549 21.333 21.333v10.999l-3.866 1.481c-58.074 20.937-121.028 32.38-188.945 34.287zM682.667 640c0 11.782-9.553 21.333-21.333 21.333l-387.835-0.344c-9.952-1.806-17.498-10.516-17.498-20.989 0-11.782 9.551-21.333 21.333-21.333l387.836 0.344c9.95 1.806 17.498 10.516 17.498 20.989z" />
<glyph unicode="&#xe93a;" glyph-name="Equal" d="M768 618.667c23.565 0 42.667-19.103 42.667-42.667s-19.102-42.667-42.667-42.667h-512c-23.564 0-42.667 19.103-42.667 42.667s19.103 42.667 42.667 42.667h512zM768 362.667c23.565 0 42.667-19.102 42.667-42.667s-19.102-42.667-42.667-42.667h-512c-23.564 0-42.667 19.102-42.667 42.667s19.103 42.667 42.667 42.667h512z" />
<glyph unicode="&#xe93b;" glyph-name="Excel" d="M298.667 874.667h426.667l170.667-170.667v-597.333c0-47.13-38.204-85.333-85.333-85.333h-512c-47.128 0-85.333 38.204-85.333 85.333v42.667h-42.667c-23.564 0-42.667 19.102-42.667 42.667v512c0 23.564 19.103 42.667 42.667 42.667h42.667v42.667c0 47.128 38.205 85.333 85.333 85.333zM256 746.667h341.333c23.565 0 42.667-19.103 42.667-42.667v-512c0-23.565-19.102-42.667-42.667-42.667h-341.333v-42.667c0-23.565 19.103-42.667 42.667-42.667h512c23.565 0 42.667 19.102 42.667 42.667v554.667h-106.667c-35.345 0-64 28.654-64 64v106.667h-384c-23.564 0-42.667-19.102-42.667-42.667v-42.667zM725.333 814.327l110.327-110.327h-88.994c-11.78 0-21.333 9.551-21.333 21.333v88.994zM170.667 704v-512h426.667v512h-426.667zM540.092 277.333h-63.262c-4.407 0-7.906 1.101-10.505 3.307-2.598 2.202-4.681 4.719-6.255 7.552l-79.078 131.008c-1.259-3.934-2.754-7.317-4.485-10.15l-75.773-120.858c-1.889-2.675-4.052-5.154-6.492-7.437s-5.626-3.422-9.56-3.422h-59.249l113.306 175.625-108.821 165.709h63.262c4.407 0 7.593-0.59 9.56-1.77s3.816-3.108 5.548-5.783l77.661-125.11c1.574 3.934 3.462 7.868 5.665 11.806l71.289 112.124c1.732 2.99 3.618 5.193 5.666 6.609 2.044 1.416 4.642 2.124 7.787 2.124h60.668l-109.764-163.115 112.832-178.219z" />
<glyph unicode="&#xe93c;" glyph-name="Expand" d="M832 789.333h-192c-11.78 0-21.333-9.551-21.333-21.333s9.553-21.333 21.333-21.333h140.497l-161.83-161.83c-8.333-8.332-8.333-21.839 0-30.17s21.837-8.331 30.17 0l161.83 161.83v-140.497c0-11.782 9.553-21.333 21.333-21.333s21.333 9.551 21.333 21.333v192c0 2.892-0.576 5.651-1.617 8.166-0.994 2.402-2.445 4.659-4.356 6.638-0.183 0.189-0.367 0.375-0.555 0.557-1.98 1.909-4.237 3.36-6.639 4.354-2.517 1.043-5.274 1.619-8.166 1.619zM192 106.667h192c11.782 0 21.333 9.553 21.333 21.333s-9.551 21.333-21.333 21.333h-140.497l161.83 161.83c8.331 8.333 8.331 21.837 0 30.17s-21.839 8.333-30.17 0l-161.83-161.83v140.497c0 11.78-9.551 21.333-21.333 21.333s-21.333-9.553-21.333-21.333v-192c0-2.893 0.576-5.649 1.619-8.166 0.994-2.402 2.445-4.659 4.354-6.639 0.182-0.188 0.368-0.375 0.557-0.555 1.979-1.911 4.236-3.362 6.638-4.356 2.515-1.041 5.274-1.617 8.166-1.617z" />
<glyph unicode="&#xe93d;" glyph-name="External-Link" d="M234.667 789.333c-35.346 0-64-28.654-64-64v-554.667c0-35.345 28.654-64 64-64h554.667c35.345 0 64 28.655 64 64v256c0 11.78-9.553 21.333-21.333 21.333s-21.333-9.553-21.333-21.333v-256c0-11.78-9.553-21.333-21.333-21.333h-554.667c-11.782 0-21.333 9.553-21.333 21.333v554.667c0 11.782 9.551 21.333 21.333 21.333h256c11.78 0 21.333 9.551 21.333 21.333s-9.553 21.333-21.333 21.333h-256zM847.177 782.994c2.001-2.025 3.511-4.349 4.54-6.828 1.024-2.478 1.6-5.192 1.617-8.038v-234.795c0-11.78-9.553-21.333-21.333-21.333s-21.333 9.553-21.333 21.333v183.163l-262.246-262.25c-8.333-8.329-21.841-8.329-30.174 0-8.329 8.333-8.329 21.841 0 30.174l262.251 262.246h-183.164c-11.78 0-21.333 9.551-21.333 21.333s9.553 21.333 21.333 21.333h234.667c5.845 0 11.14-2.351 14.993-6.158l0.183-0.181z" />
<glyph unicode="&#xe93e;" glyph-name="Eye" d="M512 277.333c94.255 0 170.667 76.412 170.667 170.667 0 94.257-76.412 170.667-170.667 170.667-94.257 0-170.667-76.41-170.667-170.667 0-94.255 76.41-170.667 170.667-170.667zM640 448c0-70.694-57.306-128-128-128s-128 57.306-128 128c0 70.694 57.306 128 128 128s128-57.306 128-128zM129.732 496.064c79.354 88.947 185.51 207.936 382.268 207.936s302.916-118.99 382.268-207.936c15.684-17.579 30.319-33.984 44.399-48.064-14.080-14.080-28.719-30.485-44.399-48.064-79.356-88.947-185.51-207.936-382.268-207.936s-302.914 118.989-382.268 207.936c-15.682 17.579-30.318 33.984-44.399 48.064 14.081 14.080 28.717 30.485 44.399 48.064zM859.26 425.229c6.942 7.723 13.786 15.339 20.587 22.771-6.801 7.433-13.645 15.049-20.587 22.771-79.428 88.356-171.302 190.562-347.26 190.562-175.955 0-267.832-102.206-347.258-190.562-6.941-7.723-13.789-15.339-20.588-22.771 6.799-7.433 13.646-15.049 20.588-22.771 79.426-88.354 171.303-190.562 347.258-190.562 175.957 0 267.831 102.208 347.26 190.562z" />
<glyph unicode="&#xe93f;" glyph-name="Favourites" d="M493.372 209.054l-250.013-121.331 46.831 252.041c2.714 14.609-2.366 29.577-13.41 39.514l-195.148 175.588 273.029 36.622c13.596 1.824 25.487 10.074 31.954 22.171l125.386 234.517 125.385-234.517c6.468-12.097 18.359-20.347 31.957-22.171l273.028-36.622-195.149-175.588c-11.046-9.937-16.124-24.905-13.41-39.514l46.831-252.041-250.014 121.331c-11.763 5.705-25.493 5.705-37.257 0zM248.241 347.558l-46.831-252.041c-6.394-34.415 29.086-61.461 60.577-46.182l250.013 121.331 250.014-121.331c31.492-15.279 66.97 11.767 60.578 46.182l-46.831 252.041 195.149 175.59c27.038 24.329 13.184 69.169-22.869 74.004l-273.028 36.622-125.385 234.517c-16.077 30.066-59.179 30.066-75.255 0l-125.385-234.517-273.029-36.622c-36.052-4.836-49.907-49.675-22.866-74.004l195.148-175.59z" />
<glyph unicode="&#xe940;" glyph-name="Filter-sliders" d="M808.533 704c-9.882-48.688-52.928-85.333-104.533-85.333-51.639 0-94.711 36.698-104.555 85.437-0.695-0.068-1.399-0.103-2.112-0.103h-490.667c-11.782 0-21.333 9.551-21.333 21.333s9.551 21.333 21.333 21.333h490.667c0.713 0 1.417-0.035 2.112-0.103 9.843 48.739 52.915 85.437 104.555 85.437 51.605 0 94.652-36.646 104.533-85.333h108.8c11.78 0 21.333-9.551 21.333-21.333s-9.553-21.333-21.333-21.333h-108.8zM704 661.333c35.345 0 64 28.654 64 64s-28.655 64-64 64c-35.345 0-64-28.654-64-64s28.655-64 64-64zM917.333 490.667h-492.8c-9.883 48.688-52.928 85.333-104.533 85.333s-94.65-36.646-104.533-85.333h-108.8c-11.782 0-21.333-9.553-21.333-21.333s9.551-21.333 21.333-21.333h108.8c9.883-48.687 52.928-85.333 104.533-85.333s94.65 36.646 104.533 85.333h492.8c11.78 0 21.333 9.553 21.333 21.333s-9.553 21.333-21.333 21.333zM320 405.333c-35.346 0-64 28.655-64 64s28.654 64 64 64c35.346 0 64-28.655 64-64s-28.654-64-64-64zM917.333 234.667c11.78 0 21.333-9.553 21.333-21.333s-9.553-21.333-21.333-21.333h-194.133c-9.882-48.687-52.928-85.333-104.533-85.333s-94.652 36.646-104.533 85.333h-407.467c-11.782 0-21.333 9.553-21.333 21.333s9.551 21.333 21.333 21.333h407.467c9.882 48.687 52.928 85.333 104.533 85.333s94.652-36.646 104.533-85.333h194.133zM618.667 149.333c35.345 0 64 28.655 64 64s-28.655 64-64 64c-35.345 0-64-28.655-64-64s28.655-64 64-64z" />
<glyph unicode="&#xe941;" glyph-name="Filter" d="M156.445 874.667h711.11c39.275 0 71.113-38.205 71.113-85.333s-31.838-85.333-71.113-85.333h-25.741l-244.48-285.227v-290.773c0-7.134-3.563-13.794-9.498-17.749l-128-85.333c-14.178-9.455-33.169 0.708-33.169 17.749v376.107l-244.479 285.227h-25.743c-39.274 0-71.111 38.205-71.111 85.333s31.837 85.333 71.111 85.333zM238.383 704l219.43-256h108.373l219.43 256h-547.234zM191.991 746.667h669.1c19.281 0 34.91 19.103 34.91 42.667s-15.629 42.667-34.91 42.667h-698.181c-19.28 0-34.909-19.102-34.909-42.667s15.629-42.667 34.909-42.667h29.082zM469.333 82.526l85.333 56.892v265.916h-85.333v-322.807z" />
<glyph unicode="&#xe942;" glyph-name="Floppy" d="M170.667 874.667h579.661c11.315 0 22.17-4.495 30.17-12.497l145.673-145.673c8-8.001 12.497-18.854 12.497-30.17v-579.66c0-47.13-38.204-85.333-85.333-85.333h-682.667c-47.128 0-85.333 38.204-85.333 85.333v682.667c0 47.128 38.205 85.333 85.333 85.333zM170.667 832c-23.564 0-42.667-19.102-42.667-42.667v-682.667c0-23.565 19.103-42.667 42.667-42.667h85.333v277.333c0 35.345 28.654 64 64 64h384c35.345 0 64-28.655 64-64v-277.333h85.333c23.565 0 42.667 19.102 42.667 42.667v579.66l-128 128v-216.994c0-35.346-28.655-64-64-64h-384c-35.346 0-64 28.654-64 64v234.667h-85.333zM725.333 64v277.333c0 11.78-9.553 21.333-21.333 21.333h-384c-11.782 0-21.333-9.553-21.333-21.333v-277.333h426.667zM298.667 832v-234.667c0-11.782 9.551-21.333 21.333-21.333h384c11.78 0 21.333 9.551 21.333 21.333v234.667h-426.667zM367.211 192c-14.787 0-25.877-10.159-25.877-21.333 0-12.19 12.323-21.333 25.877-21.333h289.579c14.788 0 25.877 10.159 25.877 21.333 0 12.19-12.322 21.333-25.877 21.333h-289.579zM656.789 277.333c13.555 0 25.877-9.143 25.877-21.333 0-11.174-11.089-21.333-25.877-21.333h-289.579c-13.555 0-25.877 9.143-25.877 21.333 0 11.174 11.090 21.333 25.877 21.333h289.579zM633.493 618.667c3.614 0 6.507 5.785 6.507 13.017v144.633c0 7.232-2.893 13.017-6.507 13.017h-72.32c-3.614 0-6.507-5.785-6.507-13.017v-144.633c0-7.232 2.893-13.017 6.507-13.017h72.32z" />
<glyph unicode="&#xe943;" glyph-name="Folder-Open" d="M85.333 682.667c0 58.91 47.756 106.667 106.667 106.667h238.327c16.973 0 33.25-6.743 45.252-18.745l60.343-60.34c3.998-4.001 9.425-6.249 15.083-6.249h238.327c35.345 0 64-28.654 64-64v-192h94.686c41.638 0 72.188-39.13 62.089-79.522l-64-256c-7.121-28.493-32.721-48.478-62.089-48.478h-734.686c-35.346 0-64 28.655-64 64v554.667zM149.333 106.667h9.353c9.789 0 18.322 6.66 20.696 16.158l69.174 276.698c7.123 28.493 32.722 48.478 62.089 48.478h500.020v192c0 11.782-9.553 21.333-21.333 21.333h-238.327c-16.973 0-33.25 6.743-45.252 18.745l-60.343 60.34c-3.998 4.001-9.425 6.249-15.083 6.249h-238.327c-35.346 0-64-28.654-64-64v-554.667c0-11.78 9.551-21.333 21.333-21.333zM219.029 106.667h664.99c9.792 0 18.321 6.66 20.698 16.158l64 256c3.366 13.466-6.818 26.509-20.698 26.509h-637.373c-9.789 0-18.322-6.66-20.696-16.158l-69.174-276.698c-0.495-1.98-1.079-3.917-1.747-5.811z" />
<glyph unicode="&#xe944;" glyph-name="Folder" d="M85.333 682.667c0 58.91 47.756 106.667 106.667 106.667h238.327c16.973 0 33.25-6.743 45.252-18.745l60.343-60.34c3.998-4.001 9.425-6.249 15.083-6.249h238.327c35.345 0 64-28.654 64-64v-21.333h21.333c35.345 0 64-28.654 64-64v-426.667c0-35.345-28.655-64-64-64h-725.333c-35.346 0-64 28.655-64 64v554.667zM209.692 106.667h664.975c11.78 0 21.333 9.553 21.333 21.333v426.667c0 11.782-9.553 21.333-21.333 21.333h-640c-11.782 0-21.333-9.551-21.333-21.333v-426.667c0-7.479-1.283-14.66-3.642-21.333zM810.667 618.667v21.333c0 11.782-9.553 21.333-21.333 21.333h-238.327c-16.973 0-33.25 6.743-45.252 18.745l-60.343 60.34c-3.998 4.001-9.425 6.249-15.083 6.249h-238.327c-35.346 0-64-28.654-64-64v-554.667c0-11.78 9.551-21.333 21.333-21.333s21.333 9.553 21.333 21.333v426.667c0 35.346 28.654 64 64 64h576z" />
<glyph unicode="&#xe945;" glyph-name="Food" d="M554.667 448c64 0 128-64 128-128 42.667 1.28 85.333-44.676 85.333-85.333s-42.667-86.613-85.333-86.613c0-84.053-42.667-126.72-128-126.72h-213.333c-85.333 0-128 42.667-128 126.72-42.667 0-85.333 45.956-85.333 86.613s42.667 85.333 85.333 86.613c0 62.72 64 126.72 128 126.72h213.333zM341.333 405.333c-41.664 0-85.333-42.027-85.333-84.053h384c-5.888 42.027-43.669 84.053-85.333 84.053h-213.333zM554.667 64c41.664 0 85.333 42.027 85.333 84.053h-384c0-41.387 43.669-84.053 85.333-84.053h213.333zM213.333 192h469.333c21.333 0 42.667 21.333 42.667 42.667s-21.333 42.667-42.667 42.667h-469.333c-42.667 0-42.667-25.843-42.667-42.667s0-42.667 42.667-42.667zM853.333 704h-128v85.333l128 42.667c17.664 0 21.333 4.062 21.333 21.333s-3.669 21.333-21.333 21.333l-128-42.667c-15.616 0-40.107-27.585-42.667-42.667l-0.009-85.333h-170.658c-9.024 0-43.499-33.906-42.667-42.667v-128c1.536-17.207 5.205-44.105 21.333-42.667 17.6 1.566 22.933 25.459 21.333 42.667v128h341.333l-42.667-597.333h-84.885c-17.664 0-21.781-4.062-21.781-21.333s3.669-21.333 21.333-21.333h85.333c16.576 0 41.195 26.522 42.667 42.667l42.658 597.333c0.832 8.761-33.634 42.667-42.658 42.667z" />
<glyph unicode="&#xe946;" glyph-name="Fuel" d="M740.42 889.751l128-128c8.329-8.331 8.329-21.839 0-30.17l-48.917-48.915 27.584-27.582c3.998-4 6.246-9.427 6.246-15.085v-554.667c0-35.345-28.655-64-64-64h-554.667c-35.346 0-64 28.655-64 64v725.333c0 35.346 28.654 64 64 64h366.327c16.973 0 33.25-6.743 45.252-18.745l15.087-15.085 48.913 48.915c8.333 8.332 21.841 8.332 30.174 0zM774.255 667.576c-0.004 0.002-0.004 0.003-0.009 0.006l-128 128c-0.004 0.006-0.009 0.011-0.017 0.017l-30.153 30.153c-3.998 4.001-9.425 6.249-15.083 6.249h-366.327c-11.782 0-21.333-9.551-21.333-21.333v-725.333c0-11.78 9.551-21.333 21.333-21.333h554.667c11.78 0 21.333 9.553 21.333 21.333v545.83l-36.412 36.413zM789.333 712.837l33.83 33.83-97.83 97.83-33.83-33.83 97.83-97.83zM277.333 789.333c-11.782 0-21.333-9.551-21.333-21.333v-85.333c0-11.782 9.551-21.333 21.333-21.333h298.667c11.78 0 21.333 9.551 21.333 21.333v85.333c0 11.782-9.553 21.333-21.333 21.333h-298.667zM298.667 704v42.667h256v-42.667h-256zM371.503 576h280.994l36.416 36.418c8.333 8.332 21.841 8.332 30.174 0 8.329-8.331 8.329-21.839 0-30.17l-36.42-36.419v-366.327l36.42-36.416c8.329-8.333 8.329-21.841 0-30.174-8.333-8.329-21.841-8.329-30.174 0l-36.416 36.42h-280.994l-36.419-36.42c-8.331-8.329-21.839-8.329-30.17 0-8.332 8.333-8.332 21.841 0 30.174l36.418 36.416v366.327l-36.418 36.419c-8.332 8.331-8.332 21.839 0 30.17s21.839 8.332 30.17 0l36.419-36.418zM384 533.333v-341.333h256v341.333h-256z" />
<glyph unicode="&#xe947;" glyph-name="Grid" d="M298.667 746.667v-128h-128v128h128zM170.667 789.333c-23.564 0-42.667-19.103-42.667-42.667v-128c0-23.564 19.103-42.667 42.667-42.667h128c23.564 0 42.667 19.103 42.667 42.667v128c0 23.564-19.103 42.667-42.667 42.667h-128zM554.667 746.667v-128h-128v128h128zM426.667 789.333c-23.564 0-42.667-19.103-42.667-42.667v-128c0-23.564 19.103-42.667 42.667-42.667h128c23.565 0 42.667 19.103 42.667 42.667v128c0 23.564-19.102 42.667-42.667 42.667h-128zM810.667 746.667v-128h-128v128h128zM682.667 789.333c-23.565 0-42.667-19.103-42.667-42.667v-128c0-23.564 19.102-42.667 42.667-42.667h128c23.565 0 42.667 19.103 42.667 42.667v128c0 23.564-19.102 42.667-42.667 42.667h-128zM298.667 490.667v-128h-128v128h128zM170.667 533.333c-23.564 0-42.667-19.102-42.667-42.667v-128c0-23.565 19.103-42.667 42.667-42.667h128c23.564 0 42.667 19.102 42.667 42.667v128c0 23.565-19.103 42.667-42.667 42.667h-128zM554.667 490.667v-128h-128v128h128zM426.667 533.333c-23.564 0-42.667-19.102-42.667-42.667v-128c0-23.565 19.103-42.667 42.667-42.667h128c23.565 0 42.667 19.102 42.667 42.667v128c0 23.565-19.102 42.667-42.667 42.667h-128zM810.667 490.667v-128h-128v128h128zM682.667 533.333c-23.565 0-42.667-19.102-42.667-42.667v-128c0-23.565 19.102-42.667 42.667-42.667h128c23.565 0 42.667 19.102 42.667 42.667v128c0 23.565-19.102 42.667-42.667 42.667h-128zM298.667 234.667v-128h-128v128h128zM170.667 277.333c-23.564 0-42.667-19.102-42.667-42.667v-128c0-23.565 19.103-42.667 42.667-42.667h128c23.564 0 42.667 19.102 42.667 42.667v128c0 23.565-19.103 42.667-42.667 42.667h-128zM554.667 234.667v-128h-128v128h128zM426.667 277.333c-23.564 0-42.667-19.102-42.667-42.667v-128c0-23.565 19.103-42.667 42.667-42.667h128c23.565 0 42.667 19.102 42.667 42.667v128c0 23.565-19.102 42.667-42.667 42.667h-128zM810.667 234.667v-128h-128v128h128zM682.667 277.333c-23.565 0-42.667-19.102-42.667-42.667v-128c0-23.565 19.102-42.667 42.667-42.667h128c23.565 0 42.667 19.102 42.667 42.667v128c0 23.565-19.102 42.667-42.667 42.667h-128z" />
<glyph unicode="&#xe948;" glyph-name="Helmet" d="M101.764 189.995c-101.361 0.418-101.764 24.887-101.764 49.771 0 24.887 50.882 99.541 50.882 99.541 0 190.477 34.215 229.039 46.648 243.052 2.187 2.464 3.699 4.169 4.234 5.807 0.189 0.386 0.467 1.071 0.857 2.031 6.979 17.188 49.718 122.439 256.329 174.324 325.423 80.345 404.28-58.551 404.28-76.812 0-10.956 11.546-55.718 50.884-99.543 50.88-49.772 50.88-151.609 50.88-199.084 0-42.364 18.487-56.226 52.958-82.069 4.16-3.119 8.55-6.417 13.175-9.954 42.91-32.87 86.515-57.293 86.515-57.293 3.575-3.652 28.006-48.619-50.884-48.619-26.001 0-117.841-0.171-232.913-0.384h-0.068c-128.192-0.239-285.205-0.529-412.162-0.7-0.005-0.047-0.009-0.094-0.014-0.141l-1.409 0.141c-104.144-0.141-187.843-0.196-218.428-0.068zM326.278 232.751c58.131 0.077 126.671 0.188 205.353 0.324l307.106 0.563c51.051 0.090 85.926 0.149 107.614 0.175-13.295 8.87-26.411 18.146-39.019 27.721l-2.146 1.634c-3.183 2.441-11.038 8.35-16.435 12.407l-0.004 0.004-5.303 3.994c-8.521 6.477-14.66 11.418-20.365 16.555-27.87 25.067-40.751 52.762-40.751 92.954 0 41.092-1.195 65.728-6.131 93.696-6.093 34.547-16.905 60.19-33.83 76.873-10.697 11.919-20.228 24.703-28.412 37.62-176.674-1.422-288.529-26.979-334.035-73.52-43.712-44.706-75.563-142.029-93.641-290.999zM731.981 639.643c-6.14 15.165-9.937 29.307-11.063 41.060-1.745 3.031-4.126 6.369-7.27 9.981-10.577 12.15-26.47 23.859-47.91 33.432-64.162 28.646-161.459 32.322-296.398-0.993-66.184-16.62-117.629-39.697-156.422-67.31-25.958-18.476-44.568-37.732-57.44-56.847-4.36-6.475-7.709-12.422-10.341-17.974-0.73-1.54-2.049-4.633-3.17-7.262-0.869-2.038-1.619-3.798-1.884-4.338-1.638-2.478-3.727-5.476-6-8.738v0c-6.702-9.619-14.999-21.527-18.027-29.113-13.757-34.47-22.506-95.59-22.506-192.235v-13.163l-7.414-10.88c-1.401-2.052-3.99-5.943-7.363-11.166-5.641-8.738-11.279-17.835-16.494-26.765-2.467-4.224-4.781-8.307-6.911-12.215-4.774-8.755-8.468-16.661-10.613-21.248v0c-1.353-2.897-2.088-4.471-2.088-4.105 0-0.649-0.013-1.182-0.040-1.613 8.874-2.807 28.139-5.35 59.313-5.478 25.414-0.102 86.391-0.090 181.356 0.021 18.976 160.636 53.685 267.264 106.116 320.886 53.69 54.912 167.427 82.663 342.569 86.062zM720.917 680.703l0.277-0.489c-0.201 0.558-0.452 1.719-0.576 4.848 0.055-1.413 0.154-2.867 0.299-4.36zM42.627 238.153c-2.178 0.691-3.731 1.395-4.68 2.082 1.133-0.819 2.015-1.741 2.694-2.445 1.288-1.34 1.842-1.916 1.986 0.363z" />
<glyph unicode="&#xe949;" glyph-name="Histroy" d="M213.333 660.408c67.854 80.511 168.422 128.925 277.333 128.925 200.294 0 362.667-162.371 362.667-362.667s-162.372-362.667-362.667-362.667c-107.218 0-206.879 46.827-275.347 126.626-7.672 8.939-6.643 22.409 2.299 30.080s22.41 6.643 30.082-2.3c60.446-70.447 148.329-111.74 242.965-111.74 176.73 0 320 143.27 320 320s-143.27 320-320 320c-102.371 0-196.355-48.448-256.040-128h128.040c11.782 0 21.333-9.551 21.333-21.333s-9.551-21.333-21.333-21.333h-170.667c-11.782 0-21.333 9.551-21.333 21.333v170.667c0 11.782 9.551 21.333 21.333 21.333s21.333-9.551 21.333-21.333v-107.592zM469.333 435.503v225.83c0 11.782 9.553 21.333 21.333 21.333s21.333-9.551 21.333-21.333v-234.667c0-5.658-2.249-11.085-6.246-15.087l-128.002-128c-8.331-8.329-21.839-8.329-30.17 0-8.332 8.333-8.332 21.841 0 30.174l121.751 121.749z" />
<glyph unicode="&#xe94a;" glyph-name="Home" d="M499.819 913.513c6.276 4.367 14.315 4.99 21.094 1.871l3.273-1.871 490.667-341.333c9.673-6.728 12.058-20.023 5.329-29.695-5.982-8.597-17.152-11.438-26.351-7.238l-3.345 1.908-478.485 332.862-478.482-332.862c-8.597-5.98-20.057-4.759-27.223 2.378l-2.472 2.952c-5.981 8.597-4.76 20.057 2.378 27.223l2.952 2.472 490.666 341.333zM170.321 558.502c-1.807 9.952-10.517 17.498-20.99 17.498-11.782 0-21.333-9.551-21.333-21.333v-512l0.344-3.836c1.807-9.95 10.517-17.498 20.989-17.498h362.669c21.333 0 47.334 0.836 42.667 42.667v213.333h128v-213.333c-4.672-41.83 21.333-42.667 42.667-42.667h149.333c10.47 0 19.183 7.548 20.988 17.498l0.346 3.836v512c0 11.782-9.553 21.333-21.333 21.333-10.475 0-19.187-7.547-20.992-17.498l-0.341-3.835v-490.667h-128v213.333c0 21.333-4.672 47.339-42.667 42.667h-128c-21.333 0-42.667-21.333-42.667-42.667v-213.333h-341.335v490.667l-0.343 3.835zM256 490.667c0 23.565 19.103 42.667 42.667 42.667h128c23.565 0 42.667-19.102 42.667-42.667v-128c0-23.565-19.102-42.667-42.667-42.667h-128c-23.564 0-42.667 19.102-42.667 42.667v128zM298.667 490.667h128v-128h-128v128z" />
<glyph unicode="&#xe94b;" glyph-name="Image" d="M374.759 555.824c-41.579 41.641-109.026 41.743-150.732 0.23l-102.311-101.841-30.1 30.242 102.311 101.839c58.388 58.119 152.814 57.975 211.024-0.322l506.144-506.897-30.191-30.148-506.145 506.898zM810.667 832c47.13 0 85.333-38.205 85.333-85.333v-597.333c0-47.13-38.204-85.333-85.333-85.333h-597.333c-47.128 0-85.333 38.204-85.333 85.333v597.333c0 47.128 38.205 85.333 85.333 85.333h597.333zM213.333 874.667c-70.692 0-128-57.308-128-128v-597.333c0-70.694 57.308-128 128-128h597.333c70.694 0 128 57.306 128 128v597.333c0 70.692-57.306 128-128 128h-597.333zM769.843 458.654c-24.772 24.772-64.862 25.024-89.946 0.555l-89.003-86.818-29.79 30.541 89.003 86.822c41.801 40.772 108.617 40.358 149.905-0.93l132.407-132.403-30.174-30.174-132.403 132.407zM661.333 618.667c35.345 0 64 28.654 64 64s-28.655 64-64 64c-35.345 0-64-28.654-64-64s28.655-64 64-64zM768 682.667c0-58.91-47.757-106.667-106.667-106.667s-106.667 47.756-106.667 106.667c0 58.91 47.757 106.667 106.667 106.667s106.667-47.756 106.667-106.667z" />
<glyph unicode="&#xe94c;" glyph-name="Important-1" d="M969.122 235.098l-362.398 598.385c-7.228 11.936-17.31 21.925-29.359 29.086-40.538 24.096-93.116 11.074-117.436-29.086l-362.398-598.385c-7.982-13.18-12.198-28.262-12.198-43.631 0-46.835 38.323-84.8 85.596-84.8h724.793c15.514 0 30.737 4.177 44.041 12.083 40.538 24.098 53.683 76.186 29.359 116.348zM555.345 826.212c6.025-3.581 11.068-8.576 14.682-14.543l362.398-598.387c12.16-20.079 5.589-46.123-14.682-58.172-6.652-3.955-14.263-6.042-22.020-6.042h-724.793c-23.637 0-42.798 18.982-42.798 42.398 0 7.689 2.108 15.228 6.099 21.815l362.397 598.387c12.16 20.080 38.451 26.591 58.718 14.543zM478.383 597.977c-4.774 33.439 21.171 63.357 54.95 63.357s59.725-29.917 54.95-63.357l-30.601-214.19c-1.732-12.117-12.109-21.12-24.35-21.12s-22.618 9.003-24.35 21.12l-30.601 214.19zM575.863 277.333c0-23.565-19.102-42.667-42.667-42.667s-42.667 19.102-42.667 42.667c0 23.565 19.102 42.667 42.667 42.667s42.667-19.102 42.667-42.667z" />
<glyph unicode="&#xe94d;" glyph-name="Important" d="M938.667 448c0 235.642-191.027 426.667-426.667 426.667-235.642 0-426.667-191.025-426.667-426.667 0-235.639 191.025-426.667 426.667-426.667 235.639 0 426.667 191.027 426.667 426.667zM896 448c0-212.079-171.921-384-384-384-212.077 0-384 171.921-384 384 0 212.077 171.923 384 384 384 212.079 0 384-171.923 384-384zM469.333 618.667v-213.333c0-23.565 19.102-42.667 42.667-42.667s42.667 19.102 42.667 42.667v213.333c0 23.564-19.102 42.667-42.667 42.667s-42.667-19.103-42.667-42.667zM554.667 277.333c0 23.565-19.102 42.667-42.667 42.667s-42.667-19.102-42.667-42.667c0-23.565 19.102-42.667 42.667-42.667s42.667 19.102 42.667 42.667z" />
<glyph unicode="&#xe94e;" glyph-name="Info" d="M85.333 448.017c0-235.61 191.038-426.684 426.65-426.684 235.61 0 426.684 191.074 426.684 426.684s-191.074 426.65-426.684 426.65c-235.611 0-426.65-191.038-426.65-426.65zM120.889 448.017c0 215.976 175.119 391.094 391.094 391.094 215.979 0 391.13-175.119 391.13-391.094 0-215.979-175.151-391.13-391.13-391.13-215.976 0-391.094 175.151-391.094 391.13zM600.802 213.419l7.33 29.871c-3.827-1.771-9.894-3.827-18.274-6.14-8.452-2.313-15.932-3.503-22.613-3.503-14.157 0-24.162 2.347-29.871 7.006-5.777 4.659-8.631 13.436-8.631 26.295 0 5.094 0.866 12.681 2.637 22.613 1.805 9.933 3.793 18.816 6.033 26.581l27.341 96.802c2.671 8.922 4.514 18.637 5.491 29.295 0.973 10.62 1.481 18.061 1.481 22.285 0 20.373-7.189 36.949-21.457 49.702-14.34 12.715-34.709 19.142-61.111 19.142-14.63 0-30.161-2.601-46.596-7.874-16.435-5.201-33.664-11.486-51.652-18.82l-7.26-29.905c5.273 2.022 11.703 4.079 19.107 6.357 7.476 2.202 14.773 3.251 21.853 3.251 14.483 0 24.198-2.385 29.365-7.262 5.094-4.877 7.659-13.542 7.659-25.899 0-6.933-0.798-14.554-2.458-22.861-1.66-8.239-3.755-17.088-6.178-26.406l-27.485-97.088c-2.42-10.223-4.19-19.324-5.309-27.418-1.084-8.090-1.626-16.038-1.626-23.804 0-19.972 7.332-36.407 22.068-49.374s35.435-19.469 62.020-19.469c17.301 0 32.508 2.274 45.581 6.827 13.111 4.553 30.596 11.123 52.557 19.793zM549.909 588.561c-17.916 0-33.378 5.924-46.234 17.771-12.787 11.847-19.251 26.259-19.251 43.091 0 16.796 6.498 31.244 19.251 43.199 12.855 11.992 28.318 17.952 46.234 17.952 17.95 0 33.335-5.96 46.050-17.952 12.753-11.956 19.145-26.403 19.145-43.199 0-16.868-6.391-31.244-19.145-43.091-12.749-11.847-28.1-17.771-46.050-17.771z" />
<glyph unicode="&#xe94f;" glyph-name="Linked" d="M298.667 320c-94.255 0-170.667 76.407-170.667 170.667 0 94.258 76.411 170.667 170.667 170.667h149.333c11.78 0 21.333-9.551 21.333-21.333s-9.553-21.333-21.333-21.333h-149.333c-70.693 0-128-57.307-128-128s57.307-128 128-128h170.667c50.138 0 93.547 28.83 114.547 70.814 4.233 8.461 12.493 14.519 21.952 14.519 14.583 0 25.254-13.837 19.285-27.14-26.684-59.452-86.4-100.86-155.785-100.86h-170.667zM719.957 576c94.255 0 170.667-76.407 170.667-170.667s-76.412-170.667-170.667-170.667h-149.333c-11.78 0-21.333 9.553-21.333 21.333s9.553 21.333 21.333 21.333h149.333c70.694 0 128 57.306 128 128s-57.306 128-128 128h-170.667c-50.138 0-93.547-28.83-114.547-70.814-4.233-8.461-12.492-14.519-21.952-14.519-14.583 0-25.255 13.837-19.283 27.14 26.682 59.453 86.397 100.86 155.782 100.86h170.667z" />
<glyph unicode="&#xe950;" glyph-name="List" d="M128 746.667v-128c0-23.564 19.103-42.667 42.667-42.667h128c23.564 0 42.667 19.103 42.667 42.667v128c0 23.564-19.103 42.667-42.667 42.667h-128c-23.564 0-42.667-19.103-42.667-42.667zM170.667 746.667h128v-128h-128v128zM384 704v-42.667c0-23.564 19.102-42.667 42.667-42.667h384c23.565 0 42.667 19.103 42.667 42.667v42.667c0 23.564-19.102 42.667-42.667 42.667h-384c-23.564 0-42.667-19.103-42.667-42.667zM426.667 704h384v-42.667h-384v42.667zM170.667 533.333h128c23.564 0 42.667-19.102 42.667-42.667v-128c0-23.565-19.103-42.667-42.667-42.667h-128c-23.564 0-42.667 19.102-42.667 42.667v128c0 23.565 19.103 42.667 42.667 42.667zM298.667 490.667h-128v-128h128v128zM384 448v-42.667c0-23.565 19.102-42.667 42.667-42.667h384c23.565 0 42.667 19.102 42.667 42.667v42.667c0 23.565-19.102 42.667-42.667 42.667h-384c-23.564 0-42.667-19.102-42.667-42.667zM426.667 448h384v-42.667h-384v42.667zM170.667 277.333h128c23.564 0 42.667-19.102 42.667-42.667v-128c0-23.565-19.103-42.667-42.667-42.667h-128c-23.564 0-42.667 19.102-42.667 42.667v128c0 23.565 19.103 42.667 42.667 42.667zM298.667 234.667h-128v-128h128v128zM384 192v-42.667c0-23.565 19.102-42.667 42.667-42.667h384c23.565 0 42.667 19.102 42.667 42.667v42.667c0 23.565-19.102 42.667-42.667 42.667h-384c-23.564 0-42.667-19.102-42.667-42.667zM426.667 192h384v-42.667h-384v42.667z" />
<glyph unicode="&#xe951;" glyph-name="Lock" d="M341.333 533.333v85.333c0 106.667 64 170.667 170.803 170.667 106.807 0 170.53-64 170.53-170.667v-85.333h42.667c21.333 0 42.667-21.333 42.667-42.667v-341.333c0-24.661-18.266-42.667-42.667-42.667h-426.667c-24.401 0-42.667 18.005-42.667 42.667v341.333c0 21.333 21.333 42.667 42.667 42.667h42.667zM512.137 746.667c-85.47 0-128.137-42.667-128.137-128v-85.333h256v85.333c0 85.333-42.389 128-127.863 128zM298.667 490.667v-341.333h426.667v341.333h-426.667zM469.333 277.333c0 23.565 19.102 42.667 42.667 42.667s42.667-19.102 42.667-42.667c0-23.565-19.102-42.667-42.667-42.667s-42.667 19.102-42.667 42.667z" />
</font>
</defs>
</svg>
