<svg width="140" height="57" viewBox="0 0 140 57" fill="none" xmlns="http://www.w3.org/2000/svg">
<g clip-path="url(#clip0_4690_277)">
<path d="M92.811 11.1764H89.263C88.9969 11.1764 88.7751 11.3981 88.7751 11.6642V15.3897C91.9536 13.867 93.358 12.1964 93.2989 11.6051C93.2693 11.3685 93.0624 11.1764 92.811 11.1764Z" fill="#2A2A2A"/>
<path d="M59.9029 13.9409C61.263 13.9409 62.9927 14.3548 64.0571 14.9609C64.2788 15.0792 64.5597 15.1827 64.7815 15.1827C65.0032 15.1827 65.1659 14.9905 65.1659 14.7244V12.8469C65.1659 12.1668 64.8554 11.7825 63.3179 11.3685C62.0317 10.9842 60.5682 10.8068 59.1637 10.8068C53.4573 10.8068 49.6875 14.8131 49.6875 20.7856C49.6875 26.7434 53.1616 30.3802 59.0159 30.3802C60.9082 30.3802 62.9483 29.9958 64.5302 29.3157C65.0919 29.1236 65.1806 28.7392 65.1806 28.2957V26.3738C65.1806 26.0338 65.0919 25.812 64.8406 25.812C64.6484 25.812 64.4562 25.886 64.1901 26.0338C63.0222 26.7138 61.2482 27.1573 59.6959 27.1573C56.074 27.1573 54.2113 24.925 54.2113 20.5787C54.2113 16.2323 56.1331 13.9409 59.9029 13.9409Z" fill="#2A2A2A"/>
<path d="M10.8806 29.094C11.2946 29.5818 13.9408 30.5723 23.2101 30.3062C32.4794 30.0401 38.5997 29.5818 42.6061 29.8036C46.6124 30.0253 45.4002 28.9018 45.2523 28.8131C45.2523 28.8131 44.0401 27.8669 42.6061 26.7434C41.1721 25.6198 40.8912 25.7085 40.8912 24.1858C40.8912 22.6484 40.5807 18.6124 37.8754 16.0401C36.5301 14.6061 36.7666 14.7392 36.7518 14.3696C36.7222 13.793 34.1499 8.55965 23.077 11.2207C15.6853 12.9947 14.6209 17.2967 14.4878 17.6072C14.3548 17.9176 11.8859 19.8099 12.4181 27.3199C12.4181 27.3347 10.4667 28.6061 10.8806 29.094Z" fill="#2A2A2A"/>
<path d="M76.2681 30.6315C79.1805 30.6315 80.9841 30.0253 82.6103 28.5913C84.606 26.8173 85.5522 24.2893 85.5522 20.7708C85.5522 14.3844 82.2998 10.792 76.5342 10.792C73.474 10.792 71.7296 11.3242 70.0295 12.8025C68.0337 14.5322 67.0432 17.1045 67.0432 20.6969C67.0432 24.2893 68.0337 26.8469 69.9851 28.5913C71.6261 30.0697 73.4001 30.6315 76.2681 30.6315ZM76.3421 13.9409C79.2544 13.9409 81.0284 16.5132 81.0284 20.7708C81.0284 25.0285 79.2988 27.453 76.3421 27.453C73.4001 27.453 71.5818 24.925 71.5818 20.623C71.5818 16.321 73.3558 13.9409 76.3421 13.9409Z" fill="#2A2A2A"/>
<path d="M100.439 11.1763H97.4234C97.1573 11.1763 96.9355 11.3981 96.9355 11.6642V29.567C96.9355 29.8331 97.1573 30.0549 97.4234 30.0549H100.971C101.238 30.0549 101.459 29.8331 101.459 29.567V17.3263C101.459 15.4044 102.819 14.3104 105.229 14.3104C107.875 14.3104 109.014 15.5227 109.014 18.2724V29.567C109.014 29.8331 109.235 30.0549 109.502 30.0549H113.05C113.316 30.0549 113.537 29.8331 113.537 29.567V17.622C113.537 13.1721 111.202 10.792 106.855 10.792C105.643 10.792 104.697 10.9398 103.647 11.3242C103.352 11.4424 102.967 11.5903 102.509 11.7825C101.858 12.0042 101.711 12.0486 101.075 12.0486V11.679C101.09 11.3242 100.898 11.1763 100.439 11.1763Z" fill="#2A2A2A"/>
<path d="M88.775 29.5818C88.775 29.8479 88.9968 30.0697 89.2629 30.0697H92.8109C93.077 30.0697 93.2988 29.8479 93.2988 29.5818V14.6653C91.0813 16.2914 88.9377 16.8089 88.7603 16.8384V29.5818H88.775Z" fill="#2A2A2A"/>
<path d="M122.068 27.1573C120.367 27.1573 119.081 26.773 117.426 25.8712C117.204 25.7233 116.938 25.6494 116.745 25.6494C116.45 25.6494 116.332 25.8416 116.332 26.3738V28.4139C116.332 29.1383 116.405 29.2862 117.204 29.5079C117.692 29.6558 118.106 29.8036 118.49 29.8775C119.702 30.2175 120.988 30.3801 122.186 30.3801C126.488 30.3801 129.178 28.2661 129.178 24.792C129.178 22.6336 128.04 20.8596 125.852 19.5438L122.141 17.208C121.58 16.868 121.24 16.3062 121.24 15.6558C121.24 14.6357 122.068 14.0296 123.502 14.0296C124.743 14.0296 126.68 14.4879 127.611 15.0053C127.922 15.1827 128.144 15.2566 128.336 15.2566C128.661 15.2566 128.794 15.0053 128.794 14.6357V12.7286C128.794 12.0042 128.528 11.8268 126.872 11.4129C125.542 11.0729 124.182 10.8807 122.984 10.8807C119.17 10.8807 116.716 13.0391 116.716 16.3654C116.716 17.4593 117.056 18.5533 117.618 19.3073C118.179 20.0612 118.948 20.6674 120.752 21.8057L122.57 22.944C124.27 23.9641 124.655 24.4224 124.655 25.3685C124.64 26.5512 123.768 27.1573 122.068 27.1573Z" fill="#2A2A2A"/>
<path d="M25.0434 54.6843C24.6738 54.6843 24.3782 54.5956 24.1712 54.4034C23.9494 54.2112 23.8459 53.9451 23.8459 53.6051C23.8459 53.3833 23.8903 53.1911 23.9938 53.0137C24.0973 52.8363 24.2599 52.6589 24.4816 52.5111C24.7034 52.3632 24.9991 52.2302 25.3539 52.1119C25.7235 51.9936 26.167 51.9049 26.6992 51.831V51.6388C26.6992 51.1066 26.4331 50.8553 25.8861 50.8553C25.5608 50.8553 25.2799 50.9145 25.0286 51.0475C24.7773 51.1658 24.5556 51.3284 24.3486 51.5058L23.979 51.0771C24.2303 50.8553 24.5112 50.6631 24.8364 50.5153C25.1617 50.3675 25.5313 50.2935 25.96 50.2935C26.2113 50.2935 26.4331 50.3231 26.6105 50.397C26.7879 50.4562 26.9357 50.5596 27.054 50.6779C27.1722 50.7962 27.2462 50.944 27.3053 51.1214C27.3644 51.2988 27.3792 51.491 27.3792 51.7128V53.5903C27.3792 53.8416 27.394 54.0633 27.4088 54.226C27.4236 54.3886 27.4679 54.5364 27.5123 54.6399H26.8027C26.7731 54.5512 26.7583 54.4625 26.7287 54.3738C26.714 54.2851 26.6992 54.1816 26.6992 54.0486C26.2261 54.4625 25.6791 54.6843 25.0434 54.6843ZM25.2504 54.1373C25.5313 54.1373 25.7974 54.0781 26.0339 53.9746C26.2704 53.8564 26.4922 53.7085 26.6992 53.5164V52.3189C26.3 52.378 25.96 52.4519 25.6791 52.5406C25.3982 52.6146 25.1765 52.718 25.0138 52.8215C24.8512 52.925 24.733 53.0285 24.6443 53.1468C24.5703 53.265 24.5408 53.3833 24.5408 53.5164C24.5408 53.7233 24.5999 53.8712 24.733 53.9894C24.8364 54.0781 25.0138 54.1373 25.2504 54.1373ZM30.2176 54.7138C29.9663 54.7138 29.7298 54.6695 29.4933 54.5808C29.2715 54.4773 29.0645 54.3442 28.8871 54.1668C28.7097 53.9746 28.5767 53.7529 28.4732 53.472C28.3697 53.1911 28.3254 52.8659 28.3254 52.5111C28.3254 52.1267 28.3845 51.7867 28.488 51.5058C28.6062 51.2249 28.7541 51.0032 28.9315 50.8257C29.1237 50.6483 29.3306 50.5153 29.5672 50.4266C29.8037 50.3379 30.0402 50.2935 30.2768 50.2935C30.5133 50.2935 30.7351 50.3231 30.9125 50.397C31.0899 50.4562 31.2525 50.5449 31.3855 50.6631C31.5186 50.7666 31.6369 50.8997 31.7256 51.0475C31.8143 51.1953 31.8882 51.3432 31.9621 51.5058L31.3708 51.7423C31.2673 51.4614 31.1194 51.2545 30.9568 51.1066C30.7794 50.9588 30.5577 50.8849 30.2768 50.8849C30.1142 50.8849 29.9663 50.9145 29.8185 50.9736C29.6707 51.0327 29.5376 51.1214 29.4193 51.2545C29.3011 51.3875 29.2124 51.5501 29.1385 51.7571C29.0645 51.9641 29.035 52.2154 29.035 52.5111C29.035 53.0433 29.1532 53.4424 29.375 53.7233C29.5967 54.0042 29.8924 54.1373 30.2472 54.1373C30.5281 54.1373 30.7499 54.0781 30.9125 53.9451C31.0899 53.812 31.2525 53.5903 31.3855 53.2798L31.9621 53.5016C31.8882 53.679 31.7847 53.8416 31.6812 53.9894C31.5777 54.1373 31.4447 54.2555 31.3116 54.3738C31.1786 54.4773 31.016 54.566 30.8386 54.6251C30.6464 54.6843 30.4394 54.7138 30.2176 54.7138ZM34.4753 54.7138C34.224 54.7138 33.9874 54.6695 33.7509 54.5808C33.5292 54.4773 33.3222 54.3442 33.1448 54.1668C32.9674 53.9746 32.8343 53.7529 32.7308 53.472C32.6274 53.1911 32.583 52.8659 32.583 52.5111C32.583 52.1267 32.6421 51.7867 32.7456 51.5058C32.8639 51.2249 33.0117 51.0032 33.1891 50.8257C33.3813 50.6483 33.5883 50.5153 33.8248 50.4266C34.0614 50.3379 34.2979 50.2935 34.5344 50.2935C34.771 50.2935 34.9927 50.3231 35.1701 50.397C35.3475 50.4562 35.5102 50.5449 35.6432 50.6631C35.7763 50.7666 35.8945 50.8997 35.9832 51.0475C36.0719 51.1953 36.1458 51.3432 36.2198 51.5058L35.6284 51.7423C35.5249 51.4614 35.3771 51.2545 35.2145 51.1066C35.0371 50.9588 34.8153 50.8849 34.5344 50.8849C34.3718 50.8849 34.224 50.9145 34.0761 50.9736C33.9283 51.0327 33.7953 51.1214 33.677 51.2545C33.5587 51.3875 33.47 51.5501 33.3961 51.7571C33.3222 51.9641 33.2926 52.2154 33.2926 52.5111C33.2926 53.0433 33.4109 53.4424 33.6326 53.7233C33.8544 54.0042 34.1501 54.1373 34.5049 54.1373C34.7858 54.1373 35.0075 54.0781 35.1701 53.9451C35.3475 53.812 35.5102 53.5903 35.6432 53.2798L36.2198 53.5016C36.1458 53.679 36.0424 53.8416 35.9389 53.9894C35.8354 54.1373 35.7023 54.2555 35.5693 54.3738C35.4362 54.4773 35.2736 54.566 35.0962 54.6251C34.904 54.6843 34.6971 54.7138 34.4753 54.7138ZM38.7625 54.7138C38.5112 54.7138 38.2747 54.6695 38.0381 54.5808C37.8016 54.4921 37.6094 54.359 37.432 54.1668C37.2546 53.9746 37.1068 53.7529 37.0033 53.472C36.8998 53.1911 36.8407 52.8659 36.8407 52.4963C36.8407 52.1119 36.8998 51.7719 37.0033 51.491C37.1216 51.2101 37.2694 50.9884 37.4616 50.811C37.6538 50.6336 37.8607 50.5005 38.0825 50.4118C38.319 50.3231 38.5408 50.2788 38.7625 50.2788C39.0138 50.2788 39.2504 50.3231 39.4574 50.4118C39.6791 50.5005 39.8565 50.6336 40.0191 50.8257C40.1817 51.0032 40.3 51.2397 40.4035 51.5206C40.4922 51.8015 40.5366 52.1267 40.5366 52.5259V52.6737H37.5207C37.5207 52.9102 37.5651 53.132 37.639 53.3094C37.7129 53.4868 37.8016 53.6494 37.9199 53.7677C38.0381 53.8859 38.1712 53.9894 38.319 54.0486C38.4816 54.1077 38.6443 54.152 38.8217 54.152C39.1321 54.152 39.3834 54.0929 39.5756 53.9746C39.7678 53.8564 39.9452 53.679 40.1078 53.4572L40.507 53.812C40.3148 54.0929 40.0635 54.3147 39.7826 54.4773C39.5017 54.6399 39.1617 54.7138 38.7625 54.7138ZM39.8713 52.1267C39.8417 51.7423 39.7382 51.4319 39.5608 51.2101C39.3834 50.9736 39.1025 50.8553 38.7477 50.8553C38.5999 50.8553 38.4669 50.8849 38.3338 50.9292C38.2007 50.9736 38.0825 51.0623 37.9642 51.1658C37.8607 51.2693 37.7572 51.4023 37.6833 51.5649C37.6094 51.7275 37.5651 51.9049 37.5355 52.1267H39.8713ZM42.8723 54.699C42.488 54.699 42.148 54.6251 41.8375 54.4921C41.5418 54.359 41.3053 54.1816 41.1279 53.9746L41.5418 53.5607C41.7044 53.7381 41.8966 53.8712 42.1036 53.9894C42.3254 54.0929 42.5767 54.152 42.8723 54.152C43.2124 54.152 43.4637 54.0929 43.6263 53.9894C43.8037 53.8712 43.8924 53.7085 43.8924 53.4868C43.8924 53.265 43.8037 53.1172 43.6115 53.0137C43.4341 52.9102 43.1532 52.8215 42.7836 52.7328C42.5619 52.6737 42.3549 52.6146 42.1627 52.5554C41.9706 52.4963 41.8079 52.4076 41.6749 52.3189C41.5418 52.2154 41.4383 52.0971 41.3644 51.9641C41.2905 51.831 41.2462 51.6536 41.2462 51.4467C41.2462 51.284 41.2757 51.1362 41.3496 50.9884C41.4236 50.8553 41.5123 50.7223 41.6453 50.6188C41.7784 50.5153 41.9262 50.4266 42.1184 50.3675C42.3106 50.3083 42.5175 50.264 42.7541 50.264C43.1237 50.264 43.4489 50.3231 43.7002 50.4266C43.9515 50.5301 44.1881 50.6779 44.3803 50.8701L44.0107 51.3284C43.8481 51.1806 43.6707 51.0623 43.4489 50.9588C43.2419 50.8553 43.0202 50.811 42.7689 50.811C42.4584 50.811 42.2367 50.8701 42.1036 50.9884C41.9705 51.1066 41.9114 51.2397 41.9114 51.3875C41.9114 51.5797 42.0001 51.7275 42.1627 51.831C42.3254 51.9197 42.5767 52.0084 42.9167 52.0823C43.1532 52.1415 43.375 52.2006 43.582 52.2745C43.7741 52.3337 43.9515 52.4224 44.0846 52.5259C44.2324 52.6293 44.3359 52.7476 44.4098 52.8954C44.4837 53.0433 44.5281 53.2207 44.5281 53.4424C44.5281 53.6494 44.4837 53.8268 44.395 53.9894C44.3063 54.152 44.1881 54.2703 44.0255 54.3886C43.8776 54.4921 43.7002 54.566 43.4785 54.6251C43.3454 54.6695 43.1237 54.699 42.8723 54.699ZM46.923 54.699C46.5387 54.699 46.1986 54.6251 45.8882 54.4921C45.5925 54.359 45.356 54.1816 45.1786 53.9746L45.5925 53.5607C45.7551 53.7381 45.9473 53.8712 46.1543 53.9894C46.376 54.0929 46.6274 54.152 46.923 54.152C47.2631 54.152 47.5144 54.0929 47.677 53.9894C47.8544 53.8712 47.9431 53.7085 47.9431 53.4868C47.9431 53.265 47.8544 53.1172 47.6622 53.0137C47.4848 52.9102 47.2039 52.8215 46.8343 52.7328C46.6126 52.6737 46.4056 52.6146 46.2134 52.5554C46.0212 52.4963 45.8586 52.4076 45.7256 52.3189C45.5925 52.2154 45.489 52.0971 45.4151 51.9641C45.3412 51.831 45.2968 51.6536 45.2968 51.4467C45.2968 51.284 45.3264 51.1362 45.4003 50.9884C45.4742 50.8553 45.5629 50.7223 45.696 50.6188C45.8291 50.5153 45.9769 50.4266 46.1691 50.3675C46.3613 50.3083 46.5682 50.264 46.8048 50.264C47.1744 50.264 47.4996 50.3231 47.7509 50.4266C48.0022 50.5301 48.2388 50.6779 48.431 50.8701L48.0614 51.3284C47.8987 51.1806 47.7213 51.0623 47.4996 50.9588C47.2926 50.8553 47.0709 50.811 46.8195 50.811C46.5091 50.811 46.2873 50.8701 46.1543 50.9884C46.0212 51.1066 45.9621 51.2397 45.9621 51.3875C45.9621 51.5797 46.0508 51.7275 46.2134 51.831C46.376 51.9197 46.6274 52.0084 46.9674 52.0823C47.2039 52.1415 47.4257 52.2006 47.6326 52.2745C47.8248 52.3337 48.0022 52.4224 48.1353 52.5259C48.2831 52.6293 48.3866 52.7476 48.4605 52.8954C48.5344 53.0433 48.5788 53.2207 48.5788 53.4424C48.5788 53.6494 48.5344 53.8268 48.4457 53.9894C48.357 54.152 48.2388 54.2703 48.0761 54.3886C47.9283 54.4921 47.7509 54.566 47.5292 54.6251C47.3961 54.6695 47.1744 54.699 46.923 54.699Z" fill="white"/>
<path d="M22.3526 52.585L18.7159 49.377C17.9471 48.7117 16.9714 48.3126 15.8774 48.3126C13.5268 48.3126 11.605 50.2196 11.605 52.5554C11.605 54.8912 13.5268 56.7983 15.8774 56.7983C16.9714 56.7983 17.9471 56.3844 18.7159 55.7339L22.3526 52.585ZM12.8911 52.585C12.8911 50.9588 14.2217 49.6135 15.8774 49.6135C17.5036 49.6135 18.8637 50.9292 18.8637 52.585C18.8637 54.2112 17.5332 55.5565 15.8774 55.5565C14.2512 55.5269 12.8911 54.2112 12.8911 52.585Z" fill="#E5173F"/>
<path d="M53.6939 54.699C53.2947 54.699 52.9547 54.6251 52.659 54.4625C52.3633 54.3147 52.1416 54.0634 51.979 53.7529C51.8164 53.4277 51.7424 53.0285 51.7424 52.5406C51.7424 52.0232 51.8311 51.6093 52.0085 51.284C52.1859 50.9588 52.4225 50.7223 52.7181 50.5597C53.0286 50.4118 53.3834 50.3231 53.7678 50.3231C54.0191 50.3231 54.2408 50.3527 54.4478 50.397C54.6548 50.4414 54.8322 50.5005 54.9652 50.5744L54.6991 51.284C54.5513 51.2249 54.3887 51.1658 54.2261 51.1214C54.0634 51.0771 53.9008 51.0623 53.753 51.0623C53.5017 51.0623 53.2947 51.1214 53.1321 51.2249C52.9695 51.3284 52.8512 51.491 52.7625 51.7128C52.6886 51.9345 52.6442 52.2006 52.6442 52.5111C52.6442 52.8215 52.6886 53.0876 52.7625 53.2946C52.8512 53.5016 52.9695 53.6642 53.1173 53.7677C53.2799 53.8712 53.4721 53.9303 53.7086 53.9303C53.9452 53.9303 54.1521 53.9007 54.3295 53.8416C54.507 53.7825 54.6844 53.7086 54.847 53.6198V54.4034C54.6844 54.4921 54.5217 54.566 54.3295 54.6103C54.1817 54.6695 53.96 54.699 53.6939 54.699ZM59.2968 52.4963C59.2968 52.8511 59.2525 53.1616 59.1638 53.4277C59.0751 53.6938 58.942 53.9303 58.7646 54.1225C58.5872 54.3147 58.3802 54.4477 58.1289 54.5512C57.8776 54.6547 57.6115 54.699 57.301 54.699C57.0054 54.699 56.7393 54.6547 56.5027 54.5512C56.2662 54.4477 56.0592 54.3147 55.867 54.1225C55.6896 53.9303 55.5566 53.7085 55.4531 53.4277C55.3496 53.1616 55.3053 52.8511 55.3053 52.4963C55.3053 52.038 55.3792 51.6389 55.5418 51.3136C55.7044 50.9884 55.941 50.7371 56.2366 50.5744C56.5323 50.397 56.8871 50.3231 57.301 50.3231C57.6854 50.3231 58.0254 50.4118 58.3359 50.5744C58.6316 50.7518 58.8681 50.9884 59.0307 51.3136C59.2081 51.6389 59.2968 52.038 59.2968 52.4963ZM56.2366 52.4963C56.2366 52.8068 56.2662 53.0729 56.3401 53.2798C56.414 53.5016 56.5323 53.6642 56.6949 53.7825C56.8575 53.9007 57.0497 53.9599 57.301 53.9599C57.5524 53.9599 57.7593 53.9007 57.9072 53.7825C58.0698 53.6642 58.1733 53.5016 58.2472 53.2798C58.3211 53.0581 58.3507 52.792 58.3507 52.4963C58.3507 52.2006 58.3211 51.9345 58.2472 51.7128C58.1733 51.491 58.055 51.3284 57.9072 51.2249C57.7445 51.1066 57.5524 51.0475 57.301 51.0475C56.9314 51.0475 56.6653 51.1658 56.4879 51.4171C56.3253 51.6832 56.2366 52.038 56.2366 52.4963ZM64.7667 50.3231C65.2398 50.3231 65.5946 50.4414 65.8311 50.6927C66.0677 50.9292 66.1859 51.3284 66.1859 51.8606V54.6251H65.2841V52.0232C65.2841 51.698 65.225 51.4615 65.092 51.2988C64.9737 51.1362 64.7815 51.0623 64.5302 51.0623C64.1754 51.0623 63.9241 51.1806 63.7614 51.4023C63.6136 51.6241 63.5249 51.9641 63.5249 52.3928V54.6251H62.6231V52.0232C62.6231 51.8163 62.5935 51.6389 62.5344 51.491C62.4753 51.3432 62.4014 51.2397 62.2831 51.1658C62.1648 51.0919 62.0318 51.0623 61.8544 51.0623C61.603 51.0623 61.4109 51.1214 61.263 51.2249C61.1152 51.3432 61.0117 51.5058 60.9526 51.7128C60.8934 51.9345 60.8639 52.2006 60.8639 52.5111V54.6103H59.9621V50.397H60.6569L60.79 50.9588H60.8343C60.923 50.811 61.0265 50.6927 61.1595 50.604C61.2926 50.5005 61.4256 50.4414 61.5883 50.397C61.7509 50.3527 61.9135 50.3231 62.0761 50.3231C62.3866 50.3231 62.6527 50.3823 62.8744 50.4857C63.0962 50.5892 63.244 50.7666 63.3623 50.9884H63.4362C63.5693 50.7666 63.7467 50.5892 63.9832 50.4857C64.2641 50.3823 64.5154 50.3231 64.7667 50.3231ZM69.3053 50.3231C69.8079 50.3231 70.2071 50.5005 70.5027 50.8701C70.8132 51.2397 70.961 51.7719 70.961 52.4963C70.961 52.9694 70.8871 53.3833 70.754 53.7085C70.621 54.0338 70.414 54.2851 70.1627 54.4477C69.9114 54.6103 69.6157 54.699 69.2757 54.699C69.0687 54.699 68.8765 54.6695 68.7139 54.6103C68.5513 54.5512 68.4182 54.4773 68.3148 54.3886C68.1965 54.2999 68.1078 54.1964 68.0339 54.0929H67.9747C67.9895 54.1964 68.0043 54.3147 68.0043 54.4329C68.0191 54.5512 68.0191 54.6695 68.0191 54.773V56.4879H67.1173V50.397H67.8417L67.9747 50.9736H68.0191C68.093 50.8553 68.1965 50.7371 68.3 50.6484C68.4182 50.5449 68.5513 50.471 68.7139 50.4118C68.8913 50.3527 69.0835 50.3231 69.3053 50.3231ZM69.0539 51.0475C68.8026 51.0475 68.6104 51.0919 68.4626 51.1953C68.3148 51.2988 68.2113 51.4319 68.1374 51.6389C68.0782 51.831 68.0339 52.0824 68.0339 52.378V52.5111C68.0339 52.8215 68.0634 53.0876 68.1226 53.3094C68.1817 53.5311 68.3 53.6938 68.4478 53.7972C68.5957 53.9155 68.8026 53.9599 69.0687 53.9599C69.2905 53.9599 69.4679 53.9007 69.6157 53.7825C69.7635 53.6642 69.867 53.4868 69.941 53.265C70.0149 53.0433 70.0444 52.7772 70.0444 52.4815C70.0444 52.0232 69.9705 51.6684 69.8079 51.4171C69.6453 51.1806 69.394 51.0475 69.0539 51.0475ZM73.3412 50.3231C73.8734 50.3231 74.2725 50.4414 74.5534 50.6779C74.8343 50.9145 74.9674 51.284 74.9674 51.7867V54.6251H74.3317L74.1543 54.0338H74.1247C74.0064 54.1816 73.8882 54.3147 73.7551 54.4034C73.622 54.5069 73.4742 54.5808 73.3116 54.6251C73.149 54.6695 72.942 54.699 72.7055 54.699C72.4541 54.699 72.2324 54.6547 72.0254 54.566C71.8332 54.4773 71.6706 54.3295 71.5524 54.1373C71.4341 53.9451 71.375 53.7085 71.375 53.4129C71.375 52.9842 71.5376 52.6589 71.8628 52.4372C72.188 52.2154 72.6759 52.0971 73.3264 52.0824L74.0508 52.0528V51.831C74.0508 51.5354 73.9769 51.3284 73.8438 51.2101C73.7108 51.0919 73.5186 51.0179 73.2672 51.0179C73.0603 51.0179 72.8533 51.0475 72.6611 51.1066C72.4689 51.1658 72.2767 51.2397 72.0846 51.3284L71.7889 50.6927C71.9959 50.5892 72.2324 50.5005 72.4837 50.4266C72.7794 50.3527 73.0603 50.3231 73.3412 50.3231ZM74.0656 52.5998L73.5186 52.6146C73.0751 52.6294 72.7646 52.7033 72.5724 52.8363C72.395 52.9694 72.3063 53.1616 72.3063 53.3981C72.3063 53.6051 72.3654 53.7529 72.4985 53.8564C72.6168 53.9451 72.7794 54.0042 72.9864 54.0042C73.2968 54.0042 73.5481 53.9155 73.7551 53.7381C73.9621 53.5607 74.0656 53.2946 74.0656 52.9546V52.5998ZM78.1015 50.3231C78.5745 50.3231 78.9441 50.4414 79.2102 50.6927C79.4763 50.9292 79.6094 51.3284 79.6094 51.8754V54.6251H78.7076V52.038C78.7076 51.7128 78.6337 51.4615 78.5006 51.2988C78.3676 51.1362 78.1606 51.0475 77.8797 51.0475C77.4658 51.0475 77.1849 51.1806 77.0223 51.4171C76.8596 51.6684 76.7857 52.038 76.7857 52.5111V54.6103H75.8839V50.397H76.5788L76.697 50.9736H76.7414C76.8301 50.8258 76.9483 50.7075 77.0814 50.6188C77.2144 50.5153 77.3771 50.4562 77.5397 50.397C77.7319 50.3379 77.9093 50.3231 78.1015 50.3231ZM79.905 50.397H80.8808L81.7382 52.8068C81.7826 52.9102 81.8121 53.0285 81.8417 53.132C81.8713 53.2355 81.9008 53.339 81.9304 53.4424C81.96 53.5459 81.9747 53.6494 81.9895 53.7529H82.0191C82.0487 53.6198 82.0782 53.472 82.1226 53.3094C82.1669 53.1468 82.2261 52.9842 82.2852 52.8215L83.1131 50.4118H84.074L82.2704 55.2017C82.1669 55.4826 82.0339 55.7043 81.886 55.8965C81.7382 56.0887 81.5608 56.2365 81.3538 56.34C81.1469 56.4435 80.9103 56.4879 80.6442 56.4879C80.5112 56.4879 80.4077 56.4731 80.319 56.4583C80.2303 56.4435 80.1416 56.4287 80.0825 56.4139V55.7043C80.1416 55.7191 80.2007 55.7339 80.2894 55.7339C80.3633 55.7487 80.452 55.7487 80.5407 55.7487C80.7034 55.7487 80.8364 55.7191 80.9547 55.66C81.0729 55.6008 81.1764 55.5121 81.2503 55.3939C81.3243 55.2756 81.3982 55.1426 81.4573 54.9947L81.6052 54.5956L79.905 50.397Z" fill="white"/>
<path d="M2.43935 50.3231C2.97156 50.3231 3.37072 50.4414 3.6516 50.6779C3.93249 50.9145 4.06554 51.284 4.06554 51.7867V54.6251H3.42985L3.25245 54.0338H3.22288C3.10461 54.1816 2.98634 54.3147 2.85329 54.4034C2.72024 54.5069 2.57241 54.5808 2.40979 54.6251C2.24717 54.6695 2.0402 54.699 1.80366 54.699C1.55234 54.699 1.33059 54.6547 1.12362 54.566C0.931434 54.4773 0.768815 54.3295 0.650547 54.1373C0.532279 53.9451 0.473145 53.7085 0.473145 53.4129C0.473145 52.9842 0.635763 52.6589 0.961001 52.4372C1.28624 52.2154 1.77409 52.0971 2.42457 52.0824L3.14896 52.0528V51.831C3.14896 51.5354 3.07505 51.3284 2.94199 51.2101C2.80894 51.0919 2.61676 51.0179 2.36544 51.0179C2.15847 51.0179 1.9515 51.0475 1.75931 51.1066C1.56713 51.1658 1.37494 51.2397 1.18275 51.3284L0.887083 50.6927C1.09405 50.5892 1.33059 50.5005 1.58191 50.4266C1.87758 50.3527 2.15847 50.3231 2.43935 50.3231ZM3.16375 52.5998L2.61676 52.6146C2.17325 52.6294 1.8628 52.7033 1.67061 52.8363C1.49321 52.9694 1.40451 53.1616 1.40451 53.3981C1.40451 53.6051 1.46364 53.7529 1.59669 53.8564C1.71496 53.9451 1.87758 54.0042 2.08455 54.0042C2.395 54.0042 2.64632 53.9155 2.85329 53.7381C3.06026 53.5607 3.16375 53.2946 3.16375 52.9546V52.5998ZM7.19965 50.3231C7.67272 50.3231 8.04231 50.4414 8.30841 50.6927C8.57452 50.9292 8.70757 51.3284 8.70757 51.8754V54.6251H7.80577V52.038C7.80577 51.7128 7.73186 51.4615 7.5988 51.2988C7.46575 51.1362 7.25878 51.0475 6.9779 51.0475C6.56396 51.0475 6.28307 51.1806 6.12045 51.4171C5.95783 51.6684 5.88392 52.038 5.88392 52.5111V54.6103H4.98212V50.397H5.67695L5.81 50.9736H5.85435C5.94305 50.8258 6.06132 50.7075 6.19437 50.6188C6.32742 50.5153 6.49004 50.4562 6.65266 50.397C6.83006 50.3379 7.00746 50.3231 7.19965 50.3231Z" fill="white"/>
<mask id="mask0_4690_277" style="mask-type:luminance" maskUnits="userSpaceOnUse" x="-1" y="0" width="141" height="40">
<path d="M139.926 0H-0.0739746V39.8268H139.926V0Z" fill="white"/>
</mask>
<g mask="url(#mask0_4690_277)">
<mask id="mask1_4690_277" style="mask-type:luminance" maskUnits="userSpaceOnUse" x="-1" y="0" width="141" height="40">
<path d="M139.926 0H-0.0739746V39.8268H139.926V0Z" fill="white"/>
</mask>
<g mask="url(#mask1_4690_277)">
<path d="M93.4465 10.2302H89.7802C89.4993 10.2302 89.2776 10.4667 89.2776 10.7328V14.5913C92.5595 13.0243 94.0083 11.2798 93.964 10.6885C93.9196 10.4224 93.6979 10.2302 93.4465 10.2302Z" fill="white"/>
</g>
<mask id="mask2_4690_277" style="mask-type:luminance" maskUnits="userSpaceOnUse" x="-1" y="0" width="141" height="40">
<path d="M139.926 0H-0.0739746V39.8268H139.926V0Z" fill="white"/>
</mask>
<g mask="url(#mask2_4690_277)">
<path d="M59.4445 13.0834C60.849 13.0834 62.6378 13.5121 63.7317 14.133C63.9683 14.2513 64.2492 14.3696 64.4709 14.3696C64.7075 14.3696 64.8701 14.1774 64.8701 13.8965V11.9599C64.8701 11.2503 64.5596 10.8659 62.9482 10.4372C61.6177 10.0528 60.095 9.84583 58.6462 9.84583C52.7476 9.84583 48.8447 13.9852 48.8447 20.1499C48.8447 26.3886 52.4371 30.0697 58.4836 30.0697C60.435 30.0697 62.5491 29.6853 64.19 28.9757C64.7666 28.7835 64.8553 28.3844 64.8553 27.9261V25.9303C64.8553 25.5755 64.7666 25.339 64.5005 25.339C64.3083 25.339 64.1013 25.4129 63.8352 25.5755C62.623 26.2703 60.7898 26.7434 59.1932 26.7434C55.4382 26.7434 53.5311 24.4372 53.5311 19.9578C53.5607 15.3896 55.5417 13.0834 59.4445 13.0834Z" fill="white"/>
</g>
<mask id="mask3_4690_277" style="mask-type:luminance" maskUnits="userSpaceOnUse" x="-1" y="0" width="141" height="40">
<path d="M139.926 0H-0.0739746V39.8268H139.926V0Z" fill="white"/>
</mask>
<g mask="url(#mask3_4690_277)">
<path d="M8.79605 28.7244C9.22477 29.227 11.9597 30.2619 21.5247 29.981C31.1044 29.7001 37.417 29.2418 41.5563 29.4636C45.6957 29.7001 44.4391 28.5322 44.2913 28.4435C44.2913 28.4435 43.0347 27.4678 41.5563 26.2999C40.0632 25.132 39.7823 25.2355 39.7823 23.6536C39.7823 22.0718 39.4571 17.8881 36.663 15.2418C35.2733 13.7635 35.5247 13.8965 35.4951 13.5269C35.4655 12.9356 32.8045 7.52481 21.3621 10.2745C13.7633 12.1077 12.6546 16.5575 12.5215 16.8828C12.3884 17.208 9.8309 19.1594 10.3779 26.9208C10.3779 26.9208 8.36733 28.2365 8.79605 28.7244Z" fill="white"/>
</g>
<mask id="mask4_4690_277" style="mask-type:luminance" maskUnits="userSpaceOnUse" x="-1" y="0" width="141" height="40">
<path d="M139.926 0H-0.0739746V39.8268H139.926V0Z" fill="white"/>
</mask>
<g mask="url(#mask4_4690_277)">
<path d="M76.3568 30.3358C79.3578 30.3358 81.2353 29.7149 82.9207 28.2365C84.9904 26.4034 85.9661 23.7867 85.9661 20.1499C85.9661 13.5565 82.6102 9.84583 76.6377 9.84583C73.474 9.84583 71.6704 10.3928 69.9259 11.9155C67.8562 13.7043 66.8362 16.3654 66.8362 20.076C66.8362 23.7867 67.8562 26.4329 69.8816 28.2365C71.5521 29.7445 73.3853 30.3358 76.3568 30.3358ZM76.4307 13.0834C79.4317 13.0834 81.2649 15.7297 81.2649 20.1499C81.2649 24.4815 79.4761 27.0539 76.4307 27.0539C73.3409 27.0539 71.5078 24.4372 71.5078 19.9873C71.5078 15.6558 73.3409 13.0834 76.4307 13.0834Z" fill="white"/>
</g>
<mask id="mask5_4690_277" style="mask-type:luminance" maskUnits="userSpaceOnUse" x="-1" y="0" width="141" height="40">
<path d="M139.926 0H-0.0739746V39.8268H139.926V0Z" fill="white"/>
</mask>
<g mask="url(#mask5_4690_277)">
<path d="M101.326 10.2302H98.207C97.9261 10.2302 97.7043 10.4667 97.7043 10.7328V29.2418C97.7043 29.5079 97.9409 29.7445 98.207 29.7445H101.873C102.139 29.7445 102.376 29.5079 102.376 29.2418V16.6019C102.376 14.6061 103.78 13.4826 106.279 13.4826C109.014 13.4826 110.182 14.7244 110.182 17.5776V29.2566C110.182 29.5227 110.418 29.7592 110.684 29.7592H114.351C114.617 29.7592 114.853 29.5227 114.853 29.2566V16.9124C114.853 12.3147 112.429 9.84583 107.949 9.84583C106.708 9.84583 105.732 10.0084 104.638 10.3928C104.327 10.5111 103.928 10.6737 103.47 10.8659C102.805 11.1024 102.657 11.132 101.992 11.132V10.7476C101.992 10.378 101.799 10.2302 101.326 10.2302Z" fill="white"/>
</g>
<mask id="mask6_4690_277" style="mask-type:luminance" maskUnits="userSpaceOnUse" x="-1" y="0" width="141" height="40">
<path d="M139.926 0H-0.0739746V39.8268H139.926V0Z" fill="white"/>
</mask>
<g mask="url(#mask6_4690_277)">
<path d="M89.2628 29.2418C89.2628 29.5079 89.4994 29.7445 89.7655 29.7445H93.4318C93.6979 29.7445 93.9344 29.5079 93.9344 29.2418V13.8226C91.643 15.4931 89.4254 16.0253 89.248 16.0697V29.2418H89.2628Z" fill="white"/>
</g>
<mask id="mask7_4690_277" style="mask-type:luminance" maskUnits="userSpaceOnUse" x="-1" y="0" width="141" height="40">
<path d="M139.926 0H-0.0739746V39.8268H139.926V0Z" fill="white"/>
</mask>
<g mask="url(#mask7_4690_277)">
<path d="M123.679 26.7434C121.934 26.7434 120.604 26.359 118.874 25.4129C118.638 25.2503 118.372 25.1763 118.165 25.1763C117.854 25.1763 117.736 25.3685 117.736 25.9155V28.0148C117.736 28.754 117.81 28.9166 118.638 29.1531C119.14 29.3009 119.569 29.4636 119.968 29.5375C121.21 29.8923 122.54 30.0549 123.797 30.0549C128.247 30.0549 131.011 27.8669 131.011 24.2745C131.011 22.0422 129.844 20.2091 127.582 18.849L123.753 16.4245C123.176 16.0697 122.821 15.4931 122.821 14.8279C122.821 13.7782 123.679 13.1425 125.157 13.1425C126.443 13.1425 128.439 13.6156 129.415 14.1626C129.74 14.3548 129.962 14.4287 130.154 14.4287C130.494 14.4287 130.627 14.1626 130.627 13.7782V11.8268C130.627 11.0876 130.346 10.8955 128.631 10.4667C127.256 10.1119 125.852 9.91974 124.61 9.91974C120.663 9.91974 118.135 12.1521 118.135 15.5818C118.135 16.7202 118.49 17.8437 119.066 18.6272C119.658 19.4108 120.441 20.0317 122.304 21.1996L124.181 22.3675C125.941 23.4171 126.325 23.8902 126.325 24.8659C126.325 26.1225 125.438 26.7434 123.679 26.7434Z" fill="white"/>
</g>
<mask id="mask8_4690_277" style="mask-type:luminance" maskUnits="userSpaceOnUse" x="-1" y="0" width="141" height="40">
<path d="M139.926 0H-0.0739746V39.8268H139.926V0Z" fill="white"/>
</mask>
<g mask="url(#mask8_4690_277)">
<path d="M139.837 -0.0591431H-0.118408V39.8712H139.837V-0.0591431Z" fill="#F47E44"/>
</g>
<mask id="mask9_4690_277" style="mask-type:luminance" maskUnits="userSpaceOnUse" x="-1" y="0" width="141" height="40">
<path d="M139.926 0H-0.0739746V39.8268H139.926V0Z" fill="white"/>
</mask>
<g mask="url(#mask9_4690_277)">
<path d="M59.0749 16.1436C58.5279 15.5818 57.9661 15.1236 57.3748 14.7835C56.7834 14.4435 56.1773 14.2809 55.5564 14.2809C54.699 14.2809 53.945 14.4287 53.265 14.7392C52.5997 15.0496 52.0231 15.4636 51.5353 15.981C51.0622 16.4984 50.6926 17.0898 50.4561 17.7698C50.2048 18.4351 50.0865 19.1447 50.0865 19.8691C50.0865 20.5935 50.2048 21.2883 50.4561 21.9683C50.7074 22.6336 51.0622 23.2397 51.5353 23.7571C52.0084 24.2746 52.5849 24.6885 53.265 24.999C53.9302 25.3094 54.699 25.4572 55.5564 25.4572C56.2808 25.4572 56.9461 25.3094 57.567 25.0137C58.1879 24.7181 58.7201 24.2893 59.1488 23.7128L62.2533 27.0391C61.7951 27.4974 61.2481 27.9113 60.6419 28.2365C60.0358 28.5766 59.4149 28.8427 58.8088 29.0496C58.2027 29.2566 57.5965 29.4044 57.02 29.4931C56.4582 29.5818 55.9556 29.6262 55.5416 29.6262C54.152 29.6262 52.8362 29.3897 51.5944 28.9314C50.3526 28.4731 49.2882 27.8078 48.3716 26.9504C47.4698 26.0929 46.7454 25.0729 46.228 23.8754C45.6958 22.6779 45.4297 21.3326 45.4297 19.8691C45.4297 18.4055 45.6958 17.0602 46.228 15.8627C46.7602 14.6653 47.4698 13.6304 48.3716 12.7878C49.2734 11.9303 50.3526 11.2798 51.5944 10.8068C52.8362 10.3485 54.152 10.1119 55.5416 10.1119C56.7243 10.1119 57.9218 10.3337 59.1192 10.792C60.3167 11.2503 61.3663 11.9599 62.2829 12.9356L59.0749 16.1436Z" fill="white"/>
</g>
<mask id="mask10_4690_277" style="mask-type:luminance" maskUnits="userSpaceOnUse" x="-1" y="0" width="141" height="40">
<path d="M139.926 0H-0.0739746V39.8268H139.926V0Z" fill="white"/>
</mask>
<g mask="url(#mask10_4690_277)">
<path d="M62.8447 19.8691C62.8447 18.3907 63.1108 17.0602 63.643 15.8627C64.1752 14.6653 64.8849 13.6304 65.7866 12.7878C66.6884 11.9303 67.7676 11.2798 69.0095 10.8068C70.2513 10.3485 71.567 10.1119 72.9567 10.1119C74.3463 10.1119 75.662 10.3485 76.9039 10.8068C78.1457 11.2651 79.2101 11.9303 80.1119 12.7878C81.0137 13.6452 81.7381 14.6653 82.2555 15.8627C82.7877 17.0602 83.0538 18.4055 83.0538 19.8691C83.0538 21.3326 82.7877 22.6779 82.2555 23.8754C81.7233 25.0729 81.0137 26.1077 80.1119 26.9504C79.2101 27.8078 78.1309 28.4583 76.9039 28.9314C75.662 29.3897 74.3463 29.6262 72.9567 29.6262C71.567 29.6262 70.2513 29.3897 69.0095 28.9314C67.7676 28.4731 66.7032 27.8078 65.7866 26.9504C64.8849 26.0929 64.1605 25.0729 63.643 23.8754C63.096 22.6779 62.8447 21.3326 62.8447 19.8691ZM67.4868 19.8691C67.4868 20.5935 67.605 21.2883 67.8563 21.9683C68.1077 22.6336 68.4625 23.2397 68.9355 23.7571C69.4086 24.2746 69.9852 24.6885 70.6652 24.999C71.3305 25.3094 72.0992 25.4572 72.9567 25.4572C73.8141 25.4572 74.5681 25.3094 75.2481 24.999C75.9134 24.6885 76.4899 24.2746 76.9778 23.7571C77.4509 23.2397 77.8204 22.6484 78.057 21.9683C78.3083 21.3031 78.4266 20.5935 78.4266 19.8691C78.4266 19.1447 78.3083 18.4498 78.057 17.7698C77.8057 17.1045 77.4509 16.4984 76.9778 15.981C76.5047 15.4636 75.9281 15.0496 75.2481 14.7392C74.5828 14.4287 73.8141 14.2809 72.9567 14.2809C72.0992 14.2809 71.3453 14.4287 70.6652 14.7392C70 15.0496 69.4234 15.4636 68.9355 15.981C68.4625 16.4984 68.0929 17.0898 67.8563 17.7698C67.605 18.4498 67.4868 19.1447 67.4868 19.8691Z" fill="white"/>
</g>
<mask id="mask11_4690_277" style="mask-type:luminance" maskUnits="userSpaceOnUse" x="-1" y="0" width="141" height="40">
<path d="M139.926 0H-0.0739746V39.8268H139.926V0Z" fill="white"/>
</mask>
<g mask="url(#mask11_4690_277)">
<path d="M94.9102 10.5702H99.3304V13.5565H99.4044C99.8479 12.6251 100.513 11.8268 101.415 11.132C102.317 10.452 103.544 10.1119 105.096 10.1119C106.338 10.1119 107.387 10.3189 108.26 10.7328C109.132 11.1468 109.827 11.6938 110.374 12.359C110.921 13.0243 111.305 13.8078 111.542 14.68C111.778 15.5523 111.896 16.4689 111.896 17.4298V29.1679H107.254V19.7508C107.254 19.2334 107.225 18.6568 107.18 18.0211C107.121 17.3854 106.988 16.7941 106.767 16.2323C106.545 15.6705 106.205 15.2123 105.746 14.8427C105.288 14.4731 104.653 14.2809 103.854 14.2809C103.085 14.2809 102.42 14.4139 101.903 14.6653C101.371 14.9166 100.927 15.2714 100.587 15.7149C100.232 16.1584 99.9809 16.661 99.8331 17.2228C99.6852 17.7846 99.5965 18.3907 99.5965 19.0116V29.1679H94.9102V10.5702Z" fill="white"/>
</g>
<mask id="mask12_4690_277" style="mask-type:luminance" maskUnits="userSpaceOnUse" x="-1" y="0" width="141" height="40">
<path d="M139.926 0H-0.0739746V39.8268H139.926V0Z" fill="white"/>
</mask>
<g mask="url(#mask12_4690_277)">
<path d="M125.793 15.7149C124.891 14.4435 123.679 13.8226 122.156 13.8226C121.535 13.8226 120.929 13.9704 120.338 14.2809C119.747 14.5914 119.451 15.094 119.451 15.7888C119.451 16.3506 119.702 16.7645 120.19 17.0306C120.678 17.282 121.299 17.5037 122.053 17.6959C122.807 17.8733 123.605 18.0655 124.477 18.2577C125.35 18.4499 126.148 18.7455 126.902 19.1447C127.656 19.5438 128.277 20.0908 128.764 20.7857C129.252 21.4805 129.504 22.4414 129.504 23.6537C129.504 24.7624 129.267 25.6938 128.794 26.4625C128.321 27.2313 127.7 27.8374 126.931 28.2957C126.163 28.754 125.305 29.094 124.359 29.301C123.398 29.5079 122.452 29.6114 121.491 29.6114C120.042 29.6114 118.712 29.4044 117.499 28.9905C116.287 28.5766 115.193 27.8226 114.247 26.7434L117.352 23.8311C117.943 24.4963 118.579 25.0581 119.273 25.472C119.954 25.9008 120.796 26.1077 121.772 26.1077C122.112 26.1077 122.452 26.0634 122.822 25.9895C123.176 25.9155 123.516 25.7825 123.827 25.6051C124.137 25.4277 124.389 25.1911 124.581 24.925C124.773 24.6589 124.876 24.3337 124.876 23.9789C124.876 23.3284 124.625 22.8553 124.137 22.5449C123.649 22.2344 123.028 21.9831 122.275 21.7909C121.521 21.5987 120.722 21.4213 119.85 21.2439C118.978 21.0813 118.179 20.8004 117.426 20.4308C116.672 20.0613 116.051 19.5291 115.563 18.8638C115.075 18.1985 114.824 17.2672 114.824 16.0697C114.824 15.0349 115.031 14.1331 115.459 13.3791C115.888 12.6104 116.45 11.9895 117.145 11.5016C117.839 11.0137 118.638 10.6442 119.54 10.4224C120.441 10.1859 121.358 10.0676 122.289 10.0676C123.531 10.0676 124.758 10.2746 125.97 10.7033C127.183 11.132 128.158 11.8564 128.912 12.8912L125.793 15.7149Z" fill="white"/>
</g>
<mask id="mask13_4690_277" style="mask-type:luminance" maskUnits="userSpaceOnUse" x="-1" y="0" width="141" height="40">
<path d="M139.926 0H-0.0739746V39.8268H139.926V0Z" fill="white"/>
</mask>
<g mask="url(#mask13_4690_277)">
<path d="M88.8637 16.3358C87.8288 16.8384 86.8827 17.0602 86.2026 17.1637V29.1679H90.8447V14.9905C90.1646 15.5966 89.4846 16.0254 88.8637 16.3358Z" fill="white"/>
</g>
<mask id="mask14_4690_277" style="mask-type:luminance" maskUnits="userSpaceOnUse" x="-1" y="0" width="141" height="40">
<path d="M139.926 0H-0.0739746V39.8268H139.926V0Z" fill="white"/>
</mask>
<g mask="url(#mask14_4690_277)">
<path d="M10.2892 28.5026C10.6884 28.9609 13.2164 29.9218 22.1013 29.6705C30.9862 29.4192 36.8404 28.9757 40.6841 29.1975C44.5131 29.4192 43.36 28.34 43.2269 28.2513C43.2269 28.2513 42.059 27.3495 40.6841 26.2703C39.3093 25.1911 39.0432 25.2798 39.0432 23.8163C39.0432 22.3527 38.7475 18.4646 36.1604 16.0105C34.8742 14.6357 35.096 14.7687 35.0812 14.4139C35.0516 13.8669 32.5976 8.85532 21.983 11.3981C14.9017 13.0982 13.8816 17.2228 13.7486 17.5185C13.6155 17.8141 11.2501 19.6325 11.7676 26.8321C11.7528 26.8173 9.89006 28.0296 10.2892 28.5026Z" fill="white"/>
</g>
<mask id="mask15_4690_277" style="mask-type:luminance" maskUnits="userSpaceOnUse" x="-1" y="0" width="141" height="40">
<path d="M139.926 0H-0.0739746V39.8268H139.926V0Z" fill="white"/>
</mask>
<g mask="url(#mask15_4690_277)">
<path d="M86.2026 14.4287C86.2026 14.4287 87.474 14.4287 89.0559 13.246C90.6377 12.0634 91.0369 10.5702 91.0369 10.5702H86.2174V14.4287H86.2026Z" fill="white"/>
</g>
</g>
</g>
<defs>
<clipPath id="clip0_4690_277">
<rect width="140" height="57" fill="white"/>
</clipPath>
</defs>
</svg>
