<svg width="492" height="200" viewBox="0 0 492 200" fill="none" xmlns="http://www.w3.org/2000/svg">
<g clip-path="url(#clip0_12349_37829)">
<path d="M325.747 39.2153H313.294C312.36 39.2153 311.582 39.9934 311.582 40.927V53.9988C322.738 48.656 327.667 42.7944 327.459 40.7196C327.356 39.8896 326.629 39.2153 325.747 39.2153Z" fill="white"/>
<path d="M210.247 48.9153C215.02 48.9153 221.091 50.3677 224.827 52.4945C225.605 52.9095 226.591 53.2726 227.369 53.2726C228.148 53.2726 228.718 52.5982 228.718 51.6645V45.0768C228.718 42.6907 227.629 41.342 222.232 39.8896C217.718 38.5409 212.581 37.9185 207.652 37.9185C187.624 37.9185 174.393 51.9758 174.393 72.9321C174.393 93.8365 186.586 106.597 207.133 106.597C213.775 106.597 220.935 105.248 226.487 102.862C228.459 102.188 228.77 100.839 228.77 99.2831V92.5397C228.77 91.3466 228.459 90.5686 227.577 90.5686C226.902 90.5686 226.228 90.8279 225.294 91.3466C221.195 93.7328 214.968 95.2889 209.52 95.2889C196.808 95.2889 190.27 87.4562 190.27 72.2059C190.27 56.9555 197.015 48.9153 210.247 48.9153Z" fill="white"/>
<path d="M38.1891 102.084C39.6419 103.796 48.9297 107.271 81.4629 106.338C113.996 105.404 135.477 103.796 149.539 104.574C163.6 105.352 159.345 101.41 158.827 101.099C158.827 101.099 154.572 97.7787 149.539 93.8365C144.506 89.8942 143.52 90.2054 143.52 84.8626C143.52 79.4679 142.43 65.3069 132.935 56.2811C128.213 51.2495 129.043 51.7164 128.991 50.4196C128.888 48.3966 119.859 30.0339 80.9959 39.3708C55.0524 45.5955 51.3165 60.6902 50.8496 61.7796C50.3826 62.8689 41.7174 69.5085 43.5854 95.8595C43.5854 95.9114 36.7363 100.372 38.1891 102.084Z" fill="white"/>
<path d="M267.685 107.479C277.907 107.479 284.237 105.352 289.945 100.32C296.949 94.0959 300.27 85.2257 300.27 72.8802C300.27 50.4715 288.855 37.8666 268.619 37.8666C257.878 37.8666 251.756 39.734 245.789 44.9212C238.784 50.9902 235.308 60.0159 235.308 72.6208C235.308 85.2257 238.784 94.1996 245.633 100.32C251.393 105.508 257.619 107.479 267.685 107.479ZM267.945 48.9153C278.166 48.9153 284.393 57.9411 284.393 72.8802C284.393 87.8193 278.322 96.3263 267.945 96.3263C257.619 96.3263 251.237 87.4562 251.237 72.3615C251.237 57.2667 257.463 48.9153 267.945 48.9153Z" fill="white"/>
<path d="M352.521 39.2152H341.936C341.002 39.2152 340.224 39.9933 340.224 40.927V103.744C340.224 104.678 341.002 105.456 341.936 105.456H354.389C355.323 105.456 356.101 104.678 356.101 103.744V60.794C356.101 54.0506 360.875 50.2121 369.332 50.2121C378.62 50.2121 382.615 54.4656 382.615 64.1138V103.744C382.615 104.678 383.394 105.456 384.328 105.456H396.781C397.715 105.456 398.493 104.678 398.493 103.744V61.8315C398.493 46.218 390.295 37.8666 375.04 37.8666C370.785 37.8666 367.464 38.3853 363.78 39.734C362.743 40.1489 361.394 40.6677 359.785 41.342C357.502 42.1201 356.983 42.2757 354.752 42.2757V40.9789C354.804 39.734 354.129 39.2152 352.521 39.2152Z" fill="white"/>
<path d="M311.582 103.796C311.582 104.73 312.36 105.508 313.294 105.508H325.747C326.681 105.508 327.459 104.73 327.459 103.796V51.457C319.676 57.163 312.152 58.9785 311.53 59.0822V103.796H311.582Z" fill="white"/>
<path d="M428.431 95.2889C422.464 95.2889 417.95 93.9402 412.139 90.776C411.361 90.2573 410.427 89.998 409.752 89.998C408.714 89.998 408.299 90.6723 408.299 92.5397V99.698C408.299 102.24 408.559 102.758 411.361 103.537C413.073 104.055 414.526 104.574 415.875 104.833C420.13 106.026 424.644 106.597 428.847 106.597C443.946 106.597 453.389 99.1793 453.389 86.9894C453.389 79.4161 449.394 73.1914 441.715 68.5748L428.691 60.379C426.719 59.186 425.526 57.2148 425.526 54.9325C425.526 51.3533 428.432 49.2265 433.465 49.2265C437.823 49.2265 444.62 50.8346 447.889 52.6501C448.979 53.2726 449.757 53.5319 450.432 53.5319C451.573 53.5319 452.04 52.6501 452.04 51.3533V44.6618C452.04 42.1201 451.106 41.4976 445.295 40.0452C440.625 38.8521 435.851 38.1778 431.648 38.1778C418.262 38.1778 409.648 45.7511 409.648 57.4223C409.648 61.2608 410.842 65.0994 412.813 67.7449C414.785 70.3903 417.483 72.5171 423.814 76.5112L430.196 80.5054C436.163 84.0845 437.512 85.6926 437.512 89.0124C437.46 93.1621 434.399 95.2889 428.431 95.2889Z" fill="white"/>
<path d="M87.8967 191.875C86.5995 191.875 85.5618 191.563 84.8354 190.889C84.0571 190.215 83.6938 189.281 83.6938 188.088C83.6938 187.31 83.8495 186.636 84.2127 186.013C84.5759 185.391 85.1467 184.768 85.925 184.249C86.7033 183.731 87.741 183.264 88.9863 182.849C90.2835 182.434 91.8401 182.123 93.7081 181.863V181.189C93.7081 179.322 92.7741 178.44 90.8543 178.44C89.7127 178.44 88.7269 178.647 87.8448 179.114C86.9627 179.529 86.1844 180.1 85.458 180.722L84.1608 179.218C85.0429 178.44 86.0288 177.765 87.1703 177.247C88.3118 176.728 89.609 176.469 91.1137 176.469C91.9958 176.469 92.7741 176.572 93.3967 176.832C94.0194 177.039 94.5382 177.402 94.9533 177.817C95.3684 178.232 95.6279 178.751 95.8354 179.373C96.043 179.996 96.0949 180.67 96.0949 181.448V188.036C96.0949 188.918 96.1467 189.696 96.1986 190.267C96.2505 190.837 96.4062 191.356 96.5618 191.719H94.0713C93.9675 191.408 93.9156 191.097 93.8118 190.785C93.7599 190.474 93.7081 190.111 93.7081 189.644C92.0477 191.097 90.1278 191.875 87.8967 191.875ZM88.6231 189.955C89.609 189.955 90.5429 189.748 91.3731 189.385C92.2033 188.97 92.9816 188.451 93.7081 187.777V183.575C92.3071 183.783 91.1137 184.042 90.1278 184.353C89.142 184.613 88.3637 184.976 87.7929 185.339C87.2222 185.702 86.8071 186.065 86.4957 186.48C86.2363 186.895 86.1325 187.31 86.1325 187.777C86.1325 188.503 86.3401 189.022 86.8071 189.437C87.1703 189.748 87.7929 189.955 88.6231 189.955ZM106.057 191.978C105.175 191.978 104.345 191.823 103.515 191.512C102.736 191.148 102.01 190.682 101.387 190.059C100.765 189.385 100.298 188.607 99.9345 187.621C99.5713 186.636 99.4156 185.494 99.4156 184.249C99.4156 182.901 99.6232 181.708 99.9864 180.722C100.401 179.737 100.92 178.958 101.543 178.336C102.218 177.714 102.944 177.247 103.774 176.935C104.604 176.624 105.435 176.469 106.265 176.469C107.095 176.469 107.873 176.572 108.496 176.832C109.119 177.039 109.689 177.35 110.156 177.765C110.623 178.129 111.038 178.595 111.35 179.114C111.661 179.633 111.92 180.152 112.18 180.722L110.104 181.552C109.741 180.567 109.222 179.84 108.652 179.322C108.029 178.803 107.251 178.543 106.265 178.543C105.694 178.543 105.175 178.647 104.656 178.855C104.137 179.062 103.67 179.373 103.255 179.84C102.84 180.307 102.529 180.878 102.269 181.604C102.01 182.33 101.906 183.212 101.906 184.249C101.906 186.117 102.321 187.517 103.1 188.503C103.878 189.488 104.916 189.955 106.161 189.955C107.147 189.955 107.925 189.748 108.496 189.281C109.119 188.814 109.689 188.036 110.156 186.947L112.18 187.725C111.92 188.347 111.557 188.918 111.194 189.437C110.831 189.955 110.364 190.37 109.897 190.785C109.43 191.148 108.859 191.46 108.236 191.667C107.562 191.875 106.835 191.978 106.057 191.978ZM121.001 191.978C120.119 191.978 119.288 191.823 118.458 191.512C117.68 191.148 116.953 190.682 116.331 190.059C115.708 189.385 115.241 188.607 114.878 187.621C114.515 186.636 114.359 185.494 114.359 184.249C114.359 182.901 114.567 181.708 114.93 180.722C115.345 179.737 115.864 178.958 116.486 178.336C117.161 177.714 117.887 177.247 118.718 176.935C119.548 176.624 120.378 176.469 121.208 176.469C122.038 176.469 122.817 176.572 123.439 176.832C124.062 177.039 124.633 177.35 125.1 177.765C125.567 178.129 125.982 178.595 126.293 179.114C126.604 179.633 126.864 180.152 127.123 180.722L125.048 181.552C124.685 180.567 124.166 179.84 123.595 179.322C122.972 178.803 122.194 178.543 121.208 178.543C120.637 178.543 120.119 178.647 119.6 178.855C119.081 179.062 118.614 179.373 118.199 179.84C117.784 180.307 117.472 180.878 117.213 181.604C116.953 182.33 116.85 183.212 116.85 184.249C116.85 186.117 117.265 187.517 118.043 188.503C118.821 189.488 119.859 189.955 121.104 189.955C122.09 189.955 122.869 189.748 123.439 189.281C124.062 188.814 124.633 188.036 125.1 186.947L127.123 187.725C126.864 188.347 126.501 188.918 126.137 189.437C125.774 189.955 125.307 190.37 124.84 190.785C124.373 191.148 123.803 191.46 123.18 191.667C122.505 191.875 121.779 191.978 121.001 191.978ZM136.048 191.978C135.166 191.978 134.336 191.823 133.505 191.512C132.675 191.2 132.001 190.733 131.378 190.059C130.755 189.385 130.237 188.607 129.873 187.621C129.51 186.636 129.303 185.494 129.303 184.198C129.303 182.849 129.51 181.656 129.873 180.67C130.288 179.685 130.807 178.907 131.482 178.284C132.156 177.662 132.883 177.195 133.661 176.884C134.491 176.572 135.27 176.417 136.048 176.417C136.93 176.417 137.76 176.572 138.487 176.884C139.265 177.195 139.888 177.662 140.458 178.336C141.029 178.958 141.444 179.788 141.807 180.774C142.119 181.76 142.274 182.901 142.274 184.301V184.82H131.689C131.689 185.65 131.845 186.428 132.104 187.051C132.364 187.673 132.675 188.244 133.09 188.659C133.505 189.074 133.972 189.437 134.491 189.644C135.062 189.852 135.633 190.007 136.255 190.007C137.345 190.007 138.227 189.8 138.902 189.385C139.576 188.97 140.199 188.347 140.77 187.569L142.171 188.814C141.496 189.8 140.614 190.578 139.628 191.148C138.642 191.719 137.449 191.978 136.048 191.978ZM139.939 182.901C139.836 181.552 139.472 180.463 138.85 179.685C138.227 178.855 137.241 178.44 135.996 178.44C135.477 178.44 135.01 178.543 134.543 178.699C134.076 178.855 133.661 179.166 133.246 179.529C132.883 179.892 132.52 180.359 132.26 180.93C132.001 181.5 131.845 182.123 131.741 182.901H139.939ZM150.473 191.926C149.123 191.926 147.93 191.667 146.84 191.2C145.803 190.733 144.972 190.111 144.35 189.385L145.803 187.932C146.373 188.555 147.048 189.022 147.774 189.437C148.553 189.8 149.435 190.007 150.473 190.007C151.666 190.007 152.548 189.8 153.119 189.437C153.741 189.022 154.053 188.451 154.053 187.673C154.053 186.895 153.741 186.376 153.067 186.013C152.444 185.65 151.458 185.339 150.161 185.028C149.383 184.82 148.656 184.613 147.982 184.405C147.307 184.198 146.737 183.886 146.27 183.575C145.803 183.212 145.439 182.797 145.18 182.33C144.921 181.863 144.765 181.241 144.765 180.515C144.765 179.944 144.869 179.425 145.128 178.907C145.388 178.44 145.699 177.973 146.166 177.61C146.633 177.247 147.152 176.935 147.826 176.728C148.501 176.52 149.227 176.365 150.057 176.365C151.355 176.365 152.496 176.572 153.378 176.935C154.26 177.299 155.09 177.817 155.765 178.492L154.468 180.1C153.897 179.581 153.274 179.166 152.496 178.803C151.77 178.44 150.991 178.284 150.109 178.284C149.02 178.284 148.241 178.492 147.774 178.907C147.307 179.322 147.1 179.788 147.1 180.307C147.1 180.981 147.411 181.5 147.982 181.863C148.553 182.175 149.435 182.486 150.628 182.745C151.458 182.953 152.237 183.16 152.963 183.419C153.638 183.627 154.26 183.938 154.727 184.301C155.246 184.664 155.609 185.079 155.869 185.598C156.128 186.117 156.284 186.739 156.284 187.517C156.284 188.244 156.128 188.866 155.817 189.437C155.506 190.007 155.09 190.422 154.52 190.837C154.001 191.2 153.378 191.46 152.6 191.667C152.133 191.823 151.355 191.926 150.473 191.926ZM164.69 191.926C163.34 191.926 162.147 191.667 161.057 191.2C160.02 190.733 159.19 190.111 158.567 189.385L160.02 187.932C160.59 188.555 161.265 189.022 161.991 189.437C162.77 189.8 163.652 190.007 164.69 190.007C165.883 190.007 166.765 189.8 167.336 189.437C167.958 189.022 168.27 188.451 168.27 187.673C168.27 186.895 167.958 186.376 167.284 186.013C166.661 185.65 165.675 185.339 164.378 185.028C163.6 184.82 162.874 184.613 162.199 184.405C161.524 184.198 160.954 183.886 160.487 183.575C160.02 183.212 159.657 182.797 159.397 182.33C159.138 181.863 158.982 181.241 158.982 180.515C158.982 179.944 159.086 179.425 159.345 178.907C159.605 178.44 159.916 177.973 160.383 177.61C160.85 177.247 161.369 176.935 162.043 176.728C162.718 176.52 163.444 176.365 164.274 176.365C165.572 176.365 166.713 176.572 167.595 176.935C168.477 177.299 169.308 177.817 169.982 178.492L168.685 180.1C168.114 179.581 167.491 179.166 166.713 178.803C165.987 178.44 165.208 178.284 164.326 178.284C163.237 178.284 162.458 178.492 161.991 178.907C161.524 179.322 161.317 179.788 161.317 180.307C161.317 180.981 161.628 181.5 162.199 181.863C162.77 182.175 163.652 182.486 164.845 182.745C165.675 182.953 166.454 183.16 167.18 183.419C167.855 183.627 168.477 183.938 168.944 184.301C169.463 184.664 169.826 185.079 170.086 185.598C170.345 186.117 170.501 186.739 170.501 187.517C170.501 188.244 170.345 188.866 170.034 189.437C169.723 190.007 169.308 190.422 168.737 190.837C168.218 191.2 167.595 191.46 166.817 191.667C166.35 191.823 165.572 191.926 164.69 191.926Z" fill="#666666"/>
<path d="M78.4533 184.509L65.6891 173.253C62.991 170.918 59.5665 169.518 55.7268 169.518C47.4768 169.518 40.7314 176.209 40.7314 184.405C40.7314 192.601 47.4768 199.292 55.7268 199.292C59.5665 199.292 62.991 197.84 65.6891 195.558L78.4533 184.509ZM45.2456 184.509C45.2456 178.803 49.9155 174.083 55.7268 174.083C61.4344 174.083 66.208 178.699 66.208 184.509C66.208 190.215 61.5382 194.935 55.7268 194.935C50.0192 194.831 45.2456 190.215 45.2456 184.509Z" fill="#E5173F"/>
<path d="M188.454 191.927C187.053 191.927 185.859 191.667 184.821 191.097C183.784 190.578 183.005 189.696 182.435 188.607C181.864 187.466 181.604 186.065 181.604 184.353C181.604 182.538 181.916 181.085 182.538 179.944C183.161 178.803 183.991 177.973 185.029 177.402C186.119 176.884 187.364 176.572 188.713 176.572C189.595 176.572 190.373 176.676 191.1 176.832C191.826 176.987 192.449 177.195 192.916 177.454L191.982 179.944C191.463 179.737 190.892 179.529 190.322 179.373C189.751 179.218 189.18 179.166 188.661 179.166C187.779 179.166 187.053 179.373 186.482 179.737C185.911 180.1 185.496 180.67 185.185 181.448C184.925 182.226 184.77 183.16 184.77 184.249C184.77 185.339 184.925 186.272 185.185 186.999C185.496 187.725 185.911 188.295 186.43 188.659C187.001 189.022 187.675 189.229 188.505 189.229C189.336 189.229 190.062 189.125 190.685 188.918C191.307 188.71 191.93 188.451 192.501 188.14V190.889C191.93 191.2 191.359 191.46 190.685 191.615C190.166 191.823 189.388 191.927 188.454 191.927ZM208.119 184.198C208.119 185.443 207.963 186.532 207.652 187.466C207.34 188.399 206.873 189.229 206.251 189.904C205.628 190.578 204.902 191.045 204.02 191.408C203.138 191.771 202.204 191.927 201.114 191.927C200.076 191.927 199.142 191.771 198.312 191.408C197.482 191.045 196.756 190.578 196.081 189.904C195.458 189.229 194.991 188.451 194.628 187.466C194.265 186.532 194.109 185.443 194.109 184.198C194.109 182.59 194.369 181.189 194.939 180.048C195.51 178.907 196.34 178.025 197.378 177.454C198.416 176.832 199.661 176.572 201.114 176.572C202.463 176.572 203.656 176.884 204.746 177.454C205.784 178.077 206.614 178.907 207.185 180.048C207.807 181.189 208.119 182.59 208.119 184.198ZM197.378 184.198C197.378 185.287 197.482 186.221 197.741 186.947C198.001 187.725 198.416 188.295 198.987 188.71C199.557 189.125 200.232 189.333 201.114 189.333C201.996 189.333 202.723 189.125 203.241 188.71C203.812 188.295 204.175 187.725 204.435 186.947C204.694 186.169 204.798 185.235 204.798 184.198C204.798 183.16 204.694 182.226 204.435 181.448C204.175 180.67 203.76 180.1 203.241 179.737C202.671 179.322 201.996 179.114 201.114 179.114C199.817 179.114 198.883 179.529 198.26 180.411C197.689 181.345 197.378 182.59 197.378 184.198ZM227.317 176.572C228.977 176.572 230.223 176.987 231.053 177.869C231.883 178.699 232.298 180.1 232.298 181.967V191.667H229.133V182.538C229.133 181.396 228.925 180.567 228.459 179.996C228.043 179.425 227.369 179.166 226.487 179.166C225.242 179.166 224.359 179.581 223.789 180.359C223.27 181.137 222.958 182.33 222.958 183.834V191.667H219.793V182.538C219.793 181.811 219.69 181.189 219.482 180.67C219.275 180.152 219.015 179.788 218.6 179.529C218.185 179.27 217.718 179.166 217.095 179.166C216.213 179.166 215.539 179.373 215.02 179.737C214.501 180.152 214.138 180.722 213.93 181.448C213.723 182.226 213.619 183.16 213.619 184.249V191.615H210.454V176.832H212.892L213.359 178.803H213.515C213.826 178.284 214.19 177.869 214.657 177.558C215.124 177.195 215.591 176.987 216.161 176.832C216.732 176.676 217.303 176.572 217.874 176.572C218.963 176.572 219.897 176.78 220.675 177.143C221.454 177.506 221.973 178.129 222.388 178.907H222.647C223.114 178.129 223.737 177.506 224.567 177.143C225.553 176.78 226.435 176.572 227.317 176.572ZM243.246 176.572C245.01 176.572 246.411 177.195 247.449 178.492C248.539 179.788 249.058 181.656 249.058 184.198C249.058 185.857 248.798 187.31 248.331 188.451C247.864 189.592 247.138 190.474 246.256 191.045C245.374 191.615 244.336 191.927 243.143 191.927C242.416 191.927 241.742 191.823 241.171 191.615C240.6 191.408 240.133 191.148 239.77 190.837C239.355 190.526 239.043 190.163 238.784 189.8H238.576C238.628 190.163 238.68 190.578 238.68 190.993C238.732 191.408 238.732 191.823 238.732 192.186V198.203H235.567V176.832H238.11L238.576 178.855H238.732C238.992 178.44 239.355 178.025 239.718 177.714C240.133 177.35 240.6 177.091 241.171 176.884C241.793 176.676 242.468 176.572 243.246 176.572ZM242.364 179.114C241.482 179.114 240.808 179.27 240.289 179.633C239.77 179.996 239.407 180.463 239.147 181.189C238.94 181.863 238.784 182.745 238.784 183.783V184.249C238.784 185.339 238.888 186.272 239.095 187.051C239.303 187.829 239.718 188.399 240.237 188.762C240.756 189.177 241.482 189.333 242.416 189.333C243.194 189.333 243.817 189.125 244.336 188.71C244.855 188.295 245.218 187.673 245.477 186.895C245.737 186.117 245.841 185.183 245.841 184.146C245.841 182.538 245.581 181.293 245.01 180.411C244.44 179.581 243.558 179.114 242.364 179.114ZM257.411 176.572C259.279 176.572 260.68 176.987 261.666 177.817C262.652 178.647 263.119 179.944 263.119 181.708V191.667H260.888L260.265 189.592H260.162C259.746 190.111 259.331 190.578 258.864 190.889C258.397 191.252 257.878 191.512 257.308 191.667C256.737 191.823 256.011 191.927 255.18 191.927C254.298 191.927 253.52 191.771 252.794 191.46C252.119 191.148 251.548 190.63 251.133 189.955C250.718 189.281 250.511 188.451 250.511 187.414C250.511 185.909 251.081 184.768 252.223 183.99C253.364 183.212 255.077 182.797 257.36 182.745L259.902 182.641V181.863C259.902 180.826 259.643 180.1 259.176 179.685C258.709 179.27 258.034 179.01 257.152 179.01C256.426 179.01 255.699 179.114 255.025 179.322C254.35 179.529 253.676 179.788 253.001 180.1L251.963 177.869C252.69 177.506 253.52 177.195 254.402 176.935C255.44 176.676 256.426 176.572 257.411 176.572ZM259.954 184.561L258.034 184.613C256.478 184.664 255.388 184.924 254.713 185.391C254.091 185.857 253.779 186.532 253.779 187.362C253.779 188.088 253.987 188.607 254.454 188.97C254.869 189.281 255.44 189.489 256.166 189.489C257.256 189.489 258.138 189.177 258.864 188.555C259.591 187.932 259.954 186.999 259.954 185.806V184.561ZM274.119 176.572C275.78 176.572 277.077 176.987 278.011 177.869C278.945 178.699 279.412 180.1 279.412 182.019V191.667H276.247V182.59C276.247 181.448 275.987 180.567 275.52 179.996C275.053 179.425 274.327 179.114 273.341 179.114C271.888 179.114 270.902 179.581 270.331 180.411C269.761 181.293 269.501 182.59 269.501 184.249V191.615H266.336V176.832H268.775L269.19 178.855H269.346C269.657 178.336 270.072 177.921 270.539 177.61C271.006 177.247 271.577 177.039 272.147 176.832C272.822 176.624 273.445 176.572 274.119 176.572ZM280.449 176.832H283.874L286.883 185.287C287.039 185.65 287.143 186.065 287.247 186.428C287.35 186.791 287.454 187.154 287.558 187.517C287.662 187.88 287.714 188.244 287.765 188.607H287.869C287.973 188.14 288.077 187.621 288.232 187.051C288.388 186.48 288.596 185.909 288.803 185.339L291.709 176.884H295.082L288.751 193.69C288.388 194.676 287.921 195.454 287.402 196.128C286.883 196.802 286.261 197.321 285.534 197.684C284.808 198.047 283.978 198.203 283.044 198.203C282.577 198.203 282.214 198.151 281.902 198.099C281.591 198.047 281.28 197.996 281.072 197.944V195.454C281.28 195.506 281.487 195.558 281.798 195.558C282.058 195.609 282.369 195.609 282.68 195.609C283.251 195.609 283.718 195.506 284.133 195.298C284.548 195.091 284.912 194.779 285.171 194.365C285.43 193.95 285.69 193.483 285.897 192.964L286.416 191.563L280.449 176.832Z" fill="#2E2E2E"/>
<path d="M8.56114 176.572C10.4291 176.572 11.83 176.987 12.8159 177.817C13.8017 178.647 14.2687 179.944 14.2687 181.708V191.667H12.0376L11.4149 189.592H11.3111C10.8961 190.111 10.481 190.578 10.014 190.889C9.54699 191.252 9.02812 191.512 8.45736 191.667C7.8866 191.823 7.16019 191.927 6.32999 191.927C5.44791 191.927 4.66961 191.771 3.94319 191.46C3.26866 191.148 2.6979 190.63 2.2828 189.955C1.8677 189.281 1.66016 188.451 1.66016 187.414C1.66016 185.909 2.23091 184.768 3.37243 183.99C4.51394 183.212 6.22622 182.797 8.50925 182.745L11.0517 182.641V181.863C11.0517 180.826 10.7923 180.1 10.3253 179.685C9.85831 179.27 9.18378 179.01 8.3017 179.01C7.57528 179.01 6.84886 179.114 6.17433 179.322C5.4998 179.529 4.82527 179.788 4.15074 180.1L3.11299 177.869C3.83941 177.506 4.66961 177.195 5.55169 176.935C6.58943 176.676 7.57528 176.572 8.56114 176.572ZM11.1036 184.561L9.18378 184.613C7.62717 184.664 6.53754 184.924 5.86301 185.391C5.24036 185.857 4.92904 186.532 4.92904 187.362C4.92904 188.088 5.13659 188.607 5.60357 188.97C6.01867 189.281 6.58943 189.489 7.31585 189.489C8.40547 189.489 9.28755 189.177 10.014 188.555C10.7404 187.932 11.1036 186.999 11.1036 185.806V184.561ZM25.2688 176.572C26.9292 176.572 28.2263 176.987 29.1603 177.869C30.0943 178.699 30.5613 180.1 30.5613 182.019V191.667H27.3961V182.59C27.3961 181.448 27.1367 180.567 26.6697 179.996C26.2027 179.425 25.4763 179.114 24.4905 179.114C23.0376 179.114 22.0518 179.581 21.481 180.411C20.9103 181.293 20.6508 182.59 20.6508 184.249V191.615H17.4857V176.832H19.9244L20.3914 178.855H20.547C20.8584 178.336 21.2735 177.921 21.7405 177.61C22.2074 177.247 22.7782 177.039 23.3489 176.832C23.9716 176.624 24.5942 176.572 25.2688 176.572Z" fill="#2E2E2E"/>
<mask id="mask0_12349_37829" style="mask-type:luminance" maskUnits="userSpaceOnUse" x="-1" y="0" width="493" height="140">
<path d="M491.111 0H-0.259277V139.743H491.111V0Z" fill="white"/>
</mask>
<g mask="url(#mask0_12349_37829)">
<mask id="mask1_12349_37829" style="mask-type:luminance" maskUnits="userSpaceOnUse" x="-1" y="0" width="493" height="140">
<path d="M491.111 0H-0.259277V139.743H491.111V0Z" fill="white"/>
</mask>
<g mask="url(#mask1_12349_37829)">
<path d="M327.978 35.8954H315.11C314.124 35.8954 313.346 36.7254 313.346 37.6591V51.1977C324.865 45.6993 329.95 39.5784 329.794 37.5035C329.639 36.5698 328.86 35.8954 327.978 35.8954Z" fill="white"/>
</g>
<mask id="mask2_12349_37829" style="mask-type:luminance" maskUnits="userSpaceOnUse" x="-1" y="0" width="493" height="140">
<path d="M491.111 0H-0.259277V139.743H491.111V0Z" fill="white"/>
</mask>
<g mask="url(#mask2_12349_37829)">
<path d="M208.638 45.9067C213.567 45.9067 219.846 47.411 223.685 49.5896C224.516 50.0046 225.501 50.4196 226.28 50.4196C227.11 50.4196 227.681 49.7453 227.681 48.7597V41.9645C227.681 39.4746 226.591 38.1259 220.935 36.6216C216.265 35.273 210.921 34.5468 205.836 34.5468C185.133 34.5468 171.435 49.0709 171.435 70.7016C171.435 92.5915 184.044 105.508 205.265 105.508C212.115 105.508 219.534 104.159 225.294 101.669C227.317 100.995 227.629 99.5943 227.629 97.9862V90.9835C227.629 89.7386 227.317 88.9086 226.383 88.9086C225.709 88.9086 224.983 89.168 224.049 89.7386C219.794 92.1766 213.36 93.8365 207.756 93.8365C194.577 93.8365 187.883 85.7444 187.883 70.0272C187.987 53.9988 194.94 45.9067 208.638 45.9067Z" fill="white"/>
</g>
<mask id="mask3_12349_37829" style="mask-type:luminance" maskUnits="userSpaceOnUse" x="-1" y="0" width="493" height="140">
<path d="M491.111 0H-0.259277V139.743H491.111V0Z" fill="white"/>
</mask>
<g mask="url(#mask3_12349_37829)">
<path d="M30.8731 100.787C32.3778 102.551 41.9769 106.182 75.5478 105.196C109.171 104.211 131.326 102.603 145.855 103.381C160.383 104.211 155.973 100.113 155.454 99.8018C155.454 99.8018 151.044 96.3782 145.855 92.2803C140.614 88.1825 139.628 88.5456 139.628 82.9953C139.628 77.445 138.487 62.7652 128.68 53.4801C123.803 48.2929 124.685 48.7597 124.581 47.4629C124.477 45.388 115.138 26.4029 74.9771 36.0511C48.3071 42.4832 44.4156 58.0967 43.9486 59.2379C43.4816 60.3791 34.5052 67.2262 36.425 94.459C36.425 94.459 29.3683 99.0756 30.8731 100.787Z" fill="white"/>
</g>
<mask id="mask4_12349_37829" style="mask-type:luminance" maskUnits="userSpaceOnUse" x="-1" y="0" width="493" height="140">
<path d="M491.111 0H-0.259277V139.743H491.111V0Z" fill="white"/>
</mask>
<g mask="url(#mask4_12349_37829)">
<path d="M267.997 106.441C278.53 106.441 285.12 104.263 291.035 99.0756C298.299 92.6434 301.723 83.4621 301.723 70.7016C301.723 47.5666 289.945 34.5468 268.983 34.5468C257.879 34.5468 251.549 36.466 245.426 41.8088C238.162 48.0854 234.582 57.4223 234.582 70.4422C234.582 83.4621 238.162 92.7472 245.27 99.0756C251.134 104.367 257.568 106.441 267.997 106.441ZM268.256 45.9067C278.789 45.9067 285.223 55.1918 285.223 70.7016C285.223 85.9001 278.945 94.9258 268.256 94.9258C257.412 94.9258 250.978 85.7444 250.978 70.131C250.978 54.9325 257.412 45.9067 268.256 45.9067Z" fill="white"/>
</g>
<mask id="mask5_12349_37829" style="mask-type:luminance" maskUnits="userSpaceOnUse" x="-1" y="0" width="493" height="140">
<path d="M491.111 0H-0.259277V139.743H491.111V0Z" fill="white"/>
</mask>
<g mask="url(#mask5_12349_37829)">
<path d="M355.634 35.8954H344.686C343.7 35.8954 342.922 36.7254 342.922 37.6591V102.603C342.922 103.537 343.752 104.367 344.686 104.367H357.554C358.488 104.367 359.318 103.537 359.318 102.603V58.2523C359.318 51.2495 364.247 47.3073 373.016 47.3073C382.615 47.3073 386.715 51.6645 386.715 61.6758V102.655C386.715 103.588 387.545 104.418 388.479 104.418H401.347C402.281 104.418 403.111 103.588 403.111 102.655V59.3416C403.111 43.2094 394.601 34.5468 378.88 34.5468C374.521 34.5468 371.097 35.1173 367.257 36.466C366.167 36.881 364.766 37.4516 363.158 38.1259C360.823 38.9559 360.304 39.0596 357.969 39.0596V37.7109C357.969 36.4141 357.295 35.8954 355.634 35.8954Z" fill="white"/>
</g>
<mask id="mask6_12349_37829" style="mask-type:luminance" maskUnits="userSpaceOnUse" x="-1" y="0" width="493" height="140">
<path d="M491.111 0H-0.259277V139.743H491.111V0Z" fill="white"/>
</mask>
<g mask="url(#mask6_12349_37829)">
<path d="M313.294 102.603C313.294 103.537 314.124 104.367 315.058 104.367H327.926C328.86 104.367 329.69 103.537 329.69 102.603V48.5004C321.648 54.3619 313.865 56.2293 313.242 56.3849V102.603H313.294Z" fill="white"/>
</g>
<mask id="mask7_12349_37829" style="mask-type:luminance" maskUnits="userSpaceOnUse" x="-1" y="0" width="493" height="140">
<path d="M491.111 0H-0.259277V139.743H491.111V0Z" fill="white"/>
</mask>
<g mask="url(#mask7_12349_37829)">
<path d="M434.088 93.8365C427.965 93.8365 423.295 92.4878 417.224 89.168C416.394 88.5974 415.46 88.3381 414.734 88.3381C413.644 88.3381 413.229 89.0124 413.229 90.9317V98.2975C413.229 100.891 413.488 101.462 416.394 102.292C418.158 102.81 419.663 103.381 421.064 103.64C425.422 104.885 430.092 105.456 434.503 105.456C450.121 105.456 459.824 97.7788 459.824 85.1739C459.824 77.3412 455.724 70.9091 447.786 66.1369L434.347 57.6298C432.323 56.3849 431.078 54.3619 431.078 52.0277C431.078 48.3448 434.088 46.1143 439.276 46.1143C443.79 46.1143 450.795 47.7742 454.22 49.6934C455.361 50.3678 456.14 50.6271 456.814 50.6271C458.008 50.6271 458.474 49.6934 458.474 48.3448V41.4976C458.474 38.904 457.489 38.2297 451.47 36.7254C446.644 35.4805 441.715 34.8062 437.356 34.8062C423.503 34.8062 414.63 42.6388 414.63 54.6731C414.63 58.6673 415.875 62.6096 417.899 65.3588C419.974 68.108 422.724 70.2866 429.262 74.3845L435.852 78.4824C442.026 82.1653 443.375 83.8252 443.375 87.2488C443.375 91.6579 440.262 93.8365 434.088 93.8365Z" fill="white"/>
</g>
<mask id="mask8_12349_37829" style="mask-type:luminance" maskUnits="userSpaceOnUse" x="-1" y="0" width="493" height="140">
<path d="M491.111 0H-0.259277V139.743H491.111V0Z" fill="white"/>
</mask>
<g mask="url(#mask8_12349_37829)">
<path d="M490.8 -0.207458H-0.415039V139.899H490.8V-0.207458Z" fill="#F47E44"/>
</g>
<mask id="mask9_12349_37829" style="mask-type:luminance" maskUnits="userSpaceOnUse" x="-1" y="0" width="493" height="140">
<path d="M491.111 0H-0.259277V139.743H491.111V0Z" fill="white"/>
</mask>
<g mask="url(#mask9_12349_37829)">
<path d="M207.341 56.6443C205.421 54.6731 203.449 53.0651 201.374 51.872C199.298 50.679 197.171 50.1084 194.992 50.1084C191.982 50.1084 189.336 50.6271 186.949 51.7164C184.614 52.8057 182.591 54.2581 180.879 56.0737C179.218 57.8892 177.921 59.9641 177.091 62.3502C176.209 64.6844 175.794 67.1743 175.794 69.716C175.794 72.2577 176.209 74.6957 177.091 77.0818C177.973 79.4161 179.218 81.5428 180.879 83.3584C182.539 85.1739 184.563 86.6263 186.949 87.7156C189.284 88.8049 191.982 89.3236 194.992 89.3236C197.534 89.3236 199.869 88.8049 202.048 87.7675C204.228 86.73 206.096 85.2257 207.6 83.2027L218.497 94.8739C216.888 96.482 214.968 97.9344 212.841 99.0756C210.714 100.269 208.534 101.202 206.407 101.929C204.28 102.655 202.152 103.173 200.129 103.485C198.157 103.796 196.393 103.952 194.94 103.952C190.063 103.952 185.445 103.122 181.086 101.514C176.728 99.9055 172.992 97.5713 169.775 94.5627C166.61 91.5541 164.067 87.975 162.251 83.7733C160.383 79.5717 159.449 74.8513 159.449 69.716C159.449 64.5807 160.383 59.8603 162.251 55.6587C164.119 51.4571 166.61 47.826 169.775 44.8693C172.94 41.8607 176.728 39.5784 181.086 37.9185C185.445 36.3104 190.063 35.4805 194.94 35.4805C199.091 35.4805 203.294 36.2585 207.497 37.8666C211.699 39.4746 215.383 41.9645 218.6 45.388L207.341 56.6443Z" fill="white"/>
</g>
<mask id="mask10_12349_37829" style="mask-type:luminance" maskUnits="userSpaceOnUse" x="-1" y="0" width="493" height="140">
<path d="M491.111 0H-0.259277V139.743H491.111V0Z" fill="white"/>
</mask>
<g mask="url(#mask10_12349_37829)">
<path d="M220.572 69.716C220.572 64.5288 221.506 59.8603 223.374 55.6587C225.242 51.4571 227.733 47.826 230.898 44.8693C234.063 41.8607 237.851 39.5784 242.209 37.9185C246.568 36.3104 251.186 35.4805 256.063 35.4805C260.94 35.4805 265.558 36.3104 269.917 37.9185C274.275 39.5265 278.011 41.8607 281.176 44.8693C284.341 47.8779 286.884 51.4571 288.7 55.6587C290.568 59.8603 291.502 64.5807 291.502 69.716C291.502 74.8513 290.568 79.5717 288.7 83.7733C286.832 87.975 284.341 91.606 281.176 94.5627C278.011 97.5713 274.223 99.8537 269.917 101.514C265.558 103.122 260.94 103.952 256.063 103.952C251.186 103.952 246.568 103.122 242.209 101.514C237.851 99.9055 234.115 97.5713 230.898 94.5627C227.733 91.5541 225.19 87.975 223.374 83.7733C221.454 79.5717 220.572 74.8513 220.572 69.716ZM236.865 69.716C236.865 72.2577 237.28 74.6957 238.162 77.0818C239.044 79.4161 240.289 81.5428 241.95 83.3584C243.61 85.1739 245.634 86.6263 248.021 87.7156C250.355 88.8049 253.054 89.3236 256.063 89.3236C259.072 89.3236 261.719 88.8049 264.106 87.7156C266.44 86.6263 268.464 85.1739 270.176 83.3584C271.837 81.5428 273.134 79.468 273.964 77.0818C274.846 74.7476 275.261 72.2577 275.261 69.716C275.261 67.1743 274.846 64.7363 273.964 62.3502C273.082 60.0159 271.837 57.8892 270.176 56.0737C268.516 54.2581 266.492 52.8057 264.106 51.7164C261.771 50.6271 259.072 50.1084 256.063 50.1084C253.054 50.1084 250.407 50.6271 248.021 51.7164C245.686 52.8057 243.662 54.2581 241.95 56.0737C240.289 57.8892 238.992 59.9641 238.162 62.3502C237.28 64.7363 236.865 67.1743 236.865 69.716Z" fill="white"/>
</g>
<mask id="mask11_12349_37829" style="mask-type:luminance" maskUnits="userSpaceOnUse" x="-1" y="0" width="493" height="140">
<path d="M491.111 0H-0.259277V139.743H491.111V0Z" fill="white"/>
</mask>
<g mask="url(#mask11_12349_37829)">
<path d="M333.115 37.0885H348.629V47.5666H348.889C350.446 44.2987 352.78 41.4976 355.946 39.0596C359.111 36.6735 363.417 35.4805 368.865 35.4805C373.224 35.4805 376.908 36.2067 379.969 37.6591C383.031 39.1115 385.469 41.0308 387.389 43.365C389.309 45.6993 390.658 48.4485 391.488 51.5089C392.318 54.5694 392.733 57.7854 392.733 61.1571V102.344H376.441V69.301C376.441 67.4855 376.337 65.4625 376.182 63.232C375.974 61.0015 375.507 58.9266 374.729 56.9555C373.95 54.9844 372.757 53.3763 371.148 52.0795C369.54 50.7827 367.309 50.1084 364.507 50.1084C361.809 50.1084 359.474 50.5752 357.658 51.4571C355.79 52.3389 354.233 53.5838 353.04 55.14C351.795 56.6961 350.912 58.4598 350.394 60.4309C349.875 62.402 349.563 64.5288 349.563 66.7074V102.344H333.115V37.0885Z" fill="white"/>
</g>
<mask id="mask12_12349_37829" style="mask-type:luminance" maskUnits="userSpaceOnUse" x="-1" y="0" width="493" height="140">
<path d="M491.111 0H-0.259277V139.743H491.111V0Z" fill="white"/>
</mask>
<g mask="url(#mask12_12349_37829)">
<path d="M441.507 55.1399C438.342 50.679 434.087 48.5003 428.743 48.5003C426.564 48.5003 424.436 49.019 422.361 50.1084C420.285 51.1977 419.248 52.9613 419.248 55.3993C419.248 57.3704 420.13 58.8229 421.842 59.7566C423.554 60.6384 425.734 61.4165 428.38 62.0908C431.026 62.7133 433.828 63.3876 436.889 64.0619C439.951 64.7363 442.753 65.7737 445.399 67.1743C448.045 68.5748 450.224 70.4941 451.937 72.9321C453.649 75.37 454.531 78.7417 454.531 82.9952C454.531 86.8856 453.701 90.1536 452.04 92.8509C450.38 95.5483 448.201 97.675 445.502 99.283C442.804 100.891 439.795 102.084 436.474 102.81C433.102 103.537 429.781 103.9 426.408 103.9C421.323 103.9 416.653 103.173 412.399 101.721C408.144 100.269 404.304 97.6231 400.983 93.8365L411.88 83.6177C413.955 85.9519 416.186 87.9231 418.625 89.3755C421.012 90.8798 423.969 91.606 427.394 91.606C428.587 91.606 429.781 91.4504 431.078 91.191C432.323 90.9316 433.517 90.4648 434.606 89.8423C435.696 89.2199 436.578 88.3899 437.252 87.4562C437.927 86.5225 438.29 85.3813 438.29 84.1364C438.29 81.854 437.408 80.1941 435.696 79.1048C433.984 78.0155 431.804 77.1337 429.158 76.4593C426.512 75.785 423.71 75.1625 420.649 74.5401C417.587 73.9695 414.785 72.9839 412.139 71.6871C409.493 70.3903 407.314 68.5229 405.601 66.1887C403.889 63.8544 403.007 60.5865 403.007 56.3849C403.007 52.7538 403.733 49.5896 405.238 46.9442C406.743 44.2468 408.715 42.0682 411.153 40.3564C413.592 38.6446 416.394 37.3478 419.559 36.5698C422.724 35.7398 425.941 35.3248 429.21 35.3248C433.568 35.3248 437.875 36.051 442.13 37.5553C446.385 39.0596 449.809 41.6013 452.455 45.2324L441.507 55.1399Z" fill="white"/>
</g>
<mask id="mask13_12349_37829" style="mask-type:luminance" maskUnits="userSpaceOnUse" x="-1" y="0" width="493" height="140">
<path d="M491.111 0H-0.259277V139.743H491.111V0Z" fill="white"/>
</mask>
<g mask="url(#mask13_12349_37829)">
<path d="M311.893 57.3186C308.261 59.0823 304.941 59.8603 302.554 60.2235V102.344H318.846V52.5983C316.459 54.725 314.073 56.2293 311.893 57.3186Z" fill="white"/>
</g>
<mask id="mask14_12349_37829" style="mask-type:luminance" maskUnits="userSpaceOnUse" x="-1" y="0" width="493" height="140">
<path d="M491.111 0H-0.259277V139.743H491.111V0Z" fill="white"/>
</mask>
<g mask="url(#mask14_12349_37829)">
<path d="M36.1137 100.009C37.5147 101.617 46.3874 104.989 77.5715 104.107C108.756 103.225 129.303 101.669 142.794 102.447C156.232 103.225 152.185 99.4387 151.718 99.1275C151.718 99.1275 147.619 95.9633 142.794 92.1766C137.968 88.39 137.034 88.7012 137.034 83.5659C137.034 78.4305 135.996 64.7882 126.916 56.1774C122.402 51.3533 123.18 51.8202 123.128 50.5753C123.025 48.656 114.411 31.0714 77.1564 39.9934C52.3025 45.9586 48.7223 60.4309 48.2553 61.4684C47.7883 62.5058 39.4864 68.8861 41.3025 94.1478C41.2506 94.0959 34.7128 98.3494 36.1137 100.009Z" fill="white"/>
</g>
<mask id="mask15_12349_37829" style="mask-type:luminance" maskUnits="userSpaceOnUse" x="-1" y="0" width="493" height="140">
<path d="M491.111 0H-0.259277V139.743H491.111V0Z" fill="white"/>
</mask>
<g mask="url(#mask15_12349_37829)">
<path d="M302.554 50.6271C302.554 50.6271 307.016 50.6271 312.568 46.4773C318.12 42.3276 319.521 37.0885 319.521 37.0885H302.606V50.6271H302.554Z" fill="white"/>
</g>
</g>
</g>
<defs>
<clipPath id="clip0_12349_37829">
<rect width="491.371" height="200" fill="white"/>
</clipPath>
</defs>
</svg>
