<svg width="154" height="34" viewBox="0 0 154 34" fill="none" xmlns="http://www.w3.org/2000/svg">
<path d="M11.7665 4C18.2669 4 23.5477 9.30897 23.5477 15.8686C23.5477 22.4282 18.2684 27.7372 11.7665 27.7372C5.26457 27.7372 0 22.4134 0 15.8686C0 9.32377 5.26457 4 11.7665 4Z" fill="#E5173F"/>
<path d="M5.03222 18.3403C5.20686 18.5445 6.29767 18.9663 10.1517 18.8494C14.0058 18.7325 16.5515 18.5445 18.2092 18.6452C19.8669 18.7473 19.3725 18.2678 19.3148 18.2381C19.3148 18.2381 18.8056 17.8459 18.2092 17.3649C17.6127 16.9002 17.4958 16.9283 17.4958 16.2889C17.4958 15.6495 17.3656 13.9475 16.2451 12.8863C15.6931 12.2898 15.7804 12.3475 15.7804 12.1877C15.7804 11.9553 14.7044 9.75889 10.094 10.8645C7.02586 11.606 6.57444 13.4102 6.51672 13.5404C6.45899 13.6707 5.42591 14.4714 5.67308 17.5988C5.67308 17.5988 4.84425 18.1227 5.0189 18.3403H5.0337H5.03222Z" fill="#EDE7E9"/>
<path d="M39.8654 23.8668L37.7859 18.4572H31.358L29.2341 23.8668H28.1285L34.1494 8.49347H35.1381L40.9991 23.8668H39.8654ZM37.4366 17.4819L35.3275 11.7363C35.2698 11.5912 35.1973 11.4018 35.1233 11.1694C35.0508 10.937 34.9635 10.6899 34.8761 10.4427C34.7888 10.1807 34.7015 9.93357 34.629 9.716C34.5564 9.96317 34.4839 10.2103 34.3966 10.4427C34.3093 10.6899 34.2367 10.9222 34.1494 11.1561C34.0769 11.3737 34.0044 11.5779 33.9319 11.7674L31.7354 17.4833H37.4514H37.4366V17.4819ZM46.613 24.0859C45.4793 24.0859 44.5187 23.8535 43.7476 23.3873C42.9765 22.9078 42.38 22.2388 41.9878 21.3655C41.5956 20.4923 41.4062 19.4459 41.4062 18.2382C41.4062 17.0305 41.6385 15.9263 42.0899 15.0383C42.5414 14.1503 43.1807 13.4531 44.0096 12.9869C44.8384 12.5074 45.799 12.2735 46.9179 12.2735C48.0368 12.2735 47.9658 12.3165 48.4305 12.4186C48.8953 12.5207 49.3171 12.651 49.696 12.8256L49.4192 13.7566C49.027 13.5819 48.62 13.4517 48.1685 13.3643C47.7319 13.277 47.3101 13.2341 46.9031 13.2341C45.9721 13.2341 45.1729 13.4383 44.5172 13.8454C43.863 14.2524 43.3687 14.834 43.0194 15.5904C42.6701 16.3319 42.5103 17.2199 42.5103 18.2367C42.5103 19.2535 42.6553 20.0394 42.9469 20.7824C43.2385 21.5091 43.6884 22.0908 44.2997 22.5274C44.9109 22.9492 45.682 23.1535 46.6411 23.1535C47.6002 23.1535 47.7171 23.0957 48.2115 22.9788C48.7206 22.8619 49.172 22.7168 49.579 22.5422V23.5028C49.2149 23.6774 48.7798 23.8076 48.284 23.9098C47.8044 24.0267 47.2509 24.0844 46.6263 24.0844H46.6115L46.613 24.0859ZM55.9507 24.0859C54.817 24.0859 53.8564 23.8535 53.0853 23.3873C52.3142 22.9078 51.7177 22.2388 51.3255 21.3655C50.9333 20.4923 50.7438 19.4459 50.7438 18.2382C50.7438 17.0305 50.9762 15.9263 51.4276 15.0383C51.879 14.1503 52.5184 13.4531 53.3473 12.9869C54.1761 12.5074 55.1367 12.2735 56.2556 12.2735C57.3745 12.2735 57.3035 12.3165 57.7682 12.4186C58.2329 12.5207 58.6548 12.651 59.0337 12.8256L58.7569 13.7566C58.3647 13.5819 57.9577 13.4517 57.5062 13.3643C57.0696 13.277 56.6478 13.2341 56.2408 13.2341C55.3098 13.2341 54.5106 13.4383 53.8549 13.8454C53.2007 14.2524 52.7064 14.834 52.3571 15.5904C52.0078 16.3319 51.848 17.2199 51.848 18.2367C51.848 19.2535 51.993 20.0394 52.2846 20.7824C52.5762 21.5091 53.0261 22.0908 53.6374 22.5274C54.2486 22.9492 55.0197 23.1535 55.9788 23.1535C56.9379 23.1535 57.0548 23.0957 57.5492 22.9788C58.0583 22.8619 58.5097 22.7168 58.9167 22.5422V23.5028C58.5526 23.6774 58.1175 23.8076 57.6217 23.9098C57.1421 24.0267 56.5886 24.0844 55.964 24.0844H55.9492L55.9507 24.0859ZM65.0412 12.2617C66.0151 12.2617 66.8158 12.4941 67.4552 12.9455C68.1094 13.3969 68.5889 14.0215 68.8953 14.8074C69.215 15.5933 69.3748 16.4947 69.3748 17.5277V18.2989H61.1575C61.1575 19.8692 61.5216 21.0621 62.2335 21.9058C62.9603 22.7494 63.9933 23.1564 65.3461 23.1564C66.6989 23.1564 66.6693 23.0987 67.1784 22.9818C67.7024 22.8648 68.284 22.6621 68.9234 22.3853V23.3592C68.3713 23.6064 67.803 23.7958 67.2509 23.8979C66.6989 24.0148 66.0432 24.0726 65.3165 24.0726C64.168 24.0726 63.1926 23.8402 62.4082 23.3592C61.6371 22.8796 61.0406 22.1959 60.6484 21.3226C60.2562 20.4494 60.0667 19.4326 60.0667 18.2678C60.0667 17.103 60.2562 16.101 60.6336 15.1996C61.011 14.2983 61.5794 13.5701 62.3061 13.0476C63.0476 12.5237 63.9489 12.2484 65.0264 12.2484L65.0412 12.2632V12.2617ZM65.0264 13.1779C63.9356 13.1779 63.0491 13.542 62.3801 14.2687C61.7111 14.982 61.3189 16.0285 61.2019 17.396H68.2988C68.2988 16.5672 68.1819 15.8257 67.9495 15.1996C67.7172 14.5602 67.3531 14.0659 66.8735 13.7166C66.394 13.3673 65.7975 13.1779 65.056 13.1779H65.0264ZM78.785 20.886C78.785 21.5698 78.6104 22.1367 78.2759 22.631C77.9414 23.1105 77.4471 23.4746 76.7929 23.7218C76.1387 23.969 75.338 24.0859 74.3937 24.0859C73.4494 24.0859 72.8959 24.0134 72.2846 23.8816C71.6586 23.7366 71.1361 23.5768 70.7291 23.3725V22.3246C71.253 22.5866 71.8347 22.7894 72.4741 22.9507C73.1135 23.112 73.7691 23.1979 74.4381 23.1979C75.6162 23.1979 76.4599 22.9936 76.969 22.6014C77.493 22.2092 77.7401 21.6556 77.7401 20.9719C77.7401 20.2881 77.6099 20.143 77.3479 19.8514C77.1007 19.5466 76.7366 19.2994 76.2571 19.0803C75.7776 18.8613 75.2092 18.6437 74.5402 18.4261C73.8417 18.1938 73.2171 17.9614 72.6783 17.7276C72.1396 17.4952 71.7178 17.1755 71.4129 16.7966C71.108 16.4044 70.9481 15.8804 70.9481 15.2115C70.9481 14.5425 71.3122 13.5819 72.0537 13.0728C72.7804 12.5636 73.7706 12.3017 75.0065 12.3017C76.2423 12.3017 76.3296 12.3742 76.9113 12.5059C77.5078 12.6362 78.045 12.7975 78.526 13.0002L78.1486 13.9016C77.712 13.6974 77.2177 13.5375 76.6508 13.4073C76.0839 13.277 75.5171 13.2178 74.9487 13.2178C74.0178 13.2178 73.2911 13.3777 72.7671 13.7122C72.2432 14.0467 71.9812 14.5262 71.9812 15.1523C71.9812 15.7783 72.1115 16.0255 72.3586 16.3008C72.6058 16.5761 72.9699 16.8099 73.4346 16.9994C73.8994 17.174 74.4529 17.3768 75.1071 17.6106C75.7761 17.843 76.3874 18.0754 76.9394 18.3373C77.5063 18.5845 77.9577 18.919 78.2922 19.3112C78.6267 19.7034 78.8013 20.257 78.8013 20.9408L78.7865 20.883L78.785 20.886ZM87.9185 20.886C87.9185 21.5698 87.7438 22.1367 87.4094 22.631C87.0749 23.1105 86.5805 23.4746 85.9263 23.7218C85.2721 23.969 84.4714 24.0859 83.5272 24.0859C82.5829 24.0859 82.0293 24.0134 81.4181 23.8816C80.792 23.7366 80.2844 23.5768 79.8625 23.3725V22.3246C80.3865 22.5866 80.9681 22.7894 81.6075 22.9507C82.2469 23.112 82.9026 23.1979 83.5716 23.1979C84.7497 23.1979 85.5933 22.9936 86.1025 22.6014C86.6264 22.2092 86.8736 21.6556 86.8736 20.9719C86.8736 20.2881 86.7433 20.143 86.4814 19.8514C86.2342 19.5466 85.8701 19.2994 85.3906 19.0803C84.911 18.8613 84.3427 18.6437 83.6737 18.4261C82.9751 18.1938 82.3505 17.9614 81.8118 17.7276C81.273 17.4952 80.8512 17.1755 80.5463 16.7966C80.2414 16.4044 80.0816 15.8804 80.0816 15.2115C80.0816 14.5425 80.4457 13.5819 81.1872 13.0728C81.9139 12.5636 82.904 12.3017 84.1399 12.3017C85.3757 12.3017 85.4631 12.3742 86.0447 12.5059C86.6412 12.6362 87.1785 12.7975 87.6595 13.0002L87.2821 13.9016C86.8454 13.6974 86.3511 13.5375 85.7842 13.4073C85.2174 13.277 84.6505 13.2178 84.0822 13.2178C83.1512 13.2178 82.4245 13.3777 81.9006 13.7122C81.3766 14.0467 81.1147 14.5262 81.1147 15.1523C81.1147 15.7783 81.2449 16.0255 81.4921 16.3008C81.7392 16.5776 82.1033 16.8099 82.5681 16.9994C83.0328 17.174 83.5864 17.3768 84.2405 17.6106C84.9095 17.843 85.5208 18.0754 86.0729 18.3373C86.6397 18.5845 87.0911 18.919 87.4256 19.3112C87.7601 19.7034 87.9348 20.257 87.9348 20.9408L87.92 20.883L87.9185 20.886Z" fill="#2B2B2B"/>
<path d="M102.404 11.0391C101.778 11.0391 101.226 11.1561 100.746 11.4032C100.267 11.6356 99.8729 11.9849 99.5384 12.4363C99.2187 12.8877 98.9716 13.4398 98.8117 14.0792C98.6519 14.7186 98.5645 15.4467 98.5645 16.246C98.5645 17.0452 98.6948 18.2529 98.9567 19.024C99.2335 19.7804 99.6553 20.362 100.207 20.769C100.774 21.1613 101.502 21.3655 102.404 21.3655C103.305 21.3655 103.64 21.293 104.266 21.1613C104.892 21.0162 105.574 20.8268 106.302 20.5648V23.2851C105.618 23.5619 104.964 23.7647 104.295 23.8816C103.641 24.0119 102.9 24.0711 102.084 24.0711C100.499 24.0711 99.2039 23.7514 98.1856 23.0972C97.1674 22.443 96.4258 21.5268 95.9315 20.3487C95.4372 19.1706 95.2048 17.7897 95.2048 16.2179C95.2048 14.646 95.3647 13.9933 95.6695 13.0328C95.9892 12.0722 96.4406 11.2301 97.0519 10.5315C97.6632 9.83288 98.4047 9.28082 99.3061 8.90193C100.193 8.52451 101.226 8.32026 102.389 8.32026C103.552 8.32026 103.916 8.42239 104.673 8.61183C105.444 8.80128 106.171 9.06325 106.869 9.39774L105.821 12.0308C105.254 11.754 104.673 11.5216 104.091 11.3174C103.509 11.1131 102.943 11.0125 102.389 11.0125L102.404 11.0421V11.0391ZM119.1 17.991C119.1 18.9648 118.97 19.8381 118.708 20.5944C118.446 21.3507 118.069 21.9901 117.574 22.514C117.08 23.038 116.484 23.4154 115.77 23.6922C115.072 23.9541 114.287 24.0844 113.399 24.0844C112.511 24.0844 111.814 23.9541 111.13 23.6922C110.446 23.4302 109.85 23.038 109.341 22.514C108.832 21.9901 108.454 21.3507 108.163 20.5944C107.886 19.8381 107.756 18.9796 107.756 17.991C107.756 17.0023 107.988 15.5918 108.454 14.689C108.919 13.7876 109.575 13.1038 110.418 12.6376C111.277 12.1729 112.28 11.939 113.473 11.939C114.666 11.939 115.538 12.1714 116.381 12.6376C117.24 13.1023 117.894 13.7861 118.388 14.689C118.883 15.5903 119.115 16.6959 119.115 17.991H119.1ZM111.015 17.991C111.015 18.7621 111.102 19.4015 111.262 19.9254C111.437 20.4493 111.699 20.8416 112.048 21.1035C112.397 21.3655 112.862 21.4957 113.444 21.4957C114.025 21.4957 114.462 21.3655 114.811 21.1035C115.16 20.8416 115.422 20.4493 115.582 19.9254C115.757 19.4015 115.829 18.7621 115.829 17.991C115.829 17.2199 115.742 16.5805 115.582 16.0565C115.422 15.5326 115.16 15.1552 114.811 14.8932C114.447 14.6312 113.997 14.501 113.415 14.501C112.572 14.501 111.961 14.7926 111.568 15.3742C111.191 15.9559 111.001 16.8291 111.001 17.9776L111.016 17.9924L111.015 17.991ZM124.09 12.1595V23.8668H120.89V12.1595H124.09ZM122.49 7.57727C122.969 7.57727 123.376 7.6942 123.711 7.91177C124.06 8.12933 124.22 8.53783 124.22 9.13281C124.22 9.7278 124.045 10.1363 123.711 10.3687C123.361 10.5862 122.954 10.7032 122.49 10.7032C122.025 10.7032 121.603 10.5862 121.254 10.3687C120.919 10.1363 120.745 9.72928 120.745 9.13281C120.745 8.53635 120.919 8.12933 121.254 7.91177C121.603 7.6942 122.01 7.57727 122.49 7.57727ZM133.238 11.9405C134.489 11.9405 135.492 12.2898 136.248 12.9736C137.005 13.6574 137.382 14.7334 137.382 16.246V23.8816H134.182V17.0452C134.182 16.2016 134.022 15.577 133.717 15.1552C133.413 14.7334 132.946 14.5158 132.292 14.5158C131.318 14.5158 130.649 14.8503 130.285 15.5045C129.921 16.1735 129.746 17.1192 129.746 18.3699V23.8816H126.547V12.1595H128.99L129.427 13.6574H129.601C129.849 13.2503 130.168 12.9306 130.532 12.6687C130.91 12.4215 131.318 12.2321 131.783 12.1166C132.248 11.9997 132.714 11.942 133.208 11.942H133.238V11.9405ZM148 20.3916C148 21.1909 147.811 21.8598 147.433 22.4134C147.069 22.9521 146.502 23.3739 145.775 23.664C145.034 23.9408 144.118 24.0858 143.012 24.0858C141.907 24.0858 141.5 24.0281 140.903 23.926C140.321 23.8239 139.74 23.6492 139.143 23.4021V20.769C139.783 21.0606 140.452 21.293 141.18 21.4824C141.907 21.6571 142.562 21.7592 143.114 21.7592C143.666 21.7592 144.176 21.6719 144.437 21.4824C144.714 21.293 144.845 21.0458 144.845 20.7557C144.845 20.4656 144.787 20.3916 144.685 20.2318C144.583 20.0719 144.35 19.8973 143.986 19.693C143.622 19.4888 143.07 19.2283 142.314 18.9071C141.587 18.6022 140.976 18.2959 140.496 17.9762C140.031 17.6565 139.682 17.2924 139.448 16.8706C139.231 16.4339 139.114 15.8967 139.114 15.2277C139.114 14.1517 139.536 13.3377 140.364 12.7841C141.208 12.2321 142.342 11.9553 143.754 11.9553C145.166 11.9553 145.179 12.0278 145.833 12.1729C146.502 12.3179 147.171 12.5503 147.87 12.8714L146.909 15.17C146.328 14.9228 145.775 14.7186 145.266 14.5587C144.757 14.3989 144.233 14.3115 143.711 14.3115C143.188 14.3115 142.897 14.3693 142.65 14.501C142.417 14.6312 142.3 14.8207 142.3 15.0827C142.3 15.3446 142.358 15.4319 142.475 15.5918C142.605 15.7368 142.839 15.8967 143.188 16.0861C143.552 16.2608 144.062 16.4931 144.744 16.7699C145.413 17.0467 145.98 17.322 146.474 17.6284C146.968 17.9199 147.347 18.2825 147.608 18.734C147.87 19.1706 148 19.7226 148 20.4212V20.3916Z" fill="#2B2B2B"/>
<mask id="mask0_4464_61" style="mask-type:luminance" maskUnits="userSpaceOnUse" x="0" y="4" width="24" height="24">
<path d="M11.7665 4C18.2669 4 23.5477 9.30897 23.5477 15.8686C23.5477 22.4282 18.2684 27.7372 11.7665 27.7372C5.26457 27.7372 0 22.4134 0 15.8686C0 9.32377 5.26457 4 11.7665 4Z" fill="white"/>
</mask>
<g mask="url(#mask0_4464_61)">
<g opacity="0.2">
<path d="M7.72294 6.02174C7.66522 6.02174 7.60601 6.00694 7.56309 5.96402L4.30548 2.66201C4.21816 2.57469 4.21816 2.44444 4.30548 2.35712C4.39281 2.2698 4.52305 2.2698 4.61037 2.35712L7.86799 5.65913C7.95531 5.74645 7.95531 5.8767 7.86799 5.96402C7.82506 6.00694 7.76586 6.02174 7.70814 6.02174H7.72294Z" fill="white"/>
<path d="M4.45053 6.02174C4.39281 6.02174 4.3336 6.00694 4.29068 5.96402C4.20336 5.8767 4.20336 5.74645 4.29068 5.65913L7.54829 2.35712C7.63562 2.2698 7.76586 2.2698 7.85318 2.35712C7.94051 2.44444 7.94051 2.57469 7.85318 2.66201L4.59557 5.96402C4.55265 6.00694 4.49345 6.02174 4.43573 6.02174H4.45053Z" fill="white"/>
<path d="M7.72294 9.32375C7.66522 9.32375 7.60601 9.30895 7.56309 9.26602L4.30548 5.96401C4.21816 5.87669 4.21816 5.74644 4.30548 5.65912C4.39281 5.5718 4.52305 5.5718 4.61037 5.65912L7.86799 8.96113C7.95531 9.04846 7.95531 9.1787 7.86799 9.26602C7.82506 9.30895 7.76586 9.32375 7.70814 9.32375H7.72294Z" fill="white"/>
<path d="M4.45053 9.32375C4.39281 9.32375 4.3336 9.30895 4.29068 9.26602C4.20336 9.1787 4.20336 9.04846 4.29068 8.96113L7.54829 5.65912C7.63562 5.5718 7.76586 5.5718 7.85318 5.65912C7.94051 5.74644 7.94051 5.87669 7.85318 5.96401L4.59557 9.26602C4.55265 9.30895 4.49345 9.32375 4.43573 9.32375H4.45053Z" fill="white"/>
<path d="M7.72294 12.6243C7.66522 12.6243 7.60601 12.6095 7.56309 12.5666L4.30548 9.26455C4.21816 9.17723 4.21816 9.04698 4.30548 8.95966C4.39281 8.87233 4.52305 8.87233 4.61037 8.95966L7.86799 12.2617C7.95531 12.349 7.95531 12.4792 7.86799 12.5666C7.82506 12.6095 7.76586 12.6243 7.70814 12.6243H7.72294Z" fill="white"/>
<path d="M4.45053 12.6243C4.39281 12.6243 4.3336 12.6095 4.29068 12.5666C4.20336 12.4792 4.20336 12.349 4.29068 12.2617L7.54829 8.95966C7.63562 8.87233 7.76586 8.87233 7.85318 8.95966C7.94051 9.04698 7.94051 9.17723 7.85318 9.26455L4.59557 12.5666C4.55265 12.6095 4.49345 12.6243 4.43573 12.6243H4.45053Z" fill="white"/>
<path d="M7.72294 15.9263C7.66522 15.9263 7.60601 15.9115 7.56309 15.8686L4.30548 12.5666C4.21816 12.4792 4.21816 12.349 4.30548 12.2617C4.39281 12.1743 4.52305 12.1743 4.61037 12.2617L7.86799 15.5637C7.95531 15.651 7.95531 15.7812 7.86799 15.8686C7.82506 15.9115 7.76586 15.9263 7.70814 15.9263H7.72294Z" fill="white"/>
<path d="M4.45053 15.9263C4.39281 15.9263 4.3336 15.9115 4.29068 15.8686C4.20336 15.7812 4.20336 15.651 4.29068 15.5637L7.54829 12.2617C7.63562 12.1743 7.76586 12.1743 7.85318 12.2617C7.94051 12.349 7.94051 12.4792 7.85318 12.5666L4.59557 15.8686C4.55265 15.9115 4.49345 15.9263 4.43573 15.9263H4.45053Z" fill="white"/>
<path d="M7.72294 19.2417C7.66522 19.2417 7.60601 19.2269 7.56309 19.1839L4.30548 15.8819C4.21816 15.7946 4.21816 15.6644 4.30548 15.577C4.39281 15.4897 4.52305 15.4897 4.61037 15.577L7.86799 18.879C7.95531 18.9664 7.95531 19.0966 7.86799 19.1839C7.82506 19.2269 7.76586 19.2417 7.70814 19.2417H7.72294Z" fill="white"/>
<path d="M4.45053 19.2417C4.39281 19.2417 4.3336 19.2269 4.29068 19.1839C4.20336 19.0966 4.20336 18.9664 4.29068 18.879L7.54829 15.577C7.63562 15.4897 7.76586 15.4897 7.85318 15.577C7.94051 15.6644 7.94051 15.7946 7.85318 15.8819L4.59557 19.1839C4.55265 19.2269 4.49345 19.2417 4.43573 19.2417H4.45053Z" fill="white"/>
<path d="M7.72294 22.5437C7.66522 22.5437 7.60601 22.5289 7.56309 22.4859L4.30548 19.1839C4.21816 19.0966 4.21816 18.9664 4.30548 18.879C4.39281 18.7917 4.52305 18.7917 4.61037 18.879L7.86799 22.181C7.95531 22.2684 7.95531 22.3986 7.86799 22.4859C7.82506 22.5289 7.76586 22.5437 7.70814 22.5437H7.72294Z" fill="white"/>
<path d="M4.45053 22.5437C4.39281 22.5437 4.3336 22.5289 4.29068 22.4859C4.20336 22.3986 4.20336 22.2684 4.29068 22.181L7.54829 18.879C7.63562 18.7917 7.76586 18.7917 7.85318 18.879C7.94051 18.9664 7.94051 19.0966 7.85318 19.1839L4.59557 22.4859C4.55265 22.5289 4.49345 22.5437 4.43573 22.5437H4.45053Z" fill="white"/>
<path d="M7.72294 25.8457C7.66522 25.8457 7.60601 25.8309 7.56309 25.7879L4.30548 22.4859C4.21816 22.3986 4.21816 22.2684 4.30548 22.181C4.39281 22.0937 4.52305 22.0937 4.61037 22.181L7.86799 25.483C7.95531 25.5704 7.95531 25.7006 7.86799 25.7879C7.82506 25.8309 7.76586 25.8457 7.70814 25.8457H7.72294Z" fill="white"/>
<path d="M4.45053 25.8457C4.39281 25.8457 4.3336 25.8309 4.29068 25.7879C4.20336 25.7006 4.20336 25.5704 4.29068 25.483L7.54829 22.181C7.63562 22.0937 7.76586 22.0937 7.85318 22.181C7.94051 22.2684 7.94051 22.3986 7.85318 22.4859L4.59557 25.7879C4.55265 25.8309 4.49345 25.8457 4.43573 25.8457H4.45053Z" fill="white"/>
<path d="M7.72294 29.1462C7.66522 29.1462 7.60601 29.1314 7.56309 29.0885L4.30548 25.7865C4.21816 25.6991 4.21816 25.5689 4.30548 25.4816C4.39281 25.3942 4.52305 25.3942 4.61037 25.4816L7.86799 28.7836C7.95531 28.8709 7.95531 29.0011 7.86799 29.0885C7.82506 29.1314 7.76586 29.1462 7.70814 29.1462H7.72294Z" fill="white"/>
<path d="M4.45053 29.1462C4.39281 29.1462 4.3336 29.1314 4.29068 29.0885C4.20336 29.0011 4.20336 28.8709 4.29068 28.7836L7.54829 25.4816C7.63562 25.3942 7.76586 25.3942 7.85318 25.4816C7.94051 25.5689 7.94051 25.6991 7.85318 25.7865L4.59557 29.0885C4.55265 29.1314 4.49345 29.1462 4.43573 29.1462H4.45053Z" fill="white"/>
<path d="M7.72295 36.0699H4.46534C4.34842 36.0699 4.24777 35.9678 4.24777 35.8523V-4.10036C4.24777 -4.21729 4.3499 -4.31793 4.46534 -4.31793H7.72295C7.83988 -4.31793 7.94052 -4.21581 7.94052 -4.10036V35.8523C7.94052 35.9693 7.8384 36.0699 7.72295 36.0699ZM4.66811 35.6333H7.4891V-3.88279H4.66811V35.6333Z" fill="white"/>
</g>
<g opacity="0.2">
<path d="M23.2266 9.26458C23.1096 9.26458 22.9794 9.22166 22.8921 9.11954L15.8677 2.00785C15.6783 1.8184 15.6931 1.52831 15.8677 1.33886C16.0571 1.14942 16.3472 1.14942 16.5367 1.33886L23.561 8.46535C23.7505 8.6548 23.7357 8.94489 23.561 9.13434C23.4737 9.22166 23.3568 9.26458 23.2266 9.26458Z" fill="white"/>
<path d="M16.2022 9.26458C16.0853 9.26458 15.9698 9.22166 15.8677 9.13433C15.6783 8.94489 15.6783 8.65479 15.8677 8.46535L22.8921 1.33886C23.0815 1.14942 23.3716 1.14942 23.561 1.33886C23.7505 1.52831 23.7505 1.8184 23.561 2.00785L16.5367 9.13433C16.4494 9.22166 16.3191 9.27938 16.2022 9.27938V9.26458Z" fill="white"/>
<path d="M23.2266 16.3911C23.1096 16.3911 22.9794 16.3482 22.8921 16.246L15.8677 9.11954C15.6783 8.9301 15.6931 8.64 15.8677 8.45056C16.0571 8.26111 16.3472 8.26111 16.5367 8.45056L23.561 15.577C23.7505 15.7665 23.7357 16.0566 23.561 16.246C23.4737 16.3334 23.3568 16.3763 23.2266 16.3763V16.3911Z" fill="white"/>
<path d="M16.2022 16.391C16.0853 16.391 15.9698 16.3481 15.8677 16.2608C15.6783 16.0714 15.6783 15.7813 15.8677 15.5918L22.8921 8.46533C23.0815 8.27588 23.3716 8.27588 23.561 8.46533C23.7505 8.65478 23.7505 8.94487 23.561 9.13432L16.5367 16.2608C16.4494 16.3481 16.3191 16.4058 16.2022 16.4058V16.391Z" fill="white"/>
<path d="M23.2266 23.5175C23.1096 23.5175 22.9794 23.4746 22.8921 23.3725L15.8677 16.246C15.6783 16.0566 15.6931 15.7665 15.8677 15.577C16.0571 15.3876 16.3472 15.3876 16.5367 15.577L23.561 22.7035C23.7505 22.893 23.7357 23.183 23.561 23.3725C23.4737 23.4598 23.3568 23.5027 23.2266 23.5027V23.5175Z" fill="white"/>
<path d="M16.2022 23.5175C16.0853 23.5175 15.9698 23.4746 15.8677 23.3873C15.6783 23.1978 15.6783 22.9077 15.8677 22.7183L22.8921 15.5918C23.0815 15.4023 23.3716 15.4023 23.561 15.5918C23.7505 15.7812 23.7505 16.0713 23.561 16.2608L16.5367 23.3873C16.4494 23.4746 16.3191 23.5323 16.2022 23.5323V23.5175Z" fill="white"/>
<path d="M23.2266 30.6307C23.1096 30.6307 22.9794 30.5878 22.8921 30.4857L15.8677 23.3592C15.6783 23.1697 15.6931 22.8796 15.8677 22.6902C16.0571 22.5007 16.3472 22.5007 16.5367 22.6902L23.561 29.8167C23.7505 30.0061 23.7357 30.2962 23.561 30.4857C23.4737 30.573 23.3568 30.6159 23.2266 30.6159V30.6307Z" fill="white"/>
<path d="M16.2022 30.6307C16.0853 30.6307 15.9698 30.5878 15.8677 30.5005C15.6783 30.311 15.6783 30.0209 15.8677 29.8315L22.8921 22.705C23.0815 22.5156 23.3716 22.5156 23.561 22.705C23.7505 22.8945 23.7505 23.1846 23.561 23.374L16.5367 30.5005C16.4494 30.5878 16.3191 30.6455 16.2022 30.6455V30.6307Z" fill="white"/>
<path d="M23.2266 59.8205H16.2022C15.9403 59.8205 15.7375 59.6029 15.7375 59.3557V-26.8193C15.7375 -27.0812 15.9417 -27.284 16.2022 -27.284H23.2266C23.4886 -27.284 23.6913 -27.0797 23.6913 -26.8193V59.3394C23.6913 59.6014 23.4871 59.8042 23.2266 59.8042V59.819V59.8205ZM16.667 58.8747H22.7604V-26.3382H16.667V58.8747Z" fill="white"/>
</g>
</g>
</svg>
