<svg width="54" height="54" viewBox="0 0 54 54" fill="none" xmlns="http://www.w3.org/2000/svg">
<path d="M37.1182 16.5703V16.5178C37.1182 15.1377 36.8463 13.771 36.3182 12.4962C35.7901 11.2214 35.016 10.0634 34.0403 9.08854C33.0647 8.11367 31.9066 7.34106 30.6323 6.81494C29.3581 6.28883 27.9927 6.01954 26.6144 6.0225V11.8999C27.2063 11.8888 27.794 12.0011 28.3401 12.2297C28.866 12.4468 29.3442 12.7652 29.7476 13.1668C30.1497 13.5683 30.4688 14.0453 30.6865 14.5705C30.9042 15.0957 31.0162 15.6587 31.0162 16.2273C31.0162 16.7959 30.9042 17.359 30.6865 17.8842C30.4688 18.4093 30.1497 18.8863 29.7476 19.2878C28.9326 20.0987 27.8306 20.554 26.6818 20.5548H26.6107V47.9813H36.9011C37.1069 47.9813 37.3166 48 37.5262 48C37.7358 48 37.9454 48 38.1513 47.9813C40.8126 47.8264 43.3143 46.6595 45.1449 44.7192C46.9755 42.7788 47.9968 40.2115 48 37.5422V16.5703H37.1182Z" fill="url(#paint0_linear)"/>
<path d="M22.4219 16.2142C22.4232 15.0797 22.8711 13.9915 23.6684 13.1855C24.4708 12.3781 25.5557 11.9156 26.6931 11.8961V6C23.9099 5.99836 21.2395 7.10084 19.2663 9.06613C18.2865 10.0382 17.5092 11.1955 16.9797 12.4709C16.4502 13.7462 16.179 15.1142 16.1818 16.4953H6V37.4859C6.00115 40.1547 7.02479 42.7212 8.85989 44.6565C10.7061 46.59 13.2154 47.7512 15.8824 47.9063C16.092 47.9063 16.3016 47.9063 16.5112 47.9063C16.7209 47.9063 16.9305 47.9063 17.1401 47.9063H26.6931V20.5435C25.554 20.5214 24.4687 20.0547 23.6684 19.2428C22.8715 18.4366 22.4236 17.3486 22.4219 16.2142Z" fill="#F47E42"/>
<defs>
<linearGradient id="paint0_linear" x1="18.1733" y1="35.2107" x2="62.4945" y2="11.4096" gradientUnits="userSpaceOnUse">
<stop stop-color="#F4854C" stop-opacity="0"/>
<stop offset="0.02" stop-color="#F4844B" stop-opacity="0.1"/>
<stop offset="0.1" stop-color="#F48248" stop-opacity="0.37"/>
<stop offset="0.17" stop-color="#F48146" stop-opacity="0.59"/>
<stop offset="0.23" stop-color="#F48044" stop-opacity="0.77"/>
<stop offset="0.29" stop-color="#F47F43" stop-opacity="0.9"/>
<stop offset="0.34" stop-color="#F47E42" stop-opacity="0.97"/>
<stop offset="0.37" stop-color="#F47E42"/>
</linearGradient>
</defs>
</svg>
