<svg width="54" height="54" viewBox="0 0 54 54" fill="none" xmlns="http://www.w3.org/2000/svg">
<path d="M22.305 16.1842C22.3045 15.6172 22.4159 15.0556 22.6329 14.5317C22.8499 14.0078 23.1681 13.5319 23.5694 13.1311C23.9707 12.7303 24.4472 12.4126 24.9715 12.1962C25.4958 11.9798 26.0577 11.8689 26.625 11.8699V6C23.8402 6 21.1695 7.10575 19.2004 9.07401C17.2312 11.0423 16.125 13.7118 16.125 16.4953H6V37.4635C6.00011 40.1309 7.0196 42.6975 8.85003 44.6386C10.6804 46.5797 13.1835 47.7486 15.8475 47.9063C16.0537 47.9063 16.2638 47.9063 16.4738 47.9063C16.6838 47.9063 16.89 47.9063 17.1 47.9063H26.625V20.4985C25.4799 20.4985 24.3817 20.0441 23.5716 19.2351C22.7616 18.4261 22.306 17.3288 22.305 16.1842Z" fill="white"/>
<path d="M37.125 16.5703V16.5216C37.125 13.738 36.0188 11.0685 34.0496 9.10025C32.0805 7.132 29.4098 6.02625 26.625 6.02625V11.8699C27.7376 11.9163 28.7893 12.3907 29.5601 13.194C30.331 13.9973 30.7614 15.0674 30.7614 16.1805C30.7614 17.2936 30.331 18.3636 29.5601 19.1669C28.7893 19.9702 27.7376 20.4446 26.625 20.491V47.9813H36.9038C37.11 47.9813 37.3162 48 37.5262 48C37.7362 48 37.9462 48 38.1525 47.9813C40.8165 47.8236 43.3196 46.6547 45.15 44.7136C46.9804 42.7725 47.9999 40.2059 48 37.5384V16.5703H37.125Z" fill="url(#paint0_linear)"/>
<defs>
<linearGradient id="paint0_linear" x1="17.0888" y1="44.8064" x2="71.9184" y2="-11.9377" gradientUnits="userSpaceOnUse">
<stop stop-color="white" stop-opacity="0"/>
<stop offset="0.03" stop-color="white" stop-opacity="0.14"/>
<stop offset="0.11" stop-color="white" stop-opacity="0.39"/>
<stop offset="0.17" stop-color="white" stop-opacity="0.61"/>
<stop offset="0.24" stop-color="white" stop-opacity="0.78"/>
<stop offset="0.29" stop-color="white" stop-opacity="0.9"/>
<stop offset="0.34" stop-color="white" stop-opacity="0.97"/>
<stop offset="0.37" stop-color="white"/>
</linearGradient>
</defs>
</svg>
