<svg width="54" height="54" viewBox="0 0 54 54" fill="none" xmlns="http://www.w3.org/2000/svg">
<path d="M31.602 18.4766C26.0796 12.9152 19.2048 6 6 6V19.621C13.581 19.621 17.1161 23.1815 22.0036 28.0996C27.541 33.6721 34.4308 40.6061 47.6957 40.6061V26.9813C40.0546 26.9813 36.512 23.4096 31.602 18.4766Z" fill="white"/>
<path d="M31.5982 35.5234C26.0758 41.081 19.2011 48 6 48V34.3752C13.581 34.3752 17.1161 30.8185 22.0036 25.8967C27.541 20.3241 34.4308 13.3902 47.6957 13.3902V27.015C40.0508 27.015 36.512 30.5829 31.5982 35.5234Z" fill="url(#paint0_linear)"/>
<path d="M31.6704 34.8744C26.1973 40.3996 19.3839 47.2782 6.30054 47.2782V33.7329C13.814 33.7329 17.3175 30.197 22.1614 25.3039C27.6494 19.7675 34.4777 13.0573 47.6243 13.0573V27.0823C40.0476 27.0823 36.5329 29.9664 31.6704 34.8744Z" fill="url(#paint1_linear)"/>
<defs>
<linearGradient id="paint0_linear" x1="30.5952" y1="25.3133" x2="42.5493" y2="8.44416" gradientUnits="userSpaceOnUse">
<stop stop-color="white" stop-opacity="0"/>
<stop offset="0.354059" stop-color="white" stop-opacity="0.59"/>
<stop offset="0.6" stop-color="white" stop-opacity="0.77"/>
<stop offset="0.68" stop-color="white" stop-opacity="0.9"/>
<stop offset="0.74" stop-color="white" stop-opacity="0.97"/>
<stop offset="0.78" stop-color="white"/>
</linearGradient>
<linearGradient id="paint1_linear" x1="30.1104" y1="27.4678" x2="-3.69235" y2="55.5626" gradientUnits="userSpaceOnUse">
<stop stop-color="white" stop-opacity="0"/>
<stop offset="0.03" stop-color="white" stop-opacity="0.14"/>
<stop offset="0.11" stop-color="white" stop-opacity="0.39"/>
<stop offset="0.17" stop-color="white" stop-opacity="0.61"/>
<stop offset="0.24" stop-color="white" stop-opacity="0.78"/>
<stop offset="0.29" stop-color="white" stop-opacity="0.9"/>
<stop offset="0.34" stop-color="white" stop-opacity="0.97"/>
<stop offset="0.37" stop-color="white"/>
</linearGradient>
</defs>
</svg>
