<svg width="54" height="54" viewBox="0 0 54 54" fill="none" xmlns="http://www.w3.org/2000/svg">
<path d="M26.9662 6C22.8153 6.0052 18.759 7.24134 15.3102 9.55217C11.8614 11.863 9.17481 15.1448 7.59008 18.9827C6.00535 22.8206 5.59359 27.0424 6.40686 31.1144C7.22013 35.1863 9.22191 38.9257 12.1592 41.8598C15.0965 44.794 18.8373 46.7911 22.909 47.5989C26.9807 48.4066 31.2004 47.9887 35.0346 46.3979C38.8689 44.8071 42.1457 42.1149 44.4508 38.6615C46.7558 35.2082 47.9857 31.1487 47.985 26.9962C47.977 21.4249 45.759 16.0845 41.8181 12.1478C37.8772 8.21113 32.5355 5.99999 26.9662 6ZM31.23 27.8936C31.1093 28.4838 30.8668 29.0424 30.5181 29.5336C30.1695 30.0248 29.7222 30.4378 29.205 30.7464C28.6877 31.0549 28.1118 31.2522 27.5141 31.3255C26.9163 31.3989 26.3098 31.3468 25.7334 31.1724C25.1569 30.9981 24.6231 30.7055 24.1661 30.3132C23.709 29.9209 23.3388 29.4375 23.079 28.894C22.8192 28.3505 22.6756 27.7588 22.6573 27.1566C22.6389 26.5544 22.7464 25.955 22.9727 25.3967C23.3785 24.3954 24.1437 23.5819 25.1182 23.1158C26.0926 22.6497 27.206 22.5647 28.2399 22.8773C29.2738 23.1899 30.1536 23.8777 30.7068 24.8057C31.26 25.7338 31.4466 26.8351 31.23 27.8936Z" fill="url(#paint0_linear)"/>
<path d="M40.5158 10.9224C37.0504 7.99597 32.7319 6.26924 28.2048 6H26.9287L27.0037 6.07509L26.9662 22.7234C27.6076 22.72 28.2417 22.8593 28.8226 23.1313C29.4035 23.4033 29.9166 23.8012 30.3248 24.2962C30.7329 24.7911 31.0259 25.3707 31.1825 25.9929C31.3391 26.6151 31.3553 27.2644 31.23 27.8936C31.0588 28.7299 30.6443 29.4969 30.0386 30.0981C29.4329 30.6994 28.663 31.1081 27.8257 31.2728C27.5355 31.3319 27.2398 31.3596 26.9437 31.3554V37.5056C26.9437 37.5056 26.9062 47.985 37.4718 47.985C48.0375 47.985 48 47.9662 48 47.9662V26.9399C48 25.6808 47.8869 24.4242 47.6622 23.1852C46.8427 18.3669 44.3035 14.0097 40.5158 10.9224Z" fill="#F47E42"/>
<defs>
<linearGradient id="paint0_linear" x1="35.3737" y1="46.0213" x2="18.3083" y2="7.42379" gradientUnits="userSpaceOnUse">
<stop stop-color="#F4854C" stop-opacity="0"/>
<stop offset="0.02" stop-color="#F4844B" stop-opacity="0.1"/>
<stop offset="0.1" stop-color="#F48248" stop-opacity="0.37"/>
<stop offset="0.17" stop-color="#F48146" stop-opacity="0.59"/>
<stop offset="0.23" stop-color="#F48044" stop-opacity="0.77"/>
<stop offset="0.29" stop-color="#F47F43" stop-opacity="0.9"/>
<stop offset="0.34" stop-color="#F47E42" stop-opacity="0.97"/>
<stop offset="0.37" stop-color="#F47E42"/>
</linearGradient>
</defs>
</svg>
