<svg width="54" height="54" viewBox="0 0 54 54" fill="none" xmlns="http://www.w3.org/2000/svg">
<path d="M26.9512 6.03749C22.7994 6.04713 18.7436 7.28613 15.2964 9.59794C11.8491 11.9097 9.16512 15.1906 7.58349 19.0259C6.00187 22.8612 5.59361 27.0789 6.41032 31.1459C7.22703 35.213 9.23204 38.9469 12.172 41.8759C15.112 44.8048 18.8549 46.7974 22.9279 47.6017C27.0009 48.4061 31.2212 47.9861 35.0554 46.395C38.8896 44.8038 42.1657 42.1128 44.4697 38.662C46.7737 35.2113 48.0022 31.1556 48 27.0075C47.99 21.4386 45.7673 16.1014 41.8203 12.1692C37.8733 8.23701 32.5251 6.03151 26.9512 6.03749ZM26.831 22.716C27.9066 22.716 28.9437 23.1157 29.7407 23.8373C30.5377 24.5589 31.0375 25.5509 31.143 26.6203C31.2486 27.6897 30.9522 28.7602 30.3116 29.6234C29.671 30.4866 28.7319 31.0809 27.6771 31.2907C26.6222 31.5006 25.5269 31.3109 24.6043 30.7587C23.6816 30.2064 22.9975 29.331 22.685 28.3028C22.3725 27.2745 22.454 26.1669 22.9135 25.1953C23.3731 24.2237 24.1779 23.4577 25.1715 23.0461C25.6975 22.8279 26.2615 22.7157 26.831 22.716Z" fill="url(#paint0_linear)"/>
<path d="M47.6621 23.1099C46.8488 18.2918 44.3141 13.932 40.5281 10.8392C37.0551 7.93992 32.7358 6.24217 28.2165 6H26.9174V22.7272C28.0626 22.7272 29.1608 23.1818 29.9706 23.9908C30.7804 24.7998 31.2353 25.8971 31.2353 27.0413C31.2353 28.1854 30.7804 29.2827 29.9706 30.0918C29.1608 30.9008 28.0626 31.3553 26.9174 31.3553V37.5113C26.9174 37.5113 26.8798 47.9813 37.4493 47.9813C48.0188 47.9813 47.9812 47.9625 47.9812 47.9625V26.8687C47.9876 25.6088 47.8807 24.3508 47.6621 23.1099Z" fill="white"/>
<defs>
<linearGradient id="paint0_linear" x1="35.4706" y1="47.7787" x2="19.5525" y2="8.9273" gradientUnits="userSpaceOnUse">
<stop stop-color="white" stop-opacity="0"/>
<stop offset="0.03" stop-color="white" stop-opacity="0.14"/>
<stop offset="0.11" stop-color="white" stop-opacity="0.39"/>
<stop offset="0.17" stop-color="white" stop-opacity="0.61"/>
<stop offset="0.24" stop-color="white" stop-opacity="0.78"/>
<stop offset="0.29" stop-color="white" stop-opacity="0.9"/>
<stop offset="0.34" stop-color="white" stop-opacity="0.97"/>
<stop offset="0.37" stop-color="white"/>
</linearGradient>
</defs>
</svg>
