<svg width="54" height="54" viewBox="0 0 54 54" fill="none" xmlns="http://www.w3.org/2000/svg">
<path d="M16.5526 48C16.7629 48 16.9733 48 17.1799 47.9812H15.929C16.1431 47.9812 16.3422 48 16.5526 48Z" fill="white"/>
<path d="M16.5412 27.0394C13.7631 27.0424 11.0998 28.1481 9.13715 30.1135C7.17447 32.0788 6.07302 34.7428 6.07501 37.5197V47.9812H17.1686C19.8901 47.8182 22.4411 46.6019 24.2806 44.5903C26.12 42.5787 27.1031 39.93 27.0215 37.206C26.9399 34.482 25.8 31.8969 23.8434 29.9989C21.8869 28.101 19.2677 27.0394 16.5412 27.0394Z" fill="white"/>
<path d="M27.015 37.4671C27.015 40.2556 28.1233 42.9299 30.0959 44.9017C32.0686 46.8735 34.7441 47.9812 37.5338 47.9812H48V36.8401C47.7803 34.1596 46.5396 31.6657 44.5339 29.8731C42.5281 28.0804 39.9104 27.1258 37.221 27.2063C34.5315 27.2867 31.9756 28.3961 30.0807 30.3054C28.1858 32.2148 27.0965 34.7784 27.0376 37.4671H27.015Z" fill="url(#paint0_linear)"/>
<path d="M37.5338 26.9531C38.9102 26.9511 40.2728 26.6782 41.5437 26.1498C42.8145 25.6215 43.9689 24.8482 44.9408 23.8739C45.9126 22.8997 46.683 21.7437 47.2079 20.4718C47.7328 19.2 48.002 17.8373 48 16.4615V6H36.9064C34.1267 6.08316 31.4938 7.26668 29.587 9.29021C27.6802 11.3137 26.6557 14.0115 26.7389 16.7901C26.8221 19.5686 28.0062 22.2003 30.0306 24.1063C32.055 26.0122 34.754 27.0362 37.5338 26.9531Z" fill="white"/>
<path d="M26.9136 16.4803C26.9156 13.7034 25.8141 11.0394 23.8515 9.07404C21.8888 7.10871 19.2255 6.00299 16.4474 6H6V17.1074C6.16298 19.8228 7.37777 22.3681 9.38675 24.2033C11.3957 26.0385 14.0409 27.0193 16.7612 26.9377C19.4816 26.8561 22.0631 25.7186 23.9585 23.7663C25.8538 21.8141 26.9137 19.2006 26.9136 16.4803Z" fill="white"/>
<defs>
<linearGradient id="paint0_linear" x1="30.2646" y1="29.7994" x2="56.797" y2="57.8913" gradientUnits="userSpaceOnUse">
<stop stop-color="white" stop-opacity="0"/>
<stop offset="0.03" stop-color="white" stop-opacity="0.14"/>
<stop offset="0.09" stop-color="white" stop-opacity="0.39"/>
<stop offset="0.14" stop-color="white" stop-opacity="0.61"/>
<stop offset="0.19" stop-color="white" stop-opacity="0.78"/>
<stop offset="0.24" stop-color="white" stop-opacity="0.9"/>
<stop offset="0.28" stop-color="white" stop-opacity="0.97"/>
<stop offset="0.3" stop-color="white"/>
</linearGradient>
</defs>
</svg>
