<svg width="54" height="54" viewBox="0 0 54 54" fill="none" xmlns="http://www.w3.org/2000/svg">
<path d="M16.515 48C16.7254 48 16.932 48 17.1386 47.9812H15.8876C16.0943 47.9812 16.3046 48 16.515 48Z" fill="#F47E42"/>
<path d="M16.485 27.0394C13.7048 27.0414 11.0391 28.1462 9.07317 30.1112C7.10729 32.0762 6.00199 34.7408 6 37.5197V47.9812H17.1123C19.8339 47.8182 22.3849 46.6019 24.2243 44.5903C26.0637 42.5787 27.0469 39.93 26.9653 37.206C26.8837 34.482 25.7437 31.8969 23.7872 29.9989C21.8307 28.101 19.2114 27.0394 16.485 27.0394Z" fill="#F47E42"/>
<path d="M27.0488 37.5009C27.0488 40.2805 28.1535 42.9462 30.1198 44.9116C32.0861 46.877 34.753 47.9812 37.5338 47.9812H48V36.8738C47.8368 34.1535 46.62 31.6036 44.6075 29.765C42.595 27.9264 39.9452 26.9437 37.22 27.0253C34.4947 27.1069 31.9085 28.2463 30.0096 30.202C28.1108 32.1576 27.0488 34.7757 27.0488 37.5009Z" fill="url(#paint0_linear)"/>
<path d="M37.5112 26.9531C38.8898 26.9551 40.2552 26.685 41.5292 26.1583C42.8031 25.6317 43.9605 24.8589 44.9349 23.8841C45.9094 22.9094 46.6818 21.752 47.2077 20.4782C47.7337 19.2045 48.0029 17.8395 48 16.4615V6.00002H36.8876C34.1078 6.08267 31.4747 7.26572 29.5676 9.2889C27.6605 11.3121 26.6355 14.0097 26.7182 16.7882C26.8009 19.5668 27.9845 22.1987 30.0086 24.1049C32.0326 26.0112 34.7314 27.0357 37.5112 26.9531Z" fill="#F47E42"/>
<path d="M26.9624 16.4803C26.9624 15.1031 26.6908 13.7393 26.1632 12.4671C25.6356 11.1948 24.8623 10.039 23.8875 9.06562C22.9127 8.09229 21.7555 7.32056 20.4821 6.79453C19.2087 6.26851 17.844 5.99853 16.4662 6.00001H6V17.1074C6.08319 19.8859 7.26725 22.5176 9.29168 24.4236C10.2941 25.3673 11.4726 26.1044 12.76 26.5929C14.0474 27.0813 15.4185 27.3115 16.7949 27.2704C18.1713 27.2292 19.5261 26.9174 20.782 26.3529C22.0379 25.7884 23.1702 24.9821 24.1144 23.9802C25.0585 22.9782 25.796 21.8002 26.2846 20.5134C26.7733 19.2265 27.0036 17.8561 26.9624 16.4803Z" fill="#F47E42"/>
<defs>
<linearGradient id="paint0_linear" x1="30.2984" y1="29.8519" x2="56.7707" y2="57.8763" gradientUnits="userSpaceOnUse">
<stop stop-color="#F4854C" stop-opacity="0"/>
<stop offset="0.02" stop-color="#F4844B" stop-opacity="0.1"/>
<stop offset="0.08" stop-color="#F48248" stop-opacity="0.37"/>
<stop offset="0.14" stop-color="#F48146" stop-opacity="0.59"/>
<stop offset="0.19" stop-color="#F48044" stop-opacity="0.77"/>
<stop offset="0.23" stop-color="#F47F43" stop-opacity="0.9"/>
<stop offset="0.27" stop-color="#F47E42" stop-opacity="0.97"/>
<stop offset="0.3" stop-color="#F47E42"/>
</linearGradient>
</defs>
</svg>
