<svg width="54" height="54" viewBox="0 0 54 54" fill="none" xmlns="http://www.w3.org/2000/svg">
<path d="M20.5585 18.9342C17.6791 18.9342 14.8644 19.7853 12.4703 21.38C10.0761 22.9747 8.21011 25.2413 7.10821 27.8932C6.00631 30.5451 5.718 33.4632 6.27974 36.2784C6.84149 39.0936 8.22805 41.6796 10.2641 43.7092C12.3001 45.7389 14.8942 47.1211 17.7183 47.6811C20.5424 48.2411 23.4696 47.9537 26.1299 46.8552C28.7901 45.7568 31.0638 43.8966 32.6635 41.51C34.2632 39.1234 35.1171 36.3174 35.1171 33.4471C35.1175 31.5411 34.7412 29.6537 34.0097 27.8928C33.2782 26.1318 32.2058 24.5318 30.8538 23.184C29.5019 21.8363 27.8968 20.7673 26.1303 20.0381C24.3638 19.3089 22.4705 18.9338 20.5585 18.9342ZM20.8937 36.8705C20.2154 36.8711 19.5521 36.6711 18.9879 36.2958C18.4236 35.9205 17.9838 35.3868 17.7239 34.7622C17.4641 34.1376 17.3959 33.4502 17.5281 32.787C17.6603 32.1237 17.9869 31.5145 18.4665 31.0364C18.9461 30.5582 19.5573 30.2327 20.2226 30.1009C20.8879 29.9691 21.5775 30.0371 22.204 30.2961C22.8306 30.5551 23.366 30.9936 23.7425 31.5561C24.119 32.1186 24.3196 32.7797 24.319 33.4559C24.319 34.3615 23.9581 35.2301 23.3158 35.8704C22.6734 36.5108 21.8021 36.8705 20.8937 36.8705Z" fill="url(#paint0_linear)"/>
<path d="M34.0049 27.9393C33.273 26.1786 32.1996 24.5792 30.8465 23.2327L23.1594 30.8957C23.5087 31.2048 23.791 31.5818 23.9887 32.0036C24.1865 32.4254 24.2956 32.883 24.3094 33.3484C24.3232 33.8138 24.2414 34.2771 24.069 34.7098C23.8966 35.1425 23.6373 35.5355 23.3069 35.8647C22.9766 36.1938 22.5822 36.4521 22.148 36.6237C21.7138 36.7953 21.249 36.8765 20.7822 36.8625C20.3153 36.8484 19.8563 36.7393 19.4333 36.5419C19.0103 36.3445 18.6323 36.063 18.3224 35.7146L10.2587 43.7559C12.6413 46.1276 15.7747 47.6028 19.1257 47.9306C22.4766 48.2584 25.8379 47.4184 28.6375 45.5537C31.4371 43.689 33.5019 40.9147 34.4805 37.7032C35.4592 34.4916 35.2911 31.0412 34.0049 27.9393Z" fill="white"/>
<path d="M33.4355 6C30.5564 6.00117 27.7422 6.85333 25.3489 8.44874C22.9555 10.0441 21.0904 12.3112 19.9894 14.9631C18.8884 17.6151 18.601 20.533 19.1634 23.3478C19.7258 26.1627 21.1128 28.7481 23.1491 30.7771C25.1854 32.8062 27.7795 34.1878 30.6034 34.7473C33.4273 35.3068 36.3543 35.0191 39.0141 33.9205C41.674 32.8218 43.9474 30.9617 45.5469 28.5752C47.1463 26.1887 48 23.383 48 20.5129C48 18.6065 47.6232 16.7188 46.8912 14.9577C46.1592 13.1965 45.0863 11.5964 43.7338 10.2486C42.3813 8.90091 40.7757 7.83202 39.0087 7.10303C37.2417 6.37404 35.3479 5.99922 33.4355 6ZM33.1123 23.9955C32.434 23.9961 31.7707 23.7961 31.2065 23.4208C30.6422 23.0455 30.2024 22.5117 29.9425 21.8871C29.6827 21.2625 29.6145 20.5751 29.7467 19.9119C29.8789 19.2487 30.2055 18.6395 30.6851 18.1613C31.1648 17.6832 31.7759 17.3576 32.4412 17.2259C33.1065 17.0941 33.7961 17.162 34.4226 17.4211C35.0492 17.6801 35.5846 18.1186 35.9611 18.6811C36.3376 19.2435 36.5382 19.9047 36.5376 20.5809C36.5369 21.4863 36.1757 22.3543 35.5335 22.9945C34.8913 23.6347 34.0205 23.9947 33.1123 23.9955Z" fill="url(#paint1_linear)"/>
<path d="M29.6839 20.5809C29.6828 19.8796 29.8983 19.1949 30.3012 18.62C30.7041 18.0451 31.2747 17.6078 31.9357 17.3675C32.5966 17.1272 33.3157 17.0956 33.9953 17.277C34.6748 17.4584 35.2819 17.844 35.7339 18.3813L43.848 10.3045C41.1171 7.58137 37.4129 6.05123 33.5503 6.05068C29.6877 6.05012 25.9831 7.5792 23.2514 10.3015C20.5197 13.0239 18.9847 16.7164 18.9842 20.567C18.9836 24.4175 20.5175 28.1105 23.2484 30.8336L30.9058 23.1943C30.5228 22.8743 30.2149 22.4744 30.0037 22.0229C29.7926 21.5713 29.6835 21.0791 29.6839 20.5809Z" fill="white"/>
<defs>
<linearGradient id="paint0_linear" x1="14.0637" y1="20.0428" x2="26.6421" y2="46.1638" gradientUnits="userSpaceOnUse">
<stop stop-color="white" stop-opacity="0"/>
<stop offset="0.03" stop-color="white" stop-opacity="0.14"/>
<stop offset="0.11" stop-color="white" stop-opacity="0.39"/>
<stop offset="0.17" stop-color="white" stop-opacity="0.61"/>
<stop offset="0.24" stop-color="white" stop-opacity="0.78"/>
<stop offset="0.29" stop-color="white" stop-opacity="0.9"/>
<stop offset="0.34" stop-color="white" stop-opacity="0.97"/>
<stop offset="0.37" stop-color="white"/>
</linearGradient>
<linearGradient id="paint1_linear" x1="38.0798" y1="36.7109" x2="29.7001" y2="7.28986" gradientUnits="userSpaceOnUse">
<stop stop-color="white" stop-opacity="0"/>
<stop offset="0.03" stop-color="white" stop-opacity="0.14"/>
<stop offset="0.09" stop-color="white" stop-opacity="0.39"/>
<stop offset="0.14" stop-color="white" stop-opacity="0.61"/>
<stop offset="0.19" stop-color="white" stop-opacity="0.78"/>
<stop offset="0.24" stop-color="white" stop-opacity="0.9"/>
<stop offset="0.28" stop-color="white" stop-opacity="0.97"/>
<stop offset="0.3" stop-color="white"/>
</linearGradient>
</defs>
</svg>
