<svg width="24" height="24" viewBox="0 0 24 24" fill="none" xmlns="http://www.w3.org/2000/svg">
<path d="M15 0.000854492L4 0.000854492C3.44772 0.000854492 3 0.44857 3 1.00085L3 23C3 23.5523 3.44772 24 4 24H19.9992C20.5515 24 20.9992 23.5523 20.9992 23V6.00004L15 0.000854492Z" fill="#E3E3E3"/>
<path opacity="0.1" d="M3 12H20C20.5523 12 21 12.4477 21 13V21C21 21.5523 20.5523 22 20 22H3V12Z" fill="#4A4A4A"/>
<rect x="2" y="11" width="18" height="10" rx="1" fill="#5CA24D"/>
<path fill-rule="evenodd" clip-rule="evenodd" d="M15 0L21 6H16C15.4477 6 15 5.55228 15 5V0Z" fill="#F6F6F6"/>
<path opacity="0.1" fill-rule="evenodd" clip-rule="evenodd" d="M21 11L16 6L21 6L21 11Z" fill="#4A4A4A"/>
<path d="M4 14.5C4 13.6716 4.67157 13 5.5 13H7.5C7.77614 13 8 13.2239 8 13.5C8 13.7761 7.77614 14 7.5 14H5.5C5.22386 14 5 14.2239 5 14.5V17.5C5 17.7761 5.22386 18 5.5 18H7.5C7.77614 18 8 18.2239 8 18.5C8 18.7761 7.77614 19 7.5 19H5.5C4.67157 19 4 18.3284 4 17.5V14.5Z" fill="white"/>
<path d="M12.5 13C12.7761 13 13 13.2239 13 13.5C13 13.7455 12.8231 13.9496 12.5899 13.9919L12.5 14H10V15H12.5C12.7455 15 12.9496 15.1769 12.9919 15.4101L13 15.5V18.5C13 18.7455 12.8231 18.9496 12.5899 18.9919L12.5 19H9.5C9.22386 19 9 18.7761 9 18.5C9 18.2545 9.17688 18.0504 9.41012 18.0081L9.5 18H12V16H9.5C9.25454 16 9.05039 15.8231 9.00806 15.5899L9 15.5V13.5C9 13.2545 9.17688 13.0504 9.41012 13.0081L9.5 13H12.5Z" fill="white"/>
<path d="M14.5 13C14.7761 13 15 13.2239 15 13.5V16.3333L16 17.6667L17 16.3333V13.5C17 13.2239 17.2239 13 17.5 13C17.7761 13 18 13.2239 18 13.5V16.5C18 16.6082 17.9649 16.7135 17.9 16.8L16.4 18.8C16.3056 18.9259 16.1574 19 16 19C15.8426 19 15.6944 18.9259 15.6 18.8L14.1 16.8C14.0351 16.7135 14 16.6082 14 16.5V13.5C14 13.2239 14.2239 13 14.5 13Z" fill="white"/>
</svg>
