<svg width="24" height="24" viewBox="0 0 24 24" fill="none" xmlns="http://www.w3.org/2000/svg">
<path d="M15 0.000854492L4 0.000854492C3.44772 0.000854492 3 0.44857 3 1.00085L3 23C3 23.5523 3.44772 24 4 24H19.9992C20.5515 24 20.9992 23.5523 20.9992 23V6.00004L15 0.000854492Z" fill="#E3E3E3"/>
<path opacity="0.1" d="M3 12H20C20.5523 12 21 12.4477 21 13V21C21 21.5523 20.5523 22 20 22H3V12Z" fill="#4A4A4A"/>
<rect x="2" y="11" width="18" height="10" rx="1" fill="#263D54"/>
<path fill-rule="evenodd" clip-rule="evenodd" d="M15 0L21 6H16C15.4477 6 15 5.55228 15 5V0Z" fill="#F6F6F6"/>
<path opacity="0.1" fill-rule="evenodd" clip-rule="evenodd" d="M21 11L16 6L21 6L21 11Z" fill="#4A4A4A"/>
<path fill-rule="evenodd" clip-rule="evenodd" d="M4 13.5C4 13.2239 4.22386 13 4.5 13H6.5C7.32843 13 8 13.6716 8 14.5V17.5C8 18.3284 7.32843 19 6.5 19H4.5C4.22386 19 4 18.7761 4 18.5V13.5ZM5 14V18H6.5C6.77614 18 7 17.7761 7 17.5V14.5C7 14.2239 6.77614 14 6.5 14H5ZM10.5 14C10.2239 14 10 14.2239 10 14.5V17.5C10 17.7761 10.2239 18 10.5 18H11.5C11.7761 18 12 17.7761 12 17.5V14.5C12 14.2239 11.7761 14 11.5 14H10.5ZM9 14.5C9 13.6716 9.67157 13 10.5 13H11.5C12.3284 13 13 13.6716 13 14.5V17.5C13 18.3284 12.3284 19 11.5 19H10.5C9.67157 19 9 18.3284 9 17.5V14.5Z" fill="white"/>
<path d="M14 13.5C14 13.2239 14.2239 13 14.5 13H16.5C16.7761 13 17 13.2239 17 13.5C17 13.7761 16.7761 14 16.5 14H16V18.5C16 18.7761 15.7761 19 15.5 19C15.2239 19 15 18.7761 15 18.5V14H14.5C14.2239 14 14 13.7761 14 13.5Z" fill="white"/>
</svg>
