<svg width="24" height="24" viewBox="0 0 24 24" fill="none" xmlns="http://www.w3.org/2000/svg">
<path d="M15 0.000854492L4 0.000854492C3.44772 0.000854492 3 0.44857 3 1.00085L3 23C3 23.5523 3.44772 24 4 24H19.9992C20.5515 24 20.9992 23.5523 20.9992 23V6.00004L15 0.000854492Z" fill="#E3E3E3"/>
<path opacity="0.1" d="M3 12H20C20.5523 12 21 12.4477 21 13V21C21 21.5523 20.5523 22 20 22H3V12Z" fill="#4A4A4A"/>
<rect x="2" y="11" width="18" height="10" rx="1" fill="#BB9201"/>
<path fill-rule="evenodd" clip-rule="evenodd" d="M15 0L21 6H16C15.4477 6 15 5.55228 15 5V0Z" fill="#F6F6F6"/>
<path opacity="0.1" fill-rule="evenodd" clip-rule="evenodd" d="M21 11L16 6L21 6L21 11Z" fill="#4A4A4A"/>
<path fill-rule="evenodd" clip-rule="evenodd" d="M4 13.5C4 13.2239 4.22386 13 4.5 13H6.5C7.32843 13 8 13.6716 8 14.5V17.5C8 18.3284 7.32843 19 6.5 19H4.5C4.22386 19 4 18.7761 4 18.5V13.5ZM5 14V18H6.5C6.77614 18 7 17.7761 7 17.5V14.5C7 14.2239 6.77614 14 6.5 14H5ZM9.5 13C9.77614 13 10 13.2239 10 13.5V17L10.6 16.2C10.6944 16.0741 10.8426 16 11 16C11.1574 16 11.3056 16.0741 11.4 16.2L12 17V13.5C12 13.2239 12.2239 13 12.5 13C12.7761 13 13 13.2239 13 13.5V18.5C13 18.7152 12.8623 18.9063 12.6581 18.9743C12.4539 19.0424 12.2291 18.9722 12.1 18.8L11 17.3333L9.9 18.8C9.77087 18.9722 9.54606 19.0424 9.34189 18.9743C9.13771 18.9063 9 18.7152 9 18.5V13.5C9 13.2239 9.22386 13 9.5 13ZM14 14.5C14 13.6716 14.6716 13 15.5 13H17.5C17.7761 13 18 13.2239 18 13.5C18 13.7761 17.7761 14 17.5 14H15.5C15.2239 14 15 14.2239 15 14.5V17.5C15 17.7761 15.2239 18 15.5 18H17V17H16.5C16.2239 17 16 16.7761 16 16.5C16 16.2239 16.2239 16 16.5 16H17.5C17.7761 16 18 16.2239 18 16.5V18.5C18 18.7761 17.7761 19 17.5 19H15.5C14.6716 19 14 18.3284 14 17.5V14.5Z" fill="white"/>
</svg>
