<svg width="24" height="24" viewBox="0 0 24 24" fill="none" xmlns="http://www.w3.org/2000/svg">
<path d="M15 0.000854492L4 0.000854492C3.44772 0.000854492 3 0.44857 3 1.00085L3 23C3 23.5523 3.44772 24 4 24H19.9992C20.5515 24 20.9992 23.5523 20.9992 23V6.00004L15 0.000854492Z" fill="#E3E3E3"/>
<path opacity="0.1" d="M3 12H20C20.5523 12 21 12.4477 21 13V21C21 21.5523 20.5523 22 20 22H3V12Z" fill="#4A4A4A"/>
<rect x="2" y="11" width="18" height="10" rx="1" fill="#417505"/>
<path fill-rule="evenodd" clip-rule="evenodd" d="M15 0L21 6H16C15.4477 6 15 5.55228 15 5V0Z" fill="#F6F6F6"/>
<path opacity="0.1" fill-rule="evenodd" clip-rule="evenodd" d="M21 11L16 6L21 6L21 11Z" fill="#4A4A4A"/>
<path fill-rule="evenodd" clip-rule="evenodd" d="M4 14.5C4 13.6716 4.67157 13 5.5 13H7.5C7.77614 13 8 13.2239 8 13.5C8 13.7761 7.77614 14 7.5 14H5.5C5.22386 14 5 14.2239 5 14.5V17.5C5 17.7761 5.22386 18 5.5 18H7V17H6.5C6.22386 17 6 16.7761 6 16.5C6 16.2239 6.22386 16 6.5 16H7.5C7.77614 16 8 16.2239 8 16.5V18.5C8 18.7761 7.77614 19 7.5 19H5.5C4.67157 19 4 18.3284 4 17.5V14.5ZM9 13.5C9 13.2239 9.22386 13 9.5 13H11.5C11.7761 13 12 13.2239 12 13.5C12 13.7761 11.7761 14 11.5 14H11V18H11.5C11.7761 18 12 18.2239 12 18.5C12 18.7761 11.7761 19 11.5 19H9.5C9.22386 19 9 18.7761 9 18.5C9 18.2239 9.22386 18 9.5 18H10V14H9.5C9.22386 14 9 13.7761 9 13.5ZM14 13.5C14 13.2239 14.2239 13 14.5 13H17.5C17.7761 13 18 13.2239 18 13.5C18 13.7761 17.7761 14 17.5 14H15V16H16.5C16.7761 16 17 16.2239 17 16.5C17 16.7761 16.7761 17 16.5 17H15V18.5C15 18.7761 14.7761 19 14.5 19C14.2239 19 14 18.7761 14 18.5V13.5Z" fill="white"/>
</svg>
