<svg width="24" height="24" viewBox="0 0 24 24" fill="none" xmlns="http://www.w3.org/2000/svg">
<path d="M15 0.000854492L4 0.000854492C3.44772 0.000854492 3 0.44857 3 1.00085L3 23C3 23.5523 3.44772 24 4 24H19.9992C20.5515 24 20.9992 23.5523 20.9992 23V6.00004L15 0.000854492Z" fill="#B373EB"/>
<path opacity="0.1" d="M3 12H20C20.5523 12 21 12.4477 21 13V21C21 21.5523 20.5523 22 20 22H3V12Z" fill="#4A4A4A"/>
<rect x="2" y="11" width="18" height="10" rx="1" fill="#6113A6"/>
<path fill-rule="evenodd" clip-rule="evenodd" d="M15 0L21 6H16C15.4477 6 15 5.55228 15 5V0Z" fill="#D7A9FF"/>
<path opacity="0.1" fill-rule="evenodd" clip-rule="evenodd" d="M21 11L16 6L21 6L21 11Z" fill="#4A4A4A"/>
<path d="M9.5 18.5V17.5L12.5 14.5V13.5" stroke="white" stroke-linecap="round" stroke-linejoin="round"/>
<path d="M12.5 18.5L12.5 17.5L9.5 14.5V13.5" stroke="white" stroke-linecap="round" stroke-linejoin="round"/>
<path d="M6.5 18.5V13.5" stroke="white" stroke-linecap="round" stroke-linejoin="round"/>
<path d="M5.5 13.5H7.5" stroke="white" stroke-linecap="round"/>
<path d="M15.5 18.5V13.5" stroke="white" stroke-linecap="round" stroke-linejoin="round"/>
<path d="M14.5 13.5H16.5" stroke="white" stroke-linecap="round"/>
</svg>
