<svg width="24" height="24" viewBox="0 0 24 24" fill="none" xmlns="http://www.w3.org/2000/svg">
<path d="M15 0.000854492L4 0.000854492C3.44772 0.000854492 3 0.44857 3 1.00085L3 23C3 23.5523 3.44772 24 4 24H19.9992C20.5515 24 20.9992 23.5523 20.9992 23V6.00004L15 0.000854492Z" fill="#E3E3E3"/>
<path opacity="0.1" d="M3 12H20C20.5523 12 21 12.4477 21 13V21C21 21.5523 20.5523 22 20 22H3V12Z" fill="#4A4A4A"/>
<rect x="2" y="11" width="18" height="10" rx="1" fill="#F47E42"/>
<path fill-rule="evenodd" clip-rule="evenodd" d="M15 0L21 6H16C15.4477 6 15 5.55228 15 5V0Z" fill="#F6F6F6"/>
<path opacity="0.1" fill-rule="evenodd" clip-rule="evenodd" d="M21 11L16 6L21 6L21 11Z" fill="#4A4A4A"/>
<path fill-rule="evenodd" clip-rule="evenodd" d="M9.34189 13.0257C9.54606 12.9576 9.77087 13.0279 9.9 13.2L11 14.6667L12.1 13.2C12.2291 13.0279 12.4539 12.9576 12.6581 13.0257C12.8623 13.0937 13 13.2848 13 13.5V18.5C13 18.7762 12.7761 19 12.5 19C12.2239 19 12 18.7762 12 18.5V15L11.4 15.8C11.3056 15.9259 11.1574 16 11 16C10.8426 16 10.6944 15.9259 10.6 15.8L10 15V18.5C10 18.7762 9.77614 19 9.5 19C9.22386 19 9 18.7762 9 18.5V13.5C9 13.2848 9.13771 13.0937 9.34189 13.0257Z" fill="white"/>
<path d="M4.5 13C4.77614 13 5 13.2239 5 13.5V14.2929L6 15.2929L7 14.2929V13.5C7 13.2239 7.22386 13 7.5 13C7.77614 13 8 13.2239 8 13.5V14.5C8 14.6326 7.94732 14.7598 7.85355 14.8536L6.70711 16L7.85355 17.1464C7.94732 17.2402 8 17.3674 8 17.5V18.5C8 18.7761 7.77614 19 7.5 19C7.22386 19 7 18.7761 7 18.5V17.7071L6 16.7071L5 17.7071V18.5C5 18.7761 4.77614 19 4.5 19C4.22386 19 4 18.7761 4 18.5V17.5C4 17.3674 4.05268 17.2402 4.14645 17.1464L5.29289 16L4.14645 14.8536C4.05268 14.7598 4 14.6326 4 14.5V13.5C4 13.2239 4.22386 13 4.5 13Z" fill="white"/>
<path d="M14.5 13C14.7761 13 15 13.2239 15 13.5V18H17.5C17.7761 18 18 18.2239 18 18.5C18 18.7761 17.7761 19 17.5 19H14.5C14.2239 19 14 18.7761 14 18.5V13.5C14 13.2239 14.2239 13 14.5 13Z" fill="white"/>
</svg>
