<svg width="24" height="24" viewBox="0 0 24 24" fill="none" xmlns="http://www.w3.org/2000/svg">
<path fill-rule="evenodd" clip-rule="evenodd" d="M14 4.03412V4C14 2.89543 13.1046 2 12 2C10.8954 2 10 2.89543 10 4V4.03412C9.89237 4.04623 9.77021 4.06265 9.63655 4.08493C9.13505 4.16851 8.45875 4.33661 7.77639 4.67779C7.09208 5.01994 6.39255 5.54103 5.86522 6.33202C5.33581 7.12615 5 8.16251 5 9.5V16.2929L3.14645 18.1464C3.05268 18.2402 3 18.3674 3 18.5V19.5C3 19.7761 3.22386 20 3.5 20H10C10 21.1046 10.8954 22 12 22C13.1046 22 14 21.1046 14 20H20.5C20.7761 20 21 19.7761 21 19.5V18.5C21 18.3674 20.9473 18.2402 20.8536 18.1464L19 16.2929V9.5C19 8.16251 18.6642 7.12615 18.1348 6.33202C17.6074 5.54103 16.9079 5.01994 16.2236 4.67779C15.5412 4.33661 14.8649 4.16851 14.3634 4.08493C14.2298 4.06265 14.1076 4.04623 14 4.03412Z" fill="#4A4A4A"/>
</svg>
