<svg width="24" height="24" viewBox="0 0 24 24" fill="none" xmlns="http://www.w3.org/2000/svg">
<path d="M14.5 3.5H15C15 3.22386 14.7761 3 14.5 3V3.5ZM6.5 3.5V3C6.31061 3 6.13748 3.107 6.05279 3.27639L6.5 3.5ZM3.5 9.5L3.05279 9.27639C3.01807 9.34582 3 9.42238 3 9.5H3.5ZM3.5 20.5H3C3 20.7761 3.22386 21 3.5 21V20.5ZM20.5 20.5V21C20.7761 21 21 20.7761 21 20.5H20.5ZM20.5 9.5H21C21 9.22386 20.7761 9 20.5 9V9.5ZM14.5 12.5L14.7774 12.916C14.9164 12.8233 15 12.6672 15 12.5H14.5ZM13 13.5L12.7764 13.9472C12.9369 14.0275 13.1281 14.0156 13.2774 13.916L13 13.5ZM11 12.5L11.2236 12.0528C11.0631 11.9725 10.8719 11.9844 10.7227 12.084L11 12.5ZM9.5 13.5H9C9 13.6844 9.10149 13.8538 9.26407 13.9408C9.42665 14.0278 9.62392 14.0183 9.77735 13.916L9.5 13.5ZM6.05279 3.27639L3.05279 9.27639L3.94721 9.72361L6.94721 3.72361L6.05279 3.27639ZM3 9.5V20.5H4V9.5H3ZM3.5 21H20.5V20H3.5V21ZM21 20.5V9.5H20V20.5H21ZM20.5 9H14.5V10H20.5V9ZM14.5 9H3.5V10H14.5V9ZM14 9.5V12.5H15V9.5H14ZM14.2226 12.084L12.7226 13.084L13.2774 13.916L14.7774 12.916L14.2226 12.084ZM13.2236 13.0528L11.2236 12.0528L10.7764 12.9472L12.7764 13.9472L13.2236 13.0528ZM10.7227 12.084L9.22265 13.084L9.77735 13.916L11.2773 12.916L10.7227 12.084ZM14.5 3H9.5V4H14.5V3ZM9.5 3H6.5V4H9.5V3ZM10 13.5V3.5H9V13.5H10ZM14 3.5V9.5H15V3.5H14Z" fill="#4A4A4A"/>
<path fill-rule="evenodd" clip-rule="evenodd" d="M24 5.5C24 8.5 21.5 11 18.5 11C15.5 11 13 8.5 13 5.5C13 2.5 15.5 0 18.5 0C21.5 0 24 2.5 24 5.5ZM18 2.5C18 2.22386 18.2239 2 18.5 2C18.7761 2 19 2.22386 19 2.5V5H21.5C21.7761 5 22 5.22386 22 5.5C22 5.77614 21.7761 6 21.5 6H19V8.5C19 8.77614 18.7761 9 18.5 9C18.2239 9 18 8.77614 18 8.5V6H15.5C15.2239 6 15 5.77614 15 5.5C15 5.22386 15.2239 5 15.5 5H18V2.5Z" fill="#4A4A4A"/>
</svg>
