<svg width="24" height="24" viewBox="0 0 24 24" fill="none" xmlns="http://www.w3.org/2000/svg">
<path fill-rule="evenodd" clip-rule="evenodd" d="M10.9831 4.14538C10.4628 4.95465 10 6.11219 10 7.5V8.99273C10.0001 8.99728 10.0001 9.00183 10 9.00638V14.5C10 14.8016 10.1074 15.3686 10.3032 16.0968C10.4942 16.8074 10.7554 17.6221 11.0329 18.3931C11.311 19.1655 11.6015 19.883 11.8495 20.4015C11.9031 20.5136 11.9535 20.6137 12 20.7011C12.0465 20.6137 12.0969 20.5136 12.1505 20.4015C12.3985 19.883 12.689 19.1655 12.9671 18.3931C13.2446 17.6221 13.5058 16.8074 13.6968 16.0968C13.8926 15.3686 14 14.8016 14 14.5V9.00638C13.9999 9.00183 13.9999 8.99728 14 8.99273V7.5C14 6.11219 13.5372 4.95465 13.0169 4.14538C12.7565 3.7403 12.4871 3.43108 12.2652 3.22935C12.1555 3.12959 12.065 3.06308 12 3.02427C11.935 3.06308 11.8445 3.12959 11.7348 3.22935C11.5129 3.43108 11.2435 3.7403 10.9831 4.14538ZM15 8.73698V7.5C15 5.88781 14.4628 4.54535 13.8581 3.60462C13.556 3.1347 13.2316 2.75642 12.9379 2.4894C12.7917 2.35646 12.6451 2.24383 12.5052 2.16125C12.3829 2.08901 12.2007 2 12 2C11.7993 2 11.6171 2.08901 11.4948 2.16125C11.3549 2.24383 11.2083 2.35646 11.0621 2.4894C10.7684 2.75642 10.444 3.1347 10.1419 3.60462C9.53715 4.54535 9 5.88781 9 7.5V8.73698L6 10.7995V10.5C6 9.67157 5.32843 9 4.5 9C3.67157 9 3 9.67157 3 10.5V12.862L1.21674 14.088C1.08106 14.1813 1 14.3354 1 14.5V16.5C1 16.654 1.07094 16.7993 1.19229 16.8941C1.31365 16.9889 1.4719 17.0224 1.62127 16.9851L9.06051 15.1253C9.12006 15.4914 9.21911 15.9161 9.33745 16.3564C9.49924 16.9582 9.70734 17.6251 9.9321 18.2777L7.22265 20.084C7.08355 20.1767 7 20.3328 7 20.5V21.5C7 21.6569 7.07365 21.8047 7.1989 21.8992C7.32416 21.9937 7.4865 22.0239 7.63736 21.9808L11.0342 21.0102C11.137 21.2149 11.238 21.396 11.3334 21.5387C11.3934 21.6284 11.4633 21.7214 11.5423 21.7976C11.5986 21.852 11.7602 22 12 22C12.2398 22 12.4014 21.852 12.4577 21.7976C12.5367 21.7214 12.6066 21.6284 12.6666 21.5387C12.762 21.396 12.863 21.2149 12.9658 21.0102L16.3626 21.9808C16.5135 22.0239 16.6758 21.9937 16.8011 21.8992C16.9264 21.8047 17 21.6569 17 21.5V20.5C17 20.3328 16.9164 20.1767 16.7774 20.084L14.0679 18.2777C14.2927 17.6251 14.5008 16.9582 14.6625 16.3564C14.7809 15.9161 14.8799 15.4914 14.9395 15.1253L22.3787 16.9851C22.5281 17.0224 22.6863 16.9889 22.8077 16.8941C22.9291 16.7993 23 16.654 23 16.5V14.5C23 14.3354 22.9189 14.1813 22.7833 14.088L21 12.862V10.5C21 9.67157 20.3284 9 19.5 9C18.6716 9 18 9.67157 18 10.5V10.7995L15 8.73698ZM15 9.95052V14.1096L22 15.8596V14.763L15 9.95052ZM19 11.487L20 12.1745V10.5C20 10.2239 19.7761 10 19.5 10C19.2239 10 19 10.2239 19 10.5V11.487ZM13.718 19.2463C13.6063 19.541 13.4937 19.8249 13.3831 20.0894L16 20.8371V20.7676L13.718 19.2463ZM10.6169 20.0894C10.5063 19.8249 10.3937 19.541 10.282 19.2463L8 20.7676V20.8371L10.6169 20.0894ZM9 14.1096V9.95052L2 14.763V15.8596L9 14.1096ZM4 12.1745L5 11.487V10.5C5 10.2239 4.77614 10 4.5 10C4.22386 10 4 10.2239 4 10.5V12.1745Z" fill="#4A4A4A"/>
</svg>
