<svg width="24" height="24" viewBox="0 0 24 24" fill="none" xmlns="http://www.w3.org/2000/svg">
<path fill-rule="evenodd" clip-rule="evenodd" d="M22 12C22 17.5228 17.5228 22 12 22C6.47715 22 2 17.5228 2 12C2 6.47715 6.47715 2 12 2C17.5228 2 22 6.47715 22 12ZM21 12C21 16.9706 16.9706 21 12 21C7.02944 21 3 16.9706 3 12C3 7.02944 7.02944 3 12 3C16.9706 3 21 7.02944 21 12Z" fill="#4A4A4A"/>
<path d="M6.77531 11.7896C7.16475 11.4001 7.79615 11.4001 8.18559 11.7896L11.1983 14.8023C11.5877 15.1917 11.5877 15.8231 11.1983 16.2125C10.8088 16.602 10.1774 16.602 9.78801 16.2125L6.77531 13.1998C6.38588 12.8104 6.38588 12.179 6.77531 11.7896Z" fill="#4A4A4A"/>
<path d="M9.78801 16.2125C9.39857 15.8231 9.39908 15.1917 9.78852 14.8022L16.2995 8.29123C16.689 7.90179 17.3204 7.90179 17.7098 8.29123C18.0992 8.68066 18.0992 9.31206 17.7098 9.7015L11.1983 16.2125C10.8088 16.602 10.1774 16.602 9.78801 16.2125Z" fill="#4A4A4A"/>
</svg>
