<svg width="24" height="24" viewBox="0 0 24 24" fill="none" xmlns="http://www.w3.org/2000/svg">
<path d="M19.5 13C19.7761 13 20 12.7761 20 12.5C20 12.2239 19.7761 12 19.5 12V13ZM4.5 12.5L4.14645 12.1464C3.95118 12.3417 3.95118 12.6583 4.14645 12.8536L4.5 12.5ZM8.85355 8.85355C9.04882 8.65829 9.04882 8.34171 8.85355 8.14645C8.65829 7.95118 8.34171 7.95118 8.14645 8.14645L8.85355 8.85355ZM8.14645 16.8536C8.34171 17.0488 8.65829 17.0488 8.85355 16.8536C9.04882 16.6583 9.04882 16.3417 8.85355 16.1464L8.14645 16.8536ZM19.5 12H4.5V13H19.5V12ZM4.85355 12.8536L8.85355 8.85355L8.14645 8.14645L4.14645 12.1464L4.85355 12.8536ZM4.14645 12.8536L8.14645 16.8536L8.85355 16.1464L4.85355 12.1464L4.14645 12.8536Z" fill="#4A4A4A"/>
</svg>
