<svg width="24" height="24" viewBox="0 0 24 24" fill="none" xmlns="http://www.w3.org/2000/svg">
<path d="M13 4.5C13 4.22386 12.7761 4 12.5 4C12.2239 4 12 4.22386 12 4.5H13ZM12.5 19.5L12.1464 19.8536C12.3417 20.0488 12.6583 20.0488 12.8536 19.8536L12.5 19.5ZM8.85355 15.1464C8.65829 14.9512 8.34171 14.9512 8.14645 15.1464C7.95118 15.3417 7.95118 15.6583 8.14645 15.8536L8.85355 15.1464ZM16.8536 15.8536C17.0488 15.6583 17.0488 15.3417 16.8536 15.1464C16.6583 14.9512 16.3417 14.9512 16.1464 15.1464L16.8536 15.8536ZM12 4.5V19.5H13V4.5H12ZM12.8536 19.1464L8.85355 15.1464L8.14645 15.8536L12.1464 19.8536L12.8536 19.1464ZM12.8536 19.8536L16.8536 15.8536L16.1464 15.1464L12.1464 19.1464L12.8536 19.8536Z" fill="#4A4A4A"/>
</svg>
