<svg width="24" height="24" viewBox="0 0 24 24" fill="none" xmlns="http://www.w3.org/2000/svg">
<path d="M12 19.5C12 19.7761 12.2239 20 12.5 20C12.7761 20 13 19.7761 13 19.5H12ZM12.5 4.5L12.8536 4.14645C12.6583 3.95118 12.3417 3.95118 12.1464 4.14645L12.5 4.5ZM16.1464 8.85355C16.3417 9.04882 16.6583 9.04882 16.8536 8.85355C17.0488 8.65829 17.0488 8.34171 16.8536 8.14645L16.1464 8.85355ZM8.14645 8.14645C7.95118 8.34171 7.95118 8.65829 8.14645 8.85355C8.34171 9.04882 8.65829 9.04882 8.85355 8.85355L8.14645 8.14645ZM13 19.5V4.5H12V19.5H13ZM12.1464 4.85355L16.1464 8.85355L16.8536 8.14645L12.8536 4.14645L12.1464 4.85355ZM12.1464 4.14645L8.14645 8.14645L8.85355 8.85355L12.8536 4.85355L12.1464 4.14645Z" fill="#4A4A4A"/>
</svg>
