<svg width="24" height="24" viewBox="0 0 24 24" fill="none" xmlns="http://www.w3.org/2000/svg">
<path d="M4.5 13C4.22386 13 4 12.7761 4 12.5C4 12.2239 4.22386 12 4.5 12V13ZM19.5 12.5L19.8536 12.1464C20.0488 12.3417 20.0488 12.6583 19.8536 12.8536L19.5 12.5ZM15.1464 8.85355C14.9512 8.65829 14.9512 8.34171 15.1464 8.14645C15.3417 7.95118 15.6583 7.95118 15.8536 8.14645L15.1464 8.85355ZM15.8536 16.8536C15.6583 17.0488 15.3417 17.0488 15.1464 16.8536C14.9512 16.6583 14.9512 16.3417 15.1464 16.1464L15.8536 16.8536ZM4.5 12H19.5V13H4.5V12ZM19.1464 12.8536L15.1464 8.85355L15.8536 8.14645L19.8536 12.1464L19.1464 12.8536ZM19.8536 12.8536L15.8536 16.8536L15.1464 16.1464L19.1464 12.1464L19.8536 12.8536Z" fill="#4A4A4A"/>
</svg>
