<svg width="24" height="24" viewBox="0 0 24 24" fill="none" xmlns="http://www.w3.org/2000/svg">
<path d="M16.3536 14.3536C16.5488 14.1583 16.5488 13.8417 16.3536 13.6464C16.1583 13.4512 15.8417 13.4512 15.6464 13.6464L16.3536 14.3536ZM14.3536 8.35355C14.5488 8.15829 14.5488 7.84171 14.3536 7.64645C14.1583 7.45118 13.8417 7.45118 13.6464 7.64645L14.3536 8.35355ZM9.25 12.75L8.89645 12.3964L9.25 12.75ZM11.75 18.25L11.3964 17.8964L11.75 18.25ZM6.25 12.75L5.89645 12.3964L6.25 12.75ZM11.75 15.25L11.3964 14.8964L11.75 15.25ZM13.5 5.5L13.1464 5.14645L13.5 5.5ZM13.1464 5.14645L5.89645 12.3964L6.60355 13.1036L13.8536 5.85355L13.1464 5.14645ZM12.1036 18.6036L16.3536 14.3536L15.6464 13.6464L11.3964 17.8964L12.1036 18.6036ZM17.1464 9.14645L11.3964 14.8964L12.1036 15.6036L17.8536 9.85355L17.1464 9.14645ZM9.60355 13.1036L14.3536 8.35355L13.6464 7.64645L8.89645 12.3964L9.60355 13.1036ZM9.60355 14.8964C9.10846 14.4014 9.10846 13.5986 9.60355 13.1036L8.89645 12.3964C8.01083 13.2821 8.01083 14.7179 8.89645 15.6036L9.60355 14.8964ZM17.1464 5.85355C18.0558 6.76286 18.0558 8.23714 17.1464 9.14645L17.8536 9.85355C19.1534 8.55372 19.1534 6.44628 17.8536 5.14645L17.1464 5.85355ZM5.89645 18.6036C7.61049 20.3176 10.3895 20.3176 12.1036 18.6036L11.3964 17.8964C10.0729 19.22 7.92707 19.22 6.60355 17.8964L5.89645 18.6036ZM5.89645 12.3964C4.1824 14.1105 4.1824 16.8895 5.89645 18.6036L6.60355 17.8964C5.28003 16.5729 5.28003 14.4271 6.60355 13.1036L5.89645 12.3964ZM11.3964 14.8964C10.9014 15.3915 10.0986 15.3915 9.60355 14.8964L8.89645 15.6036C9.78206 16.4892 11.2179 16.4892 12.1036 15.6036L11.3964 14.8964ZM13.8536 5.85355C14.7629 4.94425 16.2371 4.94425 17.1464 5.85355L17.8536 5.14645C16.5537 3.84661 14.4463 3.84662 13.1464 5.14645L13.8536 5.85355Z" fill="#4A4A4A"/>
</svg>
