<svg width="24" height="24" viewBox="0 0 24 24" fill="none" xmlns="http://www.w3.org/2000/svg">
<path d="M17.7071 15.7071C18.0976 15.3166 18.0976 14.6834 17.7071 14.2929C17.3166 13.9024 16.6834 13.9024 16.2929 14.2929L17.7071 15.7071ZM13.7071 9.70711C14.0976 9.31658 14.0976 8.68342 13.7071 8.29289C13.3166 7.90237 12.6834 7.90237 12.2929 8.29289L13.7071 9.70711ZM9.5 12.5L10.2071 13.2071L9.5 12.5ZM11.7929 4.79289L5.7929 10.7929L7.20711 12.2071L13.2071 6.20711L11.7929 4.79289ZM14.2071 19.2071L17.7071 15.7071L16.2929 14.2929L12.7929 17.7929L14.2071 19.2071ZM16.7929 9.79289L11.7929 14.7929L13.2071 16.2071L18.2071 11.2071L16.7929 9.79289ZM10.2071 13.2071L13.7071 9.70711L12.2929 8.29289L8.79289 11.7929L10.2071 13.2071ZM10.2071 14.7929C9.7692 14.355 9.7692 13.645 10.2071 13.2071L8.79289 11.7929C7.57394 13.0118 7.57394 14.9882 8.79289 16.2071L10.2071 14.7929ZM16.7929 6.20711C17.7831 7.19729 17.7831 8.80271 16.7929 9.79289L18.2071 11.2071C19.9783 9.43587 19.9783 6.56413 18.2071 4.79289L16.7929 6.20711ZM5.79289 19.2071C8.11641 21.5306 11.8836 21.5306 14.2071 19.2071L12.7929 17.7929C11.2504 19.3354 8.74958 19.3354 7.20711 17.7929L5.79289 19.2071ZM5.7929 10.7929C3.46938 13.1164 3.46937 16.8836 5.79289 19.2071L7.20711 17.7929C5.66463 16.2504 5.66464 13.7496 7.20711 12.2071L5.7929 10.7929ZM11.7929 14.7929C11.355 15.2308 10.645 15.2308 10.2071 14.7929L8.79289 16.2071C10.0118 17.4261 11.9882 17.4261 13.2071 16.2071L11.7929 14.7929ZM13.2071 6.20711C14.1973 5.21692 15.8027 5.21692 16.7929 6.20711L18.2071 4.79289C16.4359 3.02166 13.5641 3.02166 11.7929 4.79289L13.2071 6.20711Z" fill="#4A4A4A"/>
</svg>
