<svg width="24" height="24" viewBox="0 0 24 24" fill="none" xmlns="http://www.w3.org/2000/svg">
<path d="M8 7.5C8 6.3535 8.33891 5.77261 8.74447 5.45718C9.17545 5.12197 9.78884 5 10.5 5H13.5C14.2112 5 14.8246 5.12197 15.2555 5.45718C15.6611 5.77261 16 6.3535 16 7.5C16 7.77614 16.2239 8 16.5 8C16.7761 8 17 7.77614 17 7.5C17 6.1465 16.5889 5.22739 15.8695 4.66782C15.1754 4.12803 14.2888 4 13.5 4H10.5C9.71116 4 8.82455 4.12803 8.13053 4.66782C7.41109 5.22739 7 6.1465 7 7.5C7 7.77614 7.22386 8 7.5 8C7.77614 8 8 7.77614 8 7.5Z" fill="#4A4A4A"/>
<path d="M9.5 12C9.5 11.7239 9.27614 11.5 9 11.5C8.72386 11.5 8.5 11.7239 8.5 12V17C8.5 17.2761 8.72386 17.5 9 17.5C9.27614 17.5 9.5 17.2761 9.5 17V12Z" fill="#4A4A4A"/>
<path d="M12.5 12C12.5 11.7239 12.2761 11.5 12 11.5C11.7239 11.5 11.5 11.7239 11.5 12V17C11.5 17.2761 11.7239 17.5 12 17.5C12.2761 17.5 12.5 17.2761 12.5 17V12Z" fill="#4A4A4A"/>
<path d="M15.5 12C15.5 11.7239 15.2761 11.5 15 11.5C14.7239 11.5 14.5 11.7239 14.5 12V17C14.5 17.2761 14.7239 17.5 15 17.5C15.2761 17.5 15.5 17.2761 15.5 17V12Z" fill="#4A4A4A"/>
<path fill-rule="evenodd" clip-rule="evenodd" d="M2 9.5C2 9.22386 2.22386 9 2.5 9H20.5L20.5013 9H21.5C21.7761 9 22 9.22386 22 9.5C22 9.77614 21.7761 10 21.5 10H20.9099L19.5903 16.5981C19.2759 18.1702 18.7001 19.08 17.891 19.556C17.135 20.0007 16.2654 20.0003 15.5537 20H8.44629C7.73462 20.0003 6.86495 20.0007 6.10899 19.556C5.29987 19.08 4.72414 18.1702 4.40971 16.5981L3.0901 10H2.5C2.22386 10 2 9.77614 2 9.5ZM4.1099 10H19.8901L18.6097 16.4019C18.3241 17.8298 17.8499 18.42 17.384 18.694C16.8841 18.9881 16.2787 19 15.5 19H8.5C7.7213 19 7.11591 18.9881 6.61601 18.694C6.15013 18.42 5.67586 17.8298 5.39029 16.4019L4.1099 10Z" fill="#4A4A4A"/>
</svg>
