<svg width="24" height="24" viewBox="0 0 24 24" fill="none" xmlns="http://www.w3.org/2000/svg">
<path fill-rule="evenodd" clip-rule="evenodd" d="M7 9V7C7 5.34315 8.34315 4 10 4H14C15.6569 4 17 5.34315 17 7V9H20.5L20.5013 9H21.5C21.7761 9 22 9.22386 22 9.5V10.5002C22 10.7763 21.7761 11 21.5 11H21L19.5903 16.5981C19.2759 18.1702 18.7001 19.08 17.891 19.556C17.135 20.0007 16.2654 20.0003 15.5537 20H8.44629C7.73462 20.0003 6.86495 20.0007 6.10899 19.556C5.29987 19.08 4.72414 18.1702 4.40971 16.5981L3 11H2.5C2.22386 11 2 10.7763 2 10.5002V9.5C2 9.22386 2.22386 9 2.5 9H7ZM10 6C9.44772 6 9 6.44772 9 7V9H15V7C15 6.44772 14.5523 6 14 6H10ZM10 11.5C10 11.2239 9.77614 11 9.5 11C9.22386 11 9 11.2239 9 11.5V16.5C9 16.7761 9.22386 17 9.5 17C9.77614 17 10 16.7761 10 16.5V11.5ZM15 11.5C15 11.2239 14.7761 11 14.5 11C14.2239 11 14 11.2239 14 11.5V16.5C14 16.7761 14.2239 17 14.5 17C14.7761 17 15 16.7761 15 16.5V11.5Z" fill="#4A4A4A"/>
</svg>
