<svg width="24" height="24" viewBox="0 0 24 24" fill="none" xmlns="http://www.w3.org/2000/svg">
<path fill-rule="evenodd" clip-rule="evenodd" d="M2 12.0854V6.5C2 5.67157 2.67157 5 3.5 5H20.5C21.3284 5 22 5.67157 22 6.5V12.0854C22.5826 12.2913 23 12.8469 23 13.5V15.5C23 15.8842 22.8556 16.2346 22.618 16.5C22.8556 16.7654 23 17.1158 23 17.5V20.5C23 20.7761 22.7761 21 22.5 21H20.5C20.2239 21 20 20.7761 20 20.5V19H4V20.5C4 20.7761 3.77614 21 3.5 21H1.5C1.22386 21 1 20.7761 1 20.5V17.5C1 17.1158 1.14443 16.7654 1.38195 16.5C1.14443 16.2346 1 15.8842 1 15.5V13.5C1 12.8469 1.4174 12.2913 2 12.0854ZM3 6.5C3 6.22386 3.22386 6 3.5 6H20.5C20.7761 6 21 6.22386 21 6.5V12H19.9146C19.9699 11.8436 20 11.6753 20 11.5V10.5C20 9.67157 19.3284 9 18.5 9H14.5C13.6716 9 13 9.67157 13 10.5V11.5C13 11.6753 13.0301 11.8436 13.0854 12H10.9146C10.9699 11.8436 11 11.6753 11 11.5V10.5C11 9.67157 10.3284 9 9.5 9H5.5C4.67157 9 4 9.67157 4 10.5V11.5C4 11.6753 4.03008 11.8436 4.08535 12H3V6.5ZM14 10.5C14 10.2239 14.2239 10 14.5 10H18.5C18.7761 10 19 10.2239 19 10.5V11.5C19 11.7761 18.7761 12 18.5 12H14.5C14.2239 12 14 11.7761 14 11.5V10.5ZM9.5 12H5.5C5.22386 12 5 11.7761 5 11.5V10.5C5 10.2239 5.22386 10 5.5 10H9.5C9.77614 10 10 10.2239 10 10.5V11.5C10 11.7761 9.77614 12 9.5 12ZM2 13.5C2 13.2239 2.22386 13 2.5 13H21.5C21.7761 13 22 13.2239 22 13.5V15.5C22 15.7761 21.7761 16 21.5 16H2.5C2.22386 16 2 15.7761 2 15.5V13.5ZM2 17.5C2 17.2239 2.22386 17 2.5 17H21.5C21.7761 17 22 17.2239 22 17.5V20H21V18.5C21 18.2239 20.7761 18 20.5 18H3.5C3.22386 18 3 18.2239 3 18.5V20H2V17.5Z" fill="#4A4A4A"/>
</svg>
