<svg width="24" height="24" viewBox="0 0 24 24" fill="none" xmlns="http://www.w3.org/2000/svg">
<path d="M20.5 19.5V20C20.7761 20 21 19.7761 21 19.5H20.5ZM3.5 19.5H3C3 19.7761 3.22386 20 3.5 20V19.5ZM3.5 18.5L3.14645 18.1464C3.05268 18.2402 3 18.3674 3 18.5H3.5ZM5.5 16.5L5.85355 16.8536C5.94732 16.7598 6 16.6326 6 16.5H5.5ZM10.5 4.5V5C10.7761 5 11 4.77614 11 4.5H10.5ZM13.5 4.5H13C13 4.77614 13.2239 5 13.5 5V4.5ZM18.5 16.5H18C18 16.6326 18.0527 16.7598 18.1464 16.8536L18.5 16.5ZM20.5 18.5H21C21 18.3674 20.9473 18.2402 20.8536 18.1464L20.5 18.5ZM4 19.5V18.5H3V19.5H4ZM3.85355 18.8536L5.85355 16.8536L5.14645 16.1464L3.14645 18.1464L3.85355 18.8536ZM5.5 16.5C6 16.5 6 16.5 6 16.5C6 16.5 6 16.4999 6 16.4999C6 16.4999 6 16.4998 6 16.4998C6 16.4997 6 16.4997 6 16.4996C6 16.4996 6 16.4995 6 16.4994C6 16.4994 6 16.4993 6 16.4992C6 16.4991 6 16.499 6 16.4989C6 16.4988 6 16.4987 6 16.4985C6 16.4984 6 16.4983 6 16.4981C6 16.498 6 16.4979 6 16.4977C6 16.4976 6 16.4974 6 16.4972C6 16.4971 6 16.4969 6 16.4967C6 16.4965 6 16.4963 6 16.4961C6 16.4959 6 16.4957 6 16.4955C6 16.4953 6 16.4951 6 16.4948C6 16.4946 6 16.4944 6 16.4941C6 16.4939 6 16.4936 6 16.4933C6 16.4931 6 16.4928 6 16.4925C6 16.4923 6 16.492 6 16.4917C6 16.4914 6 16.4911 6 16.4908C6 16.4905 6 16.4902 6 16.4898C6 16.4895 6 16.4892 6 16.4888C6 16.4885 6 16.4882 6 16.4878C6 16.4874 6 16.4871 6 16.4867C6 16.4863 6 16.486 6 16.4856C6 16.4852 6 16.4848 6 16.4844C6 16.484 6 16.4836 6 16.4832C6 16.4828 6 16.4823 6 16.4819C6 16.4815 6 16.481 6 16.4806C6 16.4801 6 16.4797 6 16.4792C6 16.4787 6 16.4783 6 16.4778C6 16.4773 6 16.4768 6 16.4763C6 16.4758 6 16.4753 6 16.4748C6 16.4743 6 16.4738 6 16.4732C6 16.4727 6 16.4722 6 16.4716C6 16.4711 6 16.4705 6 16.47C6 16.4694 6 16.4689 6 16.4683C6 16.4677 6 16.4671 6 16.4665C6 16.466 6 16.4654 6 16.4647C6 16.4641 6 16.4635 6 16.4629C6 16.4623 6 16.4616 6 16.461C6 16.4604 6 16.4597 6 16.4591C6 16.4584 6 16.4578 6 16.4571C6 16.4564 6 16.4557 6 16.4551C6 16.4544 6 16.4537 6 16.453C6 16.4523 6 16.4516 6 16.4508C6 16.4501 6 16.4494 6 16.4487C6 16.4479 6 16.4472 6 16.4464C6 16.4457 6 16.4449 6 16.4442C6 16.4434 6 16.4426 6 16.4418C6 16.4411 6 16.4403 6 16.4395C6 16.4387 6 16.4379 6 16.4371C6 16.4362 6 16.4354 6 16.4346C6 16.4338 6 16.4329 6 16.4321C6 16.4312 6 16.4304 6 16.4295C6 16.4287 6 16.4278 6 16.4269C6 16.426 6 16.4252 6 16.4243C6 16.4234 6 16.4225 6 16.4216C6 16.4206 6 16.4197 6 16.4188C6 16.4179 6 16.4169 6 16.416C6 16.4151 6 16.4141 6 16.4131C6 16.4122 6 16.4112 6 16.4102C6 16.4093 6 16.4083 6 16.4073C6 16.4063 6 16.4053 6 16.4043C6 16.4033 6 16.4023 6 16.4013C6 16.4002 6 16.3992 6 16.3982C6 16.3971 6 16.3961 6 16.395C6 16.394 6 16.3929 6 16.3918C6 16.3907 6 16.3897 6 16.3886C6 16.3875 6 16.3864 6 16.3853C6 16.3842 6 16.3831 6 16.382C6 16.3808 6 16.3797 6 16.3786C6 16.3774 6 16.3763 6 16.3751C6 16.374 6 16.3728 6 16.3716C6 16.3705 6 16.3693 6 16.3681C6 16.3669 6 16.3657 6 16.3645C6 16.3633 6 16.3621 6 16.3609C6 16.3597 6 16.3584 6 16.3572C6 16.356 6 16.3547 6 16.3535C6 16.3522 6 16.351 6 16.3497C6 16.3484 6 16.3472 6 16.3459C6 16.3446 6 16.3433 6 16.342C6 16.3407 6 16.3394 6 16.3381C6 16.3367 6 16.3354 6 16.3341C6 16.3328 6 16.3314 6 16.3301C6 16.3287 6 16.3273 6 16.326C6 16.3246 6 16.3232 6 16.3219C6 16.3205 6 16.3191 6 16.3177C6 16.3163 6 16.3149 6 16.3134C6 16.312 6 16.3106 6 16.3092C6 16.3077 6 16.3063 6 16.3048C6 16.3034 6 16.3019 6 16.3005C6 16.299 6 16.2975 6 16.296C6 16.2946 6 16.2931 6 16.2916C6 16.2901 6 16.2886 6 16.287C6 16.2855 6 16.284 6 16.2825C6 16.2809 6 16.2794 6 16.2778C6 16.2763 6 16.2747 6 16.2732C6 16.2716 6 16.27 6 16.2684C6 16.2669 6 16.2653 6 16.2637C6 16.2621 6 16.2605 6 16.2588C6 16.2572 6 16.2556 6 16.254C6 16.2523 6 16.2507 6 16.249C6 16.2474 6 16.2457 6 16.2441C6 16.2424 6 16.2407 6 16.239C6 16.2373 6 16.2357 6 16.234C6 16.2323 6 16.2305 6 16.2288C6 16.2271 6 16.2254 6 16.2236C6 16.2219 6 16.2202 6 16.2184C6 16.2167 6 16.2149 6 16.2131C6 16.2114 6 16.2096 6 16.2078C6 16.206 6 16.2042 6 16.2024C6 16.2006 6 16.1988 6 16.197C6 16.1952 6 16.1933 6 16.1915C6 16.1897 6 16.1878 6 16.186C6 16.1841 6 16.1823 6 16.1804C6 16.1785 6 16.1766 6 16.1748C6 16.1729 6 16.171 6 16.1691C6 16.1672 6 16.1652 6 16.1633C6 16.1614 6 16.1595 6 16.1575C6 16.1556 6 16.1537 6 16.1517C6 16.1497 6 16.1478 6 16.1458C6 16.1438 6 16.1418 6 16.1399C6 16.1379 6 16.1359 6 16.1339C6 16.1319 6 16.1298 6 16.1278C6 16.1258 6 16.1238 6 16.1217C6 16.1197 6 16.1176 6 16.1156C6 16.1135 6 16.1115 6 16.1094C6 16.1073 6 16.1052 6 16.1031C6 16.101 6 16.0989 6 16.0968C6 16.0947 6 16.0926 6 16.0905C6 16.0883 6 16.0862 6 16.0841C6 16.0819 6 16.0798 6 16.0776C6 16.0754 6 16.0733 6 16.0711C6 16.0689 6 16.0667 6 16.0645C6 16.0623 6 16.0601 6 16.0579C6 16.0557 6 16.0535 6 16.0513C6 16.049 6 16.0468 6 16.0445C6 16.0423 6 16.04 6 16.0378C6 16.0355 6 16.0332 6 16.0309C6 16.0287 6 16.0264 6 16.0241C6 16.0218 6 16.0195 6 16.0171C6 16.0148 6 16.0125 6 16.0102C6 16.0078 6 16.0055 6 16.0031C6 16.0008 6 15.9984 6 15.9961C6 15.9937 6 15.9913 6 15.9889C6 15.9865 6 15.9841 6 15.9817C6 15.9793 6 15.9769 6 15.9745C6 15.9721 6 15.9697 6 15.9672C6 15.9648 6 15.9623 6 15.9599C6 15.9574 6 15.9549 6 15.9525C6 15.95 6 15.9475 6 15.945C6 15.9425 6 15.94 6 15.9375C6 15.935 6 15.9325 6 15.93C6 15.9274 6 15.9249 6 15.9224C6 15.9198 6 15.9173 6 15.9147C6 15.9121 6 15.9096 6 15.907C6 15.9044 6 15.9018 6 15.8992C6 15.8966 6 15.894 6 15.8914C6 15.8888 6 15.8862 6 15.8835C6 15.8809 6 15.8783 6 15.8756C6 15.873 6 15.8703 6 15.8676C6 15.865 6 15.8623 6 15.8596C6 15.8569 6 15.8542 6 15.8515C6 15.8488 6 15.8461 6 15.8434C6 15.8407 6 15.838 6 15.8352C6 15.8325 6 15.8297 6 15.827C6 15.8242 6 15.8214 6 15.8187C6 15.8159 6 15.8131 6 15.8103C6 15.8075 6 15.8047 6 15.8019C6 15.7991 6 15.7963 6 15.7935C6 15.7906 6 15.7878 6 15.785C6 15.7821 6 15.7793 6 15.7764C6 15.7735 6 15.7707 6 15.7678C6 15.7649 6 15.762 6 15.7591C6 15.7562 6 15.7533 6 15.7504C6 15.7475 6 15.7446 6 15.7416C6 15.7387 6 15.7357 6 15.7328C6 15.7298 6 15.7269 6 15.7239C6 15.7209 6 15.718 6 15.715C6 15.712 6 15.709 6 15.706C6 15.703 6 15.7 6 15.6969C6 15.6939 6 15.6909 6 15.6878C6 15.6848 6 15.6817 6 15.6787C6 15.6756 6 15.6726 6 15.6695C6 15.6664 6 15.6633 6 15.6602C6 15.6571 6 15.654 6 15.6509C6 15.6478 6 15.6447 6 15.6415C6 15.6384 6 15.6353 6 15.6321C6 15.629 6 15.6258 6 15.6226C6 15.6195 6 15.6163 6 15.6131C6 15.6099 6 15.6067 6 15.6035C6 15.6003 6 15.5971 6 15.5939C6 15.5907 6 15.5874 6 15.5842C6 15.5809 6 15.5777 6 15.5744C6 15.5712 6 15.5679 6 15.5646C6 15.5614 6 15.5581 6 15.5548C6 15.5515 6 15.5482 6 15.5449C6 15.5415 6 15.5382 6 15.5349C6 15.5316 6 15.5282 6 15.5249C6 15.5215 6 15.5182 6 15.5148C6 15.5114 6 15.508 6 15.5047C6 15.5013 6 15.4979 6 15.4945C6 15.4911 6 15.4877 6 15.4842C6 15.4808 6 15.4774 6 15.4739C6 15.4705 6 15.467 6 15.4636C6 15.4601 6 15.4567 6 15.4532C6 15.4497 6 15.4462 6 15.4427C6 15.4392 6 15.4357 6 15.4322C6 15.4287 6 15.4252 6 15.4216C6 15.4181 6 15.4146 6 15.411C6 15.4075 6 15.4039 6 15.4003C6 15.3968 6 15.3932 6 15.3896C6 15.386 6 15.3824 6 15.3788C6 15.3752 6 15.3716 6 15.3679C6 15.3643 6 15.3607 6 15.357C6 15.3534 6 15.3497 6 15.3461C6 15.3424 6 15.3388 6 15.3351C6 15.3314 6 15.3277 6 15.324C6 15.3203 6 15.3166 6 15.3129C6 15.3092 6 15.3054 6 15.3017C6 15.298 6 15.2942 6 15.2905C6 15.2867 6 15.2829 6 15.2792C6 15.2754 6 15.2716 6 15.2678C6 15.264 6 15.2602 6 15.2564C6 15.2526 6 15.2488 6 15.245C6 15.2411 6 15.2373 6 15.2334C6 15.2296 6 15.2257 6 15.2219C6 15.218 6 15.2141 6 15.2102C6 15.2064 6 15.2025 6 15.1986C6 15.1947 6 15.1907 6 15.1868C6 15.1829 6 15.179 6 15.175C6 15.1711 6 15.1671 6 15.1632C6 15.1592 6 15.1552 6 15.1513C6 15.1473 6 15.1433 6 15.1393C6 15.1353 6 15.1313 6 15.1273C6 15.1233 6 15.1192 6 15.1152C6 15.1112 6 15.1071 6 15.1031C6 15.099 6 15.095 6 15.0909C6 15.0868 6 15.0827 6 15.0786C6 15.0746 6 15.0705 6 15.0663C6 15.0622 6 15.0581 6 15.054C6 15.0499 6 15.0457 6 15.0416C6 15.0374 6 15.0333 6 15.0291C6 15.0249 6 15.0208 6 15.0166C6 15.0124 6 15.0082 6 15.004C6 14.9998 6 14.9956 6 14.9913C6 14.9871 6 14.9829 6 14.9786C6 14.9744 6 14.9701 6 14.9659C6 14.9616 6 14.9574 6 14.9531C6 14.9488 6 14.9445 6 14.9402C6 14.9359 6 14.9316 6 14.9273C6 14.923 6 14.9186 6 14.9143C6 14.91 6 14.9056 6 14.9013C6 14.8969 6 14.8925 6 14.8882C6 14.8838 6 14.8794 6 14.875C6 14.8706 6 14.8662 6 14.8618C6 14.8574 6 14.853 6 14.8485C6 14.8441 6 14.8396 6 14.8352C6 14.8307 6 14.8263 6 14.8218C6 14.8173 6 14.8129 6 14.8084C6 14.8039 6 14.7994 6 14.7949C6 14.7904 6 14.7858 6 14.7813C6 14.7768 6 14.7722 6 14.7677C6 14.7631 6 14.7586 6 14.754C6 14.7495 6 14.7449 6 14.7403C6 14.7357 6 14.7311 6 14.7265C6 14.7219 6 14.7173 6 14.7127C6 14.708 6 14.7034 6 14.6988C6 14.6941 6 14.6895 6 14.6848C6 14.6801 6 14.6755 6 14.6708C6 14.6661 6 14.6614 6 14.6567C6 14.652 6 14.6473 6 14.6426C6 14.6379 6 14.6331 6 14.6284C6 14.6236 6 14.6189 6 14.6141C6 14.6094 6 14.6046 6 14.5998C6 14.595 6 14.5903 6 14.5855C6 14.5807 6 14.5759 6 14.571C6 14.5662 6 14.5614 6 14.5566C6 14.5517 6 14.5469 6 14.542C6 14.5372 6 14.5323 6 14.5274C6 14.5225 6 14.5177 6 14.5128C6 14.5079 6 14.503 6 14.498C6 14.4931 6 14.4882 6 14.4833C6 14.4783 6 14.4734 6 14.4684C6 14.4635 6 14.4585 6 14.4535C6 14.4486 6 14.4436 6 14.4386C6 14.4336 6 14.4286 6 14.4236C6 14.4186 6 14.4135 6 14.4085C6 14.4035 6 14.3984 6 14.3934C6 14.3883 6 14.3833 6 14.3782C6 14.3731 6 14.3681 6 14.363C6 14.3579 6 14.3528 6 14.3477C6 14.3426 6 14.3374 6 14.3323C6 14.3272 6 14.322 6 14.3169C6 14.3117 6 14.3066 6 14.3014C6 14.2962 6 14.2911 6 14.2859C6 14.2807 6 14.2755 6 14.2703C6 14.2651 6 14.2598 6 14.2546C6 14.2494 6 14.2441 6 14.2389C6 14.2336 6 14.2284 6 14.2231C6 14.2179 6 14.2126 6 14.2073C6 14.202 6 14.1967 6 14.1914C6 14.1861 6 14.1808 6 14.1754C6 14.1701 6 14.1648 6 14.1594C6 14.1541 6 14.1487 6 14.1434C6 14.138 6 14.1326 6 14.1272C6 14.1218 6 14.1165 6 14.111C6 14.1056 6 14.1002 6 14.0948C6 14.0894 6 14.0839 6 14.0785C6 14.073 6 14.0676 6 14.0621C6 14.0567 6 14.0512 6 14.0457C6 14.0402 6 14.0347 6 14.0292C6 14.0237 6 14.0182 6 14.0127C6 14.0071 6 14.0016 6 13.996C6 13.9905 6 13.9849 6 13.9794C6 13.9738 6 13.9682 6 13.9627C6 13.9571 6 13.9515 6 13.9459C6 13.9403 6 13.9346 6 13.929C6 13.9234 6 13.9178 6 13.9121C6 13.9065 6 13.9008 6 13.8951C6 13.8895 6 13.8838 6 13.8781C6 13.8724 6 13.8667 6 13.861C6 13.8553 6 13.8496 6 13.8439C6 13.8382 6 13.8324 6 13.8267C6 13.8209 6 13.8152 6 13.8094C6 13.8036 6 13.7979 6 13.7921C6 13.7863 6 13.7805 6 13.7747C6 13.7689 6 13.7631 6 13.7572C6 13.7514 6 13.7456 6 13.7397C6 13.7339 6 13.728 6 13.7222C6 13.7163 6 13.7104 6 13.7045C6 13.6986 6 13.6927 6 13.6868C6 13.6809 6 13.675 6 13.6691C6 13.6632 6 13.6572 6 13.6513C6 13.6453 6 13.6394 6 13.6334C6 13.6274 6 13.6214 6 13.6155C6 13.6095 6 13.6035 6 13.5975C6 13.5915 6 13.5854 6 13.5794C6 13.5734 6 13.5673 6 13.5613C6 13.5552 6 13.5492 6 13.5431C6 13.537 6 13.531 6 13.5249C6 13.5188 6 13.5127 6 13.5066C6 13.5005 6 13.4943 6 13.4882C6 13.4821 6 13.4759 6 13.4698C6 13.4636 6 13.4575 6 13.4513C6 13.4451 6 13.4389 6 13.4328C6 13.4266 6 13.4204 6 13.4142C6 13.4079 6 13.4017 6 13.3955C6 13.3892 6 13.383 6 13.3768C6 13.3705 6 13.3642 6 13.358C6 13.3517 6 13.3454 6 13.3391C6 13.3328 6 13.3265 6 13.3202C6 13.3139 6 13.3076 6 13.3012C6 13.2949 6 13.2885 6 13.2822C6 13.2758 6 13.2695 6 13.2631C6 13.2567 6 13.2503 6 13.2439C6 13.2375 6 13.2311 6 13.2247C6 13.2183 6 13.2119 6 13.2054C6 13.199 6 13.1925 6 13.1861C6 13.1796 6 13.1731 6 13.1667C6 13.1602 6 13.1537 6 13.1472C6 13.1407 6 13.1342 6 13.1277C6 13.1211 6 13.1146 6 13.1081C6 13.1015 6 13.095 6 13.0884C6 13.0819 6 13.0753 6 13.0687C6 13.0621 6 13.0555 6 13.0489C6 13.0423 6 13.0357 6 13.0291C6 13.0225 6 13.0158 6 13.0092C6 13.0025 6 12.9959 6 12.9892C6 12.9825 6 12.9759 6 12.9692C6 12.9625 6 12.9558 6 12.9491C6 12.9424 6 12.9357 6 12.9289C6 12.9222 6 12.9155 6 12.9087C6 12.902 6 12.8952 6 12.8884C6 12.8817 6 12.8749 6 12.8681C6 12.8613 6 12.8545 6 12.8477C6 12.8409 6 12.8341 6 12.8272C6 12.8204 6 12.8136 6 12.8067C6 12.7999 6 12.793 6 12.7861C6 12.7792 6 12.7724 6 12.7655C6 12.7586 6 12.7517 6 12.7447C6 12.7378 6 12.7309 6 12.724C6 12.717 6 12.7101 6 12.7031C6 12.6962 6 12.6892 6 12.6822C6 12.6752 6 12.6683 6 12.6613C6 12.6543 6 12.6472 6 12.6402C6 12.6332 6 12.6262 6 12.6191C6 12.6121 6 12.605 6 12.598C6 12.5909 6 12.5838 6 12.5767C6 12.5697 6 12.5626 6 12.5555C6 12.5484 6 12.5412 6 12.5341C6 12.527 6 12.5199 6 12.5127C6 12.5056 6 12.4984 6 12.4912C6 12.4841 6 12.4769 6 12.4697C6 12.4625 6 12.4553 6 12.4481C6 12.4409 6 12.4337 6 12.4264C6 12.4192 6 12.412 6 12.4047C6 12.3974 6 12.3902 6 12.3829C6 12.3756 6 12.3683 6 12.3611C6 12.3538 6 12.3465 6 12.3391C6 12.3318 6 12.3245 6 12.3172C6 12.3098 6 12.3025 6 12.2951C6 12.2877 6 12.2804 6 12.273C6 12.2656 6 12.2582 6 12.2508C6 12.2434 6 12.236 6 12.2286C6 12.2212 6 12.2137 6 12.2063C6 12.1988 6 12.1914 6 12.1839C6 12.1765 6 12.169 6 12.1615C6 12.154 6 12.1465 6 12.139C6 12.1315 6 12.124 6 12.1164C6 12.1089 6 12.1014 6 12.0938C6 12.0863 6 12.0787 6 12.0711C6 12.0636 6 12.056 6 12.0484C6 12.0408 6 12.0332 6 12.0256C6 12.0179 6 12.0103 6 12.0027C6 11.995 6 11.9874 6 11.9797C6 11.9721 6 11.9644 6 11.9567C6 11.9491 6 11.9414 6 11.9337C6 11.926 6 11.9182 6 11.9105C6 11.9028 6 11.8951 6 11.8873C6 11.8796 6 11.8718 6 11.8641C6 11.8563 6 11.8485 6 11.8407C6 11.8329 6 11.8251 6 11.8173C6 11.8095 6 11.8017 6 11.7939C6 11.786 6 11.7782 6 11.7703C6 11.7625 6 11.7546 6 11.7468C6 11.7389 6 11.731 6 11.7231C6 11.7152 6 11.7073 6 11.6994C6 11.6915 6 11.6835 6 11.6756C6 11.6677 6 11.6597 6 11.6518C6 11.6438 6 11.6358 6 11.6278C6 11.6199 6 11.6119 6 11.6039C6 11.5959 6 11.5878 6 11.5798C6 11.5718 6 11.5638 6 11.5557C6 11.5477 6 11.5396 6 11.5315C6 11.5235 6 11.5154 6 11.5073C6 11.4992 6 11.4911 6 11.483C6 11.4749 6 11.4667 6 11.4586C6 11.4505 6 11.4423 6 11.4342C6 11.426 6 11.4179 6 11.4097C6 11.4015 6 11.3933 6 11.3851C6 11.3769 6 11.3687 6 11.3605C6 11.3523 6 11.344 6 11.3358C6 11.3275 6 11.3193 6 11.311C6 11.3027 6 11.2945 6 11.2862C6 11.2779 6 11.2696 6 11.2613C6 11.253 6 11.2447 6 11.2363C6 11.228 6 11.2197 6 11.2113C6 11.2029 6 11.1946 6 11.1862C6 11.1778 6 11.1694 6 11.161C6 11.1527 6 11.1442 6 11.1358C6 11.1274 6 11.119 6 11.1105C6 11.1021 6 11.0936 6 11.0852C6 11.0767 6 11.0682 6 11.0598C6 11.0513 6 11.0428 6 11.0343C6 11.0258 6 11.0172 6 11.0087C6 11.0002 6 10.9916 6 10.9831C6 10.9745 6 10.966 6 10.9574C6 10.9488 6 10.9402 6 10.9317C6 10.9231 6 10.9144 6 10.9058C6 10.8972 6 10.8886 6 10.8799C6 10.8713 6 10.8627 6 10.854C6 10.8453 6 10.8367 6 10.828C6 10.8193 6 10.8106 6 10.8019C6 10.7932 6 10.7845 6 10.7757C6 10.767 6 10.7583 6 10.7495C6 10.7408 6 10.732 6 10.7232C6 10.7145 6 10.7057 6 10.6969C6 10.6881 6 10.6793 6 10.6705C6 10.6616 6 10.6528 6 10.644C6 10.6351 6 10.6263 6 10.6174C6 10.6086 6 10.5997 6 10.5908C6 10.5819 6 10.573 6 10.5641C6 10.5552 6 10.5463 6 10.5374C6 10.5284 6 10.5195 6 10.5105C6 10.5016 6 10.4926 6 10.4837C6 10.4747 6 10.4657 6 10.4567C6 10.4477 6 10.4387 6 10.4297C6 10.4207 6 10.4116 6 10.4026C6 10.3935 6 10.3845 6 10.3754C6 10.3664 6 10.3573 6 10.3482C6 10.3391 6 10.33 6 10.3209C6 10.3118 6 10.3027 6 10.2936C6 10.2844 6 10.2753 6 10.2661C6 10.257 6 10.2478 6 10.2386C6 10.2295 6 10.2203 6 10.2111C6 10.2019 6 10.1927 6 10.1835C6 10.1742 6 10.165 6 10.1558C6 10.1465 6 10.1373 6 10.128C6 10.1187 6 10.1095 6 10.1002C6 10.0909 6 10.0816 6 10.0723C6 10.063 6 10.0536 6 10.0443C6 10.035 6 10.0256 6 10.0163C6 10.0069 6 9.99754 6 9.98816C6 9.97878 6 9.96939 6 9.95999C6 9.95059 6 9.94118 6 9.93175C6 9.92233 6 9.91289 6 9.90345C6 9.894 6 9.88454 6 9.87507C6 9.8656 6 9.85612 6 9.84663C6 9.83714 6 9.82764 6 9.81812C6 9.80861 6 9.79908 6 9.78954C6 9.78001 6 9.77046 6 9.7609C6 9.75134 6 9.74176 6 9.73218C6 9.7226 6 9.713 6 9.7034C6 9.69379 6 9.68418 6 9.67455C6 9.66492 6 9.65528 6 9.64563C6 9.63598 6 9.62631 6 9.61664C6 9.60696 6 9.59728 6 9.58758C6 9.57788 6 9.56818 6 9.55846C6 9.54874 6 9.53901 6 9.52926C6 9.51952 6 9.50977 6 9.5H5C5 9.50977 5 9.51952 5 9.52926C5 9.53901 5 9.54874 5 9.55846C5 9.56818 5 9.57788 5 9.58758C5 9.59728 5 9.60696 5 9.61664C5 9.62631 5 9.63598 5 9.64563C5 9.65528 5 9.66492 5 9.67455C5 9.68418 5 9.69379 5 9.7034C5 9.713 5 9.7226 5 9.73218C5 9.74176 5 9.75134 5 9.7609C5 9.77046 5 9.78001 5 9.78954C5 9.79908 5 9.80861 5 9.81812C5 9.82764 5 9.83714 5 9.84663C5 9.85612 5 9.8656 5 9.87507C5 9.88454 5 9.894 5 9.90345C5 9.91289 5 9.92233 5 9.93175C5 9.94118 5 9.95059 5 9.95999C5 9.96939 5 9.97878 5 9.98816C5 9.99754 5 10.0069 5 10.0163C5 10.0256 5 10.035 5 10.0443C5 10.0536 5 10.063 5 10.0723C5 10.0816 5 10.0909 5 10.1002C5 10.1095 5 10.1187 5 10.128C5 10.1373 5 10.1465 5 10.1558C5 10.165 5 10.1742 5 10.1835C5 10.1927 5 10.2019 5 10.2111C5 10.2203 5 10.2295 5 10.2386C5 10.2478 5 10.257 5 10.2661C5 10.2753 5 10.2844 5 10.2936C5 10.3027 5 10.3118 5 10.3209C5 10.33 5 10.3391 5 10.3482C5 10.3573 5 10.3664 5 10.3754C5 10.3845 5 10.3935 5 10.4026C5 10.4116 5 10.4207 5 10.4297C5 10.4387 5 10.4477 5 10.4567C5 10.4657 5 10.4747 5 10.4837C5 10.4926 5 10.5016 5 10.5105C5 10.5195 5 10.5284 5 10.5374C5 10.5463 5 10.5552 5 10.5641C5 10.573 5 10.5819 5 10.5908C5 10.5997 5 10.6086 5 10.6174C5 10.6263 5 10.6351 5 10.644C5 10.6528 5 10.6616 5 10.6705C5 10.6793 5 10.6881 5 10.6969C5 10.7057 5 10.7145 5 10.7232C5 10.732 5 10.7408 5 10.7495C5 10.7583 5 10.767 5 10.7757C5 10.7845 5 10.7932 5 10.8019C5 10.8106 5 10.8193 5 10.828C5 10.8367 5 10.8453 5 10.854C5 10.8627 5 10.8713 5 10.8799C5 10.8886 5 10.8972 5 10.9058C5 10.9144 5 10.9231 5 10.9317C5 10.9402 5 10.9488 5 10.9574C5 10.966 5 10.9745 5 10.9831C5 10.9916 5 11.0002 5 11.0087C5 11.0172 5 11.0258 5 11.0343C5 11.0428 5 11.0513 5 11.0598C5 11.0682 5 11.0767 5 11.0852C5 11.0936 5 11.1021 5 11.1105C5 11.119 5 11.1274 5 11.1358C5 11.1442 5 11.1527 5 11.161C5 11.1694 5 11.1778 5 11.1862C5 11.1946 5 11.2029 5 11.2113C5 11.2197 5 11.228 5 11.2363C5 11.2447 5 11.253 5 11.2613C5 11.2696 5 11.2779 5 11.2862C5 11.2945 5 11.3027 5 11.311C5 11.3193 5 11.3275 5 11.3358C5 11.344 5 11.3523 5 11.3605C5 11.3687 5 11.3769 5 11.3851C5 11.3933 5 11.4015 5 11.4097C5 11.4179 5 11.426 5 11.4342C5 11.4423 5 11.4505 5 11.4586C5 11.4667 5 11.4749 5 11.483C5 11.4911 5 11.4992 5 11.5073C5 11.5154 5 11.5235 5 11.5315C5 11.5396 5 11.5477 5 11.5557C5 11.5638 5 11.5718 5 11.5798C5 11.5878 5 11.5959 5 11.6039C5 11.6119 5 11.6199 5 11.6278C5 11.6358 5 11.6438 5 11.6518C5 11.6597 5 11.6677 5 11.6756C5 11.6835 5 11.6915 5 11.6994C5 11.7073 5 11.7152 5 11.7231C5 11.731 5 11.7389 5 11.7468C5 11.7546 5 11.7625 5 11.7703C5 11.7782 5 11.786 5 11.7939C5 11.8017 5 11.8095 5 11.8173C5 11.8251 5 11.8329 5 11.8407C5 11.8485 5 11.8563 5 11.8641C5 11.8718 5 11.8796 5 11.8873C5 11.8951 5 11.9028 5 11.9105C5 11.9182 5 11.926 5 11.9337C5 11.9414 5 11.9491 5 11.9567C5 11.9644 5 11.9721 5 11.9797C5 11.9874 5 11.995 5 12.0027C5 12.0103 5 12.0179 5 12.0256C5 12.0332 5 12.0408 5 12.0484C5 12.056 5 12.0636 5 12.0711C5 12.0787 5 12.0863 5 12.0938C5 12.1014 5 12.1089 5 12.1164C5 12.124 5 12.1315 5 12.139C5 12.1465 5 12.154 5 12.1615C5 12.169 5 12.1765 5 12.1839C5 12.1914 5 12.1988 5 12.2063C5 12.2137 5 12.2212 5 12.2286C5 12.236 5 12.2434 5 12.2508C5 12.2582 5 12.2656 5 12.273C5 12.2804 5 12.2877 5 12.2951C5 12.3025 5 12.3098 5 12.3172C5 12.3245 5 12.3318 5 12.3391C5 12.3465 5 12.3538 5 12.3611C5 12.3683 5 12.3756 5 12.3829C5 12.3902 5 12.3974 5 12.4047C5 12.412 5 12.4192 5 12.4264C5 12.4337 5 12.4409 5 12.4481C5 12.4553 5 12.4625 5 12.4697C5 12.4769 5 12.4841 5 12.4912C5 12.4984 5 12.5056 5 12.5127C5 12.5199 5 12.527 5 12.5341C5 12.5412 5 12.5484 5 12.5555C5 12.5626 5 12.5697 5 12.5767C5 12.5838 5 12.5909 5 12.598C5 12.605 5 12.6121 5 12.6191C5 12.6262 5 12.6332 5 12.6402C5 12.6472 5 12.6543 5 12.6613C5 12.6683 5 12.6752 5 12.6822C5 12.6892 5 12.6962 5 12.7031C5 12.7101 5 12.717 5 12.724C5 12.7309 5 12.7378 5 12.7447C5 12.7517 5 12.7586 5 12.7655C5 12.7724 5 12.7792 5 12.7861C5 12.793 5 12.7999 5 12.8067C5 12.8136 5 12.8204 5 12.8272C5 12.8341 5 12.8409 5 12.8477C5 12.8545 5 12.8613 5 12.8681C5 12.8749 5 12.8817 5 12.8884C5 12.8952 5 12.902 5 12.9087C5 12.9155 5 12.9222 5 12.9289C5 12.9357 5 12.9424 5 12.9491C5 12.9558 5 12.9625 5 12.9692C5 12.9759 5 12.9825 5 12.9892C5 12.9959 5 13.0025 5 13.0092C5 13.0158 5 13.0225 5 13.0291C5 13.0357 5 13.0423 5 13.0489C5 13.0555 5 13.0621 5 13.0687C5 13.0753 5 13.0819 5 13.0884C5 13.095 5 13.1015 5 13.1081C5 13.1146 5 13.1211 5 13.1277C5 13.1342 5 13.1407 5 13.1472C5 13.1537 5 13.1602 5 13.1667C5 13.1731 5 13.1796 5 13.1861C5 13.1925 5 13.199 5 13.2054C5 13.2119 5 13.2183 5 13.2247C5 13.2311 5 13.2375 5 13.2439C5 13.2503 5 13.2567 5 13.2631C5 13.2695 5 13.2758 5 13.2822C5 13.2885 5 13.2949 5 13.3012C5 13.3076 5 13.3139 5 13.3202C5 13.3265 5 13.3328 5 13.3391C5 13.3454 5 13.3517 5 13.358C5 13.3642 5 13.3705 5 13.3768C5 13.383 5 13.3892 5 13.3955C5 13.4017 5 13.4079 5 13.4142C5 13.4204 5 13.4266 5 13.4328C5 13.4389 5 13.4451 5 13.4513C5 13.4575 5 13.4636 5 13.4698C5 13.4759 5 13.4821 5 13.4882C5 13.4943 5 13.5005 5 13.5066C5 13.5127 5 13.5188 5 13.5249C5 13.531 5 13.537 5 13.5431C5 13.5492 5 13.5552 5 13.5613C5 13.5673 5 13.5734 5 13.5794C5 13.5854 5 13.5915 5 13.5975C5 13.6035 5 13.6095 5 13.6155C5 13.6214 5 13.6274 5 13.6334C5 13.6394 5 13.6453 5 13.6513C5 13.6572 5 13.6632 5 13.6691C5 13.675 5 13.6809 5 13.6868C5 13.6927 5 13.6986 5 13.7045C5 13.7104 5 13.7163 5 13.7222C5 13.728 5 13.7339 5 13.7397C5 13.7456 5 13.7514 5 13.7572C5 13.7631 5 13.7689 5 13.7747C5 13.7805 5 13.7863 5 13.7921C5 13.7979 5 13.8036 5 13.8094C5 13.8152 5 13.8209 5 13.8267C5 13.8324 5 13.8382 5 13.8439C5 13.8496 5 13.8553 5 13.861C5 13.8667 5 13.8724 5 13.8781C5 13.8838 5 13.8895 5 13.8951C5 13.9008 5 13.9065 5 13.9121C5 13.9178 5 13.9234 5 13.929C5 13.9346 5 13.9403 5 13.9459C5 13.9515 5 13.9571 5 13.9627C5 13.9682 5 13.9738 5 13.9794C5 13.9849 5 13.9905 5 13.996C5 14.0016 5 14.0071 5 14.0127C5 14.0182 5 14.0237 5 14.0292C5 14.0347 5 14.0402 5 14.0457C5 14.0512 5 14.0567 5 14.0621C5 14.0676 5 14.073 5 14.0785C5 14.0839 5 14.0894 5 14.0948C5 14.1002 5 14.1056 5 14.111C5 14.1165 5 14.1218 5 14.1272C5 14.1326 5 14.138 5 14.1434C5 14.1487 5 14.1541 5 14.1594C5 14.1648 5 14.1701 5 14.1754C5 14.1808 5 14.1861 5 14.1914C5 14.1967 5 14.202 5 14.2073C5 14.2126 5 14.2179 5 14.2231C5 14.2284 5 14.2336 5 14.2389C5 14.2441 5 14.2494 5 14.2546C5 14.2598 5 14.2651 5 14.2703C5 14.2755 5 14.2807 5 14.2859C5 14.2911 5 14.2962 5 14.3014C5 14.3066 5 14.3117 5 14.3169C5 14.322 5 14.3272 5 14.3323C5 14.3374 5 14.3426 5 14.3477C5 14.3528 5 14.3579 5 14.363C5 14.3681 5 14.3731 5 14.3782C5 14.3833 5 14.3883 5 14.3934C5 14.3984 5 14.4035 5 14.4085C5 14.4135 5 14.4186 5 14.4236C5 14.4286 5 14.4336 5 14.4386C5 14.4436 5 14.4486 5 14.4535C5 14.4585 5 14.4635 5 14.4684C5 14.4734 5 14.4783 5 14.4833C5 14.4882 5 14.4931 5 14.498C5 14.503 5 14.5079 5 14.5128C5 14.5177 5 14.5225 5 14.5274C5 14.5323 5 14.5372 5 14.542C5 14.5469 5 14.5517 5 14.5566C5 14.5614 5 14.5662 5 14.571C5 14.5759 5 14.5807 5 14.5855C5 14.5903 5 14.595 5 14.5998C5 14.6046 5 14.6094 5 14.6141C5 14.6189 5 14.6236 5 14.6284C5 14.6331 5 14.6379 5 14.6426C5 14.6473 5 14.652 5 14.6567C5 14.6614 5 14.6661 5 14.6708C5 14.6755 5 14.6801 5 14.6848C5 14.6895 5 14.6941 5 14.6988C5 14.7034 5 14.708 5 14.7127C5 14.7173 5 14.7219 5 14.7265C5 14.7311 5 14.7357 5 14.7403C5 14.7449 5 14.7495 5 14.754C5 14.7586 5 14.7631 5 14.7677C5 14.7722 5 14.7768 5 14.7813C5 14.7858 5 14.7904 5 14.7949C5 14.7994 5 14.8039 5 14.8084C5 14.8129 5 14.8173 5 14.8218C5 14.8263 5 14.8307 5 14.8352C5 14.8396 5 14.8441 5 14.8485C5 14.853 5 14.8574 5 14.8618C5 14.8662 5 14.8706 5 14.875C5 14.8794 5 14.8838 5 14.8882C5 14.8925 5 14.8969 5 14.9013C5 14.9056 5 14.91 5 14.9143C5 14.9186 5 14.923 5 14.9273C5 14.9316 5 14.9359 5 14.9402C5 14.9445 5 14.9488 5 14.9531C5 14.9574 5 14.9616 5 14.9659C5 14.9701 5 14.9744 5 14.9786C5 14.9829 5 14.9871 5 14.9913C5 14.9956 5 14.9998 5 15.004C5 15.0082 5 15.0124 5 15.0166C5 15.0208 5 15.0249 5 15.0291C5 15.0333 5 15.0374 5 15.0416C5 15.0457 5 15.0499 5 15.054C5 15.0581 5 15.0622 5 15.0663C5 15.0705 5 15.0746 5 15.0786C5 15.0827 5 15.0868 5 15.0909C5 15.095 5 15.099 5 15.1031C5 15.1071 5 15.1112 5 15.1152C5 15.1192 5 15.1233 5 15.1273C5 15.1313 5 15.1353 5 15.1393C5 15.1433 5 15.1473 5 15.1513C5 15.1552 5 15.1592 5 15.1632C5 15.1671 5 15.1711 5 15.175C5 15.179 5 15.1829 5 15.1868C5 15.1907 5 15.1947 5 15.1986C5 15.2025 5 15.2064 5 15.2102C5 15.2141 5 15.218 5 15.2219C5 15.2257 5 15.2296 5 15.2334C5 15.2373 5 15.2411 5 15.245C5 15.2488 5 15.2526 5 15.2564C5 15.2602 5 15.264 5 15.2678C5 15.2716 5 15.2754 5 15.2792C5 15.2829 5 15.2867 5 15.2905C5 15.2942 5 15.298 5 15.3017C5 15.3054 5 15.3092 5 15.3129C5 15.3166 5 15.3203 5 15.324C5 15.3277 5 15.3314 5 15.3351C5 15.3388 5 15.3424 5 15.3461C5 15.3497 5 15.3534 5 15.357C5 15.3607 5 15.3643 5 15.3679C5 15.3716 5 15.3752 5 15.3788C5 15.3824 5 15.386 5 15.3896C5 15.3932 5 15.3968 5 15.4003C5 15.4039 5 15.4075 5 15.411C5 15.4146 5 15.4181 5 15.4216C5 15.4252 5 15.4287 5 15.4322C5 15.4357 5 15.4392 5 15.4427C5 15.4462 5 15.4497 5 15.4532C5 15.4567 5 15.4601 5 15.4636C5 15.467 5 15.4705 5 15.4739C5 15.4774 5 15.4808 5 15.4842C5 15.4877 5 15.4911 5 15.4945C5 15.4979 5 15.5013 5 15.5047C5 15.508 5 15.5114 5 15.5148C5 15.5182 5 15.5215 5 15.5249C5 15.5282 5 15.5316 5 15.5349C5 15.5382 5 15.5415 5 15.5449C5 15.5482 5 15.5515 5 15.5548C5 15.5581 5 15.5614 5 15.5646C5 15.5679 5 15.5712 5 15.5744C5 15.5777 5 15.5809 5 15.5842C5 15.5874 5 15.5907 5 15.5939C5 15.5971 5 15.6003 5 15.6035C5 15.6067 5 15.6099 5 15.6131C5 15.6163 5 15.6195 5 15.6226C5 15.6258 5 15.629 5 15.6321C5 15.6353 5 15.6384 5 15.6415C5 15.6447 5 15.6478 5 15.6509C5 15.654 5 15.6571 5 15.6602C5 15.6633 5 15.6664 5 15.6695C5 15.6726 5 15.6756 5 15.6787C5 15.6817 5 15.6848 5 15.6878C5 15.6909 5 15.6939 5 15.6969C5 15.7 5 15.703 5 15.706C5 15.709 5 15.712 5 15.715C5 15.718 5 15.7209 5 15.7239C5 15.7269 5 15.7298 5 15.7328C5 15.7357 5 15.7387 5 15.7416C5 15.7446 5 15.7475 5 15.7504C5 15.7533 5 15.7562 5 15.7591C5 15.762 5 15.7649 5 15.7678C5 15.7707 5 15.7735 5 15.7764C5 15.7793 5 15.7821 5 15.785C5 15.7878 5 15.7906 5 15.7935C5 15.7963 5 15.7991 5 15.8019C5 15.8047 5 15.8075 5 15.8103C5 15.8131 5 15.8159 5 15.8187C5 15.8214 5 15.8242 5 15.827C5 15.8297 5 15.8325 5 15.8352C5 15.838 5 15.8407 5 15.8434C5 15.8461 5 15.8488 5 15.8515C5 15.8542 5 15.8569 5 15.8596C5 15.8623 5 15.865 5 15.8676C5 15.8703 5 15.873 5 15.8756C5 15.8783 5 15.8809 5 15.8835C5 15.8862 5 15.8888 5 15.8914C5 15.894 5 15.8966 5 15.8992C5 15.9018 5 15.9044 5 15.907C5 15.9096 5 15.9121 5 15.9147C5 15.9173 5 15.9198 5 15.9224C5 15.9249 5 15.9274 5 15.93C5 15.9325 5 15.935 5 15.9375C5 15.94 5 15.9425 5 15.945C5 15.9475 5 15.95 5 15.9525C5 15.9549 5 15.9574 5 15.9599C5 15.9623 5 15.9648 5 15.9672C5 15.9697 5 15.9721 5 15.9745C5 15.9769 5 15.9793 5 15.9817C5 15.9841 5 15.9865 5 15.9889C5 15.9913 5 15.9937 5 15.9961C5 15.9984 5 16.0008 5 16.0031C5 16.0055 5 16.0078 5 16.0102C5 16.0125 5 16.0148 5 16.0171C5 16.0195 5 16.0218 5 16.0241C5 16.0264 5 16.0287 5 16.0309C5 16.0332 5 16.0355 5 16.0378C5 16.04 5 16.0423 5 16.0445C5 16.0468 5 16.049 5 16.0513C5 16.0535 5 16.0557 5 16.0579C5 16.0601 5 16.0623 5 16.0645C5 16.0667 5 16.0689 5 16.0711C5 16.0733 5 16.0754 5 16.0776C5 16.0798 5 16.0819 5 16.0841C5 16.0862 5 16.0883 5 16.0905C5 16.0926 5 16.0947 5 16.0968C5 16.0989 5 16.101 5 16.1031C5 16.1052 5 16.1073 5 16.1094C5 16.1115 5 16.1135 5 16.1156C5 16.1176 5 16.1197 5 16.1217C5 16.1238 5 16.1258 5 16.1278C5 16.1298 5 16.1319 5 16.1339C5 16.1359 5 16.1379 5 16.1399C5 16.1418 5 16.1438 5 16.1458C5 16.1478 5 16.1497 5 16.1517C5 16.1537 5 16.1556 5 16.1575C5 16.1595 5 16.1614 5 16.1633C5 16.1652 5 16.1672 5 16.1691C5 16.171 5 16.1729 5 16.1748C5 16.1766 5 16.1785 5 16.1804C5 16.1823 5 16.1841 5 16.186C5 16.1878 5 16.1897 5 16.1915C5 16.1933 5 16.1952 5 16.197C5 16.1988 5 16.2006 5 16.2024C5 16.2042 5 16.206 5 16.2078C5 16.2096 5 16.2114 5 16.2131C5 16.2149 5 16.2167 5 16.2184C5 16.2202 5 16.2219 5 16.2236C5 16.2254 5 16.2271 5 16.2288C5 16.2305 5 16.2323 5 16.234C5 16.2357 5 16.2373 5 16.239C5 16.2407 5 16.2424 5 16.2441C5 16.2457 5 16.2474 5 16.249C5 16.2507 5 16.2523 5 16.254C5 16.2556 5 16.2572 5 16.2588C5 16.2605 5 16.2621 5 16.2637C5 16.2653 5 16.2669 5 16.2684C5 16.27 5 16.2716 5 16.2732C5 16.2747 5 16.2763 5 16.2778C5 16.2794 5 16.2809 5 16.2825C5 16.284 5 16.2855 5 16.287C5 16.2886 5 16.2901 5 16.2916C5 16.2931 5 16.2946 5 16.296C5 16.2975 5 16.299 5 16.3005C5 16.3019 5 16.3034 5 16.3048C5 16.3063 5 16.3077 5 16.3092C5 16.3106 5 16.312 5 16.3134C5 16.3149 5 16.3163 5 16.3177C5 16.3191 5 16.3205 5 16.3219C5 16.3232 5 16.3246 5 16.326C5 16.3273 5 16.3287 5 16.3301C5 16.3314 5 16.3328 5 16.3341C5 16.3354 5 16.3367 5 16.3381C5 16.3394 5 16.3407 5 16.342C5 16.3433 5 16.3446 5 16.3459C5 16.3472 5 16.3484 5 16.3497C5 16.351 5 16.3522 5 16.3535C5 16.3547 5 16.356 5 16.3572C5 16.3584 5 16.3597 5 16.3609C5 16.3621 5 16.3633 5 16.3645C5 16.3657 5 16.3669 5 16.3681C5 16.3693 5 16.3705 5 16.3716C5 16.3728 5 16.374 5 16.3751C5 16.3763 5 16.3774 5 16.3786C5 16.3797 5 16.3808 5 16.382C5 16.3831 5 16.3842 5 16.3853C5 16.3864 5 16.3875 5 16.3886C5 16.3897 5 16.3907 5 16.3918C5 16.3929 5 16.394 5 16.395C5 16.3961 5 16.3971 5 16.3982C5 16.3992 5 16.4002 5 16.4013C5 16.4023 5 16.4033 5 16.4043C5 16.4053 5 16.4063 5 16.4073C5 16.4083 5 16.4093 5 16.4102C5 16.4112 5 16.4122 5 16.4131C5 16.4141 5 16.4151 5 16.416C5 16.4169 5 16.4179 5 16.4188C5 16.4197 5 16.4206 5 16.4216C5 16.4225 5 16.4234 5 16.4243C5 16.4252 5 16.426 5 16.4269C5 16.4278 5 16.4287 5 16.4295C5 16.4304 5 16.4312 5 16.4321C5 16.4329 5 16.4338 5 16.4346C5 16.4354 5 16.4362 5 16.4371C5 16.4379 5 16.4387 5 16.4395C5 16.4403 5 16.4411 5 16.4418C5 16.4426 5 16.4434 5 16.4442C5 16.4449 5 16.4457 5 16.4464C5 16.4472 5 16.4479 5 16.4487C5 16.4494 5 16.4501 5 16.4508C5 16.4516 5 16.4523 5 16.453C5 16.4537 5 16.4544 5 16.4551C5 16.4557 5 16.4564 5 16.4571C5 16.4578 5 16.4584 5 16.4591C5 16.4597 5 16.4604 5 16.461C5 16.4616 5 16.4623 5 16.4629C5 16.4635 5 16.4641 5 16.4647C5 16.4654 5 16.466 5 16.4665C5 16.4671 5 16.4677 5 16.4683C5 16.4689 5 16.4694 5 16.47C5 16.4705 5 16.4711 5 16.4716C5 16.4722 5 16.4727 5 16.4732C5 16.4738 5 16.4743 5 16.4748C5 16.4753 5 16.4758 5 16.4763C5 16.4768 5 16.4773 5 16.4778C5 16.4783 5 16.4787 5 16.4792C5 16.4797 5 16.4801 5 16.4806C5 16.481 5 16.4815 5 16.4819C5 16.4823 5 16.4828 5 16.4832C5 16.4836 5 16.484 5 16.4844C5 16.4848 5 16.4852 5 16.4856C5 16.486 5 16.4863 5 16.4867C5 16.4871 5 16.4874 5 16.4878C5 16.4882 5 16.4885 5 16.4888C5 16.4892 5 16.4895 5 16.4898C5 16.4902 5 16.4905 5 16.4908C5 16.4911 5 16.4914 5 16.4917C5 16.492 5 16.4923 5 16.4925C5 16.4928 5 16.4931 5 16.4933C5 16.4936 5 16.4939 5 16.4941C5 16.4944 5 16.4946 5 16.4948C5 16.4951 5 16.4953 5 16.4955C5 16.4957 5 16.4959 5 16.4961C5 16.4963 5 16.4965 5 16.4967C5 16.4969 5 16.4971 5 16.4972C5 16.4974 5 16.4976 5 16.4977C5 16.4979 5 16.498 5 16.4981C5 16.4983 5 16.4984 5 16.4985C5 16.4987 5 16.4988 5 16.4989C5 16.499 5 16.4991 5 16.4992C5 16.4993 5 16.4994 5 16.4994C5 16.4995 5 16.4996 5 16.4996C5 16.4997 5 16.4997 5 16.4998C5 16.4998 5 16.4999 5 16.4999C5 16.4999 5 16.5 5 16.5C5 16.5 5 16.5 5.5 16.5ZM6 9.5C6 8.33749 6.28919 7.49885 6.69728 6.88672C7.10745 6.27147 7.65792 5.85506 8.22361 5.57221C8.79125 5.28839 9.36495 5.14399 9.80095 5.07132C10.0178 5.03519 10.1974 5.01731 10.3208 5.0085C10.3824 5.00409 10.4298 5.00197 10.4605 5.00094C10.4759 5.00043 10.487 5.0002 10.4937 5.00009C10.4971 5.00003 10.4993 5.00001 10.5003 5C10.5009 5 10.5011 5 10.5011 5C10.501 5 10.5009 5 10.5008 5C10.5007 5 10.5005 5 10.5004 5C10.5002 5 10.5 5 10.5 4.5C10.5 4 10.4997 4 10.4995 4C10.4993 4 10.499 4 10.4988 4C10.4983 4 10.4978 4 10.4971 4.00001C10.4959 4.00001 10.4943 4.00002 10.4924 4.00003C10.4887 4.00006 10.4837 4.00012 10.4776 4.00022C10.4654 4.00041 10.4485 4.00079 10.4272 4.0015C10.3847 4.00292 10.3246 4.00567 10.2495 4.01104C10.0995 4.02175 9.88848 4.04294 9.63655 4.08493C9.13505 4.16851 8.45875 4.33661 7.77639 4.67779C7.09208 5.01994 6.39255 5.54103 5.86522 6.33202C5.33581 7.12615 5 8.16251 5 9.5H6ZM11 4.5V4H10V4.5H11ZM13 4V4.5H14V4H13ZM13.5 4.5C13.5 5 13.4998 5 13.4996 5C13.4995 5 13.4993 5 13.4992 5C13.4991 5 13.499 5 13.4989 5C13.4989 5 13.4991 5 13.4997 5C13.5007 5.00001 13.5029 5.00003 13.5063 5.00009C13.513 5.0002 13.5241 5.00043 13.5395 5.00094C13.5702 5.00197 13.6176 5.00409 13.6792 5.0085C13.8026 5.01731 13.9822 5.03519 14.1991 5.07132C14.6351 5.14399 15.2088 5.28839 15.7764 5.57221C16.3421 5.85506 16.8926 6.27147 17.3027 6.88672C17.7108 7.49885 18 8.33749 18 9.5H19C19 8.16251 18.6642 7.12615 18.1348 6.33202C17.6074 5.54103 16.9079 5.01994 16.2236 4.67779C15.5412 4.33661 14.8649 4.16851 14.3634 4.08493C14.1115 4.04294 13.9005 4.02175 13.7505 4.01104C13.6754 4.00567 13.6153 4.00292 13.5728 4.0015C13.5515 4.00079 13.5346 4.00041 13.5224 4.00022C13.5163 4.00012 13.5113 4.00006 13.5076 4.00003C13.5057 4.00002 13.5041 4.00001 13.5029 4.00001C13.5022 4 13.5017 4 13.5012 4C13.501 4 13.5007 4 13.5005 4C13.5003 4 13.5 4 13.5 4.5ZM18 9.5C18 9.50977 18 9.51952 18 9.52926C18 9.53901 18 9.54874 18 9.55846C18 9.56818 18 9.57788 18 9.58758C18 9.59728 18 9.60696 18 9.61664C18 9.62631 18 9.63598 18 9.64563C18 9.65528 18 9.66492 18 9.67455C18 9.68418 18 9.69379 18 9.7034C18 9.713 18 9.7226 18 9.73218C18 9.74176 18 9.75134 18 9.7609C18 9.77046 18 9.78001 18 9.78954C18 9.79908 18 9.80861 18 9.81812C18 9.82764 18 9.83714 18 9.84663C18 9.85612 18 9.8656 18 9.87507C18 9.88454 18 9.894 18 9.90345C18 9.91289 18 9.92233 18 9.93175C18 9.94118 18 9.95059 18 9.95999C18 9.96939 18 9.97878 18 9.98816C18 9.99754 18 10.0069 18 10.0163C18 10.0256 18 10.035 18 10.0443C18 10.0536 18 10.063 18 10.0723C18 10.0816 18 10.0909 18 10.1002C18 10.1095 18 10.1187 18 10.128C18 10.1373 18 10.1465 18 10.1558C18 10.165 18 10.1742 18 10.1835C18 10.1927 18 10.2019 18 10.2111C18 10.2203 18 10.2295 18 10.2386C18 10.2478 18 10.257 18 10.2661C18 10.2753 18 10.2844 18 10.2936C18 10.3027 18 10.3118 18 10.3209C18 10.33 18 10.3391 18 10.3482C18 10.3573 18 10.3664 18 10.3754C18 10.3845 18 10.3935 18 10.4026C18 10.4116 18 10.4207 18 10.4297C18 10.4387 18 10.4477 18 10.4567C18 10.4657 18 10.4747 18 10.4837C18 10.4926 18 10.5016 18 10.5105C18 10.5195 18 10.5284 18 10.5374C18 10.5463 18 10.5552 18 10.5641C18 10.573 18 10.5819 18 10.5908C18 10.5997 18 10.6086 18 10.6174C18 10.6263 18 10.6351 18 10.644C18 10.6528 18 10.6616 18 10.6705C18 10.6793 18 10.6881 18 10.6969C18 10.7057 18 10.7145 18 10.7232C18 10.732 18 10.7408 18 10.7495C18 10.7583 18 10.767 18 10.7757C18 10.7845 18 10.7932 18 10.8019C18 10.8106 18 10.8193 18 10.828C18 10.8367 18 10.8453 18 10.854C18 10.8627 18 10.8713 18 10.8799C18 10.8886 18 10.8972 18 10.9058C18 10.9144 18 10.9231 18 10.9317C18 10.9402 18 10.9488 18 10.9574C18 10.966 18 10.9745 18 10.9831C18 10.9916 18 11.0002 18 11.0087C18 11.0172 18 11.0258 18 11.0343C18 11.0428 18 11.0513 18 11.0598C18 11.0682 18 11.0767 18 11.0852C18 11.0936 18 11.1021 18 11.1105C18 11.119 18 11.1274 18 11.1358C18 11.1442 18 11.1527 18 11.161C18 11.1694 18 11.1778 18 11.1862C18 11.1946 18 11.2029 18 11.2113C18 11.2197 18 11.228 18 11.2363C18 11.2447 18 11.253 18 11.2613C18 11.2696 18 11.2779 18 11.2862C18 11.2945 18 11.3027 18 11.311C18 11.3193 18 11.3275 18 11.3358C18 11.344 18 11.3523 18 11.3605C18 11.3687 18 11.3769 18 11.3851C18 11.3933 18 11.4015 18 11.4097C18 11.4179 18 11.426 18 11.4342C18 11.4423 18 11.4505 18 11.4586C18 11.4667 18 11.4749 18 11.483C18 11.4911 18 11.4992 18 11.5073C18 11.5154 18 11.5235 18 11.5315C18 11.5396 18 11.5477 18 11.5557C18 11.5638 18 11.5718 18 11.5798C18 11.5878 18 11.5959 18 11.6039C18 11.6119 18 11.6199 18 11.6278C18 11.6358 18 11.6438 18 11.6518C18 11.6597 18 11.6677 18 11.6756C18 11.6835 18 11.6915 18 11.6994C18 11.7073 18 11.7152 18 11.7231C18 11.731 18 11.7389 18 11.7468C18 11.7546 18 11.7625 18 11.7703C18 11.7782 18 11.786 18 11.7939C18 11.8017 18 11.8095 18 11.8173C18 11.8251 18 11.8329 18 11.8407C18 11.8485 18 11.8563 18 11.8641C18 11.8718 18 11.8796 18 11.8873C18 11.8951 18 11.9028 18 11.9105C18 11.9182 18 11.926 18 11.9337C18 11.9414 18 11.9491 18 11.9567C18 11.9644 18 11.9721 18 11.9797C18 11.9874 18 11.995 18 12.0027C18 12.0103 18 12.0179 18 12.0256C18 12.0332 18 12.0408 18 12.0484C18 12.056 18 12.0636 18 12.0711C18 12.0787 18 12.0863 18 12.0938C18 12.1014 18 12.1089 18 12.1164C18 12.124 18 12.1315 18 12.139C18 12.1465 18 12.154 18 12.1615C18 12.169 18 12.1765 18 12.1839C18 12.1914 18 12.1988 18 12.2063C18 12.2137 18 12.2212 18 12.2286C18 12.236 18 12.2434 18 12.2508C18 12.2582 18 12.2656 18 12.273C18 12.2804 18 12.2877 18 12.2951C18 12.3025 18 12.3098 18 12.3172C18 12.3245 18 12.3318 18 12.3391C18 12.3465 18 12.3538 18 12.3611C18 12.3683 18 12.3756 18 12.3829C18 12.3902 18 12.3974 18 12.4047C18 12.412 18 12.4192 18 12.4264C18 12.4337 18 12.4409 18 12.4481C18 12.4553 18 12.4625 18 12.4697C18 12.4769 18 12.4841 18 12.4912C18 12.4984 18 12.5056 18 12.5127C18 12.5199 18 12.527 18 12.5341C18 12.5412 18 12.5484 18 12.5555C18 12.5626 18 12.5697 18 12.5767C18 12.5838 18 12.5909 18 12.598C18 12.605 18 12.6121 18 12.6191C18 12.6262 18 12.6332 18 12.6402C18 12.6472 18 12.6543 18 12.6613C18 12.6683 18 12.6752 18 12.6822C18 12.6892 18 12.6962 18 12.7031C18 12.7101 18 12.717 18 12.724C18 12.7309 18 12.7378 18 12.7447C18 12.7517 18 12.7586 18 12.7655C18 12.7724 18 12.7792 18 12.7861C18 12.793 18 12.7999 18 12.8067C18 12.8136 18 12.8204 18 12.8272C18 12.8341 18 12.8409 18 12.8477C18 12.8545 18 12.8613 18 12.8681C18 12.8749 18 12.8817 18 12.8884C18 12.8952 18 12.902 18 12.9087C18 12.9155 18 12.9222 18 12.9289C18 12.9357 18 12.9424 18 12.9491C18 12.9558 18 12.9625 18 12.9692C18 12.9759 18 12.9825 18 12.9892C18 12.9959 18 13.0025 18 13.0092C18 13.0158 18 13.0225 18 13.0291C18 13.0357 18 13.0423 18 13.0489C18 13.0555 18 13.0621 18 13.0687C18 13.0753 18 13.0819 18 13.0884C18 13.095 18 13.1015 18 13.1081C18 13.1146 18 13.1211 18 13.1277C18 13.1342 18 13.1407 18 13.1472C18 13.1537 18 13.1602 18 13.1667C18 13.1731 18 13.1796 18 13.1861C18 13.1925 18 13.199 18 13.2054C18 13.2119 18 13.2183 18 13.2247C18 13.2311 18 13.2375 18 13.2439C18 13.2503 18 13.2567 18 13.2631C18 13.2695 18 13.2758 18 13.2822C18 13.2885 18 13.2949 18 13.3012C18 13.3076 18 13.3139 18 13.3202C18 13.3265 18 13.3328 18 13.3391C18 13.3454 18 13.3517 18 13.358C18 13.3642 18 13.3705 18 13.3768C18 13.383 18 13.3892 18 13.3955C18 13.4017 18 13.4079 18 13.4142C18 13.4204 18 13.4266 18 13.4328C18 13.4389 18 13.4451 18 13.4513C18 13.4575 18 13.4636 18 13.4698C18 13.4759 18 13.4821 18 13.4882C18 13.4943 18 13.5005 18 13.5066C18 13.5127 18 13.5188 18 13.5249C18 13.531 18 13.537 18 13.5431C18 13.5492 18 13.5552 18 13.5613C18 13.5673 18 13.5734 18 13.5794C18 13.5854 18 13.5915 18 13.5975C18 13.6035 18 13.6095 18 13.6155C18 13.6214 18 13.6274 18 13.6334C18 13.6394 18 13.6453 18 13.6513C18 13.6572 18 13.6632 18 13.6691C18 13.675 18 13.6809 18 13.6868C18 13.6927 18 13.6986 18 13.7045C18 13.7104 18 13.7163 18 13.7222C18 13.728 18 13.7339 18 13.7397C18 13.7456 18 13.7514 18 13.7572C18 13.7631 18 13.7689 18 13.7747C18 13.7805 18 13.7863 18 13.7921C18 13.7979 18 13.8036 18 13.8094C18 13.8152 18 13.8209 18 13.8267C18 13.8324 18 13.8382 18 13.8439C18 13.8496 18 13.8553 18 13.861C18 13.8667 18 13.8724 18 13.8781C18 13.8838 18 13.8895 18 13.8951C18 13.9008 18 13.9065 18 13.9121C18 13.9178 18 13.9234 18 13.929C18 13.9346 18 13.9403 18 13.9459C18 13.9515 18 13.9571 18 13.9627C18 13.9682 18 13.9738 18 13.9794C18 13.9849 18 13.9905 18 13.996C18 14.0016 18 14.0071 18 14.0127C18 14.0182 18 14.0237 18 14.0292C18 14.0347 18 14.0402 18 14.0457C18 14.0512 18 14.0567 18 14.0621C18 14.0676 18 14.073 18 14.0785C18 14.0839 18 14.0894 18 14.0948C18 14.1002 18 14.1056 18 14.111C18 14.1165 18 14.1218 18 14.1272C18 14.1326 18 14.138 18 14.1434C18 14.1487 18 14.1541 18 14.1594C18 14.1648 18 14.1701 18 14.1754C18 14.1808 18 14.1861 18 14.1914C18 14.1967 18 14.202 18 14.2073C18 14.2126 18 14.2179 18 14.2231C18 14.2284 18 14.2336 18 14.2389C18 14.2441 18 14.2494 18 14.2546C18 14.2598 18 14.2651 18 14.2703C18 14.2755 18 14.2807 18 14.2859C18 14.2911 18 14.2962 18 14.3014C18 14.3066 18 14.3117 18 14.3169C18 14.322 18 14.3272 18 14.3323C18 14.3374 18 14.3426 18 14.3477C18 14.3528 18 14.3579 18 14.363C18 14.3681 18 14.3731 18 14.3782C18 14.3833 18 14.3883 18 14.3934C18 14.3984 18 14.4035 18 14.4085C18 14.4135 18 14.4186 18 14.4236C18 14.4286 18 14.4336 18 14.4386C18 14.4436 18 14.4486 18 14.4535C18 14.4585 18 14.4635 18 14.4684C18 14.4734 18 14.4783 18 14.4833C18 14.4882 18 14.4931 18 14.498C18 14.503 18 14.5079 18 14.5128C18 14.5177 18 14.5225 18 14.5274C18 14.5323 18 14.5372 18 14.542C18 14.5469 18 14.5517 18 14.5566C18 14.5614 18 14.5662 18 14.571C18 14.5759 18 14.5807 18 14.5855C18 14.5903 18 14.595 18 14.5998C18 14.6046 18 14.6094 18 14.6141C18 14.6189 18 14.6236 18 14.6284C18 14.6331 18 14.6379 18 14.6426C18 14.6473 18 14.652 18 14.6567C18 14.6614 18 14.6661 18 14.6708C18 14.6755 18 14.6801 18 14.6848C18 14.6895 18 14.6941 18 14.6988C18 14.7034 18 14.708 18 14.7127C18 14.7173 18 14.7219 18 14.7265C18 14.7311 18 14.7357 18 14.7403C18 14.7449 18 14.7495 18 14.754C18 14.7586 18 14.7631 18 14.7677C18 14.7722 18 14.7768 18 14.7813C18 14.7858 18 14.7904 18 14.7949C18 14.7994 18 14.8039 18 14.8084C18 14.8129 18 14.8173 18 14.8218C18 14.8263 18 14.8307 18 14.8352C18 14.8396 18 14.8441 18 14.8485C18 14.853 18 14.8574 18 14.8618C18 14.8662 18 14.8706 18 14.875C18 14.8794 18 14.8838 18 14.8882C18 14.8925 18 14.8969 18 14.9013C18 14.9056 18 14.91 18 14.9143C18 14.9186 18 14.923 18 14.9273C18 14.9316 18 14.9359 18 14.9402C18 14.9445 18 14.9488 18 14.9531C18 14.9574 18 14.9616 18 14.9659C18 14.9701 18 14.9744 18 14.9786C18 14.9829 18 14.9871 18 14.9913C18 14.9956 18 14.9998 18 15.004C18 15.0082 18 15.0124 18 15.0166C18 15.0208 18 15.0249 18 15.0291C18 15.0333 18 15.0374 18 15.0416C18 15.0457 18 15.0499 18 15.054C18 15.0581 18 15.0622 18 15.0663C18 15.0705 18 15.0746 18 15.0786C18 15.0827 18 15.0868 18 15.0909C18 15.095 18 15.099 18 15.1031C18 15.1071 18 15.1112 18 15.1152C18 15.1192 18 15.1233 18 15.1273C18 15.1313 18 15.1353 18 15.1393C18 15.1433 18 15.1473 18 15.1513C18 15.1552 18 15.1592 18 15.1632C18 15.1671 18 15.1711 18 15.175C18 15.179 18 15.1829 18 15.1868C18 15.1907 18 15.1947 18 15.1986C18 15.2025 18 15.2064 18 15.2102C18 15.2141 18 15.218 18 15.2219C18 15.2257 18 15.2296 18 15.2334C18 15.2373 18 15.2411 18 15.245C18 15.2488 18 15.2526 18 15.2564C18 15.2602 18 15.264 18 15.2678C18 15.2716 18 15.2754 18 15.2792C18 15.2829 18 15.2867 18 15.2905C18 15.2942 18 15.298 18 15.3017C18 15.3054 18 15.3092 18 15.3129C18 15.3166 18 15.3203 18 15.324C18 15.3277 18 15.3314 18 15.3351C18 15.3388 18 15.3424 18 15.3461C18 15.3497 18 15.3534 18 15.357C18 15.3607 18 15.3643 18 15.3679C18 15.3716 18 15.3752 18 15.3788C18 15.3824 18 15.386 18 15.3896C18 15.3932 18 15.3968 18 15.4003C18 15.4039 18 15.4075 18 15.411C18 15.4146 18 15.4181 18 15.4216C18 15.4252 18 15.4287 18 15.4322C18 15.4357 18 15.4392 18 15.4427C18 15.4462 18 15.4497 18 15.4532C18 15.4567 18 15.4601 18 15.4636C18 15.467 18 15.4705 18 15.4739C18 15.4774 18 15.4808 18 15.4842C18 15.4877 18 15.4911 18 15.4945C18 15.4979 18 15.5013 18 15.5047C18 15.508 18 15.5114 18 15.5148C18 15.5182 18 15.5215 18 15.5249C18 15.5282 18 15.5316 18 15.5349C18 15.5382 18 15.5415 18 15.5449C18 15.5482 18 15.5515 18 15.5548C18 15.5581 18 15.5614 18 15.5646C18 15.5679 18 15.5712 18 15.5744C18 15.5777 18 15.5809 18 15.5842C18 15.5874 18 15.5907 18 15.5939C18 15.5971 18 15.6003 18 15.6035C18 15.6067 18 15.6099 18 15.6131C18 15.6163 18 15.6195 18 15.6226C18 15.6258 18 15.629 18 15.6321C18 15.6353 18 15.6384 18 15.6415C18 15.6447 18 15.6478 18 15.6509C18 15.654 18 15.6571 18 15.6602C18 15.6633 18 15.6664 18 15.6695C18 15.6726 18 15.6756 18 15.6787C18 15.6817 18 15.6848 18 15.6878C18 15.6909 18 15.6939 18 15.6969C18 15.7 18 15.703 18 15.706C18 15.709 18 15.712 18 15.715C18 15.718 18 15.7209 18 15.7239C18 15.7269 18 15.7298 18 15.7328C18 15.7357 18 15.7387 18 15.7416C18 15.7446 18 15.7475 18 15.7504C18 15.7533 18 15.7562 18 15.7591C18 15.762 18 15.7649 18 15.7678C18 15.7707 18 15.7735 18 15.7764C18 15.7793 18 15.7821 18 15.785C18 15.7878 18 15.7906 18 15.7935C18 15.7963 18 15.7991 18 15.8019C18 15.8047 18 15.8075 18 15.8103C18 15.8131 18 15.8159 18 15.8187C18 15.8214 18 15.8242 18 15.827C18 15.8297 18 15.8325 18 15.8352C18 15.838 18 15.8407 18 15.8434C18 15.8461 18 15.8488 18 15.8515C18 15.8542 18 15.8569 18 15.8596C18 15.8623 18 15.865 18 15.8676C18 15.8703 18 15.873 18 15.8756C18 15.8783 18 15.8809 18 15.8835C18 15.8862 18 15.8888 18 15.8914C18 15.894 18 15.8966 18 15.8992C18 15.9018 18 15.9044 18 15.907C18 15.9096 18 15.9121 18 15.9147C18 15.9173 18 15.9198 18 15.9224C18 15.9249 18 15.9274 18 15.93C18 15.9325 18 15.935 18 15.9375C18 15.94 18 15.9425 18 15.945C18 15.9475 18 15.95 18 15.9525C18 15.9549 18 15.9574 18 15.9599C18 15.9623 18 15.9648 18 15.9672C18 15.9697 18 15.9721 18 15.9745C18 15.9769 18 15.9793 18 15.9817C18 15.9841 18 15.9865 18 15.9889C18 15.9913 18 15.9937 18 15.9961C18 15.9984 18 16.0008 18 16.0031C18 16.0055 18 16.0078 18 16.0102C18 16.0125 18 16.0148 18 16.0171C18 16.0195 18 16.0218 18 16.0241C18 16.0264 18 16.0287 18 16.0309C18 16.0332 18 16.0355 18 16.0378C18 16.04 18 16.0423 18 16.0445C18 16.0468 18 16.049 18 16.0513C18 16.0535 18 16.0557 18 16.0579C18 16.0601 18 16.0623 18 16.0645C18 16.0667 18 16.0689 18 16.0711C18 16.0733 18 16.0754 18 16.0776C18 16.0798 18 16.0819 18 16.0841C18 16.0862 18 16.0883 18 16.0905C18 16.0926 18 16.0947 18 16.0968C18 16.0989 18 16.101 18 16.1031C18 16.1052 18 16.1073 18 16.1094C18 16.1115 18 16.1135 18 16.1156C18 16.1176 18 16.1197 18 16.1217C18 16.1238 18 16.1258 18 16.1278C18 16.1298 18 16.1319 18 16.1339C18 16.1359 18 16.1379 18 16.1399C18 16.1418 18 16.1438 18 16.1458C18 16.1478 18 16.1497 18 16.1517C18 16.1537 18 16.1556 18 16.1575C18 16.1595 18 16.1614 18 16.1633C18 16.1652 18 16.1672 18 16.1691C18 16.171 18 16.1729 18 16.1748C18 16.1766 18 16.1785 18 16.1804C18 16.1823 18 16.1841 18 16.186C18 16.1878 18 16.1897 18 16.1915C18 16.1933 18 16.1952 18 16.197C18 16.1988 18 16.2006 18 16.2024C18 16.2042 18 16.206 18 16.2078C18 16.2096 18 16.2114 18 16.2131C18 16.2149 18 16.2167 18 16.2184C18 16.2202 18 16.2219 18 16.2236C18 16.2254 18 16.2271 18 16.2288C18 16.2305 18 16.2323 18 16.234C18 16.2357 18 16.2373 18 16.239C18 16.2407 18 16.2424 18 16.2441C18 16.2457 18 16.2474 18 16.249C18 16.2507 18 16.2523 18 16.254C18 16.2556 18 16.2572 18 16.2588C18 16.2605 18 16.2621 18 16.2637C18 16.2653 18 16.2669 18 16.2684C18 16.27 18 16.2716 18 16.2732C18 16.2747 18 16.2763 18 16.2778C18 16.2794 18 16.2809 18 16.2825C18 16.284 18 16.2855 18 16.287C18 16.2886 18 16.2901 18 16.2916C18 16.2931 18 16.2946 18 16.296C18 16.2975 18 16.299 18 16.3005C18 16.3019 18 16.3034 18 16.3048C18 16.3063 18 16.3077 18 16.3092C18 16.3106 18 16.312 18 16.3134C18 16.3149 18 16.3163 18 16.3177C18 16.3191 18 16.3205 18 16.3219C18 16.3232 18 16.3246 18 16.326C18 16.3273 18 16.3287 18 16.3301C18 16.3314 18 16.3328 18 16.3341C18 16.3354 18 16.3367 18 16.3381C18 16.3394 18 16.3407 18 16.342C18 16.3433 18 16.3446 18 16.3459C18 16.3472 18 16.3484 18 16.3497C18 16.351 18 16.3522 18 16.3535C18 16.3547 18 16.356 18 16.3572C18 16.3584 18 16.3597 18 16.3609C18 16.3621 18 16.3633 18 16.3645C18 16.3657 18 16.3669 18 16.3681C18 16.3693 18 16.3705 18 16.3716C18 16.3728 18 16.374 18 16.3751C18 16.3763 18 16.3774 18 16.3786C18 16.3797 18 16.3808 18 16.382C18 16.3831 18 16.3842 18 16.3853C18 16.3864 18 16.3875 18 16.3886C18 16.3897 18 16.3907 18 16.3918C18 16.3929 18 16.394 18 16.395C18 16.3961 18 16.3971 18 16.3982C18 16.3992 18 16.4002 18 16.4013C18 16.4023 18 16.4033 18 16.4043C18 16.4053 18 16.4063 18 16.4073C18 16.4083 18 16.4093 18 16.4102C18 16.4112 18 16.4122 18 16.4131C18 16.4141 18 16.4151 18 16.416C18 16.4169 18 16.4179 18 16.4188C18 16.4197 18 16.4206 18 16.4216C18 16.4225 18 16.4234 18 16.4243C18 16.4252 18 16.426 18 16.4269C18 16.4278 18 16.4287 18 16.4295C18 16.4304 18 16.4312 18 16.4321C18 16.4329 18 16.4338 18 16.4346C18 16.4354 18 16.4362 18 16.4371C18 16.4379 18 16.4387 18 16.4395C18 16.4403 18 16.4411 18 16.4418C18 16.4426 18 16.4434 18 16.4442C18 16.4449 18 16.4457 18 16.4464C18 16.4472 18 16.4479 18 16.4487C18 16.4494 18 16.4501 18 16.4508C18 16.4516 18 16.4523 18 16.453C18 16.4537 18 16.4544 18 16.4551C18 16.4557 18 16.4564 18 16.4571C18 16.4578 18 16.4584 18 16.4591C18 16.4597 18 16.4604 18 16.461C18 16.4616 18 16.4623 18 16.4629C18 16.4635 18 16.4641 18 16.4647C18 16.4654 18 16.466 18 16.4665C18 16.4671 18 16.4677 18 16.4683C18 16.4689 18 16.4694 18 16.47C18 16.4705 18 16.4711 18 16.4716C18 16.4722 18 16.4727 18 16.4732C18 16.4738 18 16.4743 18 16.4748C18 16.4753 18 16.4758 18 16.4763C18 16.4768 18 16.4773 18 16.4778C18 16.4783 18 16.4787 18 16.4792C18 16.4797 18 16.4801 18 16.4806C18 16.481 18 16.4815 18 16.4819C18 16.4823 18 16.4828 18 16.4832C18 16.4836 18 16.484 18 16.4844C18 16.4848 18 16.4852 18 16.4856C18 16.486 18 16.4863 18 16.4867C18 16.4871 18 16.4874 18 16.4878C18 16.4882 18 16.4885 18 16.4888C18 16.4892 18 16.4895 18 16.4898C18 16.4902 18 16.4905 18 16.4908C18 16.4911 18 16.4914 18 16.4917C18 16.492 18 16.4923 18 16.4925C18 16.4928 18 16.4931 18 16.4933C18 16.4936 18 16.4939 18 16.4941C18 16.4944 18 16.4946 18 16.4948C18 16.4951 18 16.4953 18 16.4955C18 16.4957 18 16.4959 18 16.4961C18 16.4963 18 16.4965 18 16.4967C18 16.4969 18 16.4971 18 16.4972C18 16.4974 18 16.4976 18 16.4977C18 16.4979 18 16.498 18 16.4981C18 16.4983 18 16.4984 18 16.4985C18 16.4987 18 16.4988 18 16.4989C18 16.499 18 16.4991 18 16.4992C18 16.4993 18 16.4994 18 16.4994C18 16.4995 18 16.4996 18 16.4996C18 16.4997 18 16.4997 18 16.4998C18 16.4998 18 16.4999 18 16.4999C18 16.4999 18 16.5 18 16.5C18 16.5 18 16.5 18.5 16.5C19 16.5 19 16.5 19 16.5C19 16.5 19 16.4999 19 16.4999C19 16.4999 19 16.4998 19 16.4998C19 16.4997 19 16.4997 19 16.4996C19 16.4996 19 16.4995 19 16.4994C19 16.4994 19 16.4993 19 16.4992C19 16.4991 19 16.499 19 16.4989C19 16.4988 19 16.4987 19 16.4985C19 16.4984 19 16.4983 19 16.4981C19 16.498 19 16.4979 19 16.4977C19 16.4976 19 16.4974 19 16.4972C19 16.4971 19 16.4969 19 16.4967C19 16.4965 19 16.4963 19 16.4961C19 16.4959 19 16.4957 19 16.4955C19 16.4953 19 16.4951 19 16.4948C19 16.4946 19 16.4944 19 16.4941C19 16.4939 19 16.4936 19 16.4933C19 16.4931 19 16.4928 19 16.4925C19 16.4923 19 16.492 19 16.4917C19 16.4914 19 16.4911 19 16.4908C19 16.4905 19 16.4902 19 16.4898C19 16.4895 19 16.4892 19 16.4888C19 16.4885 19 16.4882 19 16.4878C19 16.4874 19 16.4871 19 16.4867C19 16.4863 19 16.486 19 16.4856C19 16.4852 19 16.4848 19 16.4844C19 16.484 19 16.4836 19 16.4832C19 16.4828 19 16.4823 19 16.4819C19 16.4815 19 16.481 19 16.4806C19 16.4801 19 16.4797 19 16.4792C19 16.4787 19 16.4783 19 16.4778C19 16.4773 19 16.4768 19 16.4763C19 16.4758 19 16.4753 19 16.4748C19 16.4743 19 16.4738 19 16.4732C19 16.4727 19 16.4722 19 16.4716C19 16.4711 19 16.4705 19 16.47C19 16.4694 19 16.4689 19 16.4683C19 16.4677 19 16.4671 19 16.4665C19 16.466 19 16.4654 19 16.4647C19 16.4641 19 16.4635 19 16.4629C19 16.4623 19 16.4616 19 16.461C19 16.4604 19 16.4597 19 16.4591C19 16.4584 19 16.4578 19 16.4571C19 16.4564 19 16.4557 19 16.4551C19 16.4544 19 16.4537 19 16.453C19 16.4523 19 16.4516 19 16.4508C19 16.4501 19 16.4494 19 16.4487C19 16.4479 19 16.4472 19 16.4464C19 16.4457 19 16.4449 19 16.4442C19 16.4434 19 16.4426 19 16.4418C19 16.4411 19 16.4403 19 16.4395C19 16.4387 19 16.4379 19 16.4371C19 16.4362 19 16.4354 19 16.4346C19 16.4338 19 16.4329 19 16.4321C19 16.4312 19 16.4304 19 16.4295C19 16.4287 19 16.4278 19 16.4269C19 16.426 19 16.4252 19 16.4243C19 16.4234 19 16.4225 19 16.4216C19 16.4206 19 16.4197 19 16.4188C19 16.4179 19 16.4169 19 16.416C19 16.4151 19 16.4141 19 16.4131C19 16.4122 19 16.4112 19 16.4102C19 16.4093 19 16.4083 19 16.4073C19 16.4063 19 16.4053 19 16.4043C19 16.4033 19 16.4023 19 16.4013C19 16.4002 19 16.3992 19 16.3982C19 16.3971 19 16.3961 19 16.395C19 16.394 19 16.3929 19 16.3918C19 16.3907 19 16.3897 19 16.3886C19 16.3875 19 16.3864 19 16.3853C19 16.3842 19 16.3831 19 16.382C19 16.3808 19 16.3797 19 16.3786C19 16.3774 19 16.3763 19 16.3751C19 16.374 19 16.3728 19 16.3716C19 16.3705 19 16.3693 19 16.3681C19 16.3669 19 16.3657 19 16.3645C19 16.3633 19 16.3621 19 16.3609C19 16.3597 19 16.3584 19 16.3572C19 16.356 19 16.3547 19 16.3535C19 16.3522 19 16.351 19 16.3497C19 16.3484 19 16.3472 19 16.3459C19 16.3446 19 16.3433 19 16.342C19 16.3407 19 16.3394 19 16.3381C19 16.3367 19 16.3354 19 16.3341C19 16.3328 19 16.3314 19 16.3301C19 16.3287 19 16.3273 19 16.326C19 16.3246 19 16.3232 19 16.3219C19 16.3205 19 16.3191 19 16.3177C19 16.3163 19 16.3149 19 16.3134C19 16.312 19 16.3106 19 16.3092C19 16.3077 19 16.3063 19 16.3048C19 16.3034 19 16.3019 19 16.3005C19 16.299 19 16.2975 19 16.296C19 16.2946 19 16.2931 19 16.2916C19 16.2901 19 16.2886 19 16.287C19 16.2855 19 16.284 19 16.2825C19 16.2809 19 16.2794 19 16.2778C19 16.2763 19 16.2747 19 16.2732C19 16.2716 19 16.27 19 16.2684C19 16.2669 19 16.2653 19 16.2637C19 16.2621 19 16.2605 19 16.2588C19 16.2572 19 16.2556 19 16.254C19 16.2523 19 16.2507 19 16.249C19 16.2474 19 16.2457 19 16.2441C19 16.2424 19 16.2407 19 16.239C19 16.2373 19 16.2357 19 16.234C19 16.2323 19 16.2305 19 16.2288C19 16.2271 19 16.2254 19 16.2236C19 16.2219 19 16.2202 19 16.2184C19 16.2167 19 16.2149 19 16.2131C19 16.2114 19 16.2096 19 16.2078C19 16.206 19 16.2042 19 16.2024C19 16.2006 19 16.1988 19 16.197C19 16.1952 19 16.1933 19 16.1915C19 16.1897 19 16.1878 19 16.186C19 16.1841 19 16.1823 19 16.1804C19 16.1785 19 16.1766 19 16.1748C19 16.1729 19 16.171 19 16.1691C19 16.1672 19 16.1652 19 16.1633C19 16.1614 19 16.1595 19 16.1575C19 16.1556 19 16.1537 19 16.1517C19 16.1497 19 16.1478 19 16.1458C19 16.1438 19 16.1418 19 16.1399C19 16.1379 19 16.1359 19 16.1339C19 16.1319 19 16.1298 19 16.1278C19 16.1258 19 16.1238 19 16.1217C19 16.1197 19 16.1176 19 16.1156C19 16.1135 19 16.1115 19 16.1094C19 16.1073 19 16.1052 19 16.1031C19 16.101 19 16.0989 19 16.0968C19 16.0947 19 16.0926 19 16.0905C19 16.0883 19 16.0862 19 16.0841C19 16.0819 19 16.0798 19 16.0776C19 16.0754 19 16.0733 19 16.0711C19 16.0689 19 16.0667 19 16.0645C19 16.0623 19 16.0601 19 16.0579C19 16.0557 19 16.0535 19 16.0513C19 16.049 19 16.0468 19 16.0445C19 16.0423 19 16.04 19 16.0378C19 16.0355 19 16.0332 19 16.0309C19 16.0287 19 16.0264 19 16.0241C19 16.0218 19 16.0195 19 16.0171C19 16.0148 19 16.0125 19 16.0102C19 16.0078 19 16.0055 19 16.0031C19 16.0008 19 15.9984 19 15.9961C19 15.9937 19 15.9913 19 15.9889C19 15.9865 19 15.9841 19 15.9817C19 15.9793 19 15.9769 19 15.9745C19 15.9721 19 15.9697 19 15.9672C19 15.9648 19 15.9623 19 15.9599C19 15.9574 19 15.9549 19 15.9525C19 15.95 19 15.9475 19 15.945C19 15.9425 19 15.94 19 15.9375C19 15.935 19 15.9325 19 15.93C19 15.9274 19 15.9249 19 15.9224C19 15.9198 19 15.9173 19 15.9147C19 15.9121 19 15.9096 19 15.907C19 15.9044 19 15.9018 19 15.8992C19 15.8966 19 15.894 19 15.8914C19 15.8888 19 15.8862 19 15.8835C19 15.8809 19 15.8783 19 15.8756C19 15.873 19 15.8703 19 15.8676C19 15.865 19 15.8623 19 15.8596C19 15.8569 19 15.8542 19 15.8515C19 15.8488 19 15.8461 19 15.8434C19 15.8407 19 15.838 19 15.8352C19 15.8325 19 15.8297 19 15.827C19 15.8242 19 15.8214 19 15.8187C19 15.8159 19 15.8131 19 15.8103C19 15.8075 19 15.8047 19 15.8019C19 15.7991 19 15.7963 19 15.7935C19 15.7906 19 15.7878 19 15.785C19 15.7821 19 15.7793 19 15.7764C19 15.7735 19 15.7707 19 15.7678C19 15.7649 19 15.762 19 15.7591C19 15.7562 19 15.7533 19 15.7504C19 15.7475 19 15.7446 19 15.7416C19 15.7387 19 15.7357 19 15.7328C19 15.7298 19 15.7269 19 15.7239C19 15.7209 19 15.718 19 15.715C19 15.712 19 15.709 19 15.706C19 15.703 19 15.7 19 15.6969C19 15.6939 19 15.6909 19 15.6878C19 15.6848 19 15.6817 19 15.6787C19 15.6756 19 15.6726 19 15.6695C19 15.6664 19 15.6633 19 15.6602C19 15.6571 19 15.654 19 15.6509C19 15.6478 19 15.6447 19 15.6415C19 15.6384 19 15.6353 19 15.6321C19 15.629 19 15.6258 19 15.6226C19 15.6195 19 15.6163 19 15.6131C19 15.6099 19 15.6067 19 15.6035C19 15.6003 19 15.5971 19 15.5939C19 15.5907 19 15.5874 19 15.5842C19 15.5809 19 15.5777 19 15.5744C19 15.5712 19 15.5679 19 15.5646C19 15.5614 19 15.5581 19 15.5548C19 15.5515 19 15.5482 19 15.5449C19 15.5415 19 15.5382 19 15.5349C19 15.5316 19 15.5282 19 15.5249C19 15.5215 19 15.5182 19 15.5148C19 15.5114 19 15.508 19 15.5047C19 15.5013 19 15.4979 19 15.4945C19 15.4911 19 15.4877 19 15.4842C19 15.4808 19 15.4774 19 15.4739C19 15.4705 19 15.467 19 15.4636C19 15.4601 19 15.4567 19 15.4532C19 15.4497 19 15.4462 19 15.4427C19 15.4392 19 15.4357 19 15.4322C19 15.4287 19 15.4252 19 15.4216C19 15.4181 19 15.4146 19 15.411C19 15.4075 19 15.4039 19 15.4003C19 15.3968 19 15.3932 19 15.3896C19 15.386 19 15.3824 19 15.3788C19 15.3752 19 15.3716 19 15.3679C19 15.3643 19 15.3607 19 15.357C19 15.3534 19 15.3497 19 15.3461C19 15.3424 19 15.3388 19 15.3351C19 15.3314 19 15.3277 19 15.324C19 15.3203 19 15.3166 19 15.3129C19 15.3092 19 15.3054 19 15.3017C19 15.298 19 15.2942 19 15.2905C19 15.2867 19 15.2829 19 15.2792C19 15.2754 19 15.2716 19 15.2678C19 15.264 19 15.2602 19 15.2564C19 15.2526 19 15.2488 19 15.245C19 15.2411 19 15.2373 19 15.2334C19 15.2296 19 15.2257 19 15.2219C19 15.218 19 15.2141 19 15.2102C19 15.2064 19 15.2025 19 15.1986C19 15.1947 19 15.1907 19 15.1868C19 15.1829 19 15.179 19 15.175C19 15.1711 19 15.1671 19 15.1632C19 15.1592 19 15.1552 19 15.1513C19 15.1473 19 15.1433 19 15.1393C19 15.1353 19 15.1313 19 15.1273C19 15.1233 19 15.1192 19 15.1152C19 15.1112 19 15.1071 19 15.1031C19 15.099 19 15.095 19 15.0909C19 15.0868 19 15.0827 19 15.0786C19 15.0746 19 15.0705 19 15.0663C19 15.0622 19 15.0581 19 15.054C19 15.0499 19 15.0457 19 15.0416C19 15.0374 19 15.0333 19 15.0291C19 15.0249 19 15.0208 19 15.0166C19 15.0124 19 15.0082 19 15.004C19 14.9998 19 14.9956 19 14.9913C19 14.9871 19 14.9829 19 14.9786C19 14.9744 19 14.9701 19 14.9659C19 14.9616 19 14.9574 19 14.9531C19 14.9488 19 14.9445 19 14.9402C19 14.9359 19 14.9316 19 14.9273C19 14.923 19 14.9186 19 14.9143C19 14.91 19 14.9056 19 14.9013C19 14.8969 19 14.8925 19 14.8882C19 14.8838 19 14.8794 19 14.875C19 14.8706 19 14.8662 19 14.8618C19 14.8574 19 14.853 19 14.8485C19 14.8441 19 14.8396 19 14.8352C19 14.8307 19 14.8263 19 14.8218C19 14.8173 19 14.8129 19 14.8084C19 14.8039 19 14.7994 19 14.7949C19 14.7904 19 14.7858 19 14.7813C19 14.7768 19 14.7722 19 14.7677C19 14.7631 19 14.7586 19 14.754C19 14.7495 19 14.7449 19 14.7403C19 14.7357 19 14.7311 19 14.7265C19 14.7219 19 14.7173 19 14.7127C19 14.708 19 14.7034 19 14.6988C19 14.6941 19 14.6895 19 14.6848C19 14.6801 19 14.6755 19 14.6708C19 14.6661 19 14.6614 19 14.6567C19 14.652 19 14.6473 19 14.6426C19 14.6379 19 14.6331 19 14.6284C19 14.6236 19 14.6189 19 14.6141C19 14.6094 19 14.6046 19 14.5998C19 14.595 19 14.5903 19 14.5855C19 14.5807 19 14.5759 19 14.571C19 14.5662 19 14.5614 19 14.5566C19 14.5517 19 14.5469 19 14.542C19 14.5372 19 14.5323 19 14.5274C19 14.5225 19 14.5177 19 14.5128C19 14.5079 19 14.503 19 14.498C19 14.4931 19 14.4882 19 14.4833C19 14.4783 19 14.4734 19 14.4684C19 14.4635 19 14.4585 19 14.4535C19 14.4486 19 14.4436 19 14.4386C19 14.4336 19 14.4286 19 14.4236C19 14.4186 19 14.4135 19 14.4085C19 14.4035 19 14.3984 19 14.3934C19 14.3883 19 14.3833 19 14.3782C19 14.3731 19 14.3681 19 14.363C19 14.3579 19 14.3528 19 14.3477C19 14.3426 19 14.3374 19 14.3323C19 14.3272 19 14.322 19 14.3169C19 14.3117 19 14.3066 19 14.3014C19 14.2962 19 14.2911 19 14.2859C19 14.2807 19 14.2755 19 14.2703C19 14.2651 19 14.2598 19 14.2546C19 14.2494 19 14.2441 19 14.2389C19 14.2336 19 14.2284 19 14.2231C19 14.2179 19 14.2126 19 14.2073C19 14.202 19 14.1967 19 14.1914C19 14.1861 19 14.1808 19 14.1754C19 14.1701 19 14.1648 19 14.1594C19 14.1541 19 14.1487 19 14.1434C19 14.138 19 14.1326 19 14.1272C19 14.1218 19 14.1165 19 14.111C19 14.1056 19 14.1002 19 14.0948C19 14.0894 19 14.0839 19 14.0785C19 14.073 19 14.0676 19 14.0621C19 14.0567 19 14.0512 19 14.0457C19 14.0402 19 14.0347 19 14.0292C19 14.0237 19 14.0182 19 14.0127C19 14.0071 19 14.0016 19 13.996C19 13.9905 19 13.9849 19 13.9794C19 13.9738 19 13.9682 19 13.9627C19 13.9571 19 13.9515 19 13.9459C19 13.9403 19 13.9346 19 13.929C19 13.9234 19 13.9178 19 13.9121C19 13.9065 19 13.9008 19 13.8951C19 13.8895 19 13.8838 19 13.8781C19 13.8724 19 13.8667 19 13.861C19 13.8553 19 13.8496 19 13.8439C19 13.8382 19 13.8324 19 13.8267C19 13.8209 19 13.8152 19 13.8094C19 13.8036 19 13.7979 19 13.7921C19 13.7863 19 13.7805 19 13.7747C19 13.7689 19 13.7631 19 13.7572C19 13.7514 19 13.7456 19 13.7397C19 13.7339 19 13.728 19 13.7222C19 13.7163 19 13.7104 19 13.7045C19 13.6986 19 13.6927 19 13.6868C19 13.6809 19 13.675 19 13.6691C19 13.6632 19 13.6572 19 13.6513C19 13.6453 19 13.6394 19 13.6334C19 13.6274 19 13.6214 19 13.6155C19 13.6095 19 13.6035 19 13.5975C19 13.5915 19 13.5854 19 13.5794C19 13.5734 19 13.5673 19 13.5613C19 13.5552 19 13.5492 19 13.5431C19 13.537 19 13.531 19 13.5249C19 13.5188 19 13.5127 19 13.5066C19 13.5005 19 13.4943 19 13.4882C19 13.4821 19 13.4759 19 13.4698C19 13.4636 19 13.4575 19 13.4513C19 13.4451 19 13.4389 19 13.4328C19 13.4266 19 13.4204 19 13.4142C19 13.4079 19 13.4017 19 13.3955C19 13.3892 19 13.383 19 13.3768C19 13.3705 19 13.3642 19 13.358C19 13.3517 19 13.3454 19 13.3391C19 13.3328 19 13.3265 19 13.3202C19 13.3139 19 13.3076 19 13.3012C19 13.2949 19 13.2885 19 13.2822C19 13.2758 19 13.2695 19 13.2631C19 13.2567 19 13.2503 19 13.2439C19 13.2375 19 13.2311 19 13.2247C19 13.2183 19 13.2119 19 13.2054C19 13.199 19 13.1925 19 13.1861C19 13.1796 19 13.1731 19 13.1667C19 13.1602 19 13.1537 19 13.1472C19 13.1407 19 13.1342 19 13.1277C19 13.1211 19 13.1146 19 13.1081C19 13.1015 19 13.095 19 13.0884C19 13.0819 19 13.0753 19 13.0687C19 13.0621 19 13.0555 19 13.0489C19 13.0423 19 13.0357 19 13.0291C19 13.0225 19 13.0158 19 13.0092C19 13.0025 19 12.9959 19 12.9892C19 12.9825 19 12.9759 19 12.9692C19 12.9625 19 12.9558 19 12.9491C19 12.9424 19 12.9357 19 12.9289C19 12.9222 19 12.9155 19 12.9087C19 12.902 19 12.8952 19 12.8884C19 12.8817 19 12.8749 19 12.8681C19 12.8613 19 12.8545 19 12.8477C19 12.8409 19 12.8341 19 12.8272C19 12.8204 19 12.8136 19 12.8067C19 12.7999 19 12.793 19 12.7861C19 12.7792 19 12.7724 19 12.7655C19 12.7586 19 12.7517 19 12.7447C19 12.7378 19 12.7309 19 12.724C19 12.717 19 12.7101 19 12.7031C19 12.6962 19 12.6892 19 12.6822C19 12.6752 19 12.6683 19 12.6613C19 12.6543 19 12.6472 19 12.6402C19 12.6332 19 12.6262 19 12.6191C19 12.6121 19 12.605 19 12.598C19 12.5909 19 12.5838 19 12.5767C19 12.5697 19 12.5626 19 12.5555C19 12.5484 19 12.5412 19 12.5341C19 12.527 19 12.5199 19 12.5127C19 12.5056 19 12.4984 19 12.4912C19 12.4841 19 12.4769 19 12.4697C19 12.4625 19 12.4553 19 12.4481C19 12.4409 19 12.4337 19 12.4264C19 12.4192 19 12.412 19 12.4047C19 12.3974 19 12.3902 19 12.3829C19 12.3756 19 12.3683 19 12.3611C19 12.3538 19 12.3465 19 12.3391C19 12.3318 19 12.3245 19 12.3172C19 12.3098 19 12.3025 19 12.2951C19 12.2877 19 12.2804 19 12.273C19 12.2656 19 12.2582 19 12.2508C19 12.2434 19 12.236 19 12.2286C19 12.2212 19 12.2137 19 12.2063C19 12.1988 19 12.1914 19 12.1839C19 12.1765 19 12.169 19 12.1615C19 12.154 19 12.1465 19 12.139C19 12.1315 19 12.124 19 12.1164C19 12.1089 19 12.1014 19 12.0938C19 12.0863 19 12.0787 19 12.0711C19 12.0636 19 12.056 19 12.0484C19 12.0408 19 12.0332 19 12.0256C19 12.0179 19 12.0103 19 12.0027C19 11.995 19 11.9874 19 11.9797C19 11.9721 19 11.9644 19 11.9567C19 11.9491 19 11.9414 19 11.9337C19 11.926 19 11.9182 19 11.9105C19 11.9028 19 11.8951 19 11.8873C19 11.8796 19 11.8718 19 11.8641C19 11.8563 19 11.8485 19 11.8407C19 11.8329 19 11.8251 19 11.8173C19 11.8095 19 11.8017 19 11.7939C19 11.786 19 11.7782 19 11.7703C19 11.7625 19 11.7546 19 11.7468C19 11.7389 19 11.731 19 11.7231C19 11.7152 19 11.7073 19 11.6994C19 11.6915 19 11.6835 19 11.6756C19 11.6677 19 11.6597 19 11.6518C19 11.6438 19 11.6358 19 11.6278C19 11.6199 19 11.6119 19 11.6039C19 11.5959 19 11.5878 19 11.5798C19 11.5718 19 11.5638 19 11.5557C19 11.5477 19 11.5396 19 11.5315C19 11.5235 19 11.5154 19 11.5073C19 11.4992 19 11.4911 19 11.483C19 11.4749 19 11.4667 19 11.4586C19 11.4505 19 11.4423 19 11.4342C19 11.426 19 11.4179 19 11.4097C19 11.4015 19 11.3933 19 11.3851C19 11.3769 19 11.3687 19 11.3605C19 11.3523 19 11.344 19 11.3358C19 11.3275 19 11.3193 19 11.311C19 11.3027 19 11.2945 19 11.2862C19 11.2779 19 11.2696 19 11.2613C19 11.253 19 11.2447 19 11.2363C19 11.228 19 11.2197 19 11.2113C19 11.2029 19 11.1946 19 11.1862C19 11.1778 19 11.1694 19 11.161C19 11.1527 19 11.1442 19 11.1358C19 11.1274 19 11.119 19 11.1105C19 11.1021 19 11.0936 19 11.0852C19 11.0767 19 11.0682 19 11.0598C19 11.0513 19 11.0428 19 11.0343C19 11.0258 19 11.0172 19 11.0087C19 11.0002 19 10.9916 19 10.9831C19 10.9745 19 10.966 19 10.9574C19 10.9488 19 10.9402 19 10.9317C19 10.9231 19 10.9144 19 10.9058C19 10.8972 19 10.8886 19 10.8799C19 10.8713 19 10.8627 19 10.854C19 10.8453 19 10.8367 19 10.828C19 10.8193 19 10.8106 19 10.8019C19 10.7932 19 10.7845 19 10.7757C19 10.767 19 10.7583 19 10.7495C19 10.7408 19 10.732 19 10.7232C19 10.7145 19 10.7057 19 10.6969C19 10.6881 19 10.6793 19 10.6705C19 10.6616 19 10.6528 19 10.644C19 10.6351 19 10.6263 19 10.6174C19 10.6086 19 10.5997 19 10.5908C19 10.5819 19 10.573 19 10.5641C19 10.5552 19 10.5463 19 10.5374C19 10.5284 19 10.5195 19 10.5105C19 10.5016 19 10.4926 19 10.4837C19 10.4747 19 10.4657 19 10.4567C19 10.4477 19 10.4387 19 10.4297C19 10.4207 19 10.4116 19 10.4026C19 10.3935 19 10.3845 19 10.3754C19 10.3664 19 10.3573 19 10.3482C19 10.3391 19 10.33 19 10.3209C19 10.3118 19 10.3027 19 10.2936C19 10.2844 19 10.2753 19 10.2661C19 10.257 19 10.2478 19 10.2386C19 10.2295 19 10.2203 19 10.2111C19 10.2019 19 10.1927 19 10.1835C19 10.1742 19 10.165 19 10.1558C19 10.1465 19 10.1373 19 10.128C19 10.1187 19 10.1095 19 10.1002C19 10.0909 19 10.0816 19 10.0723C19 10.063 19 10.0536 19 10.0443C19 10.035 19 10.0256 19 10.0163C19 10.0069 19 9.99754 19 9.98816C19 9.97878 19 9.96939 19 9.95999C19 9.95059 19 9.94118 19 9.93175C19 9.92233 19 9.91289 19 9.90345C19 9.894 19 9.88454 19 9.87507C19 9.8656 19 9.85612 19 9.84663C19 9.83714 19 9.82764 19 9.81812C19 9.80861 19 9.79908 19 9.78954C19 9.78001 19 9.77046 19 9.7609C19 9.75134 19 9.74176 19 9.73218C19 9.7226 19 9.713 19 9.7034C19 9.69379 19 9.68418 19 9.67455C19 9.66492 19 9.65528 19 9.64563C19 9.63598 19 9.62631 19 9.61664C19 9.60696 19 9.59728 19 9.58758C19 9.57788 19 9.56818 19 9.55846C19 9.54874 19 9.53901 19 9.52926C19 9.51952 19 9.50977 19 9.5H18ZM18.1464 16.8536L20.1464 18.8536L20.8536 18.1464L18.8536 16.1464L18.1464 16.8536ZM20 18.5V19.5H21V18.5H20ZM20.5 19H13.5V20H20.5V19ZM13 19.5V20H14V19.5H13ZM13.5 19H10.5V20H13.5V19ZM10.5 19H3.5V20H10.5V19ZM11 20V19.5H10V20H11ZM12 21C11.4477 21 11 20.5523 11 20H10C10 21.1046 10.8954 22 12 22V21ZM13 20C13 20.5523 12.5523 21 12 21V22C13.1046 22 14 21.1046 14 20H13ZM12 3C12.5523 3 13 3.44772 13 4H14C14 2.89543 13.1046 2 12 2V3ZM11 4C11 3.44772 11.4477 3 12 3V2C10.8954 2 10 2.89543 10 4H11Z" fill="#4A4A4A"/>
</svg>
