<svg width="24" height="24" viewBox="0 0 24 24" fill="none" xmlns="http://www.w3.org/2000/svg">
<path fill-rule="evenodd" clip-rule="evenodd" d="M19.8594 5.66559L18.6877 4.53776L16.182 2.11992C16.1067 2.04718 16.0057 2.00514 15.8995 2.00082C15.8901 2.00049 4.42406 2 4.42406 2C4.1899 2 4 2.18273 4 2.40816V21.5918C4 21.8173 4.1899 22 4.42406 22H19.5751C19.8093 22 19.9992 21.8173 19.9992 21.5918V5.98494C20 5.84861 19.9458 5.74029 19.8594 5.66559ZM18.6877 5.98494L16 5.96918V3.5L18.6877 5.98494ZM5 3V21H19V7H16C15.4477 7 15 6.55228 15 6V3H5Z" fill="#4A4A4A"/>
</svg>
