<svg width="24" height="24" viewBox="0 0 24 24" fill="none" xmlns="http://www.w3.org/2000/svg">
<path fill-rule="evenodd" clip-rule="evenodd" d="M15 22H18V3C18 2.30906 17.6633 2 17 2H8C7.3367 2 7 2.30906 7 3V22H10V20H15V22ZM19 9H20C20.6633 9 21 9.30906 21 10V22H19V9ZM15.5 5C15.7761 5 16 5.22386 16 5.5C16 5.77614 15.7761 6 15.5 6H9.5C9.22386 6 9 5.77614 9 5.5C9 5.22386 9.22386 5 9.5 5H15.5ZM15.5 8C15.7761 8 16 8.22386 16 8.5C16 8.77614 15.7761 9 15.5 9H9.5C9.22386 9 9 8.77614 9 8.5C9 8.22386 9.22386 8 9.5 8H15.5ZM15.5 11C15.7761 11 16 11.2239 16 11.5C16 11.7761 15.7761 12 15.5 12H9.5C9.22386 12 9 11.7761 9 11.5C9 11.2239 9.22386 11 9.5 11H15.5ZM15.5 14C15.7761 14 16 14.2239 16 14.5C16 14.7761 15.7761 15 15.5 15H9.5C9.22386 15 9 14.7761 9 14.5C9 14.2239 9.22386 14 9.5 14H15.5ZM15.5 17C15.7761 17 16 17.2239 16 17.5C16 17.7761 15.7761 18 15.5 18H9.5C9.22386 18 9 17.7761 9 17.5C9 17.2239 9.22386 17 9.5 17H15.5Z" fill="#4A4A4A"/>
<path fill-rule="evenodd" clip-rule="evenodd" d="M4 6C3.44772 6 3 6.44772 3 7V22H6V6H4ZM4.5 8C4.22386 8 4 8.22386 4 8.5V10.5C4 10.7761 4.22386 11 4.5 11C4.77614 11 5 10.7761 5 10.5V8.5C5 8.22386 4.77614 8 4.5 8ZM4 12.5C4 12.2239 4.22386 12 4.5 12C4.77614 12 5 12.2239 5 12.5V14.5C5 14.7761 4.77614 15 4.5 15C4.22386 15 4 14.7761 4 14.5V12.5ZM4.5 16C4.22386 16 4 16.2239 4 16.5V18.5C4 18.7761 4.22386 19 4.5 19C4.77614 19 5 18.7761 5 18.5V16.5C5 16.2239 4.77614 16 4.5 16Z" fill="#4A4A4A"/>
</svg>
