<svg width="24" height="24" viewBox="0 0 24 24" fill="none" xmlns="http://www.w3.org/2000/svg">
<path d="M17 2.5C17 2.22386 16.7761 2 16.5 2C16.2239 2 16 2.22386 16 2.5H17ZM16 4.5C16 4.77614 16.2239 5 16.5 5C16.7761 5 17 4.77614 17 4.5H16ZM8 2.5C8 2.22386 7.77614 2 7.5 2C7.22386 2 7 2.22386 7 2.5H8ZM7 4.5C7 4.77614 7.22386 5 7.5 5C7.77614 5 8 4.77614 8 4.5H7ZM5.5 21H18.5V20H5.5V21ZM18.5 3H5.5V4H18.5V3ZM3 5.5V7.5H4V5.5H3ZM3 7.5V18.5H4V7.5H3ZM21 18.5V7.5H20V18.5H21ZM21 7.5V5.5H20V7.5H21ZM3.5 8H20.5V7H3.5V8ZM16 2.5V4.5H17V2.5H16ZM7 2.5V4.5H8V2.5H7ZM17 13.5V15.5H18V13.5H17ZM16.5 16H14.5V17H16.5V16ZM14 15.5V13.5H13V15.5H14ZM14.5 13H16.5V12H14.5V13ZM5.5 3C4.11929 3 3 4.11929 3 5.5H4C4 4.67157 4.67157 4 5.5 4V3ZM14 13.5C14 13.2239 14.2239 13 14.5 13V12C13.6716 12 13 12.6716 13 13.5H14ZM18.5 4C19.3284 4 20 4.67157 20 5.5H21C21 4.11929 19.8807 3 18.5 3V4ZM14.5 16C14.2239 16 14 15.7761 14 15.5H13C13 16.3284 13.6716 17 14.5 17V16ZM18.5 21C19.8807 21 21 19.8807 21 18.5H20C20 19.3284 19.3284 20 18.5 20V21ZM18 13.5C18 12.6716 17.3284 12 16.5 12V13C16.7761 13 17 13.2239 17 13.5H18ZM17 15.5C17 15.7761 16.7761 16 16.5 16V17C17.3284 17 18 16.3284 18 15.5H17ZM5.5 20C4.67157 20 4 19.3284 4 18.5H3C3 19.8807 4.11929 21 5.5 21V20Z" fill="#4A4A4A"/>
</svg>
