<svg width="24" height="24" viewBox="0 0 24 24" fill="none" xmlns="http://www.w3.org/2000/svg">
<path d="M14 16.1057V17H10.4602V16.1057H11.7566V12.0304C11.7566 11.8692 11.7611 11.7033 11.7699 11.5325L10.8496 12.3736C10.7965 12.4187 10.7434 12.4477 10.6903 12.4606C10.6401 12.4703 10.5914 12.4703 10.5442 12.4606C10.5 12.451 10.4602 12.4349 10.4248 12.4123C10.3894 12.3865 10.3628 12.3591 10.3451 12.3301L10 11.8128L11.9513 10H12.8496V16.1057H14Z" fill="#4A4A4A"/>
<path d="M17 2.5C17 2.22386 16.7761 2 16.5 2C16.2239 2 16 2.22386 16 2.5H17ZM16 4.5C16 4.77614 16.2239 5 16.5 5C16.7761 5 17 4.77614 17 4.5H16ZM8 2.5C8 2.22386 7.77614 2 7.5 2C7.22386 2 7 2.22386 7 2.5H8ZM7 4.5C7 4.77614 7.22386 5 7.5 5C7.77614 5 8 4.77614 8 4.5H7ZM5.5 21H18.5V20H5.5V21ZM18.5 3H5.5V4H18.5V3ZM3 5.5V7.5H4V5.5H3ZM3 7.5V18.5H4V7.5H3ZM21 18.5V7.5H20V18.5H21ZM21 7.5V5.5H20V7.5H21ZM3.5 8H20.5V7H3.5V8ZM16 2.5V4.5H17V2.5H16ZM7 2.5V4.5H8V2.5H7ZM5.5 3C4.11929 3 3 4.11929 3 5.5H4C4 4.67157 4.67157 4 5.5 4V3ZM18.5 4C19.3284 4 20 4.67157 20 5.5H21C21 4.11929 19.8807 3 18.5 3V4ZM18.5 21C19.8807 21 21 19.8807 21 18.5H20C20 19.3284 19.3284 20 18.5 20V21ZM5.5 20C4.67157 20 4 19.3284 4 18.5H3C3 19.8807 4.11929 21 5.5 21V20Z" fill="#4A4A4A"/>
</svg>
