<svg width="24" height="24" viewBox="0 0 24 24" fill="none" xmlns="http://www.w3.org/2000/svg">
<path fill-rule="evenodd" clip-rule="evenodd" d="M6 3C6 2.44772 6.44772 2 7 2C7.55228 2 8 2.44772 8 3V5C8 5.55228 7.55228 6 7 6C6.44772 6 6 5.55228 6 5V3ZM16 3C16 2.44772 16.4477 2 17 2C17.5523 2 18 2.44772 18 3V5C18 5.55228 17.5523 6 17 6C16.4477 6 16 5.55228 16 5V3ZM4 4H5V5C5 6.10457 5.89543 7 7 7C8.10457 7 9 6.10457 9 5V4H15V5C15 6.10457 15.8954 7 17 7C18.1046 7 19 6.10457 19 5V4H20C20.5523 4 21 4.44772 21 5V9H3V5C3 4.44772 3.44772 4 4 4ZM3 11V20C3 20.5523 3.44772 21 4 21H20C20.5523 21 21 20.5523 21 20V11H3ZM15 17C15 16.4477 15.4477 16 16 16H18C18.5523 16 19 16.4477 19 17V18C19 18.5523 18.5523 19 18 19H16C15.4477 19 15 18.5523 15 18V17Z" fill="#4A4A4A"/>
</svg>
