<svg width="24" height="24" viewBox="0 0 24 24" fill="none" xmlns="http://www.w3.org/2000/svg">
<path d="M17 2.5C17 2.22386 16.7761 2 16.5 2C16.2239 2 16 2.22386 16 2.5H17ZM16 4.5C16 4.77614 16.2239 5 16.5 5C16.7761 5 17 4.77614 17 4.5H16ZM8 2.5C8 2.22386 7.77614 2 7.5 2C7.22386 2 7 2.22386 7 2.5H8ZM7 4.5C7 4.77614 7.22386 5 7.5 5C7.77614 5 8 4.77614 8 4.5H7ZM5.5 21H18.5V20H5.5V21ZM18.5 3H5.5V4H18.5V3ZM3 5.5V7.5H4V5.5H3ZM3 7.5V18.5H4V7.5H3ZM21 18.5V7.5H20V18.5H21ZM21 7.5V5.5H20V7.5H21ZM3.5 8H20.5V7H3.5V8ZM16 2.5V4.5H17V2.5H16ZM7 2.5V4.5H8V2.5H7ZM5.5 3C4.11929 3 3 4.11929 3 5.5H4C4 4.67157 4.67157 4 5.5 4V3ZM18.5 4C19.3284 4 20 4.67157 20 5.5H21C21 4.11929 19.8807 3 18.5 3V4ZM18.5 21C19.8807 21 21 19.8807 21 18.5H20C20 19.3284 19.3284 20 18.5 20V21ZM5.5 20C4.67157 20 4 19.3284 4 18.5H3C3 19.8807 4.11929 21 5.5 21V20Z" fill="#4A4A4A"/>
<path d="M15 10V10.518C15 10.6729 14.9833 10.7988 14.9499 10.8956C14.9166 10.9892 14.8832 11.0682 14.8499 11.1328L12.1071 16.5934C12.0504 16.7063 11.9703 16.8031 11.8669 16.8838C11.7634 16.9613 11.625 17 11.4515 17H10.5556L13.3534 11.6508C13.4168 11.541 13.4785 11.441 13.5385 11.3506C13.6019 11.257 13.672 11.1683 13.7487 11.0844H10.2853C10.2085 11.0844 10.1418 11.0569 10.0851 11.0021C10.0284 10.9472 10 10.8827 10 10.8084V10H15Z" fill="#4A4A4A"/>
</svg>
