<svg width="24" height="24" viewBox="0 0 24 24" fill="none" xmlns="http://www.w3.org/2000/svg">
<path fill-rule="evenodd" clip-rule="evenodd" d="M7 2C7.55228 2 8 2.44772 8 3V4H16V3C16 2.44772 16.4477 2 17 2C17.5523 2 18 2.44772 18 3V4C19.6569 4 21 5.34315 21 7V8H15.6H8.4H3V7C3 5.34315 4.34315 4 6 4V3C6 2.44772 6.44772 2 7 2ZM3 9V18C3 19.6569 4.34315 21 6 21H18C19.6569 21 21 19.6569 21 18V9H15.6H8.4H3ZM14 16C14 15.4477 14.4477 15 15 15H17C17.5523 15 18 15.4477 18 16V17C18 17.5523 17.5523 18 17 18H15C14.4477 18 14 17.5523 14 17V16Z" fill="#4A4A4A"/>
</svg>
