<svg width="24" height="24" viewBox="0 0 24 24" fill="none" xmlns="http://www.w3.org/2000/svg">
<path d="M17 2.5C17 2.22386 16.7761 2 16.5 2C16.2239 2 16 2.22386 16 2.5H17ZM16 4.5C16 4.77614 16.2239 5 16.5 5C16.7761 5 17 4.77614 17 4.5H16ZM8 2.5C8 2.22386 7.77614 2 7.5 2C7.22386 2 7 2.22386 7 2.5H8ZM7 4.5C7 4.77614 7.22386 5 7.5 5C7.77614 5 8 4.77614 8 4.5H7ZM5.5 21H18.5V20H5.5V21ZM18.5 3H5.5V4H18.5V3ZM3 5.5V7.5H4V5.5H3ZM3 7.5V18.5H4V7.5H3ZM21 18.5V7.5H20V18.5H21ZM21 7.5V5.5H20V7.5H21ZM3.5 8H20.5V7H3.5V8ZM16 2.5V4.5H17V2.5H16ZM7 2.5V4.5H8V2.5H7ZM5.5 3C4.11929 3 3 4.11929 3 5.5H4C4 4.67157 4.67157 4 5.5 4V3ZM18.5 4C19.3284 4 20 4.67157 20 5.5H21C21 4.11929 19.8807 3 18.5 3V4ZM18.5 21C19.8807 21 21 19.8807 21 18.5H20C20 19.3284 19.3284 20 18.5 20V21ZM5.5 20C4.67157 20 4 19.3284 4 18.5H3C3 19.8807 4.11929 21 5.5 21V20Z" fill="#4A4A4A"/>
<path d="M7.19726 11.9844C7.24423 11.6561 7.33503 11.3687 7.46967 11.1225C7.60431 10.873 7.77182 10.6662 7.97222 10.502C8.17574 10.3347 8.40744 10.21 8.66733 10.1279C8.93034 10.0426 9.21214 10 9.51273 10C9.82585 10 10.1076 10.0458 10.3581 10.1373C10.6118 10.2258 10.8278 10.3505 11.0063 10.5115C11.1848 10.6694 11.321 10.8557 11.4149 11.0704C11.512 11.2851 11.5605 11.5171 11.5605 11.7666C11.5605 11.9844 11.5354 12.177 11.4853 12.3444C11.4384 12.5086 11.3695 12.6522 11.2787 12.7754C11.1879 12.8985 11.0752 13.0027 10.9405 13.088C10.8059 13.1732 10.654 13.2442 10.4849 13.3011C10.892 13.4305 11.1957 13.6279 11.3961 13.8931C11.5965 14.1583 11.6967 14.4914 11.6967 14.8924C11.6967 15.2334 11.6341 15.535 11.5088 15.797C11.3836 16.0591 11.2145 16.2801 11.0016 16.4601C10.7887 16.6369 10.5413 16.7711 10.2595 16.8627C9.98084 16.9542 9.68495 17 9.37183 17C9.03054 17 8.73308 16.9605 8.47946 16.8816C8.22584 16.8027 8.00509 16.6858 7.81723 16.5311C7.62936 16.3764 7.46967 16.187 7.33816 15.9628C7.20665 15.7386 7.09393 15.4797 7 15.1861L7.51194 14.9729C7.64658 14.9161 7.77182 14.9019 7.88768 14.9303C8.00666 14.9556 8.09276 15.0187 8.14599 15.1198C8.20235 15.2303 8.26341 15.3392 8.32916 15.4465C8.39805 15.5539 8.47946 15.6502 8.57339 15.7355C8.66733 15.8175 8.77692 15.8854 8.90216 15.9391C9.03054 15.9896 9.1824 16.0149 9.35774 16.0149C9.555 16.0149 9.72722 15.9833 9.87438 15.9202C10.0215 15.8539 10.1437 15.7686 10.2407 15.6644C10.3409 15.5602 10.4145 15.445 10.4615 15.3187C10.5116 15.1892 10.5366 15.0598 10.5366 14.9303C10.5366 14.7661 10.5194 14.6177 10.4849 14.4851C10.4505 14.3493 10.3785 14.2341 10.2689 14.1394C10.1593 14.0447 10.0012 13.9705 9.79453 13.9168C9.59101 13.8631 9.31704 13.8363 8.97261 13.8363V13.0027C9.25755 12.9995 9.49395 12.9727 9.68181 12.9222C9.86968 12.8717 10.0184 12.8022 10.128 12.7138C10.2407 12.6222 10.319 12.5133 10.3628 12.387C10.4067 12.2607 10.4286 12.1218 10.4286 11.9702C10.4286 11.6482 10.3394 11.4035 10.1609 11.2361C9.9824 11.0688 9.74444 10.9851 9.44698 10.9851C9.30921 10.9851 9.1824 11.0056 9.06655 11.0467C8.95069 11.0846 8.8458 11.1398 8.75187 11.2124C8.66107 11.2819 8.58435 11.364 8.52173 11.4587C8.45911 11.5534 8.41214 11.6576 8.38083 11.7713C8.3276 11.9166 8.25715 12.0129 8.16948 12.0602C8.08494 12.1076 7.96439 12.1186 7.80783 12.0934L7.19726 11.9844Z" fill="#4A4A4A"/>
<path d="M17 16.048V16.9242H13.2426V16.048H14.6188V12.0555C14.6188 11.8976 14.6235 11.735 14.6329 11.5677L13.656 12.3917C13.5996 12.4359 13.5432 12.4644 13.4869 12.477C13.4336 12.4865 13.382 12.4865 13.3319 12.477C13.2849 12.4675 13.2426 12.4517 13.2051 12.4296C13.1675 12.4044 13.1393 12.3775 13.1205 12.3491L12.7542 11.8424L14.8254 10.0663H15.7789V16.048H17Z" fill="#4A4A4A"/>
</svg>
