<svg width="24" height="24" viewBox="0 0 24 24" fill="none" xmlns="http://www.w3.org/2000/svg">
<path d="M17 2.5C17 2.22386 16.7761 2 16.5 2C16.2239 2 16 2.22386 16 2.5H17ZM16 4.5C16 4.77614 16.2239 5 16.5 5C16.7761 5 17 4.77614 17 4.5H16ZM8 2.5C8 2.22386 7.77614 2 7.5 2C7.22386 2 7 2.22386 7 2.5H8ZM7 4.5C7 4.77614 7.22386 5 7.5 5C7.77614 5 8 4.77614 8 4.5H7ZM5.5 21H18.5V20H5.5V21ZM18.5 3H5.5V4H18.5V3ZM3 5.5V7.5H4V5.5H3ZM3 7.5V18.5H4V7.5H3ZM21 18.5V7.5H20V18.5H21ZM21 7.5V5.5H20V7.5H21ZM3.5 8H20.5V7H3.5V8ZM16 2.5V4.5H17V2.5H16ZM7 2.5V4.5H8V2.5H7ZM5.5 3C4.11929 3 3 4.11929 3 5.5H4C4 4.67157 4.67157 4 5.5 4V3ZM18.5 4C19.3284 4 20 4.67157 20 5.5H21C21 4.11929 19.8807 3 18.5 3V4ZM18.5 21C19.8807 21 21 19.8807 21 18.5H20C20 19.3284 19.3284 20 18.5 20V21ZM5.5 20C4.67157 20 4 19.3284 4 18.5H3C3 19.8807 4.11929 21 5.5 21V20Z" fill="#4A4A4A"/>
<path d="M11.3264 12.5137C11.4595 12.4818 11.587 12.4594 11.7089 12.4466C11.8309 12.4307 11.9487 12.4227 12.0624 12.4227C12.3784 12.4227 12.657 12.477 12.8981 12.5855C13.1393 12.694 13.3417 12.844 13.5052 13.0356C13.6687 13.2271 13.7921 13.4521 13.8753 13.7107C13.9584 13.966 14 14.2421 14 14.539C14 14.9061 13.9432 15.2412 13.8295 15.5445C13.7186 15.8477 13.5634 16.1078 13.3638 16.3249C13.1642 16.5388 12.9272 16.7047 12.6528 16.8228C12.3812 16.9409 12.0845 17 11.763 17C11.5745 17 11.3957 16.9777 11.2266 16.933C11.0575 16.8883 10.8981 16.8292 10.7484 16.7558C10.6015 16.6792 10.4643 16.593 10.3368 16.4973C10.2121 16.3983 10.0998 16.2946 10 16.186L10.316 15.6833C10.3825 15.5748 10.4699 15.5205 10.578 15.5205C10.6473 15.5205 10.7179 15.5461 10.79 15.5971C10.8621 15.6482 10.9439 15.7041 11.0353 15.7647C11.1296 15.8254 11.2391 15.8812 11.3638 15.9323C11.4913 15.9834 11.6438 16.0089 11.8212 16.0089C12.0097 16.0089 12.176 15.9738 12.3202 15.9036C12.4643 15.8333 12.5835 15.736 12.6778 15.6115C12.7748 15.4838 12.8468 15.3338 12.894 15.1614C12.9439 14.9859 12.9688 14.7959 12.9688 14.5917C12.9688 14.215 12.8732 13.9213 12.6819 13.7107C12.4934 13.4968 12.2134 13.3899 11.842 13.3899C11.5565 13.3899 11.264 13.4505 10.9647 13.5718L10.3243 13.3611L10.8233 10H13.7921V10.5027C13.7921 10.6719 13.7464 10.8092 13.6549 10.9145C13.5634 11.0198 13.4082 11.0725 13.1892 11.0725H11.5385L11.3264 12.5137Z" fill="#4A4A4A"/>
</svg>
