<svg width="24" height="24" viewBox="0 0 24 24" fill="none" xmlns="http://www.w3.org/2000/svg">
<path fill-rule="evenodd" clip-rule="evenodd" d="M4.79773 5.02566C5.00191 4.41314 5.57511 4 6.22076 4H17.7792C18.4249 4 18.9981 4.41315 19.2023 5.02566L20.8762 10.0476C21.5226 10.2145 22 10.8015 22 11.5V15.5C22 16.1531 21.5826 16.7087 21 16.9146V18.5C21 19.3284 20.3284 20 19.5 20H17.5C16.6716 20 16 19.3284 16 18.5V17H8V18.5C8 19.3284 7.32843 20 6.5 20H4.5C3.67157 20 3 19.3284 3 18.5V16.9146C2.4174 16.7087 2 16.1531 2 15.5V11.5C2 10.8015 2.47743 10.2145 3.12376 10.0476L4.79773 5.02566ZM5 10L6 7H18L19 10H5ZM4 13.5C4 13.2239 4.22386 13 4.5 13H7.5C7.77614 13 8 13.2239 8 13.5C8 13.7761 7.77614 14 7.5 14H4.5C4.22386 14 4 13.7761 4 13.5ZM16 13.5C16 13.2239 16.2239 13 16.5 13H19.5C19.7761 13 20 13.2239 20 13.5C20 13.7761 19.7761 14 19.5 14H16.5C16.2239 14 16 13.7761 16 13.5Z" fill="#4A4A4A"/>
</svg>
