<svg width="24" height="24" viewBox="0 0 24 24" fill="none" xmlns="http://www.w3.org/2000/svg">
<path fill-rule="evenodd" clip-rule="evenodd" d="M4.85355 10.1464C5.04882 10.3417 5.04882 10.6583 4.85355 10.8536L3.73223 11.9749C3.26339 12.4437 3 13.0796 3 13.7426V17H21V13.7426C21 13.0796 20.7366 12.4437 20.2678 11.9749L19.1464 10.8536C18.9512 10.6583 18.9512 10.3417 19.1464 10.1464C19.3417 9.95118 19.6583 9.95118 19.8536 10.1464L20.9749 11.2678C21.6313 11.9241 22 12.8144 22 13.7426V17.5C22 17.7761 21.7761 18 21.5 18H2.5C2.22386 18 2 17.7761 2 17.5V13.7426C2 12.8144 2.36875 11.9241 3.02513 11.2678L4.14645 10.1464C4.34171 9.95118 4.65829 9.95118 4.85355 10.1464Z" fill="#4A4A4A"/>
<path fill-rule="evenodd" clip-rule="evenodd" d="M8.96918 5C7.2274 5 5.75068 6.28075 5.50436 8.00502L5.15803 10.4293C5.115 10.7305 5.34873 11 5.65301 11H18.347C18.6513 11 18.885 10.7305 18.842 10.4293L18.4956 8.00502C18.2493 6.28075 16.7726 5 15.0308 5H8.96918ZM4.51441 7.8636C4.83111 5.64668 6.72975 4 8.96918 4H15.0308C17.2702 4 19.1689 5.64668 19.4856 7.8636L19.8319 10.2879C19.961 11.1915 19.2598 12 18.347 12H5.65301C4.74018 12 4.03899 11.1915 4.16808 10.2879L4.51441 7.8636Z" fill="#4A4A4A"/>
<path fill-rule="evenodd" clip-rule="evenodd" d="M2.5 17C2.77614 17 3 17.2239 3 17.5V19H6V17.5C6 17.2239 6.22386 17 6.5 17C6.77614 17 7 17.2239 7 17.5V19.5C7 19.7761 6.77614 20 6.5 20H2.5C2.22386 20 2 19.7761 2 19.5V17.5C2 17.2239 2.22386 17 2.5 17Z" fill="#4A4A4A"/>
<path fill-rule="evenodd" clip-rule="evenodd" d="M17.5 17C17.7761 17 18 17.2239 18 17.5V19H21V17.5C21 17.2239 21.2239 17 21.5 17C21.7761 17 22 17.2239 22 17.5V19.5C22 19.7761 21.7761 20 21.5 20H17.5C17.2239 20 17 19.7761 17 19.5V17.5C17 17.2239 17.2239 17 17.5 17Z" fill="#4A4A4A"/>
<path fill-rule="evenodd" clip-rule="evenodd" d="M2 13.5C2 13.2239 2.22386 13 2.5 13V13.5V14C2.22386 14 2 13.7761 2 13.5ZM8.5 15.5H9C9 15.7761 8.77614 16 8.5 16H2.5C2.22386 16 2 15.7761 2 15.5C2 15.2239 2.22386 15 2.5 15H7.88936C7.85881 14.9209 7.82014 14.8387 7.77125 14.7572C7.56478 14.4131 7.13061 14 6.1 14H2.5V13.5V13H6.1C7.46939 13 8.23522 13.5869 8.62875 14.2428C8.81581 14.5545 8.90736 14.8623 8.95279 15.0894C8.97569 15.2039 8.98743 15.3007 8.99349 15.3714C8.99652 15.4068 8.99815 15.4358 8.99901 15.4576C8.99945 15.4684 8.9997 15.4775 8.99983 15.4846L8.99997 15.4938L8.99999 15.4973L9 15.4987L9 15.5C9 15.5003 9 15.5 8.5 15.5Z" fill="#4A4A4A"/>
<path fill-rule="evenodd" clip-rule="evenodd" d="M22 13.5C22 13.2239 21.7761 13 21.5 13V13.5V14C21.7761 14 22 13.7761 22 13.5ZM15.5 15.5H15C15 15.7761 15.2239 16 15.5 16H21.5C21.7761 16 22 15.7761 22 15.5C22 15.2239 21.7761 15 21.5 15H16.1106C16.1412 14.9209 16.1799 14.8387 16.2287 14.7572C16.4352 14.4131 16.8694 14 17.9 14H21.5V13.5V13H17.9C16.5306 13 15.7648 13.5869 15.3713 14.2428C15.1842 14.5545 15.0926 14.8623 15.0472 15.0894C15.0243 15.2039 15.0126 15.3007 15.0065 15.3714C15.0035 15.4068 15.0019 15.4358 15.001 15.4576C15.0006 15.4684 15.0003 15.4775 15.0002 15.4846L15 15.4938L15 15.4973L15 15.4987L15 15.5C15 15.5003 15 15.5 15.5 15.5Z" fill="#4A4A4A"/>
<path fill-rule="evenodd" clip-rule="evenodd" d="M18.5 7H5.5V6H18.5V7Z" fill="#4A4A4A"/>
<path fill-rule="evenodd" clip-rule="evenodd" d="M8 15.5C8 15.2239 8.22386 15 8.5 15H15.5C15.7761 15 16 15.2239 16 15.5C16 15.7761 15.7761 16 15.5 16H8.5C8.22386 16 8 15.7761 8 15.5Z" fill="#4A4A4A"/>
</svg>
