<svg width="24" height="24" viewBox="0 0 24 24" fill="none" xmlns="http://www.w3.org/2000/svg">
<path d="M3.5 10.5L3.02566 10.3419L2.80629 11H3.5V10.5ZM4.83333 6.5L4.35899 6.34189V6.34189L4.83333 6.5ZM4.5 13C4.22386 13 4 13.2239 4 13.5C4 13.7761 4.22386 14 4.5 14V13ZM7.5 14C7.77614 14 8 13.7761 8 13.5C8 13.2239 7.77614 13 7.5 13V14ZM16.5 13C16.2239 13 16 13.2239 16 13.5C16 13.7761 16.2239 14 16.5 14V13ZM19.5 14C19.7761 14 20 13.7761 20 13.5C20 13.2239 19.7761 13 19.5 13V14ZM18.7279 5.18377L19.2023 5.02566L18.7279 5.18377ZM2 11.5V15.5H3V11.5H2ZM22 15.5V11.5H21V15.5H22ZM3 16.5V18.5H4V16.5H3ZM4.5 20H6.5V19H4.5V20ZM3.5 17H7.5V16H3.5V17ZM8 18.5V16.5H7V18.5H8ZM7.5 17H16.5V16H7.5V17ZM16 16.5V18.5H17V16.5H16ZM17.5 20H19.5V19H17.5V20ZM16.5 17H20.5V16H16.5V17ZM21 18.5V16.5H20V18.5H21ZM17.7792 4H6.22076V5H17.7792V4ZM20.5 10H3.5V11H20.5V10ZM4.79773 5.02566L4.35899 6.34189L5.30767 6.65811L5.74642 5.34189L4.79773 5.02566ZM4.35899 6.34189L3.02566 10.3419L3.97434 10.6581L5.30767 6.65811L4.35899 6.34189ZM20.9743 10.3419L19.641 6.34189L18.6923 6.65811L20.0257 10.6581L20.9743 10.3419ZM19.641 6.34189L19.2023 5.02566L18.2536 5.34189L18.6923 6.65811L19.641 6.34189ZM4.83333 7H19.1667V6H4.83333V7ZM4.5 14H7.5V13H4.5V14ZM16.5 14H19.5V13H16.5V14ZM19.5 20C20.3284 20 21 19.3284 21 18.5H20C20 18.7761 19.7761 19 19.5 19V20ZM16 18.5C16 19.3284 16.6716 20 17.5 20V19C17.2239 19 17 18.7761 17 18.5H16ZM6.5 20C7.32843 20 8 19.3284 8 18.5H7C7 18.7761 6.77614 19 6.5 19V20ZM6.22076 4C5.57511 4 5.00191 4.41314 4.79773 5.02566L5.74642 5.34189C5.81447 5.13772 6.00554 5 6.22076 5V4ZM22 11.5C22 10.6716 21.3284 10 20.5 10V11C20.7761 11 21 11.2239 21 11.5H22ZM17.7792 5C17.9945 5 18.1855 5.13772 18.2536 5.34189L19.2023 5.02566C18.9981 4.41315 18.4249 4 17.7792 4V5ZM21 15.5C21 15.7761 20.7761 16 20.5 16V17C21.3284 17 22 16.3284 22 15.5H21ZM2 15.5C2 16.3284 2.67157 17 3.5 17V16C3.22386 16 3 15.7761 3 15.5H2ZM3 18.5C3 19.3284 3.67157 20 4.5 20V19C4.22386 19 4 18.7761 4 18.5H3ZM3 11.5C3 11.2239 3.22386 11 3.5 11V10C2.67157 10 2 10.6716 2 11.5H3Z" fill="#4A4A4A"/>
</svg>
