<svg width="24" height="24" viewBox="0 0 24 24" fill="none" xmlns="http://www.w3.org/2000/svg">
<path fill-rule="evenodd" clip-rule="evenodd" d="M4 2C3.44772 2 3 2.44772 3 3V21C3 21.5523 3.44772 22 4 22C4.55228 22 5 21.5523 5 21V3C5 2.44772 4.55228 2 4 2ZM14 4C14 3.44772 14.4477 3 15 3H20C20.5523 3 21 3.44772 21 4V6C21 6.55228 20.5523 7 20 7H15C14.4477 7 14 6.55228 14 6V4ZM7 11C7 10.4477 7.44772 10 8 10H16C16.5523 10 17 10.4477 17 11V13C17 13.5523 16.5523 14 16 14H8C7.44772 14 7 13.5523 7 13V11ZM9 18C9 17.4477 9.44772 17 10 17H20C20.5523 17 21 17.4477 21 18V20C21 20.5523 20.5523 21 20 21H10C9.44772 21 9 20.5523 9 20V18Z" fill="#4A4A4A"/>
</svg>
