<svg width="24" height="24" viewBox="0 0 24 24" fill="none" xmlns="http://www.w3.org/2000/svg">
<path fill-rule="evenodd" clip-rule="evenodd" d="M8.5 1H15.5C16.1531 1 16.7087 1.4174 16.9146 2H19C20.1046 2 21 2.89543 21 4V11.3647C21.1963 11.3854 21.3779 11.4724 21.5199 11.6144L22.3914 12.4859C22.6926 12.7842 22.7307 13.2551 22.485 13.6002L21.9059 14.4103C22.0668 14.7144 22.1984 15.0332 22.3007 15.3637L23.2834 15.5304C23.7016 15.6006 24.0058 15.9603 24 16.3844V17.6156C24 18.0397 23.6958 18.3994 23.2775 18.4696L22.2949 18.6334C22.1955 18.9609 22.0609 19.2797 21.9001 19.5868L22.4791 20.3998C22.7248 20.7449 22.6839 21.2158 22.3856 21.5141L21.514 22.3856C21.3503 22.5494 21.1338 22.6401 20.9028 22.6401C20.7215 22.6401 20.546 22.5845 20.3998 22.4792L19.5897 21.9001C19.2855 22.061 18.9667 22.1926 18.6363 22.295L18.4696 23.2776C18.3994 23.6958 18.0396 24 17.6156 24H16.3814C15.9573 24 15.5976 23.6958 15.5274 23.2776L15.3637 22.295C15.0449 22.1955 14.7349 22.0698 14.4395 21.9148L13.6177 22.4997C13.4715 22.605 13.2989 22.6605 13.1176 22.6605C12.8866 22.6605 12.6701 22.5699 12.5064 22.4061L12.1003 22H5C3.89543 22 3 21.1046 3 20V4C3 2.89543 3.89543 2 5 2H7.08535C7.29127 1.4174 7.84689 1 8.5 1ZM20 4V11.8118L19.5955 12.0999C19.2797 11.9332 18.9492 11.7957 18.607 11.6933L18.4432 10.7224C18.373 10.3042 18.0133 10 17.5893 10H16.358C15.934 10 15.5742 10.3042 15.504 10.7224L15.3344 11.7167C15.0069 11.8191 14.6881 11.9536 14.3839 12.1174L13.5797 11.5383C13.4334 11.433 13.258 11.3775 13.0766 11.3775C12.8456 11.3775 12.6263 11.4681 12.4654 11.6319L12.0961 12H11.5C11.2239 12 11 12.2239 11 12.5C11 12.7233 11.1464 12.9124 11.3484 12.9766C11.3128 13.195 11.3608 13.4258 11.4974 13.6177L12.0823 14.4395C11.9214 14.7466 11.7928 15.0654 11.6933 15.3959L10.7224 15.5596C10.3042 15.6298 10 15.9896 10 16.4136V17.6449C10 18.0689 10.3042 18.4287 10.7224 18.4989L11.7167 18.6685C11.8191 18.996 11.9536 19.3148 12.1174 19.619L11.5412 20.4203C11.4174 20.5943 11.3656 20.8003 11.3834 21H5C4.44772 21 4 20.5523 4 20V4C4 3.44772 4.44772 3 5 3H7.08535C7.29127 3.5826 7.84689 4 8.5 4H15.5C16.1531 4 16.7087 3.5826 16.9146 3H19C19.5523 3 20 3.44772 20 4ZM8.5 2C8.22386 2 8 2.22386 8 2.5C8 2.77614 8.22386 3 8.5 3H15.5C15.7761 3 16 2.77614 16 2.5C16 2.22386 15.7761 2 15.5 2H8.5ZM11.5 7C11.2239 7 11 7.22386 11 7.5C11 7.77614 11.2239 8 11.5 8H17.5C17.7761 8 18 7.77614 18 7.5C18 7.22386 17.7761 7 17.5 7H11.5ZM9.85355 6.14645C9.65829 5.95118 9.34171 5.95118 9.14645 6.14645L7.5 7.793L6.85355 7.14645L6.78431 7.08859C6.58944 6.9536 6.32001 6.97288 6.14645 7.14645C5.95118 7.34171 5.95118 7.65829 6.14645 7.85355L7.14645 8.85355L7.21569 8.91141C7.41056 9.0464 7.67999 9.02712 7.85355 8.85355L9.85355 6.85355L9.91141 6.78431C10.0464 6.58944 10.0271 6.32001 9.85355 6.14645ZM9 17C9 16.4477 8.55228 16 8 16H7C6.44772 16 6 16.4477 6 17V18C6 18.5523 6.44772 19 7 19H8C8.55228 19 9 18.5523 9 18V17ZM8 17V18H7V17H8ZM8 11C8.55228 11 9 11.4477 9 12V13C9 13.5523 8.55228 14 8 14H7C6.44772 14 6 13.5523 6 13V12C6 11.4477 6.44772 11 7 11H8ZM8 13V12H7V13H8ZM16.47 11H17.476L17.7244 12.4731L18.3204 12.6514L18.5929 12.7431C18.7737 12.8107 18.9526 12.8913 19.1288 12.9842L19.6737 13.2719L20.893 12.402L21.604 13.113L20.733 14.3315L21.0219 14.8778L21.1452 15.1299C21.2223 15.3008 21.2891 15.4776 21.3455 15.6596L21.5274 16.2468L23 16.496V17.502L21.5183 17.749L21.338 18.3429L21.2498 18.6012C21.1844 18.7741 21.1057 18.9482 21.0142 19.1228L20.7293 19.6668L21.598 20.886L20.887 21.597L19.6684 20.7273L19.1222 21.0162L18.8701 21.1395C18.6991 21.2166 18.5224 21.2834 18.3404 21.3397L17.7532 21.5216L17.502 23H16.494L16.2489 21.5236L15.6614 21.3403L15.3977 21.2498C15.2256 21.185 15.0608 21.1115 14.9042 21.0293L14.3602 20.7438L13.132 21.617L12.422 20.907L13.2942 19.6952L12.9979 19.1449L12.8721 18.8926C12.7938 18.7222 12.7266 18.5475 12.6712 18.3702L12.4885 17.7857L11 17.532V16.526L12.472 16.2786L12.6509 15.684L12.741 15.4149C12.8062 15.2386 12.8818 15.0683 12.9681 14.9035L13.253 14.3598L12.378 13.13L13.092 12.419L14.3073 13.2944L14.858 12.9979L15.1103 12.8721C15.2807 12.7938 15.4554 12.7266 15.6327 12.6712L16.2172 12.4886L16.47 11ZM17 20C15.3431 20 14 18.6569 14 17C14 15.3431 15.3431 14 17 14C18.6569 14 20 15.3431 20 17C20 18.6569 18.6569 20 17 20ZM17 19C18.1046 19 19 18.1046 19 17C19 15.8954 18.1046 15 17 15C15.8954 15 15 15.8954 15 17C15 18.1046 15.8954 19 17 19Z" fill="#4A4A4A"/>
</svg>
