<svg width="24" height="24" viewBox="0 0 24 24" fill="none" xmlns="http://www.w3.org/2000/svg">
<path fill-rule="evenodd" clip-rule="evenodd" d="M12 22C17.5228 22 22 17.5228 22 12C22 6.47715 17.5228 2 12 2C6.47715 2 2 6.47715 2 12C2 17.5228 6.47715 22 12 22ZM14.057 6.89069C14.498 7.22319 14.5859 7.85022 14.2534 8.2912L8.71914 15.6309C8.38664 16.0719 7.75961 16.1598 7.31863 15.8273L4.49566 13.6988C4.05468 13.3663 3.96675 12.7392 4.29925 12.2983C4.63175 11.8573 5.25878 11.7694 5.69976 12.1019L7.72427 13.6284L12.6565 7.0871C12.989 6.64612 13.616 6.55819 14.057 6.89069ZM12.4188 16.2621L10.9088 15.1236L12.1061 13.5215L12.8244 14.0632L16.9031 8.7959C17.2356 8.35492 17.8626 8.26699 18.3036 8.59949C18.7446 8.93199 18.8325 9.55902 18.5 10L13.8193 16.0657C13.4868 16.5067 12.8597 16.5946 12.4188 16.2621Z" fill="#4A4A4A"/>
</svg>
