<svg width="24" height="24" viewBox="0 0 24 24" fill="none" xmlns="http://www.w3.org/2000/svg">
<path fill-rule="evenodd" clip-rule="evenodd" d="M3 4.5C3 3.67157 3.67157 3 4.5 3H19.5C20.3284 3 21 3.67157 21 4.5V19.5C21 20.3284 20.3284 21 19.5 21H4.5C3.67157 21 3 20.3284 3 19.5V4.5ZM6 6.5C6 6.22386 6.22386 6 6.5 6H8.5C8.77614 6 9 6.22386 9 6.5V8.5C9 8.77614 8.77614 9 8.5 9H6.5C6.22386 9 6 8.77614 6 8.5V6.5ZM7 7V8H8V7H7ZM10 7.5C10 7.22386 10.2239 7 10.5 7H17.5C17.7761 7 18 7.22386 18 7.5C18 7.77614 17.7761 8 17.5 8H10.5C10.2239 8 10 7.77614 10 7.5ZM6 10.5C6 10.2239 6.22386 10 6.5 10H8.5C8.77614 10 9 10.2239 9 10.5V12.5C9 12.7761 8.77614 13 8.5 13H6.5C6.22386 13 6 12.7761 6 12.5V10.5ZM7 11V12H8V11H7ZM10 11.5C10 11.2239 10.2239 11 10.5 11H17.5C17.7761 11 18 11.2239 18 11.5C18 11.7761 17.7761 12 17.5 12H10.5C10.2239 12 10 11.7761 10 11.5ZM6 14.5C6 14.2239 6.22386 14 6.5 14H8.5C8.77614 14 9 14.2239 9 14.5V16.5C9 16.7761 8.77614 17 8.5 17H6.5C6.22386 17 6 16.7761 6 16.5V14.5ZM7 15V16H8V15H7ZM10 15.5C10 15.2239 10.2239 15 10.5 15H17.5C17.7761 15 18 15.2239 18 15.5C18 15.7761 17.7761 16 17.5 16H10.5C10.2239 16 10 15.7761 10 15.5Z" fill="#4A4A4A"/>
</svg>
