<svg width="24" height="24" viewBox="0 0 24 24" fill="none" xmlns="http://www.w3.org/2000/svg">
<path fill-rule="evenodd" clip-rule="evenodd" d="M8.5 1H15.5C16.1531 1 16.7087 1.4174 16.9146 2H20C21.1046 2 22 2.89543 22 4V12.101C23.2372 13.3636 24 15.0927 24 17C24 20.866 20.866 24 17 24C15.0927 24 13.3636 23.2372 12.101 22H4C2.89543 22 2 21.1046 2 20V4C2 2.89543 2.89543 2 4 2H7.08535C7.29127 1.4174 7.84689 1 8.5 1ZM11.2547 21C10.6444 20.125 10.2288 19.1041 10.0709 18H9.5C9.22386 18 9 17.7761 9 17.5C9 17.2239 9.22386 17 9.5 17H10C10 15.5128 10.4638 14.1338 11.2547 13H9.5C9.22386 13 9 12.7761 9 12.5C9 12.2239 9.22386 12 9.5 12H12.101C13.3636 10.7628 15.0927 10 17 10C18.4872 10 19.8662 10.4638 21 11.2547V4C21 3.44772 20.5523 3 20 3H16.9146C16.7087 3.5826 16.1531 4 15.5 4H8.5C7.84689 4 7.29127 3.5826 7.08535 3H4C3.44772 3 3 3.44772 3 4V20C3 20.5523 3.44772 21 4 21H11.2547ZM8.5 2C8.22386 2 8 2.22386 8 2.5C8 2.77614 8.22386 3 8.5 3H15.5C15.7761 3 16 2.77614 16 2.5C16 2.22386 15.7761 2 15.5 2H8.5ZM8 7C8 6.44772 7.55228 6 7 6H6C5.44772 6 5 6.44772 5 7V8C5 8.55228 5.44772 9 6 9H7C7.55228 9 8 8.55228 8 8V7ZM6 7H7V8H6V7ZM19 7.5C19 7.22386 18.7761 7 18.5 7H9.5L9.41012 7.00806C9.17688 7.05039 9 7.25454 9 7.5C9 7.77614 9.22386 8 9.5 8H18.5L18.5899 7.99194C18.8231 7.94961 19 7.74546 19 7.5ZM7 11C7.55228 11 8 11.4477 8 12V13C8 13.5523 7.55228 14 7 14H6C5.44772 14 5 13.5523 5 13V12C5 11.4477 5.44772 11 6 11H7ZM7 12H6V13H7V12ZM8 17C8 16.4477 7.55228 16 7 16H6C5.44772 16 5 16.4477 5 17V18C5 18.5523 5.44772 19 6 19H7C7.55228 19 8 18.5523 8 18V17ZM6 17H7V18H6V17ZM17 11C13.6863 11 11 13.6863 11 17C11 20.3137 13.6863 23 17 23C20.3137 23 23 20.3137 23 17C23 13.6863 20.3137 11 17 11ZM16.5 13C16.7455 13 16.9496 13.1769 16.9919 13.4101L17 13.5V17H20.5C20.7455 17 20.9496 17.1769 20.9919 17.4101L21 17.5C21 17.7455 20.8231 17.9496 20.5899 17.9919L20.5 18H16.5C16.2545 18 16.0504 17.8231 16.0081 17.5899L16 17.5V13.5C16 13.2239 16.2239 13 16.5 13Z" fill="#4A4A4A"/>
</svg>
