<svg width="24" height="24" viewBox="0 0 24 24" fill="none" xmlns="http://www.w3.org/2000/svg">
<path fill-rule="evenodd" clip-rule="evenodd" d="M8.5 1H15.5C16.1531 1 16.7087 1.4174 16.9146 2H19C20.1046 2 21 2.89543 21 4V20C21 21.1046 20.1046 22 19 22H5C3.89543 22 3 21.1046 3 20V4C3 2.89543 3.89543 2 5 2H7.08535C7.29127 1.4174 7.84689 1 8.5 1ZM8.5 4C7.84689 4 7.29127 3.5826 7.08535 3H5C4.44772 3 4 3.44772 4 4V20C4 20.5523 4.44772 21 5 21H19C19.5523 21 20 20.5523 20 20V4C20 3.44772 19.5523 3 19 3H16.9146C16.7087 3.5826 16.1531 4 15.5 4H8.5ZM8 2.5C8 2.22386 8.22386 2 8.5 2H15.5C15.7761 2 16 2.22386 16 2.5C16 2.77614 15.7761 3 15.5 3H8.5C8.22386 3 8 2.77614 8 2.5ZM11 7.5C11 7.22386 11.2239 7 11.5 7H17.5C17.7761 7 18 7.22386 18 7.5C18 7.77614 17.7761 8 17.5 8H11.5C11.2239 8 11 7.77614 11 7.5ZM11.5 12C11.2239 12 11 12.2239 11 12.5C11 12.7761 11.2239 13 11.5 13H17.5C17.7761 13 18 12.7761 18 12.5C18 12.2239 17.7761 12 17.5 12H11.5ZM11 17.5C11 17.2239 11.2239 17 11.5 17H17.5C17.7761 17 18 17.2239 18 17.5C18 17.7761 17.7761 18 17.5 18H11.5C11.2239 18 11 17.7761 11 17.5ZM9.85355 6.14645C9.65829 5.95118 9.34171 5.95118 9.14645 6.14645L7.5 7.793L6.85355 7.14645L6.78431 7.08859C6.58944 6.9536 6.32001 6.97288 6.14645 7.14645C5.95118 7.34171 5.95118 7.65829 6.14645 7.85355L7.14645 8.85355L7.21569 8.91141C7.41056 9.0464 7.67999 9.02712 7.85355 8.85355L9.85355 6.85355L9.91141 6.78431C10.0464 6.58944 10.0271 6.32001 9.85355 6.14645ZM9 17C9 16.4477 8.55228 16 8 16H7C6.44772 16 6 16.4477 6 17V18C6 18.5523 6.44772 19 7 19H8C8.55228 19 9 18.5523 9 18V17ZM8 17V18H7V17H8ZM8 11C8.55228 11 9 11.4477 9 12V13C9 13.5523 8.55228 14 8 14H7C6.44772 14 6 13.5523 6 13V12C6 11.4477 6.44772 11 7 11H8ZM8 13V12H7V13H8Z" fill="#4A4A4A"/>
</svg>
