<svg width="24" height="24" viewBox="0 0 24 24" fill="none" xmlns="http://www.w3.org/2000/svg">
<path d="M6.5 10.5V10C6.22386 10 6 10.2239 6 10.5H6.5ZM6.5 12.5H6C6 12.7761 6.22386 13 6.5 13V12.5ZM8.5 12.5V13C8.77614 13 9 12.7761 9 12.5H8.5ZM8.5 10.5H9C9 10.2239 8.77614 10 8.5 10V10.5ZM6.5 14.5V14C6.22386 14 6 14.2239 6 14.5H6.5ZM6.5 16.5H6C6 16.7761 6.22386 17 6.5 17V16.5ZM8.5 16.5V17C8.77614 17 9 16.7761 9 16.5H8.5ZM8.5 14.5H9C9 14.2239 8.77614 14 8.5 14V14.5ZM6.5 6.5V6C6.22386 6 6 6.22386 6 6.5H6.5ZM6.5 8.5H6C6 8.77614 6.22386 9 6.5 9V8.5ZM8.5 8.5V9C8.77614 9 9 8.77614 9 8.5H8.5ZM8.5 6.5H9C9 6.22386 8.77614 6 8.5 6V6.5ZM10.5 7C10.2239 7 10 7.22386 10 7.5C10 7.77614 10.2239 8 10.5 8V7ZM17.5 8C17.7761 8 18 7.77614 18 7.5C18 7.22386 17.7761 7 17.5 7V8ZM10.5 11C10.2239 11 10 11.2239 10 11.5C10 11.7761 10.2239 12 10.5 12V11ZM17.5 12C17.7761 12 18 11.7761 18 11.5C18 11.2239 17.7761 11 17.5 11V12ZM10.5 15C10.2239 15 10 15.2239 10 15.5C10 15.7761 10.2239 16 10.5 16V15ZM17.5 16C17.7761 16 18 15.7761 18 15.5C18 15.2239 17.7761 15 17.5 15V16ZM4.5 4H19.5V3H4.5V4ZM20 4.5V19.5H21V4.5H20ZM19.5 20H4.5V21H19.5V20ZM4 19.5V4.5H3V19.5H4ZM6 10.5V12.5H7V10.5H6ZM6.5 13H8.5V12H6.5V13ZM9 12.5V10.5H8V12.5H9ZM8.5 10H6.5V11H8.5V10ZM6 14.5V16.5H7V14.5H6ZM6.5 17H8.5V16H6.5V17ZM9 16.5V14.5H8V16.5H9ZM8.5 14H6.5V15H8.5V14ZM6 6.5V8.5H7V6.5H6ZM6.5 9H8.5V8H6.5V9ZM9 8.5V6.5H8V8.5H9ZM8.5 6H6.5V7H8.5V6ZM10.5 8H17.5V7H10.5V8ZM10.5 12H17.5V11H10.5V12ZM10.5 16H17.5V15H10.5V16ZM4.5 20C4.22386 20 4 19.7761 4 19.5H3C3 20.3284 3.67157 21 4.5 21V20ZM20 19.5C20 19.7761 19.7761 20 19.5 20V21C20.3284 21 21 20.3284 21 19.5H20ZM19.5 4C19.7761 4 20 4.22386 20 4.5H21C21 3.67157 20.3284 3 19.5 3V4ZM4.5 3C3.67157 3 3 3.67157 3 4.5H4C4 4.22386 4.22386 4 4.5 4V3Z" fill="#4A4A4A"/>
</svg>
