<svg width="24" height="24" viewBox="0 0 24 24" fill="none" xmlns="http://www.w3.org/2000/svg">
<path fill-rule="evenodd" clip-rule="evenodd" d="M8.5 1H15.5C16.1531 1 16.7087 1.4174 16.9146 2H20C21.1046 2 22 2.89543 22 4V12.101C23.2372 13.3636 24 15.0927 24 17C24 20.866 20.866 24 17 24C15.0927 24 13.3636 23.2372 12.101 22H4C2.89543 22 2 21.1046 2 20V4C2 2.89543 2.89543 2 4 2H7.08535C7.29127 1.4174 7.84689 1 8.5 1ZM11.2547 21C10.4638 19.8662 10 18.4872 10 17H9.5C9.22386 17 9 16.7761 9 16.5C9 16.2545 9.17688 16.0504 9.41012 16.0081L9.5 16H10.0709C10.1719 15.2939 10.3783 14.6217 10.6736 14H9.5C9.22386 14 9 13.7761 9 13.5C9 13.2545 9.17688 13.0504 9.41012 13.0081L9.5 13H11.2547C11.8179 12.1926 12.5469 11.5095 13.3924 11H9.5C9.22386 11 9 10.7761 9 10.5C9 10.2545 9.17688 10.0504 9.41012 10.0081L9.5 10H17H17.5C17.5624 10 17.6222 10.0114 17.6773 10.0323C18.9052 10.1502 20.0404 10.5853 21 11.2547V4C21 3.44772 20.5523 3 20 3H16.9146C16.7087 3.5826 16.1531 4 15.5 4H8.5C7.84689 4 7.29127 3.5826 7.08535 3H4C3.44772 3 3 3.44772 3 4V20C3 20.5523 3.44772 21 4 21H11.2547ZM8.5 2C8.22386 2 8 2.22386 8 2.5C8 2.77614 8.22386 3 8.5 3H15.5C15.7761 3 16 2.77614 16 2.5C16 2.22386 15.7761 2 15.5 2H8.5ZM8 7C8 6.44772 7.55228 6 7 6H6C5.44772 6 5 6.44772 5 7V8C5 8.55228 5.44772 9 6 9H7C7.55228 9 8 8.55228 8 8V7ZM6 7H7V8H6V7ZM8 16C8 15.4477 7.55228 15 7 15H6C5.44772 15 5 15.4477 5 16V17C5 17.5523 5.44772 18 6 18H7C7.55228 18 8 17.5523 8 17V16ZM6 16H7V17H6V16ZM19 7.5C19 7.22386 18.7761 7 18.5 7H9.5L9.41012 7.00806C9.17688 7.05039 9 7.25454 9 7.5C9 7.77614 9.22386 8 9.5 8H18.5L18.5899 7.99194C18.8231 7.94961 19 7.74546 19 7.5ZM17 11C13.6863 11 11 13.6863 11 17C11 20.3137 13.6863 23 17 23C20.3137 23 23 20.3137 23 17C23 13.6863 20.3137 11 17 11ZM16.5 13C16.7455 13 16.9496 13.1769 16.9919 13.4101L17 13.5V17H20.5C20.7455 17 20.9496 17.1769 20.9919 17.4101L21 17.5C21 17.7455 20.8231 17.9496 20.5899 17.9919L20.5 18H16.5C16.2545 18 16.0504 17.8231 16.0081 17.5899L16 17.5V13.5C16 13.2239 16.2239 13 16.5 13Z" fill="#4A4A4A"/>
</svg>
