<svg width="24" height="24" viewBox="0 0 24 24" fill="none" xmlns="http://www.w3.org/2000/svg">
<path fill-rule="evenodd" clip-rule="evenodd" d="M15.5 1H8.5C7.84689 1 7.29127 1.4174 7.08535 2H5C3.89543 2 3 2.89543 3 4V20C3 21.1046 3.89543 22 5 22H19C20.1046 22 21 21.1046 21 20V4C21 2.89543 20.1046 2 19 2H16.9146C16.7087 1.4174 16.1531 1 15.5 1ZM7.08535 3C7.29127 3.5826 7.84689 4 8.5 4H15.5C16.1531 4 16.7087 3.5826 16.9146 3H19C19.5523 3 20 3.44772 20 4V20C20 20.5523 19.5523 21 19 21H5C4.44772 21 4 20.5523 4 20V4C4 3.44772 4.44772 3 5 3H7.08535ZM8.5 2C8.22386 2 8 2.22386 8 2.5C8 2.77614 8.22386 3 8.5 3H15.5C15.7761 3 16 2.77614 16 2.5C16 2.22386 15.7761 2 15.5 2H8.5ZM10.8536 7.14645C10.6583 6.95118 10.3417 6.95118 10.1464 7.14645L8.5 8.793L7.85355 8.14645L7.78431 8.08859C7.58944 7.9536 7.32001 7.97288 7.14645 8.14645C6.95118 8.34171 6.95118 8.65829 7.14645 8.85355L8.14645 9.85355L8.21569 9.91141C8.41056 10.0464 8.67999 10.0271 8.85355 9.85355L10.8536 7.85355L10.9114 7.78431C11.0464 7.58944 11.0271 7.32001 10.8536 7.14645ZM10.1464 11.1464C10.3417 10.9512 10.6583 10.9512 10.8536 11.1464C11.0271 11.32 11.0464 11.5894 10.9114 11.7843L10.8536 11.8536L8.85355 13.8536C8.67999 14.0271 8.41056 14.0464 8.21569 13.9114L8.14645 13.8536L7.14645 12.8536C6.95118 12.6583 6.95118 12.3417 7.14645 12.1464C7.32001 11.9729 7.58944 11.9536 7.78431 12.0886L7.85355 12.1464L8.5 12.793L10.1464 11.1464ZM9.85355 15.1464C9.65829 14.9512 9.34171 14.9512 9.14645 15.1464L8.5 15.7929L7.85355 15.1464C7.65829 14.9512 7.34171 14.9512 7.14645 15.1464C6.97288 15.32 6.9536 15.5894 7.08859 15.7843L7.14645 15.8536L7.79289 16.5L7.14645 17.1464L7.08859 17.2157C6.9536 17.4106 6.97288 17.68 7.14645 17.8536C7.34171 18.0488 7.65829 18.0488 7.85355 17.8536L8.5 17.2071L9.14645 17.8536C9.34171 18.0488 9.65829 18.0488 9.85355 17.8536C10.0271 17.68 10.0464 17.4106 9.91141 17.2157L9.85355 17.1464L9.20711 16.5L9.85355 15.8536L9.91141 15.7843C10.0464 15.5894 10.0271 15.32 9.85355 15.1464ZM17 8.5C17 8.22386 16.7761 8 16.5 8H12.5L12.4101 8.00806C12.1769 8.05039 12 8.25454 12 8.5C12 8.77614 12.2239 9 12.5 9H16.5L16.5899 8.99194C16.8231 8.94961 17 8.74546 17 8.5ZM16.5 12C16.7761 12 17 12.2239 17 12.5C17 12.7455 16.8231 12.9496 16.5899 12.9919L16.5 13H12.5C12.2239 13 12 12.7761 12 12.5C12 12.2545 12.1769 12.0504 12.4101 12.0081L12.5 12H16.5ZM17 16.5C17 16.2239 16.7761 16 16.5 16H12.5L12.4101 16.0081C12.1769 16.0504 12 16.2545 12 16.5C12 16.7761 12.2239 17 12.5 17H16.5L16.5899 16.9919C16.8231 16.9496 17 16.7455 17 16.5Z" fill="#4A4A4A"/>
</svg>
