<svg width="24" height="24" viewBox="0 0 24 24" fill="none" xmlns="http://www.w3.org/2000/svg">
<path d="M10.5 1C10.2239 1 10 1.22386 10 1.5C10 1.77614 10.2239 2 10.5 2V1ZM14.5 2C14.7761 2 15 1.77614 15 1.5C15 1.22386 14.7761 1 14.5 1V2ZM3.5 12.5V12C3.22386 12 3 12.2239 3 12.5H3.5ZM15.5 12.5L15.8536 12.8536C16.0488 12.6583 16.0488 12.3417 15.8536 12.1464L15.5 12.5ZM12.8536 9.14645C12.6583 8.95118 12.3417 8.95118 12.1464 9.14645C11.9512 9.34171 11.9512 9.65829 12.1464 9.85355L12.8536 9.14645ZM12.1464 15.1464C11.9512 15.3417 11.9512 15.6583 12.1464 15.8536C12.3417 16.0488 12.6583 16.0488 12.8536 15.8536L12.1464 15.1464ZM4.41847 7.50376C4.27305 7.73851 4.34546 8.0467 4.58021 8.19212C4.81496 8.33754 5.12315 8.26512 5.26857 8.03038L4.41847 7.50376ZM13.5 2H14.5V1H13.5V2ZM13 1.5V3.5H14V1.5H13ZM10.5 2H11.5V1H10.5V2ZM11.5 2H13.5V1H11.5V2ZM11 1.5V3.5H12V1.5H11ZM3.5 13H15.5V12H3.5V13ZM15.8536 12.1464L12.8536 9.14645L12.1464 9.85355L15.1464 12.8536L15.8536 12.1464ZM15.1464 12.1464L12.1464 15.1464L12.8536 15.8536L15.8536 12.8536L15.1464 12.1464ZM12.5 4C17.1944 4 21 7.80558 21 12.5H22C22 7.25329 17.7467 3 12.5 3V4ZM21 12.5C21 17.1944 17.1944 21 12.5 21V22C17.7467 22 22 17.7467 22 12.5H21ZM12.5 21C7.80558 21 4 17.1944 4 12.5H3C3 17.7467 7.25329 22 12.5 22V21ZM5.26857 8.03038C6.76779 5.61023 9.44606 4 12.5 4V3C9.08557 3 6.09236 4.80164 4.41847 7.50376L5.26857 8.03038Z" fill="#4A4A4A"/>
</svg>
