<svg width="24" height="24" viewBox="0 0 24 24" fill="none" xmlns="http://www.w3.org/2000/svg">
<path d="M10.5 1C10.2239 1 10 1.22386 10 1.5C10 1.77614 10.2239 2 10.5 2V1ZM14.5 2C14.7761 2 15 1.77614 15 1.5C15 1.22386 14.7761 1 14.5 1V2ZM18.9679 6.98463C19.1472 7.19466 19.4628 7.21959 19.6728 7.04031C19.8828 6.86103 19.9078 6.54543 19.7285 6.33539L18.9679 6.98463ZM19.7285 18.6646C19.9078 18.4546 19.8828 18.139 19.6728 17.9597C19.4628 17.7804 19.1472 17.8053 18.9679 18.0154L19.7285 18.6646ZM9.5 12C9.22386 12 9 12.2239 9 12.5C9 12.7761 9.22386 13 9.5 13V12ZM21.5 12.5L21.8536 12.8536C22.0488 12.6583 22.0488 12.3417 21.8536 12.1464L21.5 12.5ZM18.8536 9.14645C18.6583 8.95118 18.3417 8.95118 18.1464 9.14645C17.9512 9.34171 17.9512 9.65829 18.1464 9.85355L18.8536 9.14645ZM18.1464 15.1464C17.9512 15.3417 17.9512 15.6583 18.1464 15.8536C18.3417 16.0488 18.6583 16.0488 18.8536 15.8536L18.1464 15.1464ZM3 12.5C3 17.7467 7.25329 22 12.5 22V21C7.80558 21 4 17.1944 4 12.5H3ZM12.5 3C7.25329 3 3 7.25329 3 12.5H4C4 7.80558 7.80558 4 12.5 4V3ZM13.5 2H14.5V1H13.5V2ZM13 1.5V3.5H14V1.5H13ZM10.5 2H11.5V1H10.5V2ZM11.5 2H13.5V1H11.5V2ZM11 1.5V3.5H12V1.5H11ZM19.7285 6.33539C17.9868 4.29498 15.3944 3 12.5 3V4C15.0895 4 17.4081 5.15729 18.9679 6.98463L19.7285 6.33539ZM12.5 22C15.3944 22 17.9868 20.705 19.7285 18.6646L18.9679 18.0154C17.4081 19.8427 15.0895 21 12.5 21V22ZM9.5 13H21.5V12H9.5V13ZM21.8536 12.1464L18.8536 9.14645L18.1464 9.85355L21.1464 12.8536L21.8536 12.1464ZM21.1464 12.1464L18.1464 15.1464L18.8536 15.8536L21.8536 12.8536L21.1464 12.1464Z" fill="#4A4A4A"/>
</svg>
