<svg width="24" height="24" viewBox="0 0 24 24" fill="none" xmlns="http://www.w3.org/2000/svg">
<path fill-rule="evenodd" clip-rule="evenodd" d="M10 1C9.44772 1 9 1.44772 9 2C9 2.55228 9.44772 3 10 3H12.5C7.42101 3 3.27294 6.98572 3.01293 12H3V12.5V13H3.01293C3.27294 18.0143 7.42101 22 12.5 22C17.7467 22 22 17.7467 22 12.5C22 7.25329 17.7467 3 12.5 3H15C15.5523 3 16 2.55228 16 2C16 1.44772 15.5523 1 15 1H10ZM3.01293 13C3.00435 12.8344 3 12.6677 3 12.5C3 12.3323 3.00435 12.1656 3.01293 12H12.2929L10.1464 9.85355C9.95118 9.65829 9.95118 9.34171 10.1464 9.14645C10.3417 8.95118 10.6583 8.95118 10.8536 9.14645L13.8536 12.1464C14.0488 12.3417 14.0488 12.6583 13.8536 12.8536L10.8536 15.8536C10.6583 16.0488 10.3417 16.0488 10.1464 15.8536C9.95118 15.6583 9.95118 15.3417 10.1464 15.1464L12.2929 13H3.01293Z" fill="#4A4A4A"/>
</svg>
