<svg width="24" height="24" viewBox="0 0 24 24" fill="none" xmlns="http://www.w3.org/2000/svg">
<path fill-rule="evenodd" clip-rule="evenodd" d="M10 1C9.44772 1 9 1.44772 9 2C9 2.55228 9.44772 3 10 3H12.5C7.25329 3 3 7.25329 3 12.5C3 17.7467 7.25329 22 12.5 22C17.7467 22 22 17.7467 22 12.5C22 7.25329 17.7467 3 12.5 3H15C15.5523 3 16 2.55228 16 2C16 1.44772 15.5523 1 15 1H10ZM14.1464 9.14645C14.3417 8.95118 14.6583 8.95118 14.8536 9.14645L17.8536 12.1464C18.0488 12.3417 18.0488 12.6583 17.8536 12.8536L14.8536 15.8536C14.6583 16.0488 14.3417 16.0488 14.1464 15.8536C13.9512 15.6583 13.9512 15.3417 14.1464 15.1464L16.2929 13H7.5C7.22386 13 7 12.7761 7 12.5C7 12.2239 7.22386 12 7.5 12H16.2929L14.1464 9.85355C13.9512 9.65829 13.9512 9.34171 14.1464 9.14645Z" fill="#4A4A4A"/>
</svg>
