<svg width="24" height="24" viewBox="0 0 24 24" fill="none" xmlns="http://www.w3.org/2000/svg">
<path fill-rule="evenodd" clip-rule="evenodd" d="M22 12C22 17.5228 17.5228 22 12 22C6.47715 22 2 17.5228 2 12C2 6.47715 6.47715 2 12 2C17.5228 2 22 6.47715 22 12ZM16.9497 15.5355C17.3403 15.926 17.3403 16.5592 16.9497 16.9497C16.5592 17.3402 15.9261 17.3402 15.5355 16.9497L12 13.4142L8.46449 16.9497C8.07397 17.3403 7.4408 17.3403 7.05028 16.9497C6.65975 16.5592 6.65975 15.926 7.05028 15.5355L10.5858 12L7.05025 8.46443C6.65972 8.07391 6.65972 7.44074 7.05025 7.05022C7.44077 6.65969 8.07394 6.65969 8.46446 7.05022L12 10.5858L15.5356 7.05024C15.9261 6.65971 16.5592 6.65971 16.9498 7.05024C17.3403 7.44076 17.3403 8.07393 16.9498 8.46445L13.4142 12L16.9497 15.5355Z" fill="#4A4A4A"/>
</svg>
