<svg width="24" height="24" viewBox="0 0 24 24" fill="none" xmlns="http://www.w3.org/2000/svg">
<path d="M17.8536 6.85355C18.0488 6.65829 18.0488 6.34171 17.8536 6.14645C17.6583 5.95118 17.3417 5.95118 17.1464 6.14645L17.8536 6.85355ZM6.14645 17.1464C5.95118 17.3417 5.95118 17.6583 6.14645 17.8536C6.34171 18.0488 6.65829 18.0488 6.85355 17.8536L6.14645 17.1464ZM6.85355 6.14645C6.65829 5.95118 6.34171 5.95118 6.14645 6.14645C5.95118 6.34171 5.95118 6.65829 6.14645 6.85355L6.85355 6.14645ZM17.1464 17.8536C17.3417 18.0488 17.6583 18.0488 17.8536 17.8536C18.0488 17.6583 18.0488 17.3417 17.8536 17.1464L17.1464 17.8536ZM17.1464 6.14645L11.6464 11.6464L12.3536 12.3536L17.8536 6.85355L17.1464 6.14645ZM11.6464 11.6464L6.14645 17.1464L6.85355 17.8536L12.3536 12.3536L11.6464 11.6464ZM12.3536 11.6464L6.85355 6.14645L6.14645 6.85355L11.6464 12.3536L12.3536 11.6464ZM11.6464 12.3536L17.1464 17.8536L17.8536 17.1464L12.3536 11.6464L11.6464 12.3536Z" fill="#4A4A4A"/>
</svg>
