<svg width="24" height="24" viewBox="0 0 24 24" fill="none" xmlns="http://www.w3.org/2000/svg">
<path fill-rule="evenodd" clip-rule="evenodd" d="M17.6743 7.04508C16.8635 4.69118 14.6293 3 12 3C8.68629 3 6 5.68629 6 9C3.79086 9 2 10.7909 2 13C2 15.2091 3.79086 17 6 17H10V14C10 12.8954 10.8954 12 12 12C13.1046 12 14 12.8954 14 14V17H17C19.7614 17 22 14.7614 22 12C22 9.46726 20.1168 7.37436 17.6743 7.04508ZM11 14C11 13.4477 11.4477 13 12 13C12.5523 13 13 13.4477 13 14V18H15L12 22L9 18H11V14Z" fill="#4A4A4A"/>
</svg>
