<svg width="24" height="24" viewBox="0 0 24 24" fill="none" xmlns="http://www.w3.org/2000/svg">
<path fill-rule="evenodd" clip-rule="evenodd" d="M20.9763 9.90056C21.5737 10.0008 22.0082 10.5147 21.9999 11.1205V12.8795C21.9999 13.4853 21.5654 13.9992 20.9679 14.0994L19.5641 14.3334C19.4221 14.8013 19.2299 15.2567 19.0001 15.6954L19.8273 16.8569C20.1783 17.3499 20.1198 18.0226 19.6936 18.4487L18.4486 19.6938C18.2147 19.9277 17.9055 20.0572 17.5754 20.0572C17.3164 20.0572 17.0657 19.9779 16.8568 19.8274L15.6995 19.0002C15.265 19.23 14.8096 19.418 14.3375 19.5642L14.0994 20.968C13.9991 21.5655 13.4852 22 12.8794 22H11.1163C10.5105 22 9.99661 21.5655 9.89634 20.968L9.66237 19.5642C9.20698 19.4222 8.76411 19.2425 8.34214 19.0211L7.16813 19.8567C6.95924 20.0071 6.71274 20.0865 6.4537 20.0865C6.12364 20.0865 5.81448 19.957 5.58051 19.723L4.33548 18.478C3.90515 18.0518 3.85083 17.3792 4.20178 16.8862L5.02484 15.7414C4.79088 15.3069 4.59869 14.8515 4.45246 14.3835L3.03196 14.1412C2.43451 14.0409 2 13.5271 2 12.9212V11.1623C2 10.5565 2.43451 10.0426 3.03196 9.94234L4.41904 9.70838C4.56109 9.23626 4.74492 8.78087 4.97471 8.34218L4.13911 7.16816C3.78817 6.67516 3.84666 6.00251 4.27281 5.57635L5.52202 4.33131C5.75181 4.09735 6.06515 3.96783 6.39521 3.96783C6.65424 3.96783 6.90492 4.04721 7.11382 4.19762L8.26276 5.02486C8.69727 4.79089 9.15266 4.5987 9.62059 4.45248L9.86292 3.03196C9.96319 2.43451 10.4771 2 11.0829 2H12.8418C13.4476 2 13.9615 2.43451 14.0618 3.03196L14.2957 4.41905C14.7845 4.56528 15.2567 4.76165 15.7079 4.99979L16.8694 4.17255C17.0782 4.02214 17.3247 3.94276 17.5838 3.94276C17.9138 3.94276 18.223 4.07228 18.457 4.30625L19.702 5.55128C20.1323 5.97744 20.1866 6.65009 19.8357 7.1431L19.0085 8.3004C19.2383 8.73491 19.4263 9.19031 19.5725 9.66242L20.9763 9.90056ZM20.8108 10.8868L18.7991 10.5455L18.6173 9.95828C18.4886 9.54305 18.3241 9.14533 18.1245 8.76789L17.8356 8.22162L18.1949 7.71888L19.021 6.56317C19.0892 6.46742 19.0787 6.34142 18.9949 6.25839L17.7499 5.01335C17.7023 4.96581 17.647 4.94276 17.5838 4.94276C17.5343 4.94276 17.4922 4.9563 17.4495 4.98707L15.7861 6.1718L15.2411 5.88417C14.8394 5.67214 14.4273 5.5022 14.0091 5.3771L13.4131 5.19881L13.3097 4.58538L13.0756 3.19748C13.0562 3.08187 12.9594 3 12.8418 3H11.0829C10.9653 3 10.8685 3.08187 10.8487 3.20012L10.5034 5.2243L9.91887 5.40696C9.51272 5.53388 9.11613 5.7011 8.73686 5.90533L8.18609 6.2019L6.52951 5.00915C6.49245 4.98247 6.44656 4.96783 6.39521 4.96783C6.33146 4.96783 6.2758 4.99096 6.22794 5.0396L4.97992 6.28346C4.89784 6.36553 4.88692 6.4943 4.95383 6.5883L6.14536 8.26242L5.86054 8.80618C5.6628 9.18369 5.50206 9.57964 5.37663 9.9965L5.19771 10.5912L4.58536 10.6944L3.19747 10.9286C3.08187 10.948 3 11.0447 3 11.1623V12.9212C3 13.0388 3.08187 13.1356 3.20012 13.1555L5.22428 13.5008L5.40694 14.0853C5.53386 14.4914 5.70109 14.888 5.90531 15.2673L6.20165 15.8176L5.83677 16.3251L5.01645 17.4661C4.94829 17.5618 4.95876 17.6878 5.04259 17.7709L6.28762 19.0159C6.33516 19.0634 6.39043 19.0865 6.4537 19.0865C6.50317 19.0865 6.54523 19.0729 6.58826 19.042L8.2628 17.8501L8.8068 18.1356C9.16591 18.3241 9.55151 18.4821 9.96015 18.6096L10.5476 18.7928L10.6488 19.3998L10.8825 20.8025C10.9019 20.9181 10.9987 21 11.1163 21H12.8794C12.997 21 13.0938 20.9181 13.1135 20.8008L13.4544 18.7909L14.0416 18.609C14.4569 18.4804 14.8546 18.3158 15.232 18.1162L15.7783 17.8273L16.281 18.1867L17.4411 19.0159C17.4782 19.0426 17.5241 19.0572 17.5754 19.0572C17.6387 19.0572 17.694 19.0342 17.7415 18.9866L18.9865 17.7416C19.0686 17.6595 19.0795 17.5308 19.0128 17.437L17.8293 15.7754L18.1143 15.2314C18.3224 14.8341 18.4876 14.437 18.6073 14.0429L18.7875 13.449L19.3997 13.347L20.8024 13.1132C20.918 13.0938 20.9999 12.997 20.9999 12.8795L21 11.1067C21.0015 10.9975 20.9244 10.9058 20.8108 10.8868ZM12 16C9.79086 16 8 14.2091 8 12C8 9.79086 9.79086 8 12 8C14.2091 8 16 9.79086 16 12C16 14.2091 14.2091 16 12 16ZM12 15C13.6569 15 15 13.6569 15 12C15 10.3431 13.6569 9 12 9C10.3431 9 9 10.3431 9 12C9 13.6569 10.3431 15 12 15Z" fill="#4A4A4A"/>
</svg>
