<svg width="24" height="24" viewBox="0 0 24 24" fill="none" xmlns="http://www.w3.org/2000/svg">
<path fill-rule="evenodd" clip-rule="evenodd" d="M10.5 12C13.4892 12 16.2403 11.5402 18.2806 10.7629C19.2973 10.3756 20.189 9.89007 20.8441 9.30003C20.8971 9.25226 20.9492 9.20327 21 9.15308V11.5C21 13.433 16.299 15 10.5 15C4.70101 15 0 13.433 0 11.5V9.15308C0.050835 9.20327 0.102864 9.25226 0.155901 9.30003C0.811016 9.89007 1.70271 10.3756 2.71938 10.7629C4.75967 11.5402 7.5108 12 10.5 12ZM0 7C0 9.20914 4.70101 11 10.5 11C16.299 11 21 9.20914 21 7C21 5.34315 18.3557 3.92157 14.5871 3.31434C13.3309 3.11193 11.9497 3 10.5 3C4.70101 3 0 4.79086 0 7Z" fill="#4A4A4A"/>
<path fill-rule="evenodd" clip-rule="evenodd" d="M10.5 16.0001C13.4771 16.0001 16.2138 15.5993 18.2408 14.9236C19.2491 14.5875 20.1373 14.1653 20.7938 13.6478C21.404 13.167 21.9387 12.4986 21.9951 11.6487C23.2561 12.3087 24 13.1213 24 14.0001C24 16.2092 19.299 18.0001 13.5 18.0001C8.7291 18.0001 4.70138 16.7879 3.4232 15.128C5.36577 15.6793 7.83671 16.0001 10.5 16.0001ZM21.2806 17.763C19.2403 18.5403 16.4892 19.0001 13.5 19.0001C10.5108 19.0001 7.75967 18.5403 5.71938 17.763C4.70271 17.3757 3.81102 16.8902 3.1559 16.3001C3.10286 16.2523 3.05083 16.2034 3 16.1532V18.5001C3 20.4331 7.70101 22.0001 13.5 22.0001C19.299 22.0001 24 20.4331 24 18.5001V16.1532C23.9492 16.2034 23.8971 16.2523 23.8441 16.3001C23.189 16.8902 22.2973 17.3757 21.2806 17.763Z" fill="#4A4A4A"/>
</svg>
