<svg width="24" height="24" viewBox="0 0 24 24" fill="none" xmlns="http://www.w3.org/2000/svg">
<path fill-rule="evenodd" clip-rule="evenodd" d="M21.5555 8.71197C21.5816 8.5986 21.5957 8.48252 21.5957 8.36364V5.63636C21.5957 3.27447 16.29 2 11.2978 2C6.3057 2 1 3.27447 1 5.63636C1 5.73825 1.01053 5.83794 1.02982 5.93574C1.01156 5.98435 1 6.03618 1 6.09092V8.36364C1 9.11921 1.54364 9.76329 2.44564 10.2902C2.41866 10.4047 2.40426 10.5203 2.40426 10.6363C2.40426 10.7382 2.41479 10.8379 2.43408 10.9357C2.41578 10.9844 2.40426 11.0362 2.40426 11.0909V13.3636C2.40426 13.5723 2.4465 13.7723 2.52543 13.9639C1.66168 14.5854 1.4681 15.2076 1.4681 15.6364C1.4681 15.7383 1.47863 15.8379 1.49792 15.9357C1.47962 15.9844 1.4681 16.0361 1.4681 16.0909V18.3636C1.4681 20.7255 6.77384 22 11.766 22C16.7581 22 22.0639 20.7255 22.0639 18.3636V15.6364C22.0639 15.4346 22.0223 15.2353 21.9418 15.0407C22.6095 14.564 23 14.0039 23 13.3636V10.6364V10.6363C23 10.1358 22.7416 9.40862 21.5555 8.71197ZM4.49521 3.8177C6.30527 3.23183 8.72123 2.90912 11.2978 2.90912C13.8745 2.90912 16.2903 3.23183 18.1005 3.8177C19.7029 4.33639 20.6595 5.01627 20.6595 5.63636C20.6595 6.25645 19.7029 6.93633 18.1005 7.45502C16.2903 8.04089 13.8745 8.3636 11.2978 8.3636C8.72123 8.3636 6.30522 8.04089 4.49521 7.45502C2.89277 6.93633 1.93616 6.25645 1.93616 5.63636C1.93616 5.01627 2.89282 4.33639 4.49521 3.8177ZM20.6596 8.36364V7.22307C20.1819 7.59092 19.5417 7.91125 18.7873 8.18238V9.93349C19.9711 9.45673 20.6596 8.88893 20.6596 8.36364ZM17.8511 8.47826V10.2592C17.2779 10.432 16.6496 10.5796 15.9787 10.7004V8.89114C16.6384 8.7781 17.2678 8.64028 17.8511 8.47826ZM15.0426 10.8483V9.03267C14.4324 9.11299 13.8045 9.17345 13.1703 9.21355V11.0326C13.8156 10.9919 14.4421 10.93 15.0426 10.8483ZM12.2341 9.25791V11.0764C11.9249 11.0859 11.6126 11.0909 11.2979 11.0909C10.9831 11.0909 10.6708 11.0859 10.3617 11.0764V9.25786C10.6741 9.26771 10.9866 9.27268 11.2979 9.27268C11.6092 9.27272 11.9217 9.26775 12.2341 9.25791ZM9.42553 11.0326V9.21355C8.79122 9.17345 8.16332 9.11299 7.55316 9.03271V10.8483C8.15365 10.93 8.78018 10.9919 9.42553 11.0326ZM6.617 8.89118V10.7004C5.94609 10.5796 5.31776 10.432 4.74468 10.2592V8.47826C5.32794 8.64028 5.95739 8.77814 6.617 8.89118ZM1.93616 7.22307V8.36364C1.93616 8.88893 2.62461 9.45673 3.80848 9.93349V8.18238C3.05399 7.91125 2.41389 7.59092 1.93616 7.22307ZM3.34042 12.223C3.81815 12.5908 4.45825 12.9112 5.21274 13.1823V14.9334C4.02887 14.4567 3.34042 13.8889 3.34042 13.3636V12.223ZM2.40426 18.3636C2.40426 18.8889 3.09271 19.4567 4.27658 19.9335V18.1824C3.52209 17.9112 2.88199 17.5909 2.40426 17.2231V18.3636ZM7.08511 20.7004C6.41419 20.5796 5.78586 20.432 5.21279 20.2592V18.4783C5.79604 18.6402 6.42549 18.7781 7.08511 18.8912V20.7004ZM8.02127 20.8483C8.62175 20.9299 9.24828 20.9919 9.89363 21.0326V19.2136C9.25932 19.1734 8.63142 19.1129 8.02127 19.0327V20.8483ZM12.7021 21.0764C12.3929 21.0859 12.0807 21.0909 11.7659 21.0909C11.4512 21.0909 11.1389 21.0859 10.8298 21.0764V19.2579C11.1422 19.2678 11.4546 19.2727 11.7659 19.2727C12.0773 19.2727 12.3897 19.2678 12.7021 19.2579V21.0764ZM13.6383 21.0326C14.2837 20.9919 14.9101 20.93 15.5106 20.8483V19.0327C14.9005 19.113 14.2726 19.1735 13.6383 19.2136V21.0326ZM18.3192 20.2592C17.746 20.432 17.1178 20.5796 16.4468 20.7004V18.8911C17.1065 18.7781 17.7359 18.6402 18.3192 18.4783V20.2592ZM19.2554 19.9335C20.4392 19.4567 21.1277 18.8889 21.1277 18.3636V17.2231C20.65 17.5909 20.0099 17.9112 19.2554 18.1824V19.9335ZM18.5686 17.455C16.7584 18.0409 14.3426 18.3636 11.766 18.3636C9.18937 18.3636 6.77337 18.0409 4.96335 17.455C3.36092 16.9363 2.4043 16.2564 2.4043 15.6364C2.4043 15.2806 2.72154 14.9552 3.05902 14.7097C4.62673 16.2057 8.76179 17 12.7022 17C15.8533 17 19.1287 16.492 21.1165 15.5235C21.1234 15.5612 21.1277 15.5988 21.1277 15.6364C21.1277 16.2565 20.171 16.9363 18.5686 17.455ZM6.14895 13.4782V15.2592C6.72202 15.432 7.35035 15.5796 8.02127 15.7004V13.8911C7.36165 13.7781 6.7322 13.6402 6.14895 13.4782ZM8.95747 15.8483V14.0326C9.56763 14.1129 10.1955 14.1734 10.8298 14.2135V16.0326C10.1844 15.9919 9.55791 15.93 8.95747 15.8483ZM11.7659 14.2578V16.0764C12.0751 16.0859 12.3874 16.0909 12.7021 16.0909C13.0169 16.0909 13.3291 16.0859 13.6383 16.0764V14.2578C13.3259 14.2677 13.0134 14.2726 12.7021 14.2726C12.3908 14.2726 12.0783 14.2677 11.7659 14.2578ZM14.5745 16.0326V14.2135C15.2088 14.1734 15.8367 14.1129 16.4468 14.0326V15.8483C15.8463 15.93 15.2198 15.9919 14.5745 16.0326ZM17.383 13.8911V15.7004C18.0539 15.5796 18.6822 15.432 19.2553 15.2592V13.4782C18.6721 13.6402 18.0427 13.7781 17.383 13.8911ZM22.0638 13.3636C22.0638 13.8889 21.3754 14.4567 20.1915 14.9335V13.1823C20.9461 12.9112 21.5862 12.5909 22.0638 12.223V13.3636ZM12.7022 13.3636C15.2788 13.3636 17.6947 13.0409 19.5048 12.455C21.1072 11.9363 22.0638 11.2564 22.0638 10.6363C22.0638 10.2788 21.7317 9.88788 21.1223 9.52032C19.716 11.1387 15.4014 12 11.2979 12C8.38199 12 5.3597 11.565 3.34966 10.7327C3.44234 11.3261 4.37962 11.963 5.89951 12.455C7.70953 13.0409 10.1255 13.3636 12.7022 13.3636Z" fill="#4A4A4A"/>
</svg>
