<svg width="24" height="24" viewBox="0 0 24 24" fill="none" xmlns="http://www.w3.org/2000/svg">
<path fill-rule="evenodd" clip-rule="evenodd" d="M2 6C2 4.89543 2.89543 4 4 4H20C21.1046 4 22 4.89543 22 6V17C22 18.1046 21.1046 19 20 19H19V22L15 19H4C2.89543 19 2 18.1046 2 17V6ZM18.5 8C18.7761 8 19 7.77614 19 7.5C19 7.22386 18.7761 7 18.5 7H5.5C5.22386 7 5 7.22386 5 7.5C5 7.77614 5.22386 8 5.5 8H18.5ZM19 11.5C19 11.7761 18.7761 12 18.5 12H5.5C5.22386 12 5 11.7761 5 11.5C5 11.2239 5.22386 11 5.5 11H18.5C18.7761 11 19 11.2239 19 11.5ZM14.5 16C14.7761 16 15 15.7761 15 15.5C15 15.2239 14.7761 15 14.5 15H5.5C5.22386 15 5 15.2239 5 15.5C5 15.7761 5.22386 16 5.5 16H14.5Z" fill="#4A4A4A"/>
</svg>
