<svg width="24" height="24" viewBox="0 0 24 24" fill="none" xmlns="http://www.w3.org/2000/svg">
<path fill-rule="evenodd" clip-rule="evenodd" d="M18 19C18 18.4477 18.4477 18 19 18H20C20.5523 18 21 17.5523 21 17V6C21 5.44772 20.5523 5 20 5H4C3.44772 5 3 5.44772 3 6V17C3 17.5523 3.44772 18 4 18H15C15.2164 18 15.4269 18.0702 15.6 18.2L18 20V19ZM19 22L15 19H4C2.89543 19 2 18.1046 2 17V6C2 4.89543 2.89543 4 4 4H20C21.1046 4 22 4.89543 22 6V17C22 18.1046 21.1046 19 20 19H19V22Z" fill="#4A4A4A"/>
<path fill-rule="evenodd" clip-rule="evenodd" d="M5.5 11C5.22386 11 5 11.2239 5 11.5C5 11.7761 5.22386 12 5.5 12H18.5C18.7761 12 19 11.7761 19 11.5C19 11.2239 18.7761 11 18.5 11H5.5Z" fill="#4A4A4A"/>
<path fill-rule="evenodd" clip-rule="evenodd" d="M5.5 8C5.22386 8 5 8.22386 5 8.5C5 8.77614 5.22386 9 5.5 9H18.5C18.7761 9 19 8.77614 19 8.5C19 8.22386 18.7761 8 18.5 8H5.5Z" fill="#4A4A4A"/>
<path fill-rule="evenodd" clip-rule="evenodd" d="M5.35714 14C5.1599 14 5 14.2239 5 14.5C5 14.7761 5.1599 15 5.35714 15H14.6429C14.8401 15 15 14.7761 15 14.5C15 14.2239 14.8401 14 14.6429 14H5.35714Z" fill="#4A4A4A"/>
</svg>
