<svg width="24" height="24" viewBox="0 0 24 24" fill="none" xmlns="http://www.w3.org/2000/svg">
<path fill-rule="evenodd" clip-rule="evenodd" d="M11 8V4C11 3.44772 11.4477 3 12 3H18L21 6V15C21 15.5523 20.5523 16 20 16H13V20C13 20.5523 12.5523 21 12 21H4C3.44772 21 3 20.5523 3 20V9C3 8.44772 3.44772 8 4 8H11ZM13 9.50049C13 9.50082 13 9.50016 13 9.50049C13.0001 9.62829 13.0489 9.75605 13.1464 9.85355L15.1464 11.8536C15.3417 12.0488 15.6583 12.0488 15.8536 11.8536C16.0488 11.6583 16.0488 11.3417 15.8536 11.1464L14.7071 10H18.5C18.7761 10 19 9.77614 19 9.5C19 9.22386 18.7761 9 18.5 9H14.7071L15.8536 7.85355C16.0488 7.65829 16.0488 7.34171 15.8536 7.14645C15.6583 6.95118 15.3417 6.95118 15.1464 7.14645L13.1464 9.14645C13.0489 9.24395 13.0001 9.37269 13 9.50049ZM11 14.4997C10.9999 14.3718 10.9511 14.244 10.8536 14.1464L8.85355 12.1464C8.65829 11.9512 8.34171 11.9512 8.14645 12.1464C7.95118 12.3417 7.95118 12.6583 8.14645 12.8536L9.29289 14H5.5C5.22386 14 5 14.2239 5 14.5C5 14.7761 5.22386 15 5.5 15H9.29289L8.14645 16.1464C7.95118 16.3417 7.95118 16.6583 8.14645 16.8536C8.34171 17.0488 8.65829 17.0488 8.85355 16.8536L10.8536 14.8536C10.9511 14.756 10.9999 14.6275 11 14.4997C11 14.4999 11 14.4994 11 14.4997Z" fill="#4A4A4A"/>
</svg>
