<svg width="24" height="24" viewBox="0 0 24 24" fill="none" xmlns="http://www.w3.org/2000/svg">
<path d="M19.5 9.24152C19.5 8.96538 19.2761 8.74152 19 8.74152H14.5L16.25 7.01178C16.4114 6.85037 16.4514 6.60383 16.3493 6.39966C16.1874 6.0759 15.7559 6.00582 15.5 6.26178L13.2071 8.53443C12.8166 8.92495 12.8166 9.55809 13.2071 9.94861L15.5 12.2415C15.7559 12.4975 16.1874 12.4274 16.3493 12.1036C16.4514 11.8995 16.4114 11.6529 16.25 11.4915L14.5 9.74152H19C19.2761 9.74152 19.5 9.51766 19.5 9.24152Z" fill="#4A4A4A"/>
<path d="M3.91421 17.7618C3.63807 17.7618 3.41421 17.5379 3.41421 17.2618C3.41421 16.9856 3.63807 16.7618 3.91421 16.7618L8.41421 16.7618L6.66421 15.0118C6.5028 14.8504 6.46279 14.6038 6.56488 14.3997C6.72676 14.0759 7.15825 14.0058 7.41421 14.2618L9.70711 16.5547C10.0976 16.9452 10.0976 17.5783 9.70711 17.9689L7.41421 20.2415C7.15826 20.4975 6.72676 20.4274 6.56488 20.1036C6.46279 19.8995 6.5028 19.6529 6.66421 19.4915L8.41421 17.7618H3.91421Z" fill="#4A4A4A"/>
<path fill-rule="evenodd" clip-rule="evenodd" d="M20.6877 3.53776L21.8594 4.66559C21.9458 4.74029 22 4.84861 21.9992 4.98494V15.5918C21.9992 15.8173 21.8093 16 21.5751 16H13V22C13 22.5523 12.5523 23 12 23H2C1.44772 23 1 22.5523 1 22V10C1 9.44772 1.44772 9 2 9H10V1.40816C10 1.18273 10.1899 1 10.4241 1C10.4241 1 17.8901 1.00049 17.8995 1.00082C18.0057 1.00514 18.1067 1.04718 18.182 1.11992L20.6877 3.53776ZM11 15H21V6H18C17.4477 6 17 5.55228 17 5V2H11V15ZM10 10H2V22H12V16H10.4241C10.1899 16 10 15.8173 10 15.5918V10ZM18 4.96918L20.6877 4.98494L18 2.5V4.96918Z" fill="#4A4A4A"/>
</svg>
