<svg width="24" height="24" viewBox="0 0 24 24" fill="none" xmlns="http://www.w3.org/2000/svg">
<path fill-rule="evenodd" clip-rule="evenodd" d="M18 9H19C19.6633 9 20 9.30906 20 10V21C20 21.6909 19.6633 22 19 22H14V18H12V22H5C4.3367 22 4 21.6909 4 21V6C4 5.30906 4.3367 5 5 5H8V3C8 2.30906 8.3367 2 9 2H17C17.6633 2 18 2.30906 18 3V9ZM5 21H8V6H5V21ZM17 21H15V18C15 17.4477 14.5523 17 14 17H12C11.4477 17 11 17.4477 11 18V21H9V3H17V21ZM6.5 9C6.77614 9 7 9.22386 7 9.5C7 9.77614 6.77614 10 6.5 10C6.22386 10 6 9.77614 6 9.5C6 9.22386 6.22386 9 6.5 9ZM7 13.5C7 13.2239 6.77614 13 6.5 13C6.22386 13 6 13.2239 6 13.5C6 13.7761 6.22386 14 6.5 14C6.77614 14 7 13.7761 7 13.5ZM6.5 17C6.77614 17 7 17.2239 7 17.5C7 17.7761 6.77614 18 6.5 18C6.22386 18 6 17.7761 6 17.5C6 17.2239 6.22386 17 6.5 17ZM16 5.5C16 5.22386 15.7761 5 15.5 5H10.5C10.2239 5 10 5.22386 10 5.5C10 5.77614 10.2239 6 10.5 6H15.5C15.7761 6 16 5.77614 16 5.5ZM15.5 7C15.7761 7 16 7.22386 16 7.5C16 7.77614 15.7761 8 15.5 8H10.5C10.2239 8 10 7.77614 10 7.5C10 7.22386 10.2239 7 10.5 7H15.5ZM16 9.5C16 9.22386 15.7761 9 15.5 9H10.5C10.2239 9 10 9.22386 10 9.5C10 9.77614 10.2239 10 10.5 10H15.5C15.7761 10 16 9.77614 16 9.5ZM15.5 11C15.7761 11 16 11.2239 16 11.5C16 11.7761 15.7761 12 15.5 12H10.5C10.2239 12 10 11.7761 10 11.5C10 11.2239 10.2239 11 10.5 11H15.5ZM16 13.5C16 13.2239 15.7761 13 15.5 13H10.5C10.2239 13 10 13.2239 10 13.5C10 13.7761 10.2239 14 10.5 14H15.5C15.7761 14 16 13.7761 16 13.5ZM15.5 15C15.7761 15 16 15.2239 16 15.5C16 15.7761 15.7761 16 15.5 16H10.5C10.2239 16 10 15.7761 10 15.5C10 15.2239 10.2239 15 10.5 15H15.5ZM19 21H18V10H19V21Z" fill="#4A4A4A"/>
</svg>
