<svg width="24" height="24" viewBox="0 0 24 24" fill="none" xmlns="http://www.w3.org/2000/svg">
<path d="M15.5 2.5H16C16 2.22386 15.7761 2 15.5 2V2.5ZM8.5 2.5V2C8.22386 2 8 2.22386 8 2.5H8.5ZM8.5 4.5H8C8 4.77614 8.22386 5 8.5 5V4.5ZM15.5 4.5V5C15.7761 5 16 4.77614 16 4.5H15.5ZM15.8536 10.8536C16.0488 10.6583 16.0488 10.3417 15.8536 10.1464C15.6583 9.95118 15.3417 9.95118 15.1464 10.1464L15.8536 10.8536ZM10.5 15.5L10.1464 15.8536C10.3417 16.0488 10.6583 16.0488 10.8536 15.8536L10.5 15.5ZM8.85355 13.1464C8.65829 12.9512 8.34171 12.9512 8.14645 13.1464C7.95118 13.3417 7.95118 13.6583 8.14645 13.8536L8.85355 13.1464ZM5.5 22H18.5V21H5.5V22ZM20 20.5V4.5H19V20.5H20ZM18.5 3H15.5V4H18.5V3ZM16 3.5V2.5H15V3.5H16ZM15.5 2H8.5V3H15.5V2ZM8 2.5V3.5H9V2.5H8ZM8.5 3H5.5V4H8.5V3ZM4 4.5V20.5H5V4.5H4ZM8 3.5V4.5H9V3.5H8ZM8.5 5H15.5V4H8.5V5ZM16 4.5V3.5H15V4.5H16ZM15.1464 10.1464L10.1464 15.1464L10.8536 15.8536L15.8536 10.8536L15.1464 10.1464ZM10.8536 15.1464L8.85355 13.1464L8.14645 13.8536L10.1464 15.8536L10.8536 15.1464ZM5.5 3C4.67157 3 4 3.67157 4 4.5H5C5 4.22386 5.22386 4 5.5 4V3ZM20 4.5C20 3.67157 19.3284 3 18.5 3V4C18.7761 4 19 4.22386 19 4.5H20ZM18.5 22C19.3284 22 20 21.3284 20 20.5H19C19 20.7761 18.7761 21 18.5 21V22ZM5.5 21C5.22386 21 5 20.7761 5 20.5H4C4 21.3284 4.67157 22 5.5 22V21Z" fill="#4A4A4A"/>
</svg>
