<svg width="24" height="24" viewBox="0 0 24 24" fill="none" xmlns="http://www.w3.org/2000/svg">
<path fill-rule="evenodd" clip-rule="evenodd" d="M15.6877 4.53776L16.8594 5.66559C16.9458 5.74029 17 5.84861 16.9992 5.98494V21.5918C16.9992 21.8173 16.8093 22 16.5751 22H1.42406C1.1899 22 1 21.8173 1 21.5918V2.40816C1 2.18273 1.1899 2 1.42406 2C1.42406 2 12.8901 2.00049 12.8995 2.00082C13.0057 2.00514 13.1067 2.04718 13.182 2.11992L15.6877 4.53776ZM13 5.96918L15.6877 5.98494L13 3.5V5.96918ZM2 21V3H12V6C12 6.55228 12.4477 7 13 7H16V21H2ZM4.5 5C4.22386 5 4 5.22386 4 5.5C4 5.77614 4.22386 6 4.5 6H9.5C9.77614 6 10 5.77614 10 5.5C10 5.22386 9.77614 5 9.5 5H4.5ZM4 9.5C4 9.22386 4.22386 9 4.5 9H13.5C13.7761 9 14 9.22386 14 9.5C14 9.77614 13.7761 10 13.5 10H4.5C4.22386 10 4 9.77614 4 9.5ZM4.5 13C4.22386 13 4 13.2239 4 13.5C4 13.7761 4.22386 14 4.5 14H13.5C13.7761 14 14 13.7761 14 13.5C14 13.2239 13.7761 13 13.5 13H4.5ZM4 7.5C4 7.22386 4.22386 7 4.5 7H9.5C9.77614 7 10 7.22386 10 7.5C10 7.77614 9.77614 8 9.5 8H4.5C4.22386 8 4 7.77614 4 7.5ZM10.5 18C10.2239 18 10 18.2239 10 18.5C10 18.7761 10.2239 19 10.5 19H13.5C13.7761 19 14 18.7761 14 18.5C14 18.2239 13.7761 18 13.5 18H10.5ZM4 11.5C4 11.2239 4.22386 11 4.5 11H13.5C13.7761 11 14 11.2239 14 11.5C14 11.7761 13.7761 12 13.5 12H4.5C4.22386 12 4 11.7761 4 11.5ZM4.5 15C4.22386 15 4 15.2239 4 15.5C4 15.7761 4.22386 16 4.5 16H13.5C13.7761 16 14 15.7761 14 15.5C14 15.2239 13.7761 15 13.5 15H4.5Z" fill="#4A4A4A"/>
<path fill-rule="evenodd" clip-rule="evenodd" d="M19.5 2C19.2239 2 19 2.22386 19 2.5V17.5C19 17.5659 19.0127 17.6288 19.0359 17.6864L20.5318 21.6756C20.605 21.8707 20.7916 22 21 22C21.2084 22 21.395 21.8707 21.4682 21.6756L22.9641 17.6864C22.9873 17.6288 23 17.5659 23 17.5V2.5C23 2.22386 22.7761 2 22.5 2H19.5ZM22 17V8H20V17H22ZM20.2215 18L21 20.076L21.7785 18H20.2215ZM20 7H22V6H20V7ZM22 5V3H20V5H22Z" fill="#4A4A4A"/>
</svg>
