<svg width="24" height="24" viewBox="0 0 24 24" fill="none" xmlns="http://www.w3.org/2000/svg">
<path fill-rule="evenodd" clip-rule="evenodd" d="M12 2.00063V5.5C12 6.32843 12.6716 7 13.5 7H16.9992V21.5918C16.9992 21.8173 16.8093 22 16.5751 22H2.42406C2.1899 22 2 21.8173 2 21.5918V2.40816C2 2.18273 2.1899 2 2.42406 2C2.42406 2 9.4613 2.00033 12 2.00063ZM13 2.01655V5.5C13 5.77614 13.2239 6 13.5 6H16.9992V5.98494C17 5.84861 16.9458 5.74029 16.8594 5.66559L15.6877 4.53776L13.182 2.11992C13.131 2.07065 13.0682 2.03547 13 2.01655ZM22 17H18V6H22V17ZM22 5V2.5C22 2.22386 21.7761 2 21.5 2H18.5C18.2239 2 18 2.22386 18 2.5V5H22ZM18.1535 18H21.8465L20.4682 21.6756C20.395 21.8707 20.2084 22 20 22C19.7916 22 19.605 21.8707 19.5318 21.6756L18.1535 18ZM5.5 5C5.22386 5 5 5.22386 5 5.5C5 5.77614 5.22386 6 5.5 6H9.5C9.77614 6 10 5.77614 10 5.5C10 5.22386 9.77614 5 9.5 5H5.5ZM5.5 7C5.22386 7 5 7.22386 5 7.5C5 7.77614 5.22386 8 5.5 8H9.5C9.77614 8 10 7.77614 10 7.5C10 7.22386 9.77614 7 9.5 7H5.5ZM5.5 9C5.22386 9 5 9.22386 5 9.5C5 9.77614 5.22386 10 5.5 10H13.5C13.7761 10 14 9.77614 14 9.5C14 9.22386 13.7761 9 13.5 9H5.5ZM5.5 11C5.22386 11 5 11.2239 5 11.5C5 11.7761 5.22386 12 5.5 12H13.5C13.7761 12 14 11.7761 14 11.5C14 11.2239 13.7761 11 13.5 11H5.5ZM5.5 13C5.22386 13 5 13.2239 5 13.5C5 13.7761 5.22386 14 5.5 14H13.5C13.7761 14 14 13.7761 14 13.5C14 13.2239 13.7761 13 13.5 13H5.5ZM5.5 15C5.22386 15 5 15.2239 5 15.5C5 15.7761 5.22386 16 5.5 16H13.5C13.7761 16 14 15.7761 14 15.5C14 15.2239 13.7761 15 13.5 15H5.5ZM10.5 18C10.2239 18 10 18.2239 10 18.5C10 18.7761 10.2239 19 10.5 19H13.5C13.7761 19 14 18.7761 14 18.5C14 18.2239 13.7761 18 13.5 18H10.5Z" fill="#4A4A4A"/>
</svg>
