<svg width="24" height="24" viewBox="0 0 24 24" fill="none" xmlns="http://www.w3.org/2000/svg">
<path d="M3.5 21.5H3C3 21.7761 3.22386 22 3.5 22V21.5ZM12.5 21.5V22C12.7761 22 13 21.7761 13 21.5H12.5ZM6.5 2.5V2C6.22386 2 6 2.22386 6 2.5H6.5ZM9.5 2.5H10C10 2.22386 9.77614 2 9.5 2V2.5ZM21.5 7.5V8C21.7525 8 21.9654 7.81172 21.9963 7.56109C22.0271 7.31047 21.8662 7.07617 21.6213 7.01493L21.5 7.5ZM2.5 7.5H2C2 7.77614 2.22386 8 2.5 8V7.5ZM2.5 6.5L2.27639 6.05279C2.107 6.13748 2 6.31061 2 6.5H2.5ZM16.5 9.5V9C16.2239 9 16 9.22386 16 9.5H16.5ZM16.5 12.5H16C16 12.7761 16.2239 13 16.5 13V12.5ZM20.5 12.5V13C20.7761 13 21 12.7761 21 12.5H20.5ZM20.5 9.5H21C21 9.22386 20.7761 9 20.5 9V9.5ZM18.5 14.5H18C18 14.7761 18.2239 15 18.5 15V14.5ZM17 16C17 15.7239 16.7761 15.5 16.5 15.5C16.2239 15.5 16 15.7239 16 16H17ZM3.5 22H12.5V21H3.5V22ZM13 21.5V20.5H12V21.5H13ZM3 20.5V21.5H4V20.5H3ZM6.5 18H5.5V19H6.5V18ZM6.5 3H9.5V2H6.5V3ZM10.5 18H9.5V19H10.5V18ZM9.5 18H6.5V19H9.5V18ZM7 18.5V4.5H6V18.5H7ZM7 4.5V2.5H6V4.5H7ZM9 2.5V4.5H10V2.5H9ZM9 4.5V18.5H10V4.5H9ZM6.5 5H9.5V4H6.5V5ZM21.6213 7.01493L9.62127 4.01493L9.37873 4.98507L21.3787 7.98507L21.6213 7.01493ZM3 7.5V6.5H2V7.5H3ZM2.72361 6.94721L6.72361 4.94721L6.27639 4.05279L2.27639 6.05279L2.72361 6.94721ZM21.5 7H18.5V8H21.5V7ZM18.5 7H2.5V8H18.5V7ZM18 7.5V9.5H19V7.5H18ZM18.5 9H16.5V10H18.5V9ZM16 9.5V12.5H17V9.5H16ZM21 12.5V9.5H20V12.5H21ZM20.5 9H18.5V10H20.5V9ZM16.5 13H18.5V12H16.5V13ZM18.5 13H20.5V12H18.5V13ZM18 12.5V14.5H19V12.5H18ZM18.5 15H19.5V14H18.5V15ZM20 15.5V16.5H21V15.5H20ZM17 16.5V16H16V16.5H17ZM19.5 15C19.7761 15 20 15.2239 20 15.5H21C21 14.6716 20.3284 14 19.5 14V15ZM18.5 18C17.6716 18 17 17.3284 17 16.5H16C16 17.8807 17.1193 19 18.5 19V18ZM4 20.5C4 19.6716 4.67157 19 5.5 19V18C4.11929 18 3 19.1193 3 20.5H4ZM20 16.5C20 17.3284 19.3284 18 18.5 18V19C19.8807 19 21 17.8807 21 16.5H20ZM13 20.5C13 19.1193 11.8807 18 10.5 18V19C11.3284 19 12 19.6716 12 20.5H13Z" fill="#4A4A4A"/>
</svg>
