<svg width="24" height="24" viewBox="0 0 24 24" fill="none" xmlns="http://www.w3.org/2000/svg">
<path fill-rule="evenodd" clip-rule="evenodd" d="M6.5 2C6.22386 2 6 2.22386 6 2.5V4.19098L2.27639 6.05279C2.107 6.13748 2 6.31061 2 6.5V7.5C2 7.77614 2.22386 8 2.5 8H6V18H5.5C4.11929 18 3 19.1193 3 20.5V21.5C3 21.7761 3.22386 22 3.5 22H12.5C12.7761 22 13 21.7761 13 21.5V20.5C13 19.1193 11.8807 18 10.5 18H10V8H17V10.25C17 11.2165 17.7835 12 18.75 12C19.4404 12 20 12.5596 20 13.25V14C20 15.1046 19.1046 16 18 16C16.8954 16 16 15.1046 16 14V13C16 12.4477 15.5523 12 15 12C14.4477 12 14 12.4477 14 13V14C14 16.2091 15.7909 18 18 18C20.2091 18 22 16.2091 22 14V13.25C22 11.5392 20.6781 10.1371 19 10.0095V8H21.5C21.7525 8 21.9654 7.81172 21.9963 7.56109C22.0271 7.31047 21.8662 7.07617 21.6213 7.01493L10 4.10961V2.5C10 2.22386 9.77614 2 9.5 2H6.5Z" fill="#4A4A4A"/>
</svg>
