<svg width="24" height="24" viewBox="0 0 24 24" fill="none" xmlns="http://www.w3.org/2000/svg">
<path fill-rule="evenodd" clip-rule="evenodd" d="M4 4C2.89543 4 2 4.89543 2 6V18C2 19.1046 2.89543 20 4 20H20C21.1046 20 22 19.1046 22 18V6C22 4.89543 21.1046 4 20 4H4ZM6 8.5C6 8.22386 5.77614 8 5.5 8C5.22386 8 5 8.22386 5 8.5V9.5C5 9.77614 5.22386 10 5.5 10C5.77614 10 6 9.77614 6 9.5V8.5ZM8 8.5C8 8.22386 7.77614 8 7.5 8C7.22386 8 7 8.22386 7 8.5V9.5C7 9.77614 7.22386 10 7.5 10C7.77614 10 8 9.77614 8 9.5V8.5ZM10 8.5C10 8.22386 9.77614 8 9.5 8C9.22386 8 9 8.22386 9 8.5V9.5C9 9.77614 9.22386 10 9.5 10C9.77614 10 10 9.77614 10 9.5V8.5ZM15 8.5C15 8.22386 14.7761 8 14.5 8C14.2239 8 14 8.22386 14 8.5V9.5C14 9.77614 14.2239 10 14.5 10C14.7761 10 15 9.77614 15 9.5V8.5ZM17 8.5C17 8.22386 16.7761 8 16.5 8C16.2239 8 16 8.22386 16 8.5V9.5C16 9.77614 16.2239 10 16.5 10C16.7761 10 17 9.77614 17 9.5V8.5ZM19 8.5C19 8.22386 18.7761 8 18.5 8C18.2239 8 18 8.22386 18 8.5V9.5C18 9.77614 18.2239 10 18.5 10C18.7761 10 19 9.77614 19 9.5V8.5ZM13 14.5C13 13.6716 13.6716 13 14.5 13C15.3284 13 16 13.6716 16 14.5C16 15.3284 15.3284 16 14.5 16C13.6716 16 13 15.3284 13 14.5ZM14.5 12C13.1193 12 12 13.1193 12 14.5C12 15.8807 13.1193 17 14.5 17C14.8556 17 15.1939 16.9257 15.5002 16.7919C15.8067 16.9258 16.1452 17 16.5 17C17.8807 17 19 15.8807 19 14.5C19 13.1193 17.8807 12 16.5 12C16.1452 12 15.8067 12.0742 15.5002 12.2081C15.1939 12.0743 14.8556 12 14.5 12ZM18 14.5C18 15.3284 17.3285 15.9999 16.5002 16C16.814 15.5822 17 15.0628 17 14.5C17 13.9372 16.814 13.4178 16.5002 13C17.3285 13.0001 18 13.6716 18 14.5ZM5.5 13C5.22386 13 5 13.2239 5 13.5C5 13.7761 5.22386 14 5.5 14H9.5C9.77614 14 10 13.7761 10 13.5C10 13.2239 9.77614 13 9.5 13H5.5ZM5.5 15C5.22386 15 5 15.2239 5 15.5C5 15.7761 5.22386 16 5.5 16H9.5C9.77614 16 10 15.7761 10 15.5C10 15.2239 9.77614 15 9.5 15H5.5Z" fill="#4A4A4A"/>
</svg>
