<svg width="24" height="24" viewBox="0 0 24 24" fill="none" xmlns="http://www.w3.org/2000/svg">
<path d="M5.5 13C5.22386 13 5 13.2239 5 13.5C5 13.7761 5.22386 14 5.5 14V13ZM9.5 14C9.77614 14 10 13.7761 10 13.5C10 13.2239 9.77614 13 9.5 13V14ZM9.5 16C9.77614 16 10 15.7761 10 15.5C10 15.2239 9.77614 15 9.5 15V16ZM5.5 15C5.22386 15 5 15.2239 5 15.5C5 15.7761 5.22386 16 5.5 16V15ZM5 9.5C5 9.77614 5.22386 10 5.5 10C5.77614 10 6 9.77614 6 9.5H5ZM6 8.5C6 8.22386 5.77614 8 5.5 8C5.22386 8 5 8.22386 5 8.5H6ZM8 8.5C8 8.22386 7.77614 8 7.5 8C7.22386 8 7 8.22386 7 8.5H8ZM7 9.5C7 9.77614 7.22386 10 7.5 10C7.77614 10 8 9.77614 8 9.5H7ZM9 9.5C9 9.77614 9.22386 10 9.5 10C9.77614 10 10 9.77614 10 9.5H9ZM10 8.5C10 8.22386 9.77614 8 9.5 8C9.22386 8 9 8.22386 9 8.5H10ZM15 8.5C15 8.22386 14.7761 8 14.5 8C14.2239 8 14 8.22386 14 8.5H15ZM14 9.5C14 9.77614 14.2239 10 14.5 10C14.7761 10 15 9.77614 15 9.5H14ZM16 9.5C16 9.77614 16.2239 10 16.5 10C16.7761 10 17 9.77614 17 9.5H16ZM17 8.5C17 8.22386 16.7761 8 16.5 8C16.2239 8 16 8.22386 16 8.5H17ZM19 8.5C19 8.22386 18.7761 8 18.5 8C18.2239 8 18 8.22386 18 8.5H19ZM18 9.5C18 9.77614 18.2239 10 18.5 10C18.7761 10 19 9.77614 19 9.5H18ZM2 6.5V17.5H3V6.5H2ZM4.5 20H19.5V19H4.5V20ZM22 17.5V6.5H21V17.5H22ZM19.5 4H4.5V5H19.5V4ZM5.5 14H9.5V13H5.5V14ZM9.5 15H5.5V16H9.5V15ZM6 9.5V8.5H5V9.5H6ZM7 8.5V9.5H8V8.5H7ZM10 9.5V8.5H9V9.5H10ZM14 8.5V9.5H15V8.5H14ZM17 9.5V8.5H16V9.5H17ZM18 8.5V9.5H19V8.5H18ZM18 14.5C18 15.3284 17.3284 16 16.5 16V17C17.8807 17 19 15.8807 19 14.5H18ZM16.5 13C17.3284 13 18 13.6716 18 14.5H19C19 13.1193 17.8807 12 16.5 12V13ZM15.7504 13.2004C15.9705 13.073 16.226 13 16.5 13V12C16.0455 12 15.6179 12.1218 15.2496 12.3348L15.7504 13.2004ZM16.5 16C16.226 16 15.9705 15.927 15.7504 15.7996L15.2496 16.6652C15.6179 16.8782 16.0455 17 16.5 17V16ZM16 14.5C16 15.3284 15.3284 16 14.5 16V17C15.8807 17 17 15.8807 17 14.5H16ZM14.5 16C13.6716 16 13 15.3284 13 14.5H12C12 15.8807 13.1193 17 14.5 17V16ZM13 14.5C13 13.6716 13.6716 13 14.5 13V12C13.1193 12 12 13.1193 12 14.5H13ZM14.5 13C15.3284 13 16 13.6716 16 14.5H17C17 13.1193 15.8807 12 14.5 12V13ZM22 6.5C22 5.11929 20.8807 4 19.5 4V5C20.3284 5 21 5.67157 21 6.5H22ZM19.5 20C20.8807 20 22 18.8807 22 17.5H21C21 18.3284 20.3284 19 19.5 19V20ZM2 17.5C2 18.8807 3.11929 20 4.5 20V19C3.67157 19 3 18.3284 3 17.5H2ZM3 6.5C3 5.67157 3.67157 5 4.5 5V4C3.11929 4 2 5.11929 2 6.5H3Z" fill="#4A4A4A"/>
</svg>
