<svg width="24" height="24" viewBox="0 0 24 24" fill="none" xmlns="http://www.w3.org/2000/svg">
<path fill-rule="evenodd" clip-rule="evenodd" d="M4 3C3.44772 3 3 3.44771 3 4V13C3 13.5523 3.44772 14 4 14H11C11.5523 14 12 13.5523 12 13V4C12 3.44772 11.5523 3 11 3H4ZM14 3C13.4477 3 13 3.44772 13 4V8C13 8.55228 13.4477 9 14 9H20C20.5523 9 21 8.55228 21 8V4C21 3.44772 20.5523 3 20 3H14ZM3 16C3 15.4477 3.44772 15 4 15H11C11.5523 15 12 15.4477 12 16V20C12 20.5523 11.5523 21 11 21H4C3.44772 21 3 20.5523 3 20V16ZM14 10C13.4477 10 13 10.4477 13 11V20C13 20.5523 13.4477 21 14 21H20C20.5523 21 21 20.5523 21 20V11C21 10.4477 20.5523 10 20 10H14Z" fill="#4A4A4A"/>
</svg>
