<svg width="24" height="24" viewBox="0 0 24 24" fill="none" xmlns="http://www.w3.org/2000/svg">
<path d="M4.5 4H10.5V3H4.5V4ZM11 4.5V12.5H12V4.5H11ZM10.5 13H4.5V14H10.5V13ZM4 12.5V4.5H3V12.5H4ZM3 16.5V19.5H4V16.5H3ZM4.5 21H10.5V20H4.5V21ZM12 19.5V16.5H11V19.5H12ZM10.5 15H4.5V16H10.5V15ZM14.5 21H19.5V20H14.5V21ZM21 19.5V11.5H20V19.5H21ZM19.5 10H14.5V11H19.5V10ZM13 11.5V19.5H14V11.5H13ZM14 7.5V4.5H13V7.5H14ZM14.5 4H19.5V3H14.5V4ZM20 4.5V7.5H21V4.5H20ZM19.5 8H14.5V9H19.5V8ZM20 7.5C20 7.77614 19.7761 8 19.5 8V9C20.3284 9 21 8.32843 21 7.5H20ZM19.5 4C19.7761 4 20 4.22386 20 4.5H21C21 3.67157 20.3284 3 19.5 3V4ZM14 4.5C14 4.22386 14.2239 4 14.5 4V3C13.6716 3 13 3.67157 13 4.5H14ZM13 7.5C13 8.32843 13.6716 9 14.5 9V8C14.2239 8 14 7.77614 14 7.5H13ZM14.5 10C13.6716 10 13 10.6716 13 11.5H14C14 11.2239 14.2239 11 14.5 11V10ZM21 11.5C21 10.6716 20.3284 10 19.5 10V11C19.7761 11 20 11.2239 20 11.5H21ZM19.5 21C20.3284 21 21 20.3284 21 19.5H20C20 19.7761 19.7761 20 19.5 20V21ZM14.5 20C14.2239 20 14 19.7761 14 19.5H13C13 20.3284 13.6716 21 14.5 21V20ZM12 16.5C12 15.6716 11.3284 15 10.5 15V16C10.7761 16 11 16.2239 11 16.5H12ZM10.5 21C11.3284 21 12 20.3284 12 19.5H11C11 19.7761 10.7761 20 10.5 20V21ZM3 19.5C3 20.3284 3.67157 21 4.5 21V20C4.22386 20 4 19.7761 4 19.5H3ZM4 16.5C4 16.2239 4.22386 16 4.5 16V15C3.67157 15 3 15.6716 3 16.5H4ZM4.5 13C4.22386 13 4 12.7761 4 12.5H3C3 13.3284 3.67157 14 4.5 14V13ZM11 12.5C11 12.7761 10.7761 13 10.5 13V14C11.3284 14 12 13.3284 12 12.5H11ZM10.5 4C10.7761 4 11 4.22386 11 4.5H12C12 3.67157 11.3284 3 10.5 3V4ZM4.5 3C3.67157 3 3 3.67157 3 4.5H4C4 4.22386 4.22386 4 4.5 4V3Z" fill="#4A4A4A"/>
</svg>
