<svg width="24" height="24" viewBox="0 0 24 24" fill="none" xmlns="http://www.w3.org/2000/svg">
<path fill-rule="evenodd" clip-rule="evenodd" d="M8 4V3C8 2.44772 8.44772 2 9 2H15C15.5523 2 16 2.44772 16 3V4H18C19.6569 4 21 5.34315 21 7V8H3V7C3 5.34315 4.34315 4 6 4H8Z" fill="#4A4A4A"/>
<path fill-rule="evenodd" clip-rule="evenodd" d="M5 9H19V20C19 21.1046 18.1046 22 17 22H7C5.89543 22 5 21.1046 5 20V9ZM8 12C8 11.4477 8.44772 11 9 11C9.55228 11 10 11.4477 10 12V18C10 18.5523 9.55228 19 9 19C8.44772 19 8 18.5523 8 18V12ZM15 11C14.4477 11 14 11.4477 14 12V18C14 18.5523 14.4477 19 15 19C15.5523 19 16 18.5523 16 18V12C16 11.4477 15.5523 11 15 11Z" fill="#4A4A4A"/>
</svg>
