<svg width="24" height="24" viewBox="0 0 24 24" fill="none" xmlns="http://www.w3.org/2000/svg">
<path d="M3.5 7.5H3C3 7.77614 3.22386 8 3.5 8V7.5ZM20.5 7.5V8C20.7761 8 21 7.77614 21 7.5H20.5ZM10 10.5C10 10.2239 9.77614 10 9.5 10C9.22386 10 9 10.2239 9 10.5H10ZM9 18.5C9 18.7761 9.22386 19 9.5 19C9.77614 19 10 18.7761 10 18.5H9ZM14 18.5C14 18.7761 14.2239 19 14.5 19C14.7761 19 15 18.7761 15 18.5H14ZM15 10.5C15 10.2239 14.7761 10 14.5 10C14.2239 10 14 10.2239 14 10.5H15ZM4 7.5V6.5H3V7.5H4ZM20 6.5V7.5H21V6.5H20ZM5.5 5H8.5V4H5.5V5ZM9 4.5V3.5H8V4.5H9ZM9.5 3H14.5V2H9.5V3ZM8.5 5H15.5V4H8.5V5ZM15.5 5H18.5V4H15.5V5ZM15 3.5V4.5H16V3.5H15ZM20.5 7H18.5V8H20.5V7ZM18 7.5V19.5H19V7.5H18ZM16.5 21H7.5V22H16.5V21ZM18.5 7H5.5V8H18.5V7ZM5.5 7H3.5V8H5.5V7ZM6 19.5V7.5H5V19.5H6ZM9 10.5V18.5H10V10.5H9ZM15 18.5V10.5H14V18.5H15ZM7.5 21C6.67157 21 6 20.3284 6 19.5H5C5 20.8807 6.11929 22 7.5 22V21ZM18 19.5C18 20.3284 17.3284 21 16.5 21V22C17.8807 22 19 20.8807 19 19.5H18ZM9 3.5C9 3.22386 9.22386 3 9.5 3V2C8.67157 2 8 2.67157 8 3.5H9ZM21 6.5C21 5.11929 19.8807 4 18.5 4V5C19.3284 5 20 5.67157 20 6.5H21ZM14.5 3C14.7761 3 15 3.22386 15 3.5H16C16 2.67157 15.3284 2 14.5 2V3ZM4 6.5C4 5.67157 4.67157 5 5.5 5V4C4.11929 4 3 5.11929 3 6.5H4Z" fill="#4A4A4A"/>
</svg>
