<svg width="24" height="24" viewBox="0 0 24 24" fill="none" xmlns="http://www.w3.org/2000/svg">
<path d="M19.5 8.5L19.916 8.22265C19.8233 8.08355 19.6672 8 19.5 8V8.5ZM23.5 14.5H24C24 14.4013 23.9708 14.3048 23.916 14.2227L23.5 14.5ZM23.5 18.5V19C23.7761 19 24 18.7761 24 18.5H23.5ZM20.5 18C20.2239 18 20 18.2239 20 18.5C20 18.7761 20.2239 19 20.5 19V18ZM21.5 16C21.2239 16 21 16.2239 21 16.5C21 16.7761 21.2239 17 21.5 17V16ZM16.5 14.5H16C16 14.7761 16.2239 15 16.5 15V14.5ZM16.5 10.5V10C16.2239 10 16 10.2239 16 10.5H16.5ZM20.8333 10.5L21.2494 10.2227V10.2226L20.8333 10.5ZM7.5 18C7.22386 18 7 18.2239 7 18.5C7 18.7761 7.22386 19 7.5 19V18ZM6.5 8C6.22386 8 6 8.22386 6 8.5C6 8.77614 6.22386 9 6.5 9V8ZM4.5 9C4.77614 9 5 8.77614 5 8.5C5 8.22386 4.77614 8 4.5 8V9ZM3.5 8C3.22386 8 3 8.22386 3 8.5C3 8.77614 3.22386 9 3.5 9V8ZM1 17.5V7.5H0V17.5H1ZM1.5 7H13.5V6H1.5V7ZM14 7.5V8.5H15V7.5H14ZM14.5 9H19.5V8H14.5V9ZM23.5 18H20.5V19H23.5V18ZM23 14.5V16.5H24V14.5H23ZM23 16.5V18.5H24V16.5H23ZM23.5 16H21.5V17H23.5V16ZM23.5 14H16.5V15H23.5V14ZM17 14.5V10.5H16V14.5H17ZM19.084 8.77735L20.4173 10.7774L21.2494 10.2226L19.916 8.22265L19.084 8.77735ZM20.4173 10.7773L23.084 14.7774L23.916 14.2227L21.2494 10.2227L20.4173 10.7773ZM16.5 11H20.8333V10H16.5V11ZM14 8.5V18.5H15V8.5H14ZM14.5 19H16.5V18H14.5V19ZM14.5 18H7.5V19H14.5V18ZM14.5 8H6.5V9H14.5V8ZM4.5 8H3.5V9H4.5V8ZM1.5 19H3.5V18H1.5V19ZM18.5 20C17.6716 20 17 19.3284 17 18.5H16C16 19.8807 17.1193 21 18.5 21V20ZM20 18.5C20 19.3284 19.3284 20 18.5 20V21C19.8807 21 21 19.8807 21 18.5H20ZM18.5 17C19.3284 17 20 17.6716 20 18.5H21C21 17.1193 19.8807 16 18.5 16V17ZM17 18.5C17 17.6716 17.6716 17 18.5 17V16C17.1193 16 16 17.1193 16 18.5H17ZM13.5 7C13.7761 7 14 7.22386 14 7.5H15C15 6.67157 14.3284 6 13.5 6V7ZM5.5 17C6.32843 17 7 17.6716 7 18.5H8C8 17.1193 6.88071 16 5.5 16V17ZM5.5 20C4.67157 20 4 19.3284 4 18.5H3C3 19.8807 4.11929 21 5.5 21V20ZM1 7.5C1 7.22386 1.22386 7 1.5 7V6C0.671573 6 0 6.67157 0 7.5H1ZM4 18.5C4 17.6716 4.67157 17 5.5 17V16C4.11929 16 3 17.1193 3 18.5H4ZM7 18.5C7 19.3284 6.32843 20 5.5 20V21C6.88071 21 8 19.8807 8 18.5H7ZM0 17.5C0 18.3284 0.671573 19 1.5 19V18C1.22386 18 1 17.7761 1 17.5H0Z" fill="#4A4A4A"/>
</svg>
