<svg width="24" height="24" viewBox="0 0 24 24" fill="none" xmlns="http://www.w3.org/2000/svg">
<path fill-rule="evenodd" clip-rule="evenodd" d="M14 5C14.5 5 15 5.5 15 6V7H19.5C19.6672 7 19.8233 7.08355 19.916 7.22265L23.916 13.2227C23.9708 13.3048 24 13.4013 24 13.5V17.5C24 17.7761 23.7761 18 23.5 18H22C22 16.3431 20.6569 15 19 15C17.3431 15 16 16.3431 16 18H9C9 16.3431 7.65685 15 6 15C4.34315 15 3 16.3431 3 18H1.5C0.671573 18 0 17.3284 0 16.5V6.5C0 5.67157 0.671573 5 1.5 5H14ZM16 9C15.4477 9 15 9.44772 15 10V12C15 12.5523 15.4477 13 16 13H20.1958C20.9812 13 21.46 12.136 21.0438 11.47L19.7938 9.47C19.611 9.17762 19.2905 9 18.9458 9H16ZM8 18C8 19.1046 7.10457 20 6 20C4.89543 20 4 19.1046 4 18C4 16.8954 4.89543 16 6 16C7.10457 16 8 16.8954 8 18ZM19 20C20.1046 20 21 19.1046 21 18C21 16.8954 20.1046 16 19 16C17.8954 16 17 16.8954 17 18C17 19.1046 17.8954 20 19 20Z" fill="#4A4A4A"/>
</svg>
