<svg width="24" height="24" viewBox="0 0 24 24" fill="none" xmlns="http://www.w3.org/2000/svg">
<path fill-rule="evenodd" clip-rule="evenodd" d="M10 7C10 5.89543 10.8954 5 12 5C13.1046 5 14 5.89543 14 7C14 8.10457 13.1046 9 12 9C10.8954 9 10 8.10457 10 7ZM10 17C10 15.8954 10.8954 15 12 15C13.1046 15 14 15.8954 14 17C14 18.1046 13.1046 19 12 19C10.8954 19 10 18.1046 10 17ZM19 12C19 11.4477 18.5523 11 18 11H6C5.44772 11 5 11.4477 5 12C5 12.5523 5.44772 13 6 13H18C18.5523 13 19 12.5523 19 12Z" fill="#4A4A4A"/>
</svg>
