<svg width="24" height="24" viewBox="0 0 24 24" fill="none" xmlns="http://www.w3.org/2000/svg">
<path d="M8.20711 5.79289C7.81658 5.40237 7.18342 5.40237 6.79289 5.79289C6.40237 6.18342 6.40237 6.81658 6.79289 7.20711L8.20711 5.79289ZM12.5 11.5L11.7929 12.2071C12.1834 12.5976 12.8166 12.5976 13.2071 12.2071L12.5 11.5ZM18.2071 7.20711C18.5976 6.81658 18.5976 6.18342 18.2071 5.79289C17.8166 5.40237 17.1834 5.40237 16.7929 5.79289L18.2071 7.20711ZM8.20711 11.7929C7.81658 11.4024 7.18342 11.4024 6.79289 11.7929C6.40237 12.1834 6.40237 12.8166 6.79289 13.2071L8.20711 11.7929ZM12.5 17.5L11.7929 18.2071C12.1834 18.5976 12.8166 18.5976 13.2071 18.2071L12.5 17.5ZM18.2071 13.2071C18.5976 12.8166 18.5976 12.1834 18.2071 11.7929C17.8166 11.4024 17.1834 11.4024 16.7929 11.7929L18.2071 13.2071ZM6.79289 7.20711L11.7929 12.2071L13.2071 10.7929L8.20711 5.79289L6.79289 7.20711ZM13.2071 12.2071L18.2071 7.20711L16.7929 5.79289L11.7929 10.7929L13.2071 12.2071ZM6.79289 13.2071L11.7929 18.2071L13.2071 16.7929L8.20711 11.7929L6.79289 13.2071ZM13.2071 18.2071L18.2071 13.2071L16.7929 11.7929L11.7929 16.7929L13.2071 18.2071Z" fill="#4A4A4A"/>
</svg>
