<svg width="24" height="24" viewBox="0 0 24 24" fill="none" xmlns="http://www.w3.org/2000/svg">
<path fill-rule="evenodd" clip-rule="evenodd" d="M22 12C22 17.5228 17.5228 22 12 22C6.47715 22 2 17.5228 2 12C2 6.47715 6.47715 2 12 2C17.5228 2 22 6.47715 22 12ZM12 6C11.4477 6 11 6.44772 11 7V11.5858L9.70711 10.2929C9.31658 9.90237 8.68342 9.90237 8.29289 10.2929C7.90237 10.6834 7.90237 11.3166 8.29289 11.7071L10.5858 14H9C8.44772 14 8 14.4477 8 15C8 15.5523 8.44772 16 9 16H15C15.5523 16 16 15.5523 16 15C16 14.4477 15.5523 14 15 14H13.4142L15.7071 11.7071C16.0976 11.3166 16.0976 10.6834 15.7071 10.2929C15.3166 9.90237 14.6834 9.90237 14.2929 10.2929L13 11.5858V7C13 6.44772 12.5523 6 12 6Z" fill="#4A4A4A"/>
</svg>
