<svg width="24" height="24" viewBox="0 0 24 24" fill="none" xmlns="http://www.w3.org/2000/svg">
<path d="M13 3.5C13 3.22386 12.7761 3 12.5 3C12.2239 3 12 3.22386 12 3.5H13ZM12.5 18.5L12.1464 18.8536C12.3417 19.0488 12.6583 19.0488 12.8536 18.8536L12.5 18.5ZM9.85355 15.1464C9.65829 14.9512 9.34171 14.9512 9.14645 15.1464C8.95118 15.3417 8.95118 15.6583 9.14645 15.8536L9.85355 15.1464ZM15.8536 15.8536C16.0488 15.6583 16.0488 15.3417 15.8536 15.1464C15.6583 14.9512 15.3417 14.9512 15.1464 15.1464L15.8536 15.8536ZM4.5 20C4.22386 20 4 20.2239 4 20.5C4 20.7761 4.22386 21 4.5 21V20ZM20.5 21C20.7761 21 21 20.7761 21 20.5C21 20.2239 20.7761 20 20.5 20V21ZM12 3.5V18.5H13V3.5H12ZM12.8536 18.1464L9.85355 15.1464L9.14645 15.8536L12.1464 18.8536L12.8536 18.1464ZM12.8536 18.8536L15.8536 15.8536L15.1464 15.1464L12.1464 18.1464L12.8536 18.8536ZM4.5 21H20.5V20H4.5V21Z" fill="#4A4A4A"/>
</svg>
