<svg width="24" height="24" viewBox="0 0 24 24" fill="none" xmlns="http://www.w3.org/2000/svg">
<path fill-rule="evenodd" clip-rule="evenodd" d="M17.0057 12.7799L12.5734 17.2122L13.3703 18.0113L15.1469 16.2347C15.3207 16.0609 15.6025 16.0609 15.7763 16.2347C15.9501 16.4085 15.9501 16.6903 15.7763 16.8641L13.9988 18.6416L14.7035 19.3484L16.4819 17.5699C16.6557 17.3961 16.9375 17.3961 17.1113 17.5699C17.2851 17.7437 17.2851 18.0255 17.1113 18.1993L15.332 19.9787L15.9066 20.5549C15.9066 20.5549 16.3516 20.8815 16.7967 20.5549L20.3571 16.9945C20.8022 16.5495 20.3571 16.1044 20.3571 16.1044L17.0057 12.7799ZM11.467 17.0001C10.9706 17.5016 10.1725 18.3059 9.67572 18.7963V17.1645L8.20187 16.4276L9.98684 14.6426L9.35435 14.0163L7.6916 15.679L7.35288 14.3242H5.19385L7.45054 12.1311L7.43453 12.1149L11.9068 7.64266L11.9125 7.64836L11.9125 7.64835L13.8149 5.74107L15.7222 7.64839L13.8081 9.56254L14.4344 10.195L16.3516 8.27779L18.2622 10.1883L18.8916 9.55893L14.4435 5.11086L16.3517 3.1978C16.3517 3.1978 16.7967 2.75275 17.2418 3.1978L20.8022 6.75824C21.2473 7.2033 20.8022 7.64835 20.8022 7.64835L16.8063 11.6732L16.7966 11.6539L11.456 16.9945L11.467 17.0001ZM3.44504 8.09341L4.01816 8.67113L5.80069 6.88861C5.97449 6.71481 6.25628 6.71481 6.43009 6.88861C6.60389 7.06242 6.60389 7.34421 6.43009 7.51801L4.64505 9.30305L5.34794 10.0116L7.13574 8.22378C7.30955 8.04998 7.59134 8.04998 7.76515 8.22378C7.93895 8.39758 7.93895 8.67938 7.76515 8.85318L5.97482 10.6435L6.76962 11.4447L11.2383 6.97603L7.8956 3.64287C7.73754 3.48481 7.45054 3.19781 7.00549 3.64287L3.40472 7.2033C3.24667 7.36136 3.01552 7.64836 3.44504 8.09341ZM4.5902 15.2143C4.46342 15.6237 4.26781 16.2726 4.05704 16.9771L6.99126 19.9113L8.78561 19.3572V17.7146L7.06832 16.856L6.6579 15.2143H4.5902ZM3.01553 20.4844C3.01553 20.4844 3.37645 19.2613 3.76777 17.9467L6.02946 20.2084L3.51576 20.9846C3.47942 20.9949 3.44187 21 3.40473 21C3.29883 21 3.1957 20.9585 3.11866 20.8815C3.01473 20.7775 2.97521 20.6254 3.01553 20.4844Z" fill="#4A4A4A"/>
</svg>
