<svg width="24" height="24" viewBox="0 0 24 24" fill="none" xmlns="http://www.w3.org/2000/svg">
<path d="M9.5 18.5L9.65811 18.9743C9.73175 18.9498 9.79867 18.9084 9.85355 18.8536L9.5 18.5ZM3.5 20.5L3.02566 20.3419C2.96577 20.5216 3.01253 20.7196 3.14645 20.8536C3.28036 20.9875 3.47845 21.0342 3.65811 20.9743L3.5 20.5ZM5.5 14.5L5.14645 14.1464C5.09156 14.2013 5.0502 14.2682 5.02566 14.3419L5.5 14.5ZM7.5 14.5H8C8 14.2239 7.77614 14 7.5 14V14.5ZM7.5 16.5H7C7 16.7761 7.22386 17 7.5 17V16.5ZM9.5 16.5H10C10 16.2239 9.77614 16 9.5 16V16.5ZM3.5 7.5L3.14645 7.14645C3.05268 7.24021 3 7.36739 3 7.5C3 7.63261 3.05268 7.75979 3.14645 7.85355L3.5 7.5ZM7.5 3.5L7.85355 3.14645C7.65829 2.95118 7.34171 2.95118 7.14645 3.14645L7.5 3.5ZM20.5 16.5L20.8536 16.8536C21.0488 16.6583 21.0488 16.3417 20.8536 16.1464L20.5 16.5ZM16.5 20.5L16.1464 20.8536C16.3417 21.0488 16.6583 21.0488 16.8536 20.8536L16.5 20.5ZM16.8536 17.8536C17.0488 17.6583 17.0488 17.3417 16.8536 17.1464C16.6583 16.9512 16.3417 16.9512 16.1464 17.1464L16.8536 17.8536ZM15.3536 16.3536C15.5488 16.1583 15.5488 15.8417 15.3536 15.6464C15.1583 15.4512 14.8417 15.4512 14.6464 15.6464L15.3536 16.3536ZM6.85355 7.85355C7.04882 7.65829 7.04882 7.34171 6.85355 7.14645C6.65829 6.95118 6.34171 6.95118 6.14645 7.14645L6.85355 7.85355ZM8.35355 9.35355C8.54882 9.15829 8.54882 8.84171 8.35355 8.64645C8.15829 8.45118 7.84171 8.45118 7.64645 8.64645L8.35355 9.35355ZM19.7929 6.79289L19.4393 7.14645L19.7929 6.79289ZM19.7929 8.20711L19.4393 7.85355L19.7929 8.20711ZM16.8536 4.56066L19.4393 7.14645L20.1464 6.43934L17.5607 3.85355L16.8536 4.56066ZM14.8536 5.85355L16.1464 4.56066L15.4393 3.85355L14.1464 5.14645L14.8536 5.85355ZM19.4393 7.85355L18.1464 9.14645L18.8536 9.85355L20.1464 8.56066L19.4393 7.85355ZM5.5 15H7.5V14H5.5V15ZM7 14.5V16.5H8V14.5H7ZM7.5 17H9.5V16H7.5V17ZM9 16.5V18.5H10V16.5H9ZM14.1464 5.85355L16.1464 7.85355L16.8536 7.14645L14.8536 5.14645L14.1464 5.85355ZM16.1464 7.85355L18.1464 9.85355L18.8536 9.14645L16.8536 7.14645L16.1464 7.85355ZM7.85355 16.8536L16.8536 7.85355L16.1464 7.14645L7.14645 16.1464L7.85355 16.8536ZM3.97434 20.6581L4.97434 17.6581L4.02566 17.3419L3.02566 20.3419L3.97434 20.6581ZM4.97434 17.6581L5.97434 14.6581L5.02566 14.3419L4.02566 17.3419L4.97434 17.6581ZM9.34189 18.0257L6.34189 19.0257L6.65811 19.9743L9.65811 18.9743L9.34189 18.0257ZM6.34189 19.0257L3.34189 20.0257L3.65811 20.9743L6.65811 19.9743L6.34189 19.0257ZM4.14645 17.8536L6.14645 19.8536L6.85355 19.1464L4.85355 17.1464L4.14645 17.8536ZM5.85355 14.8536L8.35355 12.3536L7.64645 11.6464L5.14645 14.1464L5.85355 14.8536ZM3.85355 7.85355L7.85355 3.85355L7.14645 3.14645L3.14645 7.14645L3.85355 7.85355ZM8.35355 12.3536L12.3536 8.35355L11.6464 7.64645L7.64645 11.6464L8.35355 12.3536ZM12.3536 8.35355L14.8536 5.85355L14.1464 5.14645L11.6464 7.64645L12.3536 8.35355ZM7.14645 3.85355L11.6464 8.35355L12.3536 7.64645L7.85355 3.14645L7.14645 3.85355ZM18.1464 9.14645L15.6464 11.6464L16.3536 12.3536L18.8536 9.85355L18.1464 9.14645ZM15.6464 12.3536L20.1464 16.8536L20.8536 16.1464L16.3536 11.6464L15.6464 12.3536ZM20.1464 16.1464L16.1464 20.1464L16.8536 20.8536L20.8536 16.8536L20.1464 16.1464ZM15.6464 11.6464L11.6464 15.6464L12.3536 16.3536L16.3536 12.3536L15.6464 11.6464ZM11.6464 15.6464L9.14645 18.1464L9.85355 18.8536L12.3536 16.3536L11.6464 15.6464ZM16.8536 20.1464L15.3536 18.6464L14.6464 19.3536L16.1464 20.8536L16.8536 20.1464ZM16.1464 17.1464L14.6464 18.6464L15.3536 19.3536L16.8536 17.8536L16.1464 17.1464ZM15.3536 18.6464L13.8536 17.1464L13.1464 17.8536L14.6464 19.3536L15.3536 18.6464ZM13.8536 17.1464L12.3536 15.6464L11.6464 16.3536L13.1464 17.8536L13.8536 17.1464ZM13.8536 17.8536L15.3536 16.3536L14.6464 15.6464L13.1464 17.1464L13.8536 17.8536ZM5.35355 8.64645L3.85355 7.14645L3.14645 7.85355L4.64645 9.35355L5.35355 8.64645ZM5.35355 9.35355L6.85355 7.85355L6.14645 7.14645L4.64645 8.64645L5.35355 9.35355ZM8.35355 11.6464L6.85355 10.1464L6.14645 10.8536L7.64645 12.3536L8.35355 11.6464ZM6.85355 10.1464L5.35355 8.64645L4.64645 9.35355L6.14645 10.8536L6.85355 10.1464ZM6.85355 10.8536L8.35355 9.35355L7.64645 8.64645L6.14645 10.1464L6.85355 10.8536ZM19.4393 7.14645C19.6346 7.34171 19.6346 7.65829 19.4393 7.85355L20.1464 8.56066C20.7322 7.97487 20.7322 7.02513 20.1464 6.43934L19.4393 7.14645ZM17.5607 3.85355C16.9749 3.26777 16.0251 3.26777 15.4393 3.85355L16.1464 4.56066C16.3417 4.3654 16.6583 4.3654 16.8536 4.56066L17.5607 3.85355Z" fill="#4A4A4A"/>
</svg>
