<svg width="24" height="24" viewBox="0 0 24 24" fill="none" xmlns="http://www.w3.org/2000/svg">
<path d="M9.5 18.5L9.65811 18.9743C9.73175 18.9498 9.79867 18.9084 9.85355 18.8536L9.5 18.5ZM3.5 20.5L3.02566 20.3419C2.96577 20.5216 3.01253 20.7196 3.14645 20.8536C3.28036 20.9875 3.47845 21.0342 3.65811 20.9743L3.5 20.5ZM5.5 14.5L5.14645 14.1464C5.09156 14.2013 5.0502 14.2682 5.02566 14.3419L5.5 14.5ZM19.7929 6.79289L19.4393 7.14645L19.7929 6.79289ZM19.7929 8.20711L19.4393 7.85355L19.7929 8.20711ZM16.8536 4.56066L19.4393 7.14645L20.1464 6.43934L17.5607 3.85355L16.8536 4.56066ZM14.8536 5.85355L16.1464 4.56066L15.4393 3.85355L14.1464 5.14645L14.8536 5.85355ZM19.4393 7.85355L18.1464 9.14645L18.8536 9.85355L20.1464 8.56066L19.4393 7.85355ZM18.1464 9.14645L9.14645 18.1464L9.85355 18.8536L18.8536 9.85355L18.1464 9.14645ZM5.85355 14.8536L14.8536 5.85355L14.1464 5.14645L5.14645 14.1464L5.85355 14.8536ZM14.1464 5.85355L18.1464 9.85355L18.8536 9.14645L14.8536 5.14645L14.1464 5.85355ZM5.14645 14.8536L9.14645 18.8536L9.85355 18.1464L5.85355 14.1464L5.14645 14.8536ZM9.34189 18.0257L3.34189 20.0257L3.65811 20.9743L9.65811 18.9743L9.34189 18.0257ZM3.97434 20.6581L5.97434 14.6581L5.02566 14.3419L3.02566 20.3419L3.97434 20.6581ZM19.4393 7.14645C19.6346 7.34171 19.6346 7.65829 19.4393 7.85355L20.1464 8.56066C20.7322 7.97487 20.7322 7.02513 20.1464 6.43934L19.4393 7.14645ZM17.5607 3.85355C16.9749 3.26777 16.0251 3.26777 15.4393 3.85355L16.1464 4.56066C16.3417 4.3654 16.6583 4.3654 16.8536 4.56066L17.5607 3.85355Z" fill="#4A4A4A"/>
</svg>
