<svg width="24" height="24" viewBox="0 0 24 24" fill="none" xmlns="http://www.w3.org/2000/svg">
<path fill-rule="evenodd" clip-rule="evenodd" d="M17.207 3.70708C16.8165 3.31655 16.1833 3.31655 15.7928 3.70708L5.85351 13.6465L10.3535 18.1464L9.9999 18.5L10 18.5L17.6464 10.8535L13.1464 6.35349L13.8536 5.64639L18.3535 10.1464L20.2928 8.20707C20.6833 7.81655 20.6833 7.18339 20.2928 6.79286L17.207 3.70708ZM3.0641 19.8461L5.292 14.4992L9.5008 18.708L4.15385 20.9359C4.05229 20.9782 3.94335 21 3.83333 21C3.3731 21 3 20.6269 3 20.1666C3 20.0566 3.02179 19.9477 3.0641 19.8461Z" fill="#4A4A4A"/>
</svg>
