<svg width="24" height="24" viewBox="0 0 24 24" fill="none" xmlns="http://www.w3.org/2000/svg">
<path fill-rule="evenodd" clip-rule="evenodd" d="M4 4H19.9963C21.2782 4 21.8542 4.43964 21.9752 5.51614L12 12L2.02465 5.51605C2.0098 5.64882 2.00184 5.79128 2.00028 5.9438C2.01444 4.55479 2.56007 4 4 4ZM2 6.70212V18.0042C2 19.4345 2.54081 20 4 20H19.9963C21.4555 20 22 19.4344 22 18.0042V6.70215L12.4633 12.8731C12.3242 12.9577 12.1621 13 12 13C11.8379 13 11.6758 12.9577 11.5367 12.8731L2 6.70212Z" fill="#4A4A4A"/>
</svg>
