<svg width="24" height="24" viewBox="0 0 24 24" fill="none" xmlns="http://www.w3.org/2000/svg">
<path d="M12 13.5L11.6779 13.8825C11.864 14.0392 12.136 14.0392 12.3221 13.8825L12 13.5ZM3.5 5H20.5V4H3.5V5ZM20.5 19H3.5V20H20.5V19ZM3 18.5V5.5H2V18.5H3ZM2.17793 5.88246L11.6779 13.8825L12.3221 13.1175L2.82207 5.11754L2.17793 5.88246ZM21 5.5V18.5H22V5.5H21ZM12.3221 13.8825L21.8221 5.88246L21.1779 5.11754L11.6779 13.1175L12.3221 13.8825ZM3.5 19C3.22386 19 3 18.7761 3 18.5H2C2 19.3284 2.67157 20 3.5 20V19ZM20.5 20C21.3284 20 22 19.3284 22 18.5H21C21 18.7761 20.7761 19 20.5 19V20ZM20.5 5C20.7761 5 21 5.22386 21 5.5H22C22 4.67157 21.3284 4 20.5 4V5ZM3.5 4C2.67157 4 2 4.67157 2 5.5H3C3 5.22386 3.22386 5 3.5 5V4Z" fill="#4A4A4A"/>
</svg>
