<svg width="24" height="24" viewBox="0 0 24 24" fill="none" xmlns="http://www.w3.org/2000/svg">
<path fill-rule="evenodd" clip-rule="evenodd" d="M7.5 1H14.5C15.1531 1 15.7087 1.4174 15.9146 2H18C19.1046 2 20 2.89543 20 4V9.5V10V10.29C20.5699 10.5835 21.0754 11.0645 21.5142 11.7226C22.0759 12.5653 22.4251 13.5405 22.563 14.6426C22.9448 14.758 23.3191 14.8891 23.6857 15.0358C23.8755 15.1117 24 15.2955 24 15.5V16.1028C24.0001 16.7835 23.5466 17.3584 22.9252 17.5417L22.8926 17.7614C22.5855 19.757 22.2765 21.065 21.9472 21.7236C21.3887 22.8407 19.2632 24 18 24C16.8409 24 14.9558 23.0239 14.2215 22H4C2.89543 22 2 21.1046 2 20V4C2 2.89543 2.89543 2 4 2H6.08535C6.29127 1.4174 6.84689 1 7.5 1ZM13.7753 21C13.5472 20.2623 13.3268 19.1874 13.1074 17.7614L13.0748 17.5415C12.7667 17.4501 12.4922 17.2611 12.2974 17H6.5C6.22386 17 6 16.7761 6 16.5C6 16.2545 6.17688 16.0504 6.41012 16.0081L6.5 16H12V15.5C12 15.2955 12.1245 15.1117 12.3143 15.0358C12.5463 14.9429 12.7814 14.8564 13.0196 14.776C13.0485 14.5101 13.0894 14.2514 13.1425 14H6.5C6.22386 14 6 13.7761 6 13.5C6 13.2545 6.17688 13.0504 6.41012 13.0081L6.5 13H13.4319C13.6023 12.5452 13.8196 12.1192 14.084 11.7226C14.2648 11.4514 14.4569 11.2103 14.6602 11H6.5C6.22386 11 6 10.7761 6 10.5C6 10.2545 6.17688 10.0504 6.41012 10.0081L6.5 10H16V9.5C16 9.25454 16.1769 9.05039 16.4101 9.00806L16.5 9H19V4C19 3.44772 18.5523 3 18 3H15.9146C15.7087 3.5826 15.1531 4 14.5 4H7.5C6.84689 4 6.29127 3.5826 6.08535 3H4C3.44772 3 3 3.44772 3 4V20C3 20.5523 3.44772 21 4 21H13.7753ZM17 14.0278V10.5V10H19V14.0278C18.6711 14.0093 18.3378 14 18 14C17.6622 14 17.3289 14.0093 17 14.0278ZM14.0793 17.4985L14.0926 17.5886C14.3855 19.493 14.6765 20.735 14.9472 21.2764C15.3262 22.0343 17.0966 23 18 23C18.9034 23 20.6738 22.0343 21.0528 21.2764C21.3277 20.7265 21.6236 19.4539 21.9211 17.4986C20.7001 17.1664 19.3934 17 18 17C16.6067 17 15.3002 17.1664 14.0793 17.4985ZM20 14.1142V11.4888C20.2392 11.6917 20.4664 11.9537 20.6821 12.2773C21.0877 12.8858 21.3636 13.5813 21.5091 14.3676C21.0177 14.2591 20.5146 14.1747 20 14.1142ZM16 11.2093C15.61 11.4245 15.2494 11.7773 14.916 12.2773C14.4934 12.9112 14.2116 13.6396 14.0715 14.4668C14.6951 14.3095 15.3379 14.192 16 14.1142V11.2093ZM7.5 2C7.22386 2 7 2.22386 7 2.5C7 2.77614 7.22386 3 7.5 3H14.5C14.7761 3 15 2.77614 15 2.5C15 2.22386 14.7761 2 14.5 2H7.5ZM18.481 15.0067C20.0728 15.0514 21.5483 15.3196 22.9094 15.8103L23 15.845V16.1028C23 16.379 22.7762 16.6028 22.5 16.6028C22.4535 16.6028 22.4071 16.5963 22.3624 16.5835C21.0023 16.1943 19.5478 16 18 16C16.4522 16 14.9976 16.1943 13.6375 16.5836C13.3721 16.6595 13.0953 16.5059 13.0193 16.2404L13.0048 16.1723L13 16.1029V15.844L12.6857 15.9642C14.2916 15.3219 16.0619 15 18 15L18.481 15.0067ZM16 7.5C16 7.22386 15.7761 7 15.5 7H6.5L6.41012 7.00806C6.17688 7.05039 6 7.25454 6 7.5C6 7.77614 6.22386 8 6.5 8H15.5L15.5899 7.99194C15.8231 7.94961 16 7.74546 16 7.5Z" fill="#4A4A4A"/>
</svg>
