<svg width="24" height="24" viewBox="0 0 24 24" fill="none" xmlns="http://www.w3.org/2000/svg">
<path fill-rule="evenodd" clip-rule="evenodd" d="M9 2H15C15.5523 2 16 2.44772 16 3V4H18C19 4 20 5 20 6V20C20 21 19 22 18 22H6C5 22 4 21 4 20V6C4 5 5 4 6 4H8V3C8 2.44772 8.44772 2 9 2ZM15 6L8.60919 12.7103C8.00285 13.347 8.45414 14.4 9.33333 14.4H9.581C10.2725 14.4 10.7553 15.0851 10.5227 15.7363L9 20L15.3908 13.2897C15.9971 12.653 15.5459 11.6 14.6667 11.6H14.419C13.7275 11.6 13.2447 10.9149 13.4773 10.2637L15 6Z" fill="#4A4A4A"/>
</svg>
