<svg width="24" height="24" viewBox="0 0 24 24" fill="none" xmlns="http://www.w3.org/2000/svg">
<path fill-rule="evenodd" clip-rule="evenodd" d="M5 3C5 2.44772 5.44772 2 6 2H17L20.7071 5.70711C20.8946 5.89464 21 6.149 21 6.41421V21C21 21.5523 20.5523 22 20 22H6C5.44772 22 5 21.5523 5 21V20H14C15.1046 20 16 19.1046 16 18V6C16 4.89543 15.1046 4 14 4H5V3ZM3 6C3 5.44772 3.44772 5 4 5H14C14.5523 5 15 5.44772 15 6V18C15 18.5523 14.5523 19 14 19H4C3.44772 19 3 18.5523 3 18V6ZM12.6585 16H11.1758C11.0725 16 10.9905 15.9742 10.9296 15.9225C10.8688 15.8709 10.8199 15.8119 10.783 15.7455L8.92961 12.675C8.9001 12.7672 8.86507 12.8465 8.82449 12.9129L7.04856 15.7455C7.0043 15.8082 6.95359 15.8663 6.89642 15.9198C6.83925 15.9733 6.76456 16 6.67235 16H5.28369L7.93929 11.8838L5.38881 8H6.87152C6.97479 8 7.04948 8.01383 7.09559 8.04149C7.14169 8.06916 7.18503 8.11434 7.2256 8.17704L9.04579 11.1093C9.08268 11.0171 9.12694 10.9249 9.17857 10.8326L10.8494 8.2047C10.89 8.13462 10.9342 8.08299 10.9822 8.04979C11.0301 8.0166 11.091 8 11.1647 8H12.5866L10.014 11.823L12.6585 16Z" fill="#4A4A4A"/>
</svg>
