<svg width="24" height="24" viewBox="0 0 24 24" fill="none" xmlns="http://www.w3.org/2000/svg">
<path d="M12.6584 16H11.1757C11.0724 16 10.9903 15.9742 10.9295 15.9225C10.8686 15.8709 10.8198 15.8119 10.7829 15.7455L8.92949 12.675C8.89998 12.7672 8.86494 12.8465 8.82437 12.9129L7.04844 15.7455C7.00418 15.8082 6.95346 15.8663 6.89629 15.9198C6.83912 15.9733 6.76444 16 6.67223 16H5.28357L7.93917 11.8838L5.38869 8H6.8714C6.97467 8 7.04936 8.01383 7.09546 8.04149C7.14157 8.06916 7.18491 8.11434 7.22548 8.17704L9.04567 11.1093C9.08256 11.0171 9.12681 10.9249 9.17845 10.8326L10.8493 8.2047C10.8898 8.13462 10.9341 8.08299 10.982 8.04979C11.03 8.0166 11.0909 8 11.1646 8H12.5865L10.0139 11.823L12.6584 16Z" fill="#4A4A4A"/>
<path d="M20.5 6.5H21C21 6.36739 20.9473 6.24021 20.8536 6.14645L20.5 6.5ZM16.5 2.5L16.8536 2.14645C16.7598 2.05268 16.6326 2 16.5 2V2.5ZM16.5 6.5H16C16 6.77614 16.2239 7 16.5 7V6.5ZM6.5 2.5V2V2.5ZM6.5 22H19.5V21H6.5V22ZM21 20.5V6.5H20V20.5H21ZM20.8536 6.14645L16.8536 2.14645L16.1464 2.85355L20.1464 6.85355L20.8536 6.14645ZM16.5 2H6.5V3H16.5V2ZM16 2.5V6.5H17V2.5H16ZM16.5 7H20.5V6H16.5V7ZM5 3.5V5.5H6V3.5H5ZM5 18.5V20.5H6V18.5H5ZM5.5 18H4.5V19H5.5V18ZM4 17.5V6.5H3V17.5H4ZM4.5 6H5.5V5H4.5V6ZM14 6.5V17.5H15V6.5H14ZM13.5 18H5.5V19H13.5V18ZM13.5 5H5.5V6H13.5V5ZM15 6.5C15 5.67157 14.3284 5 13.5 5V6C13.7761 6 14 6.22386 14 6.5H15ZM4 6.5C4 6.22386 4.22386 6 4.5 6V5C3.67157 5 3 5.67157 3 6.5H4ZM4.5 18C4.22386 18 4 17.7761 4 17.5H3C3 18.3284 3.67157 19 4.5 19V18ZM19.5 22C20.3284 22 21 21.3284 21 20.5H20C20 20.7761 19.7761 21 19.5 21V22ZM6.5 21C6.22386 21 6 20.7761 6 20.5H5C5 21.3284 5.67157 22 6.5 22V21ZM14 17.5C14 17.7761 13.7761 18 13.5 18V19C14.3284 19 15 18.3284 15 17.5H14ZM6.5 2C5.67157 2 5 2.67157 5 3.5H6C6 3.22386 6.22386 3 6.5 3V2Z" fill="#4A4A4A"/>
</svg>
