<svg width="24" height="24" viewBox="0 0 24 24" fill="none" xmlns="http://www.w3.org/2000/svg">
<path d="M13.1464 10.1464C12.9512 10.3417 12.9512 10.6583 13.1464 10.8536C13.3417 11.0488 13.6583 11.0488 13.8536 10.8536L13.1464 10.1464ZM20.5 3.5H21C21 3.22386 20.7761 3 20.5 3V3.5ZM20 9.5C20 9.77614 20.2239 10 20.5 10C20.7761 10 21 9.77614 21 9.5H20ZM14.5 3C14.2239 3 14 3.22386 14 3.5C14 3.77614 14.2239 4 14.5 4V3ZM3.5 20.5H3C3 20.7761 3.22386 21 3.5 21V20.5ZM10.8536 13.8536C11.0488 13.6583 11.0488 13.3417 10.8536 13.1464C10.6583 12.9512 10.3417 12.9512 10.1464 13.1464L10.8536 13.8536ZM4 14.5C4 14.2239 3.77614 14 3.5 14C3.22386 14 3 14.2239 3 14.5H4ZM9.5 21C9.77614 21 10 20.7761 10 20.5C10 20.2239 9.77614 20 9.5 20V21ZM13.8536 10.8536L20.8536 3.85355L20.1464 3.14645L13.1464 10.1464L13.8536 10.8536ZM20 3.5V9.5H21V3.5H20ZM20.5 3H14.5V4H20.5V3ZM3.85355 20.8536L10.8536 13.8536L10.1464 13.1464L3.14645 20.1464L3.85355 20.8536ZM4 20.5V14.5H3V20.5H4ZM3.5 21H9.5V20H3.5V21Z" fill="#4A4A4A"/>
</svg>
