<svg width="24" height="24" viewBox="0 0 24 24" fill="none" xmlns="http://www.w3.org/2000/svg">
<path d="M11.5 4C11.7761 4 12 3.77614 12 3.5C12 3.22386 11.7761 3 11.5 3V4ZM21 12.5C21 12.2239 20.7761 12 20.5 12C20.2239 12 20 12.2239 20 12.5H21ZM20 9.5C20 9.77614 20.2239 10 20.5 10C20.7761 10 21 9.77614 21 9.5H20ZM20.5 3.5H21C21 3.22386 20.7761 3 20.5 3V3.5ZM14.5 3C14.2239 3 14 3.22386 14 3.5C14 3.77614 14.2239 4 14.5 4V3ZM12.1464 11.1464C11.9512 11.3417 11.9512 11.6583 12.1464 11.8536C12.3417 12.0488 12.6583 12.0488 12.8536 11.8536L12.1464 11.1464ZM4 19.5V4.5H3V19.5H4ZM4.5 4H11.5V3H4.5V4ZM4.5 21H19.5V20H4.5V21ZM21 19.5V12.5H20V19.5H21ZM21 9.5V3.5H20V9.5H21ZM20.5 3H14.5V4H20.5V3ZM20.1464 3.14645L12.1464 11.1464L12.8536 11.8536L20.8536 3.85355L20.1464 3.14645ZM19.5 21C20.3284 21 21 20.3284 21 19.5H20C20 19.7761 19.7761 20 19.5 20V21ZM4 4.5C4 4.22386 4.22386 4 4.5 4V3C3.67157 3 3 3.67157 3 4.5H4ZM3 19.5C3 20.3284 3.67157 21 4.5 21V20C4.22386 20 4 19.7761 4 19.5H3Z" fill="#4A4A4A"/>
</svg>
