<svg width="24" height="24" viewBox="0 0 24 24" fill="none" xmlns="http://www.w3.org/2000/svg">
<path fill-rule="evenodd" clip-rule="evenodd" d="M3.04063 10.8735C2.91941 11.0094 2.80085 11.1423 2.68455 11.2712C2.31462 11.6813 2.31462 12.3187 2.68455 12.7288C2.80085 12.8577 2.91941 12.9906 3.04063 13.1265C3.28555 13.401 3.54137 13.7051 3.81149 14.0262C5.59261 16.1434 7.99581 19 12 19C16.0043 19 18.4075 16.1434 20.1886 14.0262C20.4587 13.7051 20.7145 13.401 20.9594 13.1265C21.0807 12.9906 21.1992 12.8577 21.3155 12.7288C21.6854 12.3187 21.6854 11.6813 21.3155 11.2712C21.1994 11.1425 21.081 11.0098 20.96 10.8742L20.9594 10.8735C20.7145 10.599 20.4587 10.2949 20.1886 9.97381C18.4075 7.85664 16.0043 5 12 5C7.99581 5 5.59261 7.85663 3.81149 9.9738C3.54137 10.2949 3.28555 10.599 3.04063 10.8735ZM17 12C17 14.7614 14.7615 17 12 17C9.23861 17 7.00003 14.7614 7.00003 12C7.00003 9.23858 9.23861 7 12 7C14.7615 7 17 9.23858 17 12ZM12 16C14.2092 16 16 14.2091 16 12C16 9.79086 14.2092 8 12 8C9.79089 8 8.00003 9.79086 8.00003 12C8.00003 14.2091 9.79089 16 12 16Z" fill="#4A4A4A"/>
</svg>
