<svg width="24" height="24" viewBox="0 0 24 24" fill="none" xmlns="http://www.w3.org/2000/svg">
<path fill-rule="evenodd" clip-rule="evenodd" d="M12 16C14.2091 16 16 14.2091 16 12C16 9.79086 14.2091 8 12 8C9.79086 8 8 9.79086 8 12C8 14.2091 9.79086 16 12 16ZM15 12C15 13.6569 13.6569 15 12 15C10.3431 15 9 13.6569 9 12C9 10.3431 10.3431 9 12 9C13.6569 9 15 10.3431 15 12Z" fill="#4A4A4A"/>
<path fill-rule="evenodd" clip-rule="evenodd" d="M3.0406 10.8735C2.67305 11.2855 2.33003 11.67 2 12C2.33003 12.33 2.67305 12.7145 3.0406 13.1265C4.90046 15.2112 7.3885 18 12 18C16.6115 18 19.0995 15.2112 20.9594 13.1265C21.3269 12.7145 21.67 12.33 22 12C21.67 11.67 21.327 11.2855 20.9594 10.8735C19.0996 8.78882 16.6115 6 12 6C7.3885 6 4.90046 8.78881 3.0406 10.8735ZM20.1389 12.5337C20.3016 12.3527 20.462 12.1742 20.6214 12C20.462 11.8258 20.3016 11.6473 20.1389 11.4663C18.2773 9.39546 16.124 7 12 7C7.87605 7 5.72269 9.39546 3.86114 11.4663C3.69847 11.6473 3.53795 11.8258 3.37862 12C3.53798 12.1742 3.69845 12.3527 3.86114 12.5337C5.72269 14.6045 7.87605 17 12 17C16.124 17 18.2773 14.6045 20.1389 12.5337Z" fill="#4A4A4A"/>
</svg>
