<svg width="24" height="24" viewBox="0 0 24 24" fill="none" xmlns="http://www.w3.org/2000/svg">
<path fill-rule="evenodd" clip-rule="evenodd" d="M11.5634 17.6003C11.8391 17.4666 12.1609 17.4666 12.4366 17.6003L18.2963 20.444L17.1987 14.5368C17.1351 14.1944 17.2541 13.8436 17.513 13.6107L22.0868 9.49535L15.6877 8.63703C15.369 8.59428 15.0903 8.40093 14.9387 8.1174L12 2.62091L9.06127 8.1174C8.90968 8.40093 8.631 8.59428 8.31234 8.63703L1.91323 9.49535L6.48701 13.6107C6.74586 13.8436 6.86492 14.1944 6.80131 14.5368L5.70371 20.444L11.5634 17.6003ZM5.81814 14.3541L4.72054 20.2613C4.57068 21.0679 5.40225 21.7018 6.14031 21.3437L12 18.5L17.8597 21.3437C18.5978 21.7018 19.4293 21.0679 19.2795 20.2613L18.1819 14.3541L22.7557 10.2387C23.3894 9.66848 23.0647 8.61756 22.2197 8.50422L15.8206 7.6459L12.8819 2.14941C12.5051 1.44474 11.4949 1.44474 11.1181 2.14941L8.1794 7.6459L1.78029 8.50422C0.935318 8.61756 0.6106 9.66848 1.24436 10.2387L5.81814 14.3541Z" fill="#4A4A4A"/>
</svg>
