<svg width="24" height="24" viewBox="0 0 24 24" fill="none" xmlns="http://www.w3.org/2000/svg">
<path fill-rule="evenodd" clip-rule="evenodd" d="M19.8293 5H21C21.5523 5 22 5.44772 22 6C22 6.55228 21.5523 7 21 7H19.8293C19.4175 8.16519 18.3062 9 17 9C15.6938 9 14.5825 8.16519 14.1707 7H3C2.44772 7 2 6.55228 2 6C2 5.44772 2.44772 5 3 5H14.1707C14.5825 3.83481 15.6938 3 17 3C18.3062 3 19.4175 3.83481 19.8293 5ZM9.82929 11H21C21.5523 11 22 11.4477 22 12C22 12.5523 21.5523 13 21 13H9.82929C9.41746 14.1652 8.30622 15 7 15C5.69378 15 4.58254 14.1652 4.17071 13H3C2.44772 13 2 12.5523 2 12C2 11.4477 2.44772 11 3 11H4.17071C4.58254 9.83481 5.69378 9 7 9C8.30622 9 9.41746 9.83481 9.82929 11ZM21 17H17.8293C17.4175 15.8348 16.3062 15 15 15C13.6938 15 12.5825 15.8348 12.1707 17H3C2.44772 17 2 17.4477 2 18C2 18.5523 2.44772 19 3 19H12.1707C12.5825 20.1652 13.6938 21 15 21C16.3062 21 17.4175 20.1652 17.8293 19H21C21.5523 19 22 18.5523 22 18C22 17.4477 21.5523 17 21 17Z" fill="#4A4A4A"/>
</svg>
