<svg width="24" height="24" viewBox="0 0 24 24" fill="none" xmlns="http://www.w3.org/2000/svg">
<path d="M2.5 5C2.22386 5 2 5.22386 2 5.5C2 5.77614 2.22386 6 2.5 6V5ZM21.5 6C21.7761 6 22 5.77614 22 5.5C22 5.22386 21.7761 5 21.5 5V6ZM21.5 12C21.7761 12 22 11.7761 22 11.5C22 11.2239 21.7761 11 21.5 11V12ZM9.5 11C9.22386 11 9 11.2239 9 11.5C9 11.7761 9.22386 12 9.5 12V11ZM2.5 11C2.22386 11 2 11.2239 2 11.5C2 11.7761 2.22386 12 2.5 12V11ZM2.5 17C2.22386 17 2 17.2239 2 17.5C2 17.7761 2.22386 18 2.5 18V17ZM21.5 18C21.7761 18 22 17.7761 22 17.5C22 17.2239 21.7761 17 21.5 17V18ZM2.5 6H14.5V5H2.5V6ZM18.5 6H21.5V5H18.5V6ZM21.5 11H9.5V12H21.5V11ZM5.5 11H2.5V12H5.5V11ZM2.5 18H12.5V17H2.5V18ZM16.5 18H21.5V17H16.5V18ZM14.5 19C13.6716 19 13 18.3284 13 17.5H12C12 18.8807 13.1193 20 14.5 20V19ZM14.5 20C15.8807 20 17 18.8807 17 17.5H16C16 18.3284 15.3284 19 14.5 19V20ZM14.5 16C15.3284 16 16 16.6716 16 17.5H17C17 16.1193 15.8807 15 14.5 15V16ZM13 17.5C13 16.6716 13.6716 16 14.5 16V15C13.1193 15 12 16.1193 12 17.5H13ZM7.5 13C6.67157 13 6 12.3284 6 11.5H5C5 12.8807 6.11929 14 7.5 14V13ZM7.5 9C6.11929 9 5 10.1193 5 11.5H6C6 10.6716 6.67157 10 7.5 10V9ZM10 11.5C10 10.1193 8.88071 9 7.5 9V10C8.32843 10 9 10.6716 9 11.5H10ZM16.5 7C15.6716 7 15 6.32843 15 5.5H14C14 6.88071 15.1193 8 16.5 8V7ZM16.5 8C17.8807 8 19 6.88071 19 5.5H18C18 6.32843 17.3284 7 16.5 7V8ZM16.5 4C17.3284 4 18 4.67157 18 5.5H19C19 4.11929 17.8807 3 16.5 3V4ZM7.5 14C8.88071 14 10 12.8807 10 11.5H9C9 12.3284 8.32843 13 7.5 13V14ZM15 5.5C15 4.67157 15.6716 4 16.5 4V3C15.1193 3 14 4.11929 14 5.5H15Z" fill="#4A4A4A"/>
</svg>
