<svg width="24" height="24" viewBox="0 0 24 24" fill="none" xmlns="http://www.w3.org/2000/svg">
<path d="M2.5 2.5V2C2.22386 2 2 2.22386 2 2.5H2.5ZM21.5 2.5H22C22 2.22386 21.7761 2 21.5 2V2.5ZM21.5 5.5V6C21.7761 6 22 5.77614 22 5.5H21.5ZM2.5 5.5H2C2 5.77614 2.22386 6 2.5 6V5.5ZM10.5 21.5H10C10 21.6844 10.1015 21.8538 10.2641 21.9408C10.4266 22.0278 10.6239 22.0183 10.7774 21.916L10.5 21.5ZM13.0547 19.7969L12.7774 19.3808L13.0547 19.7969ZM2.5 3H21.5V2H2.5V3ZM21 2.5V5.5H22V2.5H21ZM3 5.5V2.5H2V5.5H3ZM4.5 5H2.5V6H4.5V5ZM4.12037 5.8254L10.1204 12.8254L10.8796 12.1746L4.87963 5.1746L4.12037 5.8254ZM10 12.5V21.5H11V12.5H10ZM10.7774 21.916L13.3321 20.2129L12.7774 19.3808L10.2227 21.084L10.7774 21.916ZM14 18.9648V12.5H13V18.9648H14ZM21.5 5H19.5V6H21.5V5ZM19.5 5H4.5V6H19.5V5ZM13.8796 12.8254L19.8796 5.8254L19.1204 5.1746L13.1204 12.1746L13.8796 12.8254ZM13.5 12H10.5V13H13.5V12ZM13.3321 20.2129C13.7493 19.9347 14 19.4663 14 18.9648H13C13 19.132 12.9164 19.2881 12.7774 19.3808L13.3321 20.2129Z" fill="#4A4A4A"/>
</svg>
