<svg width="24" height="24" viewBox="0 0 24 24" fill="none" xmlns="http://www.w3.org/2000/svg">
<path d="M20 3H4C3.44772 3 3 3.44772 3 4V6C3 6.55228 3.44772 7 4 7H4.53163C4.8284 7 5.10985 7.13182 5.29985 7.35982L9.76822 12.7219C9.91798 12.9016 10 13.1281 10 13.3621V20.382C10 21.1253 10.7823 21.6088 11.4472 21.2764L13.4472 20.2764C13.786 20.107 14 19.7607 14 19.382V13.3621C14 13.1281 14.082 12.9016 14.2318 12.7219L18.7002 7.35982C18.8901 7.13182 19.1716 7 19.4684 7H20C20.5523 7 21 6.55228 21 6V4C21 3.44772 20.5523 3 20 3Z" fill="#4A4A4A"/>
</svg>
