<svg width="24" height="24" viewBox="0 0 24 24" fill="none" xmlns="http://www.w3.org/2000/svg">
<path fill-rule="evenodd" clip-rule="evenodd" d="M4 2H17.5858C17.851 2 18.1054 2.10536 18.2929 2.29289L21.7071 5.70711C21.8946 5.89464 22 6.149 22 6.41421V20C22 21.1046 21.1046 22 20 22H4C2.89543 22 2 21.1046 2 20V4C2 2.89543 2.89543 2 4 2ZM4 3C3.44772 3 3 3.44771 3 4V20C3 20.5523 3.44772 21 4 21L6 21V14.5C6 13.6716 6.67157 13 7.5 13H16.5C17.3284 13 18 13.6716 18 14.5V21L20 21C20.5523 21 21 20.5523 21 20V6.41421L18 3.41421V8.5C18 9.32843 17.3284 10 16.5 10H7.5C6.67157 10 6 9.32843 6 8.5V3H4ZM17 21H7V14.5C7 14.2239 7.22386 14 7.5 14H16.5C16.7761 14 17 14.2239 17 14.5V21ZM7 3V8.5C7 8.77614 7.22386 9 7.5 9H16.5C16.7761 9 17 8.77614 17 8.5V3H7ZM8.6065 18H15.3935C15.7112 18 16 18.2143 16 18.5C16 18.7619 15.7401 19 15.3935 19H8.6065C8.28881 19 8 18.7857 8 18.5C8 18.2381 8.25993 18 8.6065 18ZM15.3935 16H8.6065C8.25993 16 8 16.2381 8 16.5C8 16.7857 8.28881 17 8.6065 17H15.3935C15.7401 17 16 16.7619 16 16.5C16 16.2143 15.7112 16 15.3935 16ZM14.8475 8H13.1525C13.0678 8 13 7.86441 13 7.69492V4.30508C13 4.13559 13.0678 4 13.1525 4H14.8475C14.9322 4 15 4.13559 15 4.30508V7.69492C15 7.86441 14.9322 8 14.8475 8Z" fill="#4A4A4A"/>
</svg>
