<svg width="24" height="24" viewBox="0 0 24 24" fill="none" xmlns="http://www.w3.org/2000/svg">
<path fill-rule="evenodd" clip-rule="evenodd" d="M6 3H4C3.44772 3 3 3.44772 3 4V20C3 20.5523 3.44772 21 4 21H6V14.5C6 13.6716 6.67157 13 7.5 13H16.5C17.3284 13 18 13.6716 18 14.5V21H20C20.5523 21 21 20.5523 21 20V6.41421C21 6.149 20.8946 5.89464 20.7071 5.70711L18.2929 3.29289C18.2074 3.20739 18.108 3.13896 18 3.08982V8.5C18 9.32843 17.3284 10 16.5 10H7.5C6.67157 10 6 9.32843 6 8.5V3ZM17 3H7V8.5C7 8.77614 7.22386 9 7.5 9H16.5C16.7761 9 17 8.77614 17 8.5V3ZM17 14.5V21H7V14.5C7 14.2239 7.22386 14 7.5 14H16.5C16.7761 14 17 14.2239 17 14.5ZM13 4.5C13 4.22386 13.2239 4 13.5 4H14.5C14.7761 4 15 4.22386 15 4.5V7.5C15 7.77614 14.7761 8 14.5 8H13.5C13.2239 8 13 7.77614 13 7.5V4.5Z" fill="#4A4A4A"/>
</svg>
