<svg width="24" height="24" viewBox="0 0 24 24" fill="none" xmlns="http://www.w3.org/2000/svg">
<path fill-rule="evenodd" clip-rule="evenodd" d="M4.5 4C3.11929 4 2 5.11929 2 6.5V18.5C2 19.2452 2.54338 19.8634 3.25553 19.9802C3.8139 19.8885 4.28208 19.4864 4.44868 18.931L6.5935 11.7816C6.91073 10.7242 7.88404 10 8.98806 10H20V7.5C20 6.67157 19.3284 6 18.5 6H12.9142C12.7816 6 12.6544 5.94732 12.5607 5.85355L11.1464 4.43934C10.8651 4.15803 10.4836 4 10.0858 4H4.5ZM20.5 11H20H8.98806C8.32565 11 7.74166 11.4345 7.55132 12.069L5.4065 19.2184C5.32014 19.5062 5.18516 19.7694 5.01216 20H20.7192C21.4075 20 22.0075 19.5316 22.1744 18.8638L23.6744 12.8638C23.9111 11.9171 23.1951 11 22.2192 11H20.5Z" fill="#4A4A4A"/>
</svg>
