<svg width="24" height="24" viewBox="0 0 24 24" fill="none" xmlns="http://www.w3.org/2000/svg">
<path fill-rule="evenodd" clip-rule="evenodd" d="M4.5 4C3.11929 4 2 5.11929 2 6.5V18.5C2 19.3284 2.67157 20 3.5 20C4.32843 20 5 19.3284 5 18.5V10.5C5 9.11929 6.11929 8 7.5 8H20V7.5C20 6.67157 19.3284 6 18.5 6H12.9142C12.7816 6 12.6544 5.94732 12.5607 5.85355L11.1464 4.43934C10.8651 4.15803 10.4836 4 10.0858 4H4.5ZM20.5 9H20H7.5C6.67157 9 6 9.67157 6 10.5V18.5C6 19.0628 5.81403 19.5822 5.50018 20H20.5C21.3284 20 22 19.3284 22 18.5V10.5C22 9.67157 21.3284 9 20.5 9Z" fill="#4A4A4A"/>
</svg>
