<svg width="24" height="24" viewBox="0 0 24 24" fill="none" xmlns="http://www.w3.org/2000/svg">
<path fill-rule="evenodd" clip-rule="evenodd" d="M2 6.5C2 5.11929 3.11929 4 4.5 4H10.0858C10.4836 4 10.8651 4.15803 11.1464 4.43934L12.5607 5.85355C12.6544 5.94732 12.7816 6 12.9142 6H18.5C19.3284 6 20 6.67157 20 7.5V11H22.2192C23.1951 11 23.9111 11.9171 23.6744 12.8638L22.1744 18.8638C22.0075 19.5316 21.4075 20 20.7192 20H3.5C2.67157 20 2 19.3284 2 18.5V6.5ZM3.5 19H3.71922C3.94866 19 4.14865 18.8439 4.20429 18.6213L5.82556 12.1362C5.9925 11.4684 6.59248 11 7.28078 11H19V7.5C19 7.22386 18.7761 7 18.5 7H12.9142C12.5164 7 12.1349 6.84196 11.8536 6.56066L10.4393 5.14645C10.3456 5.05268 10.2184 5 10.0858 5H4.5C3.67157 5 3 5.67157 3 6.5V18.5C3 18.7761 3.22386 19 3.5 19ZM5.13349 19H20.7192C20.9487 19 21.1486 18.8439 21.2043 18.6213L22.7043 12.6213C22.7832 12.3057 22.5445 12 22.2192 12H7.28078C7.05134 12 6.85135 12.1561 6.79571 12.3787L5.17444 18.8638C5.16284 18.9102 5.14915 18.9556 5.13349 19Z" fill="#4A4A4A"/>
</svg>
