<svg width="24" height="24" viewBox="0 0 24 24" fill="none" xmlns="http://www.w3.org/2000/svg">
<path fill-rule="evenodd" clip-rule="evenodd" d="M2 6.5C2 5.11929 3.11929 4 4.5 4H10.0858C10.4836 4 10.8651 4.15803 11.1464 4.43934L12.5607 5.85355C12.6544 5.94732 12.7816 6 12.9142 6H18.5C19.3284 6 20 6.67157 20 7.5V8H20.5C21.3284 8 22 8.67157 22 9.5V18.5C22 19.3284 21.3284 20 20.5 20H3.5C2.67157 20 2 19.3284 2 18.5V6.5ZM4.91465 19H20.5C20.7761 19 21 18.7761 21 18.5V9.5C21 9.22386 20.7761 9 20.5 9H5.5C5.22386 9 5 9.22386 5 9.5V18.5C5 18.6753 4.96992 18.8436 4.91465 19ZM19 8H5.5C4.67157 8 4 8.67157 4 9.5V18.5C4 18.7761 3.77614 19 3.5 19C3.22386 19 3 18.7761 3 18.5V6.5C3 5.67157 3.67157 5 4.5 5H10.0858C10.2184 5 10.3456 5.05268 10.4393 5.14645L11.8536 6.56066C12.1349 6.84196 12.5164 7 12.9142 7H18.5C18.7761 7 19 7.22386 19 7.5V8Z" fill="#4A4A4A"/>
</svg>
