<svg width="24" height="24" viewBox="0 0 24 24" fill="none" xmlns="http://www.w3.org/2000/svg">
<path d="M10.2011 9.53326C10.2195 9.80879 10.4577 10.0173 10.7333 9.99889C11.0088 9.98052 11.2173 9.74227 11.1989 9.46674L10.2011 9.53326ZM10.5 6.5V6C10.3616 6 10.2294 6.05735 10.1349 6.15841C10.0403 6.25946 9.9919 6.39518 10.0011 6.53326L10.5 6.5ZM20.5 6.5L20.9989 6.53326C21.0081 6.39518 20.9597 6.25946 20.8651 6.15841C20.7706 6.05735 20.6384 6 20.5 6V6.5ZM19.5 21.5V22C19.7632 22 19.9814 21.7959 19.9989 21.5333L19.5 21.5ZM16.5 21C16.2239 21 16 21.2239 16 21.5C16 21.7761 16.2239 22 16.5 22V21ZM15.5 3.5L15.3787 3.01493C15.1561 3.07057 15 3.27057 15 3.5H15.5ZM19.6213 2.98507C19.8892 2.9181 20.052 2.64663 19.9851 2.37873C19.9181 2.11083 19.6466 1.94795 19.3787 2.01493L19.6213 2.98507ZM5.5 14H5V15H5.5V14ZM6 14.5V13.5H5V14.5H6ZM7.5 12H13.5V11H7.5V12ZM16 14H15.5V15H16V14ZM15.5 14H5.5V15H15.5V14ZM15 13.5V14.5H16V13.5H15ZM15.5 18H16V17H15.5V18ZM15 17.5V18.5H16V17.5H15ZM13.5 20H7.5V21H13.5V20ZM5 18H5.5V17H5V18ZM5.5 18H15.5V17H5.5V18ZM6 18.5V17.5H5V18.5H6ZM11.1989 9.46674L10.9989 6.46674L10.0011 6.53326L10.2011 9.53326L11.1989 9.46674ZM20.0011 6.46674L19.0011 21.4667L19.9989 21.5333L20.9989 6.53326L20.0011 6.46674ZM19.5 21H16.5V22H19.5V21ZM10.5 7H15.5V6H10.5V7ZM15.5 7H20.5V6H15.5V7ZM16 6.5V3.5H15V6.5H16ZM15.6213 3.98507L19.6213 2.98507L19.3787 2.01493L15.3787 3.01493L15.6213 3.98507ZM7.5 20C6.67157 20 6 19.3284 6 18.5H5C5 19.8807 6.11929 21 7.5 21V20ZM15 18.5C15 19.3284 14.3284 20 13.5 20V21C14.8807 21 16 19.8807 16 18.5H15ZM13.5 12C14.3284 12 15 12.6716 15 13.5H16C16 12.1193 14.8807 11 13.5 11V12ZM18 16C18 14.8954 17.1046 14 16 14V15C16.5523 15 17 15.4477 17 16H18ZM17 16C17 16.5523 16.5523 17 16 17V18C17.1046 18 18 17.1046 18 16H17ZM3 16C3 17.1046 3.89543 18 5 18V17C4.44772 17 4 16.5523 4 16H3ZM6 13.5C6 12.6716 6.67157 12 7.5 12V11C6.11929 11 5 12.1193 5 13.5H6ZM4 16C4 15.4477 4.44772 15 5 15V14C3.89543 14 3 14.8954 3 16H4Z" fill="#4A4A4A"/>
</svg>
