<svg width="24" height="24" viewBox="0 0 24 24" fill="none" xmlns="http://www.w3.org/2000/svg">
<path fill-rule="evenodd" clip-rule="evenodd" d="M17.3536 1.64645C17.1583 1.45118 16.8417 1.45118 16.6464 1.64645L15.5 2.79289L15.1464 2.43934C14.8651 2.15804 14.4836 2 14.0858 2H5.5C4.67157 2 4 2.67157 4 3.5V20.5C4 21.3284 4.67157 22 5.5 22H18.5C19.3284 22 20 21.3284 20 20.5V7.5C20 7.36739 19.9473 7.24021 19.8536 7.14645L19.2071 6.5L20.3536 5.35355C20.5488 5.15829 20.5488 4.84171 20.3536 4.64645L17.3536 1.64645ZM18.1466 6.85368C18.1465 6.85364 18.1465 6.8536 18.1464 6.85355L15.1464 3.85355C15.1463 3.85342 15.1462 3.85329 15.146 3.85315L14.4393 3.14645C14.3456 3.05268 14.2184 3 14.0858 3H5.5C5.22386 3 5 3.22386 5 3.5V20.5C5 20.7761 5.22386 21 5.5 21H18.5C18.7761 21 19 20.7761 19 20.5V7.70711L18.1466 6.85368ZM18.5 5.79289L19.2929 5L17 2.70711L16.2071 3.5L18.5 5.79289ZM6.5 4C6.22386 4 6 4.22386 6 4.5V6.5C6 6.77614 6.22386 7 6.5 7H13.5C13.7761 7 14 6.77614 14 6.5V4.5C14 4.22386 13.7761 4 13.5 4H6.5ZM7 6V5H13V6H7ZM8.70711 9L7.85355 8.14645C7.65829 7.95118 7.34171 7.95118 7.14645 8.14645C6.95118 8.34171 6.95118 8.65829 7.14645 8.85355L8 9.70711V18.2929L7.14645 19.1464C6.95118 19.3417 6.95118 19.6583 7.14645 19.8536C7.34171 20.0488 7.65829 20.0488 7.85355 19.8536L8.70711 19H15.2929L16.1464 19.8536C16.3417 20.0488 16.6583 20.0488 16.8536 19.8536C17.0488 19.6583 17.0488 19.3417 16.8536 19.1464L16 18.2929V9.70711L16.8536 8.85355C17.0488 8.65829 17.0488 8.34171 16.8536 8.14645C16.6583 7.95118 16.3417 7.95118 16.1464 8.14645L15.2929 9H8.70711ZM9 10V18H15V10H9Z" fill="#4A4A4A"/>
</svg>
