<svg width="24" height="24" viewBox="0 0 24 24" fill="none" xmlns="http://www.w3.org/2000/svg">
<path fill-rule="evenodd" clip-rule="evenodd" d="M4 8C4 4.68629 6.68629 2 10 2H14C17.3137 2 20 4.68629 20 8V18C21.1046 18 22 18.8954 22 20V21C22 21.5523 21.5523 22 21 22H3C2.44772 22 2 21.5523 2 21V20C2 18.8954 2.89543 18 4 18V8ZM11 7C11 6.44771 11.4477 6 12 6C12.5523 6 13 6.44772 13 7V9H15C15.5523 9 16 9.44772 16 10C16 10.5523 15.5523 11 15 11H13V16C13 16.5523 12.5523 17 12 17C11.4477 17 11 16.5523 11 16V11H9C8.44772 11 8 10.5523 8 10C8 9.44772 8.44772 9 9 9H11V7Z" fill="#4A4A4A"/>
</svg>
