<svg width="24" height="24" viewBox="0 0 24 24" fill="none" xmlns="http://www.w3.org/2000/svg">
<path d="M4.5 5H6.5V4H4.5V5ZM7 5.5V7.5H8V5.5H7ZM6.5 8H4.5V9H6.5V8ZM4 7.5V5.5H3V7.5H4ZM16.5 17H18.5V16H16.5V17ZM19 17.5V19.5H20V17.5H19ZM18.5 20H16.5V21H18.5V20ZM16 19.5V17.5H15V19.5H16ZM16.5 11H18.5V10H16.5V11ZM19 11.5V13.5H20V11.5H19ZM18.5 14H16.5V15H18.5V14ZM16 13.5V11.5H15V13.5H16ZM16.5 5H18.5V4H16.5V5ZM19 5.5V7.5H20V5.5H19ZM18.5 8H16.5V9H18.5V8ZM16 7.5V5.5H15V7.5H16ZM4.5 17H6.5V16H4.5V17ZM7 17.5V19.5H8V17.5H7ZM6.5 20H4.5V21H6.5V20ZM4 19.5V17.5H3V19.5H4ZM10.5 5H12.5V4H10.5V5ZM13 5.5V7.5H14V5.5H13ZM12.5 8H10.5V9H12.5V8ZM10 7.5V5.5H9V7.5H10ZM10.5 11H12.5V10H10.5V11ZM13 11.5V13.5H14V11.5H13ZM12.5 14H10.5V15H12.5V14ZM10 13.5V11.5H9V13.5H10ZM10.5 17H12.5V16H10.5V17ZM13 17.5V19.5H14V17.5H13ZM12.5 20H10.5V21H12.5V20ZM10 19.5V17.5H9V19.5H10ZM4.5 11H6.5V10H4.5V11ZM7 11.5V13.5H8V11.5H7ZM6.5 14H4.5V15H6.5V14ZM4 13.5V11.5H3V13.5H4ZM4.5 14C4.22386 14 4 13.7761 4 13.5H3C3 14.3284 3.67157 15 4.5 15V14ZM7 13.5C7 13.7761 6.77614 14 6.5 14V15C7.32843 15 8 14.3284 8 13.5H7ZM6.5 11C6.77614 11 7 11.2239 7 11.5H8C8 10.6716 7.32843 10 6.5 10V11ZM4.5 10C3.67157 10 3 10.6716 3 11.5H4C4 11.2239 4.22386 11 4.5 11V10ZM10.5 20C10.2239 20 10 19.7761 10 19.5H9C9 20.3284 9.67157 21 10.5 21V20ZM13 19.5C13 19.7761 12.7761 20 12.5 20V21C13.3284 21 14 20.3284 14 19.5H13ZM12.5 17C12.7761 17 13 17.2239 13 17.5H14C14 16.6716 13.3284 16 12.5 16V17ZM10.5 16C9.67157 16 9 16.6716 9 17.5H10C10 17.2239 10.2239 17 10.5 17V16ZM10.5 14C10.2239 14 10 13.7761 10 13.5H9C9 14.3284 9.67157 15 10.5 15V14ZM13 13.5C13 13.7761 12.7761 14 12.5 14V15C13.3284 15 14 14.3284 14 13.5H13ZM12.5 11C12.7761 11 13 11.2239 13 11.5H14C14 10.6716 13.3284 10 12.5 10V11ZM10.5 10C9.67157 10 9 10.6716 9 11.5H10C10 11.2239 10.2239 11 10.5 11V10ZM10.5 8C10.2239 8 10 7.77614 10 7.5H9C9 8.32843 9.67157 9 10.5 9V8ZM13 7.5C13 7.77614 12.7761 8 12.5 8V9C13.3284 9 14 8.32843 14 7.5H13ZM12.5 5C12.7761 5 13 5.22386 13 5.5H14C14 4.67157 13.3284 4 12.5 4V5ZM10.5 4C9.67157 4 9 4.67157 9 5.5H10C10 5.22386 10.2239 5 10.5 5V4ZM4.5 20C4.22386 20 4 19.7761 4 19.5H3C3 20.3284 3.67157 21 4.5 21V20ZM7 19.5C7 19.7761 6.77614 20 6.5 20V21C7.32843 21 8 20.3284 8 19.5H7ZM6.5 17C6.77614 17 7 17.2239 7 17.5H8C8 16.6716 7.32843 16 6.5 16V17ZM4.5 16C3.67157 16 3 16.6716 3 17.5H4C4 17.2239 4.22386 17 4.5 17V16ZM16.5 8C16.2239 8 16 7.77614 16 7.5H15C15 8.32843 15.6716 9 16.5 9V8ZM19 7.5C19 7.77614 18.7761 8 18.5 8V9C19.3284 9 20 8.32843 20 7.5H19ZM18.5 5C18.7761 5 19 5.22386 19 5.5H20C20 4.67157 19.3284 4 18.5 4V5ZM16.5 4C15.6716 4 15 4.67157 15 5.5H16C16 5.22386 16.2239 5 16.5 5V4ZM16.5 14C16.2239 14 16 13.7761 16 13.5H15C15 14.3284 15.6716 15 16.5 15V14ZM19 13.5C19 13.7761 18.7761 14 18.5 14V15C19.3284 15 20 14.3284 20 13.5H19ZM18.5 11C18.7761 11 19 11.2239 19 11.5H20C20 10.6716 19.3284 10 18.5 10V11ZM16.5 10C15.6716 10 15 10.6716 15 11.5H16C16 11.2239 16.2239 11 16.5 11V10ZM16.5 20C16.2239 20 16 19.7761 16 19.5H15C15 20.3284 15.6716 21 16.5 21V20ZM19 19.5C19 19.7761 18.7761 20 18.5 20V21C19.3284 21 20 20.3284 20 19.5H19ZM18.5 17C18.7761 17 19 17.2239 19 17.5H20C20 16.6716 19.3284 16 18.5 16V17ZM16.5 16C15.6716 16 15 16.6716 15 17.5H16C16 17.2239 16.2239 17 16.5 17V16ZM4.5 8C4.22386 8 4 7.77614 4 7.5H3C3 8.32843 3.67157 9 4.5 9V8ZM7 7.5C7 7.77614 6.77614 8 6.5 8V9C7.32843 9 8 8.32843 8 7.5H7ZM6.5 5C6.77614 5 7 5.22386 7 5.5H8C8 4.67157 7.32843 4 6.5 4V5ZM4.5 4C3.67157 4 3 4.67157 3 5.5H4C4 5.22386 4.22386 5 4.5 5V4Z" fill="#4A4A4A"/>
</svg>
