<svg width="24" height="24" viewBox="0 0 24 24" fill="none" xmlns="http://www.w3.org/2000/svg">
<path fill-rule="evenodd" clip-rule="evenodd" d="M21.3023 12.7878C23.5659 10.5488 23.5659 6.94857 21.3023 4.70961C18.9021 2.33554 14.9435 2.44905 12.6901 4.95658L11.9887 5.73705L11.3847 5.05284C9.13182 2.50059 5.12859 2.36841 2.70435 4.76625C0.426639 7.01916 0.432654 10.6437 2.71783 12.8894L11.2855 21.309C11.6754 21.6922 12.3009 21.6912 12.6896 21.3067L21.3023 12.7878ZM11 9C11 8.44772 11.4477 8 12 8C12.5523 8 13 8.44772 13 9V11H15C15.5523 11 16 11.4477 16 12C16 12.5523 15.5523 13 15 13H13V15C13 15.5523 12.5523 16 12 16C11.4477 16 11 15.5523 11 15V13H9C8.44772 13 8 12.5523 8 12C8 11.4477 8.44772 11 9 11H11V9Z" fill="#4A4A4A"/>
</svg>
