<svg width="24" height="24" viewBox="0 0 24 24" fill="none" xmlns="http://www.w3.org/2000/svg">
<path fill-rule="evenodd" clip-rule="evenodd" d="M9.12655 4.08324L10.8295 12.5981C10.8763 12.8318 11.0815 13 11.3198 13H12.6802C12.9185 13 13.1237 12.8318 13.1705 12.5981L14.8735 4.08282C14.7242 3.4664 14.1687 3 13.496 3H10.5042C9.83132 3 9.27572 3.46661 9.12655 4.08324ZM15.8035 4.53189L14.1511 12.7942C14.0108 13.4953 13.3952 14 12.6802 14H11.3198C10.6048 14 9.98916 13.4953 9.84893 12.7942L8.19649 4.53197C7.77742 4.73965 7.37784 4.9769 7 5.24062V12.5C7 12.7761 6.77614 13 6.5 13H6.24403C5.58162 13 4.99763 12.5655 4.80729 11.931L3.90009 8.90701C3.31954 10.1316 3.00009 11.4931 3.00009 12.9109V15.1111C3.07252 15.1282 3.15558 15.1474 3.24909 15.1682C3.66077 15.2596 4.27494 15.3826 5.07603 15.5058C6.67824 15.7523 9.02774 16 12 16C14.9723 16 17.3218 15.7523 18.924 15.5058C19.7251 15.3826 20.3392 15.2596 20.7509 15.1682C20.8445 15.1474 20.9276 15.1282 21.0001 15.111V12.9109C21.0001 11.493 20.6806 10.1315 20.1 8.90677L19.1927 11.931C19.0024 12.5655 18.4184 13 17.756 13H17.5C17.2239 13 17 12.7761 17 12.5V5.24049C16.6222 4.97679 16.2226 4.73956 15.8035 4.53189ZM18 6.04616V11.9364C18.1106 11.8745 18.1966 11.7712 18.2349 11.6437L19.4168 7.70411C19.0115 7.09953 18.5362 6.54267 18 6.04616ZM21.028 16.1309C21.0084 16.1353 20.9884 16.1398 20.9678 16.1443C20.5358 16.2404 19.8999 16.3674 19.076 16.4942C17.4282 16.7477 15.0277 17 12 17C8.97226 17 6.57176 16.7477 4.92397 16.4942C4.10006 16.3674 3.46423 16.2404 3.03216 16.1443C3.01169 16.1398 2.99167 16.1353 2.97212 16.1309C2.46586 16.4023 2.21542 17.0487 2.50009 17.618L2.7402 18.0983C3.62939 19.8766 5.44703 21 7.43532 21H16.5649C18.5532 21 20.3708 19.8766 21.26 18.0983L21.5001 17.618C21.7848 17.0487 21.5343 16.4023 21.028 16.1309ZM4.58331 7.7043L5.76512 11.6437C5.80338 11.7712 5.88935 11.8745 6 11.9364V6.04633C5.46381 6.54285 4.98854 7.09971 4.58331 7.7043Z" fill="#4A4A4A"/>
</svg>
