<svg width="24" height="24" viewBox="0 0 24 24" fill="none" xmlns="http://www.w3.org/2000/svg">
<path d="M6.5 12.5V13C6.77614 13 7 12.7761 7 12.5H6.5ZM17.5 12.5H17C17 12.7761 17.2239 13 17.5 13V12.5ZM18.6894 11.7425L19.1744 11.8638L18.6894 11.7425ZM13.5827 13.5905L13.0847 13.5453L13.5827 13.5905ZM3.18733 17.8747L2.74011 18.0983L3.18733 17.8747ZM20.8127 17.8747L20.3655 17.651L20.8127 17.8747ZM21.0528 17.3944L21.5 17.618L21.0528 17.3944ZM20.6056 17.1708L20.3655 17.651L21.2599 18.0983L21.5 17.618L20.6056 17.1708ZM16.5648 20H7.43523V21H16.5648V20ZM3.63454 17.651L3.39443 17.1708L2.5 17.618L2.74011 18.0983L3.63454 17.651ZM4 16.5V12.9109H3V16.5H4ZM3.5 17H20.5V16H3.5V17ZM20 12.9109V16.5H21V12.9109H20ZM10.5041 4H13.4959V3H10.5041V4ZM12.5868 14H11.4132V15H12.5868V14ZM6 6.5V12.5H7V6.5H6ZM6.5 12H6.28078V13H6.5V12ZM5.79571 11.6213L4.98507 8.37873L4.01493 8.62127L4.82556 11.8638L5.79571 11.6213ZM17 6.5V12.5H18V6.5H17ZM17.5 13H17.7192V12H17.5V13ZM19.1744 11.8638L19.9851 8.62127L19.0149 8.37873L18.2043 11.6213L19.1744 11.8638ZM13.9111 4.45473L13.0847 13.5453L14.0806 13.6358L14.907 4.54527L13.9111 4.45473ZM10.9153 13.5453L10.0889 4.45473L9.09296 4.54527L9.91937 13.6358L10.9153 13.5453ZM17.7192 13C18.4075 13 19.0075 12.5316 19.1744 11.8638L18.2043 11.6213C18.1486 11.8439 17.9487 12 17.7192 12V13ZM12.5868 15C13.3626 15 14.0104 14.4084 14.0806 13.6358L13.0847 13.5453C13.0613 13.8028 12.8454 14 12.5868 14V15ZM13.4959 4C13.7411 4 13.9333 4.21054 13.9111 4.45473L14.907 4.54527C14.9825 3.71546 14.3291 3 13.4959 3V4ZM10.5041 3C9.67089 3 9.01753 3.71546 9.09296 4.54527L10.0889 4.45473C10.0667 4.21054 10.2589 4 10.5041 4V3ZM21 12.9109C21 8.86974 18.4045 5.28566 14.5651 4.02495L14.2531 4.97505C17.682 6.10096 20 9.30182 20 12.9109H21ZM6.28078 12C6.05134 12 5.85135 11.8439 5.79571 11.6213L4.82556 11.8638C4.9925 12.5316 5.59247 13 6.28078 13V12ZM7.43523 20C5.82571 20 4.35434 19.0906 3.63454 17.651L2.74011 18.0983C3.6293 19.8766 5.44694 21 7.43523 21V20ZM20.3655 17.651C19.6457 19.0906 18.1743 20 16.5648 20V21C18.5531 21 20.3707 19.8766 21.2599 18.0983L20.3655 17.651ZM21.5 17.618C21.8717 16.8747 21.3311 16 20.5 16V17C20.5877 17 20.6448 17.0923 20.6056 17.1708L21.5 17.618ZM4 12.9109C4 9.30182 6.31797 6.10096 9.74689 4.97505L9.43492 4.02495C5.59549 5.28566 3 8.86974 3 12.9109H4ZM11.4132 14C11.1546 14 10.9387 13.8028 10.9153 13.5453L9.91937 13.6358C9.98961 14.4084 10.6374 15 11.4132 15V14ZM3.39443 17.1708C3.35519 17.0923 3.41226 17 3.5 17V16C2.66887 16 2.12831 16.8747 2.5 17.618L3.39443 17.1708Z" fill="#4A4A4A"/>
</svg>
