<svg width="24" height="24" viewBox="0 0 24 24" fill="none" xmlns="http://www.w3.org/2000/svg">
<path fill-rule="evenodd" clip-rule="evenodd" d="M10 1C9.44772 1 9 1.44772 9 2C9 2.55228 9.44772 3 10 3H12.5C7.25329 3 3 7.25329 3 12.5C3 17.7467 7.25329 22 12.5 22C17.7467 22 22 17.7467 22 12.5C22 7.25329 17.7467 3 12.5 3H15C15.5523 3 16 2.55228 16 2C16 1.44772 15.5523 1 15 1H10ZM12.4999 7C9.46233 7 6.9999 9.46243 6.9999 12.5C6.9999 12.8547 7.03341 13.2013 7.09738 13.5368L8.98776 11.6464C9.18302 11.4512 9.4996 11.4512 9.69486 11.6464C9.89012 11.8417 9.89012 12.1583 9.69486 12.3536L7.19486 14.8536C6.9996 15.0488 6.68302 15.0488 6.48776 14.8536L3.98776 12.3536C3.79249 12.1583 3.79249 11.8417 3.98776 11.6464C4.18302 11.4512 4.4996 11.4512 4.69486 11.6464L6.01651 12.9681C6.0055 12.8135 5.9999 12.6574 5.9999 12.5C5.9999 8.91015 8.91005 6 12.4999 6C16.0897 6 18.9999 8.91015 18.9999 12.5C18.9999 16.0899 16.0897 19 12.4999 19C11.0855 19 9.77535 18.5477 8.70802 17.7799C8.48385 17.6187 8.43285 17.3062 8.59411 17.0821C8.75536 16.8579 9.06781 16.8069 9.29198 16.9681C10.1948 17.6176 11.302 18 12.4999 18C15.5375 18 17.9999 15.5376 17.9999 12.5C17.9999 9.46243 15.5375 7 12.4999 7Z" fill="#4A4A4A"/>
</svg>
