<svg width="24" height="24" viewBox="0 0 24 24" fill="none" xmlns="http://www.w3.org/2000/svg">
<path fill-rule="evenodd" clip-rule="evenodd" d="M5 7.02169C6.59033 5.13471 8.9474 4 11.5 4C16.1944 4 20 7.80558 20 12.5C20 17.1944 16.1944 21 11.5 21C8.98707 21 6.65128 19.9025 5.04656 18.0322C4.86675 17.8227 4.89087 17.507 5.10045 17.3272C5.31002 17.1474 5.62568 17.1715 5.8055 17.3811C7.2222 19.0322 9.28195 20 11.5 20C15.6421 20 19 16.6421 19 12.5C19 8.35786 15.6421 5 11.5 5C9.10067 5 6.89794 6.13549 5.49907 8H8.5C8.77614 8 9 8.22386 9 8.5C9 8.77614 8.77614 9 8.5 9H4.5C4.22386 9 4 8.77614 4 8.5V4.5C4 4.22386 4.22386 4 4.5 4C4.77614 4 5 4.22386 5 4.5V7.02169ZM11 12.2929V7C11 6.72386 11.2239 6.5 11.5 6.5C11.7761 6.5 12 6.72386 12 7V12.5C12 12.6326 11.9473 12.7598 11.8536 12.8536L8.85355 15.8536C8.65829 16.0488 8.34171 16.0488 8.14645 15.8536C7.95118 15.6583 7.95118 15.3417 8.14645 15.1464L11 12.2929Z" fill="#4A4A4A"/>
</svg>
