<svg width="24" height="24" viewBox="0 0 24 24" fill="none" xmlns="http://www.w3.org/2000/svg">
<path d="M4 10.5C4 10.2239 3.77614 10 3.5 10C3.22386 10 3 10.2239 3 10.5H4ZM3.5 21.5H3C3 21.7761 3.22386 22 3.5 22V21.5ZM12.5 21.5V22C12.7761 22 13 21.7761 13 21.5H12.5ZM12.5 15.5V15C12.2239 15 12 15.2239 12 15.5H12.5ZM16.5 15.5H17C17 15.2239 16.7761 15 16.5 15V15.5ZM16.5 21.5H16C16 21.7761 16.2239 22 16.5 22V21.5ZM20.5 21.5V22C20.7761 22 21 21.7761 21 21.5H20.5ZM21 10.5C21 10.2239 20.7761 10 20.5 10C20.2239 10 20 10.2239 20 10.5H21ZM6.5 10.5V10C6.22386 10 6 10.2239 6 10.5H6.5ZM10.5 10.5H11C11 10.2239 10.7761 10 10.5 10V10.5ZM10.5 14.5V15C10.7761 15 11 14.7761 11 14.5H10.5ZM6.5 14.5H6C6 14.7761 6.22386 15 6.5 15V14.5ZM0.240027 9.0729C0.0041461 9.21648 -0.0706787 9.52409 0.0729007 9.75997C0.21648 9.99585 0.524093 10.0707 0.759973 9.9271L0.240027 9.0729ZM12 2.5L12.26 2.0729C12.1003 1.9757 11.8997 1.9757 11.74 2.0729L12 2.5ZM23.24 9.9271C23.4759 10.0707 23.7835 9.99585 23.9271 9.75997C24.0707 9.52409 23.9959 9.21648 23.76 9.0729L23.24 9.9271ZM3 10.5V21.5H4V10.5H3ZM3.5 22H12.5V21H3.5V22ZM13 21.5V15.5H12V21.5H13ZM12.5 16H16.5V15H12.5V16ZM16 15.5V21.5H17V15.5H16ZM16.5 22H20.5V21H16.5V22ZM21 21.5V10.5H20V21.5H21ZM6.5 11H10.5V10H6.5V11ZM10 10.5V14.5H11V10.5H10ZM10.5 14H6.5V15H10.5V14ZM7 14.5V10.5H6V14.5H7ZM0.759973 9.9271L12.26 2.9271L11.74 2.0729L0.240027 9.0729L0.759973 9.9271ZM11.74 2.9271L23.24 9.9271L23.76 9.0729L12.26 2.0729L11.74 2.9271Z" fill="#4A4A4A"/>
</svg>
