<svg width="24" height="24" viewBox="0 0 24 24" fill="none" xmlns="http://www.w3.org/2000/svg">
<path fill-rule="evenodd" clip-rule="evenodd" d="M12.4788 3.1221C12.1803 2.9593 11.8196 2.9593 11.5211 3.1221L3.53893 7.47601C3.52742 7.482 3.51605 7.4882 3.50482 7.49462L0.521093 9.1221C0.0362445 9.38657 -0.142413 9.994 0.122049 10.4789C0.386512 10.9637 0.993949 11.1424 1.4788 10.8779L2.99994 10.0482V21C2.99994 21.5523 3.44766 22 3.99995 22H11.9999H12.9999V18C12.9999 17.4477 13.4477 17 13.9999 17H15.9999C16.5522 17 16.9999 17.4477 16.9999 18V22H17.9999H19.9999C20.5522 22 20.9999 21.5523 20.9999 21V10.0482L22.5211 10.8779C23.0059 11.1424 23.6134 10.9637 23.8778 10.4789C24.1423 9.994 23.9636 9.38657 23.4788 9.1221L20.4951 7.49462C20.4838 7.48821 20.4725 7.482 20.461 7.47601L12.4788 3.1221ZM6 12H10V16H6V12Z" fill="#4A4A4A"/>
</svg>
