<svg width="24" height="24" viewBox="0 0 24 24" fill="none" xmlns="http://www.w3.org/2000/svg">
<path fill-rule="evenodd" clip-rule="evenodd" d="M3 6C3 4.34315 4.34315 3 6 3H18C19.6569 3 21 4.34315 21 6V15.5858L17.6213 12.2071C16.4497 11.0355 14.5503 11.0355 13.3787 12.2071L12.5 13.0858L8.62132 9.20711C7.44975 8.03554 5.55025 8.03553 4.37868 9.20711L3 10.5858V6ZM16.2071 13.6213L20.975 18.3892C20.8691 19.2063 20.4346 19.9202 19.8082 20.394L13.9142 14.5L14.7929 13.6213C15.1834 13.2308 15.8166 13.2308 16.2071 13.6213ZM11.7929 15.2071L17.5858 21H6C4.34315 21 3 19.6569 3 18V13.4142L5.79289 10.6213C6.18342 10.2308 6.81658 10.2308 7.20711 10.6213L11.7929 15.2071ZM16 9C17.1046 9 18 8.10457 18 7C18 5.89543 17.1046 5 16 5C14.8954 5 14 5.89543 14 7C14 8.10457 14.8954 9 16 9Z" fill="#4A4A4A"/>
</svg>
