<svg width="24" height="24" viewBox="0 0 24 24" fill="none" xmlns="http://www.w3.org/2000/svg">
<path d="M5.08579 9.91421L4.73223 9.56066L5.08579 9.91421ZM7.91421 9.91421L7.56066 10.2678L7.91421 9.91421ZM18.5 3H5.5V4H18.5V3ZM5.5 21H18.5V20H5.5V21ZM3 5.5V11.5H4V5.5H3ZM3 11.5V18.5H4V11.5H3ZM4.73223 9.56066L3.14645 11.1464L3.85355 11.8536L5.43934 10.2678L4.73223 9.56066ZM18.8536 20.1464L12.8536 14.1464L12.1464 14.8536L18.1464 20.8536L18.8536 20.1464ZM12.8536 14.1464L8.26777 9.56066L7.56066 10.2678L12.1464 14.8536L12.8536 14.1464ZM12.8536 14.8536L14.4393 13.2678L13.7322 12.5607L12.1464 14.1464L12.8536 14.8536ZM21 18.5V16.5H20V18.5H21ZM21 16.5V5.5H20V16.5H21ZM16.5607 13.2678L20.1464 16.8536L20.8536 16.1464L17.2678 12.5607L16.5607 13.2678ZM5.43934 10.2678C6.02513 9.68198 6.97487 9.68198 7.56066 10.2678L8.26777 9.56066C7.29146 8.58435 5.70854 8.58435 4.73223 9.56066L5.43934 10.2678ZM15.5 9C14.6716 9 14 8.32843 14 7.5H13C13 8.88071 14.1193 10 15.5 10V9ZM17 7.5C17 8.32843 16.3284 9 15.5 9V10C16.8807 10 18 8.88071 18 7.5H17ZM15.5 6C16.3284 6 17 6.67157 17 7.5H18C18 6.11929 16.8807 5 15.5 5V6ZM15.5 5C14.1193 5 13 6.11929 13 7.5H14C14 6.67157 14.6716 6 15.5 6V5ZM18.5 4C19.3284 4 20 4.67157 20 5.5H21C21 4.11929 19.8807 3 18.5 3V4ZM18.5 21C19.8807 21 21 19.8807 21 18.5H20C20 19.3284 19.3284 20 18.5 20V21ZM14.4393 13.2678C15.0251 12.682 15.9749 12.682 16.5607 13.2678L17.2678 12.5607C16.2915 11.5843 14.7085 11.5844 13.7322 12.5607L14.4393 13.2678ZM5.5 20C4.67157 20 4 19.3284 4 18.5H3C3 19.8807 4.11929 21 5.5 21V20ZM5.5 3C4.11929 3 3 4.11929 3 5.5H4C4 4.67157 4.67157 4 5.5 4V3Z" fill="#4A4A4A"/>
</svg>
