<svg width="24" height="24" viewBox="0 0 24 24" fill="none" xmlns="http://www.w3.org/2000/svg">
<path fill-rule="evenodd" clip-rule="evenodd" d="M21.7274 17.9899L13.6382 3.96525C13.4768 3.68551 13.2518 3.45138 12.9828 3.28354C12.078 2.71879 10.9044 3.024 10.3615 3.96525L2.27228 17.9899C2.09411 18.2988 2 18.6523 2 19.0125C2 20.1102 2.85541 21 3.91062 21H20.089C20.4353 21 20.7751 20.9021 21.072 20.7168C21.9769 20.152 22.2703 18.9312 21.7274 17.9899ZM11 9C11 8.44772 11.4477 8 12 8C12.5523 8 13 8.44772 13 9V13C13 13.5523 12.5523 14 12 14C11.4477 14 11 13.5523 11 13V9ZM11 17C11 16.4477 11.4477 16 12 16C12.5523 16 13 16.4477 13 17C13 17.5523 12.5523 18 12 18C11.4477 18 11 17.5523 11 17Z" fill="#4A4A4A"/>
</svg>
