<svg width="24" height="24" viewBox="0 0 24 24" fill="none" xmlns="http://www.w3.org/2000/svg">
<path fill-rule="evenodd" clip-rule="evenodd" d="M17.8996 3.07946C17.3296 2.39548 16.4853 2 15.5949 2L8.40519 2.00001C7.51485 2.00001 6.6705 2.39548 6.10052 3.07947L2.69539 7.16566C2.24611 7.7048 2.00006 8.3844 2.00006 9.08621L2.00007 14.9139C2.00007 15.6157 2.24612 16.2953 2.69541 16.8344L6.10052 20.9205C6.6705 21.6045 7.51484 22 8.40519 22L15.5949 22C16.4853 22 17.3296 21.6045 17.8996 20.9206L21.3047 16.8344C21.754 16.2953 22.0001 15.6157 22.0001 14.9138L22 9.08618C22 8.38439 21.754 7.7048 21.3047 7.16566L17.8996 3.07946ZM12 5.99994C12.5523 5.99994 13 6.44766 13 6.99994V12.9999C13 13.5522 12.5523 13.9999 12 13.9999C11.4477 13.9999 11 13.5522 11 12.9999V6.99994C11 6.44766 11.4477 5.99994 12 5.99994ZM12 15.9999C12.5523 15.9999 13 16.4477 13 16.9999C13 17.5522 12.5523 17.9999 12 17.9999C11.4477 17.9999 11 17.5522 11 16.9999C11 16.4477 11.4477 15.9999 12 15.9999Z" fill="#4A4A4A"/>
</svg>
