<svg width="24" height="24" viewBox="0 0 24 24" fill="none" xmlns="http://www.w3.org/2000/svg">
<path fill-rule="evenodd" clip-rule="evenodd" d="M21.7274 16.9899L13.6382 2.96525C13.4769 2.68551 13.2518 2.45138 12.9829 2.28354C12.078 1.71879 10.9044 2.024 10.3615 2.96525L2.27228 16.9899C2.09411 17.2988 2 17.6523 2 18.0125C2 19.1102 2.85542 20 3.91063 20H20.0891C20.4354 20 20.7752 19.9021 21.0721 19.7168C21.9769 19.152 22.2703 17.9312 21.7274 16.9899ZM12.4914 3.13565C12.6258 3.21957 12.7384 3.33664 12.819 3.47651L20.9083 17.5012C21.1797 17.9718 21.033 18.5822 20.5806 18.8646C20.4321 18.9573 20.2622 19.0062 20.0891 19.0062H3.91063C3.38302 19.0062 2.95531 18.5613 2.95531 18.0125C2.95531 17.8323 3.00237 17.6556 3.09145 17.5012L11.1807 3.47651C11.4521 3.00588 12.0389 2.85328 12.4914 3.13565ZM10.7735 8.48492C10.6668 7.70119 11.246 7 12 7C12.754 7 13.3332 7.70119 13.2265 8.48492L12.5435 13.505C12.5049 13.789 12.2732 14 12 14C11.7268 14 11.4951 13.789 11.4565 13.505L10.7735 8.48492ZM12.9493 16C12.9493 16.5523 12.5229 17 11.9969 17C11.4709 17 11.0445 16.5523 11.0445 16C11.0445 15.4477 11.4709 15 11.9969 15C12.5229 15 12.9493 15.4477 12.9493 16Z" fill="#4A4A4A"/>
</svg>
