<svg width="24" height="24" viewBox="0 0 24 24" fill="none" xmlns="http://www.w3.org/2000/svg">
<path fill-rule="evenodd" clip-rule="evenodd" d="M12 22C17.5228 22 22 17.5228 22 12C22 6.47715 17.5228 2 12 2C6.47715 2 2 6.47715 2 12C2 17.5228 6.47715 22 12 22ZM14 7.5C14 8.32843 13.3284 9 12.5 9C11.6716 9 11 8.32843 11 7.5C11 6.67157 11.6716 6 12.5 6C13.3284 6 14 6.67157 14 7.5ZM13.8367 17.3855C13.3475 17.5856 12.9582 17.7374 12.6661 17.8424C12.3749 17.9475 12.0362 18 11.6508 18C11.0587 18 10.5977 17.8499 10.2695 17.5506C9.94127 17.2513 9.77796 16.8719 9.77796 16.4108C9.77796 16.2316 9.79002 16.0482 9.81416 15.8614C9.8391 15.6746 9.87852 15.4645 9.93242 15.2286L10.5447 12.9874C10.5986 12.7723 10.6452 12.568 10.6822 12.3779C10.7192 12.1861 10.7369 12.0102 10.7369 11.8501C10.7369 11.565 10.6798 11.3649 10.5664 11.2523C10.4513 11.1398 10.2349 11.0847 9.91231 11.0847C9.75463 11.0847 9.59212 11.1089 9.42558 11.1598C9.26066 11.2123 9.11746 11.2598 9 11.3065L9.16171 10.6162C9.56235 10.4469 9.9461 10.3018 10.3121 10.1818C10.6782 10.06 11.0241 10 11.35 10C11.9381 10 12.3918 10.1484 12.7112 10.4419C13.029 10.7362 13.1891 11.1189 13.1891 11.5892C13.1891 11.6867 13.1778 11.8585 13.1561 12.1036C13.1344 12.3496 13.0933 12.5738 13.0338 12.7798L12.4248 15.0143C12.3749 15.1935 12.3307 15.3986 12.2904 15.6279C12.251 15.8572 12.2317 16.0323 12.2317 16.1499C12.2317 16.4467 12.2953 16.6493 12.424 16.7569C12.5511 16.8644 12.7739 16.9186 13.0893 16.9186C13.2381 16.9186 13.4047 16.8911 13.5929 16.8377C13.7796 16.7844 13.9147 16.7368 14 16.696L13.8367 17.3855Z" fill="#4A4A4A"/>
</svg>
