<svg width="24" height="24" viewBox="0 0 24 24" fill="none" xmlns="http://www.w3.org/2000/svg">
<path fill-rule="evenodd" clip-rule="evenodd" d="M4.5 3C3.11929 3 2 4.11929 2 5.5V14.5C2 15.8802 3.11714 17 4.49838 17H9L8 19C7.44772 19 7 19.4479 7 20.0002V20.5C7 20.7761 7.22386 21 7.5 21H16.5C16.7761 21 17 20.7761 17 20.5V20.0002C17 19.4479 16.5523 19 16 19L15 17H19.5C20.8807 17 22 15.8807 22 14.5V5.5C22 4.11929 20.8807 3 19.5 3H4.5ZM4.5 5C4.22386 5 4 5.22386 4 5.5V14.5C4 14.7761 4.22386 15 4.5 15H19.5C19.7761 15 20 14.7761 20 14.5V5.5C20 5.22386 19.7761 5 19.5 5H4.5ZM5 14V6H19V14H5Z" fill="#4A4A4A"/>
</svg>
