<svg width="24" height="24" viewBox="0 0 24 24" fill="none" xmlns="http://www.w3.org/2000/svg">
<path d="M8.5 20C8.22386 20 8 20.2239 8 20.5C8 20.7761 8.22386 21 8.5 21V20ZM15.5 21C15.7761 21 16 20.7761 16 20.5C16 20.2239 15.7761 20 15.5 20V21ZM13.5 17.5V17V17.5ZM4.49838 17.5V18V17.5ZM4.5 5H19.5V4H4.5V5ZM21 6.5V15.5H22V6.5H21ZM3 15.5V6.5H2V15.5H3ZM10.5 17C10.4954 17 10.4908 17 10.4861 17C10.4815 17 10.4769 17 10.4723 17C10.4676 17 10.463 17 10.4584 17C10.4538 17 10.4492 17 10.4445 17C10.4399 17 10.4353 17 10.4307 17C10.4261 17 10.4215 17 10.4168 17C10.4122 17 10.4076 17 10.403 17C10.3984 17 10.3938 17 10.3892 17C10.3845 17 10.3799 17 10.3753 17C10.3707 17 10.3661 17 10.3615 17C10.3569 17 10.3523 17 10.3477 17C10.3431 17 10.3385 17 10.3339 17C10.3292 17 10.3246 17 10.32 17C10.3154 17 10.3108 17 10.3062 17C10.3016 17 10.297 17 10.2924 17C10.2878 17 10.2832 17 10.2786 17C10.274 17 10.2694 17 10.2648 17C10.2602 17 10.2556 17 10.2511 17C10.2465 17 10.2419 17 10.2373 17C10.2327 17 10.2281 17 10.2235 17C10.2189 17 10.2143 17 10.2097 17C10.2051 17 10.2005 17 10.196 17C10.1914 17 10.1868 17 10.1822 17C10.1776 17 10.173 17 10.1684 17C10.1639 17 10.1593 17 10.1547 17C10.1501 17 10.1455 17 10.1409 17C10.1364 17 10.1318 17 10.1272 17C10.1226 17 10.118 17 10.1135 17C10.1089 17 10.1043 17 10.0997 17C10.0952 17 10.0906 17 10.086 17C10.0814 17 10.0769 17 10.0723 17C10.0677 17 10.0632 17 10.0586 17C10.054 17 10.0494 17 10.0449 17C10.0403 17 10.0357 17 10.0312 17C10.0266 17 10.022 17 10.0175 17C10.0129 17 10.0084 17 10.0038 17C9.99923 17 9.99466 17 9.9901 17C9.98554 17 9.98098 17 9.97642 17C9.97187 17 9.96731 17 9.96275 17C9.95819 17 9.95364 17 9.94908 17C9.94453 17 9.93997 17 9.93542 17C9.93087 17 9.92631 17 9.92176 17C9.91721 17 9.91266 17 9.90811 17C9.90356 17 9.89901 17 9.89447 17C9.88992 17 9.88537 17 9.88083 17C9.87628 17 9.87174 17 9.86719 17C9.86265 17 9.85811 17 9.85356 17C9.84902 17 9.84448 17 9.83994 17C9.8354 17 9.83086 17 9.82633 17C9.82179 17 9.81725 17 9.81272 17C9.80818 17 9.80364 17 9.79911 17C9.79458 17 9.79004 17 9.78551 17C9.78098 17 9.77645 17 9.77192 17C9.76739 17 9.76286 17 9.75833 17C9.7538 17 9.74928 17 9.74475 17C9.74022 17 9.7357 17 9.73117 17C9.72665 17 9.72213 17 9.71761 17C9.71308 17 9.70856 17 9.70404 17C9.69952 17 9.695 17 9.69049 17C9.68597 17 9.68145 17 9.67693 17C9.67242 17 9.6679 17 9.66339 17C9.65888 17 9.65436 17 9.64985 17C9.64534 17 9.64083 17 9.63632 17C9.63181 17 9.6273 17 9.62279 17C9.61828 17 9.61378 17 9.60927 17C9.60477 17 9.60026 17 9.59576 17C9.59125 17 9.58675 17 9.58225 17C9.57775 17 9.57325 17 9.56875 17C9.56425 17 9.55975 17 9.55525 17C9.55075 17 9.54626 17 9.54176 17C9.53727 17 9.53277 17 9.52828 17C9.52379 17 9.51929 17 9.5148 17C9.51031 17 9.50582 17 9.50133 17C9.49684 17 9.49236 17 9.48787 17C9.48338 17 9.4789 17 9.47441 17C9.46993 17 9.46544 17 9.46096 17C9.45648 17 9.452 17 9.44752 17C9.44303 17 9.43856 17 9.43408 17C9.4296 17 9.42512 17 9.42064 17C9.41617 17 9.41169 17 9.40722 17C9.40275 17 9.39827 17 9.3938 17C9.38933 17 9.38486 17 9.38039 17C9.37592 17 9.37145 17 9.36698 17C9.36251 17 9.35805 17 9.35358 17C9.34912 17 9.34465 17 9.34019 17C9.33573 17 9.33127 17 9.3268 17C9.32234 17 9.31788 17 9.31343 17C9.30897 17 9.30451 17 9.30005 17C9.2956 17 9.29114 17 9.28669 17C9.28223 17 9.27778 17 9.27333 17C9.26887 17 9.26442 17 9.25997 17C9.25552 17 9.25108 17 9.24663 17C9.24218 17 9.23773 17 9.23329 17C9.22884 17 9.2244 17 9.21996 17C9.21551 17 9.21107 17 9.20663 17C9.20219 17 9.19775 17 9.19331 17C9.18887 17 9.18444 17 9.18 17C9.17556 17 9.17113 17 9.16669 17C9.16226 17 9.15783 17 9.1534 17C9.14896 17 9.14453 17 9.1401 17C9.13568 17 9.13125 17 9.12682 17C9.12239 17 9.11797 17 9.11354 17C9.10912 17 9.10469 17 9.10027 17C9.09585 17 9.09143 17 9.08701 17C9.08259 17 9.07817 17 9.07375 17C9.06933 17 9.06492 17 9.0605 17C9.05609 17 9.05167 17 9.04726 17C9.04285 17 9.03844 17 9.03402 17C9.02961 17 9.0252 17 9.0208 17C9.01639 17 9.01198 17 9.00758 17C9.00317 17 8.99876 17 8.99436 17C8.98996 17 8.98556 17 8.98115 17C8.97675 17 8.97235 17 8.96795 17C8.96356 17 8.95916 17 8.95476 17C8.95037 17 8.94597 17 8.94158 17C8.93718 17 8.93279 17 8.9284 17C8.92401 17 8.91962 17 8.91523 17C8.91084 17 8.90645 17 8.90206 17C8.89768 17 8.89329 17 8.88891 17C8.88452 17 8.88014 17 8.87576 17C8.87138 17 8.867 17 8.86262 17C8.85824 17 8.85386 17 8.84948 17C8.84511 17 8.84073 17 8.83636 17C8.83198 17 8.82761 17 8.82324 17C8.81887 17 8.81449 17 8.81013 17C8.80576 17 8.80139 17 8.79702 17C8.79265 17 8.78829 17 8.78392 17C8.77956 17 8.7752 17 8.77083 17C8.76647 17 8.76211 17 8.75775 17C8.75339 17 8.74903 17 8.74468 17C8.74032 17 8.73596 17 8.73161 17C8.72726 17 8.7229 17 8.71855 17C8.7142 17 8.70985 17 8.7055 17C8.70115 17 8.6968 17 8.69245 17C8.68811 17 8.68376 17 8.67942 17C8.67507 17 8.67073 17 8.66639 17C8.66205 17 8.65771 17 8.65337 17C8.64903 17 8.64469 17 8.64035 17C8.63602 17 8.63168 17 8.62735 17C8.62301 17 8.61868 17 8.61435 17C8.61002 17 8.60569 17 8.60136 17C8.59703 17 8.5927 17 8.58838 17C8.58405 17 8.57973 17 8.5754 17C8.57108 17 8.56676 17 8.56244 17C8.55812 17 8.5538 17 8.54948 17C8.54516 17 8.54084 17 8.53653 17C8.53221 17 8.5279 17 8.52358 17C8.51927 17 8.51496 17 8.51065 17C8.50634 17 8.50203 17 8.49772 17C8.49341 17 8.48911 17 8.4848 17C8.4805 17 8.47619 17 8.47189 17C8.46759 17 8.46329 17 8.45899 17C8.45469 17 8.45039 17 8.44609 17C8.44179 17 8.4375 17 8.4332 17C8.42891 17 8.42462 17 8.42032 17C8.41603 17 8.41174 17 8.40745 17C8.40316 17 8.39888 17 8.39459 17C8.3903 17 8.38602 17 8.38173 17C8.37745 17 8.37317 17 8.36889 17C8.36461 17 8.36033 17 8.35605 17C8.35177 17 8.34749 17 8.34322 17C8.33894 17 8.33467 17 8.3304 17C8.32612 17 8.32185 17 8.31758 17C8.31331 17 8.30904 17 8.30478 17C8.30051 17 8.29624 17 8.29198 17C8.28771 17 8.28345 17 8.27919 17C8.27493 17 8.27067 17 8.26641 17C8.26215 17 8.25789 17 8.25363 17C8.24938 17 8.24512 17 8.24087 17C8.23662 17 8.23237 17 8.22811 17C8.22386 17 8.21961 17 8.21537 17C8.21112 17 8.20687 17 8.20263 17C8.19838 17 8.19414 17 8.1899 17C8.18566 17 8.18141 17 8.17718 17C8.17294 17 8.1687 17 8.16446 17C8.16022 17 8.15599 17 8.15176 17C8.14752 17 8.14329 17 8.13906 17C8.13483 17 8.1306 17 8.12637 17C8.12214 17 8.11792 17 8.11369 17C8.10947 17 8.10524 17 8.10102 17C8.0968 17 8.09258 17 8.08836 17C8.08414 17 8.07992 17 8.0757 17C8.07149 17 8.06727 17 8.06306 17C8.05885 17 8.05463 17 8.05042 17C8.04621 17 8.042 17 8.03779 17C8.03359 17 8.02938 17 8.02518 17C8.02097 17 8.01677 17 8.01257 17C8.00836 17 8.00416 17 7.99996 17C7.99576 17 7.99157 17 7.98737 17C7.98317 17 7.97898 17 7.97479 17C7.97059 17 7.9664 17 7.96221 17C7.95802 17 7.95383 17 7.94965 17C7.94546 17 7.94127 17 7.93709 17C7.9329 17 7.92872 17 7.92454 17C7.92036 17 7.91618 17 7.912 17C7.90782 17 7.90364 17 7.89947 17C7.89529 17 7.89112 17 7.88695 17C7.88277 17 7.8786 17 7.87443 17C7.87026 17 7.8661 17 7.86193 17C7.85776 17 7.8536 17 7.84943 17C7.84527 17 7.84111 17 7.83695 17C7.83279 17 7.82863 17 7.82447 17C7.82031 17 7.81616 17 7.812 17C7.80785 17 7.8037 17 7.79955 17C7.79539 17 7.79124 17 7.7871 17C7.78295 17 7.7788 17 7.77466 17C7.77051 17 7.76637 17 7.76222 17C7.75808 17 7.75394 17 7.7498 17C7.74566 17 7.74153 17 7.73739 17C7.73325 17 7.72912 17 7.72499 17C7.72085 17 7.71672 17 7.71259 17C7.70846 17 7.70433 17 7.70021 17C7.69608 17 7.69195 17 7.68783 17C7.68371 17 7.67958 17 7.67546 17C7.67134 17 7.66722 17 7.66311 17C7.65899 17 7.65487 17 7.65076 17C7.64664 17 7.64253 17 7.63842 17C7.63431 17 7.6302 17 7.62609 17C7.62198 17 7.61788 17 7.61377 17C7.60967 17 7.60556 17 7.60146 17C7.59736 17 7.59326 17 7.58916 17C7.58506 17 7.58096 17 7.57687 17C7.57277 17 7.56868 17 7.56459 17C7.56049 17 7.5564 17 7.55231 17C7.54822 17 7.54414 17 7.54005 17C7.53596 17 7.53188 17 7.5278 17C7.52371 17 7.51963 17 7.51555 17C7.51147 17 7.5074 17 7.50332 17C7.49924 17 7.49517 17 7.4911 17C7.48702 17 7.48295 17 7.47888 17C7.47481 17 7.47074 17 7.46667 17C7.46261 17 7.45854 17 7.45448 17C7.45042 17 7.44635 17 7.44229 17C7.43823 17 7.43417 17 7.43012 17C7.42606 17 7.422 17 7.41795 17C7.4139 17 7.40984 17 7.40579 17C7.40174 17 7.39769 17 7.39365 17C7.3896 17 7.38555 17 7.38151 17C7.37747 17 7.37342 17 7.36938 17C7.36534 17 7.3613 17 7.35727 17C7.35323 17 7.34919 17 7.34516 17C7.34112 17 7.33709 17 7.33306 17C7.32903 17 7.325 17 7.32097 17C7.31695 17 7.31292 17 7.30889 17C7.30487 17 7.30085 17 7.29683 17C7.29281 17 7.28879 17 7.28477 17C7.28075 17 7.27674 17 7.27272 17C7.26871 17 7.26469 17 7.26068 17C7.25667 17 7.25266 17 7.24866 17C7.24465 17 7.24064 17 7.23664 17C7.23263 17 7.22863 17 7.22463 17C7.22063 17 7.21663 17 7.21263 17C7.20863 17 7.20464 17 7.20064 17C7.19665 17 7.19266 17 7.18867 17C7.18468 17 7.18069 17 7.1767 17C7.17271 17 7.16873 17 7.16474 17C7.16076 17 7.15678 17 7.1528 17C7.14882 17 7.14484 17 7.14086 17C7.13688 17 7.13291 17 7.12893 17C7.12496 17 7.12099 17 7.11702 17C7.11305 17 7.10908 17 7.10511 17C7.10115 17 7.09718 17 7.09322 17C7.08925 17 7.08529 17 7.08133 17C7.07737 17 7.07341 17 7.06946 17C7.0655 17 7.06155 17 7.05759 17C7.05364 17 7.04969 17 7.04574 17C7.04179 17 7.03784 17 7.0339 17C7.02995 17 7.02601 17 7.02206 17C7.01812 17 7.01418 17 7.01024 17C7.0063 17 7.00236 17 6.99843 17C6.99449 17 6.99056 17 6.98663 17C6.98269 17 6.97876 17 6.97483 17C6.97091 17 6.96698 17 6.96305 17C6.95913 17 6.95521 17 6.95128 17C6.94736 17 6.94344 17 6.93953 17C6.93561 17 6.93169 17 6.92778 17C6.92386 17 6.91995 17 6.91604 17C6.91213 17 6.90822 17 6.90431 17C6.9004 17 6.8965 17 6.89259 17C6.88869 17 6.88479 17 6.88089 17C6.87699 17 6.87309 17 6.86919 17C6.8653 17 6.8614 17 6.85751 17C6.85361 17 6.84972 17 6.84583 17C6.84194 17 6.83806 17 6.83417 17C6.83028 17 6.8264 17 6.82252 17C6.81864 17 6.81475 17 6.81088 17C6.807 17 6.80312 17 6.79925 17C6.79537 17 6.7915 17 6.78763 17C6.78375 17 6.77988 17 6.77602 17C6.77215 17 6.76828 17 6.76442 17C6.76055 17 6.75669 17 6.75283 17C6.74897 17 6.74511 17 6.74125 17C6.7374 17 6.73354 17 6.72969 17C6.72584 17 6.72198 17 6.71814 17C6.71429 17 6.71044 17 6.70659 17C6.70275 17 6.6989 17 6.69506 17C6.69122 17 6.68738 17 6.68354 17C6.6797 17 6.67586 17 6.67203 17C6.66819 17 6.66436 17 6.66053 17C6.6567 17 6.65287 17 6.64904 17C6.64521 17 6.64139 17 6.63756 17C6.63374 17 6.62992 17 6.6261 17C6.62228 17 6.61846 17 6.61464 17C6.61083 17 6.60701 17 6.6032 17C6.59939 17 6.59558 17 6.59177 17C6.58796 17 6.58415 17 6.58035 17C6.57654 17 6.57274 17 6.56894 17C6.56514 17 6.56134 17 6.55754 17C6.55374 17 6.54995 17 6.54615 17C6.54236 17 6.53857 17 6.53478 17C6.53099 17 6.5272 17 6.52341 17C6.51963 17 6.51584 17 6.51206 17C6.50828 17 6.5045 17 6.50072 17C6.49694 17 6.49316 17 6.48939 17C6.48561 17 6.48184 17 6.47807 17C6.4743 17 6.47053 17 6.46676 17C6.463 17 6.45923 17 6.45547 17C6.4517 17 6.44794 17 6.44418 17C6.44042 17 6.43667 17 6.43291 17C6.42915 17 6.4254 17 6.42165 17C6.4179 17 6.41415 17 6.4104 17C6.40665 17 6.4029 17 6.39916 17C6.39542 17 6.39167 17 6.38793 17C6.38419 17 6.38046 17 6.37672 17C6.37298 17 6.36925 17 6.36552 17C6.36178 17 6.35805 17 6.35432 17C6.3506 17 6.34687 17 6.34314 17C6.33942 17 6.3357 17 6.33198 17C6.32825 17 6.32454 17 6.32082 17C6.3171 17 6.31339 17 6.30967 17C6.30596 17 6.30225 17 6.29854 17C6.29483 17 6.29113 17 6.28742 17C6.28371 17 6.28001 17 6.27631 17C6.27261 17 6.26891 17 6.26521 17C6.26152 17 6.25782 17 6.25413 17C6.25043 17 6.24674 17 6.24305 17C6.23936 17 6.23568 17 6.23199 17C6.22831 17 6.22462 17 6.22094 17C6.21726 17 6.21358 17 6.2099 17C6.20623 17 6.20255 17 6.19888 17C6.1952 17 6.19153 17 6.18786 17C6.18419 17 6.18053 17 6.17686 17C6.17319 17 6.16953 17 6.16587 17C6.16221 17 6.15855 17 6.15489 17C6.15123 17 6.14758 17 6.14393 17C6.14027 17 6.13662 17 6.13297 17C6.12932 17 6.12567 17 6.12203 17C6.11838 17 6.11474 17 6.1111 17C6.10746 17 6.10382 17 6.10018 17C6.09654 17 6.09291 17 6.08928 17C6.08564 17 6.08201 17 6.07838 17C6.07475 17 6.07113 17 6.0675 17C6.06388 17 6.06025 17 6.05663 17C6.05301 17 6.04939 17 6.04578 17C6.04216 17 6.03854 17 6.03493 17C6.03132 17 6.02771 17 6.0241 17C6.02049 17 6.01688 17 6.01328 17C6.00968 17 6.00607 17 6.00247 17C5.99887 17 5.99527 17 5.99168 17C5.98808 17 5.98449 17 5.9809 17C5.9773 17 5.97371 17 5.97012 17C5.96654 17 5.96295 17 5.95937 17C5.95578 17 5.9522 17 5.94862 17C5.94504 17 5.94146 17 5.93789 17C5.93431 17 5.93074 17 5.92717 17C5.9236 17 5.92003 17 5.91646 17C5.91289 17 5.90933 17 5.90576 17C5.9022 17 5.89864 17 5.89508 17C5.89152 17 5.88797 17 5.88441 17C5.88086 17 5.8773 17 5.87375 17C5.8702 17 5.86665 17 5.86311 17C5.85956 17 5.85602 17 5.85248 17C5.84893 17 5.84539 17 5.84186 17C5.83832 17 5.83478 17 5.83125 17C5.82771 17 5.82418 17 5.82065 17C5.81712 17 5.8136 17 5.81007 17C5.80655 17 5.80302 17 5.7995 17C5.79598 17 5.79246 17 5.78895 17C5.78543 17 5.78191 17 5.7784 17C5.77489 17 5.77138 17 5.76787 17C5.76436 17 5.76086 17 5.75735 17C5.75385 17 5.75035 17 5.74685 17C5.74335 17 5.73985 17 5.73636 17C5.73286 17 5.72937 17 5.72588 17C5.72239 17 5.7189 17 5.71541 17C5.71192 17 5.70844 17 5.70496 17C5.70147 17 5.69799 17 5.69452 17C5.69104 17 5.68756 17 5.68409 17C5.68061 17 5.67714 17 5.67367 17C5.6702 17 5.66674 17 5.66327 17C5.65981 17 5.65634 17 5.65288 17C5.64942 17 5.64596 17 5.64251 17C5.63905 17 5.6356 17 5.63215 17C5.62869 17 5.62524 17 5.6218 17C5.61835 17 5.6149 17 5.61146 17C5.60802 17 5.60458 17 5.60114 17C5.5977 17 5.59426 17 5.59083 17C5.58739 17 5.58396 17 5.58053 17C5.5771 17 5.57367 17 5.57025 17C5.56682 17 5.5634 17 5.55998 17C5.55655 17 5.55313 17 5.54972 17C5.5463 17 5.54289 17 5.53947 17C5.53606 17 5.53265 17 5.52924 17C5.52584 17 5.52243 17 5.51903 17C5.51562 17 5.51222 17 5.50882 17C5.50542 17 5.50203 17 5.49863 17C5.49524 17 5.49184 17 5.48845 17C5.48506 17 5.48168 17 5.47829 17C5.4749 17 5.47152 17 5.46814 17C5.46476 17 5.46138 17 5.458 17C5.45463 17 5.45125 17 5.44788 17C5.44451 17 5.44114 17 5.43777 17C5.4344 17 5.43103 17 5.42767 17C5.42431 17 5.42095 17 5.41759 17C5.41423 17 5.41087 17 5.40752 17C5.40416 17 5.40081 17 5.39746 17C5.39411 17 5.39076 17 5.38742 17C5.38407 17 5.38073 17 5.37739 17C5.37405 17 5.37071 17 5.36738 17C5.36404 17 5.36071 17 5.35737 17C5.35404 17 5.35071 17 5.34739 17C5.34406 17 5.34073 17 5.33741 17C5.33409 17 5.33077 17 5.32745 17C5.32413 17 5.32082 17 5.3175 17C5.31419 17 5.31088 17 5.30757 17C5.30426 17 5.30096 17 5.29765 17C5.29435 17 5.29104 17 5.28775 17C5.28445 17 5.28115 17 5.27785 17C5.27456 17 5.27127 17 5.26798 17C5.26469 17 5.2614 17 5.25811 17C5.25483 17 5.25154 17 5.24826 17C5.24498 17 5.2417 17 5.23842 17C5.23515 17 5.23187 17 5.2286 17C5.22533 17 5.22206 17 5.21879 17C5.21553 17 5.21226 17 5.209 17C5.20574 17 5.20248 17 5.19922 17C5.19596 17 5.1927 17 5.18945 17C5.1862 17 5.18295 17 5.1797 17C5.17645 17 5.1732 17 5.16996 17C5.16672 17 5.16348 17 5.16024 17C5.157 17 5.15376 17 5.15053 17C5.14729 17 5.14406 17 5.14083 17C5.1376 17 5.13437 17 5.13115 17C5.12792 17 5.1247 17 5.12148 17C5.11826 17 5.11504 17 5.11182 17C5.10861 17 5.1054 17 5.10219 17C5.09897 17 5.09577 17 5.09256 17C5.08935 17 5.08615 17 5.08295 17C5.07975 17 5.07655 17 5.07335 17C5.07015 17 5.06696 17 5.06377 17C5.06058 17 5.05739 17 5.0542 17C5.05101 17 5.04783 17 5.04465 17C5.04146 17 5.03828 17 5.03511 17C5.03193 17 5.02875 17 5.02558 17C5.02241 17 5.01924 17 5.01607 17C5.0129 17 5.00974 17 5.00657 17C5.00341 17 5.00025 17 4.99709 17C4.99393 17 4.99078 17 4.98762 17C4.98447 17 4.98132 17 4.97817 17C4.97502 17 4.97187 17 4.96873 17C4.96559 17 4.96244 17 4.95931 17C4.95617 17 4.95303 17 4.9499 17C4.94676 17 4.94363 17 4.9405 17C4.93737 17 4.93424 17 4.93112 17C4.92799 17 4.92487 17 4.92175 17C4.91863 17 4.91552 17 4.9124 17C4.90929 17 4.90617 17 4.90306 17C4.89995 17 4.89685 17 4.89374 17C4.89064 17 4.88753 17 4.88443 17C4.88133 17 4.87824 17 4.87514 17C4.87205 17 4.86895 17 4.86586 17C4.86277 17 4.85969 17 4.8566 17C4.85351 17 4.85043 17 4.84735 17C4.84427 17 4.84119 17 4.83812 17C4.83504 17 4.83197 17 4.8289 17C4.82583 17 4.82276 17 4.81969 17C4.81663 17 4.81356 17 4.8105 17C4.80744 17 4.80438 17 4.80133 17C4.79827 17 4.79522 17 4.79217 17C4.78912 17 4.78607 17 4.78302 17C4.77998 17 4.77694 17 4.77389 17C4.77085 17 4.76782 17 4.76478 17C4.76174 17 4.75871 17 4.75568 17C4.75265 17 4.74962 17 4.74659 17C4.74357 17 4.74055 17 4.73752 17C4.7345 17 4.73148 17 4.72847 17C4.72545 17 4.72244 17 4.71943 17C4.71642 17 4.71341 17 4.7104 17C4.7074 17 4.7044 17 4.70139 17C4.69839 17 4.6954 17 4.6924 17C4.6894 17 4.68641 17 4.68342 17C4.68043 17 4.67744 17 4.67446 17C4.67147 17 4.66849 17 4.66551 17C4.66253 17 4.65955 17 4.65657 17C4.6536 17 4.65062 17 4.64765 17C4.64468 17 4.64171 17 4.63875 17C4.63578 17 4.63282 17 4.62986 17C4.6269 17 4.62394 17 4.62099 17C4.61803 17 4.61508 17 4.61213 17C4.60918 17 4.60623 17 4.60329 17C4.60034 17 4.5974 17 4.59446 17C4.59152 17 4.58858 17 4.58565 17C4.58271 17 4.57978 17 4.57685 17C4.57392 17 4.571 17 4.56807 17C4.56515 17 4.56223 17 4.55931 17C4.55639 17 4.55347 17 4.55056 17C4.54764 17 4.54473 17 4.54182 17C4.53891 17 4.53601 17 4.5331 17C4.5302 17 4.5273 17 4.5244 17C4.5215 17 4.5186 17 4.51571 17C4.51282 17 4.50993 17 4.50704 17C4.50415 17 4.50126 17 4.49838 17V18C4.50126 18 4.50415 18 4.50704 18C4.50993 18 4.51282 18 4.51571 18C4.5186 18 4.5215 18 4.5244 18C4.5273 18 4.5302 18 4.5331 18C4.53601 18 4.53891 18 4.54182 18C4.54473 18 4.54764 18 4.55056 18C4.55347 18 4.55639 18 4.55931 18C4.56223 18 4.56515 18 4.56807 18C4.571 18 4.57392 18 4.57685 18C4.57978 18 4.58271 18 4.58565 18C4.58858 18 4.59152 18 4.59446 18C4.5974 18 4.60034 18 4.60329 18C4.60623 18 4.60918 18 4.61213 18C4.61508 18 4.61803 18 4.62099 18C4.62394 18 4.6269 18 4.62986 18C4.63282 18 4.63578 18 4.63875 18C4.64171 18 4.64468 18 4.64765 18C4.65062 18 4.6536 18 4.65657 18C4.65955 18 4.66253 18 4.66551 18C4.66849 18 4.67147 18 4.67446 18C4.67744 18 4.68043 18 4.68342 18C4.68641 18 4.6894 18 4.6924 18C4.6954 18 4.69839 18 4.70139 18C4.7044 18 4.7074 18 4.7104 18C4.71341 18 4.71642 18 4.71943 18C4.72244 18 4.72545 18 4.72847 18C4.73148 18 4.7345 18 4.73752 18C4.74055 18 4.74357 18 4.74659 18C4.74962 18 4.75265 18 4.75568 18C4.75871 18 4.76174 18 4.76478 18C4.76782 18 4.77085 18 4.77389 18C4.77694 18 4.77998 18 4.78302 18C4.78607 18 4.78912 18 4.79217 18C4.79522 18 4.79827 18 4.80133 18C4.80438 18 4.80744 18 4.8105 18C4.81356 18 4.81663 18 4.81969 18C4.82276 18 4.82583 18 4.8289 18C4.83197 18 4.83504 18 4.83812 18C4.84119 18 4.84427 18 4.84735 18C4.85043 18 4.85351 18 4.8566 18C4.85969 18 4.86277 18 4.86586 18C4.86895 18 4.87205 18 4.87514 18C4.87824 18 4.88133 18 4.88443 18C4.88753 18 4.89064 18 4.89374 18C4.89685 18 4.89995 18 4.90306 18C4.90617 18 4.90929 18 4.9124 18C4.91552 18 4.91863 18 4.92175 18C4.92487 18 4.92799 18 4.93112 18C4.93424 18 4.93737 18 4.9405 18C4.94363 18 4.94676 18 4.9499 18C4.95303 18 4.95617 18 4.95931 18C4.96244 18 4.96559 18 4.96873 18C4.97187 18 4.97502 18 4.97817 18C4.98132 18 4.98447 18 4.98762 18C4.99078 18 4.99393 18 4.99709 18C5.00025 18 5.00341 18 5.00657 18C5.00974 18 5.0129 18 5.01607 18C5.01924 18 5.02241 18 5.02558 18C5.02875 18 5.03193 18 5.03511 18C5.03828 18 5.04146 18 5.04465 18C5.04783 18 5.05101 18 5.0542 18C5.05739 18 5.06058 18 5.06377 18C5.06696 18 5.07015 18 5.07335 18C5.07655 18 5.07975 18 5.08295 18C5.08615 18 5.08935 18 5.09256 18C5.09577 18 5.09897 18 5.10219 18C5.1054 18 5.10861 18 5.11182 18C5.11504 18 5.11826 18 5.12148 18C5.1247 18 5.12792 18 5.13115 18C5.13437 18 5.1376 18 5.14083 18C5.14406 18 5.14729 18 5.15053 18C5.15376 18 5.157 18 5.16024 18C5.16348 18 5.16672 18 5.16996 18C5.1732 18 5.17645 18 5.1797 18C5.18295 18 5.1862 18 5.18945 18C5.1927 18 5.19596 18 5.19922 18C5.20248 18 5.20574 18 5.209 18C5.21226 18 5.21553 18 5.21879 18C5.22206 18 5.22533 18 5.2286 18C5.23187 18 5.23515 18 5.23842 18C5.2417 18 5.24498 18 5.24826 18C5.25154 18 5.25483 18 5.25811 18C5.2614 18 5.26469 18 5.26798 18C5.27127 18 5.27456 18 5.27785 18C5.28115 18 5.28445 18 5.28775 18C5.29104 18 5.29435 18 5.29765 18C5.30096 18 5.30426 18 5.30757 18C5.31088 18 5.31419 18 5.3175 18C5.32082 18 5.32413 18 5.32745 18C5.33077 18 5.33409 18 5.33741 18C5.34073 18 5.34406 18 5.34739 18C5.35071 18 5.35404 18 5.35737 18C5.36071 18 5.36404 18 5.36738 18C5.37071 18 5.37405 18 5.37739 18C5.38073 18 5.38407 18 5.38742 18C5.39076 18 5.39411 18 5.39746 18C5.40081 18 5.40416 18 5.40752 18C5.41087 18 5.41423 18 5.41759 18C5.42095 18 5.42431 18 5.42767 18C5.43103 18 5.4344 18 5.43777 18C5.44114 18 5.44451 18 5.44788 18C5.45125 18 5.45463 18 5.458 18C5.46138 18 5.46476 18 5.46814 18C5.47152 18 5.4749 18 5.47829 18C5.48168 18 5.48506 18 5.48845 18C5.49184 18 5.49524 18 5.49863 18C5.50203 18 5.50542 18 5.50882 18C5.51222 18 5.51562 18 5.51903 18C5.52243 18 5.52584 18 5.52924 18C5.53265 18 5.53606 18 5.53947 18C5.54289 18 5.5463 18 5.54972 18C5.55313 18 5.55655 18 5.55998 18C5.5634 18 5.56682 18 5.57025 18C5.57367 18 5.5771 18 5.58053 18C5.58396 18 5.58739 18 5.59083 18C5.59426 18 5.5977 18 5.60114 18C5.60458 18 5.60802 18 5.61146 18C5.6149 18 5.61835 18 5.6218 18C5.62524 18 5.62869 18 5.63215 18C5.6356 18 5.63905 18 5.64251 18C5.64596 18 5.64942 18 5.65288 18C5.65634 18 5.65981 18 5.66327 18C5.66674 18 5.6702 18 5.67367 18C5.67714 18 5.68061 18 5.68409 18C5.68756 18 5.69104 18 5.69452 18C5.69799 18 5.70147 18 5.70496 18C5.70844 18 5.71192 18 5.71541 18C5.7189 18 5.72239 18 5.72588 18C5.72937 18 5.73286 18 5.73636 18C5.73985 18 5.74335 18 5.74685 18C5.75035 18 5.75385 18 5.75735 18C5.76086 18 5.76436 18 5.76787 18C5.77138 18 5.77489 18 5.7784 18C5.78191 18 5.78543 18 5.78895 18C5.79246 18 5.79598 18 5.7995 18C5.80302 18 5.80655 18 5.81007 18C5.8136 18 5.81712 18 5.82065 18C5.82418 18 5.82771 18 5.83125 18C5.83478 18 5.83832 18 5.84186 18C5.84539 18 5.84893 18 5.85248 18C5.85602 18 5.85956 18 5.86311 18C5.86665 18 5.8702 18 5.87375 18C5.8773 18 5.88086 18 5.88441 18C5.88797 18 5.89152 18 5.89508 18C5.89864 18 5.9022 18 5.90576 18C5.90933 18 5.91289 18 5.91646 18C5.92003 18 5.9236 18 5.92717 18C5.93074 18 5.93431 18 5.93789 18C5.94146 18 5.94504 18 5.94862 18C5.9522 18 5.95578 18 5.95937 18C5.96295 18 5.96654 18 5.97012 18C5.97371 18 5.9773 18 5.9809 18C5.98449 18 5.98808 18 5.99168 18C5.99527 18 5.99887 18 6.00247 18C6.00607 18 6.00968 18 6.01328 18C6.01688 18 6.02049 18 6.0241 18C6.02771 18 6.03132 18 6.03493 18C6.03854 18 6.04216 18 6.04578 18C6.04939 18 6.05301 18 6.05663 18C6.06025 18 6.06388 18 6.0675 18C6.07113 18 6.07475 18 6.07838 18C6.08201 18 6.08564 18 6.08928 18C6.09291 18 6.09654 18 6.10018 18C6.10382 18 6.10746 18 6.1111 18C6.11474 18 6.11838 18 6.12203 18C6.12567 18 6.12932 18 6.13297 18C6.13662 18 6.14027 18 6.14393 18C6.14758 18 6.15123 18 6.15489 18C6.15855 18 6.16221 18 6.16587 18C6.16953 18 6.17319 18 6.17686 18C6.18053 18 6.18419 18 6.18786 18C6.19153 18 6.1952 18 6.19888 18C6.20255 18 6.20623 18 6.2099 18C6.21358 18 6.21726 18 6.22094 18C6.22462 18 6.22831 18 6.23199 18C6.23568 18 6.23936 18 6.24305 18C6.24674 18 6.25043 18 6.25413 18C6.25782 18 6.26152 18 6.26521 18C6.26891 18 6.27261 18 6.27631 18C6.28001 18 6.28371 18 6.28742 18C6.29113 18 6.29483 18 6.29854 18C6.30225 18 6.30596 18 6.30967 18C6.31339 18 6.3171 18 6.32082 18C6.32454 18 6.32825 18 6.33198 18C6.3357 18 6.33942 18 6.34314 18C6.34687 18 6.3506 18 6.35432 18C6.35805 18 6.36178 18 6.36552 18C6.36925 18 6.37298 18 6.37672 18C6.38046 18 6.38419 18 6.38793 18C6.39167 18 6.39542 18 6.39916 18C6.4029 18 6.40665 18 6.4104 18C6.41415 18 6.4179 18 6.42165 18C6.4254 18 6.42915 18 6.43291 18C6.43667 18 6.44042 18 6.44418 18C6.44794 18 6.4517 18 6.45547 18C6.45923 18 6.463 18 6.46676 18C6.47053 18 6.4743 18 6.47807 18C6.48184 18 6.48561 18 6.48939 18C6.49316 18 6.49694 18 6.50072 18C6.5045 18 6.50828 18 6.51206 18C6.51584 18 6.51963 18 6.52341 18C6.5272 18 6.53099 18 6.53478 18C6.53857 18 6.54236 18 6.54615 18C6.54995 18 6.55374 18 6.55754 18C6.56134 18 6.56514 18 6.56894 18C6.57274 18 6.57654 18 6.58035 18C6.58415 18 6.58796 18 6.59177 18C6.59558 18 6.59939 18 6.6032 18C6.60701 18 6.61083 18 6.61464 18C6.61846 18 6.62228 18 6.6261 18C6.62992 18 6.63374 18 6.63756 18C6.64139 18 6.64521 18 6.64904 18C6.65287 18 6.6567 18 6.66053 18C6.66436 18 6.66819 18 6.67203 18C6.67586 18 6.6797 18 6.68354 18C6.68738 18 6.69122 18 6.69506 18C6.6989 18 6.70275 18 6.70659 18C6.71044 18 6.71429 18 6.71814 18C6.72198 18 6.72584 18 6.72969 18C6.73354 18 6.7374 18 6.74125 18C6.74511 18 6.74897 18 6.75283 18C6.75669 18 6.76055 18 6.76442 18C6.76828 18 6.77215 18 6.77602 18C6.77988 18 6.78375 18 6.78763 18C6.7915 18 6.79537 18 6.79925 18C6.80312 18 6.807 18 6.81088 18C6.81475 18 6.81864 18 6.82252 18C6.8264 18 6.83028 18 6.83417 18C6.83806 18 6.84194 18 6.84583 18C6.84972 18 6.85361 18 6.85751 18C6.8614 18 6.8653 18 6.86919 18C6.87309 18 6.87699 18 6.88089 18C6.88479 18 6.88869 18 6.89259 18C6.8965 18 6.9004 18 6.90431 18C6.90822 18 6.91213 18 6.91604 18C6.91995 18 6.92386 18 6.92778 18C6.93169 18 6.93561 18 6.93953 18C6.94344 18 6.94736 18 6.95128 18C6.95521 18 6.95913 18 6.96305 18C6.96698 18 6.97091 18 6.97483 18C6.97876 18 6.98269 18 6.98663 18C6.99056 18 6.99449 18 6.99843 18C7.00236 18 7.0063 18 7.01024 18C7.01418 18 7.01812 18 7.02206 18C7.02601 18 7.02995 18 7.0339 18C7.03784 18 7.04179 18 7.04574 18C7.04969 18 7.05364 18 7.05759 18C7.06155 18 7.0655 18 7.06946 18C7.07341 18 7.07737 18 7.08133 18C7.08529 18 7.08925 18 7.09322 18C7.09718 18 7.10115 18 7.10511 18C7.10908 18 7.11305 18 7.11702 18C7.12099 18 7.12496 18 7.12893 18C7.13291 18 7.13688 18 7.14086 18C7.14484 18 7.14882 18 7.1528 18C7.15678 18 7.16076 18 7.16474 18C7.16873 18 7.17271 18 7.1767 18C7.18069 18 7.18468 18 7.18867 18C7.19266 18 7.19665 18 7.20064 18C7.20464 18 7.20863 18 7.21263 18C7.21663 18 7.22063 18 7.22463 18C7.22863 18 7.23263 18 7.23664 18C7.24064 18 7.24465 18 7.24866 18C7.25266 18 7.25667 18 7.26068 18C7.26469 18 7.26871 18 7.27272 18C7.27674 18 7.28075 18 7.28477 18C7.28879 18 7.29281 18 7.29683 18C7.30085 18 7.30487 18 7.30889 18C7.31292 18 7.31695 18 7.32097 18C7.325 18 7.32903 18 7.33306 18C7.33709 18 7.34112 18 7.34516 18C7.34919 18 7.35323 18 7.35727 18C7.3613 18 7.36534 18 7.36938 18C7.37342 18 7.37747 18 7.38151 18C7.38555 18 7.3896 18 7.39365 18C7.39769 18 7.40174 18 7.40579 18C7.40984 18 7.4139 18 7.41795 18C7.422 18 7.42606 18 7.43012 18C7.43417 18 7.43823 18 7.44229 18C7.44635 18 7.45042 18 7.45448 18C7.45854 18 7.46261 18 7.46667 18C7.47074 18 7.47481 18 7.47888 18C7.48295 18 7.48702 18 7.4911 18C7.49517 18 7.49924 18 7.50332 18C7.5074 18 7.51147 18 7.51555 18C7.51963 18 7.52371 18 7.5278 18C7.53188 18 7.53596 18 7.54005 18C7.54414 18 7.54822 18 7.55231 18C7.5564 18 7.56049 18 7.56459 18C7.56868 18 7.57277 18 7.57687 18C7.58096 18 7.58506 18 7.58916 18C7.59326 18 7.59736 18 7.60146 18C7.60556 18 7.60967 18 7.61377 18C7.61788 18 7.62198 18 7.62609 18C7.6302 18 7.63431 18 7.63842 18C7.64253 18 7.64664 18 7.65076 18C7.65487 18 7.65899 18 7.66311 18C7.66722 18 7.67134 18 7.67546 18C7.67958 18 7.68371 18 7.68783 18C7.69195 18 7.69608 18 7.70021 18C7.70433 18 7.70846 18 7.71259 18C7.71672 18 7.72085 18 7.72499 18C7.72912 18 7.73325 18 7.73739 18C7.74153 18 7.74566 18 7.7498 18C7.75394 18 7.75808 18 7.76222 18C7.76637 18 7.77051 18 7.77466 18C7.7788 18 7.78295 18 7.7871 18C7.79124 18 7.79539 18 7.79955 18C7.8037 18 7.80785 18 7.812 18C7.81616 18 7.82031 18 7.82447 18C7.82863 18 7.83279 18 7.83695 18C7.84111 18 7.84527 18 7.84943 18C7.8536 18 7.85776 18 7.86193 18C7.8661 18 7.87026 18 7.87443 18C7.8786 18 7.88277 18 7.88695 18C7.89112 18 7.89529 18 7.89947 18C7.90364 18 7.90782 18 7.912 18C7.91618 18 7.92036 18 7.92454 18C7.92872 18 7.9329 18 7.93709 18C7.94127 18 7.94546 18 7.94965 18C7.95383 18 7.95802 18 7.96221 18C7.9664 18 7.97059 18 7.97479 18C7.97898 18 7.98317 18 7.98737 18C7.99157 18 7.99576 18 7.99996 18C8.00416 18 8.00836 18 8.01257 18C8.01677 18 8.02097 18 8.02518 18C8.02938 18 8.03359 18 8.03779 18C8.042 18 8.04621 18 8.05042 18C8.05463 18 8.05885 18 8.06306 18C8.06727 18 8.07149 18 8.0757 18C8.07992 18 8.08414 18 8.08836 18C8.09258 18 8.0968 18 8.10102 18C8.10524 18 8.10947 18 8.11369 18C8.11792 18 8.12214 18 8.12637 18C8.1306 18 8.13483 18 8.13906 18C8.14329 18 8.14752 18 8.15176 18C8.15599 18 8.16022 18 8.16446 18C8.1687 18 8.17294 18 8.17718 18C8.18141 18 8.18566 18 8.1899 18C8.19414 18 8.19838 18 8.20263 18C8.20687 18 8.21112 18 8.21537 18C8.21961 18 8.22386 18 8.22811 18C8.23237 18 8.23662 18 8.24087 18C8.24512 18 8.24938 18 8.25363 18C8.25789 18 8.26215 18 8.26641 18C8.27067 18 8.27493 18 8.27919 18C8.28345 18 8.28771 18 8.29198 18C8.29624 18 8.30051 18 8.30478 18C8.30904 18 8.31331 18 8.31758 18C8.32185 18 8.32612 18 8.3304 18C8.33467 18 8.33894 18 8.34322 18C8.34749 18 8.35177 18 8.35605 18C8.36033 18 8.36461 18 8.36889 18C8.37317 18 8.37745 18 8.38173 18C8.38602 18 8.3903 18 8.39459 18C8.39888 18 8.40316 18 8.40745 18C8.41174 18 8.41603 18 8.42032 18C8.42462 18 8.42891 18 8.4332 18C8.4375 18 8.44179 18 8.44609 18C8.45039 18 8.45469 18 8.45899 18C8.46329 18 8.46759 18 8.47189 18C8.47619 18 8.4805 18 8.4848 18C8.48911 18 8.49341 18 8.49772 18C8.50203 18 8.50634 18 8.51065 18C8.51496 18 8.51927 18 8.52358 18C8.5279 18 8.53221 18 8.53653 18C8.54084 18 8.54516 18 8.54948 18C8.5538 18 8.55812 18 8.56244 18C8.56676 18 8.57108 18 8.5754 18C8.57973 18 8.58405 18 8.58838 18C8.5927 18 8.59703 18 8.60136 18C8.60569 18 8.61002 18 8.61435 18C8.61868 18 8.62301 18 8.62735 18C8.63168 18 8.63602 18 8.64035 18C8.64469 18 8.64903 18 8.65337 18C8.65771 18 8.66205 18 8.66639 18C8.67073 18 8.67507 18 8.67942 18C8.68376 18 8.68811 18 8.69245 18C8.6968 18 8.70115 18 8.7055 18C8.70985 18 8.7142 18 8.71855 18C8.7229 18 8.72726 18 8.73161 18C8.73596 18 8.74032 18 8.74468 18C8.74903 18 8.75339 18 8.75775 18C8.76211 18 8.76647 18 8.77083 18C8.7752 18 8.77956 18 8.78392 18C8.78829 18 8.79265 18 8.79702 18C8.80139 18 8.80576 18 8.81013 18C8.81449 18 8.81887 18 8.82324 18C8.82761 18 8.83198 18 8.83636 18C8.84073 18 8.84511 18 8.84948 18C8.85386 18 8.85824 18 8.86262 18C8.867 18 8.87138 18 8.87576 18C8.88014 18 8.88452 18 8.88891 18C8.89329 18 8.89768 18 8.90206 18C8.90645 18 8.91084 18 8.91523 18C8.91962 18 8.92401 18 8.9284 18C8.93279 18 8.93718 18 8.94158 18C8.94597 18 8.95037 18 8.95476 18C8.95916 18 8.96356 18 8.96795 18C8.97235 18 8.97675 18 8.98115 18C8.98556 18 8.98996 18 8.99436 18C8.99876 18 9.00317 18 9.00758 18C9.01198 18 9.01639 18 9.0208 18C9.0252 18 9.02961 18 9.03402 18C9.03844 18 9.04285 18 9.04726 18C9.05167 18 9.05609 18 9.0605 18C9.06492 18 9.06933 18 9.07375 18C9.07817 18 9.08259 18 9.08701 18C9.09143 18 9.09585 18 9.10027 18C9.10469 18 9.10912 18 9.11354 18C9.11797 18 9.12239 18 9.12682 18C9.13125 18 9.13568 18 9.1401 18C9.14453 18 9.14896 18 9.1534 18C9.15783 18 9.16226 18 9.16669 18C9.17113 18 9.17556 18 9.18 18C9.18444 18 9.18887 18 9.19331 18C9.19775 18 9.20219 18 9.20663 18C9.21107 18 9.21551 18 9.21996 18C9.2244 18 9.22884 18 9.23329 18C9.23773 18 9.24218 18 9.24663 18C9.25108 18 9.25552 18 9.25997 18C9.26442 18 9.26887 18 9.27333 18C9.27778 18 9.28223 18 9.28669 18C9.29114 18 9.2956 18 9.30005 18C9.30451 18 9.30897 18 9.31343 18C9.31788 18 9.32234 18 9.3268 18C9.33127 18 9.33573 18 9.34019 18C9.34465 18 9.34912 18 9.35358 18C9.35805 18 9.36251 18 9.36698 18C9.37145 18 9.37592 18 9.38039 18C9.38486 18 9.38933 18 9.3938 18C9.39827 18 9.40275 18 9.40722 18C9.41169 18 9.41617 18 9.42064 18C9.42512 18 9.4296 18 9.43408 18C9.43856 18 9.44303 18 9.44752 18C9.452 18 9.45648 18 9.46096 18C9.46544 18 9.46993 18 9.47441 18C9.4789 18 9.48338 18 9.48787 18C9.49236 18 9.49684 18 9.50133 18C9.50582 18 9.51031 18 9.5148 18C9.51929 18 9.52379 18 9.52828 18C9.53277 18 9.53727 18 9.54176 18C9.54626 18 9.55075 18 9.55525 18C9.55975 18 9.56425 18 9.56875 18C9.57325 18 9.57775 18 9.58225 18C9.58675 18 9.59125 18 9.59576 18C9.60026 18 9.60477 18 9.60927 18C9.61378 18 9.61828 18 9.62279 18C9.6273 18 9.63181 18 9.63632 18C9.64083 18 9.64534 18 9.64985 18C9.65436 18 9.65888 18 9.66339 18C9.6679 18 9.67242 18 9.67693 18C9.68145 18 9.68597 18 9.69049 18C9.695 18 9.69952 18 9.70404 18C9.70856 18 9.71308 18 9.71761 18C9.72213 18 9.72665 18 9.73117 18C9.7357 18 9.74022 18 9.74475 18C9.74928 18 9.7538 18 9.75833 18C9.76286 18 9.76739 18 9.77192 18C9.77645 18 9.78098 18 9.78551 18C9.79004 18 9.79458 18 9.79911 18C9.80364 18 9.80818 18 9.81272 18C9.81725 18 9.82179 18 9.82633 18C9.83086 18 9.8354 18 9.83994 18C9.84448 18 9.84902 18 9.85356 18C9.85811 18 9.86265 18 9.86719 18C9.87174 18 9.87628 18 9.88083 18C9.88537 18 9.88992 18 9.89447 18C9.89901 18 9.90356 18 9.90811 18C9.91266 18 9.91721 18 9.92176 18C9.92631 18 9.93087 18 9.93542 18C9.93997 18 9.94453 18 9.94908 18C9.95364 18 9.95819 18 9.96275 18C9.96731 18 9.97187 18 9.97642 18C9.98098 18 9.98554 18 9.9901 18C9.99466 18 9.99923 18 10.0038 18C10.0084 18 10.0129 18 10.0175 18C10.022 18 10.0266 18 10.0312 18C10.0357 18 10.0403 18 10.0449 18C10.0494 18 10.054 18 10.0586 18C10.0632 18 10.0677 18 10.0723 18C10.0769 18 10.0814 18 10.086 18C10.0906 18 10.0952 18 10.0997 18C10.1043 18 10.1089 18 10.1135 18C10.118 18 10.1226 18 10.1272 18C10.1318 18 10.1364 18 10.1409 18C10.1455 18 10.1501 18 10.1547 18C10.1593 18 10.1639 18 10.1684 18C10.173 18 10.1776 18 10.1822 18C10.1868 18 10.1914 18 10.196 18C10.2005 18 10.2051 18 10.2097 18C10.2143 18 10.2189 18 10.2235 18C10.2281 18 10.2327 18 10.2373 18C10.2419 18 10.2465 18 10.2511 18C10.2556 18 10.2602 18 10.2648 18C10.2694 18 10.274 18 10.2786 18C10.2832 18 10.2878 18 10.2924 18C10.297 18 10.3016 18 10.3062 18C10.3108 18 10.3154 18 10.32 18C10.3246 18 10.3292 18 10.3339 18C10.3385 18 10.3431 18 10.3477 18C10.3523 18 10.3569 18 10.3615 18C10.3661 18 10.3707 18 10.3753 18C10.3799 18 10.3845 18 10.3892 18C10.3938 18 10.3984 18 10.403 18C10.4076 18 10.4122 18 10.4168 18C10.4215 18 10.4261 18 10.4307 18C10.4353 18 10.4399 18 10.4445 18C10.4492 18 10.4538 18 10.4584 18C10.463 18 10.4676 18 10.4723 18C10.4769 18 10.4815 18 10.4861 18C10.4908 18 10.4954 18 10.5 18V17ZM8.5 21H9.5V20H8.5V21ZM10.0257 17.3419L9.02566 20.3419L9.97434 20.6581L10.9743 17.6581L10.0257 17.3419ZM9.5 21H14.5V20H9.5V21ZM14.5 21H15.5V20H14.5V21ZM19.5 17C19.4965 17 19.4929 17 19.4893 17C19.4858 17 19.4822 17 19.4787 17C19.4751 17 19.4715 17 19.468 17C19.4644 17 19.4608 17 19.4573 17C19.4537 17 19.4501 17 19.4466 17C19.443 17 19.4394 17 19.4359 17C19.4323 17 19.4287 17 19.4252 17C19.4216 17 19.418 17 19.4144 17C19.4109 17 19.4073 17 19.4037 17C19.4001 17 19.3966 17 19.393 17C19.3894 17 19.3858 17 19.3822 17C19.3787 17 19.3751 17 19.3715 17C19.3679 17 19.3643 17 19.3608 17C19.3572 17 19.3536 17 19.35 17C19.3464 17 19.3428 17 19.3392 17C19.3356 17 19.3321 17 19.3285 17C19.3249 17 19.3213 17 19.3177 17C19.3141 17 19.3105 17 19.3069 17C19.3033 17 19.2997 17 19.2961 17C19.2925 17 19.2889 17 19.2853 17C19.2817 17 19.2781 17 19.2745 17C19.2709 17 19.2673 17 19.2637 17C19.2601 17 19.2565 17 19.2529 17C19.2493 17 19.2457 17 19.2421 17C19.2385 17 19.2349 17 19.2313 17C19.2277 17 19.2241 17 19.2204 17C19.2168 17 19.2132 17 19.2096 17C19.206 17 19.2024 17 19.1988 17C19.1952 17 19.1915 17 19.1879 17C19.1843 17 19.1807 17 19.1771 17C19.1735 17 19.1698 17 19.1662 17C19.1626 17 19.159 17 19.1554 17C19.1517 17 19.1481 17 19.1445 17C19.1409 17 19.1372 17 19.1336 17C19.13 17 19.1264 17 19.1227 17C19.1191 17 19.1155 17 19.1118 17C19.1082 17 19.1046 17 19.1009 17C19.0973 17 19.0937 17 19.09 17C19.0864 17 19.0828 17 19.0791 17C19.0755 17 19.0719 17 19.0682 17C19.0646 17 19.061 17 19.0573 17C19.0537 17 19.05 17 19.0464 17C19.0428 17 19.0391 17 19.0355 17C19.0318 17 19.0282 17 19.0245 17C19.0209 17 19.0172 17 19.0136 17C19.0099 17 19.0063 17 19.0027 17C18.999 17 18.9954 17 18.9917 17C18.988 17 18.9844 17 18.9807 17C18.9771 17 18.9734 17 18.9698 17C18.9661 17 18.9625 17 18.9588 17C18.9552 17 18.9515 17 18.9478 17C18.9442 17 18.9405 17 18.9369 17C18.9332 17 18.9295 17 18.9259 17C18.9222 17 18.9186 17 18.9149 17C18.9112 17 18.9076 17 18.9039 17C18.9002 17 18.8966 17 18.8929 17C18.8892 17 18.8856 17 18.8819 17C18.8782 17 18.8745 17 18.8709 17C18.8672 17 18.8635 17 18.8599 17C18.8562 17 18.8525 17 18.8488 17C18.8452 17 18.8415 17 18.8378 17C18.8341 17 18.8305 17 18.8268 17C18.8231 17 18.8194 17 18.8157 17C18.8121 17 18.8084 17 18.8047 17C18.801 17 18.7973 17 18.7936 17C18.79 17 18.7863 17 18.7826 17C18.7789 17 18.7752 17 18.7715 17C18.7678 17 18.7641 17 18.7605 17C18.7568 17 18.7531 17 18.7494 17C18.7457 17 18.742 17 18.7383 17C18.7346 17 18.7309 17 18.7272 17C18.7235 17 18.7198 17 18.7161 17C18.7124 17 18.7087 17 18.705 17C18.7013 17 18.6976 17 18.6939 17C18.6902 17 18.6865 17 18.6828 17C18.6791 17 18.6754 17 18.6717 17C18.668 17 18.6643 17 18.6606 17C18.6569 17 18.6532 17 18.6495 17C18.6458 17 18.6421 17 18.6384 17C18.6347 17 18.6309 17 18.6272 17C18.6235 17 18.6198 17 18.6161 17C18.6124 17 18.6087 17 18.605 17C18.6012 17 18.5975 17 18.5938 17C18.5901 17 18.5864 17 18.5827 17C18.5789 17 18.5752 17 18.5715 17C18.5678 17 18.5641 17 18.5603 17C18.5566 17 18.5529 17 18.5492 17C18.5455 17 18.5417 17 18.538 17C18.5343 17 18.5306 17 18.5268 17C18.5231 17 18.5194 17 18.5156 17C18.5119 17 18.5082 17 18.5045 17C18.5007 17 18.497 17 18.4933 17C18.4895 17 18.4858 17 18.4821 17C18.4783 17 18.4746 17 18.4709 17C18.4671 17 18.4634 17 18.4597 17C18.4559 17 18.4522 17 18.4484 17C18.4447 17 18.441 17 18.4372 17C18.4335 17 18.4297 17 18.426 17C18.4223 17 18.4185 17 18.4148 17C18.411 17 18.4073 17 18.4035 17C18.3998 17 18.3961 17 18.3923 17C18.3886 17 18.3848 17 18.3811 17C18.3773 17 18.3736 17 18.3698 17C18.3661 17 18.3623 17 18.3586 17C18.3548 17 18.3511 17 18.3473 17C18.3435 17 18.3398 17 18.336 17C18.3323 17 18.3285 17 18.3248 17C18.321 17 18.3173 17 18.3135 17C18.3097 17 18.306 17 18.3022 17C18.2985 17 18.2947 17 18.2909 17C18.2872 17 18.2834 17 18.2797 17C18.2759 17 18.2721 17 18.2684 17C18.2646 17 18.2608 17 18.2571 17C18.2533 17 18.2495 17 18.2458 17C18.242 17 18.2382 17 18.2345 17C18.2307 17 18.2269 17 18.2231 17C18.2194 17 18.2156 17 18.2118 17C18.2081 17 18.2043 17 18.2005 17C18.1967 17 18.193 17 18.1892 17C18.1854 17 18.1816 17 18.1779 17C18.1741 17 18.1703 17 18.1665 17C18.1627 17 18.159 17 18.1552 17C18.1514 17 18.1476 17 18.1438 17C18.1401 17 18.1363 17 18.1325 17C18.1287 17 18.1249 17 18.1211 17C18.1173 17 18.1136 17 18.1098 17C18.106 17 18.1022 17 18.0984 17C18.0946 17 18.0908 17 18.087 17C18.0833 17 18.0795 17 18.0757 17C18.0719 17 18.0681 17 18.0643 17C18.0605 17 18.0567 17 18.0529 17C18.0491 17 18.0453 17 18.0415 17C18.0377 17 18.0339 17 18.0301 17C18.0263 17 18.0225 17 18.0187 17C18.0149 17 18.0111 17 18.0073 17C18.0035 17 17.9997 17 17.9959 17C17.9921 17 17.9883 17 17.9845 17C17.9807 17 17.9769 17 17.9731 17C17.9693 17 17.9655 17 17.9617 17C17.9579 17 17.9541 17 17.9503 17C17.9465 17 17.9427 17 17.9388 17C17.935 17 17.9312 17 17.9274 17C17.9236 17 17.9198 17 17.916 17C17.9122 17 17.9083 17 17.9045 17C17.9007 17 17.8969 17 17.8931 17C17.8893 17 17.8855 17 17.8816 17C17.8778 17 17.874 17 17.8702 17C17.8664 17 17.8625 17 17.8587 17C17.8549 17 17.8511 17 17.8473 17C17.8434 17 17.8396 17 17.8358 17C17.832 17 17.8282 17 17.8243 17C17.8205 17 17.8167 17 17.8129 17C17.809 17 17.8052 17 17.8014 17C17.7975 17 17.7937 17 17.7899 17C17.7861 17 17.7822 17 17.7784 17C17.7746 17 17.7707 17 17.7669 17C17.7631 17 17.7592 17 17.7554 17C17.7516 17 17.7477 17 17.7439 17C17.7401 17 17.7362 17 17.7324 17C17.7286 17 17.7247 17 17.7209 17C17.7171 17 17.7132 17 17.7094 17C17.7055 17 17.7017 17 17.6979 17C17.694 17 17.6902 17 17.6863 17C17.6825 17 17.6787 17 17.6748 17C17.671 17 17.6671 17 17.6633 17C17.6594 17 17.6556 17 17.6518 17C17.6479 17 17.6441 17 17.6402 17C17.6364 17 17.6325 17 17.6287 17C17.6248 17 17.621 17 17.6171 17C17.6133 17 17.6094 17 17.6056 17C17.6017 17 17.5979 17 17.594 17C17.5902 17 17.5863 17 17.5825 17C17.5786 17 17.5747 17 17.5709 17C17.567 17 17.5632 17 17.5593 17C17.5555 17 17.5516 17 17.5478 17C17.5439 17 17.54 17 17.5362 17C17.5323 17 17.5285 17 17.5246 17C17.5207 17 17.5169 17 17.513 17C17.5092 17 17.5053 17 17.5014 17C17.4976 17 17.4937 17 17.4898 17C17.486 17 17.4821 17 17.4782 17C17.4744 17 17.4705 17 17.4666 17C17.4628 17 17.4589 17 17.455 17C17.4512 17 17.4473 17 17.4434 17C17.4396 17 17.4357 17 17.4318 17C17.4279 17 17.4241 17 17.4202 17C17.4163 17 17.4125 17 17.4086 17C17.4047 17 17.4008 17 17.397 17C17.3931 17 17.3892 17 17.3853 17C17.3815 17 17.3776 17 17.3737 17C17.3698 17 17.3659 17 17.3621 17C17.3582 17 17.3543 17 17.3504 17C17.3465 17 17.3427 17 17.3388 17C17.3349 17 17.331 17 17.3271 17C17.3233 17 17.3194 17 17.3155 17C17.3116 17 17.3077 17 17.3038 17C17.3 17 17.2961 17 17.2922 17C17.2883 17 17.2844 17 17.2805 17C17.2766 17 17.2727 17 17.2689 17C17.265 17 17.2611 17 17.2572 17C17.2533 17 17.2494 17 17.2455 17C17.2416 17 17.2377 17 17.2338 17C17.2299 17 17.2261 17 17.2222 17C17.2183 17 17.2144 17 17.2105 17C17.2066 17 17.2027 17 17.1988 17C17.1949 17 17.191 17 17.1871 17C17.1832 17 17.1793 17 17.1754 17C17.1715 17 17.1676 17 17.1637 17C17.1598 17 17.1559 17 17.152 17C17.1481 17 17.1442 17 17.1403 17C17.1364 17 17.1325 17 17.1286 17C17.1247 17 17.1208 17 17.1169 17C17.113 17 17.1091 17 17.1052 17C17.1013 17 17.0973 17 17.0934 17C17.0895 17 17.0856 17 17.0817 17C17.0778 17 17.0739 17 17.07 17C17.0661 17 17.0622 17 17.0583 17C17.0544 17 17.0504 17 17.0465 17C17.0426 17 17.0387 17 17.0348 17C17.0309 17 17.027 17 17.0231 17C17.0191 17 17.0152 17 17.0113 17C17.0074 17 17.0035 17 16.9996 17C16.9956 17 16.9917 17 16.9878 17C16.9839 17 16.98 17 16.9761 17C16.9721 17 16.9682 17 16.9643 17C16.9604 17 16.9565 17 16.9525 17C16.9486 17 16.9447 17 16.9408 17C16.9369 17 16.9329 17 16.929 17C16.9251 17 16.9212 17 16.9172 17C16.9133 17 16.9094 17 16.9055 17C16.9015 17 16.8976 17 16.8937 17C16.8898 17 16.8858 17 16.8819 17C16.878 17 16.874 17 16.8701 17C16.8662 17 16.8623 17 16.8583 17C16.8544 17 16.8505 17 16.8465 17C16.8426 17 16.8387 17 16.8347 17C16.8308 17 16.8269 17 16.8229 17C16.819 17 16.8151 17 16.8111 17C16.8072 17 16.8033 17 16.7993 17C16.7954 17 16.7915 17 16.7875 17C16.7035 17 16.6825 17 16.5982 17C16.0922 17 15.5781 17 15.0603 17C14.974 17 14.9523 17 14.8659 17C14.8618 17 14.8578 17 14.8537 17C14.8497 17 14.8456 17 14.8416 17C14.8375 17 14.8335 17 14.8294 17C14.8254 17 14.8213 17 14.8173 17C14.8132 17 14.8092 17 14.8051 17C14.801 17 14.797 17 14.7929 17C14.7889 17 14.7848 17 14.7808 17C14.7767 17 14.7727 17 14.7686 17C14.7646 17 14.7605 17 14.7564 17C14.7524 17 14.7483 17 14.7443 17C14.7402 17 14.7362 17 14.7321 17C14.728 17 14.724 17 14.7199 17C14.7159 17 14.7118 17 14.7078 17C14.7037 17 14.6996 17 14.6956 17C14.6915 17 14.6875 17 14.6834 17C14.6794 17 14.6753 17 14.6712 17C14.6672 17 14.6631 17 14.6591 17C14.655 17 14.651 17 14.6469 17C14.6428 17 14.6388 17 14.6347 17C14.6307 17 14.6266 17 14.6225 17C14.6185 17 14.6144 17 14.6104 17C14.6063 17 14.6022 17 14.5982 17C14.5941 17 14.5901 17 14.586 17C14.5819 17 14.5779 17 14.5738 17C14.5698 17 14.5657 17 14.5616 17C14.5576 17 14.5535 17 14.5495 17C14.5454 17 14.5413 17 14.5373 17C14.5332 17 14.5292 17 14.5251 17C14.521 17 14.517 17 14.5129 17C14.5088 17 14.5048 17 14.5007 17C14.4967 17 14.4926 17 14.4885 17C14.4845 17 14.4804 17 14.4763 17C14.4723 17 14.4682 17 14.4642 17C14.4601 17 14.456 17 14.452 17C14.4479 17 14.4438 17 14.4398 17C14.4357 17 14.4316 17 14.4276 17C14.4235 17 14.4195 17 14.4154 17C14.4113 17 14.4073 17 14.4032 17C14.3991 17 14.3951 17 14.391 17C14.3869 17 14.3829 17 14.3788 17C14.3748 17 14.3707 17 14.3666 17C14.3626 17 14.3585 17 14.3544 17C14.3504 17 14.3463 17 14.3422 17C14.3382 17 14.3341 17 14.33 17C14.326 17 14.3219 17 14.3178 17C14.3138 17 14.3097 17 14.3056 17C14.3016 17 14.2975 17 14.2934 17C14.2894 17 14.2853 17 14.2812 17C14.2772 17 14.2731 17 14.2691 17C14.265 17 14.2609 17 14.2569 17C14.2528 17 14.2487 17 14.2447 17C14.2406 17 14.2365 17 14.2325 17C14.2284 17 14.2243 17 14.2203 17C14.2162 17 14.2121 17 14.208 17C14.204 17 14.1999 17 14.1958 17C14.1918 17 14.1877 17 14.1836 17C14.1796 17 14.1755 17 14.1714 17C14.1674 17 14.1633 17 14.1592 17C14.1552 17 14.1511 17 14.147 17C14.143 17 14.1389 17 14.1348 17C14.1308 17 14.1267 17 14.1226 17C14.1186 17 14.1145 17 14.1104 17C14.1064 17 14.1023 17 14.0982 17C14.0942 17 14.0901 17 14.086 17C14.0819 17 14.0779 17 14.0738 17C14.0697 17 14.0657 17 14.0616 17C14.0575 17 14.0535 17 14.0494 17C14.0453 17 14.0413 17 14.0372 17C14.0331 17 14.0291 17 14.025 17C14.0209 17 14.0168 17 14.0128 17C14.0087 17 14.0046 17 14.0006 17C13.9965 17 13.9924 17 13.9884 17C13.9843 17 13.9802 17 13.9762 17C13.9721 17 13.968 17 13.9639 17C13.9599 17 13.9558 17 13.9517 17C13.9477 17 13.9436 17 13.9395 17C13.9355 17 13.9314 17 13.9273 17C13.9233 17 13.9192 17 13.9151 17C13.911 17 13.907 17 13.9029 17C13.8988 17 13.8948 17 13.8907 17C13.8866 17 13.8826 17 13.8785 17C13.8744 17 13.8703 17 13.8663 17C13.8622 17 13.8581 17 13.8541 17C13.85 17 13.8459 17 13.8419 17C13.8378 17 13.8337 17 13.8296 17C13.8256 17 13.8215 17 13.8174 17C13.8134 17 13.8093 17 13.8052 17C13.8012 17 13.7971 17 13.793 17C13.7889 17 13.7849 17 13.7808 17C13.7767 17 13.7727 17 13.7686 17C13.7645 17 13.7605 17 13.7564 17C13.7523 17 13.7482 17 13.7442 17C13.7401 17 13.736 17 13.732 17C13.7279 17 13.7238 17 13.7198 17C13.7157 17 13.7116 17 13.7075 17C13.7035 17 13.6994 17 13.6953 17C13.6913 17 13.6872 17 13.6831 17C13.6791 17 13.675 17 13.6709 17C13.6669 17 13.6628 17 13.6587 17C13.6546 17 13.6506 17 13.6465 17C13.6424 17 13.6384 17 13.6343 17C13.6302 17 13.6262 17 13.6221 17C13.618 17 13.6139 17 13.6099 17C13.6058 17 13.6017 17 13.5977 17C13.5936 17 13.5895 17 13.5855 17C13.5814 17 13.5773 17 13.5732 17C13.5692 17 13.5651 17 13.561 17C13.557 17 13.5529 17 13.5488 17C13.5448 17 13.5407 17 13.5366 17C13.5326 17 13.5285 17 13.5244 17C13.5203 17 13.5163 17 13.5122 17C13.5081 17 13.5041 17 13.5 17V18C13.5041 18 13.5081 18 13.5122 18C13.5163 18 13.5203 18 13.5244 18C13.5285 18 13.5326 18 13.5366 18C13.5407 18 13.5448 18 13.5488 18C13.5529 18 13.557 18 13.561 18C13.5651 18 13.5692 18 13.5732 18C13.5773 18 13.5814 18 13.5855 18C13.5895 18 13.5936 18 13.5977 18C13.6017 18 13.6058 18 13.6099 18C13.6139 18 13.618 18 13.6221 18C13.6262 18 13.6302 18 13.6343 18C13.6384 18 13.6424 18 13.6465 18C13.6506 18 13.6546 18 13.6587 18C13.6628 18 13.6669 18 13.6709 18C13.675 18 13.6791 18 13.6831 18C13.6872 18 13.6913 18 13.6953 18C13.6994 18 13.7035 18 13.7075 18C13.7116 18 13.7157 18 13.7198 18C13.7238 18 13.7279 18 13.732 18C13.736 18 13.7401 18 13.7442 18C13.7482 18 13.7523 18 13.7564 18C13.7605 18 13.7645 18 13.7686 18C13.7727 18 13.7767 18 13.7808 18C13.7849 18 13.7889 18 13.793 18C13.7971 18 13.8012 18 13.8052 18C13.8093 18 13.8134 18 13.8174 18C13.8215 18 13.8256 18 13.8296 18C13.8337 18 13.8378 18 13.8419 18C13.8459 18 13.85 18 13.8541 18C13.8581 18 13.8622 18 13.8663 18C13.8703 18 13.8744 18 13.8785 18C13.8826 18 13.8866 18 13.8907 18C13.8948 18 13.8988 18 13.9029 18C13.907 18 13.911 18 13.9151 18C13.9192 18 13.9233 18 13.9273 18C13.9314 18 13.9355 18 13.9395 18C13.9436 18 13.9477 18 13.9517 18C13.9558 18 13.9599 18 13.9639 18C13.968 18 13.9721 18 13.9762 18C13.9802 18 13.9843 18 13.9884 18C13.9924 18 13.9965 18 14.0006 18C14.0046 18 14.0087 18 14.0128 18C14.0168 18 14.0209 18 14.025 18C14.0291 18 14.0331 18 14.0372 18C14.0413 18 14.0453 18 14.0494 18C14.0535 18 14.0575 18 14.0616 18C14.0657 18 14.0697 18 14.0738 18C14.0779 18 14.0819 18 14.086 18C14.0901 18 14.0942 18 14.0982 18C14.1023 18 14.1064 18 14.1104 18C14.1145 18 14.1186 18 14.1226 18C14.1267 18 14.1308 18 14.1348 18C14.1389 18 14.143 18 14.147 18C14.1511 18 14.1552 18 14.1592 18C14.1633 18 14.1674 18 14.1714 18C14.1755 18 14.1796 18 14.1836 18C14.1877 18 14.1918 18 14.1958 18C14.1999 18 14.204 18 14.208 18C14.2121 18 14.2162 18 14.2203 18C14.2243 18 14.2284 18 14.2325 18C14.2365 18 14.2406 18 14.2447 18C14.2487 18 14.2528 18 14.2569 18C14.2609 18 14.265 18 14.2691 18C14.2731 18 14.2772 18 14.2812 18C14.2853 18 14.2894 18 14.2934 18C14.2975 18 14.3016 18 14.3056 18C14.3097 18 14.3138 18 14.3178 18C14.3219 18 14.326 18 14.33 18C14.3341 18 14.3382 18 14.3422 18C14.3463 18 14.3504 18 14.3544 18C14.3585 18 14.3626 18 14.3666 18C14.3707 18 14.3748 18 14.3788 18C14.3829 18 14.3869 18 14.391 18C14.3951 18 14.3991 18 14.4032 18C14.4073 18 14.4113 18 14.4154 18C14.4195 18 14.4235 18 14.4276 18C14.4316 18 14.4357 18 14.4398 18C14.4438 18 14.4479 18 14.452 18C14.456 18 14.4601 18 14.4642 18C14.4682 18 14.4723 18 14.4763 18C14.4804 18 14.4845 18 14.4885 18C14.4926 18 14.4967 18 14.5007 18C14.5048 18 14.5088 18 14.5129 18C14.517 18 14.521 18 14.5251 18C14.5292 18 14.5332 18 14.5373 18C14.5413 18 14.5454 18 14.5495 18C14.5535 18 14.5576 18 14.5616 18C14.5657 18 14.5698 18 14.5738 18C14.5779 18 14.5819 18 14.586 18C14.5901 18 14.5941 18 14.5982 18C14.6022 18 14.6063 18 14.6104 18C14.6144 18 14.6185 18 14.6225 18C14.6266 18 14.6307 18 14.6347 18C14.6388 18 14.6428 18 14.6469 18C14.651 18 14.655 18 14.6591 18C14.6631 18 14.6672 18 14.6712 18C14.6753 18 14.6794 18 14.6834 18C14.6875 18 14.6915 18 14.6956 18C14.6996 18 14.7037 18 14.7078 18C14.7118 18 14.7159 18 14.7199 18C14.724 18 14.728 18 14.7321 18C14.7362 18 14.7402 18 14.7443 18C14.7483 18 14.7524 18 14.7564 18C14.7605 18 14.7646 18 14.7686 18C14.7727 18 14.7767 18 14.7808 18C14.7848 18 14.7889 18 14.7929 18C14.797 18 14.801 18 14.8051 18C14.8092 18 14.8132 18 14.8173 18C14.8213 18 14.8254 18 14.8294 18C14.8335 18 14.8375 18 14.8416 18C14.8456 18 14.8497 18 14.8537 18C14.8578 18 14.8618 18 14.8659 18C14.9523 18 14.974 18 15.0603 18C15.5781 18 16.0922 18 16.5982 18C16.6825 18 16.7035 18 16.7875 18C16.7915 18 16.7954 18 16.7993 18C16.8033 18 16.8072 18 16.8111 18C16.8151 18 16.819 18 16.8229 18C16.8269 18 16.8308 18 16.8347 18C16.8387 18 16.8426 18 16.8465 18C16.8505 18 16.8544 18 16.8583 18C16.8623 18 16.8662 18 16.8701 18C16.874 18 16.878 18 16.8819 18C16.8858 18 16.8898 18 16.8937 18C16.8976 18 16.9015 18 16.9055 18C16.9094 18 16.9133 18 16.9172 18C16.9212 18 16.9251 18 16.929 18C16.9329 18 16.9369 18 16.9408 18C16.9447 18 16.9486 18 16.9525 18C16.9565 18 16.9604 18 16.9643 18C16.9682 18 16.9721 18 16.9761 18C16.98 18 16.9839 18 16.9878 18C16.9917 18 16.9956 18 16.9996 18C17.0035 18 17.0074 18 17.0113 18C17.0152 18 17.0191 18 17.0231 18C17.027 18 17.0309 18 17.0348 18C17.0387 18 17.0426 18 17.0465 18C17.0504 18 17.0544 18 17.0583 18C17.0622 18 17.0661 18 17.07 18C17.0739 18 17.0778 18 17.0817 18C17.0856 18 17.0895 18 17.0934 18C17.0973 18 17.1013 18 17.1052 18C17.1091 18 17.113 18 17.1169 18C17.1208 18 17.1247 18 17.1286 18C17.1325 18 17.1364 18 17.1403 18C17.1442 18 17.1481 18 17.152 18C17.1559 18 17.1598 18 17.1637 18C17.1676 18 17.1715 18 17.1754 18C17.1793 18 17.1832 18 17.1871 18C17.191 18 17.1949 18 17.1988 18C17.2027 18 17.2066 18 17.2105 18C17.2144 18 17.2183 18 17.2222 18C17.2261 18 17.2299 18 17.2338 18C17.2377 18 17.2416 18 17.2455 18C17.2494 18 17.2533 18 17.2572 18C17.2611 18 17.265 18 17.2689 18C17.2727 18 17.2766 18 17.2805 18C17.2844 18 17.2883 18 17.2922 18C17.2961 18 17.3 18 17.3038 18C17.3077 18 17.3116 18 17.3155 18C17.3194 18 17.3233 18 17.3271 18C17.331 18 17.3349 18 17.3388 18C17.3427 18 17.3465 18 17.3504 18C17.3543 18 17.3582 18 17.3621 18C17.3659 18 17.3698 18 17.3737 18C17.3776 18 17.3815 18 17.3853 18C17.3892 18 17.3931 18 17.397 18C17.4008 18 17.4047 18 17.4086 18C17.4125 18 17.4163 18 17.4202 18C17.4241 18 17.4279 18 17.4318 18C17.4357 18 17.4396 18 17.4434 18C17.4473 18 17.4512 18 17.455 18C17.4589 18 17.4628 18 17.4666 18C17.4705 18 17.4744 18 17.4782 18C17.4821 18 17.486 18 17.4898 18C17.4937 18 17.4976 18 17.5014 18C17.5053 18 17.5092 18 17.513 18C17.5169 18 17.5207 18 17.5246 18C17.5285 18 17.5323 18 17.5362 18C17.54 18 17.5439 18 17.5478 18C17.5516 18 17.5555 18 17.5593 18C17.5632 18 17.567 18 17.5709 18C17.5747 18 17.5786 18 17.5825 18C17.5863 18 17.5902 18 17.594 18C17.5979 18 17.6017 18 17.6056 18C17.6094 18 17.6133 18 17.6171 18C17.621 18 17.6248 18 17.6287 18C17.6325 18 17.6364 18 17.6402 18C17.6441 18 17.6479 18 17.6518 18C17.6556 18 17.6594 18 17.6633 18C17.6671 18 17.671 18 17.6748 18C17.6787 18 17.6825 18 17.6863 18C17.6902 18 17.694 18 17.6979 18C17.7017 18 17.7055 18 17.7094 18C17.7132 18 17.7171 18 17.7209 18C17.7247 18 17.7286 18 17.7324 18C17.7362 18 17.7401 18 17.7439 18C17.7477 18 17.7516 18 17.7554 18C17.7592 18 17.7631 18 17.7669 18C17.7707 18 17.7746 18 17.7784 18C17.7822 18 17.7861 18 17.7899 18C17.7937 18 17.7975 18 17.8014 18C17.8052 18 17.809 18 17.8129 18C17.8167 18 17.8205 18 17.8243 18C17.8282 18 17.832 18 17.8358 18C17.8396 18 17.8434 18 17.8473 18C17.8511 18 17.8549 18 17.8587 18C17.8625 18 17.8664 18 17.8702 18C17.874 18 17.8778 18 17.8816 18C17.8855 18 17.8893 18 17.8931 18C17.8969 18 17.9007 18 17.9045 18C17.9083 18 17.9122 18 17.916 18C17.9198 18 17.9236 18 17.9274 18C17.9312 18 17.935 18 17.9388 18C17.9427 18 17.9465 18 17.9503 18C17.9541 18 17.9579 18 17.9617 18C17.9655 18 17.9693 18 17.9731 18C17.9769 18 17.9807 18 17.9845 18C17.9883 18 17.9921 18 17.9959 18C17.9997 18 18.0035 18 18.0073 18C18.0111 18 18.0149 18 18.0187 18C18.0225 18 18.0263 18 18.0301 18C18.0339 18 18.0377 18 18.0415 18C18.0453 18 18.0491 18 18.0529 18C18.0567 18 18.0605 18 18.0643 18C18.0681 18 18.0719 18 18.0757 18C18.0795 18 18.0833 18 18.087 18C18.0908 18 18.0946 18 18.0984 18C18.1022 18 18.106 18 18.1098 18C18.1136 18 18.1173 18 18.1211 18C18.1249 18 18.1287 18 18.1325 18C18.1363 18 18.1401 18 18.1438 18C18.1476 18 18.1514 18 18.1552 18C18.159 18 18.1627 18 18.1665 18C18.1703 18 18.1741 18 18.1779 18C18.1816 18 18.1854 18 18.1892 18C18.193 18 18.1967 18 18.2005 18C18.2043 18 18.2081 18 18.2118 18C18.2156 18 18.2194 18 18.2231 18C18.2269 18 18.2307 18 18.2345 18C18.2382 18 18.242 18 18.2458 18C18.2495 18 18.2533 18 18.2571 18C18.2608 18 18.2646 18 18.2684 18C18.2721 18 18.2759 18 18.2797 18C18.2834 18 18.2872 18 18.2909 18C18.2947 18 18.2985 18 18.3022 18C18.306 18 18.3097 18 18.3135 18C18.3173 18 18.321 18 18.3248 18C18.3285 18 18.3323 18 18.336 18C18.3398 18 18.3435 18 18.3473 18C18.3511 18 18.3548 18 18.3586 18C18.3623 18 18.3661 18 18.3698 18C18.3736 18 18.3773 18 18.3811 18C18.3848 18 18.3886 18 18.3923 18C18.3961 18 18.3998 18 18.4035 18C18.4073 18 18.411 18 18.4148 18C18.4185 18 18.4223 18 18.426 18C18.4297 18 18.4335 18 18.4372 18C18.441 18 18.4447 18 18.4484 18C18.4522 18 18.4559 18 18.4597 18C18.4634 18 18.4671 18 18.4709 18C18.4746 18 18.4783 18 18.4821 18C18.4858 18 18.4895 18 18.4933 18C18.497 18 18.5007 18 18.5045 18C18.5082 18 18.5119 18 18.5156 18C18.5194 18 18.5231 18 18.5268 18C18.5306 18 18.5343 18 18.538 18C18.5417 18 18.5455 18 18.5492 18C18.5529 18 18.5566 18 18.5603 18C18.5641 18 18.5678 18 18.5715 18C18.5752 18 18.5789 18 18.5827 18C18.5864 18 18.5901 18 18.5938 18C18.5975 18 18.6012 18 18.605 18C18.6087 18 18.6124 18 18.6161 18C18.6198 18 18.6235 18 18.6272 18C18.6309 18 18.6347 18 18.6384 18C18.6421 18 18.6458 18 18.6495 18C18.6532 18 18.6569 18 18.6606 18C18.6643 18 18.668 18 18.6717 18C18.6754 18 18.6791 18 18.6828 18C18.6865 18 18.6902 18 18.6939 18C18.6976 18 18.7013 18 18.705 18C18.7087 18 18.7124 18 18.7161 18C18.7198 18 18.7235 18 18.7272 18C18.7309 18 18.7346 18 18.7383 18C18.742 18 18.7457 18 18.7494 18C18.7531 18 18.7568 18 18.7605 18C18.7641 18 18.7678 18 18.7715 18C18.7752 18 18.7789 18 18.7826 18C18.7863 18 18.79 18 18.7936 18C18.7973 18 18.801 18 18.8047 18C18.8084 18 18.8121 18 18.8157 18C18.8194 18 18.8231 18 18.8268 18C18.8305 18 18.8341 18 18.8378 18C18.8415 18 18.8452 18 18.8488 18C18.8525 18 18.8562 18 18.8599 18C18.8635 18 18.8672 18 18.8709 18C18.8745 18 18.8782 18 18.8819 18C18.8856 18 18.8892 18 18.8929 18C18.8966 18 18.9002 18 18.9039 18C18.9076 18 18.9112 18 18.9149 18C18.9186 18 18.9222 18 18.9259 18C18.9295 18 18.9332 18 18.9369 18C18.9405 18 18.9442 18 18.9478 18C18.9515 18 18.9552 18 18.9588 18C18.9625 18 18.9661 18 18.9698 18C18.9734 18 18.9771 18 18.9807 18C18.9844 18 18.988 18 18.9917 18C18.9954 18 18.999 18 19.0027 18C19.0063 18 19.0099 18 19.0136 18C19.0172 18 19.0209 18 19.0245 18C19.0282 18 19.0318 18 19.0355 18C19.0391 18 19.0428 18 19.0464 18C19.05 18 19.0537 18 19.0573 18C19.061 18 19.0646 18 19.0682 18C19.0719 18 19.0755 18 19.0791 18C19.0828 18 19.0864 18 19.09 18C19.0937 18 19.0973 18 19.1009 18C19.1046 18 19.1082 18 19.1118 18C19.1155 18 19.1191 18 19.1227 18C19.1264 18 19.13 18 19.1336 18C19.1372 18 19.1409 18 19.1445 18C19.1481 18 19.1517 18 19.1554 18C19.159 18 19.1626 18 19.1662 18C19.1698 18 19.1735 18 19.1771 18C19.1807 18 19.1843 18 19.1879 18C19.1915 18 19.1952 18 19.1988 18C19.2024 18 19.206 18 19.2096 18C19.2132 18 19.2168 18 19.2204 18C19.2241 18 19.2277 18 19.2313 18C19.2349 18 19.2385 18 19.2421 18C19.2457 18 19.2493 18 19.2529 18C19.2565 18 19.2601 18 19.2637 18C19.2673 18 19.2709 18 19.2745 18C19.2781 18 19.2817 18 19.2853 18C19.2889 18 19.2925 18 19.2961 18C19.2997 18 19.3033 18 19.3069 18C19.3105 18 19.3141 18 19.3177 18C19.3213 18 19.3249 18 19.3285 18C19.3321 18 19.3356 18 19.3392 18C19.3428 18 19.3464 18 19.35 18C19.3536 18 19.3572 18 19.3608 18C19.3643 18 19.3679 18 19.3715 18C19.3751 18 19.3787 18 19.3822 18C19.3858 18 19.3894 18 19.393 18C19.3966 18 19.4001 18 19.4037 18C19.4073 18 19.4109 18 19.4144 18C19.418 18 19.4216 18 19.4252 18C19.4287 18 19.4323 18 19.4359 18C19.4394 18 19.443 18 19.4466 18C19.4501 18 19.4537 18 19.4573 18C19.4608 18 19.4644 18 19.468 18C19.4715 18 19.4751 18 19.4787 18C19.4822 18 19.4858 18 19.4893 18C19.4929 18 19.4965 18 19.5 18V17ZM13.5 17C12.4862 17 11.4753 17 10.5 17V18C11.4753 18 12.4862 18 13.5 18V17ZM14.9743 20.3419L13.9743 17.3419L13.0257 17.6581L14.0257 20.6581L14.9743 20.3419ZM2 15.5C2 16.8802 3.11714 18 4.49838 18V17C3.67048 17 3 16.329 3 15.5H2ZM21 15.5C21 16.3284 20.3284 17 19.5 17V18C20.8807 18 22 16.8807 22 15.5H21ZM19.5 5C20.3284 5 21 5.67157 21 6.5H22C22 5.11929 20.8807 4 19.5 4V5ZM4.5 4C3.11929 4 2 5.11929 2 6.5H3C3 5.67157 3.67157 5 4.5 5V4Z" fill="#4A4A4A"/>
</svg>
