<svg width="24" height="24" viewBox="0 0 24 24" fill="none" xmlns="http://www.w3.org/2000/svg">
<path fill-rule="evenodd" clip-rule="evenodd" d="M6 7C3.79086 7 2 8.79086 2 11C2 13.2091 3.79086 15 6 15H11.5C13.433 15 15 13.433 15 11.5H14C14 12.8807 12.8807 14 11.5 14H6C4.34315 14 3 12.6569 3 11C3 9.34315 4.34314 8 6 8H10.1364C10.4125 8 10.6364 7.77614 10.6364 7.5C10.6364 7.22386 10.4125 7 10.1364 7H6ZM18 17C20.2091 17 22 15.2091 22 13C22 10.7909 20.2091 9 18 9H12.5C10.567 9 9 10.567 9 12.5H10C10 11.1193 11.1193 10 12.5 10H18C19.6569 10 21 11.3431 21 13C21 14.6569 19.6569 16 18 16H13.8636C13.5875 16 13.3636 16.2239 13.3636 16.5C13.3636 16.7761 13.5875 17 13.8636 17H18Z" fill="#4A4A4A"/>
</svg>
