<svg width="24" height="24" viewBox="0 0 24 24" fill="none" xmlns="http://www.w3.org/2000/svg">
<path fill-rule="evenodd" clip-rule="evenodd" d="M3 5C3 4.44772 3.44772 4 4 4H7C7.55228 4 8 4.44772 8 5V8C8 8.55228 7.55228 9 7 9H4C3.44772 9 3 8.55228 3 8V5ZM4 5H7V8L4 8L4 5Z" fill="#4A4A4A"/>
<path fill-rule="evenodd" clip-rule="evenodd" d="M9 6C9 5.44772 9.44772 5 10 5H19C19.5523 5 20 5.44772 20 6V7C20 7.55228 19.5523 8 19 8H10C9.44771 8 9 7.55228 9 7V6ZM10 6H19V7H10L10 6Z" fill="#4A4A4A"/>
<path fill-rule="evenodd" clip-rule="evenodd" d="M4 10C3.44772 10 3 10.4477 3 11V14C3 14.5523 3.44772 15 4 15H7C7.55228 15 8 14.5523 8 14V11C8 10.4477 7.55228 10 7 10H4ZM7 11H4L4 14H7V11Z" fill="#4A4A4A"/>
<path fill-rule="evenodd" clip-rule="evenodd" d="M9 12C9 11.4477 9.44772 11 10 11H19C19.5523 11 20 11.4477 20 12V13C20 13.5523 19.5523 14 19 14H10C9.44771 14 9 13.5523 9 13V12ZM10 12H19V13H10L10 12Z" fill="#4A4A4A"/>
<path fill-rule="evenodd" clip-rule="evenodd" d="M4 16C3.44772 16 3 16.4477 3 17V20C3 20.5523 3.44772 21 4 21H7C7.55228 21 8 20.5523 8 20V17C8 16.4477 7.55228 16 7 16H4ZM7 17H4L4 20H7V17Z" fill="#4A4A4A"/>
<path fill-rule="evenodd" clip-rule="evenodd" d="M9 18C9 17.4477 9.44772 17 10 17H19C19.5523 17 20 17.4477 20 18V19C20 19.5523 19.5523 20 19 20H10C9.44771 20 9 19.5523 9 19V18ZM10 18H19V19H10L10 18Z" fill="#4A4A4A"/>
</svg>
