<svg width="24" height="24" viewBox="0 0 24 24" fill="none" xmlns="http://www.w3.org/2000/svg">
<path fill-rule="evenodd" clip-rule="evenodd" d="M4 4C3.44772 4 3 4.44772 3 5V7C3 7.55228 3.44772 8 4 8H6C6.55228 8 7 7.55228 7 7V5C7 4.44772 6.55228 4 6 4H4ZM10 5C9.44772 5 9 5.44772 9 6C9 6.55228 9.44771 7 10 7H20C20.5523 7 21 6.55228 21 6C21 5.44772 20.5523 5 20 5H10ZM3 11C3 10.4477 3.44772 10 4 10H6C6.55228 10 7 10.4477 7 11V13C7 13.5523 6.55228 14 6 14H4C3.44772 14 3 13.5523 3 13V11ZM10 11C9.44772 11 9 11.4477 9 12C9 12.5523 9.44771 13 10 13H20C20.5523 13 21 12.5523 21 12C21 11.4477 20.5523 11 20 11H10ZM3 17C3 16.4477 3.44772 16 4 16H6C6.55228 16 7 16.4477 7 17V19C7 19.5523 6.55228 20 6 20H4C3.44772 20 3 19.5523 3 19V17ZM10 17C9.44772 17 9 17.4477 9 18C9 18.5523 9.44771 19 10 19H20C20.5523 19 21 18.5523 21 18C21 17.4477 20.5523 17 20 17H10Z" fill="#4A4A4A"/>
</svg>
