<svg width="24" height="24" viewBox="0 0 24 24" fill="none" xmlns="http://www.w3.org/2000/svg">
<path d="M17 11.5V18.5H18V11.5H17ZM16.5 19H7.5V20H16.5V19ZM7 18.5V11.5H6V18.5H7ZM7.5 11H8.5V10H7.5V11ZM9 10.5V8H8V10.5H9ZM8.5 11H15.5V10H8.5V11ZM15.5 11H16.5V10H15.5V11ZM15 8V10.5H16V8H15ZM12 16V17C12.5523 17 13 16.5523 13 16H12ZM12 16H13C13 15.4477 12.5523 15 12 15V16ZM12 15C11.4477 15 11 15.4477 11 16H12V15ZM12 5C13.6569 5 15 6.34315 15 8H16C16 5.79086 14.2091 4 12 4V5ZM7.5 19C7.22386 19 7 18.7761 7 18.5H6C6 19.3284 6.67157 20 7.5 20V19ZM17 18.5C17 18.7761 16.7761 19 16.5 19V20C17.3284 20 18 19.3284 18 18.5H17ZM18 11.5C18 10.6716 17.3284 10 16.5 10V11C16.7761 11 17 11.2239 17 11.5H18ZM9 8C9 6.34315 10.3431 5 12 5V4C9.79086 4 8 5.79086 8 8H9ZM12 16H11C11 16.5523 11.4477 17 12 17V16ZM7 11.5C7 11.2239 7.22386 11 7.5 11V10C6.67157 10 6 10.6716 6 11.5H7Z" fill="#4A4A4A"/>
</svg>
