<svg width="24" height="24" viewBox="0 0 24 24" fill="none" xmlns="http://www.w3.org/2000/svg">
<path fill-rule="evenodd" clip-rule="evenodd" d="M10 8C10 7 10 6 12 6C14 6 14 7 14 8V10H10V8ZM16 8V10H16.5C17.3284 10 18 10.6716 18 11.5V18.5C18 19.3284 17.3284 20 16.5 20H7.5C6.67157 20 6 19.3284 6 18.5V11.5C6 10.6716 6.67157 10 7.5 10H8V8C8 5.79086 9.79086 4 12 4C14.2091 4 16 5.79086 16 8ZM12 15C11.4477 15 11 15.4477 11 16C11 16.5523 11.4477 17 12 17C12.5523 17 13 16.5523 13 16C13 15.4477 12.5523 15 12 15Z" fill="#4A4A4A"/>
</svg>
