<svg width="24" height="24" viewBox="0 0 24 24" fill="none" xmlns="http://www.w3.org/2000/svg">
<path fill-rule="evenodd" clip-rule="evenodd" d="M17.6716 9.96447L19.8536 12.1464C20.0488 12.3417 20.0488 12.6583 19.8536 12.8536L17.6716 15.0355C17.4763 15.2308 17.1597 15.2308 16.9645 15.0355C16.7692 14.8403 16.7692 14.5237 16.9645 14.3284L18.2929 13H12.5C12.2239 13 12 12.7761 12 12.5C12 12.2239 12.2239 12 12.5 12H18.2929L16.9645 10.6716C16.7692 10.4763 16.7692 10.1597 16.9645 9.96447C17.1597 9.7692 17.4763 9.7692 17.6716 9.96447Z" fill="#4A4A4A"/>
<path fill-rule="evenodd" clip-rule="evenodd" d="M4 4.5C4 4.22386 4.22386 4 4.5 4H17.5C17.7761 4 18 4.22386 18 4.5V6.5C18 6.77614 17.7761 7 17.5 7C17.2239 7 17 6.77614 17 6.5V5H5V19H17V17.5C17 17.2239 17.2239 17 17.5 17C17.7761 17 18 17.2239 18 17.5V19.5C18 19.7761 17.7761 20 17.5 20H4.5C4.22386 20 4 19.7761 4 19.5V4.5Z" fill="#4A4A4A"/>
</svg>
