<svg width="24" height="24" viewBox="0 0 24 24" fill="none" xmlns="http://www.w3.org/2000/svg">
<path fill-rule="evenodd" clip-rule="evenodd" d="M4 5C4 4.44772 4.44772 4 5 4H17C17.5523 4 18 4.44772 18 5V11H14.5C13.6716 11 13 11.6715 13 12.5C13 13.3284 13.6716 14 14.5 14L18 14V19C18 19.5523 17.5523 20 17 20H5C4.44772 20 4 19.5523 4 19V5ZM19.8536 10.1464C19.6583 9.95118 19.3417 9.95118 19.1464 10.1464C18.9512 10.3417 18.9512 10.6583 19.1464 10.8536L20.2929 12H14.5C14.2239 12 14 12.2239 14 12.5C14 12.7761 14.2239 13 14.5 13H20.2929L19.1464 14.1464C18.9512 14.3417 18.9512 14.6583 19.1464 14.8536C19.3417 15.0488 19.6583 15.0488 19.8536 14.8536L21.8536 12.8536C22.0488 12.6583 22.0488 12.3417 21.8536 12.1464L19.8536 10.1464Z" fill="#4A4A4A"/>
</svg>
