<svg width="24" height="24" viewBox="0 0 24 24" fill="none" xmlns="http://www.w3.org/2000/svg">
<path d="M12 21.5L11.6465 21.8536C11.8417 22.0488 12.1583 22.0488 12.3536 21.8536L12 21.5ZM18 9C18 11.8422 16.4496 14.8612 14.8374 17.2177C14.0382 18.3857 13.2381 19.3705 12.6378 20.0632C12.3379 20.4092 12.0884 20.6817 11.9147 20.8669C11.8278 20.9595 11.7599 21.0302 11.7141 21.0774C11.6913 21.101 11.6739 21.1187 11.6625 21.1302C11.6568 21.136 11.6526 21.1403 11.6499 21.143C11.6485 21.1444 11.6476 21.1453 11.647 21.1459C11.6467 21.1462 11.6465 21.1464 11.6464 21.1465C11.6464 21.1465 11.6464 21.1465 11.6464 21.1465C11.6464 21.1465 11.6465 21.1464 12 21.5C12.3536 21.8536 12.3537 21.8534 12.3538 21.8533C12.3539 21.8532 12.354 21.8531 12.3542 21.8529C12.3545 21.8526 12.3549 21.8522 12.3554 21.8517C12.3564 21.8507 12.3578 21.8493 12.3596 21.8475C12.3631 21.8439 12.3682 21.8388 12.3748 21.8321C12.388 21.8187 12.4071 21.7992 12.4319 21.7737C12.4813 21.7227 12.5531 21.6479 12.644 21.5511C12.8257 21.3574 13.084 21.0751 13.3935 20.7181C14.0119 20.0045 14.8369 18.9893 15.6627 17.7823C17.3004 15.3888 19 12.1578 19 9H18ZM12 21.5C12.3536 21.1464 12.3536 21.1465 12.3536 21.1465C12.3536 21.1465 12.3536 21.1465 12.3536 21.1465C12.3535 21.1464 12.3533 21.1462 12.353 21.1459C12.3524 21.1453 12.3515 21.1444 12.3501 21.143C12.3474 21.1403 12.3432 21.136 12.3375 21.1302C12.3261 21.1187 12.3088 21.101 12.2859 21.0774C12.2401 21.0302 12.1722 20.9595 12.0854 20.8669C11.9116 20.6817 11.6622 20.4092 11.3622 20.0632C10.7619 19.3705 9.96185 18.3857 9.16266 17.2177C7.55038 14.8612 6.00001 11.8422 6.00001 9H5.00001C5.00001 12.1578 6.69963 15.3888 8.33735 17.7823C9.16317 18.9893 9.98811 20.0045 10.6065 20.7181C10.916 21.0751 11.1743 21.3574 11.3561 21.5511C11.4469 21.6479 11.5187 21.7227 11.5681 21.7737C11.5929 21.7992 11.612 21.8187 11.6252 21.8321C11.6318 21.8388 11.6369 21.8439 11.6405 21.8475C11.6422 21.8493 11.6436 21.8507 11.6446 21.8517C11.6451 21.8522 11.6455 21.8526 11.6458 21.8529C11.646 21.8531 11.6461 21.8532 11.6462 21.8533C11.6464 21.8534 11.6465 21.8536 12 21.5ZM12 12C10.3432 12 9.00001 10.6569 9.00001 9H8.00001C8.00001 11.2091 9.79087 13 12 13V12ZM15 9C15 10.6569 13.6569 12 12 12V13C14.2091 13 16 11.2091 16 9H15ZM12 6C13.6569 6 15 7.34315 15 9H16C16 6.79086 14.2091 5 12 5V6ZM12 3C15.3137 3 18 5.68629 18 9H19C19 5.13401 15.866 2 12 2V3ZM12 5C9.79087 5 8.00001 6.79086 8.00001 9H9.00001C9.00001 7.34315 10.3432 6 12 6V5ZM12 2C8.13402 2 5.00001 5.13401 5.00001 9H6.00001C6.00001 5.68629 8.6863 3 12 3V2Z" fill="#4A4A4A"/>
</svg>
