<svg width="24" height="24" viewBox="0 0 24 24" fill="none" xmlns="http://www.w3.org/2000/svg">
<path d="M5.5 2C5.77614 2 6 2.22386 6 2.5V10.5C6 10.9947 6.32331 11.3624 6.765 11.6385C6.84371 11.6877 6.92296 11.7318 7 11.7709V2.5C7 2.22386 7.22386 2 7.5 2C7.77614 2 8 2.22386 8 2.5V11.7709C8.07704 11.7318 8.15629 11.6877 8.235 11.6385C8.67669 11.3624 9 10.9947 9 10.5V2.5C9 2.22386 9.22386 2 9.5 2C9.77614 2 10 2.22386 10 2.5V10.5C10 11.5053 9.32331 12.1376 8.765 12.4865C8.48416 12.662 8.2072 12.7838 8 12.8621V21.5C8 21.7761 7.77614 22 7.5 22C7.22386 22 7 21.7761 7 21.5V12.8621C6.79281 12.7838 6.51584 12.662 6.235 12.4865C5.67669 12.1376 5 11.5053 5 10.5V2.5C5 2.22386 5.22386 2 5.5 2Z" fill="#4A4A4A"/>
<path fill-rule="evenodd" clip-rule="evenodd" d="M19 2.49998C19 2.31558 18.8985 2.14615 18.7359 2.05914C18.5733 1.97214 18.3754 1.98214 18.2219 2.08442L18.221 2.08508L18.2182 2.08694L18.2094 2.09289L18.1796 2.11356C18.1544 2.13122 18.1187 2.15661 18.0742 2.18949C17.9851 2.25522 17.8601 2.35111 17.7112 2.47525C17.4139 2.72296 17.0176 3.08611 16.6204 3.54959C15.8326 4.46866 15 5.83103 15 7.49998V15.5C15 15.6326 15.0527 15.7598 15.1464 15.8535C15.2402 15.9473 15.3674 16 15.5 16H18V21.5C18 21.7761 18.2239 22 18.5 22C18.7761 22 19 21.7761 19 21.5V2.49998ZM18.2219 2.08442L18.5 2.49998C18.2226 2.08396 18.2219 2.08442 18.2219 2.08442ZM17.3796 4.20038C17.5926 3.95189 17.806 3.73518 18 3.55381V15H16V7.49998C16 6.16894 16.6674 5.03131 17.3796 4.20038Z" fill="#4A4A4A"/>
</svg>
