<svg width="24" height="24" viewBox="0 0 24 24" fill="none" xmlns="http://www.w3.org/2000/svg">
<path d="M19.9851 1.37873C20.052 1.64663 19.8892 1.91809 19.6213 1.98507L16 2.89038V5H19.9356C20.5124 5 20.9696 5.48668 20.9336 6.06238L20.0586 20.0624C20.0257 20.5894 19.5887 21 19.0606 21H16.2361C16.7111 20.4692 17 19.7684 17 19C17.5523 19 18 18.5523 18 18V15C18 14.4477 17.5523 14 17 14C17 12.3431 15.6569 11 14 11H10.375L10.0664 6.06238C10.0305 5.48668 10.4877 5 11.0645 5H15V2.5C15 2.27056 15.1561 2.07057 15.3787 2.01493L19.3787 1.01492C19.6466 0.947951 19.9181 1.11083 19.9851 1.37873Z" fill="#4A4A4A"/>
<path d="M16 14H4C4 12.8954 4.89543 12 6 12H14C15.1046 12 16 12.8954 16 14Z" fill="#4A4A4A"/>
<path d="M4 19H16C16 20.1046 15.1046 21 14 21H6C4.89543 21 4 20.1046 4 19Z" fill="#4A4A4A"/>
<path d="M17 16V17C17 17.5523 16.5523 18 16 18H4C3.44772 18 3 17.5523 3 17V16C3 15.4477 3.44772 15 4 15H16C16.5523 15 17 15.4477 17 16Z" fill="#4A4A4A"/>
</svg>
