<svg width="24" height="24" viewBox="0 0 24 24" fill="none" xmlns="http://www.w3.org/2000/svg">
<path fill-rule="evenodd" clip-rule="evenodd" d="M19.5 18C19.7761 18 20 17.7761 20 17.5C20 17.2239 19.7761 17 19.5 17H4.5C4.22386 17 4 17.2239 4 17.5C4 17.7761 4.22386 18 4.5 18H19.5ZM15.5 13C15.7761 13 16 12.7761 16 12.5C16 12.2239 15.7761 12 15.5 12H4.5C4.22386 12 4 12.2239 4 12.5C4 12.7761 4.22386 13 4.5 13H15.5ZM4 7.5C4 7.77614 4.22386 8 4.5 8H19.5C19.7761 8 20 7.77614 20 7.5C20 7.22386 19.7761 7 19.5 7H4.5C4.22386 7 4 7.22386 4 7.5Z" fill="#4A4A4A"/>
</svg>
