<svg width="24" height="24" viewBox="0 0 24 24" fill="none" xmlns="http://www.w3.org/2000/svg">
<path fill-rule="evenodd" clip-rule="evenodd" d="M7 5C7 2.79086 8.79087 1 11 1H13C15.2091 1 17 2.79086 17 5V11C17 13.2091 15.2091 15 13 15H11C8.79086 15 7 13.2091 7 11V5ZM4 11C4.55228 11 5 11.4477 5 12C5 14.7614 7.23858 17 10 17H14C16.7614 17 19 14.7614 19 12C19 11.4477 19.4477 11 20 11C20.5523 11 21 11.4519 21 12.0042C21 15.8572 17.853 19.0243 14 19V21H15C15.5523 21 16 21.4479 16 22.0002V22.5C16 22.7761 15.7761 23 15.5 23H8.5C8.22386 23 8 22.7761 8 22.5V22.0002C8 21.4479 8.44772 21 9 21H10V19C6.14702 19.0243 3 15.8572 3 12.0042C3 11.4519 3.44772 11 4 11ZM10.5001 4.99999C10.2239 4.99999 10 5.22382 10 5.49999C10 5.77616 10.2239 5.99999 10.5001 5.99999H13.5C13.7761 5.99999 14 5.77614 14 5.49999C14 5.22385 13.7761 4.99999 13.5 4.99999H10.5001ZM10.5001 7.99999C10.2239 7.99999 10 8.22382 10 8.49999C10 8.77616 10.2239 8.99999 10.5001 8.99999H13.5C13.7761 8.99999 14 8.77614 14 8.49999C14 8.22385 13.7761 7.99999 13.5 7.99999H10.5001ZM10.5 11C10.2239 11 10 11.2239 10 11.5C10 11.7761 10.2239 12 10.5 12H13.5C13.7761 12 14 11.7761 14 11.5C14 11.2239 13.7761 11 13.5 11H10.5Z" fill="#4A4A4A"/>
</svg>
