<svg width="24" height="24" viewBox="0 0 24 24" fill="none" xmlns="http://www.w3.org/2000/svg">
<path d="M5 11.5C5 11.2239 4.77614 11 4.5 11C4.22386 11 4 11.2239 4 11.5H5ZM20 11.5C20 11.2239 19.7761 11 19.5 11C19.2239 11 19 11.2239 19 11.5H20ZM15.5 23C15.7761 23 16 22.7761 16 22.5C16 22.2239 15.7761 22 15.5 22V23ZM8.5 22C8.22386 22 8 22.2239 8 22.5C8 22.7761 8.22386 23 8.5 23V22ZM10.5 5C10.2239 5 10 5.22386 10 5.5C10 5.77614 10.2239 6 10.5 6V5ZM13.5 6C13.7761 6 14 5.77614 14 5.5C14 5.22386 13.7761 5 13.5 5V6ZM10.5 8C10.2239 8 10 8.22386 10 8.5C10 8.77614 10.2239 9 10.5 9V8ZM13.5 9C13.7761 9 14 8.77614 14 8.5C14 8.22386 13.7761 8 13.5 8V9ZM10.5 11C10.2239 11 10 11.2239 10 11.5C10 11.7761 10.2239 12 10.5 12V11ZM13.5 12C13.7761 12 14 11.7761 14 11.5C14 11.2239 13.7761 11 13.5 11V12ZM16 6V11H17V6H16ZM8 11V6H7V11H8ZM4 11.5V12.5H5V11.5H4ZM20 12.5V11.5H19V12.5H20ZM13 18.5V22.5H14V18.5H13ZM13.5 23H15.5V22H13.5V23ZM13.5 22H10.5V23H13.5V22ZM10.5 22H8.5V23H10.5V22ZM10.5 19H13.5V18H10.5V19ZM11 22.5V18.5H10V22.5H11ZM10.5 6H13.5V5H10.5V6ZM10.5 9H13.5V8H10.5V9ZM10.5 12H13.5V11H10.5V12ZM19 12.5C19 15.5376 16.5376 18 13.5 18V19C17.0899 19 20 16.0899 20 12.5H19ZM12 15C9.79086 15 8 13.2091 8 11H7C7 13.7614 9.23858 16 12 16V15ZM16 11C16 13.2091 14.2091 15 12 15V16C14.7614 16 17 13.7614 17 11H16ZM12 2C14.2091 2 16 3.79086 16 6H17C17 3.23858 14.7614 1 12 1V2ZM4 12.5C4 16.0899 6.91015 19 10.5 19V18C7.46243 18 5 15.5376 5 12.5H4ZM12 1C9.23858 1 7 3.23858 7 6H8C8 3.79086 9.79086 2 12 2V1Z" fill="#4A4A4A"/>
</svg>
