<svg width="24" height="24" viewBox="0 0 24 24" fill="none" xmlns="http://www.w3.org/2000/svg">
<path fill-rule="evenodd" clip-rule="evenodd" d="M4 5C4 3.34315 5.34315 2 7 2H17C18.6569 2 20 3.34315 20 5V19C20 20.6569 18.6569 22 17 22H7C5.34315 22 4 20.6569 4 19V5ZM9 4H7.5C6.67157 4 6 4.67157 6 5.5V16C6 17.1046 6.89543 18 8 18H16C17.1046 18 18 17.1046 18 16V5.5C18 4.67157 17.3284 4 16.5 4H15H9ZM11 19C10.4477 19 10 19.4477 10 20C10 20.5523 10.4477 21 11 21H13C13.5523 21 14 20.5523 14 20C14 19.4477 13.5523 19 13 19H11Z" fill="#4A4A4A"/>
<rect x="7" y="5" width="10" height="12" rx="1" fill="#4A4A4A"/>
</svg>
