<svg width="24" height="24" viewBox="0 0 24 24" fill="none" xmlns="http://www.w3.org/2000/svg">
<path fill-rule="evenodd" clip-rule="evenodd" d="M16.9498 16.9498C17.3403 16.5592 17.3403 15.9261 16.9498 15.5356L13.4142 12L16.9498 8.46449C17.3403 8.07397 17.3403 7.4408 16.9498 7.05028C16.5592 6.65975 15.9261 6.65975 15.5356 7.05028L12 10.5858L8.46449 7.05028C8.07397 6.65975 7.4408 6.65975 7.05028 7.05028C6.65975 7.4408 6.65976 8.07397 7.05028 8.46449L10.5858 12L7.05028 15.5356C6.65975 15.9261 6.65975 16.5593 7.05028 16.9498C7.4408 17.3403 8.07397 17.3403 8.46449 16.9498L12 13.4142L15.5356 16.9498C15.9261 17.3403 16.5593 17.3403 16.9498 16.9498Z" fill="#4A4A4A"/>
</svg>
