<svg width="24" height="24" viewBox="0 0 24 24" fill="none" xmlns="http://www.w3.org/2000/svg">
<path fill-rule="evenodd" clip-rule="evenodd" d="M18.3287 4.25705C16.6049 2.84637 14.4013 2 12 2C6.47715 2 2 6.47715 2 12C2 14.4013 2.84637 16.6049 4.25705 18.3287L10.403 12.1828C9.57664 12.3755 8.80709 12.7145 8.12228 13.1712C7.66278 13.4776 7.0419 13.3534 6.73551 12.8939C6.42912 12.4344 6.55325 11.8135 7.01275 11.5071C8.44075 10.555 10.1571 10 12 10C12.1908 10 12.3802 10.0059 12.5681 10.0177L13.4863 9.09946C13.0004 9.03387 12.5042 9 12 9C9.7478 9 7.65649 9.67578 5.91403 10.8354C5.45426 11.1414 4.83349 11.0167 4.5275 10.557C4.22151 10.0972 4.34617 9.47644 4.80595 9.17045C6.86648 7.79911 9.34143 7 12 7C13.1006 7 14.1697 7.13695 15.191 7.39477L18.3287 4.25705ZM19.7429 5.67127L17.2917 8.1225C17.9641 8.42246 18.6063 8.77782 19.2125 9.18275C19.6717 9.48953 19.7954 10.1105 19.4886 10.5698C19.1818 11.029 18.5608 11.1526 18.1016 10.8458C17.376 10.3612 16.5898 9.96055 15.7564 9.65779L14.9272 10.487C15.6637 10.7403 16.3573 11.0863 16.9935 11.5113C17.4527 11.8181 17.5763 12.4391 17.2695 12.8983C16.9628 13.3576 16.3418 13.4812 15.8825 13.1744C15.1138 12.6609 14.238 12.2956 13.2949 12.1194L12.3985 13.0157C13.2672 13.0841 14.0811 13.3742 14.773 13.8294C15.2344 14.133 15.3623 14.7531 15.0587 15.2145C14.7552 15.6759 14.135 15.8038 13.6737 15.5002C13.1935 15.1843 12.6154 15 11.9999 15C11.3844 15 10.8063 15.1843 10.3262 15.5002C10.1485 15.6172 9.94725 15.6701 9.74962 15.6646L5.67127 19.7429C7.39514 21.1536 9.59873 22 12 22C17.5228 22 22 17.5228 22 12C22 9.59873 21.1536 7.39514 19.7429 5.67127ZM13 17C13 17.5523 12.5523 18 12 18C11.4477 18 11 17.5523 11 17C11 16.4477 11.4477 16 12 16C12.5523 16 13 16.4477 13 17Z" fill="#4A4A4A"/>
</svg>
