<svg width="24" height="24" viewBox="0 0 24 24" fill="none" xmlns="http://www.w3.org/2000/svg">
<path fill-rule="evenodd" clip-rule="evenodd" d="M21.7071 2.29289C22.0976 2.68342 22.0976 3.31658 21.7071 3.70711L3.70711 21.7071C3.31658 22.0976 2.68342 22.0976 2.29289 21.7071C1.90237 21.3166 1.90237 20.6834 2.29289 20.2929L11.573 11.0128C9.67221 11.1271 7.97668 11.9991 6.78228 13.3336C6.41396 13.7451 5.78176 13.7801 5.37023 13.4118C4.95871 13.0435 4.92369 12.4113 5.29201 11.9998C6.93854 10.1601 9.3345 9 12.0001 9C12.4995 9 12.9895 9.04072 13.4668 9.119L15.1333 7.45246C14.1404 7.15801 13.0888 7 12.0001 7C8.74236 7 5.81641 8.4149 3.80081 10.6669C3.43248 11.0784 2.80029 11.1135 2.38876 10.7451C1.97723 10.3768 1.94221 9.74461 2.31054 9.33309C4.6895 6.6751 8.14984 5 12.0001 5C13.6601 5 15.2476 5.31136 16.7072 5.87861L20.2929 2.29289C20.6834 1.90237 21.3166 1.90237 21.7071 2.29289ZM19.8086 7.60561L18.3778 9.03638C19.0439 9.5112 19.6549 10.0585 20.1994 10.6669C20.5677 11.0784 21.1999 11.1135 21.6114 10.7451C22.023 10.3768 22.058 9.74461 21.6897 9.33309C21.1212 8.698 20.4911 8.11902 19.8086 7.60561ZM15.4861 11.9281L16.939 10.4752C17.5934 10.9055 18.1882 11.4187 18.7082 11.9998C19.0765 12.4113 19.0415 13.0435 18.63 13.4118C18.2184 13.7801 17.5862 13.7451 17.2179 13.3336C16.7204 12.7778 16.136 12.3022 15.4861 11.9281ZM12.3894 15.0248L14.0012 13.413C14.6712 13.7023 15.2672 14.1323 15.7452 14.6664C16.1136 15.0779 16.0785 15.7101 15.667 16.0785C15.2555 16.4468 14.6233 16.4118 14.255 16.0002C13.7883 15.4789 13.1277 15.1195 12.3894 15.0248ZM12 19C12.5523 19 13 18.5523 13 18C13 17.4477 12.5523 17 12 17C11.4477 17 11 17.4477 11 18C11 18.5523 11.4477 19 12 19Z" fill="#4A4A4A"/>
</svg>
