<svg width="24" height="24" viewBox="0 0 24 24" fill="none" xmlns="http://www.w3.org/2000/svg">
<path d="M12 2C17.5231 2 22 6.47748 22 12C22 17.5238 17.5232 22 12 22C6.47748 22 2 17.5232 2 12C2 6.47748 6.47748 2 12 2ZM18.7078 5.99927L16.5228 8.18465C17.3258 8.58388 18.0864 9.09777 18.78 9.72632C18.9847 9.91175 18.9838 10.2294 18.7886 10.4246C18.5933 10.6199 18.2776 10.6187 18.072 10.4344C17.3697 9.80506 16.5924 9.30529 15.7709 8.93511L14.2257 10.4804C15.0982 10.7619 15.9265 11.2189 16.6551 11.8515C16.8636 12.0326 16.8625 12.3507 16.6673 12.5459C16.472 12.7412 16.1567 12.7394 15.946 12.5608C15.1946 11.9238 14.3235 11.5014 13.4133 11.2934L11.5275 13.179C12.5684 13.037 13.6546 13.3049 14.525 13.9828C14.7429 14.1525 14.7412 14.472 14.5459 14.6673C14.3507 14.8625 14.036 14.8582 13.8112 14.6978C12.6395 13.8615 11.0014 13.9692 9.94975 15.0208L9.818 14.889L5.99927 18.7078C7.5916 20.1332 9.69453 21 12 21C16.9708 21 21 16.9708 21 12C21 9.69453 20.1332 7.5916 18.7078 5.99927ZM12 3C7.02924 3 3 7.02924 3 12C3 14.3055 3.86675 16.4084 5.29219 18.0007L12.1493 11.1426C10.7437 11.1244 9.33288 11.5971 8.19613 12.5608C7.98549 12.7393 7.67014 12.7412 7.47487 12.5459C7.27961 12.3507 7.2786 12.0325 7.48712 11.8514C9.06988 10.4773 11.1227 9.93165 13.0787 10.2146L14.7454 8.54675C11.8062 7.63499 8.4919 8.26415 6.07037 10.4342C5.86472 10.6185 5.54882 10.6199 5.35355 10.4246C5.15829 10.2294 5.15772 9.91152 5.36235 9.7261C8.19185 7.16226 12.1348 6.50632 15.534 7.7583L18.0007 5.29219C16.4084 3.86675 14.3055 3 12 3ZM12 16C12.5523 16 13 16.4477 13 17C13 17.5523 12.5523 18 12 18C11.4477 18 11 17.5523 11 17C11 16.4477 11.4477 16 12 16Z" fill="#4A4A4A"/>
</svg>
