<svg width="24" height="24" viewBox="0 0 24 24" fill="none" xmlns="http://www.w3.org/2000/svg">
<rect x="9" y="1" width="6" height="3" rx="1" fill="#4A4A4A"/>
<path fill-rule="evenodd" clip-rule="evenodd" d="M5.11111 2H8V3C8 4.10457 8.89543 5 10 5H14C15.1046 5 16 4.10457 16 3V2H18.8889C19.5025 2 20 2.52233 20 3.16667V20.8333C20 21.4777 19.5025 22 18.8889 22H5.11111C4.49746 22 4 21.4777 4 20.8333V3.16667C4 2.52233 4.49746 2 5.11111 2ZM7 8.5C7 8.22386 7.22386 8 7.5 8H16.5C16.7761 8 17 8.22386 17 8.5C17 8.77614 16.7761 9 16.5 9H7.5C7.22386 9 7 8.77614 7 8.5ZM7 11.5C7 11.2239 7.22386 11 7.5 11H16.5C16.7761 11 17 11.2239 17 11.5C17 11.7761 16.7761 12 16.5 12H7.5C7.22386 12 7 11.7761 7 11.5ZM7.5 14C7.22386 14 7 14.2239 7 14.5C7 14.7761 7.22386 15 7.5 15H16.5C16.7761 15 17 14.7761 17 14.5C17 14.2239 16.7761 14 16.5 14H7.5ZM7 17.5C7 17.2239 7.22386 17 7.5 17H12.5C12.7761 17 13 17.2239 13 17.5C13 17.7761 12.7761 18 12.5 18H7.5C7.22386 18 7 17.7761 7 17.5Z" fill="#4A4A4A"/>
</svg>
