<svg width="24" height="24" viewBox="0 0 24 24" fill="none" xmlns="http://www.w3.org/2000/svg">
<path fill-rule="evenodd" clip-rule="evenodd" d="M8 3C8 2.44772 8.44772 2 9 2H15C15.5523 2 16 2.44772 16 3L18.8889 3C19.5025 3 20 3.49746 20 4.11111V20.8889C20 21.5025 19.5025 22 18.8889 22H5.11111C4.49746 22 4 21.5025 4 20.8889V4.11111C4 3.49746 4.49746 3 5.11111 3L8 3ZM8 5V4H5V21H19V4H16V5C16 5.55228 15.5523 6 15 6H9C8.44772 6 8 5.55228 8 5ZM7 8.5C7 8.22386 7.22386 8 7.5 8H16.5C16.7761 8 17 8.22386 17 8.5C17 8.77614 16.7761 9 16.5 9H7.5C7.22386 9 7 8.77614 7 8.5ZM17 11.5C17 11.2239 16.7761 11 16.5 11H7.5C7.22386 11 7 11.2239 7 11.5C7 11.7761 7.22386 12 7.5 12H16.5C16.7761 12 17 11.7761 17 11.5ZM7 14.5C7 14.2239 7.22386 14 7.5 14H16.5C16.7761 14 17 14.2239 17 14.5C17 14.7761 16.7761 15 16.5 15H7.5C7.22386 15 7 14.7761 7 14.5ZM15 17.5C15 17.2239 14.7761 17 14.5 17H7.5C7.22386 17 7 17.2239 7 17.5C7 17.7761 7.22386 18 7.5 18H14.5C14.7761 18 15 17.7761 15 17.5ZM15 3H9V5H15V3Z" fill="#4A4A4A"/>
</svg>
