<svg width="24" height="24" viewBox="0 0 24 24" fill="none" xmlns="http://www.w3.org/2000/svg">
<path fill-rule="evenodd" clip-rule="evenodd" d="M6.50005 3H9.00005V9H3L6.05283 3.27639C6.13753 3.107 6.31066 3 6.50005 3ZM3.00005 20.5V10H9.00005V12.5C9.00005 12.6844 9.10154 12.8538 9.26412 12.9408C9.4267 13.0278 9.62397 13.0183 9.7774 12.916L11.036 12.077L12.7764 12.9472C12.9369 13.0275 13.1281 13.0156 13.2774 12.916L14.7774 11.916C14.9165 11.8233 15 11.6672 15 11.5V10H21V20.5C21 20.7761 20.7762 21 20.5 21H3.50005C3.22391 21 3.00005 20.7761 3.00005 20.5ZM21 9L17.9473 3.27639C17.8626 3.107 17.6894 3 17.5 3H15V9H21ZM10 3H14V9H10V3ZM10 11.5657V10H14V11.2324L12.9641 11.923L11.2237 11.0528C11.0632 10.9725 10.872 10.9844 10.7227 11.084L10 11.5657ZM12 14L9 17H11V19H13V17H15L12 14Z" fill="#4A4A4A"/>
</svg>
