<svg width="24" height="24" viewBox="0 0 24 24" fill="none" xmlns="http://www.w3.org/2000/svg">
<path fill-rule="evenodd" clip-rule="evenodd" d="M6.50005 3H9.00005V9H3L6.05283 3.27639C6.13753 3.107 6.31066 3 6.50005 3ZM3.00005 20.5V10H9.00005V13.5C9.00005 13.6844 9.10154 13.8538 9.26412 13.9408C9.4267 14.0278 9.62397 14.0183 9.7774 13.916L11.036 13.077L12.7764 13.9472C12.9369 14.0275 13.1281 14.0156 13.2774 13.916L14.7774 12.916C14.9165 12.8233 15 12.6672 15 12.5V10H21V20.5C21 20.7761 20.7762 21 20.5 21H3.50005C3.22391 21 3.00005 20.7761 3.00005 20.5ZM9.50005 15L8.00005 17H9.00005V19H10V17H11L9.50005 15ZM21 9L17.9473 3.27639C17.8626 3.107 17.6894 3 17.5 3H15V9H21ZM10 3H14V9H10V3ZM10 12.5657V10H14V12.2324L12.9641 12.923L11.2237 12.0528C11.0632 11.9725 10.872 11.9844 10.7227 12.084L10 12.5657ZM14.5 15L13 17H14V19H15V17H16L14.5 15Z" fill="#4A4A4A"/>
</svg>
