<svg width="24" height="24" viewBox="0 0 24 24" fill="none" xmlns="http://www.w3.org/2000/svg">
<path d="M8.5 9H12.5C13.6357 9 14.5242 9.43085 15.1237 10.1053C15.7151 10.7706 16 11.6435 16 12.5C16 13.3565 15.7151 14.2294 15.1237 14.8947C14.5242 15.5691 13.6357 16 12.5 16H10.0002C9.72405 16 9.5 15.7761 9.5 15.5C9.5 15.2239 9.72387 15 10 15H12.5C13.3643 15 13.9758 14.6809 14.3763 14.2303C14.7849 13.7706 15 13.1435 15 12.5C15 11.8565 14.7849 11.2294 14.3763 10.7697C13.9758 10.3191 13.3643 10 12.5 10H9V18.5C9 18.7761 8.77614 19 8.5 19C8.22386 19 8 18.7761 8 18.5V9.5C8 9.22386 8.22386 9 8.5 9Z" fill="#4A4A4A"/>
<path d="M12.2095 5.04602C12.0766 4.98466 11.9234 4.98466 11.7905 5.04602L5.29047 8.04602C5.03974 8.16174 4.9303 8.4588 5.04602 8.70953C5.16174 8.96026 5.4588 9.0697 5.70953 8.95398L12 6.05069L18.2905 8.95398C18.5412 9.0697 18.8383 8.96026 18.954 8.70953C19.0697 8.4588 18.9603 8.16174 18.7095 8.04602L12.2095 5.04602Z" fill="#4A4A4A"/>
<path fill-rule="evenodd" clip-rule="evenodd" d="M20.8889 2H3.11111C2.49746 2 2 2.49746 2 3.11111V20.8889C2 21.5025 2.49746 22 3.11111 22H20.8889C21.5025 22 22 21.5025 22 20.8889V3.11111C22 2.49746 21.5025 2 20.8889 2ZM3 21V3H21V21H3Z" fill="#4A4A4A"/>
</svg>
