<svg width="24" height="24" viewBox="0 0 24 24" fill="none" xmlns="http://www.w3.org/2000/svg">
<path fill-rule="evenodd" clip-rule="evenodd" d="M15 2V5.5C15 6.32843 15.6716 7 16.5 7H20V20.5C20 21.3284 19.3284 22 18.5 22H5.5C4.67157 22 4 21.3284 4 20.5V3.5C4 2.67157 4.67157 2 5.5 2H15ZM16 2.29289V5.5C16 5.77614 16.2239 6 16.5 6H19.7071L16 2.29289ZM11.5 4C11.7761 4 12 4.22386 12 4.5V8.29289L13.1464 7.14645C13.3417 6.95118 13.6583 6.95118 13.8536 7.14645C14.0488 7.34171 14.0488 7.65829 13.8536 7.85355L11.8536 9.85355C11.756 9.9511 11.6282 9.99991 11.5003 10C11.3725 9.99991 11.244 9.9511 11.1464 9.85355L9.14645 7.85355C8.95118 7.65829 8.95118 7.34171 9.14645 7.14645C9.34171 6.95118 9.65829 6.95118 9.85355 7.14645L11 8.29289V4.5C11 4.22386 11.2239 4 11.5 4ZM11.5003 10H13.5C13.7761 10 14 10.2239 14 10.5C14 10.7761 13.7761 11 13.5 11H9.5C9.22386 11 9 10.7761 9 10.5C9 10.2239 9.22386 10 9.5 10H11.5003ZM7 14.5C7 14.2239 7.22386 14 7.5 14H8.5C9.32843 14 10 14.6716 10 15.5V16.5C10 17.3284 9.32843 18 8.5 18H8V18.5C8 18.7761 7.77614 19 7.5 19C7.22386 19 7 18.7761 7 18.5V14.5ZM8 17H8.5C8.77614 17 9 16.7761 9 16.5V15.5C9 15.2239 8.77614 15 8.5 15H8V17ZM11 14.5C11 14.2239 11.2239 14 11.5 14H12.5C13.3284 14 14 14.6716 14 15.5V17.5C14 18.3284 13.3284 19 12.5 19H11.5C11.2239 19 11 18.7761 11 18.5V14.5ZM12 18H12.5C12.7761 18 13 17.7761 13 17.5V15.5C13 15.2239 12.7761 15 12.5 15H12V18ZM16 15H17.5C17.7761 15 18 14.7761 18 14.5C18 14.2239 17.7761 14 17.5 14H15.5C15.2239 14 15 14.2239 15 14.5V18.5C15 18.7761 15.2239 19 15.5 19C15.7761 19 16 18.7761 16 18.5V17H16.5C16.7761 17 17 16.7761 17 16.5C17 16.2239 16.7761 16 16.5 16H16V15Z" fill="#4A4A4A"/>
</svg>
