<svg width="24" height="24" viewBox="0 0 24 24" fill="none" xmlns="http://www.w3.org/2000/svg">
<path d="M19.5 6.5H20C20 6.36739 19.9473 6.24021 19.8536 6.14645L19.5 6.5ZM15.5 2.5L15.8536 2.14645C15.7598 2.05268 15.6326 2 15.5 2V2.5ZM15.5 6.5H15C15 6.77614 15.2239 7 15.5 7V6.5ZM9.5 10C9.22386 10 9 10.2239 9 10.5C9 10.7761 9.22386 11 9.5 11V10ZM14.5 11C14.7761 11 15 10.7761 15 10.5C15 10.2239 14.7761 10 14.5 10V11ZM7 18.5C7 18.7761 7.22386 19 7.5 19C7.77614 19 8 18.7761 8 18.5H7ZM7.5 14.5V14C7.22386 14 7 14.2239 7 14.5H7.5ZM11.5 14.5V14C11.2239 14 11 14.2239 11 14.5H11.5ZM11.5 18.5H11C11 18.7761 11.2239 19 11.5 19V18.5ZM15.5 14.5V14C15.2239 14 15 14.2239 15 14.5H15.5ZM15 18.5C15 18.7761 15.2239 19 15.5 19C15.7761 19 16 18.7761 16 18.5H15ZM17.5 15C17.7761 15 18 14.7761 18 14.5C18 14.2239 17.7761 14 17.5 14V15ZM16.5 17C16.7761 17 17 16.7761 17 16.5C17 16.2239 16.7761 16 16.5 16V17ZM12 4.5C12 4.22386 11.7761 4 11.5 4C11.2239 4 11 4.22386 11 4.5H12ZM11.5 9.5L11.1464 9.85355C11.3417 10.0488 11.6583 10.0488 11.8536 9.85355L11.5 9.5ZM9.85355 7.14645C9.65829 6.95118 9.34171 6.95118 9.14645 7.14645C8.95118 7.34171 8.95118 7.65829 9.14645 7.85355L9.85355 7.14645ZM13.8536 7.85355C14.0488 7.65829 14.0488 7.34171 13.8536 7.14645C13.6583 6.95118 13.3417 6.95118 13.1464 7.14645L13.8536 7.85355ZM5.5 2.5V2V2.5ZM4 3.5V20.5H5V3.5H4ZM5.5 22H18.5V21H5.5V22ZM20 20.5V6.5H19V20.5H20ZM19.8536 6.14645L15.8536 2.14645L15.1464 2.85355L19.1464 6.85355L19.8536 6.14645ZM15.5 2H5.5V3H15.5V2ZM15 2.5V6.5H16V2.5H15ZM15.5 7H19.5V6H15.5V7ZM9.5 11H14.5V10H9.5V11ZM7.5 15H8.5V14H7.5V15ZM9 15.5V16.5H10V15.5H9ZM8 18.5V17.5H7V18.5H8ZM8 17.5V14.5H7V17.5H8ZM8.5 17H7.5V18H8.5V17ZM11 14.5V18.5H12V14.5H11ZM11.5 19H12.5V18H11.5V19ZM14 17.5V15.5H13V17.5H14ZM12.5 14H11.5V15H12.5V14ZM15.5 15H17.5V14H15.5V15ZM15 14.5V16.5H16V14.5H15ZM15 16.5V18.5H16V16.5H15ZM15.5 17H16.5V16H15.5V17ZM11 4.5V9.5H12V4.5H11ZM11.8536 9.14645L9.85355 7.14645L9.14645 7.85355L11.1464 9.85355L11.8536 9.14645ZM11.8536 9.85355L13.8536 7.85355L13.1464 7.14645L11.1464 9.14645L11.8536 9.85355ZM14 15.5C14 14.6716 13.3284 14 12.5 14V15C12.7761 15 13 15.2239 13 15.5H14ZM12.5 19C13.3284 19 14 18.3284 14 17.5H13C13 17.7761 12.7761 18 12.5 18V19ZM18.5 22C19.3284 22 20 21.3284 20 20.5H19C19 20.7761 18.7761 21 18.5 21V22ZM5 3.5C5 3.22386 5.22386 3 5.5 3V2C4.67157 2 4 2.67157 4 3.5H5ZM9 16.5C9 16.7761 8.77614 17 8.5 17V18C9.32843 18 10 17.3284 10 16.5H9ZM4 20.5C4 21.3284 4.67157 22 5.5 22V21C5.22386 21 5 20.7761 5 20.5H4ZM8.5 15C8.77614 15 9 15.2239 9 15.5H10C10 14.6716 9.32843 14 8.5 14V15Z" fill="#4A4A4A"/>
</svg>
