<svg width="24" height="24" viewBox="0 0 24 24" fill="none" xmlns="http://www.w3.org/2000/svg">
<path d="M11 20.5C11 20.2239 11.2239 20 11.5 20H12.5C12.7761 20 13 20.2239 13 20.5C13 20.7761 12.7761 21 12.5 21H11.5C11.2239 21 11 20.7761 11 20.5Z" fill="#4A4A4A"/>
<path fill-rule="evenodd" clip-rule="evenodd" d="M19 3C19 1.89543 18.1046 1 17 1H7C5.89543 1 5 1.89543 5 3V21C5 22.1046 5.89543 23 7 23H17C18.1046 23 19 22.1046 19 21V3ZM17 2H7C6.44771 2 6 2.44772 6 3V4H18V3C18 2.44772 17.5523 2 17 2ZM18 18V5H6V18H18ZM6 19H18V21C18 21.5523 17.5523 22 17 22H7C6.44772 22 6 21.5523 6 21V19Z" fill="#4A4A4A"/>
</svg>
