<svg width="24" height="24" viewBox="0 0 24 24" fill="none" xmlns="http://www.w3.org/2000/svg">
<path fill-rule="evenodd" clip-rule="evenodd" d="M20.1629 11H22C22.5523 11 23 10.5523 23 10V8.65685C23 7.59599 22.5687 6.57461 21.6421 6.05811C20.0638 5.1784 17.0139 4 12 4C6.98609 4 3.93619 5.1784 2.35793 6.05811C1.43129 6.57461 1 7.59599 1 8.65685V10C1 10.5523 1.44772 11 2 11H3.83714H5.5C6.32843 11 7 10.3284 7 9.5V8.5C7 8.18301 7.1669 7.92528 7.40112 7.74037C7.62443 7.56407 7.93155 7.43222 8.30594 7.33012C9.05842 7.1249 10.2365 7 12 7C13.7635 7 14.9416 7.1249 15.6941 7.33012C16.0684 7.43222 16.3756 7.56407 16.5989 7.74037C16.8331 7.92528 17 8.18301 17 8.5V9.5C17 10.3284 17.6716 11 18.5 11H20.1629ZM20.4486 12H18.5C17.1193 12 16 10.8807 16 9.5V8.54284C15.9949 8.53813 15.9881 8.53227 15.9792 8.52525C15.9057 8.46718 15.7441 8.38028 15.4309 8.29488C15.0956 8.20342 14.6298 8.12493 14 8.07197V9C14 9.55228 13.5523 10 13 10H11C10.4477 10 10 9.55228 10 9V8.07197C9.37018 8.12493 8.90441 8.20342 8.56906 8.29488C8.25595 8.38028 8.09432 8.46718 8.02076 8.52525C8.01188 8.53227 8.0051 8.53813 8 8.54284V9.5C8 10.8807 6.88071 12 5.5 12H3.55142L2.01924 17.3626C2.00647 17.4073 2 17.4535 2 17.5V18.5C2 19.3284 2.67157 20 3.5 20H20.5C21.3284 20 22 19.3284 22 18.5V17.5C22 17.4535 21.9935 17.4073 21.9808 17.3626L20.4486 12ZM11.5 12C11.2239 12 11 12.2239 11 12.5C11 12.7761 11.2239 13 11.5 13H12.5C12.7761 13 13 12.7761 13 12.5C13 12.2239 12.7761 12 12.5 12H11.5ZM11 14.5C11 14.2239 11.2239 14 11.5 14H12.5C12.7761 14 13 14.2239 13 14.5C13 14.7761 12.7761 15 12.5 15H11.5C11.2239 15 11 14.7761 11 14.5ZM11.5 16C11.2239 16 11 16.2239 11 16.5C11 16.7761 11.2239 17 11.5 17H12.5C12.7761 17 13 16.7761 13 16.5C13 16.2239 12.7761 16 12.5 16H11.5ZM14 12.5C14 12.2239 14.2239 12 14.5 12H15.5C15.7761 12 16 12.2239 16 12.5C16 12.7761 15.7761 13 15.5 13H14.5C14.2239 13 14 12.7761 14 12.5ZM14.5 14C14.2239 14 14 14.2239 14 14.5C14 14.7761 14.2239 15 14.5 15H15.5C15.7761 15 16 14.7761 16 14.5C16 14.2239 15.7761 14 15.5 14H14.5ZM14 16.5C14 16.2239 14.2239 16 14.5 16H15.5C15.7761 16 16 16.2239 16 16.5C16 16.7761 15.7761 17 15.5 17H14.5C14.2239 17 14 16.7761 14 16.5ZM8.5 12C8.22386 12 8 12.2239 8 12.5C8 12.7761 8.22386 13 8.5 13H9.5C9.77614 13 10 12.7761 10 12.5C10 12.2239 9.77614 12 9.5 12H8.5ZM8 14.5C8 14.2239 8.22386 14 8.5 14H9.5C9.77614 14 10 14.2239 10 14.5C10 14.7761 9.77614 15 9.5 15H8.5C8.22386 15 8 14.7761 8 14.5ZM8.5 16C8.22386 16 8 16.2239 8 16.5C8 16.7761 8.22386 17 8.5 17H9.5C9.77614 17 10 16.7761 10 16.5C10 16.2239 9.77614 16 9.5 16H8.5Z" fill="#4A4A4A"/>
</svg>
