<svg width="24" height="24" viewBox="0 0 24 24" fill="none" xmlns="http://www.w3.org/2000/svg">
<path d="M8.5 12C8.22386 12 8 12.2239 8 12.5C8 12.7761 8.22386 13 8.5 13H9.5C9.77614 13 10 12.7761 10 12.5C10 12.2239 9.77614 12 9.5 12H8.5Z" fill="#4A4A4A"/>
<path d="M8.5 14C8.22386 14 8 14.2239 8 14.5C8 14.7761 8.22386 15 8.5 15H9.5C9.77614 15 10 14.7761 10 14.5C10 14.2239 9.77614 14 9.5 14H8.5Z" fill="#4A4A4A"/>
<path d="M14 12.5C14 12.2239 14.2239 12 14.5 12H15.5C15.7761 12 16 12.2239 16 12.5C16 12.7761 15.7761 13 15.5 13H14.5C14.2239 13 14 12.7761 14 12.5Z" fill="#4A4A4A"/>
<path d="M8.5 16C8.22386 16 8 16.2239 8 16.5C8 16.7761 8.22386 17 8.5 17H9.5C9.77614 17 10 16.7761 10 16.5C10 16.2239 9.77614 16 9.5 16H8.5Z" fill="#4A4A4A"/>
<path d="M14 14.5C14 14.2239 14.2239 14 14.5 14H15.5C15.7761 14 16 14.2239 16 14.5C16 14.7761 15.7761 15 15.5 15H14.5C14.2239 15 14 14.7761 14 14.5Z" fill="#4A4A4A"/>
<path d="M14.5 16C14.2239 16 14 16.2239 14 16.5C14 16.7761 14.2239 17 14.5 17H15.5C15.7761 17 16 16.7761 16 16.5C16 16.2239 15.7761 16 15.5 16H14.5Z" fill="#4A4A4A"/>
<path d="M11 12.5C11 12.2239 11.2239 12 11.5 12H12.5C12.7761 12 13 12.2239 13 12.5C13 12.7761 12.7761 13 12.5 13H11.5C11.2239 13 11 12.7761 11 12.5Z" fill="#4A4A4A"/>
<path d="M11.5 14C11.2239 14 11 14.2239 11 14.5C11 14.7761 11.2239 15 11.5 15H12.5C12.7761 15 13 14.7761 13 14.5C13 14.2239 12.7761 14 12.5 14H11.5Z" fill="#4A4A4A"/>
<path d="M11 16.5C11 16.2239 11.2239 16 11.5 16H12.5C12.7761 16 13 16.2239 13 16.5C13 16.7761 12.7761 17 12.5 17H11.5C11.2239 17 11 16.7761 11 16.5Z" fill="#4A4A4A"/>
<path fill-rule="evenodd" clip-rule="evenodd" d="M22 11H20.1629L21.9808 17.3626C21.9935 17.4073 22 17.4535 22 17.5V19.5C22 20.3284 21.3284 21 20.5 21H3.5C2.67157 21 2 20.3284 2 19.5V17.5C2 17.4535 2.00647 17.4073 2.01924 17.3626L3.83714 11H2C1.44772 11 1 10.5523 1 10V7.65685C1 6.59599 1.43129 5.57461 2.35793 5.05811C3.93619 4.1784 6.98609 3 12 3C17.0139 3 20.0638 4.1784 21.6421 5.05811C22.5687 5.57461 23 6.59599 23 7.65685V10C23 10.5523 22.5523 11 22 11ZM2.84479 5.93158C4.26876 5.13789 7.15017 4 12 4C16.8498 4 19.7312 5.13789 21.1552 5.93158C21.6737 6.22059 22 6.84038 22 7.65685V10H19.5112C19.5071 9.99991 19.503 9.99987 19.4989 9.99988C19.4957 9.99989 19.4925 9.99993 19.4892 10H17.9988L17.9988 8.03151C17.9988 7.55027 17.7172 7.23375 17.5478 7.08446C17.3666 6.9247 17.1561 6.81271 16.9758 6.73247C16.6068 6.56825 16.1358 6.43855 15.637 6.33667C14.6253 6.13001 13.3078 6 12 6C10.6922 6 9.37442 6.13001 8.36243 6.33666C7.86355 6.43853 7.39244 6.56822 7.0233 6.73241C6.84294 6.81262 6.63244 6.92459 6.45118 7.08431C6.28184 7.23352 6 7.55008 6 8.03151V10H4.51076C4.5034 9.99984 4.49606 9.99984 4.48875 10H2V7.65685C2 6.84038 2.32629 6.22059 2.84479 5.93158ZM17.9988 11H19.1228L21 17.57V19.5C21 19.7761 20.7761 20 20.5 20H3.5C3.22386 20 3 19.7761 3 19.5V17.57L4.87715 11H6C6.55228 11 7 10.5524 7 10.0001V8.03151C7 7.72627 7.8245 7.43143 9 7.23571V7.5C9 8.32843 9.67157 9 10.5 9H13.5C14.3284 9 15 8.32843 15 7.5V7.23579C16.1749 7.43151 16.9988 7.72631 16.9988 8.03151V10.0001C16.9988 10.5524 17.4465 11 17.9988 11ZM14 7.10263C13.3675 7.03741 12.6838 7 12 7C11.3163 7 10.6326 7.0374 10 7.10261V7.5C10 7.77614 10.2239 8 10.5 8H13.5C13.7761 8 14 7.77614 14 7.5V7.10263Z" fill="#4A4A4A"/>
</svg>
