<svg width="24" height="24" viewBox="0 0 24 24" fill="none" xmlns="http://www.w3.org/2000/svg">
<path fill-rule="evenodd" clip-rule="evenodd" d="M16.5494 13.6662C17.0795 13.6662 17.5797 13.8961 17.9945 14.3259L20.3416 16.6711C20.7734 17.0968 21 17.6033 21 18.131C21 18.6546 20.7777 19.1653 20.3544 19.6037C20.1706 19.7952 19.9825 19.9783 19.7986 20.1528L19.7389 20.2103C19.4914 20.4485 19.2563 20.6749 19.0505 20.9232C19.0483 20.9274 19.0451 20.9306 19.0419 20.9338C19.0387 20.937 19.0355 20.9402 19.0334 20.9444C18.3835 21.6467 17.5541 22 16.5665 22C16.481 22 16.3869 21.9957 16.2972 21.9915C14.8307 21.8979 13.5182 21.3488 12.5349 20.8849C9.96113 19.6463 7.70804 17.8884 5.83545 15.6624C4.29206 13.8152 3.25743 12.0914 2.56483 10.2314C2.28266 9.47379 1.91498 8.31608 2.01759 7.07325C2.086 6.30287 2.3981 5.63889 2.94534 5.09409L4.39894 3.63418L4.40749 3.62567C4.83503 3.21707 5.33951 3 5.8611 3C6.38269 3 6.87863 3.21707 7.29333 3.62567C7.57123 3.88105 7.84057 4.15345 8.09709 4.41734C8.22535 4.55354 8.36216 4.68974 8.4947 4.82168L9.66186 5.98365C10.5597 6.87746 10.5597 8.03517 9.66186 8.92899C9.60203 8.98855 9.5422 9.04917 9.48238 9.1098C9.42252 9.17045 9.36259 9.23118 9.30273 9.29077L9.21091 9.38349C8.92343 9.67392 8.62761 9.97278 8.31086 10.2612C8.57165 10.8358 8.93078 11.4019 9.46519 12.0744C10.5682 13.4236 11.7183 14.4664 12.9838 15.2666C13.1078 15.3432 13.2531 15.4155 13.407 15.4922C13.4433 15.5109 13.48 15.5297 13.5171 15.5486C13.5892 15.5854 13.6629 15.6231 13.7362 15.6624L15.0872 14.3217C15.519 13.8918 16.0235 13.6662 16.5494 13.6662Z" fill="#4A4A4A"/>
<path d="M21.2891 10C20.5088 6.35852 17.6415 3.49122 14 2.71094" stroke="#4A4A4A" stroke-width="2" stroke-linecap="round"/>
<path d="M12.8423 6.98413C14.8676 7.46673 16.5509 8.90439 17.3444 10.8293" stroke="#4A4A4A" stroke-width="2" stroke-linecap="round"/>
</svg>
