<svg width="24" height="24" viewBox="0 0 24 24" fill="none" xmlns="http://www.w3.org/2000/svg">
<path fill-rule="evenodd" clip-rule="evenodd" d="M19.1358 4.86525C20.6499 6.37991 21.6353 8.28324 21.9918 10.3749C22.0438 10.6674 21.8435 10.9479 21.5511 10.992C21.5479 10.9924 21.5447 10.9928 21.5416 10.9932C21.5134 10.9968 21.4878 11 21.459 11C21.1987 11 20.9703 10.8157 20.9263 10.5512C20.6098 8.68394 19.7286 6.98096 18.3747 5.62659C17.0208 4.27622 15.3185 3.39067 13.4519 3.07411C13.1554 3.02202 12.9592 2.74554 13.0072 2.44902C13.0593 2.15651 13.3357 1.95616 13.6281 2.00825C15.719 2.36487 17.6217 3.3506 19.1358 4.86525ZM16.5494 13.6662C17.0795 13.6662 17.5797 13.8961 17.9945 14.3259L20.3416 16.6711C20.7734 17.0968 21 17.6033 21 18.131C21 18.6546 20.7777 19.1653 20.3544 19.6037C20.1706 19.7952 19.9825 19.9783 19.7986 20.1528L19.7389 20.2103L19.7389 20.2103C19.4914 20.4485 19.2563 20.6749 19.0505 20.9232C19.0483 20.9274 19.0451 20.9306 19.0419 20.9338C19.0387 20.937 19.0355 20.9402 19.0334 20.9444C18.3835 21.6467 17.5541 22 16.5665 22C16.481 22 16.3869 21.9957 16.2972 21.9915C14.8307 21.8979 13.5182 21.3488 12.5349 20.8849C9.96113 19.6463 7.70804 17.8884 5.83545 15.6624C4.29206 13.8152 3.25743 12.0914 2.56483 10.2314C2.28266 9.47379 1.91498 8.31608 2.01759 7.07325C2.086 6.30287 2.3981 5.63889 2.94534 5.09409L4.39894 3.63418L4.40749 3.62567C4.83503 3.21707 5.33951 3 5.8611 3C6.38269 3 6.87863 3.21707 7.29333 3.62567C7.57123 3.88105 7.84057 4.15345 8.09709 4.41734C8.22535 4.55354 8.36216 4.68974 8.4947 4.82168L9.66186 5.98365C10.5597 6.87746 10.5597 8.03517 9.66186 8.92899C9.60203 8.98855 9.5422 9.04917 9.48238 9.1098L9.4823 9.10988C9.42244 9.17053 9.36259 9.23118 9.30273 9.29077L9.21091 9.38349L9.2109 9.3835C8.92342 9.67393 8.62761 9.97278 8.31086 10.2612C8.57165 10.8358 8.93078 11.4019 9.46519 12.0744C10.5682 13.4236 11.7183 14.4664 12.9838 15.2666C13.1078 15.3432 13.2531 15.4155 13.407 15.4922C13.4433 15.5109 13.48 15.5297 13.5171 15.5486L13.5171 15.5486L13.5175 15.5488C13.5896 15.5857 13.6629 15.6231 13.7362 15.6624L15.0872 14.3217C15.519 13.8918 16.0235 13.6662 16.5494 13.6662ZM19.1009 19.2326C19.2483 19.0899 19.3881 18.9546 19.525 18.8078C19.9611 18.3566 19.9611 17.9097 19.5207 17.4756L17.165 15.1304L17.1565 15.1219C17.024 14.9771 16.8059 14.8112 16.5408 14.8112C16.2715 14.8112 16.0406 14.9857 15.8953 15.1304L14.4331 16.586C14.3604 16.6584 14.1381 16.8797 13.7833 16.8797C13.6422 16.8797 13.5054 16.8457 13.36 16.7733C13.3515 16.769 13.3429 16.7637 13.3344 16.7584L13.3343 16.7584C13.3258 16.7531 13.3172 16.7478 13.3087 16.7435C13.1847 16.6669 13.0394 16.5946 12.8855 16.518L12.8855 16.5179L12.8854 16.5179C12.7144 16.4328 12.5349 16.3434 12.3596 16.2327C10.9872 15.3687 9.74309 14.2408 8.5631 12.7937L8.55883 12.7894C7.90898 11.968 7.48145 11.2784 7.1779 10.5464L7.16507 10.5081C7.08812 10.2655 7.01971 9.90793 7.38739 9.54189C7.39015 9.53639 7.39469 9.53267 7.39987 9.52843L7.39988 9.52843C7.40271 9.5261 7.40574 9.52362 7.40877 9.52061C7.78072 9.18862 8.12275 8.84812 8.48187 8.48208C8.56435 8.4028 8.64494 8.32163 8.72615 8.23984L8.7262 8.23979C8.76705 8.19865 8.80806 8.15734 8.84955 8.11604C9.30273 7.66487 9.30273 7.24776 8.84955 6.79659L7.68239 5.63463C7.6146 5.56504 7.54681 5.49649 7.47954 5.42846L7.47938 5.4283L7.4793 5.42822L7.47927 5.42819L7.47911 5.42803C7.41076 5.35891 7.34296 5.29034 7.27623 5.22177C7.01544 4.95363 6.76747 4.70251 6.50668 4.4599L6.49385 4.44713C6.35704 4.31093 6.139 4.14919 5.86965 4.14919C5.65161 4.14919 5.4293 4.2556 5.2198 4.45139L3.76192 5.90278C3.40707 6.25605 3.21468 6.66891 3.17193 7.16689C3.1078 7.94579 3.25316 8.7715 3.65076 9.83132C4.29634 11.5679 5.27111 13.1853 6.72899 14.9346C8.4947 17.0329 10.6195 18.6886 13.0394 19.8548C13.9244 20.2762 15.1043 20.7699 16.3741 20.8508C16.4382 20.8551 16.5066 20.8551 16.5708 20.8551C17.2377 20.8551 17.7465 20.638 18.1783 20.1783C18.4434 19.8676 18.7255 19.591 19.0034 19.3271L19.1009 19.2326ZM13.4669 6.12539C14.5678 6.31029 15.5679 6.83137 16.3662 7.6298C17.1646 8.42822 17.6814 9.42836 17.8705 10.5293C17.9167 10.8067 18.1562 11 18.4294 11C18.4596 11 18.4864 10.9966 18.5159 10.9929L18.5159 10.9929L18.526 10.9916C18.8369 10.9412 19.0428 10.647 18.9924 10.336C18.7655 9.00393 18.1352 7.78948 17.173 6.82717C16.2108 5.86485 14.9964 5.23452 13.6644 5.00759C13.3535 4.95717 13.0635 5.16308 13.0089 5.46984C12.9543 5.77661 13.156 6.07497 13.4669 6.12539Z" fill="#4A4A4A"/>
</svg>
