<svg width="24" height="24" viewBox="0 0 24 24" fill="none" xmlns="http://www.w3.org/2000/svg">
<path d="M6.5 6.5V7C6.77614 7 7 6.77614 7 6.5H6.5ZM17.5 6.5H17C17 6.77614 17.2239 7 17.5 7V6.5ZM18.5 8C18.2239 8 18 8.22386 18 8.5C18 8.77614 18.2239 9 18.5 9V8ZM19.5 9C19.7761 9 20 8.77614 20 8.5C20 8.22386 19.7761 8 19.5 8V9ZM7.5 12.5L7.14645 12.8536C7.34171 13.0488 7.65829 13.0488 7.85355 12.8536L7.5 12.5ZM8.85355 11.8536C9.04882 11.6583 9.04882 11.3417 8.85355 11.1464C8.65829 10.9512 8.34171 10.9512 8.14645 11.1464L8.85355 11.8536ZM6.85355 11.1464C6.65829 10.9512 6.34171 10.9512 6.14645 11.1464C5.95118 11.3417 5.95118 11.6583 6.14645 11.8536L6.85355 11.1464ZM16.5 11.5L16.8536 11.1464C16.6583 10.9512 16.3417 10.9512 16.1464 11.1464L16.5 11.5ZM15.1464 12.1464C14.9512 12.3417 14.9512 12.6583 15.1464 12.8536C15.3417 13.0488 15.6583 13.0488 15.8536 12.8536L15.1464 12.1464ZM17.1464 12.8536C17.3417 13.0488 17.6583 13.0488 17.8536 12.8536C18.0488 12.6583 18.0488 12.3417 17.8536 12.1464L17.1464 12.8536ZM17 12C17 11.7239 16.7761 11.5 16.5 11.5C16.2239 11.5 16 11.7239 16 12H17ZM7 12C7 12.2761 7.22386 12.5 7.5 12.5C7.77614 12.5 8 12.2761 8 12H7ZM8.74646 14.3275C8.58558 14.1031 8.27322 14.0515 8.04878 14.2124C7.82434 14.3733 7.77281 14.6856 7.93369 14.9101L8.74646 14.3275ZM15.2834 9.71467C15.4413 9.94116 15.753 9.9967 15.9795 9.83872C16.206 9.68074 16.2615 9.36907 16.1035 9.14258L15.2834 9.71467ZM3.5 7H6.5V6H3.5V7ZM7 6.5V5.5H6V6.5H7ZM7.5 5H16.5V4H7.5V5ZM17 5.5V6.5H18V5.5H17ZM17.5 7H20.5V6H17.5V7ZM21 7.5V18.5H22V7.5H21ZM20.5 19H3.5V20H20.5V19ZM3 18.5V7.5H2V18.5H3ZM18.5 9H19.5V8H18.5V9ZM7.85355 12.8536L8.85355 11.8536L8.14645 11.1464L7.14645 12.1464L7.85355 12.8536ZM7.85355 12.1464L6.85355 11.1464L6.14645 11.8536L7.14645 12.8536L7.85355 12.1464ZM16.1464 11.1464L15.1464 12.1464L15.8536 12.8536L16.8536 11.8536L16.1464 11.1464ZM16.1464 11.8536L17.1464 12.8536L17.8536 12.1464L16.8536 11.1464L16.1464 11.8536ZM16 12C16 14.2091 14.2091 16 12 16V17C14.7614 17 17 14.7614 17 12H16ZM8 12C8 9.79086 9.79086 8 12 8V7C9.23858 7 7 9.23858 7 12H8ZM12 16C10.6596 16 9.47307 15.3412 8.74646 14.3275L7.93369 14.9101C8.84004 16.1745 10.3236 17 12 17V16ZM12 8C13.3589 8 14.5597 8.67714 15.2834 9.71467L16.1035 9.14258C15.2009 7.84842 13.6996 7 12 7V8ZM3.5 19C3.22386 19 3 18.7761 3 18.5H2C2 19.3284 2.67157 20 3.5 20V19ZM21 18.5C21 18.7761 20.7761 19 20.5 19V20C21.3284 20 22 19.3284 22 18.5H21ZM16.5 5C16.7761 5 17 5.22386 17 5.5H18C18 4.67157 17.3284 4 16.5 4V5ZM7 5.5C7 5.22386 7.22386 5 7.5 5V4C6.67157 4 6 4.67157 6 5.5H7ZM20.5 7C20.7761 7 21 7.22386 21 7.5H22C22 6.67157 21.3284 6 20.5 6V7ZM3.5 6C2.67157 6 2 6.67157 2 7.5H3C3 7.22386 3.22386 7 3.5 7V6Z" fill="#4A4A4A"/>
</svg>
