<svg width="24" height="24" viewBox="0 0 24 24" fill="none" xmlns="http://www.w3.org/2000/svg">
<path d="M6.5 6.5V7C6.77614 7 7 6.77614 7 6.5H6.5ZM17.5 6.5H17C17 6.77614 17.2239 7 17.5 7V6.5ZM18.5 8C18.2239 8 18 8.22386 18 8.5C18 8.77614 18.2239 9 18.5 9V8ZM19.5 9C19.7761 9 20 8.77614 20 8.5C20 8.22386 19.7761 8 19.5 8V9ZM3.5 7H6.5V6H3.5V7ZM7 6.5V5.5H6V6.5H7ZM7.5 5H16.5V4H7.5V5ZM17 5.5V6.5H18V5.5H17ZM17.5 7H20.5V6H17.5V7ZM21 7.5V18.5H22V7.5H21ZM20.5 19H3.5V20H20.5V19ZM3 18.5V7.5H2V18.5H3ZM18.5 9H19.5V8H18.5V9ZM16 12C16 14.2091 14.2091 16 12 16V17C14.7614 17 17 14.7614 17 12H16ZM12 8C14.2091 8 16 9.79086 16 12H17C17 9.23858 14.7614 7 12 7V8ZM12 7C9.23858 7 7 9.23858 7 12H8C8 9.79086 9.79086 8 12 8V7ZM3.5 19C3.22386 19 3 18.7761 3 18.5H2C2 19.3284 2.67157 20 3.5 20V19ZM21 18.5C21 18.7761 20.7761 19 20.5 19V20C21.3284 20 22 19.3284 22 18.5H21ZM16.5 5C16.7761 5 17 5.22386 17 5.5H18C18 4.67157 17.3284 4 16.5 4V5ZM7 5.5C7 5.22386 7.22386 5 7.5 5V4C6.67157 4 6 4.67157 6 5.5H7ZM20.5 7C20.7761 7 21 7.22386 21 7.5H22C22 6.67157 21.3284 6 20.5 6V7ZM12 16C9.79086 16 8 14.2091 8 12H7C7 14.7614 9.23858 17 12 17V16ZM3.5 6C2.67157 6 2 6.67157 2 7.5H3C3 7.22386 3.22386 7 3.5 7V6Z" fill="#4A4A4A"/>
</svg>
