<svg width="24" height="24" viewBox="0 0 24 24" fill="none" xmlns="http://www.w3.org/2000/svg">
<path fill-rule="evenodd" clip-rule="evenodd" d="M14.8965 3.39644C15.5059 2.78696 16.4941 2.78696 17.1036 3.39644L20.6036 6.89644C21.213 7.50591 21.213 8.49407 20.6036 9.10354C19.9941 9.71302 19.0059 9.71302 18.3965 9.10355L18.0415 8.74856L14.67 12.9629L14.9394 13.2322C15.9157 14.2085 15.9157 15.7914 14.9394 16.7678L14.8536 16.8535C14.6583 17.0488 14.3417 17.0488 14.1465 16.8535L12 14.7071L6.85357 19.8535C6.79868 19.9084 6.73177 19.9498 6.65813 19.9743L3.65813 20.9743C3.47846 21.0342 3.28038 20.9875 3.14646 20.8535C3.01254 20.7196 2.96578 20.5215 3.02567 20.3419L4.02567 17.3419C4.05022 17.2682 4.09157 17.2013 4.14646 17.1464L9.29291 12L7.14646 9.85354C6.9512 9.65828 6.9512 9.3417 7.14646 9.14644L7.23225 9.06065C8.20856 8.08434 9.79147 8.08434 10.7678 9.06065L11.0371 9.32999L15.2514 5.95853L14.8965 5.60354C14.287 4.99407 14.287 4.00591 14.8965 3.39644Z" fill="#4A4A4A"/>
</svg>
