<svg width="24" height="24" viewBox="0 0 24 24" fill="none" xmlns="http://www.w3.org/2000/svg">
<path d="M3.5 20.5L3.02566 20.3419C2.96577 20.5216 3.01253 20.7196 3.14645 20.8536C3.28036 20.9875 3.47845 21.0342 3.65811 20.9743L3.5 20.5ZM4.5 17.5L4.14645 17.1464C4.09156 17.2013 4.0502 17.2682 4.02566 17.3419L4.5 17.5ZM7.5 9.5L7.14645 9.14645C6.95118 9.34171 6.95118 9.65829 7.14645 9.85355L7.5 9.5ZM14.5 16.5L14.1464 16.8536C14.3417 17.0488 14.6583 17.0488 14.8536 16.8536L14.5 16.5ZM6.5 19.5L6.65811 19.9743C6.73175 19.9498 6.79867 19.9084 6.85355 19.8536L6.5 19.5ZM20.25 7.25L19.8964 7.60355L20.25 7.25ZM3.97434 20.6581L4.97434 17.6581L4.02566 17.3419L3.02566 20.3419L3.97434 20.6581ZM4.85355 17.8536L10.3536 12.3536L9.64645 11.6464L4.14645 17.1464L4.85355 17.8536ZM10.3536 11.6464L7.85355 9.14645L7.14645 9.85355L9.64645 12.3536L10.3536 11.6464ZM7.85355 9.85355L7.93934 9.76777L7.23223 9.06066L7.14645 9.14645L7.85355 9.85355ZM14.2322 16.0607L14.1464 16.1464L14.8536 16.8536L14.9393 16.7678L14.2322 16.0607ZM14.8536 16.1464L12.3536 13.6464L11.6464 14.3536L14.1464 16.8536L14.8536 16.1464ZM11.6464 13.6464L6.14645 19.1464L6.85355 19.8536L12.3536 14.3536L11.6464 13.6464ZM6.34189 19.0257L3.34189 20.0257L3.65811 20.9743L6.65811 19.9743L6.34189 19.0257ZM9.64645 12.3536L11.6464 14.3536L12.3536 13.6464L10.3536 11.6464L9.64645 12.3536ZM16.3964 4.10355L19.8964 7.60355L20.6036 6.89645L17.1036 3.39645L16.3964 4.10355ZM10.0607 9.76777L10.6464 10.3536L11.3536 9.64645L10.7678 9.06066L10.0607 9.76777ZM16.3536 5.64645L15.6036 4.89645L14.8964 5.60355L15.6464 6.35355L16.3536 5.64645ZM11.3123 10.3904L16.3123 6.39043L15.6877 5.60957L10.6877 9.60957L11.3123 10.3904ZM10.6464 10.3536L13.6464 13.3536L14.3536 12.6464L11.3536 9.64645L10.6464 10.3536ZM13.6464 13.3536L14.2322 13.9393L14.9393 13.2322L14.3536 12.6464L13.6464 13.3536ZM19.1036 8.39645L18.3536 7.64645L17.6464 8.35355L18.3964 9.10355L19.1036 8.39645ZM18.3536 7.64645L16.3536 5.64645L15.6464 6.35355L17.6464 8.35355L18.3536 7.64645ZM14.3904 13.3123L18.3904 8.31235L17.6096 7.68765L13.6096 12.6877L14.3904 13.3123ZM14.8964 3.39645C14.287 4.00592 14.287 4.99408 14.8964 5.60355L15.6036 4.89645C15.3846 4.6775 15.3846 4.3225 15.6036 4.10355L14.8964 3.39645ZM19.8964 8.39645C19.6775 8.6154 19.3225 8.6154 19.1036 8.39645L18.3964 9.10355C19.0059 9.71303 19.9941 9.71303 20.6036 9.10355L19.8964 8.39645ZM19.8964 7.60355C20.1154 7.8225 20.1154 8.17749 19.8964 8.39645L20.6036 9.10355C21.213 8.49408 21.213 7.50592 20.6036 6.89645L19.8964 7.60355ZM14.9393 16.7678C15.9156 15.7915 15.9157 14.2085 14.9393 13.2322L14.2322 13.9393C14.818 14.5251 14.818 15.4749 14.2322 16.0607L14.9393 16.7678ZM17.1036 3.39645C16.4941 2.78697 15.5059 2.78697 14.8964 3.39645L15.6036 4.10355C15.8225 3.8846 16.1775 3.8846 16.3964 4.10355L17.1036 3.39645ZM7.93934 9.76777C8.52513 9.18198 9.47487 9.18198 10.0607 9.76777L10.7678 9.06066C9.79146 8.08435 8.20854 8.08435 7.23223 9.06066L7.93934 9.76777Z" fill="#4A4A4A"/>
</svg>
