<svg width="24" height="24" viewBox="0 0 24 24" fill="none" xmlns="http://www.w3.org/2000/svg">
<path d="M10 4C10 3.44772 10.4477 3 11 3H20C20.5523 3 21 3.44772 21 4V7C21 7.55228 20.5523 8 20 8H11C10.4477 8 10 7.55228 10 7V4Z" fill="#4A4A4A"/>
<path d="M7 10C7 9.44772 7.44772 9 8 9H20C20.5523 9 21 9.44772 21 10V13C21 13.5523 20.5523 14 20 14H8C7.44772 14 7 13.5523 7 13V10Z" fill="#4A4A4A"/>
<path d="M4 15C3.44772 15 3 15.4477 3 16V19C3 19.5523 3.44772 20 4 20H20C20.5523 20 21 19.5523 21 19V16C21 15.4477 20.5523 15 20 15H4Z" fill="#4A4A4A"/>
</svg>
