<svg width="24" height="24" viewBox="0 0 24 24" fill="none" xmlns="http://www.w3.org/2000/svg">
<path d="M13 10C12.4477 10 12 10.4477 12 11C12 11.5523 12.4477 12 13 12H16C16.5523 12 17 11.5523 17 11C17 10.4477 16.5523 10 16 10H13Z" fill="#4A4A4A"/>
<path d="M19 17C19 16.4477 19.4477 16 20 16C20.5523 16 21 16.4477 21 17C21 17.5523 20.5523 18 20 18C19.4477 18 19 17.5523 19 17Z" fill="#4A4A4A"/>
<path d="M11 13C10.4477 13 10 13.4477 10 14C10 14.5523 10.4477 15 11 15H12V16C12 16.5523 12.4477 17 13 17C13.5523 17 14 16.5523 14 16V15H16V17C16 17.5523 16.4477 18 17 18C17.5523 18 18 17.5523 18 17V15H20C20.5523 15 21 14.5523 21 14V11C21 10.4477 20.5523 10 20 10C19.4477 10 19 10.4477 19 11V13H11Z" fill="#4A4A4A"/>
<path d="M4 10C3.44772 10 3 10.4477 3 11C3 11.5523 3.44772 12 4 12H5V13C5 13.5523 5.44772 14 6 14H8C8.55228 14 9 13.5523 9 13V12H10C10.5523 12 11 11.5523 11 11C11 10.4477 10.5523 10 10 10H4Z" fill="#4A4A4A"/>
<path d="M11 20C11 19.4477 11.4477 19 12 19H13C13.5523 19 14 19.4477 14 20C14 20.5523 13.5523 21 13 21H12C11.4477 21 11 20.5523 11 20Z" fill="#4A4A4A"/>
<path d="M16 19C15.4477 19 15 19.4477 15 20C15 20.5523 15.4477 21 16 21H20C20.5523 21 21 20.5523 21 20C21 19.4477 20.5523 19 20 19H16Z" fill="#4A4A4A"/>
<path fill-rule="evenodd" clip-rule="evenodd" d="M16 3C15.4477 3 15 3.44772 15 4V8C15 8.55228 15.4477 9 16 9H20C20.5523 9 21 8.55228 21 8V4C21 3.44772 20.5523 3 20 3H16ZM17 5H19V7H17V5Z" fill="#4A4A4A"/>
<path fill-rule="evenodd" clip-rule="evenodd" d="M4 3C3.44772 3 3 3.44772 3 4V8C3 8.55228 3.44772 9 4 9H8C8.55228 9 9 8.55228 9 8V4C9 3.44772 8.55228 3 8 3H4ZM7 5H5V7H7V5Z" fill="#4A4A4A"/>
<path fill-rule="evenodd" clip-rule="evenodd" d="M3 16C3 15.4477 3.44772 15 4 15H8C8.55228 15 9 15.4477 9 16V20C9 20.5523 8.55228 21 8 21H4C3.44772 21 3 20.5523 3 20V16ZM5 19V17H7V19H5Z" fill="#4A4A4A"/>
<path d="M11 4C11 3.44772 11.4477 3 12 3C12.5523 3 13 3.44772 13 4V7C13 7.55228 12.5523 8 12 8C11.4477 8 11 7.55228 11 7V4Z" fill="#4A4A4A"/>
</svg>
