<svg width="24" height="24" viewBox="0 0 24 24" fill="none" xmlns="http://www.w3.org/2000/svg">
<path fill-rule="evenodd" clip-rule="evenodd" d="M6.75 4H17.25C17.6642 4 18 4.44772 18 5V7C18 7.55228 17.6642 8 17.25 8H6.75C6.33579 8 6 7.55228 6 7V5C6 4.44772 6.33579 4 6.75 4ZM17.25 9H6.75C6.33579 9 6 9.44771 6 10V12C6 12.5523 6.33579 13 6.75 13H17.25C17.6642 13 18 12.5523 18 12V10C18 9.44771 17.6642 9 17.25 9ZM6.75 14H17.25C17.6642 14 18 14.4477 18 15V17C18 17.5523 17.6642 18 17.25 18H6.75C6.33579 18 6 17.5523 6 17V15C6 14.4477 6.33579 14 6.75 14ZM3 9C2.44772 9 2 9.44772 2 10C2 10.5523 2.44772 11 3 11V18C3 19.5523 4.44772 21 6 21H18C19.5523 21 21 19.5523 21 18V11C21.5523 11 22 10.5523 22 10C22 9.44772 21.5523 9 21 9C19.9477 9 19 9.94772 19 11V18C19 18.4477 18.4477 19 18 19H6C5.55228 19 5 18.4477 5 18V11C5 9.78105 4.21895 9 3 9Z" fill="#4A4A4A"/>
</svg>
