<svg width="24" height="24" viewBox="0 0 24 24" fill="none" xmlns="http://www.w3.org/2000/svg">
<path d="M6.5 4.5V4C6.22386 4 6 4.22386 6 4.5H6.5ZM17.5 4.5H18C18 4.22386 17.7761 4 17.5 4V4.5ZM17.5 7.5V8C17.7761 8 18 7.77614 18 7.5H17.5ZM6.5 7.5H6C6 7.77614 6.22386 8 6.5 8V7.5ZM6.5 9.5V9C6.22386 9 6 9.22386 6 9.5H6.5ZM17.5 9.5H18C18 9.22386 17.7761 9 17.5 9V9.5ZM17.5 12.5V13C17.7761 13 18 12.7761 18 12.5H17.5ZM6.5 12.5H6C6 12.7761 6.22386 13 6.5 13V12.5ZM6.5 14.5V14C6.22386 14 6 14.2239 6 14.5H6.5ZM17.5 14.5H18C18 14.2239 17.7761 14 17.5 14V14.5ZM17.5 17.5V18C17.7761 18 18 17.7761 18 17.5H17.5ZM6.5 17.5H6C6 17.7761 6.22386 18 6.5 18V17.5ZM4 10.5C4 10.2239 3.77614 10 3.5 10C3.22386 10 3 10.2239 3 10.5H4ZM21 10.5C21 10.2239 20.7761 10 20.5 10C20.2239 10 20 10.2239 20 10.5H21ZM6.5 5H17.5V4H6.5V5ZM17 4.5V7.5H18V4.5H17ZM17.5 7H6.5V8H17.5V7ZM7 7.5V4.5H6V7.5H7ZM6.5 10H17.5V9H6.5V10ZM17 9.5V12.5H18V9.5H17ZM17.5 12H6.5V13H17.5V12ZM7 12.5V9.5H6V12.5H7ZM6.5 15H17.5V14H6.5V15ZM17 14.5V17.5H18V14.5H17ZM17.5 17H6.5V18H17.5V17ZM7 17.5V14.5H6V17.5H7ZM3 10.5V12.5H4V10.5H3ZM3 12.5V19.5H4V12.5H3ZM4.5 21H19.5V20H4.5V21ZM21 19.5V12.5H20V19.5H21ZM21 12.5V10.5H20V12.5H21ZM19.5 21C20.3284 21 21 20.3284 21 19.5H20C20 19.7761 19.7761 20 19.5 20V21ZM3 19.5C3 20.3284 3.67157 21 4.5 21V20C4.22386 20 4 19.7761 4 19.5H3Z" fill="#4A4A4A"/>
</svg>
