<svg width="24" height="24" viewBox="0 0 24 24" fill="none" xmlns="http://www.w3.org/2000/svg">
<path fill-rule="evenodd" clip-rule="evenodd" d="M12 22C17.5228 22 22 17.5228 22 12C22 6.47715 17.5228 2 12 2C6.47715 2 2 6.47715 2 12C2 17.5228 6.47715 22 12 22ZM8.88794 7.47996C9.06927 7.31995 9.26794 7.16796 9.48394 7.02396C9.69994 6.87995 9.93327 6.75462 10.1839 6.64795C10.4346 6.54129 10.7066 6.45729 10.9999 6.39596C11.2933 6.33462 11.6106 6.30396 11.9519 6.30396C12.4159 6.30396 12.8386 6.36795 13.2199 6.49595C13.6013 6.62396 13.9279 6.80662 14.1999 7.04395C14.4719 7.28129 14.6826 7.56795 14.8319 7.90395C14.9813 8.23996 15.0559 8.61595 15.0559 9.03195C15.0559 9.43729 14.9973 9.78795 14.8799 10.084C14.7626 10.38 14.6159 10.6373 14.4399 10.856C14.2639 11.0746 14.0706 11.264 13.8599 11.424C13.6493 11.584 13.4506 11.7346 13.2639 11.876C13.0773 12.0173 12.9159 12.156 12.7799 12.292C12.6439 12.428 12.5626 12.5813 12.5359 12.752L12.3519 13.92H10.9999L10.8639 12.616C10.8319 12.3653 10.8679 12.1453 10.9719 11.956C11.0759 11.7666 11.2146 11.5933 11.3879 11.436C11.5613 11.2786 11.7546 11.1266 11.9679 10.98C12.1813 10.8333 12.3813 10.6733 12.5679 10.5C12.7546 10.3266 12.9106 10.132 13.0359 9.91596C13.1613 9.69995 13.2239 9.44262 13.2239 9.14396C13.2239 8.95195 13.1879 8.77996 13.1159 8.62795C13.0439 8.47595 12.9439 8.34529 12.8159 8.23596C12.6879 8.12662 12.5346 8.04262 12.3559 7.98395C12.1773 7.92529 11.9839 7.89596 11.7759 7.89596C11.4719 7.89596 11.2146 7.92929 11.0039 7.99595C10.7933 8.06262 10.6146 8.13729 10.4679 8.21995C10.3213 8.30262 10.1973 8.37729 10.0959 8.44396C9.99461 8.51062 9.90394 8.54395 9.82394 8.54395C9.63194 8.54395 9.49327 8.46396 9.40794 8.30396L8.88794 7.47996ZM10.3999 16.912C10.3999 16.7466 10.4306 16.5893 10.4919 16.44C10.5532 16.2906 10.6372 16.1626 10.7439 16.056C10.8506 15.9493 10.9786 15.864 11.1279 15.8C11.2772 15.736 11.4372 15.704 11.6079 15.704C11.7786 15.704 11.9372 15.736 12.0839 15.8C12.2306 15.864 12.3586 15.9493 12.4679 16.056C12.5772 16.1626 12.6639 16.2906 12.7279 16.44C12.7919 16.5893 12.8239 16.7466 12.8239 16.912C12.8239 17.0826 12.7919 17.2413 12.7279 17.388C12.6639 17.5346 12.5772 17.6613 12.4679 17.768C12.3586 17.8746 12.2306 17.9586 12.0839 18.02C11.9372 18.0813 11.7786 18.112 11.6079 18.112C11.4372 18.112 11.2772 18.0813 11.1279 18.02C10.9786 17.9586 10.8506 17.8746 10.7439 17.768C10.6372 17.6613 10.5532 17.5346 10.4919 17.388C10.4306 17.2413 10.3999 17.0826 10.3999 16.912Z" fill="#4A4A4A"/>
</svg>
