<svg width="24" height="24" viewBox="0 0 24 24" fill="none" xmlns="http://www.w3.org/2000/svg">
<path fill-rule="evenodd" clip-rule="evenodd" d="M22 12C22 17.5 17.5 22 12 22C6.5 22 2 17.5 2 12C2 6.5 6.5 2 12 2C17.5 2 22 6.5 22 12ZM7.53553 10.7929L7.05193 11.2765C7.40249 8.85792 9.48426 7 12 7C14.7614 7 17 9.23858 17 12C17 14.7614 14.7614 17 12 17C11.0707 17 10.2035 16.7474 9.45984 16.3078C8.98442 16.0267 8.37117 16.1843 8.09011 16.6597C7.80905 17.1351 7.96661 17.7484 8.44202 18.0294C9.48542 18.6463 10.7029 19 12 19C15.866 19 19 15.866 19 12C19 8.13401 15.866 5 12 5C8.42573 5 5.47717 7.67883 5.05249 11.1383L4.70711 10.7929C4.31658 10.4024 3.68342 10.4024 3.29289 10.7929C2.90237 11.1834 2.90237 11.8166 3.29289 12.2071L5.41421 14.3284C5.80474 14.719 6.4379 14.719 6.82843 14.3284L8.94975 12.2071C9.34027 11.8166 9.34027 11.1834 8.94975 10.7929C8.55922 10.4024 7.92606 10.4024 7.53553 10.7929Z" fill="#4A4A4A"/>
</svg>
