<svg width="24" height="24" viewBox="0 0 24 24" fill="none" xmlns="http://www.w3.org/2000/svg">
<path fill-rule="evenodd" clip-rule="evenodd" d="M22 12C22 17.5228 17.5228 22 12 22C6.47715 22 2 17.5228 2 12C2 6.47715 6.47715 2 12 2C17.5228 2 22 6.47715 22 12ZM21 12C21 16.9706 16.9706 21 12 21C7.02944 21 3 16.9706 3 12C3 7.02944 7.02944 3 12 3C16.9706 3 21 7.02944 21 12ZM15.5355 7.05025C15.9261 6.65973 16.5592 6.65973 16.9497 7.05025C17.3403 7.44078 17.3403 8.07394 16.9497 8.46447L13.4142 12L16.9497 15.5355C17.3403 15.9261 17.3403 16.5592 16.9497 16.9497C16.5592 17.3403 15.9261 17.3403 15.5355 16.9497L12 13.4142L8.46447 16.9497C8.07394 17.3403 7.44078 17.3403 7.05025 16.9497C6.65973 16.5592 6.65973 15.9261 7.05025 15.5355L10.5858 12L7.05025 8.46447C6.65973 8.07394 6.65973 7.44078 7.05025 7.05025C7.44078 6.65973 8.07394 6.65973 8.46447 7.05025L12 10.5858L15.5355 7.05025Z" fill="#4A4A4A"/>
</svg>
