<svg width="24" height="24" viewBox="0 0 24 24" fill="none" xmlns="http://www.w3.org/2000/svg">
<path fill-rule="evenodd" clip-rule="evenodd" d="M17 9.5C17 11.2105 16.4274 12.7873 15.4633 14.0491L20.7071 19.2929C21.0976 19.6834 21.0976 20.3166 20.7071 20.7071C20.3166 21.0976 19.6834 21.0976 19.2929 20.7071L14.0491 15.4633C12.7873 16.4274 11.2105 17 9.5 17C5.35786 17 2 13.6421 2 9.5C2 5.35786 5.35786 2 9.5 2C13.6421 2 17 5.35786 17 9.5ZM9.5 4C8.94772 4 8.5 4.44772 8.5 5C8.5 5.55228 8.94772 6 9.5 6C11.433 6 13 7.567 13 9.5C13 10.0523 13.4477 10.5 14 10.5C14.5523 10.5 15 10.0523 15 9.5C15 6.46243 12.5376 4 9.5 4Z" fill="#4A4A4A"/>
</svg>
