<svg width="24" height="24" viewBox="0 0 24 24" fill="none" xmlns="http://www.w3.org/2000/svg">
<path d="M13.8536 7.14645C13.6583 6.95118 13.3417 6.95118 13.1464 7.14645L8.5 11.793L6.85355 10.1464L6.78431 10.0886C6.58944 9.9536 6.32001 9.97288 6.14645 10.1464C5.95118 10.3417 5.95118 10.6583 6.14645 10.8536L8.14645 12.8536L8.21569 12.9114C8.41056 13.0464 8.67999 13.0271 8.85355 12.8536L13.8536 7.85355L13.9114 7.78431C14.0464 7.58944 14.0271 7.32001 13.8536 7.14645Z" fill="#4A4A4A"/>
<path fill-rule="evenodd" clip-rule="evenodd" d="M18 10C18 5.58172 14.4183 2 10 2C5.58172 2 2 5.58172 2 10C2 14.4183 5.58172 18 10 18C11.7736 18 13.4125 17.4228 14.7389 16.446L16 17.707V18.5L16.0062 18.5787C16.0227 18.6821 16.0714 18.7785 16.1464 18.8536L19.1464 21.8536L19.2065 21.9048C19.2913 21.9663 19.3939 22 19.5 22C20.8807 22 22 20.8807 22 19.5C22 19.3674 21.9473 19.2402 21.8536 19.1464L18.8536 16.1464L18.7935 16.0952C18.7087 16.0337 18.6061 16 18.5 16H17.707L16.446 14.7389C17.4228 13.4125 18 11.7736 18 10ZM16.8536 17.1464L15.5085 15.8014C15.6086 15.7063 15.7063 15.6086 15.8014 15.5085L17.1464 16.8536L17.2065 16.9048C17.2913 16.9663 17.3939 17 17.5 17H18.293L20.986 19.693L20.973 19.785C20.8576 20.3849 20.3849 20.8576 19.785 20.973L19.693 20.986L17 18.293V17.5L16.9938 17.4213C16.9773 17.3179 16.9286 17.2215 16.8536 17.1464ZM3 10C3 6.13401 6.13401 3 10 3C13.866 3 17 6.13401 17 10C17 13.866 13.866 17 10 17C6.13401 17 3 13.866 3 10Z" fill="#4A4A4A"/>
</svg>
