<svg width="24" height="24" viewBox="0 0 24 24" fill="none" xmlns="http://www.w3.org/2000/svg">
<path d="M14.5 14.5L14.1429 14.1501L14.5 14.5ZM20.1464 20.8536C20.3417 21.0488 20.6583 21.0488 20.8536 20.8536C21.0488 20.6583 21.0488 20.3417 20.8536 20.1464L20.1464 20.8536ZM9.5 16C5.91015 16 3 13.0899 3 9.5H2C2 13.6421 5.35786 17 9.5 17V16ZM3 9.5C3 5.91015 5.91015 3 9.5 3V2C5.35786 2 2 5.35786 2 9.5H3ZM9.5 3C13.0899 3 16 5.91015 16 9.5H17C17 5.35786 13.6421 2 9.5 2V3ZM16 9.5C16 11.2788 15.2869 12.9826 14.1429 14.1501L14.8571 14.8499C16.1875 13.4923 17 11.5358 17 9.5H16ZM14.1429 14.1501C12.9753 15.3416 11.3375 16 9.5 16V17C11.5798 17 13.4837 16.2515 14.8571 14.8499L14.1429 14.1501ZM14.1464 14.8536L20.1464 20.8536L20.8536 20.1464L14.8536 14.1464L14.1464 14.8536Z" fill="#4A4A4A"/>
</svg>
