<svg width="24" height="24" viewBox="0 0 24 24" fill="none" xmlns="http://www.w3.org/2000/svg">
<path fill-rule="evenodd" clip-rule="evenodd" d="M10 2C14.4183 2 18 5.58172 18 10C18 11.7736 17.4228 13.4125 16.446 14.7389L17.707 16H18.5C18.6061 16 18.7087 16.0337 18.7935 16.0952L18.8536 16.1464L21.8536 19.1464C21.9473 19.2402 22 19.3674 22 19.5C22 20.8807 20.8807 22 19.5 22C19.3939 22 19.2913 21.9663 19.2065 21.9048L19.1464 21.8536L16.1464 18.8536C16.0714 18.7785 16.0227 18.6821 16.0062 18.5787L16 18.5V17.707L14.7389 16.446C13.4125 17.4228 11.7736 18 10 18C5.58172 18 2 14.4183 2 10C2 5.58172 5.58172 2 10 2ZM15.5085 15.8014L16.8536 17.1464C16.9286 17.2215 16.9773 17.3179 16.9938 17.4213L17 17.5V18.293L19.693 20.986L19.785 20.973C20.3849 20.8576 20.8576 20.3849 20.973 19.785L20.986 19.693L18.293 17H17.5C17.3939 17 17.2913 16.9663 17.2065 16.9048L17.1464 16.8536L15.8014 15.5085C15.7063 15.6086 15.6086 15.7063 15.5085 15.8014ZM10 3C6.13401 3 3 6.13401 3 10C3 13.866 6.13401 17 10 17C13.866 17 17 13.866 17 10C17 6.13401 13.866 3 10 3ZM11 13C11 13.5523 10.5523 14 10 14C9.44772 14 9 13.5523 9 13C9 12.4477 9.44772 12 10 12C10.5523 12 11 12.4477 11 13ZM10.5044 9.71681L10.8678 6.99123C10.9378 6.46637 10.5295 6 10 6C9.4705 6 9.06218 6.46637 9.13216 6.99123L9.49557 9.71681L9.55806 10.1855L9.60895 10.5671L9.62261 10.6696C9.64783 10.8587 9.80918 11 10 11C10.1908 11 10.3522 10.8587 10.3774 10.6696L10.391 10.5671L10.4419 10.1855L10.5044 9.71681Z" fill="#4A4A4A"/>
</svg>
