<svg width="24" height="24" viewBox="0 0 24 24" fill="none" xmlns="http://www.w3.org/2000/svg">
<path d="M12.2088 1.04569C12.0499 0.972588 11.8616 0.987208 11.7145 1.08955L0.214451 9.08955L0.145272 9.14748C-0.0220271 9.31544 -0.0506428 9.58403 0.0895306 9.78553L0.147468 9.85471C0.315422 10.022 0.584016 10.0506 0.785515 9.91045L12 2.109L23.2145 9.91045L23.2928 9.95516C23.5085 10.0536 23.7703 9.98703 23.9104 9.78553C24.0681 9.55885 24.0122 9.24724 23.7855 9.08955L12.2855 1.08955L12.2088 1.04569Z" fill="#4A4A4A"/>
<path d="M16.4451 13.3216C16.2041 13.5225 16 13.8702 16 14.5V16H17.5C17.7761 16 18 16.2239 18 16.5C18 16.7761 17.7761 17 17.5 17H16V17.5C16 18.1246 15.8074 18.6211 15.5183 19H19.5C19.7761 19 20 19.2239 20 19.5C20 19.7761 19.7761 20 19.5 20H13.5C13.2239 20 13 19.7761 13 19.5C13 19.2239 13.2239 19 13.5 19C13.7328 19 14.1258 18.9056 14.45 18.6625C14.7529 18.4353 15 18.078 15 17.5V17H14.5C14.2239 17 14 16.7761 14 16.5C14 16.2239 14.2239 16 14.5 16H15V14.5C15 13.6298 15.2959 12.9775 15.8049 12.5534C16.2979 12.1426 16.9257 12 17.5 12C18.0743 12 18.7021 12.1426 19.1951 12.5534C19.7041 12.9775 20 13.6298 20 14.5C20 14.7761 19.7761 15 19.5 15C19.2239 15 19 14.7761 19 14.5C19 13.8702 18.7959 13.5225 18.5549 13.3216C18.2979 13.1074 17.9257 13 17.5 13C17.0743 13 16.7021 13.1074 16.4451 13.3216Z" fill="#4A4A4A"/>
<path fill-rule="evenodd" clip-rule="evenodd" d="M3.49998 9C3.74544 9 3.94959 9.17688 3.99193 9.41012L3.99998 9.5V21H10.4994C9.5579 19.7465 8.99998 18.1884 8.99998 16.5C8.99998 12.3579 12.3578 9 16.5 9C20.6421 9 24 12.3579 24 16.5C24 20.6421 20.6421 24 16.5 24C14.5309 24 12.7391 23.2412 11.4009 22H3.49998C3.25452 22 3.05037 21.8231 3.00804 21.5899L2.99998 21.5V9.5C2.99998 9.22386 3.22384 9 3.49998 9ZM9.99998 16.5C9.99998 12.9101 12.9101 10 16.5 10C20.0898 10 23 12.9101 23 16.5C23 20.0899 20.0898 23 16.5 23C12.9101 23 9.99998 20.0899 9.99998 16.5Z" fill="#4A4A4A"/>
</svg>
