<svg width="24" height="24" viewBox="0 0 24 24" fill="none" xmlns="http://www.w3.org/2000/svg">
<path fill-rule="evenodd" clip-rule="evenodd" d="M11.7145 1.08955C11.8616 0.987208 12.0499 0.972588 12.2088 1.04569L12.2855 1.08955L23.7855 9.08955C24.0122 9.24724 24.0681 9.55885 23.9104 9.78553C23.7703 9.98703 23.5085 10.0536 23.2928 9.95516L23.2145 9.91045L12 2.109L0.785515 9.91045C0.584016 10.0506 0.315422 10.022 0.147468 9.85471L0.0895306 9.78553C-0.0506428 9.58403 -0.0220271 9.31544 0.145272 9.14748L0.214451 9.08955L11.7145 1.08955ZM3.99193 9.41012C3.94959 9.17688 3.74544 9 3.49998 9C3.22384 9 2.99998 9.22386 2.99998 9.5V21.5L3.00804 21.5899C3.05037 21.8231 3.25452 22 3.49998 22H11.4009C12.7391 23.2412 14.5309 24 16.5 24C20.6421 24 24 20.6421 24 16.5C24 12.3579 20.6421 9 16.5 9C12.3578 9 8.99998 12.3579 8.99998 16.5C8.99998 18.1884 9.5579 19.7465 10.4994 21H3.99998V9.5L3.99193 9.41012ZM16.5 10C12.9101 10 9.99998 12.9101 9.99998 16.5C9.99998 20.0899 12.9101 23 16.5 23C20.0898 23 23 20.0899 23 16.5C23 12.9101 20.0898 10 16.5 10ZM16.5 19H18C18.7238 19 19 18.7239 19 18C19 17.3244 18.7594 17.0388 18.1388 17.0037L18 17H15C13.7238 17 13 16.2761 13 15C13 13.7819 13.6595 13.0669 14.8294 13.0045L15 13H16V12.5C16 12.2239 16.2238 12 16.5 12C16.7454 12 16.9496 12.1769 16.9919 12.4101L17 12.5V13H18C18.8631 13 19.532 13.4459 19.9472 14.2764C20.0707 14.5234 19.9706 14.8237 19.7236 14.9472C19.4766 15.0707 19.1763 14.9706 19.0528 14.7236C18.8265 14.271 18.5357 14.047 18.1369 14.0067L18 14H16.5H15C14.2761 14 14 14.2761 14 15C14 15.6756 14.2405 15.9612 14.8611 15.9963L15 16H18C19.2761 16 20 16.7239 20 18C20 19.2181 19.3404 19.9331 18.1706 19.9955L18 20H17V20.5C17 20.7761 16.7761 21 16.5 21C16.2545 21 16.0504 20.8231 16.008 20.5899L16 20.5V20H15C14.1369 20 13.468 19.5541 13.0528 18.7236C12.9293 18.4766 13.0294 18.1763 13.2764 18.0528C13.5234 17.9293 13.8237 18.0294 13.9472 18.2764C14.1735 18.729 14.4643 18.953 14.863 18.9933L15 19H16.5Z" fill="#4A4A4A"/>
</svg>
