<svg width="24" height="24" viewBox="0 0 24 24" fill="none" xmlns="http://www.w3.org/2000/svg">
<path d="M7 9.5C7 9.77614 7.22386 10 7.5 10C7.77614 10 8 9.77614 8 9.5H7ZM7.5 6.5V6C7.22386 6 7 6.22386 7 6.5H7.5ZM23.5 6.5H24C24 6.22386 23.7761 6 23.5 6V6.5ZM23.5 17.5V18C23.7761 18 24 17.7761 24 17.5H23.5ZM7.5 17.5H7C7 17.7761 7.22386 18 7.5 18V17.5ZM8 13.5C8 13.2239 7.77614 13 7.5 13C7.22386 13 7 13.2239 7 13.5H8ZM15.5 13.5L15.1707 13.8763C15.3593 14.0412 15.6407 14.0412 15.8293 13.8763L15.5 13.5ZM5.5 17C5.77614 17 6 16.7761 6 16.5C6 16.2239 5.77614 16 5.5 16V17ZM2.5 16C2.22386 16 2 16.2239 2 16.5C2 16.7761 2.22386 17 2.5 17V16ZM0.5 11C0.223858 11 0 11.2239 0 11.5C0 11.7761 0.223858 12 0.5 12V11ZM9.5 12C9.77614 12 10 11.7761 10 11.5C10 11.2239 9.77614 11 9.5 11V12ZM4.5 9C4.77614 9 5 8.77614 5 8.5C5 8.22386 4.77614 8 4.5 8V9ZM1.5 8C1.22386 8 1 8.22386 1 8.5C1 8.77614 1.22386 9 1.5 9V8ZM4.5 14C4.22386 14 4 14.2239 4 14.5C4 14.7761 4.22386 15 4.5 15V14ZM21.6611 8.77341C21.8689 8.59157 21.89 8.27569 21.7081 8.06787C21.5263 7.86005 21.2104 7.83899 21.0026 8.02084L21.6611 8.77341ZM8 9.5V6.5H7V9.5H8ZM7.5 7H23.5V6H7.5V7ZM23 6.5V17.5H24V6.5H23ZM23.5 17H7.5V18H23.5V17ZM15.8293 13.8763L17.962 12.0101L17.3035 11.2576L15.1707 13.1237L15.8293 13.8763ZM23.8535 17.1464L17.9863 11.2803L17.2792 11.9874L23.1465 17.8536L23.8535 17.1464ZM7.17075 6.87629L13.038 12.0101L13.6965 11.2576L7.82925 6.12371L7.17075 6.87629ZM13.038 12.0101L15.1707 13.8763L15.8293 13.1237L13.6965 11.2576L13.038 12.0101ZM7.85352 17.8536L13.7208 11.9874L13.0137 11.2803L7.14648 17.1464L7.85352 17.8536ZM5.5 16H2.5V17H5.5V16ZM0.5 12H9.5V11H0.5V12ZM4.5 8H1.5V9H4.5V8ZM8 17.5V14.5H7V17.5H8ZM8 14.5V13.5H7V14.5H8ZM7.5 14H4.5V15H7.5V14ZM17.962 12.0101L21.6611 8.77341L21.0026 8.02084L17.3035 11.2576L17.962 12.0101Z" fill="#4A4A4A"/>
</svg>
