<svg width="24" height="24" viewBox="0 0 24 24" fill="none" xmlns="http://www.w3.org/2000/svg">
<path fill-rule="evenodd" clip-rule="evenodd" d="M7 6.66681V8.5V10H0.5C0.223858 10 0 10.2239 0 10.5C0 10.7761 0.223858 11 0.5 11H7V12.5V13H4.5C4.22386 13 4 13.2239 4 13.5C4 13.7761 4.22386 14 4.5 14H7V17.3056L12.7627 11.7515L7 6.66681ZM7.72051 18H23.2795L17.485 12.4153L15.8308 13.8749C15.6418 14.0417 15.3582 14.0417 15.1692 13.8749L13.515 12.4153L7.72051 18ZM24 17.3056V6.66681L18.2373 11.7515L24 17.3056ZM23.2443 6H7.75572L13.8308 11.3604L15.5 12.8332L17.1692 11.3604L23.2443 6ZM1 7.5C1 7.22386 1.22386 7 1.5 7H4.5C4.77614 7 5 7.22386 5 7.5C5 7.77614 4.77614 8 4.5 8H1.5C1.22386 8 1 7.77614 1 7.5ZM2 16.5C2 16.2239 2.22386 16 2.5 16H5.5C5.77614 16 6 16.2239 6 16.5C6 16.7761 5.77614 17 5.5 17H2.5C2.22386 17 2 16.7761 2 16.5Z" fill="#4A4A4A"/>
</svg>
