<svg width="24" height="24" viewBox="0 0 24 24" fill="none" xmlns="http://www.w3.org/2000/svg">
<path fill-rule="evenodd" clip-rule="evenodd" d="M12 2C6.47748 2 2 6.47748 2 12C2 17.5232 6.47748 22 12 22C17.5232 22 22 17.5238 22 12C22 6.47748 17.5231 2 12 2ZM5.29218 18.0007C3.86675 16.4084 3 14.3055 3 12C3 7.02924 7.02924 3 12 3C14.3055 3 16.4084 3.86675 18.0007 5.29218L16.356 6.9369C15.2625 6.3599 13.7153 6 12 6C8.68629 6 6 7.34315 6 9V15C6 15.5446 6.29018 16.0552 6.79744 16.4955L5.29218 18.0007ZM7 10.6589V15C7 15.2617 7.17694 15.5372 7.49577 15.7971L11.3124 11.9805C9.51289 11.8779 7.95515 11.3772 7 10.6589ZM12.729 11.9781L8.38613 16.321C9.2854 16.7184 10.5564 17 12 17C14.8323 17 17 15.9161 17 15V10.6589C16.0522 11.3717 14.511 11.8702 12.729 11.9781ZM17 9C17 9.70035 15.7332 10.4987 13.8712 10.8359L16.5042 8.20288C16.8231 8.46282 17 8.73826 17 9ZM15.6139 7.67902C14.7146 7.28158 13.4436 7 12 7C9.16772 7 7 8.08386 7 9C7 9.91614 9.16772 11 12 11C12.0998 11 12.1988 10.9987 12.2969 10.996L15.6139 7.67902ZM17.2026 7.50455C17.7098 7.94478 18 8.45545 18 9V15C18 16.6569 15.3137 18 12 18C10.2847 18 8.73751 17.6401 7.64401 17.0631L5.99929 18.7078C7.59161 20.1333 9.69454 21 12 21C16.9708 21 21 16.9708 21 12C21 9.69454 20.1333 7.59161 18.7078 5.99929L17.2026 7.50455Z" fill="#4A4A4A"/>
</svg>
