<svg width="24" height="24" viewBox="0 0 24 24" fill="none" xmlns="http://www.w3.org/2000/svg">
<path fill-rule="evenodd" clip-rule="evenodd" d="M13.6612 10.9246C13.1192 10.9745 12.5633 11 12 11C9.86264 11 7.83271 10.6326 6.26241 9.95961C5.8266 9.77283 5.39742 9.55022 5 9.28548V18C5 18.3884 5.17219 18.7595 5.48564 19.1001L13.6612 10.9246ZM16.1787 8.40704C15.0125 8.77953 13.5663 9 12 9C8.95216 9 6.35926 8.16519 5.39831 7C5.38795 6.98743 5.37778 6.97483 5.36779 6.96219C5.12931 6.66015 5 6.33655 5 6C5 4.34315 8.13401 3 12 3C15.5984 3 18.5626 4.16365 18.9558 5.66081C18.8981 5.69828 18.8435 5.7423 18.7929 5.79287L16.1787 8.40704ZM17.2671 10.1471L7.2218 20.1924C8.47275 20.6934 10.1528 21 12 21C15.866 21 19 19.6569 19 18V9.28548C18.6026 9.55022 18.1734 9.77283 17.7376 9.95961C17.585 10.025 17.4281 10.0875 17.2671 10.1471Z" fill="#4A4A4A"/>
<path d="M21 3L3 21" stroke="#4A4A4A" stroke-width="2" stroke-linecap="round"/>
</svg>
