<svg width="24" height="24" viewBox="0 0 24 24" fill="none" xmlns="http://www.w3.org/2000/svg">
<path fill-rule="evenodd" clip-rule="evenodd" d="M20.9763 9.90056C21.5737 10.0008 22.0082 10.5147 21.9999 11.1205V12.8795C21.9999 13.4853 21.5654 13.9992 20.9679 14.0994L19.5641 14.3334C19.4221 14.8013 19.2299 15.2567 19.0001 15.6954L19.8273 16.8569C20.1783 17.3499 20.1198 18.0226 19.6936 18.4487L18.4486 19.6938C18.2147 19.9277 17.9055 20.0572 17.5754 20.0572C17.3164 20.0572 17.0657 19.9779 16.8568 19.8274L15.6995 19.0002C15.265 19.23 14.8096 19.418 14.3375 19.5642L14.0994 20.968C13.9991 21.5655 13.4852 22 12.8794 22H11.1163C10.5105 22 9.99661 21.5655 9.89634 20.968L9.66237 19.5642C9.20698 19.4222 8.76411 19.2425 8.34214 19.0211L7.16813 19.8567C6.95924 20.0071 6.71274 20.0865 6.4537 20.0865C6.12364 20.0865 5.81448 19.957 5.58051 19.723L4.33548 18.478C3.90515 18.0518 3.85083 17.3792 4.20178 16.8862L5.02484 15.7414C4.79088 15.3069 4.59869 14.8515 4.45246 14.3835L3.03196 14.1412C2.43451 14.0409 2 13.5271 2 12.9212V11.1623C2 10.5565 2.43451 10.0426 3.03196 9.94234L4.41904 9.70838C4.56109 9.23626 4.74492 8.78087 4.97471 8.34218L4.13911 7.16816C3.78817 6.67516 3.84666 6.00251 4.27281 5.57635L5.52202 4.33131C5.75181 4.09735 6.06515 3.96783 6.39521 3.96783C6.65424 3.96783 6.90492 4.04721 7.11382 4.19762L8.26276 5.02486C8.69727 4.79089 9.15266 4.5987 9.62059 4.45248L9.86292 3.03196C9.96319 2.43451 10.4771 2 11.0829 2H12.8418C13.4476 2 13.9615 2.43451 14.0618 3.03196L14.2957 4.41905C14.7845 4.56528 15.2567 4.76165 15.7079 4.99979L16.8694 4.17255C17.0782 4.02214 17.3247 3.94276 17.5838 3.94276C17.9138 3.94276 18.223 4.07228 18.457 4.30625L19.702 5.55128C20.1323 5.97744 20.1866 6.65009 19.8357 7.1431L19.0085 8.3004C19.2383 8.73491 19.4263 9.19031 19.5725 9.66242L20.9763 9.90056ZM12 16C9.79086 16 8 14.2091 8 12C8 9.79086 9.79086 8 12 8C14.2091 8 16 9.79086 16 12C16 14.2091 14.2091 16 12 16Z" fill="#4A4A4A"/>
</svg>
