<svg width="24" height="24" viewBox="0 0 24 24" fill="none" xmlns="http://www.w3.org/2000/svg">
<path d="M15 13.5V4.5H14V13.5H15ZM13.5 3H4.5V4H13.5V3ZM3 4.5V13.5H4V4.5H3ZM4.5 15H13.5V14H4.5V15ZM3 13.5C3 14.3284 3.67157 15 4.5 15V14C4.22386 14 4 13.7761 4 13.5H3ZM4.5 3C3.67157 3 3 3.67157 3 4.5H4C4 4.22386 4.22386 4 4.5 4V3ZM15 4.5C15 3.67157 14.3284 3 13.5 3V4C13.7761 4 14 4.22386 14 4.5H15ZM14 13.5C14 13.7761 13.7761 14 13.5 14V15C14.3284 15 15 14.3284 15 13.5H14ZM9 14.5C9 11.4624 11.4624 9 14.5 9V8C10.9101 8 8 10.9101 8 14.5H9ZM14.5 20C11.4624 20 9 17.5376 9 14.5H8C8 18.0899 10.9101 21 14.5 21V20ZM20 14.5C20 17.5376 17.5376 20 14.5 20V21C18.0899 21 21 18.0899 21 14.5H20ZM21 14.5C21 10.9101 18.0899 8 14.5 8V9C17.5376 9 20 11.4624 20 14.5H21Z" fill="#4A4A4A"/>
</svg>
