<svg width="24" height="24" viewBox="0 0 24 24" fill="none" xmlns="http://www.w3.org/2000/svg">
<path d="M12 17.5C12 17.7761 12.2239 18 12.5 18C12.7761 18 13 17.7761 13 17.5H12ZM12.5 2.5L12.8536 2.14645C12.6583 1.95118 12.3417 1.95118 12.1464 2.14645L12.5 2.5ZM15.1464 5.85355C15.3417 6.04882 15.6583 6.04882 15.8536 5.85355C16.0488 5.65829 16.0488 5.34171 15.8536 5.14645L15.1464 5.85355ZM9.14645 5.14645C8.95118 5.34171 8.95118 5.65829 9.14645 5.85355C9.34171 6.04882 9.65829 6.04882 9.85355 5.85355L9.14645 5.14645ZM5 11.5C5 11.2239 4.77614 11 4.5 11C4.22386 11 4 11.2239 4 11.5H5ZM4.5 21.5H4C4 21.7761 4.22386 22 4.5 22V21.5ZM20.5 21.5V22C20.7761 22 21 21.7761 21 21.5H20.5ZM21 11.5C21 11.2239 20.7761 11 20.5 11C20.2239 11 20 11.2239 20 11.5H21ZM13 17.5V2.5H12V17.5H13ZM12.1464 2.85355L15.1464 5.85355L15.8536 5.14645L12.8536 2.14645L12.1464 2.85355ZM12.1464 2.14645L9.14645 5.14645L9.85355 5.85355L12.8536 2.85355L12.1464 2.14645ZM4 11.5V21.5H5V11.5H4ZM4.5 22H20.5V21H4.5V22ZM21 21.5V11.5H20V21.5H21Z" fill="#4A4A4A"/>
</svg>
