<svg width="24" height="24" viewBox="0 0 24 24" fill="none" xmlns="http://www.w3.org/2000/svg">
<path fill-rule="evenodd" clip-rule="evenodd" d="M3 3C2.44772 3 2 3.44772 2 4C2 4.55228 2.44772 5 3 5H5V7C5 7.08176 5.01003 7.16321 5.02986 7.24254L6.96922 15L6.45009 17.0766C5.61291 17.3154 5 18.0861 5 19C5 20.1046 5.89543 21 7 21C7.74028 21 8.38663 20.5978 8.73244 20H15.2676C15.6134 20.5978 16.2597 21 17 21C18.1046 21 19 20.1046 19 19C19 17.8954 18.1046 17 17 17C16.2597 17 15.6134 17.4022 15.2676 18H8.73244C8.63896 17.8384 8.52353 17.6911 8.39023 17.5622L8.78078 16H19C19.4589 16 19.8589 15.6877 19.9701 15.2425L21.9701 7.24254C22.0448 6.94379 21.9777 6.6273 21.7882 6.38459C21.5987 6.14187 21.3079 6 21 6H7V4C7 3.44772 6.55228 3 6 3H3ZM8 9.5C8 9.22386 8.22386 9 8.5 9H18.5C18.7761 9 19 9.22386 19 9.5C19 9.77614 18.7761 10 18.5 10H8.5C8.22386 10 8 9.77614 8 9.5ZM9 12.5C9 12.2239 9.22386 12 9.5 12H17.5C17.7761 12 18 12.2239 18 12.5C18 12.7761 17.7761 13 17.5 13H9.5C9.22386 13 9 12.7761 9 12.5Z" fill="#4A4A4A"/>
</svg>
