<svg width="24" height="24" viewBox="0 0 24 24" fill="none" xmlns="http://www.w3.org/2000/svg">
<path fill-rule="evenodd" clip-rule="evenodd" d="M6.8322 8H1.16782C1.2528 8.21784 1.37344 8.47126 1.54103 8.72265C1.96979 9.36579 2.70254 10 4.00001 10C5.29747 10 6.03022 9.36579 6.45898 8.72265C6.62657 8.47126 6.74722 8.21784 6.8322 8ZM3.00001 10.8899V20.5C3.00001 20.7761 3.22387 21 3.50001 21H13.9998V13.5C13.9998 13.2239 14.2237 13 14.4998 13H17.4998C17.776 13 17.9998 13.2239 17.9998 13.5V21H20.5C20.7762 21 21 20.7761 21 20.5V10.8899C20.6964 10.9605 20.3639 11 20 11C18.2975 11 17.2802 10.1342 16.709 9.27735C16.5882 9.09618 16.4873 8.91565 16.4032 8.74399C16.2727 8.93383 16.1164 9.13575 15.9311 9.33786C15.1658 10.1727 13.9134 11 12 11C10.0867 11 8.83424 10.1727 8.06893 9.33786C7.88366 9.13575 7.72735 8.93383 7.59685 8.74399C7.51276 8.91565 7.41181 9.09618 7.29103 9.27735C6.71979 10.1342 5.70254 11 4.00001 11C3.63615 11 3.3036 10.9605 3.00001 10.8899ZM22.8322 8H17.1678C17.2528 8.21784 17.3734 8.47126 17.541 8.72265C17.9698 9.36579 18.7025 10 20 10C21.2975 10 22.0302 9.36579 22.459 8.72265C22.6266 8.47126 22.7472 8.21784 22.8322 8ZM15.6951 8C15.5692 8.20298 15.4042 8.43275 15.1939 8.66214C14.5842 9.32726 13.5867 10 12 10C10.4134 10 9.41578 9.32726 8.80608 8.66214C8.59581 8.43275 8.43086 8.20298 8.30494 8H15.6951ZM15.8901 7H8.10991L8.90991 3H15.0901L15.8901 7ZM16.9099 7H22.75L19.9 3.2C19.8056 3.0741 19.6574 3 19.5 3H16.1099L16.9099 7ZM7.8901 3L7.09011 7H1.25001L4.10001 3.2C4.19444 3.0741 4.34263 3 4.50001 3H7.8901ZM6.00001 13.5C6.00001 13.2239 6.22386 13 6.50001 13H10.5C10.7761 13 11 13.2239 11 13.5V16.5C11 16.7761 10.7761 17 10.5 17H6.50001C6.22386 17 6.00001 16.7761 6.00001 16.5V13.5Z" fill="#4A4A4A"/>
</svg>
