<svg width="24" height="24" viewBox="0 0 24 24" fill="none" xmlns="http://www.w3.org/2000/svg">
<path d="M1.5 7.5L1.1 7.2C1.01802 7.30931 0.984339 7.44742 1.0068 7.5822L1.5 7.5ZM22.5 7.5L22.9743 7.65811C23.0262 7.50246 22.9984 7.33126 22.9 7.2L22.5 7.5ZM19.5 3.5L19.9 3.2C19.8056 3.0741 19.6574 3 19.5 3V3.5ZM4.5 3.5V3C4.34262 3 4.19443 3.0741 4.1 3.2L4.5 3.5ZM3.5 20.5H3C3 20.7761 3.22386 21 3.5 21V20.5ZM20.5 20.5V21C20.7761 21 21 20.7761 21 20.5H20.5ZM20.5 10.1977L20.2912 9.74336L20.5 10.1977ZM6.5 12.5V12C6.22386 12 6 12.2239 6 12.5H6.5ZM10.5 12.5H11C11 12.2239 10.7761 12 10.5 12V12.5ZM10.5 16.5V17C10.7761 17 11 16.7761 11 16.5H10.5ZM6.5 16.5H6C6 16.7761 6.22386 17 6.5 17V16.5ZM13.5 12.5V12C13.2239 12 13 12.2239 13 12.5H13.5ZM17.5 12.5H18C18 12.2239 17.7761 12 17.5 12V12.5ZM22.9 7.2L19.9 3.2L19.1 3.8L22.1 7.8L22.9 7.2ZM4.1 3.2L1.1 7.2L1.9 7.8L4.9 3.8L4.1 3.2ZM1.5 8H8.5V7H1.5V8ZM8.02566 7.65811C8.19021 8.15178 8.46446 8.98838 9.05339 9.69509C9.66295 10.4266 10.5921 11 12 11V10C10.9079 10 10.2537 9.57343 9.82161 9.05491C9.36887 8.51162 9.14312 7.84822 8.97434 7.34189L8.02566 7.65811ZM8.5 8H15.5V7H8.5V8ZM15.5 8H22.5V7H15.5V8ZM12 11C13.4079 11 14.337 10.4266 14.9466 9.69509C15.5355 8.98838 15.8098 8.15178 15.9743 7.65811L15.0257 7.34189C14.8569 7.84822 14.6311 8.51162 14.1784 9.05491C13.7463 9.57343 13.0921 10 12 10V11ZM15.0257 7.65811C15.1902 8.15178 15.4645 8.98838 16.0534 9.69509C16.663 10.4266 17.5921 11 19 11V10C17.9079 10 17.2537 9.57343 16.8216 9.05491C16.3689 8.51162 16.1431 7.84822 15.9743 7.34189L15.0257 7.65811ZM8.0068 7.4178C7.93651 7.83957 7.69612 8.49884 7.21338 9.04328C6.7438 9.57288 6.04213 10 5 10V11C6.35787 11 7.32286 10.4271 7.96162 9.70672C8.58721 9.00116 8.89683 8.16043 8.9932 7.5822L8.0068 7.4178ZM5 10C4.48632 10 4.06121 9.89643 3.70892 9.73441L3.29108 10.6429C3.77893 10.8673 4.34712 11 5 11V10ZM3.70892 9.73441C2.60421 9.22634 2.10338 8.07892 1.9932 7.4178L1.0068 7.5822C1.14894 8.43501 1.77903 9.94752 3.29108 10.6429L3.70892 9.73441ZM3 10.1887V20.5H4V10.1887H3ZM19 11C19.6637 11 20.2289 10.8725 20.7088 10.652L20.2912 9.74336C19.9536 9.89854 19.5325 10 19 10V11ZM20.7088 10.652C22.2302 9.95282 22.7287 8.39512 22.9743 7.65811L22.0257 7.34189C21.7641 8.12641 21.3696 9.2478 20.2912 9.74336L20.7088 10.652ZM21 20.5V10.1977H20V20.5H21ZM9.5 3H4.5V4H9.5V3ZM8.98507 7.62127L9.98507 3.62127L9.01493 3.37873L8.01493 7.37873L8.98507 7.62127ZM19.5 3H14.5V4H19.5V3ZM14.5 3H9.5V4H14.5V3ZM15.9851 7.37873L14.9851 3.37873L14.0149 3.62127L15.0149 7.62127L15.9851 7.37873ZM6.5 13H10.5V12H6.5V13ZM10 12.5V16.5H11V12.5H10ZM10.5 16H6.5V17H10.5V16ZM7 16.5V12.5H6V16.5H7ZM3.5 21H13.5V20H3.5V21ZM13 12.5V20.5H14V12.5H13ZM13.5 13H17.5V12H13.5V13ZM13.5 21H17.5V20H13.5V21ZM17.5 21H20.5V20H17.5V21ZM17 12.5V20.5H18V12.5H17Z" fill="#4A4A4A"/>
</svg>
