<svg width="24" height="24" viewBox="0 0 24 24" fill="none" xmlns="http://www.w3.org/2000/svg">
<path fill-rule="evenodd" clip-rule="evenodd" d="M8.25 19.5C8.80229 19.5 9.25 19.0523 9.25 18.5C9.25 17.9477 8.80229 17.5 8.25 17.5C7.69772 17.5 7.25 17.9477 7.25 18.5C7.25 19.0523 7.69772 19.5 8.25 19.5ZM8.25 20.5C9.35457 20.5 10.25 19.6046 10.25 18.5C10.25 17.3954 9.35457 16.5 8.25 16.5C7.14543 16.5 6.25 17.3954 6.25 18.5C6.25 19.6046 7.14543 20.5 8.25 20.5Z" fill="#4A4A4A"/>
<path fill-rule="evenodd" clip-rule="evenodd" d="M6.25 4C6.25 3.72386 6.02614 3.5 5.75 3.5H2.75C2.47386 3.5 2.25 3.72386 2.25 4C2.25 4.27614 2.47386 4.5 2.75 4.5H5.25V7C5.25 7.05058 5.25767 7.10086 5.27276 7.14914L7.73085 15.015L7.26493 16.8787C7.19795 17.1466 7.36083 17.4181 7.62873 17.4851C7.89663 17.552 8.1681 17.3892 8.23507 17.1213L8.64039 15.5H19.25C19.4794 15.5 19.6794 15.3439 19.7351 15.1213L21.7351 7.12127C21.7724 6.9719 21.7389 6.81365 21.6441 6.69229C21.5493 6.57094 21.404 6.5 21.25 6.5H6.25V4ZM6.43009 7.5H20.6096L18.8596 14.5H8.61759L6.43009 7.5ZM16.25 18C16.25 17.7239 16.0261 17.5 15.75 17.5H9.75C9.47386 17.5 9.25 17.7239 9.25 18C9.25 18.2761 9.47386 18.5 9.75 18.5H15.75C16.0261 18.5 16.25 18.2761 16.25 18Z" fill="#4A4A4A"/>
<path fill-rule="evenodd" clip-rule="evenodd" d="M9.25 10C9.25 9.72386 9.47386 9.5 9.75 9.5H17.75C18.0261 9.5 18.25 9.72386 18.25 10C18.25 10.2761 18.0261 10.5 17.75 10.5H9.75C9.47386 10.5 9.25 10.2761 9.25 10Z" fill="#4A4A4A"/>
<path fill-rule="evenodd" clip-rule="evenodd" d="M10.25 12C10.25 11.7239 10.4739 11.5 10.75 11.5H16.75C17.0261 11.5 17.25 11.7239 17.25 12C17.25 12.2761 17.0261 12.5 16.75 12.5H10.75C10.4739 12.5 10.25 12.2761 10.25 12Z" fill="#4A4A4A"/>
<path fill-rule="evenodd" clip-rule="evenodd" d="M17.25 19.5C17.8023 19.5 18.25 19.0523 18.25 18.5C18.25 17.9477 17.8023 17.5 17.25 17.5C16.6977 17.5 16.25 17.9477 16.25 18.5C16.25 19.0523 16.6977 19.5 17.25 19.5ZM17.25 20.5C18.3546 20.5 19.25 19.6046 19.25 18.5C19.25 17.3954 18.3546 16.5 17.25 16.5C16.1454 16.5 15.25 17.3954 15.25 18.5C15.25 19.6046 16.1454 20.5 17.25 20.5Z" fill="#4A4A4A"/>
</svg>
