<svg width="24" height="24" viewBox="0 0 24 24" fill="none" xmlns="http://www.w3.org/2000/svg">
<path fill-rule="evenodd" clip-rule="evenodd" d="M12 5.00003C12 3.89546 12.8954 3 14 3H16C18.2091 3 20 4.79086 20 7V11H20.5C21.3284 11 22 11.6716 22 12.5C22 13.182 21.5449 13.7576 20.9219 13.9399L20.3118 16.9903C20.0873 18.113 19.1315 18.9335 18 18.9962V20.5C18 20.7762 17.7761 21 17.5 21H15.5C15.2239 21 15 20.7762 15 20.5V19H9V20.5C9 20.7762 8.77614 21 8.5 21H6.5C6.22386 21 6 20.7762 6 20.5V18.9962C4.86853 18.9335 3.91269 18.113 3.68816 16.9903L3.07807 13.9399C2.45505 13.7576 2 13.182 2 12.5C2 11.6716 2.67157 11 3.5 11H18V7C18 5.89543 17.1046 5 16 5H14C15.1411 5.23164 16 6.29055 16 7.50003V8.50003C16 8.77617 15.7761 9.00003 15.5 9.00003H10.5C10.2239 9.00003 10 8.77617 10 8.50003V7.50003C10 6.29055 10.8589 5.23166 12 5.00003Z" fill="#4A4A4A"/>
</svg>
