<svg width="24" height="24" viewBox="0 0 24 24" fill="none" xmlns="http://www.w3.org/2000/svg">
<path d="M17.5 8.5V9C17.7761 9 18 8.77614 18 8.5H17.5ZM13.5 8.5H13C13 8.77614 13.2239 9 13.5 9V8.5ZM6.5 21.5H6C6 21.7761 6.22386 22 6.5 22V21.5ZM8.5 21.5V22C8.77614 22 9 21.7761 9 21.5H8.5ZM15.5 21.5H15C15 21.7761 15.2239 22 15.5 22V21.5ZM17.5 21.5V22C17.7761 22 18 21.7761 18 21.5H17.5ZM3.00971 14.5981L3.68816 17.9903L4.66874 17.7942L3.99029 14.4019L3.00971 14.5981ZM3.5 15H20.5V14H3.5V15ZM20.3118 17.9903L20.9903 14.5981L20.0097 14.4019L19.3313 17.7942L20.3118 17.9903ZM20.5 12H19.5V13H20.5V12ZM19.5 12H3.5V13H19.5V12ZM20 12.5V4.5H19V12.5H20ZM15 4.5V5.5H16V4.5H15ZM17 7.5V8.5H18V7.5H17ZM17.5 8H13.5V9H17.5V8ZM14 8.5V7.5H13V8.5H14ZM6.13961 20H6.5V19H6.13961V20ZM6 19.5V21.5H7V19.5H6ZM6.5 22H8.5V21H6.5V22ZM6.5 20H8.5V19H6.5V20ZM9 21.5V19.5H8V21.5H9ZM8.5 20H15.5V19H8.5V20ZM15 19.5V21.5H16V19.5H15ZM15.5 22H17.5V21H15.5V22ZM15.5 20H17.5V19H15.5V20ZM17.5 20H17.8604V19H17.5V20ZM18 21.5V19.5H17V21.5H18ZM14 7.5C14 6.67157 14.6716 6 15.5 6V5C14.1193 5 13 6.11929 13 7.5H14ZM17.5 2C16.1193 2 15 3.11929 15 4.5H16C16 3.67157 16.6716 3 17.5 3V2ZM20 4.5C20 3.11929 18.8807 2 17.5 2V3C18.3284 3 19 3.67157 19 4.5H20ZM19.3313 17.7942C19.191 18.4953 18.5754 19 17.8604 19V20C19.0521 20 20.0781 19.1589 20.3118 17.9903L19.3313 17.7942ZM22 13.5C22 12.6716 21.3284 12 20.5 12V13C20.7761 13 21 13.2239 21 13.5H22ZM21 13.5C21 13.7761 20.7761 14 20.5 14V15C21.3284 15 22 14.3284 22 13.5H21ZM15.5 6C16.3284 6 17 6.67157 17 7.5H18C18 6.11929 16.8807 5 15.5 5V6ZM2 13.5C2 14.3284 2.67157 15 3.5 15V14C3.22386 14 3 13.7761 3 13.5H2ZM3.68816 17.9903C3.92187 19.1588 4.9479 20 6.13961 20V19C5.42459 19 4.80896 18.4953 4.66874 17.7942L3.68816 17.9903ZM3 13.5C3 13.2239 3.22386 13 3.5 13V12C2.67157 12 2 12.6716 2 13.5H3Z" fill="#4A4A4A"/>
</svg>
