<svg width="24" height="24" viewBox="0 0 24 24" fill="none" xmlns="http://www.w3.org/2000/svg">
<path fill-rule="evenodd" clip-rule="evenodd" d="M6.5 2C6.36479 2 6.24212 2.05367 6.15212 2.14086L6.14645 2.14645L2.14871 6.14419C2.12672 6.16591 2.1068 6.18961 2.0892 6.21497L2.08859 6.21569C2.04727 6.27534 2.02041 6.34198 2.008 6.41071C2.00274 6.43978 2 6.46963 2 6.5V7.5C2 7.77614 2.22386 8 2.5 8H6V10.5V14.5V19H5.5C4.11929 19 3 20.1193 3 21.5C3 21.7761 3.22386 22 3.5 22H10.5C10.7833 22 11.0101 21.7648 10.9997 21.4816L10.9942 21.3324C10.9098 20.1851 10.0778 19.2695 9 19.0501V14.5V10.5V8H20V9.08579L20.0073 9.23404C20.0414 9.57743 20.1932 9.90031 20.4393 10.1464L20.6464 10.3536L20.6853 10.4073C20.7241 10.4849 20.7112 10.5817 20.6464 10.6464C20.5656 10.7273 20.4344 10.7273 20.3536 10.6464L19.8536 10.1464L19.7843 10.0886C19.5894 9.9536 19.32 9.97288 19.1464 10.1464C18.9512 10.3417 18.9512 10.6583 19.1464 10.8536L19.6464 11.3536L19.7445 11.4415C20.2185 11.8229 20.9136 11.7935 21.3536 11.3536C21.825 10.8821 21.825 10.1179 21.3536 9.64645L21.1464 9.43934L21.0952 9.37929C21.0337 9.29448 21 9.19187 21 9.08579V8H21.5C21.7761 8 22 7.77614 22 7.5V6.51133C22.001 6.46954 21.9966 6.42826 21.9875 6.38838C21.973 6.325 21.9465 6.26607 21.9103 6.21424C21.8654 6.14971 21.8052 6.09537 21.7328 6.0574C21.7031 6.04175 21.6716 6.029 21.6386 6.01952L8.65817 2.02553C8.60846 2.00897 8.55528 2 8.5 2H6.5ZM21 7H20.5H9V6.039L21 6.963V7ZM4.1295 5.57724L6 3.7062V5.10961L4.1295 5.57724ZM9 3.17634L17.061 5.65706L9 5.03698V3.17634ZM7 3H8V5H7V3ZM8 6H7V7.5V10H8V7.5V6ZM3 6.89L6 6.14V7H3V6.89ZM7 14V11H8V14H7ZM7 15H8V19H7V15ZM5.5 20C4.8665 20 4.32472 20.3927 4.10484 20.948L4.086 21H9.914C9.71902 20.4538 9.22553 20.0598 8.63733 20.0062L8.5 20H6.5H5.5ZM16.5 10H12.5C12.2239 10 12 10.2239 12 10.5V21.5C12 21.7761 12.2239 22 12.5 22H21.5C21.7761 22 22 21.7761 22 21.5V14.5C22 14.3674 21.9473 14.2402 21.8536 14.1464L20.8536 13.1464L20.7935 13.0952C20.7087 13.0337 20.6061 13 20.5 13H19V12.5L18.9913 12.407C18.9626 12.2554 18.8648 12.1234 18.7236 12.0528L17 11.191V10.5C17 10.2239 16.7761 10 16.5 10ZM16 11V11.5L16.0087 11.593C16.0374 11.7446 16.1352 11.8766 16.2764 11.9472L18 12.809V13.5L18.0081 13.5899C18.0504 13.8231 18.2545 14 18.5 14H20.293L21 14.707V21H13V11H16ZM16 19.5C16 19.2239 15.7761 19 15.5 19H14.5L14.4101 19.0081C14.1769 19.0504 14 19.2545 14 19.5C14 19.7761 14.2239 20 14.5 20H15.5L15.5899 19.9919C15.8231 19.9496 16 19.7455 16 19.5ZM15.5 17C15.7761 17 16 17.2239 16 17.5C16 17.7455 15.8231 17.9496 15.5899 17.9919L15.5 18H14.5C14.2239 18 14 17.7761 14 17.5C14 17.2545 14.1769 17.0504 14.4101 17.0081L14.5 17H15.5ZM16 15.5C16 15.2239 15.7761 15 15.5 15H14.5L14.4101 15.0081C14.1769 15.0504 14 15.2545 14 15.5C14 15.7761 14.2239 16 14.5 16H15.5L15.5899 15.9919C15.8231 15.9496 16 15.7455 16 15.5ZM15.5 13C15.7761 13 16 13.2239 16 13.5C16 13.7455 15.8231 13.9496 15.5899 13.9919L15.5 14H14.5C14.2239 14 14 13.7761 14 13.5C14 13.2545 14.1769 13.0504 14.4101 13.0081L14.5 13H15.5ZM19.5899 19.9919C19.8231 19.9496 20 19.7455 20 19.5C20 19.2239 19.7761 19 19.5 19H18.5L18.4101 19.0081C18.1769 19.0504 18 19.2545 18 19.5C18 19.7761 18.2239 20 18.5 20H19.5L19.5899 19.9919ZM20 17.5C20 17.7455 19.8231 17.9496 19.5899 17.9919L19.5 18H18.5C18.2239 18 18 17.7761 18 17.5C18 17.2545 18.1769 17.0504 18.4101 17.0081L18.5 17H19.5C19.7761 17 20 17.2239 20 17.5ZM19.5899 15.9919C19.8231 15.9496 20 15.7455 20 15.5C20 15.2239 19.7761 15 19.5 15H18.5L18.4101 15.0081C18.1769 15.0504 18 15.2545 18 15.5C18 15.7761 18.2239 16 18.5 16H19.5L19.5899 15.9919Z" fill="#4A4A4A"/>
</svg>
