<svg width="24" height="24" viewBox="0 0 24 24" fill="none" xmlns="http://www.w3.org/2000/svg">
<path fill-rule="evenodd" clip-rule="evenodd" d="M9.5 2H15.5C15.7761 2 16 2.22386 16 2.5V4.5C16 4.66718 15.9164 4.82329 15.7773 4.91603C14.8619 5.52635 13.9346 5.88157 13 5.97502V7.05001C14.1411 7.28164 15 8.29052 15 9.5C15 10.3477 14.5781 11.0969 13.9327 11.549L16.6901 14H21.5C21.7761 14 22 14.2239 22 14.5L22 16.063C22 16.2912 21.8456 16.4904 21.6246 16.5472C20.9678 16.7163 20.5 17.3116 20.5 18C20.5 18.6884 20.9678 19.2837 21.6246 19.4528C21.8456 19.5096 22 19.7088 22 19.937L22 21.5C22 21.7761 21.7761 22 21.5 22H2.5C2.2238 22 1.99992 21.7761 2 21.4999L2.00046 19.9367C2.00053 19.7087 2.15489 19.5096 2.37572 19.4527C3.03235 19.2835 3.5 18.6882 3.5 18C3.5 17.3118 3.03235 16.7165 2.37572 16.5473C2.15489 16.4904 2.00053 16.2913 2.00046 16.0633L2 14.5001C1.99992 14.2239 2.2238 14 2.5 14H7.3099L10.5762 11.0966C10.2164 10.6636 10 10.107 10 9.5C10 9.22386 10.2239 9 10.5 9C10.7761 9 11 9.22386 11 9.5C11 9.85203 11.1213 10.1757 11.3243 10.4316L11.6678 10.1263C11.8336 9.97895 12.0729 9.96053 12.257 10.071L12.3322 10.1263L13.1493 10.8526C13.6526 10.6105 14 10.0958 14 9.5C14 8.67157 13.3284 8 12.5 8C12.2239 8 12 7.77614 12 7.5V5.97502C11.0654 5.88157 10.1381 5.52635 9.22265 4.91603C9.08355 4.82329 9 4.66718 9 4.5V2.5C9 2.22386 9.22386 2 9.5 2ZM11.3688 11.73L8.81463 14H15.1845L12.8991 11.9683C12.7692 11.9892 12.6358 12 12.5 12C12.0929 12 11.7084 11.9027 11.3688 11.73ZM16 15H8V21H16V15ZM17 21H21L20.999 20.29L20.8817 20.2367C20.1044 19.8479 19.5702 19.0715 19.5064 18.1798L19.5 18C19.5 17.0338 20.0526 16.178 20.8817 15.7633L20.999 15.709L21 15H17V21ZM7 21V15H2.999L3 15.709L3.11876 15.7635C3.89579 16.1523 4.42987 16.9287 4.49359 17.8202L4.5 18C4.5 18.966 3.94759 19.8217 3.11876 20.2365L3 20.29L2.999 21H7ZM15 4.225V3H10V4.225L10.2784 4.38812C10.9444 4.75249 11.6025 4.95255 12.2554 4.99251L12.5 5C13.2331 5 13.9723 4.79803 14.7216 4.38812L15 4.225Z" fill="#4A4A4A"/>
</svg>
