<svg width="24" height="24" viewBox="0 0 24 24" fill="none" xmlns="http://www.w3.org/2000/svg">
<path fill-rule="evenodd" clip-rule="evenodd" d="M12.3536 7.14645C12.1583 6.95118 11.8417 6.95118 11.6464 7.14645L8.64645 10.1464C8.45118 10.3417 8.45118 10.6583 8.64645 10.8536C8.84171 11.0488 9.15829 11.0488 9.35355 10.8536L12 8.20711L14.6464 10.8536C14.8417 11.0488 15.1583 11.0488 15.3536 10.8536C15.5488 10.6583 15.5488 10.3417 15.3536 10.1464L12.3536 7.14645ZM9.35355 13.1464C9.15829 12.9512 8.84171 12.9512 8.64645 13.1464C8.45118 13.3417 8.45118 13.6583 8.64645 13.8536L11.6464 16.8536C11.8417 17.0488 12.1583 17.0488 12.3536 16.8536L15.3536 13.8536C15.5488 13.6583 15.5488 13.3417 15.3536 13.1464C15.1583 12.9512 14.8417 12.9512 14.6464 13.1464L12 15.7929L9.35355 13.1464Z" fill="#4A4A4A"/>
</svg>
