<svg width="24" height="24" viewBox="0 0 24 24" fill="none" xmlns="http://www.w3.org/2000/svg">
<path fill-rule="evenodd" clip-rule="evenodd" d="M0.000422507 11.4998C-0.0110855 11.7759 0.214007 12 0.49033 12C0.766654 12 0.989471 11.7759 1.00202 11.4999C1.06001 10.2249 1.33931 8.96839 1.82869 7.78692C2.38196 6.4512 3.19291 5.23754 4.21522 4.21523C5.23753 3.19291 6.45119 2.38197 7.78691 1.8287C8.96838 1.33931 10.2249 1.06001 11.4998 1.00203C11.7759 0.989473 12 0.766654 12 0.490331C12 0.214007 11.7759 -0.0110856 11.4998 0.000422513C10.0934 0.0590467 8.70686 0.364536 7.40397 0.904211C5.94685 1.50777 4.62288 2.39242 3.50765 3.50766C2.39242 4.62289 1.50777 5.94686 0.904209 7.40399C0.364535 8.70687 0.0590462 10.0934 0.000422507 11.4998ZM23.9996 12.5002C24.0111 12.2241 23.786 12 23.5097 12C23.2334 12 23.0105 12.2241 22.998 12.5002C22.94 13.7751 22.6607 15.0316 22.1713 16.2131C21.618 17.5488 20.8071 18.7625 19.7848 19.7848C18.7625 20.8071 17.5488 21.618 16.2131 22.1713C15.0316 22.6607 13.7751 22.94 12.5002 22.998C12.2241 23.0105 12 23.2334 12 23.5097C12 23.786 12.2241 24.0111 12.5002 23.9996C13.9066 23.941 15.2931 23.6355 16.596 23.0958C18.0532 22.4922 19.3771 21.6076 20.4924 20.4924C21.6076 19.3771 22.4922 18.0531 23.0958 16.596C23.6355 15.2931 23.941 13.9066 23.9996 12.5002Z" fill="#4A4A4A"/>
</svg>
