<svg width="24" height="24" viewBox="0 0 24 24" fill="none" xmlns="http://www.w3.org/2000/svg">
<path fill-rule="evenodd" clip-rule="evenodd" d="M10 1C9.44772 1 9 1.44772 9 2C9 2.55228 9.44772 3 10 3H12.5C7.25329 3 3 7.25329 3 12.5C3 17.7467 7.25329 22 12.5 22C17.7467 22 22 17.7467 22 12.5C22 7.25329 17.7467 3 12.5 3H15C15.5523 3 16 2.55228 16 2C16 1.44772 15.5523 1 15 1H10ZM12.5 6C12.7761 6 13 6.22386 13 6.5V12.5C13 12.6326 12.9473 12.7598 12.8536 12.8536L9.85355 15.8536C9.65829 16.0488 9.34171 16.0488 9.14645 15.8536C8.95118 15.6583 8.95118 15.3417 9.14645 15.1464L12 12.2929V6.5C12 6.22386 12.2239 6 12.5 6Z" fill="#4A4A4A"/>
</svg>
