<svg width="24" height="24" viewBox="0 0 24 24" fill="none" xmlns="http://www.w3.org/2000/svg">
<path d="M10.5 1C10.2239 1 10 1.22386 10 1.5C10 1.77614 10.2239 2 10.5 2V1ZM14.5 2C14.7761 2 15 1.77614 15 1.5C15 1.22386 14.7761 1 14.5 1V2ZM13 7.5C13 7.22386 12.7761 7 12.5 7C12.2239 7 12 7.22386 12 7.5H13ZM12.5 13.5L12.8536 13.8536C12.9473 13.7598 13 13.6326 13 13.5H12.5ZM9.14645 16.1464C8.95118 16.3417 8.95118 16.6583 9.14645 16.8536C9.34171 17.0488 9.65829 17.0488 9.85355 16.8536L9.14645 16.1464ZM13.5 2H14.5V1H13.5V2ZM13 1.5V4H14V1.5H13ZM10.5 2H11.5V1H10.5V2ZM11.5 2H13.5V1H11.5V2ZM11 1.5V4H12V1.5H11ZM12 7.5V13.5H13V7.5H12ZM12.1464 13.1464L9.14645 16.1464L9.85355 16.8536L12.8536 13.8536L12.1464 13.1464ZM22 12.5C22 7.25329 17.7467 3 12.5 3V4C17.1944 4 21 7.80558 21 12.5H22ZM12.5 22C17.7467 22 22 17.7467 22 12.5H21C21 17.1944 17.1944 21 12.5 21V22ZM3 12.5C3 17.7467 7.25329 22 12.5 22V21C7.80558 21 4 17.1944 4 12.5H3ZM4 12.5C4 7.80558 7.80558 4 12.5 4V3C7.25329 3 3 7.25329 3 12.5H4Z" fill="#4A4A4A"/>
</svg>
