<svg width="24" height="24" viewBox="0 0 24 24" fill="none" xmlns="http://www.w3.org/2000/svg">
<path fill-rule="evenodd" clip-rule="evenodd" d="M12 3.03125C11.7239 3.03125 11.4998 3.25507 11.5001 3.53086V3.53194V6.52705C11.5001 6.80284 11.7239 7.02629 12 7.02629C12.2761 7.02629 12.4999 6.80284 12.4999 6.52705V3.53086C12.4999 3.25507 12.2761 3.03125 12 3.03125ZM19.0708 6.24906C19.2671 6.05412 19.5835 6.05412 19.7783 6.24906C19.9732 6.444 19.9732 6.76038 19.7783 6.95532L17.6573 9.07372V9.0741C17.4624 9.26904 17.1445 9.26904 16.9497 9.0741C16.7549 8.87878 16.7549 8.56278 16.9497 8.36784V8.36746L19.0708 6.25014V6.24906ZM17.9299 15C17.9827 14.6804 18.0103 14.3521 18.0103 14.0172C18.0103 10.7021 15.3194 8.01452 12 8.01452C8.68064 8.01452 5.98973 10.7021 5.98973 14.0172C5.98973 14.3521 6.01731 14.6804 6.07019 15H0.5C0.223858 15 0 15.2238 0 15.5C0 15.7761 0.223857 16 0.5 16H23.5C23.7761 16 24 15.7761 24 15.5C24 15.2238 23.7761 15 23.5 15H17.9299ZM16.9142 15C16.978 14.68 17.0112 14.3513 17.0112 14.0172C17.0112 12.6807 16.4897 11.424 15.5427 10.4789C14.5964 9.53382 13.3381 9.01338 12 9.01338C10.6618 9.01338 9.4035 9.53387 8.45723 10.4789C7.51097 11.424 6.98948 12.6807 6.98948 14.0172C6.98948 14.3513 7.0223 14.68 7.08606 15H16.9142ZM1.5 13H4.5C4.77614 13 4.99988 13.2238 4.99988 13.4988C4.99988 13.7753 4.77614 13.9985 4.5 13.9985H1.5C1.22386 13.9985 1.00013 13.7753 1.00013 13.4988C1.00013 13.2238 1.22386 13 1.5 13ZM22.5 13H22.4985H19.5C19.2246 13 19.0005 13.2238 19.0005 13.4988C19.0005 13.7753 19.2246 13.9985 19.5 13.9985H19.5015H22.5C22.7768 13.9985 22.9995 13.7753 22.9995 13.4988C22.9995 13.2238 22.7768 13 22.5 13ZM7.04991 8.36746L7.05028 8.36784C7.24547 8.56278 7.24547 8.87916 7.05028 9.0741C6.85509 9.26904 6.53831 9.26904 6.34312 9.0741L4.22278 6.95607L4.22222 6.9557L4.22166 6.95532C4.02647 6.76038 4.02647 6.444 4.22166 6.24906C4.41722 6.05412 4.73362 6.05412 4.92881 6.24906L7.04991 8.36746ZM13.359 18.9139C13.1711 19.1095 12.867 19.1095 12.6795 18.9139H12.6791L12.4803 18.7066V20.4997C12.4803 20.7766 12.2652 21 11.9999 21C11.7345 21 11.5191 20.7766 11.5191 20.4997C11.5191 20.4997 11.5192 20.4997 11.5193 20.4995C11.5194 20.4993 11.5195 20.4989 11.5195 20.4982V18.7066L11.3203 18.9139C11.1327 19.1095 10.8283 19.1095 10.6407 18.9139C10.4531 18.7183 10.4531 18.4019 10.6407 18.2071L10.6412 18.2063L10.6417 18.2056L11.6599 17.1465C11.7472 17.0556 11.8672 17 11.9999 17C12.1325 17 12.2525 17.0557 12.3395 17.1465L13.359 18.2071C13.547 18.4019 13.547 18.7183 13.359 18.9139Z" fill="#4A4A4A"/>
</svg>
