<svg width="24" height="24" viewBox="0 0 24 24" fill="none" xmlns="http://www.w3.org/2000/svg">
<path fill-rule="evenodd" clip-rule="evenodd" d="M6.5 2C5.11929 2 4 3.11929 4 4.5V19.5C4 20.8807 5.11929 22 6.5 22H17.5C18.8807 22 20 20.8807 20 19.5V4.5C20 3.11929 18.8807 2 17.5 2H6.5ZM7 5.5C7 5.22386 7.22386 5 7.5 5H9.29289L10.1464 5.85355C10.2402 5.94732 10.3674 6 10.5 6H13.5C13.6326 6 13.7598 5.94732 13.8536 5.85355L14.7071 5H16.5C16.7761 5 17 5.22386 17 5.5V18.5C17 18.7761 16.7761 19 16.5 19H7.5C7.22386 19 7 18.7761 7 18.5V5.5ZM7.5 4C6.67157 4 6 4.67157 6 5.5V18.5C6 19.3284 6.67157 20 7.5 20H16.5C17.3284 20 18 19.3284 18 18.5V5.5C18 4.67157 17.3284 4 16.5 4H14.5C14.3674 4 14.2402 4.05268 14.1464 4.14645L13.2929 5H10.7071L9.85355 4.14645C9.75979 4.05268 9.63261 4 9.5 4H7.5Z" fill="#4A4A4A"/>
</svg>
