<svg width="24" height="24" viewBox="0 0 24 24" fill="none" xmlns="http://www.w3.org/2000/svg">
<path d="M14.5 4.5V5C14.6326 5 14.7598 4.94732 14.8536 4.85355L14.5 4.5ZM9.5 4.5L9.14645 4.85355C9.24021 4.94732 9.36739 5 9.5 5V4.5ZM8.5 3.5L8.85355 3.14645C8.75979 3.05268 8.63261 3 8.5 3V3.5ZM15.5 3.5V3C15.3674 3 15.2402 3.05268 15.1464 3.14645L15.5 3.5ZM4.5 2H19.5V1H4.5V2ZM21 3.5V20.5H22V3.5H21ZM19.5 22H4.5V23H19.5V22ZM3 20.5V3.5H2V20.5H3ZM19 4.5V19.5H20V4.5H19ZM18.5 20H5.5V21H18.5V20ZM5 19.5V4.5H4V19.5H5ZM9.5 5H14.5V4H9.5V5ZM5.5 4H8.5V3H5.5V4ZM8.14645 3.85355L9.14645 4.85355L9.85355 4.14645L8.85355 3.14645L8.14645 3.85355ZM14.8536 4.85355L15.8536 3.85355L15.1464 3.14645L14.1464 4.14645L14.8536 4.85355ZM15.5 4H18.5V3H15.5V4ZM5.5 20C5.22386 20 5 19.7761 5 19.5H4C4 20.3284 4.67157 21 5.5 21V20ZM19 19.5C19 19.7761 18.7761 20 18.5 20V21C19.3284 21 20 20.3284 20 19.5H19ZM20 4.5C20 3.67157 19.3284 3 18.5 3V4C18.7761 4 19 4.22386 19 4.5H20ZM5 4.5C5 4.22386 5.22386 4 5.5 4V3C4.67157 3 4 3.67157 4 4.5H5ZM4.5 22C3.67157 22 3 21.3284 3 20.5H2C2 21.8807 3.11929 23 4.5 23V22ZM21 20.5C21 21.3284 20.3284 22 19.5 22V23C20.8807 23 22 21.8807 22 20.5H21ZM19.5 2C20.3284 2 21 2.67157 21 3.5H22C22 2.11929 20.8807 1 19.5 1V2ZM4.5 1C3.11929 1 2 2.11929 2 3.5H3C3 2.67157 3.67157 2 4.5 2V1Z" fill="#4A4A4A"/>
</svg>
