<svg width="24" height="24" viewBox="0 0 24 24" fill="none" xmlns="http://www.w3.org/2000/svg">
<path fill-rule="evenodd" clip-rule="evenodd" d="M8 3C8 2.44772 8.44772 2 9 2H15C15.5523 2 16 2.44772 16 3L18.8889 3C19.5025 3 20 3.49746 20 4.11111V20.8889C20 21.5025 19.5025 22 18.8889 22H5.11111C4.49746 22 4 21.5025 4 20.8889V4.11111C4 3.49746 4.49746 3 5.11111 3L8 3ZM8 5V4H5V21H19V4H16V5C16 5.55228 15.5523 6 15 6H9C8.44772 6 8 5.55228 8 5ZM15 3H9V5H15V3Z" fill="#4A4A4A"/>
<path d="M7.5 8.5V8C7.22386 8 7 8.22386 7 8.5H7.5ZM16.5 8.5H17C17 8.22386 16.7761 8 16.5 8V8.5ZM16.5 17.5V18C16.7761 18 17 17.7761 17 17.5H16.5ZM7.5 17.5H7C7 17.7761 7.22386 18 7.5 18V17.5ZM14.8536 10.8536C15.0488 10.6583 15.0488 10.3417 14.8536 10.1464C14.6583 9.95118 14.3417 9.95118 14.1464 10.1464L14.8536 10.8536ZM10.5 14.5L10.1464 14.8536C10.3417 15.0488 10.6583 15.0488 10.8536 14.8536L10.5 14.5ZM9.85355 13.1464C9.65829 12.9512 9.34171 12.9512 9.14645 13.1464C8.95118 13.3417 8.95118 13.6583 9.14645 13.8536L9.85355 13.1464ZM7.5 9H16.5V8H7.5V9ZM16 8.5V17.5H17V8.5H16ZM16.5 17H7.5V18H16.5V17ZM8 17.5V8.5H7V17.5H8ZM14.1464 10.1464L10.1464 14.1464L10.8536 14.8536L14.8536 10.8536L14.1464 10.1464ZM10.8536 14.1464L9.85355 13.1464L9.14645 13.8536L10.1464 14.8536L10.8536 14.1464Z" fill="#4A4A4A"/>
</svg>
