<svg width="24" height="24" viewBox="0 0 24 24" fill="none" xmlns="http://www.w3.org/2000/svg">
<path fill-rule="evenodd" clip-rule="evenodd" d="M9 2C9 1.44772 9.44772 1 10 1H14C14.5523 1 15 1.44772 15 2V3C15 3.55228 14.5523 4 14 4H10C9.44772 4 9 3.55228 9 3V2ZM8 2H5.11111C4.49746 2 4 2.52233 4 3.16667V20.8333C4 21.4777 4.49746 22 5.11111 22H18.8889C19.5025 22 20 21.4777 20 20.8333V3.16667C20 2.52233 19.5025 2 18.8889 2H16V3C16 4.10457 15.1046 5 14 5H10C8.89543 5 8 4.10457 8 3V2ZM9.20711 12.7929L10.5 14.0858L15.2929 9.29289C15.6834 8.90237 16.3166 8.90237 16.7071 9.29289C17.0976 9.68342 17.0976 10.3166 16.7071 10.7071L11.2071 16.2071C10.8166 16.5976 10.1834 16.5976 9.79289 16.2071L7.79289 14.2071C7.40237 13.8166 7.40237 13.1834 7.79289 12.7929C8.18342 12.4024 8.81658 12.4024 9.20711 12.7929Z" fill="#4A4A4A"/>
</svg>
