<svg width="24" height="24" viewBox="0 0 24 24" fill="none" xmlns="http://www.w3.org/2000/svg">
<path fill-rule="evenodd" clip-rule="evenodd" d="M15 2.00059V5.5C15 6.32843 15.6716 7 16.5 7H19.9992V16.5918C19.9992 16.8173 19.8093 17 19.5751 17H8.42406C8.1899 17 8 16.8173 8 16.5918V2.40816C8 2.18273 8.1899 2 8.42406 2C8.42406 2 13.0129 2.0003 15 2.00059ZM16 2.01655V5.5C16 5.77614 16.2239 6 16.5 6H19.9992V5.98494C20 5.84861 19.9458 5.74029 19.8594 5.66559L18.6877 4.53776L16.182 2.11992C16.131 2.07065 16.0682 2.03547 16 2.01655ZM15 21V18H14H8.5C7.67157 18 7 17.3284 7 16.5V9V8H4C3.44772 8 3 8.44772 3 9V21C3 21.5523 3.44772 22 4 22H14C14.5523 22 15 21.5523 15 21Z" fill="#4A4A4A"/>
</svg>
