<svg width="24" height="24" viewBox="0 0 24 24" fill="none" xmlns="http://www.w3.org/2000/svg">
<path fill-rule="evenodd" clip-rule="evenodd" d="M19.8594 5.66559L18.6877 4.53776L16.182 2.11992C16.1067 2.04718 16.0057 2.00514 15.8995 2.00082C15.8901 2.00049 8.42406 2 8.42406 2C8.1899 2 8 2.18273 8 2.40816V16.5918C8 16.8173 8.1899 17 8.42406 17H19.5751C19.8093 17 19.9992 16.8173 19.9992 16.5918V5.98494C20 5.84861 19.9458 5.74029 19.8594 5.66559ZM18.6877 5.98494L16 5.96918V3.5L18.6877 5.98494ZM9 3V16H19V7H16C15.4477 7 15 6.55228 15 6V3H9Z" fill="#4A4A4A"/>
<path d="M15 17V21C15 21.5523 14.5523 22 14 22H4C3.44772 22 3 21.5523 3 21V9C3 8.44772 3.44772 8 4 8H8V9H4V21H14V17H15Z" fill="#4A4A4A"/>
</svg>
