<svg width="24" height="24" viewBox="0 0 24 24" fill="none" xmlns="http://www.w3.org/2000/svg">
<path d="M13 6.5C13 6.22386 12.7761 6 12.5 6C12.2239 6 12 6.22386 12 6.5H13ZM12.5 13.5V14C12.7761 14 13 13.7761 13 13.5H12.5ZM7.5 13C7.22386 13 7 13.2239 7 13.5C7 13.7761 7.22386 14 7.5 14V13ZM12 6.5V13.5H13V6.5H12ZM12.5 13H7.5V14H12.5V13ZM22 12C22 6.47715 17.5228 2 12 2V3C16.9706 3 21 7.02944 21 12H22ZM12 22C17.5228 22 22 17.5228 22 12H21C21 16.9706 16.9706 21 12 21V22ZM2 12C2 17.5228 6.47715 22 12 22V21C7.02944 21 3 16.9706 3 12H2ZM3 12C3 7.02944 7.02944 3 12 3V2C6.47715 2 2 6.47715 2 12H3Z" fill="#4A4A4A"/>
</svg>
