<svg width="24" height="24" viewBox="0 0 24 24" fill="none" xmlns="http://www.w3.org/2000/svg">
<path d="M22 10.5V4.70711L23.1465 5.85355C23.3417 6.04882 23.6583 6.04882 23.8536 5.85355C24.0488 5.65829 24.0488 5.34171 23.8536 5.14645L21.8536 3.14645C21.6583 2.95118 21.3417 2.95118 21.1465 3.14645L19.1465 5.14645C18.9512 5.34171 18.9512 5.65829 19.1465 5.85355C19.3417 6.04882 19.6583 6.04882 19.8536 5.85355L21 4.70711V10.5C21 10.7761 21.2239 11 21.5 11C21.7761 11 22 10.7761 22 10.5Z" fill="#4A4A4A"/>
<path d="M22 13.5V19.2929L23.1465 18.1464C23.3417 17.9512 23.6583 17.9512 23.8536 18.1464C24.0488 18.3417 24.0488 18.6583 23.8536 18.8536L21.8536 20.8536C21.6583 21.0488 21.3417 21.0488 21.1465 20.8536L19.1465 18.8536C18.9512 18.6583 18.9512 18.3417 19.1465 18.1464C19.3417 17.9512 19.6583 17.9512 19.8536 18.1464L21 19.2929V13.5C21 13.2239 21.2239 13 21.5 13C21.7761 13 22 13.2239 22 13.5Z" fill="#4A4A4A"/>
<path d="M7.5 10C7.22386 10 7 10.2239 7 10.5C7 10.7761 7.22386 11 7.5 11H15.5C15.7761 11 16 10.7761 16 10.5C16 10.2239 15.7761 10 15.5 10H7.5Z" fill="#4A4A4A"/>
<path d="M8 12.5C8 12.2239 8.22386 12 8.5 12H14.5C14.7761 12 15 12.2239 15 12.5C15 12.7761 14.7761 13 14.5 13H8.5C8.22386 13 8 12.7761 8 12.5Z" fill="#4A4A4A"/>
<path fill-rule="evenodd" clip-rule="evenodd" d="M8 19C8 20.1046 7.10457 21 6 21C4.89543 21 4 20.1046 4 19C4 18.2394 4.42458 17.578 5.04967 17.2398L5.48085 15.515L3.02276 7.64914C3.00768 7.60086 3 7.55058 3 7.5V5H0.5C0.223858 5 0 4.77614 0 4.5C0 4.22386 0.223858 4 0.5 4H3.5C3.77614 4 4 4.22386 4 4.5V7H19C19.154 7 19.2993 7.07094 19.3941 7.19229C19.4889 7.31365 19.5224 7.4719 19.4851 7.62127L17.4851 15.6213C17.4294 15.8439 17.2294 16 17 16H6.39039L6.1392 17.0048C6.82079 17.0516 7.40849 17.44 7.73244 18H13.2676C13.6134 17.4022 14.2597 17 15 17C16.1046 17 17 17.8954 17 19C17 20.1046 16.1046 21 15 21C13.8954 21 13 20.1046 13 19H8ZM7 19C7 19.5523 6.55229 20 6 20C5.44772 20 5 19.5523 5 19C5 18.4477 5.44772 18 6 18C6.55229 18 7 18.4477 7 19ZM4.18009 8H18.3596L16.6096 15H6.36759L4.18009 8ZM16 19C16 19.5523 15.5523 20 15 20C14.4477 20 14 19.5523 14 19C14 18.4477 14.4477 18 15 18C15.5523 18 16 18.4477 16 19Z" fill="#4A4A4A"/>
</svg>
