<svg width="24" height="24" viewBox="0 0 24 24" fill="none" xmlns="http://www.w3.org/2000/svg">
<path fill-rule="evenodd" clip-rule="evenodd" d="M15.1744 3.1362L16 6C17.1914 6.19074 18 7.25484 18 8.5V10.5C18 10.7761 17.7761 11 17.5 11H17V12.5C17 12.7761 16.7761 13 16.5 13H13.5C13.2239 13 13 12.7761 13 12.5V11H7V12.5C7 12.7761 6.77614 13 6.5 13H3.5C3.22386 13 3 12.7761 3 12.5V11H2.5C2.22386 11 2 10.7761 2 10.5V8.5C2 7.25484 2.80858 6.19074 4 6L4.82556 3.1362C4.9925 2.46845 5.59247 2 6.28078 2H13.7192C14.4075 2 15.0075 2.46845 15.1744 3.1362ZM5.79571 4.37873C5.85135 4.15615 6.05134 4 6.28078 4H13.7192C13.9487 4 14.1486 4.15615 14.2043 4.37873L14.5 6H5.5L5.79571 4.37873ZM4.5 8C4.22386 8 4 8.22386 4 8.5C4 8.77614 4.22386 9 4.5 9H5.5C5.77614 9 6 8.77614 6 8.5C6 8.22386 5.77614 8 5.5 8H4.5ZM14.5 8C14.2239 8 14 8.22386 14 8.5C14 8.77614 14.2239 9 14.5 9H15.5C15.7761 9 16 8.77614 16 8.5C16 8.22386 15.7761 8 15.5 8H14.5Z" fill="#4A4A4A"/>
<path d="M5 16C5 15.4477 4.55228 15 4 15C3.44772 15 3 15.4477 3 16V19C3 20.6569 4.34315 22 6 22H10C10.5523 22 11 21.5523 11 21C11 20.4477 10.5523 20 10 20H6C5.44772 20 5 19.5523 5 19V16Z" fill="#4A4A4A"/>
<path fill-rule="evenodd" clip-rule="evenodd" d="M13 18H12.5C12.2797 18 12.0853 17.8558 12.0215 17.6449C11.9576 17.434 12.0394 17.2062 12.2227 17.084L16.7227 14.084C16.8906 13.972 17.1094 13.972 17.2774 14.084L21.7774 17.084C21.9607 17.2062 22.0424 17.434 21.9786 17.6449C21.9147 17.8558 21.7204 18 21.5 18H21V21.5C21 21.7761 20.7762 22 20.5 22H13.5C13.2239 22 13 21.7761 13 21.5V18ZM18 18H16V20H18V18Z" fill="#4A4A4A"/>
</svg>
