<svg width="24" height="24" viewBox="0 0 24 24" fill="none" xmlns="http://www.w3.org/2000/svg">
<path fill-rule="evenodd" clip-rule="evenodd" d="M16 6L15.1744 3.1362C15.0075 2.46845 14.4075 2 13.7192 2H6.28078C5.59247 2 4.9925 2.46845 4.82556 3.1362L4 6C2.80858 6.19074 2 7.25484 2 8.5V10.5C2 10.7761 2.22386 11 2.5 11H3V12.5C3 12.7761 3.22386 13 3.5 13H6.5C6.77614 13 7 12.7761 7 12.5V11H13V12.5C13 12.7761 13.2239 13 13.5 13H16.5C16.7761 13 17 12.7761 17 12.5V11H17.5C17.7761 11 18 10.7761 18 10.5V8.5C18 7.25484 17.1914 6.19074 16 6ZM6.28078 4C6.05134 4 5.85135 4.15615 5.79571 4.37873L5.5 6H14.5L14.2043 4.37873C14.1486 4.15615 13.9487 4 13.7192 4H6.28078ZM4 8.5C4 8.22386 4.22386 8 4.5 8H5.5C5.77614 8 6 8.22386 6 8.5C6 8.77614 5.77614 9 5.5 9H4.5C4.22386 9 4 8.77614 4 8.5ZM14 8.5C14 8.22386 14.2239 8 14.5 8H15.5C15.7761 8 16 8.22386 16 8.5C16 8.77614 15.7761 9 15.5 9H14.5C14.2239 9 14 8.77614 14 8.5Z" fill="#4A4A4A"/>
<path d="M5 16C5 15.4477 4.55228 15 4 15C3.44772 15 3 15.4477 3 16V19C3 20.6569 4.34315 22 6 22H13C13.5523 22 14 21.5523 14 21C14 20.4477 13.5523 20 13 20H6C5.44772 20 5 19.5523 5 19V16Z" fill="#4A4A4A"/>
<path fill-rule="evenodd" clip-rule="evenodd" d="M22 16.5C22 19 19 22 18.5 22C18 22 15 19 15 16.5C15 14.567 16.567 13 18.5 13C20.433 13 22 14.567 22 16.5ZM18.5 18C19.3284 18 20 17.3284 20 16.5C20 15.6716 19.3284 15 18.5 15C17.6716 15 17 15.6716 17 16.5C17 17.3284 17.6716 18 18.5 18Z" fill="#4A4A4A"/>
</svg>
