<svg width="24" height="24" viewBox="0 0 24 24" fill="none" xmlns="http://www.w3.org/2000/svg">
<path d="M2.5 10.5H2C2 10.7761 2.22386 11 2.5 11V10.5ZM17.5 10.5V11C17.7761 11 18 10.7761 18 10.5H17.5ZM3.5 12.5H3C3 12.7761 3.22386 13 3.5 13V12.5ZM6.5 12.5V13C6.77614 13 7 12.7761 7 12.5H6.5ZM16.5 12.5V13C16.7761 13 17 12.7761 17 12.5H16.5ZM13.5 12.5H13C13 12.7761 13.2239 13 13.5 13V12.5ZM5.5 9C5.77614 9 6 8.77614 6 8.5C6 8.22386 5.77614 8 5.5 8V9ZM14.5 8C14.2239 8 14 8.22386 14 8.5C14 8.77614 14.2239 9 14.5 9V8ZM15.5 9C15.7761 9 16 8.77614 16 8.5C16 8.22386 15.7761 8 15.5 8V9ZM4.5 8C4.22386 8 4 8.22386 4 8.5C4 8.77614 4.22386 9 4.5 9V8ZM20.5 17.5V17C20.2239 17 20 17.2239 20 17.5H20.5ZM20.5 21.5V22C20.7761 22 21 21.7761 21 21.5H20.5ZM13.5 21.5H13C13 21.7761 13.2239 22 13.5 22V21.5ZM13.5 17.5H14C14 17.2239 13.7761 17 13.5 17V17.5ZM12.5 17.5L12.2226 17.084C12.0393 17.2062 11.9576 17.434 12.0215 17.6449C12.0853 17.8558 12.2797 18 12.5 18V17.5ZM17 14.5L17.2774 14.084C17.1094 13.972 16.8906 13.972 16.7226 14.084L17 14.5ZM21.5 17.5V18C21.7203 18 21.9147 17.8558 21.9785 17.6449C22.0424 17.434 21.9607 17.2062 21.7773 17.084L21.5 17.5ZM18.5 17.5H19C19 17.2239 18.7761 17 18.5 17V17.5ZM15.5 17.5V17C15.2239 17 15 17.2239 15 17.5H15.5ZM15.5 19.5H15C15 19.7761 15.2239 20 15.5 20V19.5ZM18.5 19.5V20C18.7761 20 19 19.7761 19 19.5H18.5ZM11.5 22C11.7761 22 12 21.7761 12 21.5C12 21.2239 11.7761 21 11.5 21V22ZM4 14.5C4 14.2239 3.77614 14 3.5 14C3.22386 14 3 14.2239 3 14.5H4ZM14.6894 3.25746L14.2043 3.37873L14.6894 3.25746ZM5.31063 3.25746L4.82556 3.1362L5.31063 3.25746ZM4.98507 6.62127L5.79571 3.37873L4.82556 3.1362L4.01493 6.37873L4.98507 6.62127ZM6.28078 3H13.7192V2H6.28078V3ZM15.5 6H4.5V7H15.5V6ZM14.2043 3.37873L15.0149 6.62127L15.9851 6.37873L15.1744 3.1362L14.2043 3.37873ZM2.5 11H3.5V10H2.5V11ZM3 10.5V12.5H4V10.5H3ZM3.5 13H6.5V12H3.5V13ZM3.5 11H6.5V10H3.5V11ZM7 12.5V10.5H6V12.5H7ZM16.5 11H17.5V10H16.5V11ZM16 10.5V12.5H17V10.5H16ZM16.5 12H13.5V13H16.5V12ZM6.5 11H13.5V10H6.5V11ZM13.5 11H16.5V10H13.5V11ZM14 12.5V10.5H13V12.5H14ZM2 8.5V10.5H3V8.5H2ZM18 10.5V8.5H17V10.5H18ZM15.5 8H14.5V9H15.5V8ZM4.5 9H5.5V8H4.5V9ZM20 17.5V21.5H21V17.5H20ZM20.5 21H13.5V22H20.5V21ZM14 21.5V17.5H13V21.5H14ZM13.5 17H12.5V18H13.5V17ZM12.7774 17.916L17.2774 14.916L16.7226 14.084L12.2226 17.084L12.7774 17.916ZM16.7226 14.916L21.2227 17.916L21.7773 17.084L17.2774 14.084L16.7226 14.916ZM21.5 17H20.5V18H21.5V17ZM18.5 17H15.5V18H18.5V17ZM15 17.5V19.5H16V17.5H15ZM15.5 20H18.5V19H15.5V20ZM19 19.5V17.5H18V19.5H19ZM11.5 21H4.5V22H11.5V21ZM4.5 20H8.5V19H4.5V20ZM8.5 17H4.5V18H8.5V17ZM4 16.5V14.5H3V16.5H4ZM10 18.5C10 17.6716 9.32843 17 8.5 17V18C8.77614 18 9 18.2239 9 18.5H10ZM4 20.5C4 20.2239 4.22386 20 4.5 20V19C3.67157 19 3 19.6716 3 20.5H4ZM4.5 21C4.22386 21 4 20.7761 4 20.5H3C3 21.3284 3.67157 22 4.5 22V21ZM13.7192 3C13.9487 3 14.1486 3.15615 14.2043 3.37873L15.1744 3.1362C15.0075 2.46845 14.4075 2 13.7192 2V3ZM8.5 20C9.32843 20 10 19.3284 10 18.5H9C9 18.7761 8.77614 19 8.5 19V20ZM15.5 7C16.3284 7 17 7.67157 17 8.5H18C18 7.11929 16.8807 6 15.5 6V7ZM4.5 17C4.22386 17 4 16.7761 4 16.5H3C3 17.3284 3.67157 18 4.5 18V17ZM5.79571 3.37873C5.85135 3.15615 6.05134 3 6.28078 3V2C5.59248 2 4.9925 2.46845 4.82556 3.1362L5.79571 3.37873ZM4.5 6C3.11929 6 2 7.11929 2 8.5H3C3 7.67157 3.67157 7 4.5 7V6Z" fill="#4A4A4A"/>
</svg>
