<svg width="24" height="24" viewBox="0 0 24 24" fill="none" xmlns="http://www.w3.org/2000/svg">
<path d="M2.5 10.5H2C2 10.7761 2.22386 11 2.5 11V10.5ZM17.5 10.5V11C17.7761 11 18 10.7761 18 10.5H17.5ZM3.5 12.5H3C3 12.7761 3.22386 13 3.5 13V12.5ZM6.5 12.5V13C6.77614 13 7 12.7761 7 12.5H6.5ZM16.5 12.5V13C16.7761 13 17 12.7761 17 12.5H16.5ZM13.5 12.5H13C13 12.7761 13.2239 13 13.5 13V12.5ZM5.5 9C5.77614 9 6 8.77614 6 8.5C6 8.22386 5.77614 8 5.5 8V9ZM14.5 8C14.2239 8 14 8.22386 14 8.5C14 8.77614 14.2239 9 14.5 9V8ZM15.5 9C15.7761 9 16 8.77614 16 8.5C16 8.22386 15.7761 8 15.5 8V9ZM4.5 8C4.22386 8 4 8.22386 4 8.5C4 8.77614 4.22386 9 4.5 9V8ZM15.5 22C15.7761 22 16 21.7761 16 21.5C16 21.2239 15.7761 21 15.5 21V22ZM4 14.5C4 14.2239 3.77614 14 3.5 14C3.22386 14 3 14.2239 3 14.5H4ZM18.5 21.5L18.1799 21.8841C18.3653 22.0386 18.6347 22.0386 18.8201 21.8841L18.5 21.5ZM14.6894 3.25746L14.2043 3.37873L14.6894 3.25746ZM5.31063 3.25746L4.82556 3.1362L5.31063 3.25746ZM4.98507 6.62127L5.79571 3.37873L4.82556 3.1362L4.01493 6.37873L4.98507 6.62127ZM6.28078 3H13.7192V2H6.28078V3ZM15.5 6H4.5V7H15.5V6ZM14.2043 3.37873L15.0149 6.62127L15.9851 6.37873L15.1744 3.1362L14.2043 3.37873ZM2.5 11H3.5V10H2.5V11ZM3 10.5V12.5H4V10.5H3ZM3.5 13H6.5V12H3.5V13ZM3.5 11H6.5V10H3.5V11ZM7 12.5V10.5H6V12.5H7ZM16.5 11H17.5V10H16.5V11ZM16 10.5V12.5H17V10.5H16ZM16.5 12H13.5V13H16.5V12ZM6.5 11H13.5V10H6.5V11ZM13.5 11H16.5V10H13.5V11ZM14 12.5V10.5H13V12.5H14ZM2 8.5V10.5H3V8.5H2ZM18 10.5V8.5H17V10.5H18ZM15.5 8H14.5V9H15.5V8ZM4.5 9H5.5V8H4.5V9ZM15.5 21H4.5V22H15.5V21ZM4.5 20H8.5V19H4.5V20ZM8.5 17H4.5V18H8.5V17ZM4 16.5V14.5H3V16.5H4ZM21 16.5C21 17.571 20.3448 18.7061 19.6096 19.6252C19.2508 20.0736 18.8908 20.4487 18.6202 20.7118C18.4852 20.8431 18.3733 20.9456 18.2959 21.0147C18.2572 21.0493 18.2273 21.0754 18.2074 21.0924C18.1975 21.101 18.1901 21.1072 18.1855 21.1112C18.1832 21.1131 18.1815 21.1145 18.1806 21.1153C18.1801 21.1157 18.1798 21.116 18.1797 21.1161C18.1797 21.1161 18.1796 21.1161 18.1797 21.1161C18.1797 21.1161 18.1797 21.116 18.1798 21.116C18.1798 21.116 18.1799 21.1159 18.5 21.5C18.8201 21.8841 18.8202 21.884 18.8203 21.8839C18.8204 21.8839 18.8205 21.8838 18.8206 21.8837C18.8208 21.8835 18.8211 21.8833 18.8214 21.883C18.822 21.8825 18.8228 21.8819 18.8238 21.881C18.8257 21.8794 18.8284 21.8772 18.8317 21.8743C18.8384 21.8687 18.8479 21.8606 18.86 21.8502C18.8841 21.8294 18.9186 21.7994 18.9619 21.7607C19.0486 21.6833 19.171 21.571 19.3173 21.4288C19.6092 21.145 19.9992 20.7389 20.3904 20.2498C21.1552 19.2939 22 17.929 22 16.5H21ZM18.5 21.5C18.8201 21.1159 18.8202 21.116 18.8202 21.116C18.8203 21.116 18.8203 21.1161 18.8203 21.1161C18.8204 21.1161 18.8203 21.1161 18.8203 21.1161C18.8202 21.116 18.8199 21.1157 18.8194 21.1153C18.8185 21.1145 18.8168 21.1131 18.8145 21.1112C18.8099 21.1072 18.8025 21.101 18.7926 21.0924C18.7727 21.0754 18.7428 21.0493 18.7041 21.0147C18.6267 20.9456 18.5148 20.8431 18.3798 20.7118C18.1092 20.4487 17.7492 20.0736 17.3904 19.6252C16.6552 18.7061 16 17.571 16 16.5H15C15 17.929 15.8448 19.2939 16.6096 20.2498C17.0008 20.7389 17.3908 21.145 17.6827 21.4288C17.829 21.571 17.9514 21.6833 18.0381 21.7607C18.0814 21.7994 18.1159 21.8294 18.14 21.8502C18.1521 21.8606 18.1616 21.8687 18.1683 21.8743C18.1716 21.8772 18.1743 21.8794 18.1762 21.881C18.1772 21.8819 18.178 21.8825 18.1786 21.883C18.1789 21.8833 18.1792 21.8835 18.1794 21.8837C18.1795 21.8838 18.1796 21.8839 18.1797 21.8839C18.1798 21.884 18.1799 21.8841 18.5 21.5ZM18.5 14C19.8807 14 21 15.1193 21 16.5H22C22 14.567 20.433 13 18.5 13V14ZM18.5 13C16.567 13 15 14.567 15 16.5H16C16 15.1193 17.1193 14 18.5 14V13ZM4.5 17C4.22386 17 4 16.7761 4 16.5H3C3 17.3284 3.67157 18 4.5 18V17ZM10 18.5C10 17.6716 9.32843 17 8.5 17V18C8.77614 18 9 18.2239 9 18.5H10ZM13.7192 3C13.9487 3 14.1486 3.15615 14.2043 3.37873L15.1744 3.1362C15.0075 2.46845 14.4075 2 13.7192 2V3ZM8.5 20C9.32843 20 10 19.3284 10 18.5H9C9 18.7761 8.77614 19 8.5 19V20ZM17 16.5C17 17.3284 17.6716 18 18.5 18V17C18.2239 17 18 16.7761 18 16.5H17ZM18.5 15C17.6716 15 17 15.6716 17 16.5H18C18 16.2239 18.2239 16 18.5 16V15ZM4.5 6C3.11929 6 2 7.11929 2 8.5H3C3 7.67157 3.67157 7 4.5 7V6ZM18.5 16C18.7761 16 19 16.2239 19 16.5H20C20 15.6716 19.3284 15 18.5 15V16ZM5.79571 3.37873C5.85135 3.15615 6.05134 3 6.28078 3V2C5.59248 2 4.9925 2.46845 4.82556 3.1362L5.79571 3.37873ZM4 20.5C4 20.2239 4.22386 20 4.5 20V19C3.67157 19 3 19.6716 3 20.5H4ZM18.5 18C19.3284 18 20 17.3284 20 16.5H19C19 16.7761 18.7761 17 18.5 17V18ZM15.5 7C16.3284 7 17 7.67157 17 8.5H18C18 7.11929 16.8807 6 15.5 6V7ZM4.5 21C4.22386 21 4 20.7761 4 20.5H3C3 21.3284 3.67157 22 4.5 22V21Z" fill="#4A4A4A"/>
</svg>
