<svg width="24" height="24" viewBox="0 0 24 24" fill="none" xmlns="http://www.w3.org/2000/svg">
<path fill-rule="evenodd" clip-rule="evenodd" d="M22 12C22 17.5228 17.5228 22 12 22C6.47715 22 2 17.5228 2 12C2 6.47715 6.47715 2 12 2C17.5228 2 22 6.47715 22 12ZM11.152 17.53C11.3347 17.8224 11.6552 18 12 18C12.3448 18 12.6653 17.8224 12.848 17.53L17.848 9.53C18.0407 9.22173 18.0509 8.83319 17.8746 8.51523C17.6984 8.19728 17.3635 8 17 8H7C6.63647 8 6.30158 8.19728 6.12536 8.51523C5.94913 8.83319 5.95933 9.22173 6.152 9.53L11.152 17.53ZM8.80425 10H15.1958L12 15.1132L8.80425 10Z" fill="#4A4A4A"/>
</svg>
