<svg width="24" height="24" viewBox="0 0 24 24" fill="none" xmlns="http://www.w3.org/2000/svg">
<path fill-rule="evenodd" clip-rule="evenodd" d="M3.14645 9.85353C2.95118 9.65826 2.95118 9.34168 3.14645 9.14642L6.32843 5.96444C6.52369 5.76918 6.84027 5.76918 7.03553 5.96444C7.2308 6.1597 7.2308 6.47628 7.03553 6.67155L4.70711 8.99997H15C17.7614 8.99997 20 11.2385 20 14C20 16.7614 17.7614 19 15 19H12.5C12.2239 19 12 18.7761 12 18.5C12 18.2238 12.2239 18 12.5 18H15C17.2091 18 19 16.2091 19 14C19 11.7908 17.2091 9.99997 15 9.99997H4.70711L7.03553 12.3284C7.2308 12.5237 7.2308 12.8402 7.03553 13.0355C6.84027 13.2308 6.52369 13.2308 6.32843 13.0355L3.14645 9.85353Z" fill="#4A4A4A"/>
</svg>
