<svg width="24" height="24" viewBox="0 0 24 24" fill="none" xmlns="http://www.w3.org/2000/svg">
<path d="M19 8.5C19 8.77614 19.2239 9 19.5 9C19.7761 9 20 8.77614 20 8.5H19ZM15 11.5V18.5H16V11.5H15ZM14.5 19H5.5V20H14.5V19ZM5 18.5V11.5H4V18.5H5ZM5.5 11H6.5V10H5.5V11ZM6.5 11H13.5V10H6.5V11ZM13.5 11H14.5V10H13.5V11ZM13 7.5V10.5H14V7.5H13ZM20 8.5V7.5H19V8.5H20ZM10 16V17C10.5523 17 11 16.5523 11 16H10ZM10 16H11C11 15.4477 10.5523 15 10 15V16ZM10 15C9.44772 15 9 15.4477 9 16H10V15ZM16.5 4C14.567 4 13 5.567 13 7.5H14C14 6.11929 15.1193 5 16.5 5V4ZM5.5 19C5.22386 19 5 18.7761 5 18.5H4C4 19.3284 4.67157 20 5.5 20V19ZM15 18.5C15 18.7761 14.7761 19 14.5 19V20C15.3284 20 16 19.3284 16 18.5H15ZM16 11.5C16 10.6716 15.3284 10 14.5 10V11C14.7761 11 15 11.2239 15 11.5H16ZM16.5 5C17.8807 5 19 6.11929 19 7.5H20C20 5.567 18.433 4 16.5 4V5ZM10 16H9C9 16.5523 9.44772 17 10 17V16ZM5 11.5C5 11.2239 5.22386 11 5.5 11V10C4.67157 10 4 10.6716 4 11.5H5Z" fill="#4A4A4A"/>
</svg>
