<svg width="24" height="24" viewBox="0 0 24 24" fill="none" xmlns="http://www.w3.org/2000/svg">
<path fill-rule="evenodd" clip-rule="evenodd" d="M16 3C13.7909 3 12 4.79086 12 7V10H5.5C4.67157 10 4 10.6716 4 11.5V18.5C4 19.3284 4.67157 20 5.5 20H14.5C15.3284 20 16 19.3284 16 18.5V11.5C16 10.6716 15.3284 10 14.5 10H14V7C14 5.89543 14.8954 5 16 5C17.1046 5 18 5.89543 18 7V8C18 8.55228 18.4477 9 19 9C19.5523 9 20 8.55228 20 8V7C20 4.79086 18.2091 3 16 3ZM9 16C9 15.4477 9.44772 15 10 15C10.5523 15 11 15.4477 11 16C11 16.5523 10.5523 17 10 17C9.44772 17 9 16.5523 9 16Z" fill="#4A4A4A"/>
</svg>
