<svg width="24" height="24" viewBox="0 0 24 24" fill="none" xmlns="http://www.w3.org/2000/svg">
<path d="M10.1 5C10.3761 5 10.6 4.77614 10.6 4.5C10.6 4.22386 10.3761 4 10.1 4V5ZM17.3 4C17.0239 4 16.8 4.22386 16.8 4.5C16.8 4.77614 17.0239 5 17.3 5V4ZM5.5 6C5.22386 6 5 6.22386 5 6.5C5 6.77614 5.22386 7 5.5 7V6ZM15.5 1.5L15.9287 1.24275C15.79 1.01152 15.4929 0.931964 15.2572 1.06292L15.5 1.5ZM17.5 12C17.2239 12 17 12.2239 17 12.5C17 12.7761 17.2239 13 17.5 13V12ZM18.5 13C18.7761 13 19 12.7761 19 12.5C19 12.2239 18.7761 12 18.5 12V13ZM4.5 21H19.5V20H4.5V21ZM3 18.5V6.5H2V18.5H3ZM4.5 5H10.1V4H4.5V5ZM19.5 4H17.3V5H19.5V4ZM22 10.5V6.5H21V10.5H22ZM23 13.5V11.5H22V13.5H23ZM22 18.5V14.5H21V18.5H22ZM21.5 14H17.5V15H21.5V14ZM17.5 11H21.5V10H17.5V11ZM21.5 6H18.5V7H21.5V6ZM18.9287 6.24275L15.9287 1.24275L15.0713 1.75725L18.0713 6.75725L18.9287 6.24275ZM18.5 6H6.5V7H18.5V6ZM6.5 6H5.5V7H6.5V6ZM15.2572 1.06292L6.25718 6.06292L6.74282 6.93708L15.7428 1.93708L15.2572 1.06292ZM17.5 13H18.5V12H17.5V13ZM22 13.5C22 13.7761 21.7761 14 21.5 14V15C22.3284 15 23 14.3284 23 13.5H22ZM21.5 11C21.7761 11 22 11.2239 22 11.5H23C23 10.6716 22.3284 10 21.5 10V11ZM3 6.5C3 5.67157 3.67157 5 4.5 5V4C3.11929 4 2 5.11929 2 6.5H3ZM16 12.5C16 11.6716 16.6716 11 17.5 11V10C16.1193 10 15 11.1193 15 12.5H16ZM19.5 5C20.3284 5 21 5.67157 21 6.5H22C22 5.11929 20.8807 4 19.5 4V5ZM17.5 14C16.6716 14 16 13.3284 16 12.5H15C15 13.8807 16.1193 15 17.5 15V14ZM19.5 21C20.8807 21 22 19.8807 22 18.5H21C21 19.3284 20.3284 20 19.5 20V21ZM4.5 20C3.67157 20 3 19.3284 3 18.5H2C2 19.8807 3.11929 21 4.5 21V20Z" fill="#4A4A4A"/>
</svg>
