<svg width="24" height="24" viewBox="0 0 24 24" fill="none" xmlns="http://www.w3.org/2000/svg">
<path fill-rule="evenodd" clip-rule="evenodd" d="M4.5 4.00004H8.03914L4.26057 6.06108C4.05992 6.17052 3.95903 6.4021 4.0155 6.62357C4.07198 6.84504 4.27144 7.00003 4.5 7.00003H19.5H22V10.05C21.8384 10.0172 21.6712 10 21.5 10H17.5C15.567 10 14 11.567 14 13.5C14 15.433 15.567 17 17.5 17H21.5C21.6712 17 21.8384 16.9828 22 16.95V18.5C22 19.8808 20.8807 21 19.5 21H4.5C3.11929 21 2 19.8808 2 18.5V6.50004C2 5.11933 3.11929 4.00004 4.5 4.00004ZM22.8909 15.0627C22.9613 14.889 23 14.699 23 14.5C23 14.5 23 14.5 23 14.5V12.5M22.8909 15.0627C22.6683 15.6123 22.1294 16 21.5 16H17.5C16.1193 16 15 14.8807 15 13.5C15 12.1193 16.1193 11 17.5 11H21.5C21.6753 11 21.8436 11.0301 22 11.0854V11.0854C22.4369 11.2398 22.781 11.591 22.9257 12.0324C22.9739 12.1796 23 12.3367 23 12.5M19.5 4.00004C20.7095 4.00004 21.7183 4.85891 21.95 6.00003H19.7676L18.4343 4.00004H19.5ZM18.5657 6.00003L15.5916 1.53875C15.4479 1.32326 15.1635 1.25313 14.9361 1.37715L6.46083 6.00003H18.5657ZM17.5 13C17.2239 13 17 13.2239 17 13.5C17 13.7761 17.2239 14 17.5 14H18.5C18.7761 14 19 13.7761 19 13.5C19 13.2239 18.7761 13 18.5 13H17.5Z" fill="#4A4A4A"/>
</svg>
