<svg width="24" height="24" viewBox="0 0 24 24" fill="none" xmlns="http://www.w3.org/2000/svg">
<path d="M13.2929 2.70711C13.6834 2.31658 14.3166 2.31658 14.7071 2.70711L15.75 3.75C15.8881 3.88807 16.1119 3.88807 16.25 3.75C16.3881 3.61193 16.6119 3.61193 16.75 3.75L20.25 7.25C20.3881 7.38807 20.3881 7.61193 20.25 7.75C20.1119 7.88807 20.1119 8.11193 20.25 8.25L21.2929 9.29289C21.6834 9.68342 21.6834 10.3166 21.2929 10.7071L19.7071 12.2929C19.3166 12.6834 18.6834 12.6834 18.2929 12.2929L17.25 11.25C17.1119 11.1119 16.8881 11.1119 16.75 11.25C16.6119 11.3881 16.3881 11.3881 16.25 11.25L16 11L13 8L12.75 7.75C12.6119 7.61193 12.6119 7.38807 12.75 7.25C12.8881 7.11193 12.8881 6.88807 12.75 6.75L11.7071 5.70711C11.3166 5.31658 11.3166 4.68342 11.7071 4.29289L13.2929 2.70711Z" fill="#4A4A4A"/>
<path d="M6 8C7.10457 8 8 7.10457 8 6L5.5 3.5L7.12314 3.17537C7.6811 3.06378 8.26017 3.19513 8.71538 3.53653L9.35895 4.01921C9.77042 4.32781 10.0472 4.78307 10.1317 5.29041L10.3946 6.86779C10.4632 7.27896 10.6585 7.65845 10.9532 7.95321L16.0468 13.0468C16.3415 13.3415 16.721 13.5368 17.1322 13.6054L18.7096 13.8683C19.2169 13.9528 19.6722 14.2296 19.9808 14.6411L20.4635 15.2846C20.8049 15.7398 20.9362 16.3189 20.8246 16.8769L20.5 18.5L18 16C16.8954 16 16 16.8954 16 18L18.5 20.5L16.8769 20.8246C16.3189 20.9362 15.7398 20.8049 15.2846 20.4635L14.6411 19.9808C14.2296 19.6722 13.9528 19.2169 13.8683 18.7096L13.6054 17.1322C13.5368 16.721 13.3415 16.3415 13.0468 16.0468L7.95321 10.9532C7.65845 10.6585 7.27896 10.4632 6.86779 10.3946L5.29041 10.1317C4.78307 10.0472 4.32781 9.77042 4.01921 9.35895L3.53653 8.71538C3.19513 8.26017 3.06378 7.6811 3.17537 7.12314L3.5 5.5L6 8Z" fill="#4A4A4A"/>
<path d="M11 16L8 13L3.70711 17.2929C3.31658 17.6834 3.31658 18.3166 3.70711 18.7071L5.29289 20.2929C5.68342 20.6834 6.31658 20.6834 6.70711 20.2929L11 16Z" fill="#4A4A4A"/>
</svg>
