<svg width="24" height="24" viewBox="0 0 24 24" fill="none" xmlns="http://www.w3.org/2000/svg">
<path d="M4.53043 8.85923C5.36274 8.65348 7.02069 8.30037 9.20815 8.11748V3.01198C8.53999 3.12568 7.98666 3.41136 7.56532 3.58531C6.816 3.89468 6.34769 4.5896 6.12037 5.31839L5.55908 7.11793C5.53611 7.19157 5.49741 7.25848 5.44605 7.31337L4.94059 7.85355C4.68952 8.12187 4.54339 8.48138 4.53043 8.85923Z" fill="#4A4A4A"/>
<path d="M5.54439 12.802C5.00326 12.8054 4.47386 12.4991 4.21595 11.9479L4.14738 11.8013C3.84952 11.1647 4.0192 10.4132 4.51176 10.0039C4.51774 10.0028 4.52368 10.0015 4.52955 10C4.5891 9.98438 4.65656 9.9663 4.73169 9.94616C5.56272 9.72342 7.33175 9.24925 9.70685 9.08162C10.4263 9.03084 11.1992 9 12.0153 9C12.8314 9 13.6043 9.03084 14.3238 9.08162C16.699 9.24925 18.4681 9.72343 19.2991 9.94618C19.3742 9.9663 19.4416 9.98438 19.5011 9.99999C19.979 10.4193 20.151 11.229 19.8515 11.8692L19.8147 11.9479C19.5567 12.4991 19.0273 12.8054 18.4862 12.802C18.3889 12.7722 18.2891 12.7664 18.2038 12.7451C17.5589 12.5844 16.7689 12.5261 15.7785 12.5051C15.1046 12.4907 14.3182 12.4935 13.4018 12.4968C12.9693 12.4983 12.5076 12.5 12.0153 12.5C11.5231 12.5 11.0616 12.4983 10.6291 12.4968C9.71268 12.4935 8.92609 12.4907 8.25218 12.5051C7.26176 12.5261 6.47175 12.5844 5.82682 12.7451C5.72591 12.7703 5.63018 12.7791 5.54439 12.802Z" fill="#4A4A4A"/>
<path d="M5.70397 13.8709L6.11993 16.6573C6.31682 17.9761 7 19 8 20C9 21 10 22 12.0153 22C14 22 15 21 16 20C17 19 17.7104 17.9988 17.9107 16.6573L18.3266 13.8709C18.2331 13.8133 18.125 13.7523 17.9913 13.719C17.448 13.5836 16.7413 13.5257 15.7599 13.5049C15.097 13.4907 14.3283 13.4935 13.4194 13.4968C12.9847 13.4983 12.5178 13.5 12.0153 13.5C11.5129 13.5 11.0462 13.4983 10.6116 13.4968C9.70265 13.4935 8.93365 13.4907 8.27081 13.5049C7.28936 13.5257 6.58265 13.5836 6.0394 13.719C5.90559 13.7523 5.79749 13.8133 5.70397 13.8709Z" fill="#4A4A4A"/>
<path d="M19.5002 8.85922C19.4872 8.48137 19.3411 8.12187 19.09 7.85355L18.5846 7.31337C18.5332 7.25848 18.4945 7.19157 18.4715 7.11793L17.9102 5.31839C17.6829 4.5896 17.2146 3.89468 16.4653 3.58531C16.044 3.41136 15.4907 3.11394 14.8225 3L14.8225 8.11748C17.0099 8.30036 18.6679 8.65346 19.5002 8.85922Z" fill="#4A4A4A"/>
<path d="M13.8868 3.01198V2.5C13.8868 2.22386 13.6773 2 13.4189 2H10.6117C10.3557 2 10.1477 2.21976 10.1439 2.4924L10.1439 8.05229C10.7374 8.01919 11.3629 8 12.0153 8C12.6678 8 13.2933 8.01919 13.8868 8.05229L13.8868 3.01198Z" fill="#4A4A4A"/>
</svg>
