<svg width="24" height="24" viewBox="0 0 24 24" fill="none" xmlns="http://www.w3.org/2000/svg">
<path fill-rule="evenodd" clip-rule="evenodd" d="M24 5.5C24 8.5 21.5 11 18.5 11C15.5 11 13 8.5 13 5.5C13 2.5 15.5 0 18.5 0C21.5 0 24 2.5 24 5.5ZM18 2.5C18 2.22386 18.2239 2 18.5 2C18.7761 2 19 2.22386 19 2.5V5H21.5C21.7761 5 22 5.22386 22 5.5C22 5.77614 21.7761 6 21.5 6H19V8.5C19 8.77614 18.7761 9 18.5 9C18.2239 9 18 8.77614 18 8.5V6H15.5C15.2239 6 15 5.77614 15 5.5C15 5.22386 15.2239 5 15.5 5H18V2.5Z" fill="#4A4A4A"/>
<path fill-rule="evenodd" clip-rule="evenodd" d="M12.8858 2.22217C12.7686 2.0882 12.5811 2 12.4189 2H9.61171C9.3557 2 9.0038 2.22736 9 2.5V8H11.0153H12.4982C12.1772 7.23041 12 6.3859 12 5.5C12 4.30456 12.3227 3.18449 12.8858 2.22217ZM18.7927 11.9935C18.6956 11.9978 18.5981 12 18.5 12C16.2262 12 14.2251 10.8325 13.0635 9.06428C12.4189 9.0239 11.7339 9 11.0153 9C10.1992 9 9.42634 9.03084 8.70685 9.08162C6.33175 9.24925 4.56272 9.72342 3.73169 9.94616C3.65656 9.9663 3.5891 9.98438 3.52955 10C3.52368 10.0015 3.51774 10.0028 3.51176 10.0039C3.0192 10.4132 2.84952 11.1647 3.14738 11.8013L3.21595 11.9479C3.47386 12.4991 4.00326 13.0033 4.54439 13H17.5C18.0262 13.0032 18.5282 12.5267 18.7927 11.9935ZM4.0101 8.73377L4.01009 8.73377C3.83189 8.78145 3.67221 8.82418 3.53043 8.85923C3.54339 8.48138 3.68952 8.12187 3.94059 7.85355L4.44605 7.31337C4.49741 7.25848 4.53611 7.19157 4.55908 7.11793L5.12037 5.31839C5.34769 4.5896 5.816 3.89468 6.56532 3.58531C6.69822 3.53045 6.82354 3.46327 6.95381 3.39344C7.23654 3.24189 7.54259 3.07784 8 3V8C6.18515 8.15173 4.87806 8.5015 4.0101 8.73377ZM4.54439 14L5.11993 16.6573C5.31682 17.9761 6 19 7 20C8 21 9 22 11.0153 22C13 22 14 21 15 20C16 19 16.7104 17.9988 16.9107 16.6573L17.4862 14H11H4.54439Z" fill="#4A4A4A"/>
</svg>
