<svg width="24" height="24" viewBox="0 0 24 24" fill="none" xmlns="http://www.w3.org/2000/svg">
<path d="M15 0.000854492L4 0.000854492C3.44772 0.000854492 3 0.44857 3 1.00085L3 23C3 23.5523 3.44772 24 4 24H19.9992C20.5515 24 20.9992 23.5523 20.9992 23V6.00004L15 0.000854492Z" fill="#75BC22"/>
<path opacity="0.1" d="M3 12H20C20.5523 12 21 12.4477 21 13V21C21 21.5523 20.5523 22 20 22H3V12Z" fill="#4A4A4A"/>
<rect x="2" y="11" width="18" height="10" rx="1" fill="#417505"/>
<path fill-rule="evenodd" clip-rule="evenodd" d="M15 0L21 6H16C15.4477 6 15 5.55228 15 5V0Z" fill="#A2E851"/>
<path opacity="0.1" fill-rule="evenodd" clip-rule="evenodd" d="M21 11L16 6L21 6L21 11Z" fill="#4A4A4A"/>
<path d="M8.5 13C8.74546 13 8.94961 13.1769 8.99194 13.4101L9 13.5V14.5C9 14.6259 8.95258 14.7459 8.86915 14.8372L8.8 14.9L5 17.75V18.5C5 18.7455 4.82312 18.9496 4.58988 18.9919L4.5 19C4.25454 19 4.05039 18.8231 4.00806 18.5899L4 18.5V17.5C4 17.3741 4.04742 17.2541 4.13085 17.1628L4.2 17.1L8 14.25V13.5C8 13.2545 8.17688 13.0504 8.41012 13.0081L8.5 13Z" fill="white"/>
<path d="M4.5 13C4.25454 13 4.05039 13.1769 4.00806 13.4101L4 13.5V14.5C4 14.6259 4.04742 14.7459 4.13085 14.8372L4.2 14.9L8 17.75V18.5C8 18.7455 8.17688 18.9496 8.41012 18.9919L8.5 19C8.74546 19 8.94961 18.8231 8.99194 18.5899L9 18.5V17.5C9 17.3741 8.95258 17.2541 8.86915 17.1628L8.8 17.1L5 14.25V13.5C5 13.2545 4.82312 13.0504 4.58988 13.0081L4.5 13Z" fill="white"/>
<path d="M17.5 13C17.7761 13 18 13.2239 18 13.5C18 13.7455 17.8231 13.9496 17.5899 13.9919L17.5 14H15V15H17.5C17.7455 15 17.9496 15.1769 17.9919 15.4101L18 15.5V18.5C18 18.7455 17.8231 18.9496 17.5899 18.9919L17.5 19H14.5C14.2239 19 14 18.7761 14 18.5C14 18.2545 14.1769 18.0504 14.4101 18.0081L14.5 18H17V16H14.5C14.2545 16 14.0504 15.8231 14.0081 15.5899L14 15.5V13.5C14 13.2545 14.1769 13.0504 14.4101 13.0081L14.5 13H17.5Z" fill="white"/>
<path d="M10.5 13C10.7455 13 10.9496 13.1769 10.9919 13.4101L11 13.5V18H12.5C12.7455 18 12.9496 18.1769 12.9919 18.4101L13 18.5C13 18.7455 12.8231 18.9496 12.5899 18.9919L12.5 19H10.5C10.2545 19 10.0504 18.8231 10.0081 18.5899L10 18.5V13.5C10 13.2239 10.2239 13 10.5 13Z" fill="white"/>
</svg>
