<svg width="24" height="24" viewBox="0 0 24 24" fill="none" xmlns="http://www.w3.org/2000/svg">
<path d="M15 0.000854492L4 0.000854492C3.44772 0.000854492 3 0.44857 3 1.00085L3 23C3 23.5523 3.44772 24 4 24H19.9992C20.5515 24 20.9992 23.5523 20.9992 23V6.00004L15 0.000854492Z" fill="#E3E3E3"/>
<path opacity="0.1" d="M3 12H20C20.5523 12 21 12.4477 21 13V21C21 21.5523 20.5523 22 20 22H3V12Z" fill="#4A4A4A"/>
<rect x="2" y="11" width="18" height="10" rx="1" fill="#8F50BF"/>
<path fill-rule="evenodd" clip-rule="evenodd" d="M15 0L21 6H16C15.4477 6 15 5.55228 15 5V0Z" fill="#F6F6F6"/>
<path opacity="0.1" fill-rule="evenodd" clip-rule="evenodd" d="M21 11L16 6L21 6L21 11Z" fill="#4A4A4A"/>
<path fill-rule="evenodd" clip-rule="evenodd" d="M7.5 13C7.77614 13 8 13.2239 8 13.5V17.5C8 18.3284 7.32843 19 6.5 19H4.5C4.22386 19 4 18.7761 4 18.5V17.5C4 17.2239 4.22386 17 4.5 17C4.77614 17 5 17.2239 5 17.5V18H6.5C6.77614 18 7 17.7761 7 17.5V13.5C7 13.2239 7.22386 13 7.5 13ZM9 13.5C9 13.2239 9.22386 13 9.5 13H11.5C12.3284 13 13 13.6716 13 14.5V15.5C13 16.3284 12.3284 17 11.5 17H10V18.5C10 18.7761 9.77614 19 9.5 19C9.22386 19 9 18.7761 9 18.5V13.5ZM10 16H11.5C11.7761 16 12 15.7761 12 15.5V14.5C12 14.2239 11.7761 14 11.5 14H10V16ZM14 14.5C14 13.6716 14.6716 13 15.5 13H17.5C17.7761 13 18 13.2239 18 13.5C18 13.7761 17.7761 14 17.5 14H15.5C15.2239 14 15 14.2239 15 14.5V17.5C15 17.7761 15.2239 18 15.5 18H17V17H16.5C16.2239 17 16 16.7761 16 16.5C16 16.2239 16.2239 16 16.5 16H17.5C17.7761 16 18 16.2239 18 16.5V18.5C18 18.7761 17.7761 19 17.5 19H15.5C14.6716 19 14 18.3284 14 17.5V14.5Z" fill="white"/>
</svg>
