<svg width="24" height="24" viewBox="0 0 24 24" fill="none" xmlns="http://www.w3.org/2000/svg">
<path d="M15 0.000854492L4 0.000854492C3.44772 0.000854492 3 0.44857 3 1.00085L3 23C3 23.5523 3.44772 24 4 24H19.9992C20.5515 24 20.9992 23.5523 20.9992 23V6.00004L15 0.000854492Z" fill="#E3E3E3"/>
<path opacity="0.1" d="M3 12H20C20.5523 12 21 12.4477 21 13V21C21 21.5523 20.5523 22 20 22H3V12Z" fill="#4A4A4A"/>
<rect x="2" y="11" width="18" height="10" rx="1" fill="#00A490"/>
<path fill-rule="evenodd" clip-rule="evenodd" d="M15 0L21 6H16C15.4477 6 15 5.55228 15 5V0Z" fill="#F6F6F6"/>
<path opacity="0.1" fill-rule="evenodd" clip-rule="evenodd" d="M21 11L16 6L21 6L21 11Z" fill="#4A4A4A"/>
<path fill-rule="evenodd" clip-rule="evenodd" d="M4.34189 13.0257C4.54606 12.9576 4.77087 13.0279 4.9 13.2L6 14.6667L7.1 13.2C7.22913 13.0279 7.45394 12.9576 7.65811 13.0257C7.86228 13.0937 8 13.2848 8 13.5V18.5C8 18.7762 7.77614 19 7.5 19C7.22386 19 7 18.7762 7 18.5V15L6.4 15.8C6.30557 15.9259 6.15738 16 6 16C5.84262 16 5.69443 15.9259 5.6 15.8L5 15V18.5C5 18.7762 4.77614 19 4.5 19C4.22386 19 4 18.7762 4 18.5V13.5C4 13.2848 4.13772 13.0937 4.34189 13.0257ZM9 13.5C9 13.2239 9.22386 13 9.5 13H11.5C12.3284 13 13 13.6716 13 14.5V15.5C13 16.3285 12.3284 17 11.5 17H10V18.5C10 18.7762 9.77614 19 9.5 19C9.22386 19 9 18.7762 9 18.5V13.5ZM10 16H11.5C11.7761 16 12 15.7762 12 15.5V14.5C12 14.2239 11.7761 14 11.5 14H10V16ZM14.5 13C14.7761 13 15 13.2239 15 13.5V16H17V13.5C17 13.2239 17.2239 13 17.5 13C17.7761 13 18 13.2239 18 13.5V18.5C18 18.7762 17.7761 19 17.5 19C17.2239 19 17 18.7762 17 18.5V17H14.5C14.2239 17 14 16.7762 14 16.5V13.5C14 13.2239 14.2239 13 14.5 13Z" fill="white"/>
</svg>
