<svg width="24" height="24" viewBox="0 0 24 24" fill="none" xmlns="http://www.w3.org/2000/svg">
<path d="M15 0.000854492L4 0.000854492C3.44772 0.000854492 3 0.44857 3 1.00085L3 23C3 23.5523 3.44772 24 4 24H19.9992C20.5515 24 20.9992 23.5523 20.9992 23V6.00004L15 0.000854492Z" fill="#E3E3E3"/>
<path opacity="0.1" d="M3 12H20C20.5523 12 21 12.4477 21 13V21C21 21.5523 20.5523 22 20 22H3V12Z" fill="#4A4A4A"/>
<rect x="2" y="11" width="18" height="10" rx="1" fill="#18AF15"/>
<path fill-rule="evenodd" clip-rule="evenodd" d="M15 0L21 6H16C15.4477 6 15 5.55228 15 5V0Z" fill="#F6F6F6"/>
<path opacity="0.1" fill-rule="evenodd" clip-rule="evenodd" d="M21 11L16 6L21 6L21 11Z" fill="#4A4A4A"/>
<path fill-rule="evenodd" clip-rule="evenodd" d="M9.36653 13.0182C9.58312 12.9582 9.81312 13.0501 9.92875 13.2428L12 16.6949V13.5C12 13.2239 12.2239 13 12.5 13C12.7761 13 13 13.2239 13 13.5V18.5C13 18.7248 12.8501 18.9219 12.6335 18.9819C12.4169 19.0419 12.1869 18.95 12.0713 18.7573L10 15.3052V18.5C10 18.7762 9.77614 19 9.5 19C9.22386 19 9 18.7762 9 18.5V13.5C9 13.2753 9.14995 13.0782 9.36653 13.0182ZM4 13.5C4 13.2239 4.22386 13 4.5 13H6.5C7.32843 13 8 13.6716 8 14.5V15.5C8 16.3285 7.32843 17 6.5 17H5V18.5C5 18.7762 4.77614 19 4.5 19C4.22386 19 4 18.7762 4 18.5V13.5ZM5 16H6.5C6.77614 16 7 15.7762 7 15.5V14.5C7 14.2239 6.77614 14 6.5 14H5V16ZM14 14.5C14 13.6716 14.6716 13 15.5 13H17.5C17.7761 13 18 13.2239 18 13.5C18 13.7762 17.7761 14 17.5 14H15.5C15.2239 14 15 14.2239 15 14.5V17.5C15 17.7762 15.2239 18 15.5 18H17V17H16.5C16.2239 17 16 16.7762 16 16.5C16 16.2239 16.2239 16 16.5 16H17.5C17.7761 16 18 16.2239 18 16.5V18.5C18 18.7762 17.7761 19 17.5 19H15.5C14.6716 19 14 18.3285 14 17.5V14.5Z" fill="white"/>
</svg>
