<svg width="24" height="24" viewBox="0 0 24 24" fill="none" xmlns="http://www.w3.org/2000/svg">
<path d="M15 0.000854492L4 0.000854492C3.44772 0.000854492 3 0.44857 3 1.00085L3 23C3 23.5523 3.44772 24 4 24H19.9992C20.5515 24 20.9992 23.5523 20.9992 23V6.00004L15 0.000854492Z" fill="#E3E3E3"/>
<path opacity="0.1" d="M3 12H20C20.5523 12 21 12.4477 21 13V21C21 21.5523 20.5523 22 20 22H3V12Z" fill="#4A4A4A"/>
<rect x="2" y="11" width="18" height="10" rx="1" fill="#068AC2"/>
<path fill-rule="evenodd" clip-rule="evenodd" d="M15 0L21 6H16C15.4477 6 15 5.55228 15 5V0Z" fill="#F6F6F6"/>
<path opacity="0.1" fill-rule="evenodd" clip-rule="evenodd" d="M21 11L16 6L21 6L21 11Z" fill="#4A4A4A"/>
<path fill-rule="evenodd" clip-rule="evenodd" d="M4 13.5C4 13.2239 4.22386 13 4.5 13H6.5C7.32843 13 8 13.6716 8 14.5V15.5C8 16.0684 7.68382 16.563 7.21775 16.8175L7.94721 18.2764C8.07071 18.5234 7.9706 18.8237 7.72361 18.9472C7.47662 19.0707 7.17628 18.9706 7.05279 18.7236L6.19098 17H5V18.5C5 18.7761 4.77614 19 4.5 19C4.22386 19 4 18.7761 4 18.5V13.5ZM5 16H6.5C6.77614 16 7 15.7761 7 15.5V14.5C7 14.2239 6.77614 14 6.5 14H5V16ZM9.5 13C9.77614 13 10 13.2239 10 13.5V16.3333L11 17.6667L12 16.3333V13.5C12 13.2239 12.2239 13 12.5 13C12.7761 13 13 13.2239 13 13.5V16.5C13 16.6082 12.9649 16.7135 12.9 16.8L11.4 18.8C11.3056 18.9259 11.1574 19 11 19C10.8426 19 10.6944 18.9259 10.6 18.8L9.1 16.8C9.03509 16.7135 9 16.6082 9 16.5V13.5C9 13.2239 9.22386 13 9.5 13ZM14 13.5C14 13.2239 14.2239 13 14.5 13H16.5C16.7761 13 17 13.2239 17 13.5C17 13.7761 16.7761 14 16.5 14H16V18.5C16 18.7761 15.7761 19 15.5 19C15.2239 19 15 18.7761 15 18.5V14H14.5C14.2239 14 14 13.7761 14 13.5Z" fill="white"/>
</svg>
