<svg width="24" height="24" viewBox="0 0 24 24" fill="none" xmlns="http://www.w3.org/2000/svg">
<path d="M15 0.000854492L4 0.000854492C3.44772 0.000854492 3 0.44857 3 1.00085L3 23C3 23.5523 3.44772 24 4 24H19.9992C20.5515 24 20.9992 23.5523 20.9992 23V6.00004L15 0.000854492Z" fill="#E3E3E3"/>
<path opacity="0.1" d="M3 12H20C20.5523 12 21 12.4477 21 13V21C21 21.5523 20.5523 22 20 22H3V12Z" fill="#4A4A4A"/>
<rect x="2" y="11" width="18" height="10" rx="1" fill="#4A4A4A"/>
<path fill-rule="evenodd" clip-rule="evenodd" d="M15 0L21 6H16C15.4477 6 15 5.55228 15 5V0Z" fill="#F6F6F6"/>
<path opacity="0.1" fill-rule="evenodd" clip-rule="evenodd" d="M21 11L16 6L21 6L21 11Z" fill="#4A4A4A"/>
<path fill-rule="evenodd" clip-rule="evenodd" d="M5 13.5C5 13.2239 5.22386 13 5.5 13H7.5C7.77614 13 8 13.2239 8 13.5C8 13.7761 7.77614 14 7.5 14H7V18.5C7 18.7761 6.77614 19 6.5 19C6.22386 19 6 18.7761 6 18.5V14H5.5C5.22386 14 5 13.7761 5 13.5ZM9.5 13C9.77614 13 10 13.2239 10 13.5V14.2929L11 15.2929L12 14.2929V13.5C12 13.2239 12.2239 13 12.5 13C12.7761 13 13 13.2239 13 13.5V14.5C13 14.6326 12.9473 14.7598 12.8536 14.8536L11.7071 16L12.8536 17.1464C12.9473 17.2402 13 17.3674 13 17.5V18.5C13 18.7761 12.7761 19 12.5 19C12.2239 19 12 18.7761 12 18.5V17.7071L11 16.7071L10 17.7071V18.5C10 18.7761 9.77614 19 9.5 19C9.22386 19 9 18.7761 9 18.5V17.5C9 17.3674 9.05268 17.2402 9.14645 17.1464L10.2929 16L9.14645 14.8536C9.05268 14.7598 9 14.6326 9 14.5V13.5C9 13.2239 9.22386 13 9.5 13ZM14 13.5C14 13.2239 14.2239 13 14.5 13H16.5C16.7761 13 17 13.2239 17 13.5C17 13.7761 16.7761 14 16.5 14H16V18.5C16 18.7761 15.7761 19 15.5 19C15.2239 19 15 18.7761 15 18.5V14H14.5C14.2239 14 14 13.7761 14 13.5Z" fill="white"/>
</svg>
