<svg width="24" height="24" viewBox="0 0 24 24" fill="none" xmlns="http://www.w3.org/2000/svg">
<path d="M15 0.000854492L4 0.000854492C3.44772 0.000854492 3 0.44857 3 1.00085L3 23C3 23.5523 3.44772 24 4 24H19.9992C20.5515 24 20.9992 23.5523 20.9992 23V6.00004L15 0.000854492Z" fill="#D7D7D7"/>
<path opacity="0.1" d="M3 12H20C20.5523 12 21 12.4477 21 13V21C21 21.5523 20.5523 22 20 22H3V12Z" fill="#4A4A4A"/>
<rect x="2" y="11" width="18" height="10" rx="1" fill="#4A4A4A"/>
<path fill-rule="evenodd" clip-rule="evenodd" d="M15 0L21 6H16C15.4477 6 15 5.55228 15 5V0Z" fill="#F6F6F6"/>
<path opacity="0.1" fill-rule="evenodd" clip-rule="evenodd" d="M21 11L16 6L21 6L21 11Z" fill="#4A4A4A"/>
<path fill-rule="evenodd" clip-rule="evenodd" d="M4.5 13C4.22386 13 4 13.2239 4 13.5V14.5C4 14.7761 4.22386 15 4.5 15C4.77614 15 5 14.7761 5 14.5V14H7V15.191L5.27639 16.0528C5.107 16.1375 5 16.3106 5 16.5V17.5C5 17.7761 5.22386 18 5.5 18C5.22386 18 5 18.2239 5 18.5C5 18.7761 5.22386 19 5.5 19C5.77614 19 6 18.7761 6 18.5C6 18.2239 5.77614 18 5.5 18C5.77614 18 6 17.7761 6 17.5V16.809L7.72361 15.9472C7.893 15.8625 8 15.6894 8 15.5V13.5C8 13.2239 7.77614 13 7.5 13H4.5ZM9.5 13C9.22386 13 9 13.2239 9 13.5V14.5C9 14.7761 9.22386 15 9.5 15C9.77614 15 10 14.7761 10 14.5V14H12V15.191L10.2764 16.0528C10.107 16.1375 10 16.3106 10 16.5V17.5C10 17.7761 10.2239 18 10.5 18C10.2239 18 10 18.2239 10 18.5C10 18.7761 10.2239 19 10.5 19C10.7761 19 11 18.7761 11 18.5C11 18.2239 10.7761 18 10.5 18C10.7761 18 11 17.7761 11 17.5V16.809L12.7236 15.9472C12.893 15.8625 13 15.6894 13 15.5V13.5C13 13.2239 12.7761 13 12.5 13H9.5ZM14.5 13C14.2239 13 14 13.2239 14 13.5V14.5C14 14.7761 14.2239 15 14.5 15C14.7761 15 15 14.7761 15 14.5V14H17V15.191L15.2764 16.0528C15.107 16.1375 15 16.3106 15 16.5V17.5C15 17.7761 15.2239 18 15.5 18C15.2239 18 15 18.2239 15 18.5C15 18.7761 15.2239 19 15.5 19C15.7761 19 16 18.7761 16 18.5C16 18.2239 15.7761 18 15.5 18C15.7761 18 16 17.7761 16 17.5V16.809L17.7236 15.9472C17.893 15.8625 18 15.6894 18 15.5V13.5C18 13.2239 17.7761 13 17.5 13H14.5Z" fill="white"/>
</svg>
